<?xml version="1.0" encoding="UTF-8" standalone="no"?>
<svg width="3820px" height="1917px" viewBox="0 0 3820 1917" version="1.1" xmlns="http://www.w3.org/2000/svg" xmlns:xlink="http://www.w3.org/1999/xlink" xmlns:sketch="http://www.bohemiancoding.com/sketch/ns">
    <!-- Generator: Sketch 3.0.1 (7597) - http://www.bohemiancoding.com/sketch -->
    <title>Sky</title>
    <description>Created with Sketch.</description>
    <defs></defs>
    <g id="Page-1" stroke="none" stroke-width="1" fill="none" fill-rule="evenodd" sketch:type="MSPage">
        <g id="Artboard-1" sketch:type="MSArtboardGroup">
            <g id="Sky" sketch:type="MSLayerGroup" transform="translate(-32.000000, 0.000000)">
                <path d="M32,0 L517.442026,436 L822,0 L32,0 Z" id="Rectangle-148" fill="#B4E3F9" sketch:type="MSShapeGroup"></path>
                <path d="M32,0 L32,1125 L539,403.9375 L32,0 Z" id="Rectangle-154" fill="#AADFF7" sketch:type="MSShapeGroup"></path>
                <path d="M847.136719,0 L1001,513.828125 L31,1121.58203 L821.814857,0 L847.136719,0 Z" id="Rectangle-149" fill="#A6DCF4" sketch:type="MSShapeGroup"></path>
                <path d="M1001.19814,517 L2092,0 L822,0 L1001.19814,517 Z" id="Rectangle-153" fill="#B6E3F7" sketch:type="MSShapeGroup"></path>
                <path d="M1001.19814,517 L1383.32812,0 L822,0 L1001.19814,517 Z" id="Rectangle-203" fill="#AADFF7" sketch:type="MSShapeGroup"></path>
                <path d="M1000.61786,512 L31,1120.89062 L1584,1125 L1000.61786,512 Z" id="Rectangle-150" fill="#97D1EB" sketch:type="MSShapeGroup"></path>
                <path d="M32,1917 L32,1121 L1590,1121 L32,1917 Z" id="Rectangle-160" fill="#83C2DF" sketch:type="MSShapeGroup"></path>
                <path d="M931.703125,1472.76562 L32,1121 L1350.54688,885.78125 L1575.32812,1121 L931.703125,1472.76562 Z" id="Rectangle-190" fill="#7EC1E0" sketch:type="MSShapeGroup"></path>
                <path d="M931.703125,1472.76562 L31,1121.11719 L1579.07812,1126.67188 L931.703125,1472.76562 Z" id="Rectangle-199" fill="#74B8D8" sketch:type="MSShapeGroup"></path>
                <path d="M0,1911 L2476,1911 L1573.44844,1125 L0,1911 Z" id="Rectangle-161" fill="#76B3CE" sketch:type="MSShapeGroup"></path>
                <path d="M1384.10156,1911 L2476,1911 L1573.44844,1125 L1384.10156,1911 Z" id="Rectangle-198" fill="#66A6C4" sketch:type="MSShapeGroup"></path>
                <path d="M2376.4375,1911 L2475.21108,1911 L2605,1448.54223 L1573,1125 L2376.4375,1911 Z" id="Rectangle-163" fill="#7BB8D3" sketch:type="MSShapeGroup"></path>
                <path d="M3852,1125 L2475,1911 L3852,1911 L3852,1125 Z" id="Rectangle-164" fill="#6DADCB" sketch:type="MSShapeGroup"></path>
                <path d="M3852,1182.125 L3238.55469,1911 L3852,1911 L3852,1182.125 Z" id="Rectangle-206" fill="#62A6C5" sketch:type="MSShapeGroup"></path>
                <path d="M1001,514 L1015.61328,506.191406 L2695,1125.21813 L2580.92188,1520.52344 L1572.63754,1126.21813 L1001,514 Z" id="Rectangle-151" fill="#93CCE7" sketch:type="MSShapeGroup"></path>
                <path d="M1001,514 L1015.61328,506.191406 L2020.78516,884.121094 L1572.63754,1126.21813 L1001,514 Z" id="Rectangle-204" fill="#9AD5EF" sketch:type="MSShapeGroup"></path>
                <path d="M3852,383.984375 L2669.98438,1125 L2696.03906,1131.95312 L3852,952.21875 L3852,383.984375 Z" id="Rectangle-155" fill="#93CCE7" sketch:type="MSShapeGroup"></path>
                <path d="M3852,415.78125 L2687,1127 L3168.3874,0 L3852,415.78125 Z" id="Rectangle-156" fill="#AADFF7" sketch:type="MSShapeGroup"></path>
                <path d="M3852,415.78125 L3376.70312,706.09375 L3168.3874,0 L3852,415.78125 Z" id="Rectangle-205" fill="#BCE7FA" sketch:type="MSShapeGroup"></path>
                <path d="M3852,456.34375 L3852,0 L3134.95312,0 L3852,456.34375 Z" id="Rectangle-157" fill="#B6E3F7" sketch:type="MSShapeGroup"></path>
                <path d="M999.117188,513.257812 L2693,1129 L2215.75,0 L2091.12271,0 L999.117188,513.257812 Z" id="Rectangle-152" fill="#AADFF7" sketch:type="MSShapeGroup"></path>
                <path d="M999.117188,513.257812 L2016.47656,885.117188 L1928.92969,381.859375 L999.117188,513.257812 Z" id="Rectangle-207" fill="#B2E5FC" sketch:type="MSShapeGroup"></path>
                <path d="M2688.28516,1130.06641 L2215.75,0 L1930.16797,385.265625 L2688.28516,1130.06641 Z" id="Rectangle-192" fill="#9AD5F0" sketch:type="MSShapeGroup"></path>
                <path d="M999.117188,513.257812 L2271.49219,335 L2091.12271,0 L999.117188,513.257812 Z" id="Rectangle-191" fill="#BCE7FA" sketch:type="MSShapeGroup"></path>
                <path d="M1929.54297,382.527344 L2271.49219,335 L2091.12271,0 L1929.54297,382.527344 Z" id="Rectangle-201" fill="#B6E3F7" sketch:type="MSShapeGroup"></path>
                <path d="M3852,949.796875 L3852,1180.59375 L2475,1911 L2688.56641,1125.59766 L3852,949.796875 Z" id="Rectangle-162" fill="#83C2DF" sketch:type="MSShapeGroup"></path>
                <path d="M3363.23438,1441.1875 L2475,1911 L2688.56641,1125.59766 L3363.23438,1441.1875 Z" id="Rectangle-200" fill="#68B1D2" sketch:type="MSShapeGroup"></path>
                <path d="M3185,0 L2687.89517,1126 L2091,0 L3185,0 Z" id="Rectangle-158" fill="#A6DCF4" sketch:type="MSShapeGroup"></path>
                <path d="M2503.4375,0 L2269.82031,337 L2091,0 L2503.4375,0 Z" id="Rectangle-202" fill="#AADFF7" sketch:type="MSShapeGroup"></path>
                <path d="M3184,0 L2897.52663,653 L2506,0 L3184,0 Z" id="Rectangle-159" fill="#B4E3F9" sketch:type="MSShapeGroup"></path>
            </g>
        </g>
    </g>
</svg>