<svg width="300" height="160" viewBox="0 0 300 160" xmlns="http://www.w3.org/2000/svg" xmlns:xlink="http://www.w3.org/1999/xlink" xmlns:sketch="http://www.bohemiancoding.com/sketch/ns"><title>blue-ticket</title><defs><path id="a" d="M1 147h298v6h-298z"/><path id="b" d="M1 7h298v6h-298z"/></defs><g sketch:type="MSLayerGroup" fill="none"><path d="M0 0v53.781l20 26.219-20 27.031v52.969h300v-52.969l-20-27.031 20-26.219v-53.781h-300z" fill="#466787" sketch:type="MSShapeGroup"/><path d="M0 0v54l150-54h-150zm0 160v-54l150 54h-150z" fill="#517496" sketch:type="MSShapeGroup"/><path d="M20.535 80l-20.535-26.54 150-53.46-129.465 80z" fill="#567CA1" sketch:type="MSShapeGroup"/><path d="M21 80h93.425l35.575-80-129 80z" fill="#3E5A74" sketch:type="MSShapeGroup"/><path d="M150 80h-36l36-80v80z" fill="#44607B" sketch:type="MSShapeGroup"/><path d="M150 80h-36l36 78v-78zm0 0h37l-37-80v80z" fill="#567CA1" sketch:type="MSShapeGroup"/><path d="M150 80h36l-36 78v-78z" fill="#44607B" sketch:type="MSShapeGroup"/><path d="M21 80h94.041l34.959 78-129-78zm259 0h-94.421l-34.579-80 129 80z" fill="#4B6E8E" sketch:type="MSShapeGroup"/><path d="M279 80h-94.041l-34.959 78 129-78z" fill="#3E5A74" sketch:type="MSShapeGroup"/><path d="M20.798 80l-20.798 26.778 152 53.222-131.202-80z" fill="#44607B" sketch:type="MSShapeGroup"/><path d="M300 0v54l-150-54h150zm0 160v-54l-150 54h150z" fill="#517496" sketch:type="MSShapeGroup"/><path d="M279.465 80l20.535-26.54-150-53.46 129.465 80z" fill="#44607B" sketch:type="MSShapeGroup"/><path d="M279.202 80l20.798 26.778-152 53.222 131.202-80z" fill="#567CA1" sketch:type="MSShapeGroup"/><g transform="translate(-250 -4958) translate(250 4958)"><use stroke="#6594C0" stroke-dasharray="2" fill="#fff" sketch:type="MSShapeGroup" xlink:href="#a"/><use xlink:href="#a"/></g><g transform="translate(-250 -4958) translate(250 4958)"><use stroke="#6594C0" stroke-dasharray="2" fill="#fff" sketch:type="MSShapeGroup" xlink:href="#b"/><use xlink:href="#b"/></g></g></svg>