<?xml version="1.0" encoding="UTF-8" standalone="no"?>
<svg width="300px" height="160px" viewBox="0 0 300 160" version="1.1" xmlns="http://www.w3.org/2000/svg" xmlns:xlink="http://www.w3.org/1999/xlink" xmlns:sketch="http://www.bohemiancoding.com/sketch/ns">
    <!-- Generator: Sketch 3.0.2 (7799) - http://www.bohemiancoding.com/sketch -->
    <title>blue-ticket</title>
    <description>Created with Sketch.</description>
    <defs>
        <rect id="path-1" x="1" y="147" width="298" height="6"></rect>
        <rect id="path-2" x="1" y="7" width="298" height="6"></rect>
    </defs>
    <g id="Page-1" stroke="none" stroke-width="1" fill="none" fill-rule="evenodd" sketch:type="MSPage">
        <g id="Artboard-1" sketch:type="MSArtboardGroup" transform="translate(-250.000000, -4958.000000)">
            <g id="blue-ticket" sketch:type="MSLayerGroup" transform="translate(250.000000, 4958.000000)">
                <path d="M0,0 L0,53.78125 L20,80 L0,107.03125 L0,160 L300,160 L300,107.03125 L280,80 L300,53.78125 L300,0 L0,0 Z" id="Rectangle-1347" fill="#466787" sketch:type="MSShapeGroup"></path>
                <path d="M0,0 L0,54 L150,0 L0,0 Z" id="Rectangle-1350" fill="#517496" sketch:type="MSShapeGroup"></path>
                <path d="M0,106 L0,160 L150,106 L0,106 Z" id="Rectangle-1353" fill="#517496" sketch:type="MSShapeGroup" transform="translate(75.000000, 133.000000) scale(1, -1) translate(-75.000000, -133.000000) "></path>
                <path d="M20.5351562,80 L0,53.4601757 L150,0 L20.5351562,80 Z" id="Rectangle-1351" fill="#567CA1" sketch:type="MSShapeGroup"></path>
                <path d="M21,80 L114.425067,80 L150,0 L21,80 Z" id="Rectangle-1358" fill="#3E5A74" sketch:type="MSShapeGroup"></path>
                <path d="M150,80 L114,80 L150,0 L150,80 Z" id="Rectangle-1362" fill="#44607B" sketch:type="MSShapeGroup"></path>
                <path d="M150,80 L114,80 L150,158 L150,80 Z" id="Rectangle-1363" fill="#567CA1" sketch:type="MSShapeGroup"></path>
                <path d="M187,80 L150,80 L187,0 L187,80 Z" id="Rectangle-1365" fill="#567CA1" sketch:type="MSShapeGroup" transform="translate(168.500000, 40.000000) scale(-1, 1) translate(-168.500000, -40.000000) "></path>
                <path d="M186,80 L150,80 L186,158 L186,80 Z" id="Rectangle-1364" fill="#44607B" sketch:type="MSShapeGroup" transform="translate(168.000000, 119.500000) scale(-1, 1) translate(-168.000000, -119.500000) "></path>
                <path d="M21,80 L115.040788,80 L150,158 L21,80 Z" id="Rectangle-1359" fill="#4B6E8E" sketch:type="MSShapeGroup"></path>
                <path d="M151,80 L245.421477,80 L280,0 L151,80 Z" id="Rectangle-1361" fill="#4B6E8E" sketch:type="MSShapeGroup" transform="translate(215.500000, 40.000000) scale(-1, 1) translate(-215.500000, -40.000000) "></path>
                <path d="M151,80 L245.040788,80 L280,158 L151,80 Z" id="Rectangle-1360" fill="#3E5A74" sketch:type="MSShapeGroup" transform="translate(215.000000, 119.500000) scale(-1, 1) translate(-215.000000, -119.500000) "></path>
                <path d="M20.7975256,80 L0,106.777551 L152,160 L20.7975256,80 Z" id="Rectangle-1352" fill="#44607B" sketch:type="MSShapeGroup"></path>
                <path d="M150,0 L150,54 L300,0 L150,0 Z" id="Rectangle-1357" fill="#517496" sketch:type="MSShapeGroup" transform="translate(225.000000, 27.000000) scale(-1, 1) translate(-225.000000, -27.000000) "></path>
                <path d="M150,106 L150,160 L300,106 L150,106 Z" id="Rectangle-1354" fill="#517496" sketch:type="MSShapeGroup" transform="translate(225.000000, 133.000000) scale(-1, -1) translate(-225.000000, -133.000000) "></path>
                <path d="M170.535156,80 L150,53.4601757 L300,0 L170.535156,80 Z" id="Rectangle-1355" fill="#44607B" sketch:type="MSShapeGroup" transform="translate(225.000000, 40.000000) scale(-1, 1) translate(-225.000000, -40.000000) "></path>
                <path d="M169.797526,80 L149,106.777551 L301,160 L169.797526,80 Z" id="Rectangle-1356" fill="#567CA1" sketch:type="MSShapeGroup" transform="translate(224.500000, 120.000000) scale(-1, 1) translate(-224.500000, -120.000000) "></path>
                <g id="Rectangle-1348">
                    <use stroke="#6594C0" stroke-width="1" stroke-dasharray="2" fill="#FFFFFF" fill-rule="evenodd" sketch:type="MSShapeGroup" xlink:href="#path-1"></use>
                    <use stroke="none" fill="none" xlink:href="#path-1"></use>
                </g>
                <g id="Rectangle-1349">
                    <use stroke="#6594C0" stroke-width="1" stroke-dasharray="2" fill="#FFFFFF" fill-rule="evenodd" sketch:type="MSShapeGroup" xlink:href="#path-2"></use>
                    <use stroke="none" fill="none" xlink:href="#path-2"></use>
                </g>
            </g>
        </g>
    </g>
</svg>