<svg width="1616" height="475" viewBox="0 0 1616 475" xmlns="http://www.w3.org/2000/svg" xmlns:sketch="http://www.bohemiancoding.com/sketch/ns"><title>Clouds</title><g sketch:type="MSLayerGroup" fill="none"><g id="Cloud" sketch:type="MSShapeGroup"><path d="M1217.629 132.415l-29.864 72.869h159.401l-71.073-100.396-9.127-2.495-49.337 30.023z" id="Rectangle-193" fill="#fff"/><path d="M1443.607 153.838l-34.236 51.446h-62.936l-79.219-102.892 176.391 51.446z" id="Rectangle-196" fill="#FDFFFF"/><path d="M1229.739 277.707l-41.974-73.423h158.402l-44.074 60.646-72.354 12.777z" id="Rectangle-194" fill="#FDFEFE"/><path d="M1372.276 285.699l67.333-30.323-30.805-52.09-63.067 1.001-44.543 60.6 71.082 20.812z" id="Rectangle-195" fill="#F8FCFD"/><path d="M1439.035 255.761l-7.152 2.966-23.754-54.284 34.764-50.106 32.694 46.398-36.552 55.026z" id="Rectangle-197" fill="#F5FAFC"/></g><g id="Cloud" sketch:type="MSShapeGroup"><path d="M18.162 346.519l-18.162 44.57h96.94l-43.223-61.407-5.551-1.526-30.004 18.364z" id="Rectangle-193" fill="#fff"/><path d="M155.404 359.622l-20.852 31.467h-38.332l-48.249-62.934 107.434 31.467z" id="Rectangle-196" fill="#FDFFFF"/><path d="M25.555 434.543l-25.555-44.453h96.44l-26.834 36.717-44.051 7.736z" id="Rectangle-194" fill="#FDFEFE"/><path d="M112.325 440.037l41.08-18.562-18.794-31.885-39.661.613-25.992 37.095 43.368 12.74z" id="Rectangle-195" fill="#F8FCFD"/><path d="M153.19 421.253l-4.344 1.802-14.429-32.986 21.116-30.447 19.859 28.194-22.202 33.437z" id="Rectangle-197" fill="#F5FAFC"/></g><g id="Cloud" sketch:type="MSShapeGroup"><path d="M1548.411 434.92l-7.864 19.101h41.974l-18.715-26.317-2.403-.654-12.991 7.87z" id="Rectangle-193" fill="#fff"/><path d="M1607.506 440.536l-9.02 13.486h-16.581l-20.871-26.972 46.471 13.486z" id="Rectangle-196" fill="#FDFFFF"/><path d="M1551.537 472.502l-10.99-18.98h41.474l-11.54 15.677-18.944 3.303z" id="Rectangle-194" fill="#FDFEFE"/><path d="M1589.261 475l17.745-7.902-8.118-13.575-17.62.261-11.739 15.793 19.732 5.424z" id="Rectangle-195" fill="#F8FCFD"/><path d="M1606.524 467.226l-1.854.781-7.658-14.285 10.512-13.186 8.476 12.21-9.476 14.481z" id="Rectangle-197" fill="#F5FAFC"/></g><g sketch:type="MSShapeGroup"><path d="M1407.998 10.867l-7.864 19.101h41.974l-18.715-26.317-2.403-.654-12.991 7.87z" id="Rectangle-193" fill="#fff"/><path d="M1467.093 16.483l-9.02 13.486h-16.581l-20.871-26.972 46.471 13.486z" id="Rectangle-196" fill="#FDFFFF"/><path d="M1411.124 48.449l-10.99-18.98h41.474l-11.54 15.677-18.944 3.303z" id="Rectangle-194" fill="#FDFEFE"/><path d="M1448.848 50.947l17.745-7.902-8.118-13.575-17.62.261-11.739 15.793 19.732 5.424z" id="Rectangle-195" fill="#F8FCFD"/><path d="M1466.111 43.173l-1.854.781-7.658-14.285 10.512-13.186 8.476 12.21-9.476 14.481z" id="Rectangle-197" fill="#F5FAFC"/></g><g id="Cloud" sketch:type="MSShapeGroup"><path d="M718.924 148.222l-7.864 8.373v10.729h41.974l-18.715-26.317-2.403-.654-12.991 7.87z" id="Rectangle-193" fill="#fff"/><path d="M754.783 145.719l11.46-5.367 11.776 5.367v8.118l-9.02 13.486h-16.581l-20.871-26.972 23.236 5.367z" id="Rectangle-196" fill="#FDFFFF"/><path d="M737.672 194.295l-15.62-8.57-8.208-5.318-2.784-13.583h41.483l13.483 13.583-28.354 13.888z" id="Rectangle-194" fill="#FDFEFE"/><path d="M759.774 188.302l17.745-7.902-8.118-13.575-17.62.261-11.739 15.793 19.732 5.424z" id="Rectangle-195" fill="#F8FCFD"/><path d="M777.037 180.528l-1.854.781-7.658-14.285 10.512-13.186 8.476 12.21-9.476 14.481z" id="Rectangle-197" fill="#F5FAFC"/></g><g sketch:type="MSShapeGroup"><path d="M140.782 7.87l-7.864 8.373v10.729h41.974l-18.715-26.317-2.403-.654-12.991 7.87z" id="Rectangle-193" fill="#fff"/><path d="M176.641 5.367l11.46-5.367 11.776 5.367v8.118l-9.02 13.486h-16.581l-20.871-26.972 23.236 5.367z" id="Rectangle-196" fill="#FDFFFF"/><path d="M159.53 53.943l-15.62-8.57-8.208-5.318-2.784-13.583h41.483l13.483 13.583-28.354 13.888z" id="Rectangle-194" fill="#FDFEFE"/><path d="M181.632 47.95l17.745-7.902-8.118-13.575-17.62.261-11.739 15.793 19.732 5.424z" id="Rectangle-195" fill="#F8FCFD"/><path d="M198.895 40.176l-1.854.781-7.658-14.285 10.512-13.186 8.476 12.21-9.476 14.481z" id="Rectangle-197" fill="#F5FAFC"/></g><g sketch:type="MSShapeGroup"><path d="M293.114 134.721l-20.783 22.172v28.412h110.931l-49.462-69.693-6.352-1.732-34.335 20.841z" id="Rectangle-193" fill="#fff"/><path d="M387.76 128.094l30.313-14.214 31.149 14.214v21.499l-23.859 35.712h-43.859l-55.206-71.425 61.462 14.214z" id="Rectangle-196" fill="#FDFFFF"/><path d="M342.733 256.73l-41.322-22.75-21.715-14.116-7.365-36.057h109.742l35.668 36.057-75.009 36.866z" id="Rectangle-194" fill="#FDFEFE"/><path d="M400.876 240.746l46.846-20.951-21.432-35.989-46.517.691-30.99 41.869 52.093 14.38z" id="Rectangle-195" fill="#F8FCFD"/><path d="M446.77 220.208l-4.879 2.058-20.152-37.661 27.663-34.763 22.306 32.19-24.938 38.176z" id="Rectangle-197" fill="#F5FAFC"/></g><g sketch:type="MSShapeGroup"><path d="M1072.705 426.929l-7.864 8.373v10.729h41.974l-18.715-26.317-2.403-.654-12.991 7.87z" id="Rectangle-193" fill="#fff"/><path d="M1108.564 424.426l11.46-5.367 11.776 5.367v8.118l-9.02 13.486h-16.581l-20.871-26.972 23.236 5.367z" id="Rectangle-196" fill="#FDFFFF"/><path d="M1091.453 473.002l-15.62-8.57-8.208-5.318-2.784-13.583h41.483l13.483 13.583-28.354 13.888z" id="Rectangle-194" fill="#FDFEFE"/><path d="M1113.555 467.009l17.745-7.902-8.118-13.575-17.62.261-11.739 15.793 19.732 5.424z" id="Rectangle-195" fill="#F8FCFD"/><path d="M1130.818 459.235l-1.854.781-7.658-14.285 10.512-13.186 8.476 12.21-9.476 14.481z" id="Rectangle-197" fill="#F5FAFC"/></g><g sketch:type="MSShapeGroup"><path d="M320.171 386.971l-7.864 19.101h41.974l-18.715-26.317-2.403-.654-12.991 7.87z" fill="#fff"/><path d="M379.266 392.587l-9.02 13.486h-16.581l-20.871-26.972 46.471 13.486z" fill="#FDFFFF"/><path d="M323.297 424.553l-10.99-18.98h41.474l-11.54 15.677-18.944 3.303z" fill="#FDFEFE"/><path d="M361.021 427.051l17.745-7.902-8.118-13.575-17.12.261-11.739 15.793 19.232 5.424z" fill="#F8FCFD"/><path d="M380.894 418.788l-4.955 1.769-6.168-14.771 9.013-13.699 8.976 12.723-6.866 13.978z" fill="#F5FAFC"/></g></g></svg>