<?xml version="1.0" encoding="UTF-8" standalone="no"?>
<svg width="1616px" height="475px" viewBox="0 0 1616 475" version="1.1" xmlns="http://www.w3.org/2000/svg" xmlns:xlink="http://www.w3.org/1999/xlink" xmlns:sketch="http://www.bohemiancoding.com/sketch/ns">
    <!-- Generator: Sketch 3.0.1 (7597) - http://www.bohemiancoding.com/sketch -->
    <title>Clouds</title>
    <description>Created with Sketch.</description>
    <defs></defs>
    <g id="Page-1" stroke="none" stroke-width="1" fill="none" fill-rule="evenodd" sketch:type="MSPage">
        <g id="Artboard-1" sketch:type="MSArtboardGroup" transform="translate(-271.000000, -383.000000)">
            <g id="Clouds" sketch:type="MSLayerGroup" transform="translate(271.000000, 383.000000)">
                <g id="Cloud" transform="translate(1187.764997, 102.392219)" sketch:type="MSShapeGroup">
                    <path d="M29.8643321,30.0230843 L0,102.891693 L159.401361,102.891693 L88.328154,2.49542012 L79.2009895,0 L29.8643321,30.0230843 Z" id="Rectangle-193" fill="#FFFFFF"></path>
                    <path d="M255.841682,51.4458465 L221.605286,102.891693 L158.669357,102.891693 L79.4508349,0 L255.841682,51.4458465 Z" id="Rectangle-196" fill="#FDFFFF"></path>
                    <path d="M41.974026,175.315457 L0,101.892744 L158.401979,101.892744 L114.32769,162.538466 L41.974026,175.315457 Z" id="Rectangle-194" fill="#FDFEFE"></path>
                    <path d="M184.511453,183.307045 L251.844156,152.983567 L221.039249,100.893796 L157.972381,101.894545 L113.429808,162.494592 L184.511453,183.307045 Z" id="Rectangle-195" fill="#F8FCFD"></path>
                    <path d="M251.26994,153.369222 L244.118004,156.335436 L220.363636,102.051563 L255.127604,51.9453207 L287.821892,98.3433081 L251.26994,153.369222 Z" id="Rectangle-197" fill="#F5FAFC"></path>
                </g>
                <g id="Cloud" transform="translate(0.000000, 328.154574)" sketch:type="MSShapeGroup">
                    <path d="M18.1620076,18.3636341 L0,62.9337539 L96.9400124,62.9337539 L53.7168084,1.52632493 L48.166119,0 L18.1620076,18.3636341 Z" id="Rectangle-193" fill="#FFFFFF"></path>
                    <path d="M155.403834,31.466877 L134.551638,62.9337539 L96.2195568,62.9337539 L47.9703154,0 L155.403834,31.466877 Z" id="Rectangle-196" fill="#FDFFFF"></path>
                    <path d="M25.5551641,106.388013 L0,61.9348055 L96.4403216,61.9348055 L69.6064486,98.6522829 L25.5551641,106.388013 Z" id="Rectangle-194" fill="#FDFEFE"></path>
                    <path d="M112.32483,111.882229 L153.405071,93.3205848 L134.610742,61.4353312 L94.949275,62.047911 L68.9573284,99.1424851 L112.32483,111.882229 Z" id="Rectangle-195" fill="#F8FCFD"></path>
                    <path d="M153.189539,93.0976684 L148.8454,94.9001052 L134.416821,61.9142111 L155.532713,31.466877 L175.391466,59.6608693 L153.189539,93.0976684 Z" id="Rectangle-197" fill="#F5FAFC"></path>
                </g>
                <g id="Cloud" transform="translate(1540.546691, 427.050473)" sketch:type="MSShapeGroup">
                    <path d="M7.86396206,7.87012888 L0,26.9716088 L41.974026,26.9716088 L23.2588242,0.654139254 L20.855433,0 L7.86396206,7.87012888 Z" id="Rectangle-193" fill="#FFFFFF"></path>
                    <path d="M66.9585652,13.4858044 L57.9387782,26.9716088 L41.3579243,26.9716088 L20.4873222,0 L66.9585652,13.4858044 Z" id="Rectangle-196" fill="#FDFFFF"></path>
                    <path d="M10.9900447,45.4521556 L0,26.4721346 L41.4743352,26.4721346 L29.9343794,42.1492598 L10.9900447,45.4521556 Z" id="Rectangle-194" fill="#FDFEFE"></path>
                    <path d="M48.7141549,47.9495268 L66.4588745,40.0470445 L58.3406138,26.4721346 L40.7207219,26.7329359 L28.9820656,42.5256754 L48.7141549,47.9495268 Z" id="Rectangle-195" fill="#F8FCFD"></path>
                    <path d="M65.9768766,40.1763046 L64.1226708,40.9568875 L56.4650588,26.6716578 L66.9770117,13.4858044 L75.4533086,25.6958011 L65.9768766,40.1763046 Z" id="Rectangle-197" fill="#F5FAFC"></path>
                </g>
                <g id="Cloud-5" transform="translate(1400.133581, 2.996845)" sketch:type="MSShapeGroup">
                    <path d="M7.86396206,7.87012888 L0,26.9716088 L41.974026,26.9716088 L23.2588242,0.654139254 L20.855433,0 L7.86396206,7.87012888 Z" id="Rectangle-193" fill="#FFFFFF"></path>
                    <path d="M66.9585652,13.4858044 L57.9387782,26.9716088 L41.3579243,26.9716088 L20.4873222,0 L66.9585652,13.4858044 Z" id="Rectangle-196" fill="#FDFFFF"></path>
                    <path d="M10.9900447,45.4521556 L0,26.4721346 L41.4743352,26.4721346 L29.9343794,42.1492598 L10.9900447,45.4521556 Z" id="Rectangle-194" fill="#FDFEFE"></path>
                    <path d="M48.7141549,47.9495268 L66.4588745,40.0470445 L58.3406138,26.4721346 L40.7207219,26.7329359 L28.9820656,42.5256754 L48.7141549,47.9495268 Z" id="Rectangle-195" fill="#F8FCFD"></path>
                    <path d="M65.9768766,40.1763046 L64.1226708,40.9568875 L56.4650588,26.6716578 L66.9770117,13.4858044 L75.4533086,25.6958011 L65.9768766,40.1763046 Z" id="Rectangle-197" fill="#F5FAFC"></path>
                </g>
                <g id="Cloud" transform="translate(711.059988, 140.352261)" sketch:type="MSShapeGroup">
                    <path d="M7.86396206,7.87012888 L0,16.2426681 L0,26.9716088 L41.974026,26.9716088 L23.2588242,0.654139254 L20.855433,0 L7.86396206,7.87012888 Z" id="Rectangle-193" fill="#FFFFFF"></path>
                    <path d="M43.7229437,5.36739698 L55.1826492,0 L66.9585652,5.36739698 L66.9585652,13.4858044 L57.9387782,26.9716088 L41.3579243,26.9716088 L20.4873222,0 L43.7229437,5.36739698 Z" id="Rectangle-196" fill="#FDFFFF"></path>
                    <path d="M26.6122526,53.9432177 L10.9923868,45.3729547 L2.78402702,40.0551561 L0,26.4721346 L41.4831739,26.4721346 L54.9659864,40.0551561 L26.6122526,53.9432177 Z" id="Rectangle-194" fill="#FDFEFE"></path>
                    <path d="M48.7141549,47.9495268 L66.4588745,40.0470445 L58.3406138,26.4721346 L40.7207219,26.7329359 L28.9820656,42.5256754 L48.7141549,47.9495268 Z" id="Rectangle-195" fill="#F8FCFD"></path>
                    <path d="M65.9768766,40.1763046 L64.1226708,40.9568875 L56.4650588,26.6716578 L66.9770117,13.4858044 L75.4533086,25.6958011 L65.9768766,40.1763046 Z" id="Rectangle-197" fill="#F5FAFC"></path>
                </g>
                <g id="Cloud-4" transform="translate(132.917749, 0.000000)" sketch:type="MSShapeGroup">
                    <path d="M7.86396206,7.87012888 L0,16.2426681 L0,26.9716088 L41.974026,26.9716088 L23.2588242,0.654139254 L20.855433,0 L7.86396206,7.87012888 Z" id="Rectangle-193" fill="#FFFFFF"></path>
                    <path d="M43.7229437,5.36739698 L55.1826492,0 L66.9585652,5.36739698 L66.9585652,13.4858044 L57.9387782,26.9716088 L41.3579243,26.9716088 L20.4873222,0 L43.7229437,5.36739698 Z" id="Rectangle-196" fill="#FDFFFF"></path>
                    <path d="M26.6122526,53.9432177 L10.9923868,45.3729547 L2.78402702,40.0551561 L0,26.4721346 L41.4831739,26.4721346 L54.9659864,40.0551561 L26.6122526,53.9432177 Z" id="Rectangle-194" fill="#FDFEFE"></path>
                    <path d="M48.7141549,47.9495268 L66.4588745,40.0470445 L58.3406138,26.4721346 L40.7207219,26.7329359 L28.9820656,42.5256754 L48.7141549,47.9495268 Z" id="Rectangle-195" fill="#F8FCFD"></path>
                    <path d="M65.9768766,40.1763046 L64.1226708,40.9568875 L56.4650588,26.6716578 L66.9770117,13.4858044 L75.4533086,25.6958011 L65.9768766,40.1763046 Z" id="Rectangle-197" fill="#F5FAFC"></path>
                </g>
                <g id="Cloud-3" transform="translate(272.331478, 113.880126)" sketch:type="MSShapeGroup">
                    <path d="M20.7833283,20.8412672 L0,43.0129914 L0,71.424816 L110.931354,71.424816 L61.4697498,1.73225765 L55.11793,0 L20.7833283,20.8412672 Z" id="Rectangle-193" fill="#FFFFFF"></path>
                    <path d="M115.428571,14.2136624 L145.741341,0 L176.890538,14.2136624 L176.890538,35.712408 L153.031747,71.424816 L109.172714,71.424816 L53.9666048,0 L115.428571,14.2136624 Z" id="Rectangle-196" fill="#FDFFFF"></path>
                    <path d="M70.4015047,142.849632 L29.0798596,120.099479 L7.36501692,105.983141 L0,69.9263933 L109.741851,69.9263933 L145.410019,105.983141 L70.4015047,142.849632 Z" id="Rectangle-194" fill="#FDFEFE"></path>
                    <path d="M128.545406,126.866456 L175.391466,105.915689 L153.959258,69.9263933 L107.442743,70.6178199 L76.4526902,112.486943 L128.545406,126.866456 Z" id="Rectangle-195" fill="#F8FCFD"></path>
                    <path d="M174.438644,106.328009 L169.559155,108.38591 L149.407545,70.7248494 L177.070579,35.9621451 L199.376623,68.1521364 L174.438644,106.328009 Z" id="Rectangle-197" fill="#F5FAFC"></path>
                </g>
                <g id="Cloud-2" transform="translate(1064.841064, 419.058885)" sketch:type="MSShapeGroup">
                    <path d="M7.86396206,7.87012888 L0,16.2426681 L0,26.9716088 L41.974026,26.9716088 L23.2588242,0.654139254 L20.855433,0 L7.86396206,7.87012888 Z" id="Rectangle-193" fill="#FFFFFF"></path>
                    <path d="M43.7229437,5.36739698 L55.1826492,0 L66.9585652,5.36739698 L66.9585652,13.4858044 L57.9387782,26.9716088 L41.3579243,26.9716088 L20.4873222,0 L43.7229437,5.36739698 Z" id="Rectangle-196" fill="#FDFFFF"></path>
                    <path d="M26.6122526,53.9432177 L10.9923868,45.3729547 L2.78402702,40.0551561 L0,26.4721346 L41.4831739,26.4721346 L54.9659864,40.0551561 L26.6122526,53.9432177 Z" id="Rectangle-194" fill="#FDFEFE"></path>
                    <path d="M48.7141549,47.9495268 L66.4588745,40.0470445 L58.3406138,26.4721346 L40.7207219,26.7329359 L28.9820656,42.5256754 L48.7141549,47.9495268 Z" id="Rectangle-195" fill="#F8FCFD"></path>
                    <path d="M65.9768766,40.1763046 L64.1226708,40.9568875 L56.4650588,26.6716578 L66.9770117,13.4858044 L75.4533086,25.6958011 L65.9768766,40.1763046 Z" id="Rectangle-197" fill="#F5FAFC"></path>
                </g>
                <g id="Cloud" transform="translate(312.306741, 379.100946)" sketch:type="MSShapeGroup">
                    <path d="M7.86396206,7.87012888 L0,26.9716088 L41.974026,26.9716088 L23.2588242,0.654139254 L20.855433,0 L7.86396206,7.87012888 Z" id="Rectangle-193" fill="#FFFFFF"></path>
                    <path d="M66.9585652,13.4858044 L57.9387782,26.9716088 L41.3579243,26.9716088 L20.4873222,0 L66.9585652,13.4858044 Z" id="Rectangle-196" fill="#FDFFFF"></path>
                    <path d="M10.9900447,45.4521556 L0,26.4721346 L41.4743352,26.4721346 L29.9343794,42.1492598 L10.9900447,45.4521556 Z" id="Rectangle-194" fill="#FDFEFE"></path>
                    <path d="M48.7141549,47.9495268 L66.4588745,40.0470445 L58.3406138,26.4721346 L41.2204127,26.7329359 L29.4817563,42.5256754 L48.7141549,47.9495268 Z" id="Rectangle-195" fill="#F8FCFD"></path>
                    <path d="M68.5872049,39.6870625 L63.6324985,41.4563617 L57.4644403,26.6857402 L66.4773209,12.9863302 L75.4533086,25.7088794 L68.5872049,39.6870625 Z" id="Rectangle-197" fill="#F5FAFC"></path>
                </g>
            </g>
        </g>
    </g>
</svg>