<?xml version="1.0" encoding="UTF-8" standalone="no"?>
<svg width="3820px" height="2774px" viewBox="0 0 3820 2774" version="1.1" xmlns="http://www.w3.org/2000/svg" xmlns:xlink="http://www.w3.org/1999/xlink" xmlns:sketch="http://www.bohemiancoding.com/sketch/ns">
    <!-- Generator: Sketch 3.0.1 (7597) - http://www.bohemiancoding.com/sketch -->
    <title>Foreground</title>
    <description>Created with Sketch.</description>
    <defs>
        <path id="path-1" d="M124.521433,30 L124.521433,35.379238 L121.61704,35.379238 L121.61704,30 L112.229947,30 L112.229948,35.379238 L109.321816,35.379238 L109.321816,30 L99.638946,30 L99.638946,35.379238 L96.7360657,35.379238 L96.7360657,30 L88.8942023,30 C88.8942023,30 74.3722333,83 110.38676,83 C146.401287,83 132.266483,30 132.266483,30 L124.521433,30 Z"></path>
        <path id="path-2" d="M111,107 L109,107 L109,83 L111,83 L111,107 Z"></path>
        <path id="path-3" d="M90,107 L90.0000001,109 L132.999999,109 L133,107 L90,107 Z"></path>
    </defs>
    <g id="Page-1" stroke="none" stroke-width="1" fill="none" fill-rule="evenodd" sketch:type="MSPage">
        <g id="Artboard-1" sketch:type="MSArtboardGroup" transform="translate(0.000000, -871.000000)">
            <g id="Foreground" sketch:type="MSLayerGroup" transform="translate(-240.000000, 871.000000)">
                <g id="castle" transform="translate(1321.000000, 340.000000)" sketch:type="MSShapeGroup">
                    <g id="big-tower" transform="translate(574.000000, 0.000000)">
                        <rect id="Rectangle-49" fill="#BFBFBF" x="28" y="131" width="510" height="267"></rect>
                        <path d="M28,214 L28,399 L107,399 L28,214 Z" id="Rectangle-36" fill="#9D9D9D"></path>
                        <path d="M28,214 L173.56678,290.241137 L182,399 L106.956047,399 L28,214 Z" id="Rectangle-37" fill="#A0A0A0"></path>
                        <path d="M28,213.995328 L174,291 L83.9808932,131 L28,131 L28,213.995328 Z" id="Rectangle-38" fill="#9C9C9C"></path>
                        <path d="M213.829559,131 L300,338 L174.245539,289.728749 L84,131 L213.829559,131 Z" id="Rectangle-50" fill="#B6B6B6"></path>
                        <path d="M212,131 L173.952717,291 L84,131 L212,131 Z" id="Rectangle-39" fill="#ACACAC"></path>
                        <path d="M416.045156,131 L378,291 L538,131 L416.045156,131 Z" id="Rectangle-40" fill="#D6D6D6"></path>
                        <path d="M417,131 L378.779607,291 L211,131 L417,131 Z" id="Rectangle-52" fill="#C7C7C7"></path>
                        <path d="M378,289.856148 L539,129 L539,399 L378,289.856148 Z" id="Rectangle-42" fill="#E1E1E1"></path>
                        <path d="M378,289.836081 L452.76296,215 L539,399 L378,289.836081 Z" id="Rectangle-43" fill="#D3D3D3"></path>
                        <rect id="Rectangle-65" fill="#686868" x="28" y="131" width="510" height="267"></rect>
                        <path d="M28,111 L28,399 L209,399 L28,111 Z" id="Rectangle-54" fill="#696666"></path>
                        <path d="M28,111 L170.288972,111 L209,399 L28,111 Z" id="Rectangle-66" fill="#6F6F6F"></path>
                        <path d="M386,399 L271.797943,111 L170,111 L208.678073,399 L386,399 Z" id="Rectangle-67" fill="#797979"></path>
                        <path d="M386.614653,399 L272,111 L550,111 L386.614653,399 Z" id="Rectangle-68" fill="#848484"></path>
                        <path d="M383,399 L539,129 L539,399 L383,399 Z" id="Rectangle-63" fill="#909090"></path>
                        <path d="M559,4 L492.799881,4 L492.799881,29.1338879 L469,89.8473896 L473.422487,132 L559,132 L559,29.1338879 L559,4 Z" id="Rectangle-44" fill="#7F7F7F"></path>
                        <path d="M92.9368687,29.9269523 L66.1935354,29.9269527 L66.1935354,4 L0,4 L0,29.9269527 L0,132 L152,132 L92.9368687,29.9269523 Z" id="Rectangle-45" fill="#565656"></path>
                        <path d="M143.531448,132 L85,30 L213.155282,30 L326,132 L143.531448,132 Z" id="Rectangle-46" fill="#626262"></path>
                        <path d="M176,31.1843629 L176,0 L370.121224,0 L370.121227,31.1843629 L448,132 L252.636298,132 L176,31.1843629 Z" id="Rectangle-47" fill="#6F6F6F"></path>
                        <path d="M176,31.1843629 L176,0 L282.59254,0 L282.592544,31.1843629 L336,132 L252.13856,132 L176,31.1843629 Z" id="Rectangle-53" fill="#6B6A6A"></path>
                        <path d="M492.536957,30 L369,30 L389.024813,132 L521,132 L492.536957,30 Z" id="Rectangle-48" fill="#767676"></path>
                    </g>
                    <g id="tower" transform="translate(43.000000, 4.000000)">
                        <rect id="Rectangle-21" fill="#777777" x="20" y="127" width="306" height="267"></rect>
                        <path d="M20,122 L20,395 L177,395 L20,122 Z" id="Rectangle-12" fill="#6D6D6D"></path>
                        <path d="M172,395 L217.360491,125 L327,125 L327,395 L172,395 Z" id="Rectangle-18" fill="#7F7F7F"></path>
                        <path d="M347,0 L295.876029,0 L295.876029,25.1338879 L284.617967,85.8473896 L261,128 L347,128 L347,25.1338879 L347,0 Z" id="Rectangle-8" fill="#828282"></path>
                        <path d="M50.84,25.9269527 L50.84,-3.62636311e-15 L0,-3.62636311e-15 L0,25.9269527 L0,128 L152,128 L50.84,25.9269527 Z" id="Rectangle-20" fill="#565656"></path>
                        <path d="M109.546167,128 L51,26 L125.165472,26 L236,128 L109.546167,128 Z" id="Rectangle-22" fill="#626262"></path>
                        <path d="M123,25.0805785 L123,0 L225.21261,0 L225.21261,25.0805785 L295,128 L225.21261,128 L123,25.0805785 Z" id="Rectangle-23" fill="#6B6A6A"></path>
                        <path d="M295.189116,26 L222,26 L284,128 L346,128 L295.189116,26 Z" id="Rectangle-9" fill="#747474"></path>
                    </g>
                    <g id="tower" transform="translate(1318.000000, 4.000000)">
                        <rect id="Rectangle-21" fill="#777777" x="20" y="127" width="306" height="267"></rect>
                        <path d="M20,122 L20,395 L177,395 L20,122 Z" id="Rectangle-12" fill="#6D6D6D"></path>
                        <path d="M172,395 L217.360491,125 L327,125 L327,395 L172,395 Z" id="Rectangle-18" fill="#7F7F7F"></path>
                        <path d="M347,0 L295.876029,0 L295.876029,25.1338879 L284.617967,85.8473896 L261,128 L347,128 L347,25.1338879 L347,0 Z" id="Rectangle-8" fill="#828282"></path>
                        <path d="M50.84,25.9269527 L50.84,-3.62636311e-15 L0,-3.62636311e-15 L0,25.9269527 L0,128 L152,128 L50.84,25.9269527 Z" id="Rectangle-20" fill="#565656"></path>
                        <path d="M109.546167,128 L51,26 L125.165472,26 L236,128 L109.546167,128 Z" id="Rectangle-22" fill="#626262"></path>
                        <path d="M123,25.0805785 L123,0 L225.21261,0 L225.21261,25.0805785 L295,128 L225.21261,128 L123,25.0805785 Z" id="Rectangle-23" fill="#6B6A6A"></path>
                        <path d="M295.189116,26 L222,26 L284,128 L346,128 L295.189116,26 Z" id="Rectangle-9" fill="#747474"></path>
                    </g>
                    <g id="wall" transform="translate(0.000000, 299.000000)">
                        <rect id="Rectangle-79" fill="#E1E1E1" x="41" y="91" width="1600" height="805"></rect>
                        <path d="M41,91 L41,896 L672,896 L41,91 Z" id="Rectangle-88" fill="#C4C4C4"></path>
                        <path d="M577.042969,782.992188 L235.484375,896 L672,896 L577.042969,782.992188 Z" id="Rectangle-107" fill="#B8B8B8"></path>
                        <path d="M449.539062,613.4375 L235.484375,896 L584.255859,792.212891 L449.539062,613.4375 Z" id="Rectangle-128" fill="#C3C3C3"></path>
                        <path d="M449.539062,613.4375 L235.484375,896 L354.984375,492.277344 L449.539062,613.4375 Z" id="Rectangle-108" fill="#BFBFBF"></path>
                        <path d="M41,91 L41,896 L356.5,493.5 L41,91 Z" id="Rectangle-102" fill="#C1C1C1"></path>
                        <path d="M41,91 L41,607.835938 L244.226562,349.417969 L41,91 Z" id="Rectangle-106" fill="#BBBBBB"></path>
                        <path d="M41,91 L548.876524,91 L672,896 L41,91 Z" id="Rectangle-89" fill="#CCCBCB"></path>
                        <path d="M41,91 L548.876524,91 L243.425781,351.058594 L41,91 Z" id="Rectangle-111" fill="#C5C5C5"></path>
                        <path d="M355.5,493.5 L548.876524,91 L672,896 L355.5,493.5 Z" id="Rectangle-105" fill="#D1D1D1"></path>
                        <path d="M355.5,493.5 L598.976562,431.039062 L449.324219,613.4375 L355.5,493.5 Z" id="Rectangle-109" fill="#CCCCCC"></path>
                        <path d="M658.015625,888.871094 L598.976562,431.039062 L449.324219,613.4375 L658.015625,888.871094 Z" id="Rectangle-110" fill="#D1D1D1"></path>
                        <path d="M1112,896 L681.26327,91 L549,91 L672.096663,896 L1112,896 Z" id="Rectangle-90" fill="#D4D4D4"></path>
                        <path d="M747.957031,221.960938 L549,91 L672.096663,896 L747.957031,221.960938 Z" id="Rectangle-112" fill="#CFCFCF"></path>
                        <path d="M747.957031,221.960938 L822.527344,361.992188 L713.664061,529.679688 L747.957031,221.960938 Z" id="Rectangle-113" fill="#CCCCCC"></path>
                        <path d="M747.957031,221.960938 L822.527344,361.992188 L1030.8125,221.960938 L747.957031,221.960938 Z" id="Rectangle-115" fill="#D3D2D2"></path>
                        <path d="M747.957031,221.960938 L599.999999,431.605469 L713.664061,529.679688 L747.957031,221.960938 Z" id="Rectangle-114" fill="#D3D3D3"></path>
                        <path d="M1111,896 L676,91 L1017.87218,91 L1111,896 Z" id="Rectangle-91" fill="#DFDFDF"></path>
                        <path d="M1111,896 L1022.92578,738.796875 L1059.60156,454.703125 L1111,896 Z" id="Rectangle-118" fill="#DBDBDB"></path>
                        <path d="M823,363.058594 L676,91 L1017.87218,91 L823,363.058594 Z" id="Rectangle-116" fill="#DCDBDB"></path>
                        <path d="M823,363.058594 L1059.10938,456.953125 L1017.87218,91 L823,363.058594 Z" id="Rectangle-117" fill="#E5E4E4"></path>
                        <path d="M1111.16881,896 L1329.71876,575.835938 L1311.91406,428.84375 L1111.16881,896 Z" id="Rectangle-92" fill="#EAEAEA"></path>
                        <path d="M1111.16881,896 L1274.875,223.570312 L1015,91 L1111.16881,896 Z" id="Rectangle-119" fill="#E5E4E4"></path>
                        <path d="M1059.92578,459.542969 L1274.875,223.570312 L1015,91 L1059.92578,459.542969 Z" id="Rectangle-121" fill="#EAEAEA"></path>
                        <path d="M1059.92578,459.542969 L1274.875,223.570312 L1191.82422,567.242187 L1059.92578,459.542969 Z" id="Rectangle-122" fill="#E1E1E1"></path>
                        <path d="M1111.16881,896 L1274.875,223.570312 L1308.1875,453.414062 L1111.16881,896 Z" id="Rectangle-120" fill="#E4E4E4"></path>
                        <path d="M1327.96094,571.578125 L1647,91 L1269.78906,220.203125 L1327.96094,571.578125 Z" id="Rectangle-103" fill="#F7F7F7"></path>
                        <path d="M1327.96094,570.578125 L1410.91406,220.203125 L1269.78906,220.203125 L1327.96094,570.578125 Z" id="Rectangle-124" fill="#F2F2F2"></path>
                        <path d="M1308.71484,453.394531 L1410.91406,220.203125 L1269.78906,220.203125 L1308.71484,453.394531 Z" id="Rectangle-126" fill="#E8E8E8"></path>
                        <path d="M1411.89453,693.597656 L1647,397.472656 L1647,682.167969 L1411.89453,693.597656 Z" id="Rectangle-93" fill="#F9F9F9"></path>
                        <path d="M1411.89453,694.597656 L1647,399.472656 L1327.00391,569.910156 L1411.89453,694.597656 Z" id="Rectangle-127" fill="#F7F7F7"></path>
                        <path d="M1328.24219,570.335938 L1647,86 L1647,399.84375 L1328.24219,570.335938 Z" id="Rectangle-104" fill="#F5F5F5"></path>
                        <path d="M1111,896 L1328.22656,569.53125 L1416.57812,691.578125 L1111,896 Z" id="Rectangle-125" fill="#F2F2F2"></path>
                        <path d="M1111,896 L1647,532.546875 L1647,896 L1111,896 Z" id="Rectangle-101" fill="#F5F5F5"></path>
                        <rect id="Rectangle-86" fill="#ECECEC" x="1" y="82" width="1680" height="140"></rect>
                        <path d="M139.983304,0 L0,0 L0,82.1378147 L0,222 L262,222 L139.983304,82.1378147 L139.983304,0 Z" id="Rectangle-94" fill="#A3A3A3"></path>
                        <path d="M390.989194,0 L251.012649,0 L251.012649,82.1378147 L140,82.1378147 L251.012649,222 L513,222 L390.989194,82.1378147 L390.989194,0 Z" id="Rectangle-95" fill="#ADADAD"></path>
                        <path d="M640.989194,0 L501.012649,0 L501.012649,82.1378147 L390,82.1378147 L501.012649,222 L758,222 L640.989194,82.1378147 L640.989194,0 Z" id="Rectangle-96" fill="#B5B5B5"></path>
                        <path d="M1182.823,0 L1042.65579,0 L1042.65579,82.1378147 L971,82.1378147 L1030.85265,222 L1305,222 L1243.45001,82.1378147 L1182.823,82.1378147 L1182.823,0 Z" id="Rectangle-98" fill="#C8C8C8"></path>
                        <path d="M1424.13605,0 L1284.32797,0 L1284.32797,82.1378147 L1233,82.1378147 L1272.55507,222 L1546,222 L1480.75363,82.1378147 L1424.13605,82.1378147 L1424.13605,0 Z" id="Rectangle-99" fill="#D3D3D3"></path>
                        <path d="M1682,0 L1541.88078,0 L1541.88078,82.1378147 L1480,82.1378147 L1530.08168,222 L1682,222 L1682,82.1378147 L1682,0 Z" id="Rectangle-100" fill="#DADADA"></path>
                        <path d="M909.988154,0 L770.010415,0 L770.010415,82.1378147 L639,82.1378147 L750.013595,222 L1032,222 L982.023573,82.1378147 L909.988154,82.1378147 L909.988154,0 Z" id="Rectangle-97" fill="#C2C1C1"></path>
                    </g>
                    <g id="Door" transform="translate(642.000000, 835.000000)">
                        <g id="Door-right" transform="translate(198.000000, 0.000000)">
                            <path d="M0,0 L1,360 L202,360 L202,0 L0,0 Z" id="Rectangle-130" fill="#987C57"></path>
                            <path d="M2,360 L202,360 L202,0 L2,360 Z" id="Rectangle-133" fill="#AE9574"></path>
                        </g>
                        <g id="Door-left">
                            <rect id="Rectangle-131" fill="#8B6D46" x="0" y="0" width="200" height="360"></rect>
                            <path d="M0,0 L0,360 L200,360 L0,0 Z" id="Rectangle-132" fill="#816139"></path>
                        </g>
                        <g id="woodboard" transform="translate(70.000000, 168.000000)">
                            <rect id="Rectangle-135" fill="#B59537" x="0" y="0" width="260" height="48"></rect>
                            <path d="M0,0 L0,48 L130,48 L0,0 Z" id="Rectangle-136" fill="#A6892F"></path>
                            <path d="M0,0 L260,0 L130.03712,48 L0,0 Z" id="Rectangle-137" fill="#AC903A"></path>
                        </g>
                        <g id="holders" transform="translate(119.000000, 200.000000)" fill="#4D4D4D">
                            <rect id="Rectangle-138" x="0" y="0" width="45" height="34"></rect>
                            <rect id="Rectangle-139" x="116" y="0" width="45" height="34"></rect>
                        </g>
                    </g>
                </g>
                <g id="sand" transform="translate(240.000000, 1528.000000)" sketch:type="MSShapeGroup">
                    <path d="M0,2 L0,815.15625 L517.144531,309.496094 L209.640625,2 L0,2 Z" id="Rectangle-170" fill="#EBCF9F"></path>
                    <path d="M310.246094,511.917969 L0,200.105469 L503.640625,319.785156 L310.246094,511.917969 Z" id="Rectangle-329" fill="#EACD99"></path>
                    <path d="M193.84375,1246 L0,1246 L0,815.15625 L498.269531,326.125 L193.84375,1246 Z" id="Rectangle-171" fill="#E6C791"></path>
                    <path d="M193.84375,1246 L541.296875,1246 L782.4375,616.3125 L504.34375,300.890625 L193.84375,1246 Z" id="Rectangle-172" fill="#EED3A4"></path>
                    <path d="M666.570312,912.84375 L782.4375,616.3125 L504.34375,300.890625 L666.570312,912.84375 Z" id="Rectangle-332" fill="#E8CA96"></path>
                    <path d="M666.570312,912.84375 L403.507812,606.867188 L504.34375,300.890625 L666.570312,912.84375 Z" id="Rectangle-340" fill="#EACC98"></path>
                    <path d="M666.570312,912.84375 L403.507812,606.867188 L542.648438,1247 L666.570312,912.84375 Z" id="Rectangle-341" fill="#EAC98F"></path>
                    <path d="M192.710938,1247 L403.507812,606.867188 L542.648438,1247 L192.710938,1247 Z" id="Rectangle-342" fill="#DEC18C"></path>
                    <path d="M1335.10938,1246 L541.296875,1246 L780.4375,612.3125 L1335.10938,1246 Z" id="Rectangle-175" fill="#EACD99"></path>
                    <path d="M666.367188,914.148438 L976.28125,839.257812 L780.4375,612.3125 L666.367188,914.148438 Z" id="Rectangle-331" fill="#E6C791"></path>
                    <path d="M1335.10938,1246 L1072.0625,434.171875 L515.296875,316.96875 L1335.10938,1246 Z" id="Rectangle-176" fill="#EBCF9F"></path>
                    <path d="M974.648438,838.273438 L1072.0625,434.171875 L515.296875,316.96875 L974.648438,838.273438 Z" id="Rectangle-333" fill="#EACC97"></path>
                    <path d="M161.171875,1.578125 L497.605469,329.046875 L1070.0625,437.171875 L1474.82812,1.578125 L161.171875,1.578125 Z" id="Rectangle-178" fill="#E6CC9C"></path>
                    <path d="M497.605469,329.046875 L1070.0625,437.171875 L1474.82812,1.578125 L497.605469,329.046875 Z" id="Rectangle-189" fill="#E1C593"></path>
                    <path d="M1256.51562,1008.8125 L1069.46875,436.675781 L1474.82812,0.578125 L1256.51562,1008.8125 Z" id="Rectangle-179" fill="#EED3A4"></path>
                    <path d="M1472,1 L1485.85547,895.355469 L2000.65625,308.875 L1693.64062,2 L1472,1 Z" id="Rectangle-183" fill="#EED19D"></path>
                    <path d="M1677.84375,1246 L1335.125,1246 L1243.4375,1002.20312 L1491.92188,804.140625 L2009.21875,292.734375 L1677.84375,1246 Z" id="Rectangle-173" fill="#E6C791"></path>
                    <path d="M1899.0625,596.585938 L1491.92188,804.140625 L2009.21875,292.734375 L1899.0625,596.585938 Z" id="Rectangle-335" fill="#EACC97"></path>
                    <path d="M1515.59375,787.175781 L1243.4375,1003.20312 L1471.66406,0.671875 L1515.59375,787.175781 Z" id="Rectangle-334" fill="#E8CA95"></path>
                    <path d="M1677.84375,1246 L2025.29688,1246 L2266.4375,616.3125 L1998.65625,308.875 L1677.84375,1246 Z" id="Rectangle-174" fill="#EED3A4"></path>
                    <path d="M1677.84375,1246 L1998.65625,777.4375 L1998.65625,308.875 L1677.84375,1246 Z" id="Rectangle-336" fill="#E2C592"></path>
                    <path d="M2262.28906,637.179688 L1998.65625,777.4375 L1998.65625,308.875 L2262.28906,637.179688 Z" id="Rectangle-337" fill="#E7C78F"></path>
                    <path d="M2262.28906,637.179688 L1998.65625,777.4375 L2075.75,1117.78125 L2262.28906,637.179688 Z" id="Rectangle-338" fill="#E9CB95"></path>
                    <path d="M1680.42969,1246 L1998.65625,777.4375 L2075.75,1117.78125 L1680.42969,1246 Z" id="Rectangle-339" fill="#EBCF9D"></path>
                    <path d="M2819.10938,1246 L2025.29688,1246 L2264.4375,612.3125 L2819.10938,1246 Z" id="Rectangle-177" fill="#EECF97"></path>
                    <path d="M2819.10938,1246 L2025.29688,1246 L2440.8125,833.515625 L2819.10938,1246 Z" id="Rectangle-344" fill="#EAC98F"></path>
                    <path d="M2819.10938,1246 L2554.0625,437.171875 L1960.40625,311.265625 L2819.10938,1246 Z" id="Rectangle-180" fill="#EDCD95"></path>
                    <path d="M2819.10938,1246 L2552.0625,432.171875 L2435.375,829.1875 L2819.10938,1246 Z" id="Rectangle-348" fill="#EFCE94"></path>
                    <path d="M2409.24219,411.703125 L2554.0625,437.171875 L2435.375,829.1875 L2409.24219,411.703125 Z" id="Rectangle-349" fill="#F1D39E"></path>
                    <path d="M1640.3125,1.578125 L1999.5,336.84375 L2554.0625,437.171875 L2958.82812,1.578125 L1640.3125,1.578125 Z" id="Rectangle-181" fill="#EECF97"></path>
                    <path d="M2196.89062,1.578125 L1640.3125,1.578125 L1999.5,336.84375 L2554.0625,437.171875 L2196.89062,1.578125 Z" id="Rectangle-184" fill="#F0D4A2"></path>
                    <path d="M2196.89062,1.578125 L1640.3125,1.578125 L1999.5,336.84375 L2196.89062,1.578125 Z" id="Rectangle-185" fill="#EBC98F"></path>
                    <path d="M2740.51562,1009.8125 L2549.0625,437.171875 L2958.82812,1.578125 L2740.51562,1009.8125 Z" id="Rectangle-182" fill="#EED3A4"></path>
                    <path d="M2738.46875,1019.9375 L2549.0625,437.171875 L2902.10156,695.632812 L2738.46875,1019.9375 Z" id="Rectangle-350" fill="#E4C48C"></path>
                    <path d="M3503.97656,1.578125 L2746.4375,1006.6875 L3232.32812,1.578125 L3503.97656,1.578125 Z" id="Rectangle-346" fill="#F0CE93"></path>
                    <path d="M3503.97656,1.578125 L3153.15625,447.1875 L3232.32812,1.578125 L3503.97656,1.578125 Z" id="Rectangle-351" fill="#EAC78A"></path>
                    <path d="M2945.98438,1.578125 L2740.4375,1021.6875 L3234.32812,1.578125 L2945.98438,1.578125 Z" id="Rectangle-347" fill="#E9C88D"></path>
                    <path d="M2740.51562,1009.8125 L3157.20312,443.320312 L3059.67188,1246 L2819.51562,1270.29688 L2740.51562,1009.8125 Z" id="Rectangle-186" fill="#E7C78E"></path>
                    <path d="M3820,540.96875 L3820,1.578125 L3059.67188,1246 L3820,540.96875 Z" id="Rectangle-187" fill="#EDCD95"></path>
                    <path d="M3820,533.703125 L3620.46875,334.75 L3477.39062,859.046875 L3820,533.703125 Z" id="Rectangle-343" fill="#EFD19C"></path>
                    <path d="M3477.39062,565.609375 L3620.46875,334.75 L3477.39062,859.046875 L3477.39062,565.609375 Z" id="Rectangle-359" fill="#E6C487"></path>
                    <path d="M3477.39062,565.609375 L3290.63281,1034.53906 L3477.39062,859.046875 L3477.39062,565.609375 Z" id="Rectangle-360" fill="#E2BE7F"></path>
                    <path d="M3824,1.578125 L3503.46875,1.578125 L3619.3125,333.257813 L3824,1.578125 Z" id="Rectangle-356" fill="#EFD19D"></path>
                    <path d="M3478.36719,566.703125 L3503.46875,1.578125 L3619.3125,333.257813 L3478.36719,566.703125 Z" id="Rectangle-357" fill="#E7C88F"></path>
                    <path d="M3478.59375,574.265625 L3116.625,747.15625 L3059.67188,1246 L3478.59375,574.265625 Z" id="Rectangle-358" fill="#F2D39D"></path>
                    <path d="M3478.59375,574.265625 L3116.625,747.15625 L3503.8125,-1.11022302e-16 L3478.59375,574.265625 Z" id="Rectangle-361" fill="#EFCE94"></path>
                    <path d="M3156.61719,443.992187 L3116.625,747.15625 L3503.8125,-1.11022302e-16 L3156.61719,443.992187 Z" id="Rectangle-362" fill="#E2BF80"></path>
                    <path d="M3820,536.96875 L3820,1246 L3059.67188,1246 L3820,536.96875 Z" id="Rectangle-188" fill="#E7C78E"></path>
                </g>
                <g id="Red-carpet" transform="translate(0.000000, 1528.000000)" sketch:type="MSShapeGroup">
                    <path d="M2146,0 L2333.41016,340.59375 L2363.08654,0 L2146,0 Z" id="Rectangle-366" fill="#B32B2B"></path>
                    <path d="M2150,0 L2333.03906,338.773438 L1961.85938,0 L2150,0 Z" id="Rectangle-367" fill="#BB3030"></path>
                    <path d="M2128.72656,529.507812 L2336.03906,337.773438 L1961.85938,0 L2128.72656,529.507812 Z" id="Rectangle-368" fill="#AB2B2B"></path>
                    <path d="M2128.72656,529.507812 L2333.03906,338.773438 L2352.39062,1246 L2128.72656,529.507812 Z" id="Rectangle-369" fill="#BB3030"></path>
                    <path d="M1964.18516,0 L240,1248 L2355.63281,1248 L1964.18516,0 Z" id="Rectangle-328" fill="#B32B2B"></path>
                    <path d="M1964.18516,0 L1341.29688,449.296875 L1844.94141,821.535156 L1964.18516,0 Z" id="Rectangle-352" fill="#BB3030"></path>
                    <path d="M1733.84375,169.65625 L1343.29688,450.296875 L1847.46484,847.796875 L1733.84375,169.65625 Z" id="Rectangle-363" fill="#AB2B2B"></path>
                    <path d="M1964.18516,0 L1847.46484,847.796875 L1964.18516,0 Z" id="Rectangle-353" fill="#AE3B3B"></path>
                    <path d="M1373.17188,431.203125 L240,1248 L2355.63281,1248 L1373.17188,431.203125 Z" id="Rectangle-345" fill="#AB2B2B"></path>
                    <path d="M1373.17188,431.203125 L240,1248 L1845.66406,826.207031 L1373.17188,431.203125 Z" id="Rectangle-364" fill="#B32B2B"></path>
                    <path d="M3242.07812,646.523438 L2326.28125,0.296875 L2333.36719,339.460938 L3242.07812,646.523438 Z" id="Rectangle-330" fill="#AB2B2B"></path>
                    <path d="M3239.07812,644.523438 L2343.30469,886.78125 L2332.36719,338.460938 L3239.07812,644.523438 Z" id="Rectangle-355" fill="#B32E2E"></path>
                    <path d="M4060,1246 L3209.1875,620.148438 L2353.90625,1246 L4060,1246 Z" id="Rectangle-354" fill="#BB3030"></path>
                    <path d="M2341.48438,886.023438 L3211.1875,622.148438 L2351.90625,1248 L2341.48438,886.023438 Z" id="Rectangle-370" fill="#BA3A3A"></path>
                    <path d="M4060,1246 L3211.1875,622.148438 L2863.01562,1246 L4060,1246 Z" id="Rectangle-365" fill="#B32B2B"></path>
                    <path d="M2328,0 L3988.29638,1246 L4220.73438,1246 L2363.0346,0 L2328,0 Z" id="Rectangle-327" fill="#D44747"></path>
                    <path d="M1963.5173,0 L-3.55271368e-15,1248 L240,1266.73438 L1995,0 L1963.5173,0 Z" id="Rectangle-327" fill="#992323"></path>
                </g>
                <g id="Flowers" transform="translate(461.000000, 1546.000000)" sketch:type="MSShapeGroup">
                    <g id="Flower" transform="translate(2547.000000, 303.000000)">
                        <rect id="Rectangle-221" fill="#9AC771" x="20" y="26" width="4" height="46"></rect>
                        <path d="M22,39 L22,46 L36,53.6640625 L42.6171875,46 L37,38 L22,39 Z" id="Rectangle-221" fill="#96C66A"></path>
                        <path d="M22,46 L36,53.6640625 L42.6171875,46 L22,46 Z" id="Rectangle-222" fill="#8BB465"></path>
                        <g id="Ruby">
                            <path d="M0,9 L22,32 L13.0039935,9 L0,9 Z" id="Path-15" fill="#B63033"></path>
                            <path d="M22,9 L44,32 L34.985638,9 L22,9 Z" id="Path-15" fill="#D74D50" transform="translate(33.000000, 20.500000) scale(-1, 1) translate(-33.000000, -20.500000) "></path>
                            <path d="M12,9 L21.5,32 L31,9 L12,9 Z" id="Path-16" fill="#C53A3D"></path>
                            <polygon id="Triangle-1" fill="#DF7D80" points="8.70292737 0 13 9 0 9 "></polygon>
                            <path d="M8,0 L22,0 L11.9892473,9 L8,0 Z" id="Triangle-1" fill="#C53A3D"></path>
                            <path d="M22,0 L36,0 L31.834523,9 L22,0 Z" id="Triangle-1" fill="#D74D50"></path>
                            <polygon id="Triangle-1" fill="#F9A3A5" points="21.8987583 0 31 9 12 9 "></polygon>
                            <polygon id="Triangle-1" fill="#FCBDBF" transform="translate(37.500000, 4.500000) scale(-1, 1) translate(-37.500000, -4.500000) " points="39.7713831 0 44 9 31 9 "></polygon>
                        </g>
                    </g>
                    <g id="Flower-4" transform="translate(3292.000000, 303.000000)">
                        <rect id="Rectangle-221" fill="#9AC771" x="20" y="26" width="4" height="46"></rect>
                        <path d="M22,39 L22,46 L36,53.6640625 L42.6171875,46 L37,38 L22,39 Z" id="Rectangle-221" fill="#96C66A"></path>
                        <path d="M22,46 L36,53.6640625 L42.6171875,46 L22,46 Z" id="Rectangle-222" fill="#8BB465"></path>
                        <g id="Ruby">
                            <path d="M0,9 L22,32 L13.0039935,9 L0,9 Z" id="Path-15" fill="#B63033"></path>
                            <path d="M22,9 L44,32 L34.985638,9 L22,9 Z" id="Path-15" fill="#D74D50" transform="translate(33.000000, 20.500000) scale(-1, 1) translate(-33.000000, -20.500000) "></path>
                            <path d="M12,9 L21.5,32 L31,9 L12,9 Z" id="Path-16" fill="#C53A3D"></path>
                            <polygon id="Triangle-1" fill="#DF7D80" points="8.70292737 0 13 9 0 9 "></polygon>
                            <path d="M8,0 L22,0 L11.9892473,9 L8,0 Z" id="Triangle-1" fill="#C53A3D"></path>
                            <path d="M22,0 L36,0 L31.834523,9 L22,0 Z" id="Triangle-1" fill="#D74D50"></path>
                            <polygon id="Triangle-1" fill="#F9A3A5" points="21.8987583 0 31 9 12 9 "></polygon>
                            <polygon id="Triangle-1" fill="#FCBDBF" transform="translate(37.500000, 4.500000) scale(-1, 1) translate(-37.500000, -4.500000) " points="39.7713831 0 44 9 31 9 "></polygon>
                        </g>
                    </g>
                    <g id="Flower-5" transform="translate(3060.000000, 524.000000)">
                        <rect id="Rectangle-221" fill="#9AC771" x="20" y="26" width="4" height="46"></rect>
                        <path d="M22,39 L22,46 L36,53.6640625 L42.6171875,46 L37,38 L22,39 Z" id="Rectangle-221" fill="#96C66A"></path>
                        <path d="M22,46 L36,53.6640625 L42.6171875,46 L22,46 Z" id="Rectangle-222" fill="#8BB465"></path>
                        <g id="Ruby">
                            <path d="M0,9 L22,32 L13.0039935,9 L0,9 Z" id="Path-15" fill="#B63033"></path>
                            <path d="M22,9 L44,32 L34.985638,9 L22,9 Z" id="Path-15" fill="#D74D50" transform="translate(33.000000, 20.500000) scale(-1, 1) translate(-33.000000, -20.500000) "></path>
                            <path d="M12,9 L21.5,32 L31,9 L12,9 Z" id="Path-16" fill="#C53A3D"></path>
                            <polygon id="Triangle-1" fill="#DF7D80" points="8.70292737 0 13 9 0 9 "></polygon>
                            <path d="M8,0 L22,0 L11.9892473,9 L8,0 Z" id="Triangle-1" fill="#C53A3D"></path>
                            <path d="M22,0 L36,0 L31.834523,9 L22,0 Z" id="Triangle-1" fill="#D74D50"></path>
                            <polygon id="Triangle-1" fill="#F9A3A5" points="21.8987583 0 31 9 12 9 "></polygon>
                            <polygon id="Triangle-1" fill="#FCBDBF" transform="translate(37.500000, 4.500000) scale(-1, 1) translate(-37.500000, -4.500000) " points="39.7713831 0 44 9 31 9 "></polygon>
                        </g>
                    </g>
                    <g id="Flower-2" transform="translate(2669.000000, 102.000000)">
                        <rect id="Rectangle-221" fill="#9AC771" x="20" y="26" width="4" height="46"></rect>
                        <path d="M22,39 L22,46 L36,53.6640625 L42.6171875,46 L37,38 L22,39 Z" id="Rectangle-221" fill="#96C66A"></path>
                        <path d="M22,46 L36,53.6640625 L42.6171875,46 L22,46 Z" id="Rectangle-222" fill="#8BB465"></path>
                        <g id="Ruby">
                            <path d="M0,9 L22,32 L13.0039935,9 L0,9 Z" id="Path-15" fill="#B63033"></path>
                            <path d="M22,9 L44,32 L34.985638,9 L22,9 Z" id="Path-15" fill="#D74D50" transform="translate(33.000000, 20.500000) scale(-1, 1) translate(-33.000000, -20.500000) "></path>
                            <path d="M12,9 L21.5,32 L31,9 L12,9 Z" id="Path-16" fill="#C53A3D"></path>
                            <polygon id="Triangle-1" fill="#DF7D80" points="8.70292737 0 13 9 0 9 "></polygon>
                            <path d="M8,0 L22,0 L11.9892473,9 L8,0 Z" id="Triangle-1" fill="#C53A3D"></path>
                            <path d="M22,0 L36,0 L31.834523,9 L22,0 Z" id="Triangle-1" fill="#D74D50"></path>
                            <polygon id="Triangle-1" fill="#F9A3A5" points="21.8987583 0 31 9 12 9 "></polygon>
                            <polygon id="Triangle-1" fill="#FCBDBF" transform="translate(37.500000, 4.500000) scale(-1, 1) translate(-37.500000, -4.500000) " points="39.7713831 0 44 9 31 9 "></polygon>
                        </g>
                    </g>
                    <g id="Flower-3" transform="translate(2318.000000, 0.000000)">
                        <rect id="Rectangle-221" fill="#9AC771" x="20" y="26" width="4" height="46"></rect>
                        <path d="M22,39 L22,46 L36,53.6640625 L42.6171875,46 L37,38 L22,39 Z" id="Rectangle-221" fill="#96C66A"></path>
                        <path d="M22,46 L36,53.6640625 L42.6171875,46 L22,46 Z" id="Rectangle-222" fill="#8BB465"></path>
                        <g id="Ruby">
                            <path d="M0,9 L22,32 L13.0039935,9 L0,9 Z" id="Path-15" fill="#B63033"></path>
                            <path d="M22,9 L44,32 L34.985638,9 L22,9 Z" id="Path-15" fill="#D74D50" transform="translate(33.000000, 20.500000) scale(-1, 1) translate(-33.000000, -20.500000) "></path>
                            <path d="M12,9 L21.5,32 L31,9 L12,9 Z" id="Path-16" fill="#C53A3D"></path>
                            <polygon id="Triangle-1" fill="#DF7D80" points="8.70292737 0 13 9 0 9 "></polygon>
                            <path d="M8,0 L22,0 L11.9892473,9 L8,0 Z" id="Triangle-1" fill="#C53A3D"></path>
                            <path d="M22,0 L36,0 L31.834523,9 L22,0 Z" id="Triangle-1" fill="#D74D50"></path>
                            <polygon id="Triangle-1" fill="#F9A3A5" points="21.8987583 0 31 9 12 9 "></polygon>
                            <polygon id="Triangle-1" fill="#FCBDBF" transform="translate(37.500000, 4.500000) scale(-1, 1) translate(-37.500000, -4.500000) " points="39.7713831 0 44 9 31 9 "></polygon>
                        </g>
                    </g>
                    <g id="Flower-6" transform="translate(3104.000000, 49.000000)">
                        <rect id="Rectangle-221" fill="#9AC771" x="20" y="26" width="4" height="46"></rect>
                        <path d="M22,39 L22,46 L36,53.6640625 L42.6171875,46 L37,38 L22,39 Z" id="Rectangle-221" fill="#96C66A"></path>
                        <path d="M22,46 L36,53.6640625 L42.6171875,46 L22,46 Z" id="Rectangle-222" fill="#8BB465"></path>
                        <g id="Ruby">
                            <path d="M0,9 L22,32 L13.0039935,9 L0,9 Z" id="Path-15" fill="#B63033"></path>
                            <path d="M22,9 L44,32 L34.985638,9 L22,9 Z" id="Path-15" fill="#D74D50" transform="translate(33.000000, 20.500000) scale(-1, 1) translate(-33.000000, -20.500000) "></path>
                            <path d="M12,9 L21.5,32 L31,9 L12,9 Z" id="Path-16" fill="#C53A3D"></path>
                            <polygon id="Triangle-1" fill="#DF7D80" points="8.70292737 0 13 9 0 9 "></polygon>
                            <path d="M8,0 L22,0 L11.9892473,9 L8,0 Z" id="Triangle-1" fill="#C53A3D"></path>
                            <path d="M22,0 L36,0 L31.834523,9 L22,0 Z" id="Triangle-1" fill="#D74D50"></path>
                            <polygon id="Triangle-1" fill="#F9A3A5" points="21.8987583 0 31 9 12 9 "></polygon>
                            <polygon id="Triangle-1" fill="#FCBDBF" transform="translate(37.500000, 4.500000) scale(-1, 1) translate(-37.500000, -4.500000) " points="39.7713831 0 44 9 31 9 "></polygon>
                        </g>
                    </g>
                    <g id="Flower-23" transform="translate(0.000000, 254.000000)">
                        <rect id="Rectangle-221" fill="#9AC771" x="20" y="26" width="4" height="46"></rect>
                        <path d="M22,39 L22,46 L36,53.6640625 L42.6171875,46 L37,38 L22,39 Z" id="Rectangle-221" fill="#96C66A"></path>
                        <path d="M22,46 L36,53.6640625 L42.6171875,46 L22,46 Z" id="Rectangle-222" fill="#8BB465"></path>
                        <g id="Ruby">
                            <path d="M0,9 L22,32 L13.0039935,9 L0,9 Z" id="Path-15" fill="#B63033"></path>
                            <path d="M22,9 L44,32 L34.985638,9 L22,9 Z" id="Path-15" fill="#D74D50" transform="translate(33.000000, 20.500000) scale(-1, 1) translate(-33.000000, -20.500000) "></path>
                            <path d="M12,9 L21.5,32 L31,9 L12,9 Z" id="Path-16" fill="#C53A3D"></path>
                            <polygon id="Triangle-1" fill="#DF7D80" points="8.70292737 0 13 9 0 9 "></polygon>
                            <path d="M8,0 L22,0 L11.9892473,9 L8,0 Z" id="Triangle-1" fill="#C53A3D"></path>
                            <path d="M22,0 L36,0 L31.834523,9 L22,0 Z" id="Triangle-1" fill="#D74D50"></path>
                            <polygon id="Triangle-1" fill="#F9A3A5" points="21.8987583 0 31 9 12 9 "></polygon>
                            <polygon id="Triangle-1" fill="#FCBDBF" transform="translate(37.500000, 4.500000) scale(-1, 1) translate(-37.500000, -4.500000) " points="39.7713831 0 44 9 31 9 "></polygon>
                        </g>
                    </g>
                    <g id="Flower-24" transform="translate(1099.000000, 17.000000)">
                        <rect id="Rectangle-221" fill="#9AC771" x="20" y="26" width="4" height="46"></rect>
                        <path d="M22,39 L22,46 L36,53.6640625 L42.6171875,46 L37,38 L22,39 Z" id="Rectangle-221" fill="#96C66A"></path>
                        <path d="M22,46 L36,53.6640625 L42.6171875,46 L22,46 Z" id="Rectangle-222" fill="#8BB465"></path>
                        <g id="Ruby">
                            <path d="M0,9 L22,32 L13.0039935,9 L0,9 Z" id="Path-15" fill="#B63033"></path>
                            <path d="M22,9 L44,32 L34.985638,9 L22,9 Z" id="Path-15" fill="#D74D50" transform="translate(33.000000, 20.500000) scale(-1, 1) translate(-33.000000, -20.500000) "></path>
                            <path d="M12,9 L21.5,32 L31,9 L12,9 Z" id="Path-16" fill="#C53A3D"></path>
                            <polygon id="Triangle-1" fill="#DF7D80" points="8.70292737 0 13 9 0 9 "></polygon>
                            <path d="M8,0 L22,0 L11.9892473,9 L8,0 Z" id="Triangle-1" fill="#C53A3D"></path>
                            <path d="M22,0 L36,0 L31.834523,9 L22,0 Z" id="Triangle-1" fill="#D74D50"></path>
                            <polygon id="Triangle-1" fill="#F9A3A5" points="21.8987583 0 31 9 12 9 "></polygon>
                            <polygon id="Triangle-1" fill="#FCBDBF" transform="translate(37.500000, 4.500000) scale(-1, 1) translate(-37.500000, -4.500000) " points="39.7713831 0 44 9 31 9 "></polygon>
                        </g>
                    </g>
                    <g id="Flower-25" transform="translate(91.000000, 719.000000)">
                        <rect id="Rectangle-221" fill="#9AC771" x="20" y="26" width="4" height="46"></rect>
                        <path d="M22,39 L22,46 L36,53.6640625 L42.6171875,46 L37,38 L22,39 Z" id="Rectangle-221" fill="#96C66A"></path>
                        <path d="M22,46 L36,53.6640625 L42.6171875,46 L22,46 Z" id="Rectangle-222" fill="#8BB465"></path>
                        <g id="Ruby">
                            <path d="M0,9 L22,32 L13.0039935,9 L0,9 Z" id="Path-15" fill="#B63033"></path>
                            <path d="M22,9 L44,32 L34.985638,9 L22,9 Z" id="Path-15" fill="#D74D50" transform="translate(33.000000, 20.500000) scale(-1, 1) translate(-33.000000, -20.500000) "></path>
                            <path d="M12,9 L21.5,32 L31,9 L12,9 Z" id="Path-16" fill="#C53A3D"></path>
                            <polygon id="Triangle-1" fill="#DF7D80" points="8.70292737 0 13 9 0 9 "></polygon>
                            <path d="M8,0 L22,0 L11.9892473,9 L8,0 Z" id="Triangle-1" fill="#C53A3D"></path>
                            <path d="M22,0 L36,0 L31.834523,9 L22,0 Z" id="Triangle-1" fill="#D74D50"></path>
                            <polygon id="Triangle-1" fill="#F9A3A5" points="21.8987583 0 31 9 12 9 "></polygon>
                            <polygon id="Triangle-1" fill="#FCBDBF" transform="translate(37.500000, 4.500000) scale(-1, 1) translate(-37.500000, -4.500000) " points="39.7713831 0 44 9 31 9 "></polygon>
                        </g>
                    </g>
                    <g id="Flower-21" transform="translate(513.000000, 475.000000)">
                        <rect id="Rectangle-221" fill="#9AC771" x="20" y="26" width="4" height="46"></rect>
                        <path d="M22,39 L22,46 L36,53.6640625 L42.6171875,46 L37,38 L22,39 Z" id="Rectangle-221" fill="#96C66A"></path>
                        <path d="M22,46 L36,53.6640625 L42.6171875,46 L22,46 Z" id="Rectangle-222" fill="#8BB465"></path>
                        <g id="Ruby">
                            <path d="M0,9 L22,32 L13.0039935,9 L0,9 Z" id="Path-15" fill="#B63033"></path>
                            <path d="M22,9 L44,32 L34.985638,9 L22,9 Z" id="Path-15" fill="#D74D50" transform="translate(33.000000, 20.500000) scale(-1, 1) translate(-33.000000, -20.500000) "></path>
                            <path d="M12,9 L21.5,32 L31,9 L12,9 Z" id="Path-16" fill="#C53A3D"></path>
                            <polygon id="Triangle-1" fill="#DF7D80" points="8.70292737 0 13 9 0 9 "></polygon>
                            <path d="M8,0 L22,0 L11.9892473,9 L8,0 Z" id="Triangle-1" fill="#C53A3D"></path>
                            <path d="M22,0 L36,0 L31.834523,9 L22,0 Z" id="Triangle-1" fill="#D74D50"></path>
                            <polygon id="Triangle-1" fill="#F9A3A5" points="21.8987583 0 31 9 12 9 "></polygon>
                            <polygon id="Triangle-1" fill="#FCBDBF" transform="translate(37.500000, 4.500000) scale(-1, 1) translate(-37.500000, -4.500000) " points="39.7713831 0 44 9 31 9 "></polygon>
                        </g>
                    </g>
                    <g id="Flower-22" transform="translate(122.000000, 53.000000)">
                        <rect id="Rectangle-221" fill="#9AC771" x="20" y="26" width="4" height="46"></rect>
                        <path d="M22,39 L22,46 L36,53.6640625 L42.6171875,46 L37,38 L22,39 Z" id="Rectangle-221" fill="#96C66A"></path>
                        <path d="M22,46 L36,53.6640625 L42.6171875,46 L22,46 Z" id="Rectangle-222" fill="#8BB465"></path>
                        <g id="Ruby">
                            <path d="M0,9 L22,32 L13.0039935,9 L0,9 Z" id="Path-15" fill="#B63033"></path>
                            <path d="M22,9 L44,32 L34.985638,9 L22,9 Z" id="Path-15" fill="#D74D50" transform="translate(33.000000, 20.500000) scale(-1, 1) translate(-33.000000, -20.500000) "></path>
                            <path d="M12,9 L21.5,32 L31,9 L12,9 Z" id="Path-16" fill="#C53A3D"></path>
                            <polygon id="Triangle-1" fill="#DF7D80" points="8.70292737 0 13 9 0 9 "></polygon>
                            <path d="M8,0 L22,0 L11.9892473,9 L8,0 Z" id="Triangle-1" fill="#C53A3D"></path>
                            <path d="M22,0 L36,0 L31.834523,9 L22,0 Z" id="Triangle-1" fill="#D74D50"></path>
                            <polygon id="Triangle-1" fill="#F9A3A5" points="21.8987583 0 31 9 12 9 "></polygon>
                            <polygon id="Triangle-1" fill="#FCBDBF" transform="translate(37.500000, 4.500000) scale(-1, 1) translate(-37.500000, -4.500000) " points="39.7713831 0 44 9 31 9 "></polygon>
                        </g>
                    </g>
                </g>
                <g id="tree-6" transform="translate(706.000000, 1327.000000)" sketch:type="MSShapeGroup">
                    <path d="M29.5316804,257.970894 L0,363.85447 L268,363.85447 L238.46832,257.970894 L29.5316804,257.970894 Z" id="Rectangle-9" fill="#5EA034"></path>
                    <path d="M29.610986,257.970894 L0,363.85447 L144.086022,363.85447 L29.610986,257.970894 Z" id="Rectangle-25" fill="#538534"></path>
                    <path d="M29.610986,257.970894 L0,363.85447 L72.0430108,299.210341 L29.610986,257.970894 Z" id="Rectangle-31" fill="#528134"></path>
                    <path d="M29.7777778,257.970894 L144.086022,269.240326 L144.086022,363.85447 L29.7777778,257.970894 Z" id="Rectangle-26" fill="#558C33"></path>
                    <path d="M72.0430108,298.924683 L144.086022,270.484407 L144.086022,364.817048 L72.0430108,298.924683 Z" id="Rectangle-32" fill="#5C923A"></path>
                    <path d="M242.064516,270.484407 L144.086022,270.484407 L144.086022,364.817048 L242.064516,270.484407 Z" id="Rectangle-27" fill="#589631"></path>
                    <path d="M193.075269,270.484407 L144.086022,270.484407 L144.086022,364.817048 L193.075269,270.484407 Z" id="Rectangle-30" fill="#548E30"></path>
                    <path d="M54.9967619,162.675676 L14.4086022,268.559252 L254.551971,268.559252 L213.963812,162.675676 L54.9967619,162.675676 Z" id="Rectangle-6" fill="#74AC50"></path>
                    <path d="M190.193548,268.559252 L253.591398,268.559252 L212.927923,162.675676 L190.193548,268.559252 Z" id="Rectangle-29" fill="#77B252"></path>
                    <path d="M55.0464049,162.675676 L14.4086022,268.559252 L214.207885,162.675676 L55.0464049,162.675676 Z" id="Rectangle-19" fill="#6FA24F"></path>
                    <path d="M141.381151,268.559252 L14.4086022,268.559252 L214.207885,162.675676 L141.381151,268.559252 Z" id="Rectangle-24" fill="#70A64E"></path>
                    <path d="M79.3200825,77.006237 L27.8566308,182.889813 L239.182796,182.889813 L187.719344,77.006237 L79.3200825,77.006237 Z" id="Rectangle-7" fill="#73B34C"></path>
                    <path d="M98.9390681,182.889813 L239.182796,182.889813 L187.57833,77.006237 L98.9390681,182.889813 Z" id="Rectangle-16" fill="#75B64C"></path>
                    <path d="M98.9390681,182.889813 L239.182796,182.889813 L213.036782,129.948025 L98.9390681,182.889813 Z" id="Rectangle-28" fill="#75BB4A"></path>
                    <path d="M98.9390681,182.889813 L112.030538,106.165581 L187.311828,77.006237 L98.9390681,182.889813 Z" id="Rectangle-17" fill="#6FB046"></path>
                    <path d="M35.5412186,104.920998 L233.419355,104.920998 L134.480287,0 L35.5412186,104.920998 Z" id="Rectangle-8" fill="#80C256"></path>
                    <path d="M35.5412186,104.920998 L133.519713,52.460499 L133.519713,0 L35.5412186,104.920998 Z" id="Rectangle-10" fill="#79BE4E"></path>
                    <path d="M231.498208,102.995842 L134.480287,52.4018753 L134.480287,0 L231.498208,102.995842 Z" id="Rectangle-11" fill="#88C363"></path>
                    <path d="M230.537634,103.95842 L133.121417,51.97921 L112.387097,103.95842 L230.537634,103.95842 Z" id="Rectangle-15" fill="#84CB57"></path>
                    <rect id="Rectangle-13" fill="#A3856A" x="97.9784946" y="364.817048" width="70.1218638" height="98.1829522"></rect>
                    <path d="M97.9784946,364.817048 L97.9784946,395.621426 L168.100358,438.935551 L168.100358,364.817048 L97.9784946,364.817048 Z" id="Rectangle-14" fill="#94765B"></path>
                </g>
                <g id="tree-16" transform="translate(842.000000, 1345.000000)" sketch:type="MSShapeGroup">
                    <path d="M32.8374656,286.838951 L0,404.269663 L298,404.269663 L265.162534,286.838951 L32.8374656,286.838951 Z" id="Rectangle-9" fill="#5EA034"></path>
                    <path d="M32.9914999,286.838951 L0,404.269663 L160.535484,404.269663 L32.9914999,286.838951 Z" id="Rectangle-25" fill="#538534"></path>
                    <path d="M32.793946,286.838951 L0,404.269663 L79.7870968,332.575767 L32.793946,286.838951 Z" id="Rectangle-31" fill="#528134"></path>
                    <path d="M32.683871,286.838951 L159.574194,299.337371 L159.574194,404.269663 L32.683871,286.838951 Z" id="Rectangle-26" fill="#558C33"></path>
                    <path d="M79.7870968,331.946134 L159.574194,300.314607 L159.574194,405.23221 L79.7870968,331.946134 Z" id="Rectangle-32" fill="#5C923A"></path>
                    <path d="M269.16129,300.314607 L160.535484,300.314607 L160.535484,405.23221 L269.16129,300.314607 Z" id="Rectangle-27" fill="#589631"></path>
                    <path d="M215.329032,300.314607 L160.535484,300.314607 L160.535484,405.23221 L215.329032,300.314607 Z" id="Rectangle-30" fill="#548E30"></path>
                    <path d="M61.5096513,180.958801 L16.3419355,298.389513 L283.580645,298.389513 L238.412929,180.958801 L61.5096513,180.958801 Z" id="Rectangle-6" fill="#74AC50"></path>
                    <path d="M211.483871,298.389513 L281.658065,298.389513 L236.648232,180.958801 L211.483871,298.389513 Z" id="Rectangle-29" fill="#77B252"></path>
                    <path d="M61.5070215,180.958801 L16.3419355,298.389513 L238.4,180.958801 L61.5070215,180.958801 Z" id="Rectangle-19" fill="#6FA24F"></path>
                    <path d="M157.459952,298.389513 L16.3419355,298.389513 L238.4,180.958801 L157.459952,298.389513 Z" id="Rectangle-24" fill="#70A64E"></path>
                    <path d="M87.881532,85.6666667 L30.7612903,203.097378 L265.316129,203.097378 L208.195887,85.6666667 L87.881532,85.6666667 Z" id="Rectangle-7" fill="#73B34C"></path>
                    <path d="M109.587097,203.097378 L265.316129,203.097378 L208.013648,85.6666667 L109.587097,203.097378 Z" id="Rectangle-16" fill="#75B64C"></path>
                    <path d="M109.587097,203.097378 L265.316129,203.097378 L236.283149,144.382022 L109.587097,203.097378 Z" id="Rectangle-28" fill="#75BB4A"></path>
                    <path d="M109.587097,203.097378 L124.112384,118.005984 L207.63871,85.6666667 L109.587097,203.097378 Z" id="Rectangle-17" fill="#6FB046"></path>
                    <path d="M39.4129032,116.468165 L259.548387,116.468165 L149.480645,0 L39.4129032,116.468165 Z" id="Rectangle-8" fill="#80C256"></path>
                    <path d="M39.4129032,116.468165 L148.03871,58.2340824 L148.03871,0 L39.4129032,116.468165 Z" id="Rectangle-10" fill="#79BE4E"></path>
                    <path d="M257.625806,114.543071 L149.96129,58.2768354 L149.96129,0 L257.625806,114.543071 Z" id="Rectangle-11" fill="#88C363"></path>
                    <path d="M256.664516,115.505618 L148.079301,57.752809 L124.967742,115.505618 L256.664516,115.505618 Z" id="Rectangle-15" fill="#84CB57"></path>
                    <rect id="Rectangle-13" fill="#A3856A" x="108.625806" y="405.23221" width="77.8645161" height="108.76779"></rect>
                    <path d="M108.625806,405.23221 L108.625806,439.235943 L186.490323,487.048689 L186.490323,405.23221 L108.625806,405.23221 Z" id="Rectangle-14" fill="#94765B"></path>
                </g>
                <g id="tree" transform="translate(3199.000000, 1464.000000)" sketch:type="MSShapeGroup">
                    <path d="M41.8732782,366 L0,516 L380,516 L338.126722,366 L41.8732782,366 Z" id="Rectangle-9" fill="#5EA034"></path>
                    <path d="M41.8732782,366 L0,516 L203.753906,516 L41.8732782,366 Z" id="Rectangle-25" fill="#538534"></path>
                    <path d="M41.8732782,366 L0,516 L101.876953,424.421875 L41.8732782,366 Z" id="Rectangle-31" fill="#528134"></path>
                    <path d="M41.8732782,366 L203.753906,381.964844 L203.753906,516 L41.8732782,366 Z" id="Rectangle-26" fill="#558C33"></path>
                    <path d="M101.624999,422.375 L203.753906,381.964844 L203.753906,516 L101.624999,422.375 Z" id="Rectangle-32" fill="#5C923A"></path>
                    <path d="M341.597656,381.964844 L203.753906,381.964844 L203.753906,516 L341.597656,381.964844 Z" id="Rectangle-27" fill="#589631"></path>
                    <path d="M272.675781,381.964844 L203.753906,381.964844 L203.753906,516 L272.675781,381.964844 Z" id="Rectangle-30" fill="#548E30"></path>
                    <path d="M77.4655647,230 L20,380 L360,380 L302.534435,230 L77.4655647,230 Z" id="Rectangle-6" fill="#74AC50"></path>
                    <path d="M270.40625,380 L360,380 L302.534435,230 L270.40625,380 Z" id="Rectangle-29" fill="#77B252"></path>
                    <path d="M77.4655647,230 L20,380 L302.534435,230 L77.4655647,230 Z" id="Rectangle-19" fill="#6FA24F"></path>
                    <path d="M199.550781,380 L20,380 L302.534435,230 L199.550781,380 Z" id="Rectangle-24" fill="#70A64E"></path>
                    <path d="M113.057851,109 L40,259 L340,259 L266.942149,109 L113.057851,109 Z" id="Rectangle-7" fill="#73B34C"></path>
                    <path d="M141.453125,259 L340,259 L266.942149,109 L141.453125,259 Z" id="Rectangle-16" fill="#75B64C"></path>
                    <path d="M141.453125,259 L340,259 L302.984375,184 L141.453125,259 Z" id="Rectangle-28" fill="#75BB4A"></path>
                    <path d="M141.453125,259 L160.042969,150.308594 L266.942149,109 L141.453125,259 Z" id="Rectangle-17" fill="#6FB046"></path>
                    <path d="M50,149 L330,149 L190,0 L50,149 Z" id="Rectangle-8" fill="#80C256"></path>
                    <path d="M50,149 L190,74.5 L190,0 L50,149 Z" id="Rectangle-10" fill="#79BE4E"></path>
                    <path d="M326.820312,146.429688 L190,74.5 L190,0 L326.820312,146.429688 Z" id="Rectangle-11" fill="#88C363"></path>
                    <path d="M328.820312,148.429688 L190,74.5 L160.453125,148.429688 L328.820312,148.429688 Z" id="Rectangle-15" fill="#84CB57"></path>
                    <rect id="Rectangle-13" fill="#A3856A" x="140" y="516" width="100" height="140"></rect>
                    <path d="M140,516 L140,559.223422 L240,620 L240,516 L140,516 Z" id="Rectangle-14" fill="#94765B"></path>
                </g>
                <g id="Flag" transform="translate(2167.000000, 0.000000)">
                    <rect id="Rectangle-277" fill="#939393" sketch:type="MSShapeGroup" x="1" y="2" width="18" height="338"></rect>
                    <path d="M1,2 L1,200 L19,230 L19,2 L1,2 Z" id="Rectangle-285" fill="#6E6E6E" sketch:type="MSShapeGroup"></path>
                    <path d="M0,3.0409917e-15 L0,139 L250,139 L202.447907,69.4999985 L250,3.0409917e-15 L0,3.0409917e-15 Z" id="Rectangle-279" fill="#5B6C7B" sketch:type="MSShapeGroup"></path>
                    <path d="M0,3.0409917e-15 L0,139 L125,139 L0,3.0409917e-15 Z" id="Rectangle-281" fill="#5F7284" sketch:type="MSShapeGroup"></path>
                    <path d="M0,3.0409917e-15 L86.2265625,3.04099164e-15 L125,139 L0,3.0409917e-15 Z" id="Rectangle-282" fill="#596C7E" sketch:type="MSShapeGroup"></path>
                    <path d="M202.265625,69.5 L246.335938,3.04099164e-15 L86.2265625,3.04099164e-15 L125,139 L202.265625,69.5 Z" id="Rectangle-283" fill="#61788D" sketch:type="MSShapeGroup"></path>
                    <path d="M202.265625,69.5 L250.335937,3.04099164e-15 L86.2265625,3.04099164e-15 L202.265625,69.5 Z" id="Rectangle-288" fill="#6D8499" sketch:type="MSShapeGroup"></path>
                    <path d="M202.265625,69.5 L251.585938,139 L125,139 L202.265625,69.5 Z" id="Rectangle-284" fill="#5A7187" sketch:type="MSShapeGroup"></path>
                    <path d="M0,3.0409917e-15 L0,139 L21,139 L20.999993,3.04099159e-15 L0,3.0409917e-15 Z" id="Rectangle-280" fill="#2B3A48" sketch:type="MSShapeGroup"></path>
                    <g id="Rectangle-123">
                        <use stroke="#FFFFFF" stroke-width="2" sketch:type="MSShapeGroup" xlink:href="#path-1"></use>
                        <use stroke="none" xlink:href="#path-1"></use>
                    </g>
                    <g id="Path-1057">
                        <use fill="#FFFFFF" fill-rule="evenodd" sketch:type="MSShapeGroup" xlink:href="#path-2"></use>
                        <use fill="none" xlink:href="#path-2"></use>
                    </g>
                    <g id="Path-1056">
                        <use fill="#FFFFFF" fill-rule="evenodd" sketch:type="MSShapeGroup" xlink:href="#path-3"></use>
                        <use fill="none" xlink:href="#path-3"></use>
                    </g>
                    <g id="Ruby" transform="translate(93.000000, 47.000000)" sketch:type="MSShapeGroup">
                        <path d="M0,7 L16.6118164,25.2548828 L10.0485404,7 L0,7 Z" id="Path-15" fill="#B63033"></path>
                        <path d="M17,7 L34.4902344,25.0742188 L28.0343566,7 L17,7 Z" id="Path-15" fill="#D74D50" transform="translate(25.500000, 16.000000) scale(-1, 1) translate(-25.500000, -16.000000) "></path>
                        <path d="M9,7 L16.5,25.2875977 L24,7 L9,7 Z" id="Path-16" fill="#C53A3D"></path>
                        <polygon id="Triangle-1" fill="#DF7D80" points="6.13378906 -0.0942382812 10 7 0 7 "></polygon>
                        <path d="M6,0 L17,0 L9.1344086,7 L6,0 Z" id="Triangle-1" fill="#C53A3D"></path>
                        <path d="M16,0 L28.3432617,0 L24.7271252,7 L16,0 Z" id="Triangle-1" fill="#D74D50"></path>
                        <polygon id="Triangle-1" fill="#F9A3A5" points="16.8148092 0 25 7 9 7 "></polygon>
                        <polygon id="Triangle-1" fill="#FCBDBF" transform="translate(29.000000, 3.500000) scale(-1, 1) translate(-29.000000, -3.500000) " points="29.7472178 0 34 7 24 7 "></polygon>
                    </g>
                </g>
            </g>
        </g>
    </g>
</svg>