<svg width="1911" height="1104" viewBox="0 0 1911 1104" xmlns="http://www.w3.org/2000/svg" xmlns:xlink="http://www.w3.org/1999/xlink" xmlns:sketch="http://www.bohemiancoding.com/sketch/ns"><title>Foreground</title><defs><path id="a" d="M62.21 14.978v2.686h-1.451v-2.686h-4.69v2.686h-1.453v-2.686h-4.838v2.686h-1.45v-2.686h-3.918s-7.255 26.462 10.738 26.462 10.931-26.462 10.931-26.462h-3.869z"/><path id="b" d="M55.455 53.423h-.999v-11.983h.999v11.983z"/><path id="c" d="M44.964 53.423v.999h21.483v-.999h-21.483z"/></defs><g sketch:type="MSLayerGroup" fill="none"><g sketch:type="MSShapeGroup"><g><path fill="#BFBFBF" d="M857.541 227.813h224.5v117.458h-224.5z"/><path d="M857.541 264.327v81.385h34.776l-34.776-81.385z" fill="#9D9D9D"/><path d="M857.541 264.327l64.078 33.54 3.712 47.845h-33.034l-34.756-81.385z" fill="#A0A0A0"/><path d="M857.541 264.325l64.269 33.876-39.626-70.387h-24.643v36.511z" fill="#9C9C9C"/><path d="M939.343 227.813l37.932 91.063-55.357-21.235-39.726-69.828h57.15z" fill="#B6B6B6"/><path d="M938.538 227.813l-16.748 70.387-39.597-70.387h56.345z" fill="#ACACAC"/><path d="M1028.358 227.813l-16.747 70.387 70.431-70.387h-53.684z" fill="#D6D6D6"/><path d="M1028.778 227.813l-16.824 70.387-73.856-70.387h90.68z" fill="#C7C7C7"/><path d="M1011.61 297.697l70.872-70.764v118.778l-70.872-48.014z" fill="#E1E1E1"/><path d="M1011.61 297.688l32.91-32.922 37.961 80.945-70.872-48.023z" fill="#D3D3D3"/><path fill="#686868" d="M857.541 227.813h224.5v117.458h-224.5z"/><path d="M857.541 219.015v126.697h79.676l-79.676-126.697z" fill="#696666"/><path d="M857.541 219.015h62.635l17.04 126.697-79.676-126.697z" fill="#6F6F6F"/><path d="M1015.132 345.712l-50.271-126.697h-44.811l17.026 126.697h78.056z" fill="#797979"/><path d="M1015.402 345.712l-50.453-126.697h122.375l-71.922 126.697z" fill="#848484"/><path d="M1013.811 345.712l68.671-118.778v118.778h-68.671z" fill="#909090"/><path d="M1091.286 171.944h-29.141v11.057l-10.477 26.709 1.947 18.544h37.671v-56.31z" fill="#7F7F7F"/><path d="M886.126 183.349h-11.772v-11.406h-29.138v56.31h66.91l-25.999-44.904z" fill="#565656"/><path d="M908.398 228.253l-25.765-44.872h56.413l49.674 44.872h-80.322z" fill="#626262"/><path d="M922.691 183.903v-13.719h85.451v13.719l34.282 44.351h-85.998l-33.735-44.351z" fill="#6F6F6F"/><path d="M922.691 183.903v-13.719h46.922v13.719l23.51 44.351h-36.916l-33.516-44.351z" fill="#6B6A6A"/><path d="M1062.029 183.382h-54.381l8.815 44.872h58.095l-12.529-44.872z" fill="#767676"/></g><g id="tower"><path id="Rectangle-21" fill="#777" d="M620.275 227.814h134.7v117.458h-134.7z"/><path d="M620.275 225.614v120.098h69.111l-69.111-120.098z" id="Rectangle-12" fill="#6D6D6D"/><path d="M687.185 345.712l19.968-118.778h48.263v118.778h-68.23z" id="Rectangle-18" fill="#7F7F7F"/><path d="M764.219 171.944h-22.505v11.057l-4.956 26.709-10.397 18.544h37.857v-56.31z" id="Rectangle-8" fill="#828282"/><path d="M633.851 183.35v-11.406h-22.38v56.31h66.91l-44.53-44.904z" id="Rectangle-20" fill="#565656"/><path d="M659.693 228.254l-25.772-44.872h32.647l48.789 44.872h-55.665z" id="Rectangle-22" fill="#626262"/><path d="M665.615 182.977v-11.033h44.994v11.033l30.72 45.276h-30.72l-44.994-45.276z" id="Rectangle-23" fill="#6B6A6A"/><path d="M741.412 183.382h-32.218l27.292 44.872h27.292l-22.367-44.872z" id="Rectangle-9" fill="#747474"/></g><g><path fill="#777" d="M1181.526 227.814h134.7v117.458h-134.7z"/><path d="M1181.526 225.614v120.098h69.111l-69.111-120.098z" fill="#6D6D6D"/><path d="M1248.436 345.712l19.968-118.778h48.263v118.778h-68.23z" fill="#7F7F7F"/><path d="M1325.47 171.944h-22.505v11.057l-4.956 26.709-10.397 18.544h37.857v-56.31z" id="Rectangle-8" fill="#828282"/><path d="M1195.102 183.35v-11.406h-22.38v56.31h66.91l-44.53-44.904z" fill="#565656"/><path d="M1220.944 228.254l-25.772-44.872h32.647l48.789 44.872h-55.665z" fill="#626262"/><path d="M1226.866 182.977v-11.033h44.994v11.033l30.72 45.276h-30.72l-44.994-45.276z" fill="#6B6A6A"/><path d="M1302.663 183.382h-32.218l27.292 44.872h27.292l-22.367-44.872z" id="Rectangle-9" fill="#747474"/></g><g><path fill="#E1E1E1" d="M610.591 341.753h704.314v354.134h-704.314z"/><path d="M610.591 341.753v354.134h277.764l-277.764-354.134z" fill="#C4C4C4"/><path d="M846.509 646.176l-150.52 49.711h192.366l-41.846-49.711z" fill="#B8B8B8"/><path d="M790.277 571.39l-94.288 124.497 153.629-45.729-59.341-78.768z" fill="#C3C3C3"/><path d="M790.191 571.497l-94.202 124.39 52.59-177.727 41.612 53.337z" fill="#BFBFBF"/><path d="M610.591 341.753v354.134l139.102-177.067-139.102-177.067z" fill="#C1C1C1"/><path d="M610.591 341.753v227.438l89.36-113.719-89.36-113.719z" fill="#bbb"/><path d="M610.591 341.753h223.565l54.199 354.134-277.764-354.134z" fill="#CCCBCB"/><path d="M610.591 341.753h223.62l-134.491 114.379-89.129-114.379z" fill="#C5C5C5"/><path d="M749.253 518.82l85.258-177.067 54.284 354.134-139.542-177.067z" fill="#D1D1D1"/><path d="M748.813 518.743l106.968-27.418-65.747 80.065-41.22-52.647z" fill="#ccc"/><path d="M882.192 692.808l-26.027-201.483-65.974 80.27 92.001 121.213z" fill="#D1D1D1"/><path d="M1082.041 695.887l-189.609-354.134h-58.222l54.187 354.134h193.644z" fill="#D4D4D4"/><path d="M921.81 399.365l-87.599-57.612 54.198 354.134 33.401-296.522z" fill="#CFCFCF"/><path d="M921.958 399.382l32.867 61.659-47.981 73.836 15.115-135.495z" fill="#ccc"/><path d="M921.81 399.382l32.842 61.589 91.733-61.589h-124.576z" fill="#D3D2D2"/><path d="M921.81 399.382l-65.149 92.311 50.049 43.184 15.1-135.495z" fill="#D3D3D3"/><path d="M1081.601 695.887l-191.485-354.134h150.491l40.995 354.134z" fill="#DFDFDF"/><path d="M1081.601 695.887l-38.737-69.11 16.131-124.894 22.606 194.004z" fill="#DBDBDB"/><path d="M954.849 461.41l-64.733-119.658h150.547l-85.814 119.658z" fill="#DCDBDB"/><path d="M954.825 461.452l103.886 41.311-18.144-161.01-85.742 119.699z" fill="#E5E4E4"/><path d="M1081.601 695.887l96.403-140.799-7.854-64.643-88.549 205.442z" fill="#EAEAEA"/><path d="M1081.696 695.887l72.098-295.814-114.451-58.32 42.354 354.134z" fill="#E5E4E4"/><path d="M1059.128 504.083l94.665-103.937-114.451-58.392 19.786 162.33z" fill="#EAEAEA"/><path d="M1059.151 504.17l94.642-103.908-36.567 151.332-58.075-47.424z" fill="#E1E1E1"/><path d="M1081.601 695.887l72.056-295.625 14.663 101.048-86.719 194.577z" fill="#E4E4E4"/><path d="M1177.185 553.353l140.361-211.601-165.954 56.889 25.593 154.712z" fill="#F7F7F7"/><path d="M1177.177 552.474l36.483-153.972h-62.068l25.584 153.972z" fill="#F2F2F2"/><path d="M1168.712 501.003l44.948-102.501h-62.068l17.12 102.501z" fill="#E8E8E8"/><path d="M1214.1 606.584l103.446-130.216v125.19l-103.446 5.026z" fill="#F9F9F9"/><path d="M1214.053 607.023l103.494-129.776-140.863 74.947 37.369 54.829z" fill="#F7F7F7"/><path d="M1177.124 552.474l140.423-212.921v137.97l-140.423 74.951z" fill="#F5F5F5"/><path d="M1081.601 695.887l95.754-143.413 38.946 53.614-134.7 89.8z" fill="#F2F2F2"/><path d="M1081.601 695.887l235.945-159.69v159.69h-235.945z" fill="#F5F5F5"/><path fill="#ECECEC" d="M592.983 337.793h739.53v61.589h-739.53z"/><path d="M654.163 301.72h-61.62v97.662h115.331l-53.711-61.528v-36.134z" fill="#A3A3A3"/><path d="M764.655 301.72h-61.617v36.134h-48.867l48.867 61.528h115.326l-53.709-61.528v-36.134z" fill="#ADADAD"/><path d="M874.704 301.72h-61.617v36.134h-48.867l48.867 61.528h113.125l-51.508-61.528v-36.134z" fill="#B5B5B5"/><path d="M1113.217 301.72h-61.701v36.134h-31.543l26.347 61.528h120.679l-27.094-61.528h-26.688v-36.134z" fill="#C8C8C8"/><path d="M1219.442 301.72h-61.543v36.134h-22.594l17.412 61.528h120.369l-28.721-61.528h-24.923v-36.134z" fill="#D3D3D3"/><path d="M1332.953 301.72h-61.68v36.134h-27.24l22.046 61.528h66.874v-97.662z" fill="#DADADA"/><path d="M993.116 301.72h-61.618v36.134h-57.67l48.868 61.528h124.129l-21.999-61.528h-31.71v-36.134z" fill="#C2C1C1"/></g><g><g><path d="M962.308 537.516l.44 158.371h88.479v-158.371h-88.92z" fill="#987C57"/><path d="M963.188 695.887h88.039v-158.371l-88.039 158.371z" fill="#AE9574"/></g><g><path fill="#8B6D46" d="M875.149 537.516h88.039v158.371h-88.039z"/><path d="M875.149 537.516v158.371h88.039l-88.039-158.371z" fill="#816139"/></g><g><path fill="#B59537" d="M905.963 611.422h114.451v21.116h-114.451z"/><path d="M905.963 611.422v21.116h57.226l-57.226-21.116z" fill="#A6892F"/><path d="M905.963 611.422h114.451l-57.209 21.116-57.242-21.116z" fill="#AC903A"/></g><g fill="#4D4D4D"><path d="M927.532 625.5h19.809v14.957h-19.809z"/><path d="M978.595 625.5h19.809v14.957h-19.809z"/></g></g></g><g sketch:type="MSShapeGroup"><path d="M.028 687.568v271.717l258.291-168.967-153.585-102.75h-104.706z" fill="#EBCF9F"/><path d="M155.136 858.018l-155.108-104.275 251.796 40.023-96.688 64.252z" fill="#EACD99"/><path d="M96.819 1103.332h-96.791v-144.014l248.798-163.464-152.007 307.478z" fill="#E6C791"/><path d="M96.949 1103.332h173.706l120.556-210.427-139.03-105.406-155.231 315.833z" fill="#EED3A4"/><path d="M332.844 992.038l57.867-99.113-138.887-105.427 81.02 204.539z" fill="#E8CA96"/><path d="M333.258 992.038l-131.394-102.27 50.365-102.27 81.028 204.539z" fill="#EACC98"/><path d="M333.258 992.009l-131.394-102.241 69.497 213.897 61.896-111.657z" fill="#EAC98F"/><path d="M96.45 1103.666l105.332-213.897 69.526 213.897h-174.858z" fill="#DEC18C"/><path d="M666.988 1103.332h-396.679l119.502-211.892 277.177 211.892z" fill="#EACD99"/><path d="M332.758 992.372l154.875-25.043-97.87-75.89-57.005 100.933z" fill="#E6C791"/><path d="M666.988 1103.332l-131.447-271.316-278.221-39.17 409.668 310.486z" fill="#EAC98F"/><path d="M486.906 966.972l48.688-134.978-278.275-39.148 229.586 174.126z" fill="#EACC97"/><path d="M80.463 687.568l168.125 109.547 286.072 36.171 202.272-145.718h-656.468z" fill="#E6CC9C"/><path d="M248.826 797.115l285.932 36.171 202.173-145.718-488.105 109.547z" fill="#E1C593"/><path d="M627.46 1024.123l-93.365-191.172 202.336-145.716-108.971 336.889z" fill="#E6C487"/><path d="M734.433 687.234l7.926 298.788 257.359-195.933-153.483-102.521-111.802-.334z" fill="#EED19D"/><path d="M838.114 1103.332h-171.27l-45.82-81.458 124.177-66.177 258.513-170.872-165.601 318.507z" fill="#E6C791"/><path d="M948.713 886.296l-203.289 69.313 258.291-170.784-55.002 101.471z" fill="#EACC97"/><path d="M756.915 950.218l-135.89 72.233 113.955-335.217 21.934 262.984z" fill="#EAC98F"/><path d="M838.349 1103.332h173.706l120.556-210.423-133.875-102.736-160.387 313.159z" fill="#EED3A4"/><path d="M838.349 1103.332l160.37-156.58v-156.58l-160.37 313.159z" fill="#E2C592"/><path d="M1130.612 899.999l-131.893 46.92v-156.747l131.893 109.827z" fill="#E7C78F"/><path d="M1130.612 899.795l-131.893 46.915 38.569 113.842 93.324-160.757z" fill="#E9CB95"/><path d="M839.348 1103.332l158.856-156.747 38.484 113.854-197.34 42.893z" fill="#EBCF9D"/><path d="M1408.387 1103.332h-396.679l119.502-211.892 277.177 211.892z" fill="#EECF97"/><path d="M1408.387 1103.332h-396.679l207.639-137.696 189.04 137.696z" fill="#EAC98F"/><path d="M1408.387 1103.332l-132.462-270.399-296.69-42.092 429.152 312.491z" fill="#EDCD95"/><path d="M1408.387 1103.332l-133.508-272.051-58.337 132.717 191.845 139.334z" fill="#EFCE94"/><path d="M1203.553 824.596l72.441 8.502-59.369 130.865-13.072-139.368z" fill="#F1D39E"/><path d="M819.364 687.568l179.514 112.155 277.159 33.562 202.293-145.718h-658.966z" fill="#EECF97"/><path d="M1097.504 687.568h-278.14l179.497 112.155 277.133 33.562-178.49-145.718z" fill="#E6C487"/><path d="M1097.639 687.568h-278.275l179.584 111.962 98.69-111.962z" fill="#EBC98F"/><path d="M1369.2 1024.457l-95.704-191.34 204.834-145.548-109.13 336.889z" fill="#E6C487"/><path d="M1368.112 1027.799l-94.616-194.847 176.357 86.416-81.741 108.431z" fill="#E4C48C"/><path d="M1750.61 687.568l-378.693 335.886 242.896-335.886h135.797z" fill="#F0CE93"/><path d="M1750.61 687.568l-175.358 149.06 39.574-149.06h135.784z" fill="#EAC78A"/><path d="M1471.632 687.568l-102.713 340.899 246.8-340.899h-144.087z" fill="#E9C88D"/><path d="M1369.419 1024.293l208.331-189.335-48.763 268.275h-124.841l-34.728-78.94z" fill="#E7C78E"/><path d="M1737.621 876.066l-93.424 156.747 93.424-58.661v-98.086z" fill="#E2BE7F"/><path d="M1908.482 867.78v-180.211l-379.692 415.763 379.692-235.552z" fill="#EDCD95"/><path d="M1908.482 865.317l-99.799-66.455-71.563 175.129 171.361-108.673z" fill="#EFD19C"/><path d="M1737.121 875.975l71.442-77.113-71.442 175.129v-98.016z" fill="#E6C487"/><path d="M1910.481 687.568h-160.37l57.96 110.959 102.41-110.959z" fill="#EFD19D"/><path d="M1737.621 876.4l12.545-188.831 57.897 110.828-70.443 78.004z" fill="#E7C88F"/><path d="M1738.017 879.788l-90.502 38.673-90.249 18.097 85.018-124.829 108.325-124.829-12.593 192.888z" fill="#EFCE94"/><path d="M1738.12 878.739l-180.872 57.805-28.459 166.787 209.33-224.592z" fill="#F2D39D"/><path d="M1577.237 835.258l-19.97 101.301 193.343-249.658-173.373 148.358z" fill="#E2BF80"/><path d="M1908.482 866.373v236.958h-379.692l379.692-236.958z" fill="#E7C78E"/></g><g sketch:type="MSShapeGroup"><path d="M952.257 686.9l93.592 113.785 6.82-113.785h-100.412z" fill="#B32B2B"/><path d="M954.28 686.9l91.401 113.118-168.35-104.914v-8.204h76.949z" fill="#BB3030"/><path d="M870.238 693.156l73.419 170.594 103.523-64.037-171.849-114.813-5.093 8.256z" fill="#AB2B2B"/><path d="M943.764 863.646l102.227-63.628 9.682 302.648-111.909-239.019z" fill="#BB3030"/><path d="M874.573 685.9l-874.544 417.433 1057.144-.667-182.599-416.765z" fill="#B32B2B"/><path d="M874.331 686.9l-324.248 150.006 251.664 124.279 72.584-274.285z" fill="#BB3030"/><path d="M746.132 743.626l-195.05 93.625 251.796 132.61-56.746-226.235z" fill="#AB2B2B"/><path d="M861.331 686.9l-58.453 282.961 58.453-282.961z" fill="#AE3B3B"/><path d="M1051.625 1099.996l-485.371-269.28-566.226 272.617h1909.246l-857.649-3.337z" fill="#AB2B2B"/><path d="M566.274 830.716l-566.246 272.617 802.35-140.779-236.104-131.838z" fill="#B32B2B"/><path d="M1499.814 902.457l-457.629-215.557 3.541 113.133 454.088 102.425z" fill="#AB2B2B"/><path d="M1498.315 901.751l-447.667 80.789-5.466-182.857 453.133 102.067z" fill="#B32E2E"/><path d="M1908.483 1102.665l-425.039-208.884-430.268 208.884h855.306z" fill="#AB2B2B"/><path d="M1049.678 982.52l434.648-88.071-429.294 207.842-5.354-119.772z" fill="#BA3A3A"/><path d="M1908.483 1102.665l-424.068-208.216-173.947 208.216h598.016z" fill="#AB2B2B"/><path d="M1036.183 686.9l836.593 415.765h35.85v-32.977l-854.937-382.788h-17.506z" id="Rectangle-327" fill="#D44747"/><path d="M875.09 686.9l-875.061 363.114v53.384l890.79-416.498h-15.729z" fill="#992323"/></g><g sketch:type="MSShapeGroup"><g><path id="Rectangle-221" fill="#9AC771" d="M1408.9 777.769h1.998v22.967h-1.998z"/><path d="M1409.899 784.271v3.57l7.124 3.909 3.367-3.909-2.858-4.08-7.633.51z" id="Rectangle-221" fill="#96C66A"/><path d="M1409.899 787.755l7.124 3.994 3.367-3.994h-10.492z" id="Rectangle-222" fill="#8BB465"/><g id="Ruby"><path d="M1398.908 769.282l10.991 11.483-4.494-11.483h-6.497z" id="Path-15" fill="#B63033"/><path d="M1420.891 769.282l-10.991 11.483 4.504-11.483h6.488z" id="Path-15" fill="#D74D50"/><path d="M1404.903 769.282l4.746 11.483 4.746-11.483h-9.492z" id="Path-16" fill="#C53A3D"/><path id="Triangle-1" fill="#DF7D80" d="M1403.256 764.788l2.147 4.494h-6.495z"/><path d="M1402.905 764.788h6.994l-5.001 4.494-1.993-4.494z" id="Triangle-1" fill="#C53A3D"/><path d="M1409.899 764.788h6.994l-2.081 4.494-4.913-4.494z" id="Triangle-1" fill="#D74D50"/><path id="Triangle-1" fill="#F9A3A5" d="M1409.849 764.788l4.547 4.494h-9.492z"/><path id="Triangle-1" fill="#FCBDBF" d="M1416.508 764.788l-2.113 4.494h6.495z"/></g></g><g><path id="Rectangle-221" fill="#9AC771" d="M1765.099 860.15h1.998v22.967h-1.998z"/><path d="M1766.098 866.652v3.57l7.124 3.909 3.367-3.909-2.858-4.08-7.633.51z" id="Rectangle-221" fill="#96C66A"/><path d="M1766.098 870.136l7.124 3.994 3.367-3.994h-10.492z" id="Rectangle-222" fill="#8BB465"/><g id="Ruby"><path d="M1755.107 851.663l10.991 11.483-4.494-11.483h-6.497z" id="Path-15" fill="#B63033"/><path d="M1777.09 851.663l-10.991 11.483 4.504-11.483h6.488z" id="Path-15" fill="#D74D50"/><path d="M1761.102 851.663l4.746 11.483 4.746-11.483h-9.492z" id="Path-16" fill="#C53A3D"/><path id="Triangle-1" fill="#DF7D80" d="M1759.455 847.169l2.147 4.494h-6.495z"/><path d="M1759.104 847.169h6.994l-5.001 4.494-1.993-4.494z" id="Triangle-1" fill="#C53A3D"/><path d="M1766.098 847.169h6.994l-2.081 4.494-4.913-4.494z" id="Triangle-1" fill="#D74D50"/><path id="Triangle-1" fill="#F9A3A5" d="M1766.048 847.169l4.547 4.494h-9.492z"/><path id="Triangle-1" fill="#FCBDBF" d="M1772.707 847.169l-2.113 4.494h6.495z"/></g></g><g><path id="Rectangle-221" fill="#9AC771" d="M1754.108 946.026h1.998v22.967h-1.998z"/><path d="M1755.107 952.528v3.57l7.124 3.909 3.367-3.909-2.858-4.08-7.633.51z" id="Rectangle-221" fill="#96C66A"/><path d="M1755.107 956.012l7.124 3.994 3.367-3.994h-10.492z" id="Rectangle-222" fill="#8BB465"/><g id="Ruby"><path d="M1744.116 937.539l10.991 11.483-4.494-11.483h-6.497z" id="Path-15" fill="#B63033"/><path d="M1766.099 937.539l-10.991 11.483 4.504-11.483h6.488z" id="Path-15" fill="#D74D50"/><path d="M1750.111 937.539l4.746 11.483 4.746-11.483h-9.492z" id="Path-16" fill="#C53A3D"/><path id="Triangle-1" fill="#DF7D80" d="M1748.464 933.045l2.147 4.494h-6.495z"/><path d="M1748.113 933.045h6.994l-5.001 4.494-1.993-4.494z" id="Triangle-1" fill="#C53A3D"/><path d="M1755.107 933.045h6.994l-2.081 4.494-4.913-4.494z" id="Triangle-1" fill="#D74D50"/><path id="Triangle-1" fill="#F9A3A5" d="M1755.057 933.045l4.547 4.494h-9.492z"/><path id="Triangle-1" fill="#FCBDBF" d="M1761.716 933.045l-2.113 4.494h6.495z"/></g></g><g><path id="Rectangle-221" fill="#9AC771" d="M1465.851 735.33h1.998v22.967h-1.998z"/><path d="M1466.85 741.832v3.57l7.124 3.909 3.367-3.909-2.858-4.08-7.633.51z" id="Rectangle-221" fill="#96C66A"/><path d="M1466.85 745.316l7.124 3.994 3.367-3.994h-10.492z" id="Rectangle-222" fill="#8BB465"/><g id="Ruby"><path d="M1455.859 726.843l10.991 11.483-4.494-11.483h-6.497z" id="Path-15" fill="#B63033"/><path d="M1477.842 726.843l-10.991 11.483 4.504-11.483h6.488z" id="Path-15" fill="#D74D50"/><path d="M1461.854 726.843l4.746 11.483 4.746-11.483h-9.492z" id="Path-16" fill="#C53A3D"/><path id="Triangle-1" fill="#DF7D80" d="M1460.207 722.349l2.147 4.494h-6.495z"/><path d="M1459.856 722.349h6.994l-5.001 4.494-1.993-4.494z" id="Triangle-1" fill="#C53A3D"/><path d="M1466.85 722.349h6.994l-2.081 4.494-4.913-4.494z" id="Triangle-1" fill="#D74D50"/><path id="Triangle-1" fill="#F9A3A5" d="M1466.8 722.349l4.547 4.494h-9.492z"/><path id="Triangle-1" fill="#FCBDBF" d="M1473.459 722.349l-2.113 4.494h6.495z"/></g></g><g><path id="Rectangle-221" fill="#9AC771" d="M1278.493 708.868h1.998v22.967h-1.998z"/><path d="M1279.492 715.37v3.57l7.124 3.909 3.367-3.909-2.858-4.08-7.633.51z" id="Rectangle-221" fill="#96C66A"/><path d="M1279.492 718.854l7.124 3.994 3.367-3.994h-10.492z" id="Rectangle-222" fill="#8BB465"/><g id="Ruby"><path d="M1268.501 700.381l10.991 11.483-4.494-11.483h-6.497z" id="Path-15" fill="#B63033"/><path d="M1290.484 700.381l-10.991 11.483 4.504-11.483h6.488z" id="Path-15" fill="#D74D50"/><path d="M1274.496 700.381l4.746 11.483 4.746-11.483h-9.492z" id="Path-16" fill="#C53A3D"/><path id="Triangle-1" fill="#DF7D80" d="M1272.849 695.887l2.147 4.494h-6.495z"/><path d="M1272.498 695.887h6.994l-5.001 4.494-1.993-4.494z" id="Triangle-1" fill="#C53A3D"/><path d="M1279.492 695.887h6.994l-2.081 4.494-4.913-4.494z" id="Triangle-1" fill="#D74D50"/><path id="Triangle-1" fill="#F9A3A5" d="M1279.442 695.887l4.547 4.494h-9.492z"/><path id="Triangle-1" fill="#FCBDBF" d="M1286.101 695.887l-2.113 4.494h6.495z"/></g></g><g><path id="Rectangle-221" fill="#9AC771" d="M1671.175 733.333h1.998v22.967h-1.998z"/><path d="M1672.174 739.835v3.57l7.124 3.909 3.367-3.909-2.858-4.08-7.633.51z" id="Rectangle-221" fill="#96C66A"/><path d="M1672.174 743.319l7.124 3.994 3.367-3.994h-10.492z" id="Rectangle-222" fill="#8BB465"/><g id="Ruby"><path d="M1661.183 724.846l10.991 11.483-4.494-11.483h-6.497z" id="Path-15" fill="#B63033"/><path d="M1683.166 724.846l-10.991 11.483 4.504-11.483h6.488z" id="Path-15" fill="#D74D50"/><path d="M1667.178 724.846l4.746 11.483 4.746-11.483h-9.492z" id="Path-16" fill="#C53A3D"/><path id="Triangle-1" fill="#DF7D80" d="M1665.531 720.352l2.147 4.494h-6.495z"/><path d="M1665.18 720.352h6.994l-5.001 4.494-1.993-4.494z" id="Triangle-1" fill="#C53A3D"/><path d="M1672.174 720.352h6.994l-2.081 4.494-4.913-4.494z" id="Triangle-1" fill="#D74D50"/><path id="Triangle-1" fill="#F9A3A5" d="M1672.124 720.352l4.547 4.494h-9.492z"/><path id="Triangle-1" fill="#FCBDBF" d="M1678.783 720.352l-2.113 4.494h6.495z"/></g></g><g><path id="Rectangle-221" fill="#9AC771" d="M120.431 835.685h1.998v22.967h-1.998z"/><path d="M121.43 842.187v3.57l7.124 3.909 3.367-3.909-2.858-4.08-7.633.51z" id="Rectangle-221" fill="#96C66A"/><path d="M121.43 845.671l7.124 3.994 3.367-3.994h-10.492z" id="Rectangle-222" fill="#8BB465"/><g id="Ruby"><path d="M110.439 827.198l10.991 11.483-4.494-11.483h-6.497z" id="Path-15" fill="#B63033"/><path d="M132.422 827.198l-10.991 11.483 4.504-11.483h6.488z" id="Path-15" fill="#D74D50"/><path d="M116.434 827.198l4.746 11.483 4.746-11.483h-9.492z" id="Path-16" fill="#C53A3D"/><path id="Triangle-1" fill="#DF7D80" d="M114.787 822.704l2.147 4.494h-6.495z"/><path d="M114.436 822.704h6.994l-5.001 4.494-1.993-4.494z" id="Triangle-1" fill="#C53A3D"/><path d="M121.43 822.704h6.994l-2.081 4.494-4.913-4.494z" id="Triangle-1" fill="#D74D50"/><path id="Triangle-1" fill="#F9A3A5" d="M121.38 822.704l4.547 4.494h-9.492z"/><path id="Triangle-1" fill="#FCBDBF" d="M128.039 822.704l-2.113 4.494h6.495z"/></g></g><g><path id="Rectangle-221" fill="#9AC771" d="M669.486 717.356h1.998v22.967h-1.998z"/><path d="M670.485 723.858v3.57l7.124 3.909 3.367-3.909-2.858-4.08-7.633.51z" id="Rectangle-221" fill="#96C66A"/><path d="M670.485 727.342l7.124 3.994 3.367-3.994h-10.492z" id="Rectangle-222" fill="#8BB465"/><g id="Ruby"><path d="M659.494 708.869l10.991 11.483-4.494-11.483h-6.497z" id="Path-15" fill="#B63033"/><path d="M681.477 708.869l-10.991 11.483 4.504-11.483h6.488z" id="Path-15" fill="#D74D50"/><path d="M665.489 708.869l4.746 11.483 4.746-11.483h-9.492z" id="Path-16" fill="#C53A3D"/><path id="Triangle-1" fill="#DF7D80" d="M663.842 704.375l2.147 4.494h-6.495z"/><path d="M663.491 704.375h6.994l-5.001 4.494-1.993-4.494z" id="Triangle-1" fill="#C53A3D"/><path d="M670.485 704.375h6.994l-2.081 4.494-4.913-4.494z" id="Triangle-1" fill="#D74D50"/><path id="Triangle-1" fill="#F9A3A5" d="M670.435 704.375l4.547 4.494h-9.492z"/><path id="Triangle-1" fill="#FCBDBF" d="M677.094 704.375l-2.113 4.494h6.495z"/></g></g><g><path id="Rectangle-221" fill="#9AC771" d="M76.894 946.026h1.998v22.967h-1.998z"/><path d="M77.893 952.528v3.57l7.124 3.909 3.367-3.909-2.858-4.08-7.633.51z" id="Rectangle-221" fill="#96C66A"/><path d="M77.893 956.012l7.124 3.994 3.367-3.994h-10.492z" id="Rectangle-222" fill="#8BB465"/><g id="Ruby"><path d="M66.902 937.539l10.991 11.483-4.494-11.483h-6.497z" id="Path-15" fill="#B63033"/><path d="M88.885 937.539l-10.991 11.483 4.504-11.483h6.488z" id="Path-15" fill="#D74D50"/><path d="M72.897 937.539l4.746 11.483 4.746-11.483h-9.492z" id="Path-16" fill="#C53A3D"/><path id="Triangle-1" fill="#DF7D80" d="M71.25 933.045l2.147 4.494h-6.495z"/><path d="M70.899 933.045h6.994l-5.001 4.494-1.993-4.494z" id="Triangle-1" fill="#C53A3D"/><path d="M77.893 933.045h6.994l-2.081 4.494-4.913-4.494z" id="Triangle-1" fill="#D74D50"/><path id="Triangle-1" fill="#F9A3A5" d="M77.843 933.045l4.547 4.494h-9.492z"/><path id="Triangle-1" fill="#FCBDBF" d="M84.502 933.045l-2.113 4.494h6.495z"/></g></g><g><path id="Rectangle-221" fill="#9AC771" d="M258.723 853.659h1.998v22.967h-1.998z"/><path d="M259.722 860.161v3.57l7.124 3.909 3.367-3.909-2.858-4.08-7.633.51z" id="Rectangle-221" fill="#96C66A"/><path d="M259.722 863.645l7.124 3.994 3.367-3.994h-10.492z" id="Rectangle-222" fill="#8BB465"/><g id="Ruby"><path d="M248.731 845.172l10.991 11.483-4.494-11.483h-6.497z" id="Path-15" fill="#B63033"/><path d="M270.714 845.172l-10.991 11.483 4.504-11.483h6.488z" id="Path-15" fill="#D74D50"/><path d="M254.726 845.172l4.746 11.483 4.746-11.483h-9.492z" id="Path-16" fill="#C53A3D"/><path id="Triangle-1" fill="#DF7D80" d="M253.079 840.678l2.147 4.494h-6.495z"/><path d="M252.728 840.678h6.994l-5.001 4.494-1.993-4.494z" id="Triangle-1" fill="#C53A3D"/><path d="M259.722 840.678h6.994l-2.081 4.494-4.913-4.494z" id="Triangle-1" fill="#D74D50"/><path id="Triangle-1" fill="#F9A3A5" d="M259.672 840.678l4.547 4.494h-9.492z"/><path id="Triangle-1" fill="#FCBDBF" d="M266.331 840.678l-2.113 4.494h6.495z"/></g></g><g><path id="Rectangle-221" fill="#9AC771" d="M181.382 735.33h1.998v22.967h-1.998z"/><path d="M182.381 741.832v3.57l7.124 3.909 3.367-3.909-2.858-4.08-7.633.51z" fill="#96C66A"/><path d="M182.381 745.316l7.124 3.994 3.367-3.994h-10.492z" fill="#8BB465"/><g id="Ruby"><path d="M171.39 726.843l10.991 11.483-4.494-11.483h-6.497z" id="Path-15" fill="#B63033"/><path d="M193.373 726.843l-10.991 11.483 4.504-11.483h6.488z" id="Path-15" fill="#D74D50"/><path d="M177.385 726.843l4.746 11.483 4.746-11.483h-9.492z" id="Path-16" fill="#C53A3D"/><path id="Triangle-1" fill="#DF7D80" d="M175.738 722.349l2.147 4.494h-6.495z"/><path d="M175.387 722.349h6.994l-5.001 4.494-1.993-4.494z" id="Triangle-1" fill="#C53A3D"/><path d="M182.381 722.349h6.994l-2.081 4.494-4.913-4.494z" id="Triangle-1" fill="#D74D50"/><path id="Triangle-1" fill="#F9A3A5" d="M182.331 722.349l4.547 4.494h-9.492z"/><path id="Triangle-1" fill="#FCBDBF" d="M188.99 722.349l-2.113 4.494h6.495z"/></g></g></g><g sketch:type="MSShapeGroup"><path d="M247.594 715.359l-14.754 52.924h133.892l-14.754-52.924h-104.384z" id="Rectangle-9" fill="#5EA034"/><path d="M247.625 715.359l-14.785 52.924h71.942l-57.157-52.924z" id="Rectangle-25" fill="#538534"/><path d="M247.625 715.359l-14.785 52.924 35.971-32.311-21.186-20.613z" id="Rectangle-31" fill="#528134"/><path d="M247.828 715.359l56.954 5.633v47.291l-56.954-52.924z" id="Rectangle-26" fill="#558C33"/><path d="M268.811 735.5l35.971-14.15v46.932l-35.971-32.783z" id="Rectangle-32" fill="#5C923A"/><path d="M353.742 721.351h-48.96v46.932l48.96-46.932z" id="Rectangle-27" fill="#589631"/><path d="M329.262 721.351h-24.48v46.932l24.48-46.932z" id="Rectangle-30" fill="#548E30"/><path d="M260.1 667.928l-20.266 52.924h119.903l-20.266-52.924h-79.372z" id="Rectangle-6" fill="#74AC50"/><path d="M327.763 720.851h31.475l-20.188-52.924-11.287 52.924z" id="Rectangle-29" fill="#77B252"/><path d="M260.157 667.928l-20.323 52.924 99.919-52.924h-79.596z" id="Rectangle-19" fill="#6FA24F"/><path d="M303.333 720.851h-63.499l99.919-52.924-36.42 52.924z" id="Rectangle-24" fill="#70A64E"/><path d="M272.5 624.99l-25.671 52.924h105.415l-25.671-52.924h-54.072z" id="Rectangle-7" fill="#73B34C"/><path d="M282.3 677.913h69.943l-25.737-52.924-44.207 52.924z" id="Rectangle-16" fill="#75B64C"/><path d="M282.3 677.913h69.943l-13.04-26.462-56.904 26.462z" id="Rectangle-28" fill="#75BB4A"/><path d="M282.3 677.913l6.513-38.349 37.452-14.575-43.964 52.924z" id="Rectangle-17" fill="#6FB046"/><path d="M250.825 638.969h98.92l-49.46-52.424-49.46 52.424z" id="Rectangle-8" fill="#80C256"/><path d="M250.825 638.969l48.96-26.212v-26.212l-48.96 52.424z" id="Rectangle-10" fill="#79BE4E"/><path d="M348.247 637.971l-48.461-25.262v-26.164l48.461 51.426z" id="Rectangle-11" fill="#88C363"/><path d="M347.747 638.47l-48.607-25.963-10.346 25.963h58.952z" id="Rectangle-15" fill="#84CB57"/><path id="Rectangle-13" fill="#A3856A" d="M281.8 767.784h34.972v48.929h-34.972z"/><path d="M281.8 767.784v15.355l34.972 21.591v-36.947h-34.972z" id="Rectangle-14" fill="#94765B"/></g><g sketch:type="MSShapeGroup"><path d="M317.19 738.825l-16.405 58.416h148.879l-16.405-58.416h-116.069z" id="Rectangle-9" fill="#5EA034"/><path d="M317.315 738.825l-16.53 58.416h80.435l-63.905-58.416z" id="Rectangle-25" fill="#538534"/><path d="M317.212 738.825l-16.427 58.416 39.968-35.664-23.54-22.752z" id="Rectangle-31" fill="#528134"/><path d="M317.272 738.825l63.449 6.217v52.198l-63.449-58.416z" id="Rectangle-26" fill="#558C33"/><path d="M340.753 761.121l39.968-15.805v52.424l-39.968-36.619z" id="Rectangle-32" fill="#5C923A"/><path d="M435.676 745.316h-54.456v52.424l54.456-52.424z" id="Rectangle-27" fill="#589631"/><path d="M408.698 745.316h-27.478v52.424l27.478-52.424z" id="Rectangle-30" fill="#548E30"/><path d="M331.324 685.902l-22.545 58.416h133.392l-22.545-58.416h-88.301z" id="Rectangle-6" fill="#74AC50"/><path d="M406.2 744.317h34.972l-22.431-58.416-12.541 58.416z" id="Rectangle-29" fill="#77B252"/><path d="M331.337 685.902l-22.558 58.416 110.91-58.416h-88.352z" id="Rectangle-19" fill="#6FA24F"/><path d="M379.262 744.317h-70.483l110.91-58.416-40.427 58.416z" id="Rectangle-24" fill="#70A64E"/><path d="M344.864 638.47l-28.591 58.416h117.405l-28.591-58.416h-60.223z" id="Rectangle-7" fill="#73B34C"/><path d="M355.74 696.886h77.937l-28.678-58.416-49.259 58.416z" id="Rectangle-16" fill="#75B64C"/><path d="M355.74 696.886h77.937l-14.53-29.458-63.407 29.458z" id="Rectangle-28" fill="#75BB4A"/><path d="M355.74 696.886l7.253-42.329 41.707-16.087-48.96 58.416z" id="Rectangle-17" fill="#6FB046"/><path d="M320.269 653.448h109.911l-54.955-57.916-54.955 57.916z" id="Rectangle-8" fill="#80C256"/><path d="M320.269 653.448l54.456-28.958v-28.958l-54.456 57.916z" id="Rectangle-10" fill="#79BE4E"/><path d="M429.681 652.949l-53.956-28.205v-29.213l53.956 57.417z" id="Rectangle-11" fill="#88C363"/><path d="M429.181 653.448l-54.374-28.958-11.573 28.958h65.947z" id="Rectangle-15" fill="#84CB57"/><path id="Rectangle-13" fill="#A3856A" d="M355.241 796.742h38.968v54.422h-38.968z"/><path d="M355.241 796.742v17.015l38.968 23.925v-40.941h-38.968z" id="Rectangle-14" fill="#94765B"/></g><g sketch:type="MSShapeGroup"><path d="M1560.251 769.282l-20.92 74.892h189.846l-20.92-74.892h-148.007z" fill="#5EA034"/><path d="M1560.276 769.282l-20.945 74.892h101.917l-80.972-74.892z" fill="#538534"/><path d="M1560.276 769.282l-20.945 74.892 50.959-45.723-30.014-29.169z" fill="#528134"/><path d="M1560.314 769.282l80.934 7.971v66.921l-80.934-74.892z" fill="#558C33"/><path d="M1590.29 797.441l50.959-20.171v66.904l-50.959-46.733z" fill="#5C923A"/><path d="M1710.193 777.27h-68.944v66.904l68.944-66.904z" fill="#589631"/><path d="M1675.721 777.27h-34.472v66.904l34.472-66.904z" fill="#548E30"/><path d="M1578.032 701.379l-28.71 74.892h169.862l-28.71-74.892h-112.443z" fill="#74AC50"/><path d="M1674.222 776.271h44.964l-28.84-74.892-16.124 74.892z" fill="#77B252"/><path d="M1578.08 701.379l-28.757 74.892 141.385-74.892h-112.629z" fill="#6FA24F"/><path d="M1639.173 776.271h-89.851l141.385-74.892-51.535 74.892z" fill="#70A64E"/><path d="M1595.814 640.967l-36.499 74.892h149.879l-36.499-74.892h-76.88z" fill="#73B34C"/><path d="M1609.774 715.859h99.419l-36.583-74.892-62.837 74.892z" fill="#75B64C"/><path d="M1609.774 715.859h99.419l-18.535-37.446-80.884 37.446z" fill="#75BB4A"/><path d="M1609.774 715.859l9.251-54.267 53.198-20.625-62.449 74.892z" fill="#6FB046"/><path d="M1564.311 660.938h139.887l-69.943-74.393-69.943 74.393z" fill="#80C256"/><path d="M1564.311 660.938l69.943-37.196v-37.196l-69.943 74.393z" fill="#79BE4E"/><path d="M1702.699 659.44l-68.445-35.808v-37.087l68.445 72.895z" fill="#88C363"/><path d="M1703.198 660.938l-69.203-36.947-14.729 36.947h83.932z" fill="#84CB57"/><path fill="#A3856A" d="M1609.274 844.174h49.96v69.899h-49.96z"/><path d="M1609.274 844.174v21.581l49.96 30.345v-51.925h-49.96z" fill="#94765B"/></g><g><path fill="#939393" sketch:type="MSShapeGroup" d="M963.001 1.428h8.993v168.757h-8.993z"/><path d="M963.001 1.428v98.857l8.993 14.978v-113.836h-8.993z" fill="#6E6E6E" sketch:type="MSShapeGroup"/><path d="M962.501.429v69.4h124.899l-23.757-34.7 23.757-34.7h-124.899z" fill="#5B6C7B" sketch:type="MSShapeGroup"/><path d="M962.501.429v69.4h125.413l-125.413-69.4z" fill="#5F7284" sketch:type="MSShapeGroup"/><path d="M962.501.429h43.078l19.371 69.4-62.449-69.4z" fill="#596C7E" sketch:type="MSShapeGroup"/><path d="M1063.399 35.129l22.002-34.7h-79.935l19.358 69.4 38.575-34.7z" fill="#61788D" sketch:type="MSShapeGroup"/><path d="M1063.4 35.379l24-34.95h-81.934l57.934 34.95z" fill="#6D8499" sketch:type="MSShapeGroup"/><path d="M1063.678 34.38l24.721 34.95h-63.449l38.728-34.95z" fill="#5A7187" sketch:type="MSShapeGroup"/><path d="M962.501.429v69.4h10.492v-69.4h-10.491z" fill="#2B3A48" sketch:type="MSShapeGroup"/><g transform="translate(962.501 .429)"><use stroke="#fff" sketch:type="MSShapeGroup" xlink:href="#a"/><use xlink:href="#a"/></g><g transform="translate(962.501 .429)"><use fill="#fff" sketch:type="MSShapeGroup" xlink:href="#b"/><use xlink:href="#b"/></g><g transform="translate(962.501 .429)"><use fill="#fff" sketch:type="MSShapeGroup" xlink:href="#c"/><use xlink:href="#c"/></g><g sketch:type="MSShapeGroup"><path d="M1008.963 27.39l8.493 8.987-3.356-8.987h-5.138z" id="Path-15" fill="#B63033"/><path d="M1025.949 27.39l-8.853 8.823 3.495-8.823h5.358z" fill="#D74D50"/><path d="M1013.459 27.39l3.747 8.987 3.747-8.987h-7.494z" fill="#C53A3D"/><path id="Triangle-1" fill="#DF7D80" d="M1012.027 23.895l1.932 3.495h-4.996z"/><path d="M1011.961 23.895h5.496l-3.93 3.495-1.566-3.495z" id="Triangle-1" fill="#C53A3D"/><path d="M1016.957 23.895h5.995l-1.756 3.495-4.239-3.495z" id="Triangle-1" fill="#D74D50"/><path id="Triangle-1" fill="#F9A3A5" d="M1017.364 23.895l4.089 3.495h-7.994z"/><path fill="#FCBDBF" d="M1023.077 23.895l-2.125 3.495h4.996z"/></g></g></g></svg>