<?xml version="1.0" encoding="UTF-8" standalone="no"?>
<svg width="1913px" height="1389px" viewBox="0 0 1913 1389" version="1.1" xmlns="http://www.w3.org/2000/svg" xmlns:xlink="http://www.w3.org/1999/xlink" xmlns:sketch="http://www.bohemiancoding.com/sketch/ns">
    <!-- Generator: Sketch 3.0.1 (7597) - http://www.bohemiancoding.com/sketch -->
    <title>Foreground</title>
    <description>Created with Sketch.</description>
    <defs>
        <path id="path-1" d="M62.2754669,15 L62.2754669,17.689619 L60.822926,17.689619 L60.822926,15 L56.1282678,15 L56.1282683,17.689619 L54.6738575,17.689619 L54.6738575,15 L49.8312758,15 L49.8312758,17.689619 L48.3794918,17.689619 L48.3794918,15 L44.4576311,15 C44.4576311,15 37.1949264,41.5 55.206456,41.5 C73.2179855,41.5 66.1489093,15 66.1489093,15 L62.2754669,15 Z"></path>
        <path id="path-2" d="M55.5131485,53.5 L54.5129116,53.5 L54.5129116,41.5 L55.5131485,41.5 L55.5131485,53.5 Z"></path>
        <path id="path-3" d="M45.010661,53.5 L45.010661,54.5 L66.5157539,54.5 L66.5157546,53.5 L45.010661,53.5 Z"></path>
    </defs>
    <g id="Page-1" stroke="none" stroke-width="1" fill="none" fill-rule="evenodd" sketch:type="MSPage">
        <g id="Artboard-1" sketch:type="MSArtboardGroup" transform="translate(-446.000000, -1271.000000)">
            <g id="Foreground" sketch:type="MSLayerGroup" transform="translate(446.000000, 1271.000000)">
                <g id="castle" transform="translate(540.656480, 170.000000)" sketch:type="MSShapeGroup">
                    <g id="big-tower" transform="translate(287.067993, 0.000000)">
                        <rect id="Rectangle-49" fill="#BFBFBF" x="14.0033167" y="65.5" width="255.060412" height="133.5"></rect>
                        <path d="M14.0033167,107 L14.0033167,199.5 L53.5126747,199.5 L14.0033167,107 Z" id="Rectangle-36" fill="#9D9D9D"></path>
                        <path d="M14.0033167,107 L86.8039499,145.120569 L91.0215589,199.5 L53.4906929,199.5 L14.0033167,107 Z" id="Rectangle-37" fill="#A0A0A0"></path>
                        <path d="M14.0033167,106.997664 L87.0206112,145.5 L42.0003946,65.5 L14.0033167,65.5 L14.0033167,106.997664 Z" id="Rectangle-38" fill="#9C9C9C"></path>
                        <path d="M106.940109,65.5 L150.035537,169 L87.1434097,144.864375 L42.0099502,65.5 L106.940109,65.5 Z" id="Rectangle-50" fill="#B6B6B6"></path>
                        <path d="M106.025113,65.5 L86.996964,145.5 L42.0099502,65.5 L106.025113,65.5 Z" id="Rectangle-39" fill="#ACACAC"></path>
                        <path d="M208.071861,65.5 L189.044776,145.5 L269.063729,65.5 L208.071861,65.5 Z" id="Rectangle-40" fill="#D6D6D6"></path>
                        <path d="M208.549396,65.5 L189.434672,145.5 L105.524994,65.5 L208.549396,65.5 Z" id="Rectangle-52" fill="#C7C7C7"></path>
                        <path d="M189.044776,144.928074 L269.563847,64.5 L269.563847,199.5 L189.044776,144.928074 Z" id="Rectangle-42" fill="#E1E1E1"></path>
                        <path d="M189.044776,144.918041 L226.435112,107.5 L269.563847,199.5 L189.044776,144.918041 Z" id="Rectangle-43" fill="#D3D3D3"></path>
                        <rect id="Rectangle-65" fill="#686868" x="14.0033167" y="65.5" width="255.060412" height="133.5"></rect>
                        <path d="M14.0033167,55.5 L14.0033167,199.5 L104.524757,199.5 L14.0033167,55.5 Z" id="Rectangle-54" fill="#696666"></path>
                        <path d="M14.0033167,55.5 L85.1646578,55.5 L104.524757,199.5 L14.0033167,55.5 Z" id="Rectangle-66" fill="#6F6F6F"></path>
                        <path d="M193.045724,199.5 L135.931167,55.5 L85.0201374,55.5 L104.363755,199.5 L193.045724,199.5 Z" id="Rectangle-67" fill="#797979"></path>
                        <path d="M193.353123,199.5 L136.03222,55.5 L275.06515,55.5 L193.353123,199.5 Z" id="Rectangle-68" fill="#848484"></path>
                        <path d="M191.545368,199.5 L269.563847,64.5 L269.563847,199.5 L191.545368,199.5 Z" id="Rectangle-63" fill="#909090"></path>
                        <path d="M279.566217,2 L246.458315,2 L246.458315,14.566944 L234.555556,44.9236948 L236.767323,66 L279.566217,66 L279.566217,14.566944 L279.566217,2 Z" id="Rectangle-44" fill="#7F7F7F"></path>
                        <path d="M46.4794432,14.9634762 L33.1046087,14.9634764 L33.1046087,2 L0,2 L0,14.9634764 L0,66 L76.0180052,66 L46.4794432,14.9634762 Z" id="Rectangle-45" fill="#565656"></path>
                        <path d="M71.782726,66 L42.5100687,15 L106.602891,15 L163.038616,66 L71.782726,66 Z" id="Rectangle-46" fill="#626262"></path>
                        <path d="M88.0208481,15.5921815 L88.0208481,0 L185.104455,0 L185.104456,15.5921815 L224.053068,66 L126.348075,66 L88.0208481,15.5921815 Z" id="Rectangle-47" fill="#6F6F6F"></path>
                        <path d="M88.0208481,15.5921815 L88.0208481,0 L141.329745,0 L141.329746,15.5921815 L168.039801,66 L126.099147,66 L88.0208481,15.5921815 Z" id="Rectangle-53" fill="#6B6A6A"></path>
                        <path d="M246.326822,15 L184.54371,15 L194.558489,66 L260.561715,66 L246.326822,15 Z" id="Rectangle-48" fill="#767676"></path>
                    </g>
                    <g id="tower" transform="translate(21.505094, 2.000000)">
                        <rect id="Rectangle-21" fill="#777777" x="10.0023691" y="63.5" width="153.036247" height="133.5"></rect>
                        <path d="M10.0023691,61 L10.0023691,197.5 L88.5209666,197.5 L10.0023691,61 Z" id="Rectangle-12" fill="#6D6D6D"></path>
                        <path d="M86.0203743,197.5 L108.705993,62.5 L163.538735,62.5 L163.538735,197.5 L86.0203743,197.5 Z" id="Rectangle-18" fill="#7F7F7F"></path>
                        <path d="M173.541104,0 L147.973063,0 L147.973063,12.566944 L142.342698,42.9236948 L130.530917,64 L173.541104,64 L173.541104,12.566944 L173.541104,0 Z" id="Rectangle-8" fill="#828282"></path>
                        <path d="M25.4260223,12.9634764 L25.4260223,-1.81318156e-15 L0,-1.81318156e-15 L0,12.9634764 L0,64 L76.0180052,64 L25.4260223,12.9634764 Z" id="Rectangle-20" fill="#565656"></path>
                        <path d="M54.7860599,64 L25.5060412,13 L62.5975626,13 L118.027955,64 L54.7860599,64 Z" id="Rectangle-22" fill="#626262"></path>
                        <path d="M61.51457,12.5402893 L61.51457,0 L112.632983,0 L112.632983,12.5402893 L147.534944,64 L112.632983,64 L61.51457,12.5402893 Z" id="Rectangle-23" fill="#6B6A6A"></path>
                        <path d="M147.629525,13 L111.026297,13 L142.033641,64 L173.040986,64 L147.629525,13 Z" id="Rectangle-9" fill="#747474"></path>
                    </g>
                    <g id="tower" transform="translate(659.156124, 2.000000)">
                        <rect id="Rectangle-21" fill="#777777" x="10.0023691" y="63.5" width="153.036247" height="133.5"></rect>
                        <path d="M10.0023691,61 L10.0023691,197.5 L88.5209666,197.5 L10.0023691,61 Z" id="Rectangle-12" fill="#6D6D6D"></path>
                        <path d="M86.0203743,197.5 L108.705993,62.5 L163.538735,62.5 L163.538735,197.5 L86.0203743,197.5 Z" id="Rectangle-18" fill="#7F7F7F"></path>
                        <path d="M173.541104,0 L147.973063,0 L147.973063,12.566944 L142.342698,42.9236948 L130.530917,64 L173.541104,64 L173.541104,12.566944 L173.541104,0 Z" id="Rectangle-8" fill="#828282"></path>
                        <path d="M25.4260223,12.9634764 L25.4260223,-1.81318156e-15 L0,-1.81318156e-15 L0,12.9634764 L0,64 L76.0180052,64 L25.4260223,12.9634764 Z" id="Rectangle-20" fill="#565656"></path>
                        <path d="M54.7860599,64 L25.5060412,13 L62.5975626,13 L118.027955,64 L54.7860599,64 Z" id="Rectangle-22" fill="#626262"></path>
                        <path d="M61.51457,12.5402893 L61.51457,0 L112.632983,0 L112.632983,12.5402893 L147.534944,64 L112.632983,64 L61.51457,12.5402893 Z" id="Rectangle-23" fill="#6B6A6A"></path>
                        <path d="M147.629525,13 L111.026297,13 L142.033641,64 L173.040986,64 L147.629525,13 Z" id="Rectangle-9" fill="#747474"></path>
                    </g>
                    <g id="wall" transform="translate(0.000000, 149.500000)">
                        <rect id="Rectangle-79" fill="#E1E1E1" x="20.5048567" y="45.5" width="800.189529" height="402.5"></rect>
                        <path d="M20.5048567,45.5 L20.5048567,448 L336.079602,448 L20.5048567,45.5 Z" id="Rectangle-88" fill="#C4C4C4"></path>
                        <path d="M288.537142,391.5 L117.527837,448 L336.079602,448 L288.537142,391.5 Z" id="Rectangle-107" fill="#B8B8B8"></path>
                        <path d="M224.650678,306.5 L117.527837,448 L292.069178,396.026097 L224.650678,306.5 Z" id="Rectangle-128" fill="#C3C3C3"></path>
                        <path d="M224.553186,306.621695 L117.527837,448 L177.276724,246 L224.553186,306.621695 Z" id="Rectangle-108" fill="#BFBFBF"></path>
                        <path d="M20.5048567,45.5 L20.5048567,448 L178.542289,246.75 L20.5048567,45.5 Z" id="Rectangle-102" fill="#C1C1C1"></path>
                        <path d="M20.5048567,45.5 L20.5048567,304 L122.028903,174.75 L20.5048567,45.5 Z" id="Rectangle-106" fill="#BBBBBB"></path>
                        <path d="M20.5048567,45.5 L274.503279,45.5 L336.079602,448 L20.5048567,45.5 Z" id="Rectangle-89" fill="#CCCBCB"></path>
                        <path d="M20.5048567,45.5 L274.565032,45.5 L121.766339,175.5 L20.5048567,45.5 Z" id="Rectangle-111" fill="#C5C5C5"></path>
                        <path d="M178.04217,246.75 L274.906121,45.5 L336.57972,448 L178.04217,246.75 Z" id="Rectangle-105" fill="#D1D1D1"></path>
                        <path d="M177.542052,246.662248 L299.070836,215.5 L224.373431,306.5 L177.542052,246.662248 Z" id="Rectangle-109" fill="#CCCCCC"></path>
                        <path d="M329.077944,444.5 L299.507758,215.5 L224.553186,306.732678 L329.077944,444.5 Z" id="Rectangle-110" fill="#D1D1D1"></path>
                        <path d="M556.131722,448 L340.712334,45.5 L274.565032,45.5 L336.127945,448 L556.131722,448 Z" id="Rectangle-90" fill="#D4D4D4"></path>
                        <path d="M374.088605,110.980469 L274.565032,45.5 L336.141241,448 L374.088605,110.980469 Z" id="Rectangle-112" fill="#CFCFCF"></path>
                        <path d="M374.256663,111 L411.597489,181.079618 L357.084577,265 L374.256663,111 Z" id="Rectangle-113" fill="#CCCCCC"></path>
                        <path d="M374.088605,111 L411.40165,181 L515.622127,111 L374.088605,111 Z" id="Rectangle-115" fill="#D3D2D2"></path>
                        <path d="M374.088605,111 L300.071073,215.918071 L356.933077,265 L374.088605,111 Z" id="Rectangle-114" fill="#D3D3D3"></path>
                        <path d="M555.631604,448 L338.080076,45.5 L509.056664,45.5 L555.631604,448 Z" id="Rectangle-91" fill="#DFDFDF"></path>
                        <path d="M555.631604,448 L511.62118,369.451315 L529.947958,227.5 L555.631604,448 Z" id="Rectangle-118" fill="#DBDBDB"></path>
                        <path d="M411.624975,181.5 L338.080076,45.5 L509.120588,45.5 L411.624975,181.5 Z" id="Rectangle-116" fill="#DCDBDB"></path>
                        <path d="M411.597489,181.546721 L529.625444,228.5 L509.011517,45.5 L411.597489,181.546721 Z" id="Rectangle-117" fill="#E5E4E4"></path>
                        <path d="M555.631604,448 L665.157546,287.971511 L656.234753,214.5 L555.631604,448 Z" id="Rectangle-92" fill="#EAEAEA"></path>
                        <path d="M555.739165,448 L637.651031,111.785156 L507.620232,45.5 L555.739165,448 Z" id="Rectangle-119" fill="#E5E4E4"></path>
                        <path d="M530.099252,230 L637.651031,111.867357 L507.620232,45.5 L530.099252,230 Z" id="Rectangle-121" fill="#EAEAEA"></path>
                        <path d="M530.125563,230.098977 L637.651031,112 L596.10599,284 L530.125563,230.098977 Z" id="Rectangle-122" fill="#E1E1E1"></path>
                        <path d="M555.631604,448 L637.496324,112 L654.15494,226.848439 L555.631604,448 Z" id="Rectangle-120" fill="#E4E4E4"></path>
                        <path d="M664.227001,286 L823.695096,45.5 L635.150438,110.158273 L664.227001,286 Z" id="Rectangle-103" fill="#F7F7F7"></path>
                        <path d="M664.217501,285 L705.66714,110 L635.150438,110 L664.217501,285 Z" id="Rectangle-124" fill="#F2F2F2"></path>
                        <path d="M654.600697,226.5 L705.66714,110 L635.150438,110 L654.600697,226.5 Z" id="Rectangle-126" fill="#E8E8E8"></path>
                        <path d="M706.167259,346.5 L823.695096,198.5 L823.695096,340.787569 L706.167259,346.5 Z" id="Rectangle-93" fill="#F9F9F9"></path>
                        <path d="M706.113077,347 L823.695096,199.5 L663.65719,284.682656 L706.113077,347 Z" id="Rectangle-127" fill="#F7F7F7"></path>
                        <path d="M664.157309,285 L823.695096,43 L823.695096,199.813033 L664.157309,285 Z" id="Rectangle-104" fill="#F5F5F5"></path>
                        <path d="M555.631604,448 L664.420602,285 L708.667851,345.935819 L555.631604,448 Z" id="Rectangle-125" fill="#F2F2F2"></path>
                        <path d="M555.631604,448 L823.695096,266.5 L823.695096,448 L555.631604,448 Z" id="Rectangle-101" fill="#F5F5F5"></path>
                        <rect id="Rectangle-86" fill="#ECECEC" x="0.500118455" y="41" width="840.199005" height="70"></rect>
                        <path d="M70.0082335,0 L0,0 L0,41.0689073 L0,111 L131.031035,111 L70.0082335,41.0689073 L70.0082335,0 Z" id="Rectangle-94" fill="#A3A3A3"></path>
                        <path d="M195.540912,0 L125.536058,0 L125.536058,41.0689073 L70.0165837,41.0689073 L125.536058,111 L256.560768,111 L195.540912,41.0689073 L195.540912,0 Z" id="Rectangle-95" fill="#ADADAD"></path>
                        <path d="M320.570526,0 L250.565672,0 L250.565672,41.0689073 L195.046198,41.0689073 L250.565672,111 L379.089789,111 L320.570526,41.0689073 L320.570526,0 Z" id="Rectangle-96" fill="#B5B5B5"></path>
                        <path d="M591.551613,0 L521.451404,0 L521.451404,41.0689073 L485.61502,41.0689073 L515.548435,111 L652.654584,111 L621.8723,41.0689073 L591.551613,41.0689073 L591.551613,0 Z" id="Rectangle-98" fill="#C8C8C8"></path>
                        <path d="M712.236719,0 L642.316123,0 L642.316123,41.0689073 L616.646055,41.0689073 L636.428278,111 L773.183132,111 L740.55222,41.0689073 L712.236719,41.0689073 L712.236719,0 Z" id="Rectangle-99" fill="#D3D3D3"></path>
                        <path d="M841.199242,0 L771.123033,0 L771.123033,41.0689073 L740.175314,41.0689073 L765.222084,111 L841.199242,111 L841.199242,41.0689073 L841.199242,0 Z" id="Rectangle-100" fill="#DADADA"></path>
                        <path d="M455.10187,0 L385.096419,0 L385.096419,41.0689073 L319.575693,41.0689073 L375.095641,111 L516.122246,111 L491.128112,41.0689073 L455.10187,41.0689073 L455.10187,0 Z" id="Rectangle-97" fill="#C2C1C1"></path>
                    </g>
                    <g id="Door" transform="translate(321.076048, 417.500000)">
                        <g id="Door-right" transform="translate(99.023454, 0.000000)">
                            <path d="M0,0 L0.500118455,180 L101.023928,180 L101.023928,0 L0,0 Z" id="Rectangle-130" fill="#987C57"></path>
                            <path d="M1.00023691,180 L101.023928,180 L101.023928,0 L1.00023691,180 Z" id="Rectangle-133" fill="#AE9574"></path>
                        </g>
                        <g id="Door-left">
                            <rect id="Rectangle-131" fill="#8B6D46" x="0" y="0" width="100.023691" height="180"></rect>
                            <path d="M0,0 L0,180 L100.023691,180 L0,0 Z" id="Rectangle-132" fill="#816139"></path>
                        </g>
                        <g id="woodboard" transform="translate(35.008292, 84.000000)">
                            <rect id="Rectangle-135" fill="#B59537" x="0" y="0" width="130.030798" height="24"></rect>
                            <path d="M0,0 L0,24 L65.0153992,24 L0,0 Z" id="Rectangle-136" fill="#A6892F"></path>
                            <path d="M0,0 L130.030798,0 L65.0339636,24 L0,0 Z" id="Rectangle-137" fill="#AC903A"></path>
                        </g>
                        <g id="holders" transform="translate(59.514096, 100.000000)" fill="#4D4D4D">
                            <rect id="Rectangle-138" x="0" y="0" width="22.5053305" height="17"></rect>
                            <rect id="Rectangle-139" x="58.0137408" y="0" width="22.5053305" height="17"></rect>
                        </g>
                    </g>
                </g>
                <g id="sand" transform="translate(0.028429, 764.000000)" sketch:type="MSShapeGroup">
                    <path d="M-1.13686838e-13,1 L-1.13686838e-13,407.5 L258.561241,154.718504 L104.815843,1 L-1.13686838e-13,1 Z" id="Rectangle-170" fill="#EBCF9F"></path>
                    <path d="M155.270512,256 L-1.13686838e-13,100 L252.059701,159.875827 L155.270512,256 Z" id="Rectangle-329" fill="#EACD99"></path>
                    <path d="M96.892396,623 L-1.13686838e-13,623 L-1.13686838e-13,407.548852 L249.058991,163 L96.892396,623 Z" id="Rectangle-171" fill="#E6C791"></path>
                    <path d="M97.0229803,623 L270.910636,623 L391.592751,308.192686 L252.41694,150.5 L97.0229803,623 Z" id="Rectangle-172" fill="#EED3A4"></path>
                    <path d="M333.164848,456.5 L391.092632,308.223018 L252.059701,150.5 L333.164848,456.5 Z" id="Rectangle-332" fill="#E8CA96"></path>
                    <path d="M333.57901,456.5 L202.047856,303.5 L252.465788,150.5 L333.57901,456.5 Z" id="Rectangle-340" fill="#EACC98"></path>
                    <path d="M333.57901,456.45654 L202.047856,303.5 L271.618118,623.5 L333.57901,456.45654 Z" id="Rectangle-341" fill="#EAC98F"></path>
                    <path d="M96.5228619,623.5 L201.965098,303.5 L271.564321,623.5 L96.5228619,623.5 Z" id="Rectangle-342" fill="#DEC18C"></path>
                    <path d="M667.658138,623 L270.564084,623 L390.190974,306 L667.658138,623 Z" id="Rectangle-175" fill="#EACD99"></path>
                    <path d="M333.078891,457 L488.115612,419.534334 L390.143379,306 L333.078891,457 Z" id="Rectangle-331" fill="#E6C791"></path>
                    <path d="M667.658138,623 L536.073453,217.099591 L257.561005,158.5 L667.658138,623 Z" id="Rectangle-176" fill="#EBCF9F"></path>
                    <path d="M487.387905,419 L536.126984,217.067312 L257.561005,158.5 L487.387905,419 Z" id="Rectangle-333" fill="#EACC97"></path>
                    <path d="M80.5190713,1 L248.819749,164.887079 L535.190992,219 L737.674722,1 L80.5190713,1 Z" id="Rectangle-178" fill="#E6CC9C"></path>
                    <path d="M249.058991,164.887079 L535.290086,219 L737.674722,1 L249.058991,164.887079 Z" id="Rectangle-189" fill="#E1C593"></path>
                    <path d="M628.089289,504.5 L534.626629,218.49814 L737.174603,0.5 L628.089289,504.5 Z" id="Rectangle-179" fill="#EED3A4"></path>
                    <path d="M735.174129,0.5 L743.108248,447.5 L1000.73703,154.376316 L847.093009,0.999801271 L735.174129,0.5 Z" id="Rectangle-183" fill="#EED19D"></path>
                    <path d="M838.963883,623 L667.51495,623 L621.64724,501.135529 L745.954361,402.131874 L1004.73798,146.5 L838.963883,623 Z" id="Rectangle-173" fill="#E6C791"></path>
                    <path d="M949.67842,298.305095 L746.176735,402 L1004.73798,146.5 L949.67842,298.305095 Z" id="Rectangle-335" fill="#EACC97"></path>
                    <path d="M757.67946,393.935825 L621.64724,502 L735.722026,0.5 L757.67946,393.935825 Z" id="Rectangle-334" fill="#E8CA95"></path>
                    <path d="M839.198768,623 L1013.08642,623 L1133.76854,308.198246 L999.753759,154.5 L839.198768,623 Z" id="Rectangle-174" fill="#EED3A4"></path>
                    <path d="M839.198768,623 L999.736792,388.75 L999.736792,154.5 L839.198768,623 Z" id="Rectangle-336" fill="#E2C592"></path>
                    <path d="M1131.76806,318.805614 L999.736792,389 L999.736792,154.5 L1131.76806,318.805614 Z" id="Rectangle-337" fill="#E7C78F"></path>
                    <path d="M1131.76806,318.5 L999.736792,388.687046 L1038.3465,559 L1131.76806,318.5 Z" id="Rectangle-338" fill="#E9CB95"></path>
                    <path d="M840.199005,623 L999.221028,388.5 L1037.74579,558.830766 L840.199005,623 Z" id="Rectangle-339" fill="#EBCF9D"></path>
                    <path d="M1409.83393,623 L1012.73987,623 L1132.36676,306 L1409.83393,623 Z" id="Rectangle-177" fill="#EECF97"></path>
                    <path d="M1409.83393,623 L1012.73987,623 L1220.59599,417 L1409.83393,623 Z" id="Rectangle-344" fill="#EAC98F"></path>
                    <path d="M1409.83393,623 L1277.23326,218.471014 L980.232172,155.5 L1409.83393,623 Z" id="Rectangle-180" fill="#EDCD95"></path>
                    <path d="M1409.83393,623 L1276.18641,216 L1217.78844,414.549736 L1409.83393,623 Z" id="Rectangle-348" fill="#EFCE94"></path>
                    <path d="M1204.78536,206 L1277.30253,218.7196 L1217.87108,414.5 L1204.78536,206 Z" id="Rectangle-349" fill="#F1D39E"></path>
                    <path d="M820.194267,1 L999.896556,168.789153 L1277.34538,219 L1479.85051,1 L820.194267,1 Z" id="Rectangle-181" fill="#EECF97"></path>
                    <path d="M1098.62542,1 L820.194267,1 L999.879713,168.789153 L1277.30253,219 L1098.62542,1 Z" id="Rectangle-184" fill="#F0D4A2"></path>
                    <path d="M1098.76025,1 L820.194267,1 L999.966725,168.5 L1098.76025,1 Z" id="Rectangle-185" fill="#EBC98F"></path>
                    <path d="M1370.60595,505 L1274.80194,218.746246 L1479.85051,1 L1370.60595,505 Z" id="Rectangle-182" fill="#EED3A4"></path>
                    <path d="M1369.51702,510 L1274.80194,218.5 L1451.34376,347.782442 L1369.51702,510 Z" id="Rectangle-350" fill="#E4C48C"></path>
                    <path d="M1752.41507,1 L1373.32528,503.5 L1616.47601,1 L1752.41507,1 Z" id="Rectangle-346" fill="#F0CE93"></path>
                    <path d="M1752.41507,1 L1576.87349,224 L1616.48909,1 L1752.41507,1 Z" id="Rectangle-351" fill="#EAC78A"></path>
                    <path d="M1473.14512,1 L1370.32457,511 L1617.38308,1 L1473.14512,1 Z" id="Rectangle-347" fill="#E9C88D"></path>
                    <path d="M1370.82469,504.754121 L1579.37408,221.5 L1530.56032,622.851218 L1405.58876,622.851227 L1370.82469,504.754121 Z" id="Rectangle-186" fill="#E7C78E"></path>
                    <path d="M1910.4525,270.603882 L1910.4525,1 L1530.36247,623 L1910.4525,270.603882 Z" id="Rectangle-187" fill="#EDCD95"></path>
                    <path d="M1910.4525,266.920235 L1810.54946,167.5 L1738.91187,429.5 L1910.4525,266.920235 Z" id="Rectangle-343" fill="#EFD19C"></path>
                    <path d="M1738.91187,282.864327 L1810.42881,167.5 L1738.91187,429.5 L1738.91187,282.864327 Z" id="Rectangle-359" fill="#E6C487"></path>
                    <path d="M1739.41199,283 L1645.88984,517.5 L1739.41199,429.740749 L1739.41199,283 Z" id="Rectangle-360" fill="#E2BE7F"></path>
                    <path d="M1912.45297,1 L1751.91495,1 L1809.93527,167 L1912.45297,1 Z" id="Rectangle-356" fill="#EFD19D"></path>
                    <path d="M1739.41199,283.5 L1751.97061,1 L1809.92869,166.803162 L1739.41199,283.5 Z" id="Rectangle-357" fill="#E7C88F"></path>
                    <path d="M1739.91211,287 L1558.85109,373.479496 L1530.36247,623 L1739.91211,287 Z" id="Rectangle-358" fill="#F2D39D"></path>
                    <path d="M1739.80881,287.072765 L1558.86923,373.5 L1752.41507,-5.54995424e-17 L1739.80881,287.072765 Z" id="Rectangle-361" fill="#EFCE94"></path>
                    <path d="M1578.86037,221.949669 L1558.86923,373.5 L1752.41507,-5.54995424e-17 L1578.86037,221.949669 Z" id="Rectangle-362" fill="#E2BF80"></path>
                    <path d="M1910.4525,268.5 L1910.4525,623 L1530.36247,623 L1910.4525,268.5 Z" id="Rectangle-188" fill="#E7C78E"></path>
                </g>
                <g id="Red-carpet" transform="translate(0.000000, 764.000000)" sketch:type="MSShapeGroup">
                    <path d="M953.254205,0 L1046.94412,170.5 L1061.77991,0 L953.254205,0 Z" id="Rectangle-366" fill="#B32B2B"></path>
                    <path d="M955.279458,0 L1046.77636,169.5 L861.232409,12.2929688 L861.232409,0 L955.279458,0 Z" id="Rectangle-367" fill="#BB3030"></path>
                    <path d="M944.645694,265 L1048.27671,169.043702 L861.232409,0 L944.645694,265 Z" id="Rectangle-368" fill="#AB2B2B"></path>
                    <path d="M944.752191,264.843371 L1047.08612,169.5 L1056.77873,623 L944.752191,264.843371 Z" id="Rectangle-369" fill="#BB3030"></path>
                    <path d="M862.47491,0 L0.0284292822,624 L1058.27908,623 L862.47491,0 Z" id="Rectangle-328" fill="#B32B2B"></path>
                    <path d="M862.232646,0 L550.658849,224.775549 L802.585947,411 L862.232646,0 Z" id="Rectangle-352" fill="#BB3030"></path>
                    <path d="M746.913713,85 L551.659086,225.291214 L803.718787,424 L746.913713,85 Z" id="Rectangle-363" fill="#AB2B2B"></path>
                    <path d="M862.232646,0 L803.718787,424 L862.232646,0 Z" id="Rectangle-353" fill="#AE3B3B"></path>
                    <path d="M1052.72655,619 L566.846957,215.5 L0.0284292822,624 L1911.27342,624 L1052.72655,619 Z" id="Rectangle-345" fill="#AB2B2B"></path>
                    <path d="M566.867166,215.5 L0.0284292822,624 L803.218669,413.051069 L566.867166,215.5 Z" id="Rectangle-364" fill="#B32B2B"></path>
                    <path d="M1501.38403,323 L1043.27553,0 L1046.82012,169.522577 L1501.38403,323 Z" id="Rectangle-330" fill="#AB2B2B"></path>
                    <path d="M1499.88368,321.941854 L1051.74803,443 L1046.27624,169 L1499.88368,321.941854 Z" id="Rectangle-355" fill="#B32E2E"></path>
                    <path d="M1910.48093,623 L1484.99728,310 L1054.27884,623 L1910.48093,623 Z" id="Rectangle-354" fill="#AB2B2B"></path>
                    <path d="M1050.7773,442.968793 L1485.88036,311 L1056.13672,622.439453 L1050.7773,442.968793 Z" id="Rectangle-370" fill="#BA3A3A"></path>
                    <path d="M1910.48093,623 L1485.96859,311 L1311.83914,623 L1910.48093,623 Z" id="Rectangle-365" fill="#AB2B2B"></path>
                    <path d="M1044.27576,0 L1874.73715,623 L1910.62501,623 L1910.62501,573.585938 L1061.79968,0 L1044.27576,0 Z" id="Rectangle-327" fill="#D44747"></path>
                    <path d="M861.991238,0 L0.028427124,544.105469 L0.028427124,624.097656 L877.736318,0 L861.991238,0 Z" id="Rectangle-327" fill="#992323"></path>
                </g>
                <g id="Flowers" transform="translate(110.554608, 773.000000)" sketch:type="MSShapeGroup">
                    <g id="Flower" transform="translate(1273.801706, 151.500000)">
                        <rect id="Rectangle-221" fill="#9AC771" x="10.0023691" y="13" width="2.00047382" height="23"></rect>
                        <path d="M11.002606,19.5107232 L11.002606,23.0857855 L18.1342687,27 L21.5050936,23.0857855 L18.6436731,19 L11.002606,19.5107232 Z" id="Rectangle-221" fill="#96C66A"></path>
                        <path d="M11.002606,23 L18.1342687,27 L21.5050936,23 L11.002606,23 Z" id="Rectangle-222" fill="#8BB465"></path>
                        <g id="Ruby">
                            <path d="M0,4.5 L11.002606,16 L6.50353712,4.5 L0,4.5 Z" id="Path-15" fill="#B63033"></path>
                            <path d="M11.002606,4.5 L22.005212,16 L17.4969632,4.5 L11.002606,4.5 Z" id="Path-15" fill="#D74D50" transform="translate(16.503909, 10.250000) scale(-1, 1) translate(-16.503909, -10.250000) "></path>
                            <path d="M6.00142146,4.5 L10.7525468,16 L15.5036721,4.5 L6.00142146,4.5 Z" id="Path-16" fill="#C53A3D"></path>
                            <polygon id="Triangle-1" fill="#DF7D80" points="4.35249459 0 6.50153992 4.5 0 4.5 "></polygon>
                            <path d="M4.00094764,0 L11.002606,0 L5.99604385,4.5 L4.00094764,0 Z" id="Triangle-1" fill="#C53A3D"></path>
                            <path d="M11.002606,0 L18.0042644,0 L15.9210325,4.5 L11.002606,0 Z" id="Triangle-1" fill="#D74D50"></path>
                            <polygon id="Triangle-1" fill="#F9A3A5" points="10.9519732 0 15.5036721 4.5 6.00142146 4.5 "></polygon>
                            <polygon id="Triangle-1" fill="#FCBDBF" transform="translate(18.754442, 2.250000) scale(-1, 1) translate(-18.754442, -2.250000) " points="19.8904027 0 22.005212 4.5 15.5036721 4.5 "></polygon>
                        </g>
                    </g>
                    <g id="Flower-4" transform="translate(1646.389955, 151.500000)">
                        <rect id="Rectangle-221" fill="#9AC771" x="10.0023691" y="13" width="2.00047382" height="23"></rect>
                        <path d="M11.002606,19.5107232 L11.002606,23.0857855 L18.1342687,27 L21.5050936,23.0857855 L18.6436731,19 L11.002606,19.5107232 Z" id="Rectangle-221" fill="#96C66A"></path>
                        <path d="M11.002606,23 L18.1342687,27 L21.5050936,23 L11.002606,23 Z" id="Rectangle-222" fill="#8BB465"></path>
                        <g id="Ruby">
                            <path d="M0,4.5 L11.002606,16 L6.50353712,4.5 L0,4.5 Z" id="Path-15" fill="#B63033"></path>
                            <path d="M11.002606,4.5 L22.005212,16 L17.4969632,4.5 L11.002606,4.5 Z" id="Path-15" fill="#D74D50" transform="translate(16.503909, 10.250000) scale(-1, 1) translate(-16.503909, -10.250000) "></path>
                            <path d="M6.00142146,4.5 L10.7525468,16 L15.5036721,4.5 L6.00142146,4.5 Z" id="Path-16" fill="#C53A3D"></path>
                            <polygon id="Triangle-1" fill="#DF7D80" points="4.35249459 0 6.50153992 4.5 0 4.5 "></polygon>
                            <path d="M4.00094764,0 L11.002606,0 L5.99604385,4.5 L4.00094764,0 Z" id="Triangle-1" fill="#C53A3D"></path>
                            <path d="M11.002606,0 L18.0042644,0 L15.9210325,4.5 L11.002606,0 Z" id="Triangle-1" fill="#D74D50"></path>
                            <polygon id="Triangle-1" fill="#F9A3A5" points="10.9519732 0 15.5036721 4.5 6.00142146 4.5 "></polygon>
                            <polygon id="Triangle-1" fill="#FCBDBF" transform="translate(18.754442, 2.250000) scale(-1, 1) translate(-18.754442, -2.250000) " points="19.8904027 0 22.005212 4.5 15.5036721 4.5 "></polygon>
                        </g>
                    </g>
                    <g id="Flower-5" transform="translate(1530.362473, 262.000000)">
                        <rect id="Rectangle-221" fill="#9AC771" x="10.0023691" y="13" width="2.00047382" height="23"></rect>
                        <path d="M11.002606,19.5107232 L11.002606,23.0857855 L18.1342687,27 L21.5050936,23.0857855 L18.6436731,19 L11.002606,19.5107232 Z" id="Rectangle-221" fill="#96C66A"></path>
                        <path d="M11.002606,23 L18.1342687,27 L21.5050936,23 L11.002606,23 Z" id="Rectangle-222" fill="#8BB465"></path>
                        <g id="Ruby">
                            <path d="M0,4.5 L11.002606,16 L6.50353712,4.5 L0,4.5 Z" id="Path-15" fill="#B63033"></path>
                            <path d="M11.002606,4.5 L22.005212,16 L17.4969632,4.5 L11.002606,4.5 Z" id="Path-15" fill="#D74D50" transform="translate(16.503909, 10.250000) scale(-1, 1) translate(-16.503909, -10.250000) "></path>
                            <path d="M6.00142146,4.5 L10.7525468,16 L15.5036721,4.5 L6.00142146,4.5 Z" id="Path-16" fill="#C53A3D"></path>
                            <polygon id="Triangle-1" fill="#DF7D80" points="4.35249459 0 6.50153992 4.5 0 4.5 "></polygon>
                            <path d="M4.00094764,0 L11.002606,0 L5.99604385,4.5 L4.00094764,0 Z" id="Triangle-1" fill="#C53A3D"></path>
                            <path d="M11.002606,0 L18.0042644,0 L15.9210325,4.5 L11.002606,0 Z" id="Triangle-1" fill="#D74D50"></path>
                            <polygon id="Triangle-1" fill="#F9A3A5" points="10.9519732 0 15.5036721 4.5 6.00142146 4.5 "></polygon>
                            <polygon id="Triangle-1" fill="#FCBDBF" transform="translate(18.754442, 2.250000) scale(-1, 1) translate(-18.754442, -2.250000) " points="19.8904027 0 22.005212 4.5 15.5036721 4.5 "></polygon>
                        </g>
                    </g>
                    <g id="Flower-2" transform="translate(1334.816157, 51.000000)">
                        <rect id="Rectangle-221" fill="#9AC771" x="10.0023691" y="13" width="2.00047382" height="23"></rect>
                        <path d="M11.002606,19.5107232 L11.002606,23.0857855 L18.1342687,27 L21.5050936,23.0857855 L18.6436731,19 L11.002606,19.5107232 Z" id="Rectangle-221" fill="#96C66A"></path>
                        <path d="M11.002606,23 L18.1342687,27 L21.5050936,23 L11.002606,23 Z" id="Rectangle-222" fill="#8BB465"></path>
                        <g id="Ruby">
                            <path d="M0,4.5 L11.002606,16 L6.50353712,4.5 L0,4.5 Z" id="Path-15" fill="#B63033"></path>
                            <path d="M11.002606,4.5 L22.005212,16 L17.4969632,4.5 L11.002606,4.5 Z" id="Path-15" fill="#D74D50" transform="translate(16.503909, 10.250000) scale(-1, 1) translate(-16.503909, -10.250000) "></path>
                            <path d="M6.00142146,4.5 L10.7525468,16 L15.5036721,4.5 L6.00142146,4.5 Z" id="Path-16" fill="#C53A3D"></path>
                            <polygon id="Triangle-1" fill="#DF7D80" points="4.35249459 0 6.50153992 4.5 0 4.5 "></polygon>
                            <path d="M4.00094764,0 L11.002606,0 L5.99604385,4.5 L4.00094764,0 Z" id="Triangle-1" fill="#C53A3D"></path>
                            <path d="M11.002606,0 L18.0042644,0 L15.9210325,4.5 L11.002606,0 Z" id="Triangle-1" fill="#D74D50"></path>
                            <polygon id="Triangle-1" fill="#F9A3A5" points="10.9519732 0 15.5036721 4.5 6.00142146 4.5 "></polygon>
                            <polygon id="Triangle-1" fill="#FCBDBF" transform="translate(18.754442, 2.250000) scale(-1, 1) translate(-18.754442, -2.250000) " points="19.8904027 0 22.005212 4.5 15.5036721 4.5 "></polygon>
                        </g>
                    </g>
                    <g id="Flower-3" transform="translate(1159.274579, 0.000000)">
                        <rect id="Rectangle-221" fill="#9AC771" x="10.0023691" y="13" width="2.00047382" height="23"></rect>
                        <path d="M11.002606,19.5107232 L11.002606,23.0857855 L18.1342687,27 L21.5050936,23.0857855 L18.6436731,19 L11.002606,19.5107232 Z" id="Rectangle-221" fill="#96C66A"></path>
                        <path d="M11.002606,23 L18.1342687,27 L21.5050936,23 L11.002606,23 Z" id="Rectangle-222" fill="#8BB465"></path>
                        <g id="Ruby">
                            <path d="M0,4.5 L11.002606,16 L6.50353712,4.5 L0,4.5 Z" id="Path-15" fill="#B63033"></path>
                            <path d="M11.002606,4.5 L22.005212,16 L17.4969632,4.5 L11.002606,4.5 Z" id="Path-15" fill="#D74D50" transform="translate(16.503909, 10.250000) scale(-1, 1) translate(-16.503909, -10.250000) "></path>
                            <path d="M6.00142146,4.5 L10.7525468,16 L15.5036721,4.5 L6.00142146,4.5 Z" id="Path-16" fill="#C53A3D"></path>
                            <polygon id="Triangle-1" fill="#DF7D80" points="4.35249459 0 6.50153992 4.5 0 4.5 "></polygon>
                            <path d="M4.00094764,0 L11.002606,0 L5.99604385,4.5 L4.00094764,0 Z" id="Triangle-1" fill="#C53A3D"></path>
                            <path d="M11.002606,0 L18.0042644,0 L15.9210325,4.5 L11.002606,0 Z" id="Triangle-1" fill="#D74D50"></path>
                            <polygon id="Triangle-1" fill="#F9A3A5" points="10.9519732 0 15.5036721 4.5 6.00142146 4.5 "></polygon>
                            <polygon id="Triangle-1" fill="#FCBDBF" transform="translate(18.754442, 2.250000) scale(-1, 1) translate(-18.754442, -2.250000) " points="19.8904027 0 22.005212 4.5 15.5036721 4.5 "></polygon>
                        </g>
                    </g>
                    <g id="Flower-6" transform="translate(1552.367685, 24.500000)">
                        <rect id="Rectangle-221" fill="#9AC771" x="10.0023691" y="13" width="2.00047382" height="23"></rect>
                        <path d="M11.002606,19.5107232 L11.002606,23.0857855 L18.1342687,27 L21.5050936,23.0857855 L18.6436731,19 L11.002606,19.5107232 Z" id="Rectangle-221" fill="#96C66A"></path>
                        <path d="M11.002606,23 L18.1342687,27 L21.5050936,23 L11.002606,23 Z" id="Rectangle-222" fill="#8BB465"></path>
                        <g id="Ruby">
                            <path d="M0,4.5 L11.002606,16 L6.50353712,4.5 L0,4.5 Z" id="Path-15" fill="#B63033"></path>
                            <path d="M11.002606,4.5 L22.005212,16 L17.4969632,4.5 L11.002606,4.5 Z" id="Path-15" fill="#D74D50" transform="translate(16.503909, 10.250000) scale(-1, 1) translate(-16.503909, -10.250000) "></path>
                            <path d="M6.00142146,4.5 L10.7525468,16 L15.5036721,4.5 L6.00142146,4.5 Z" id="Path-16" fill="#C53A3D"></path>
                            <polygon id="Triangle-1" fill="#DF7D80" points="4.35249459 0 6.50153992 4.5 0 4.5 "></polygon>
                            <path d="M4.00094764,0 L11.002606,0 L5.99604385,4.5 L4.00094764,0 Z" id="Triangle-1" fill="#C53A3D"></path>
                            <path d="M11.002606,0 L18.0042644,0 L15.9210325,4.5 L11.002606,0 Z" id="Triangle-1" fill="#D74D50"></path>
                            <polygon id="Triangle-1" fill="#F9A3A5" points="10.9519732 0 15.5036721 4.5 6.00142146 4.5 "></polygon>
                            <polygon id="Triangle-1" fill="#FCBDBF" transform="translate(18.754442, 2.250000) scale(-1, 1) translate(-18.754442, -2.250000) " points="19.8904027 0 22.005212 4.5 15.5036721 4.5 "></polygon>
                        </g>
                    </g>
                    <g id="Flower-23" transform="translate(0.000000, 127.000000)">
                        <rect id="Rectangle-221" fill="#9AC771" x="10.0023691" y="13" width="2.00047382" height="23"></rect>
                        <path d="M11.002606,19.5107232 L11.002606,23.0857855 L18.1342687,27 L21.5050936,23.0857855 L18.6436731,19 L11.002606,19.5107232 Z" id="Rectangle-221" fill="#96C66A"></path>
                        <path d="M11.002606,23 L18.1342687,27 L21.5050936,23 L11.002606,23 Z" id="Rectangle-222" fill="#8BB465"></path>
                        <g id="Ruby">
                            <path d="M0,4.5 L11.002606,16 L6.50353712,4.5 L0,4.5 Z" id="Path-15" fill="#B63033"></path>
                            <path d="M11.002606,4.5 L22.005212,16 L17.4969632,4.5 L11.002606,4.5 Z" id="Path-15" fill="#D74D50" transform="translate(16.503909, 10.250000) scale(-1, 1) translate(-16.503909, -10.250000) "></path>
                            <path d="M6.00142146,4.5 L10.7525468,16 L15.5036721,4.5 L6.00142146,4.5 Z" id="Path-16" fill="#C53A3D"></path>
                            <polygon id="Triangle-1" fill="#DF7D80" points="4.35249459 0 6.50153992 4.5 0 4.5 "></polygon>
                            <path d="M4.00094764,0 L11.002606,0 L5.99604385,4.5 L4.00094764,0 Z" id="Triangle-1" fill="#C53A3D"></path>
                            <path d="M11.002606,0 L18.0042644,0 L15.9210325,4.5 L11.002606,0 Z" id="Triangle-1" fill="#D74D50"></path>
                            <polygon id="Triangle-1" fill="#F9A3A5" points="10.9519732 0 15.5036721 4.5 6.00142146 4.5 "></polygon>
                            <polygon id="Triangle-1" fill="#FCBDBF" transform="translate(18.754442, 2.250000) scale(-1, 1) translate(-18.754442, -2.250000) " points="19.8904027 0 22.005212 4.5 15.5036721 4.5 "></polygon>
                        </g>
                    </g>
                    <g id="Flower-24" transform="translate(549.630182, 8.500000)">
                        <rect id="Rectangle-221" fill="#9AC771" x="10.0023691" y="13" width="2.00047382" height="23"></rect>
                        <path d="M11.002606,19.5107232 L11.002606,23.0857855 L18.1342687,27 L21.5050936,23.0857855 L18.6436731,19 L11.002606,19.5107232 Z" id="Rectangle-221" fill="#96C66A"></path>
                        <path d="M11.002606,23 L18.1342687,27 L21.5050936,23 L11.002606,23 Z" id="Rectangle-222" fill="#8BB465"></path>
                        <g id="Ruby">
                            <path d="M0,4.5 L11.002606,16 L6.50353712,4.5 L0,4.5 Z" id="Path-15" fill="#B63033"></path>
                            <path d="M11.002606,4.5 L22.005212,16 L17.4969632,4.5 L11.002606,4.5 Z" id="Path-15" fill="#D74D50" transform="translate(16.503909, 10.250000) scale(-1, 1) translate(-16.503909, -10.250000) "></path>
                            <path d="M6.00142146,4.5 L10.7525468,16 L15.5036721,4.5 L6.00142146,4.5 Z" id="Path-16" fill="#C53A3D"></path>
                            <polygon id="Triangle-1" fill="#DF7D80" points="4.35249459 0 6.50153992 4.5 0 4.5 "></polygon>
                            <path d="M4.00094764,0 L11.002606,0 L5.99604385,4.5 L4.00094764,0 Z" id="Triangle-1" fill="#C53A3D"></path>
                            <path d="M11.002606,0 L18.0042644,0 L15.9210325,4.5 L11.002606,0 Z" id="Triangle-1" fill="#D74D50"></path>
                            <polygon id="Triangle-1" fill="#F9A3A5" points="10.9519732 0 15.5036721 4.5 6.00142146 4.5 "></polygon>
                            <polygon id="Triangle-1" fill="#FCBDBF" transform="translate(18.754442, 2.250000) scale(-1, 1) translate(-18.754442, -2.250000) " points="19.8904027 0 22.005212 4.5 15.5036721 4.5 "></polygon>
                        </g>
                    </g>
                    <g id="Flower-25" transform="translate(45.510779, 359.500000)">
                        <rect id="Rectangle-221" fill="#9AC771" x="10.0023691" y="13" width="2.00047382" height="23"></rect>
                        <path d="M11.002606,19.5107232 L11.002606,23.0857855 L18.1342687,27 L21.5050936,23.0857855 L18.6436731,19 L11.002606,19.5107232 Z" id="Rectangle-221" fill="#96C66A"></path>
                        <path d="M11.002606,23 L18.1342687,27 L21.5050936,23 L11.002606,23 Z" id="Rectangle-222" fill="#8BB465"></path>
                        <g id="Ruby">
                            <path d="M0,4.5 L11.002606,16 L6.50353712,4.5 L0,4.5 Z" id="Path-15" fill="#B63033"></path>
                            <path d="M11.002606,4.5 L22.005212,16 L17.4969632,4.5 L11.002606,4.5 Z" id="Path-15" fill="#D74D50" transform="translate(16.503909, 10.250000) scale(-1, 1) translate(-16.503909, -10.250000) "></path>
                            <path d="M6.00142146,4.5 L10.7525468,16 L15.5036721,4.5 L6.00142146,4.5 Z" id="Path-16" fill="#C53A3D"></path>
                            <polygon id="Triangle-1" fill="#DF7D80" points="4.35249459 0 6.50153992 4.5 0 4.5 "></polygon>
                            <path d="M4.00094764,0 L11.002606,0 L5.99604385,4.5 L4.00094764,0 Z" id="Triangle-1" fill="#C53A3D"></path>
                            <path d="M11.002606,0 L18.0042644,0 L15.9210325,4.5 L11.002606,0 Z" id="Triangle-1" fill="#D74D50"></path>
                            <polygon id="Triangle-1" fill="#F9A3A5" points="10.9519732 0 15.5036721 4.5 6.00142146 4.5 "></polygon>
                            <polygon id="Triangle-1" fill="#FCBDBF" transform="translate(18.754442, 2.250000) scale(-1, 1) translate(-18.754442, -2.250000) " points="19.8904027 0 22.005212 4.5 15.5036721 4.5 "></polygon>
                        </g>
                    </g>
                    <g id="Flower-21" transform="translate(256.560768, 237.500000)">
                        <rect id="Rectangle-221" fill="#9AC771" x="10.0023691" y="13" width="2.00047382" height="23"></rect>
                        <path d="M11.002606,19.5107232 L11.002606,23.0857855 L18.1342687,27 L21.5050936,23.0857855 L18.6436731,19 L11.002606,19.5107232 Z" id="Rectangle-221" fill="#96C66A"></path>
                        <path d="M11.002606,23 L18.1342687,27 L21.5050936,23 L11.002606,23 Z" id="Rectangle-222" fill="#8BB465"></path>
                        <g id="Ruby">
                            <path d="M0,4.5 L11.002606,16 L6.50353712,4.5 L0,4.5 Z" id="Path-15" fill="#B63033"></path>
                            <path d="M11.002606,4.5 L22.005212,16 L17.4969632,4.5 L11.002606,4.5 Z" id="Path-15" fill="#D74D50" transform="translate(16.503909, 10.250000) scale(-1, 1) translate(-16.503909, -10.250000) "></path>
                            <path d="M6.00142146,4.5 L10.7525468,16 L15.5036721,4.5 L6.00142146,4.5 Z" id="Path-16" fill="#C53A3D"></path>
                            <polygon id="Triangle-1" fill="#DF7D80" points="4.35249459 0 6.50153992 4.5 0 4.5 "></polygon>
                            <path d="M4.00094764,0 L11.002606,0 L5.99604385,4.5 L4.00094764,0 Z" id="Triangle-1" fill="#C53A3D"></path>
                            <path d="M11.002606,0 L18.0042644,0 L15.9210325,4.5 L11.002606,0 Z" id="Triangle-1" fill="#D74D50"></path>
                            <polygon id="Triangle-1" fill="#F9A3A5" points="10.9519732 0 15.5036721 4.5 6.00142146 4.5 "></polygon>
                            <polygon id="Triangle-1" fill="#FCBDBF" transform="translate(18.754442, 2.250000) scale(-1, 1) translate(-18.754442, -2.250000) " points="19.8904027 0 22.005212 4.5 15.5036721 4.5 "></polygon>
                        </g>
                    </g>
                    <g id="Flower-22" transform="translate(61.014452, 26.500000)">
                        <rect id="Rectangle-221" fill="#9AC771" x="10.0023691" y="13" width="2.00047382" height="23"></rect>
                        <path d="M11.002606,19.5107232 L11.002606,23.0857855 L18.1342687,27 L21.5050936,23.0857855 L18.6436731,19 L11.002606,19.5107232 Z" id="Rectangle-221" fill="#96C66A"></path>
                        <path d="M11.002606,23 L18.1342687,27 L21.5050936,23 L11.002606,23 Z" id="Rectangle-222" fill="#8BB465"></path>
                        <g id="Ruby">
                            <path d="M0,4.5 L11.002606,16 L6.50353712,4.5 L0,4.5 Z" id="Path-15" fill="#B63033"></path>
                            <path d="M11.002606,4.5 L22.005212,16 L17.4969632,4.5 L11.002606,4.5 Z" id="Path-15" fill="#D74D50" transform="translate(16.503909, 10.250000) scale(-1, 1) translate(-16.503909, -10.250000) "></path>
                            <path d="M6.00142146,4.5 L10.7525468,16 L15.5036721,4.5 L6.00142146,4.5 Z" id="Path-16" fill="#C53A3D"></path>
                            <polygon id="Triangle-1" fill="#DF7D80" points="4.35249459 0 6.50153992 4.5 0 4.5 "></polygon>
                            <path d="M4.00094764,0 L11.002606,0 L5.99604385,4.5 L4.00094764,0 Z" id="Triangle-1" fill="#C53A3D"></path>
                            <path d="M11.002606,0 L18.0042644,0 L15.9210325,4.5 L11.002606,0 Z" id="Triangle-1" fill="#D74D50"></path>
                            <polygon id="Triangle-1" fill="#F9A3A5" points="10.9519732 0 15.5036721 4.5 6.00142146 4.5 "></polygon>
                            <polygon id="Triangle-1" fill="#FCBDBF" transform="translate(18.754442, 2.250000) scale(-1, 1) translate(-18.754442, -2.250000) " points="19.8904027 0 22.005212 4.5 15.5036721 4.5 "></polygon>
                        </g>
                    </g>
                </g>
                <g id="tree-6" transform="translate(233.083629, 663.500000)" sketch:type="MSShapeGroup">
                    <path d="M14.7693384,129 L0,182 L134.031746,182 L119.262408,129 L14.7693384,129 Z" id="Rectangle-9" fill="#5EA034"></path>
                    <path d="M14.8001594,129 L0,182 L72.0170576,182 L14.8001594,129 Z" id="Rectangle-25" fill="#538534"></path>
                    <path d="M14.8001594,129 L0,182 L36.0085288,149.642396 L14.8001594,129 Z" id="Rectangle-31" fill="#528134"></path>
                    <path d="M15.0035537,129 L72.0170576,134.640911 L72.0170576,182 L15.0035537,129 Z" id="Rectangle-26" fill="#558C33"></path>
                    <path d="M36.0085288,149.169994 L72.0170576,135 L72.0170576,182 L36.0085288,149.169994 Z" id="Rectangle-32" fill="#5C923A"></path>
                    <path d="M121.028666,135 L72.0170576,135 L72.0170576,182 L121.028666,135 Z" id="Rectangle-27" fill="#589631"></path>
                    <path d="M96.5228619,135 L72.0170576,135 L72.0170576,182 L96.5228619,135 Z" id="Rectangle-30" fill="#548E30"></path>
                    <path d="M27.2884274,81.5 L7.00165837,134.5 L127.030088,134.5 L106.743319,81.5 L27.2884274,81.5 Z" id="Rectangle-6" fill="#74AC50"></path>
                    <path d="M95.0225065,134.5 L126.529969,134.5 L106.321036,81.5 L95.0225065,134.5 Z" id="Rectangle-29" fill="#77B252"></path>
                    <path d="M27.3457905,81.5 L7.00165837,134.5 L107.025349,81.5 L27.3457905,81.5 Z" id="Rectangle-19" fill="#6FA24F"></path>
                    <path d="M70.5667663,134.5 L7.00165837,134.5 L107.025349,81.5 L70.5667663,134.5 Z" id="Rectangle-24" fill="#70A64E"></path>
                    <path d="M39.7014145,38.5 L14.0033167,91.5 L119.528311,91.5 L93.8302131,38.5 L39.7014145,38.5 Z" id="Rectangle-7" fill="#73B34C"></path>
                    <path d="M49.5117271,91.5 L119.528311,91.5 L93.7648171,38.5 L49.5117271,91.5 Z" id="Rectangle-16" fill="#75B64C"></path>
                    <path d="M49.5117271,91.5 L119.528311,91.5 L106.474932,65 L49.5117271,91.5 Z" id="Rectangle-28" fill="#75BB4A"></path>
                    <path d="M49.5117271,91.5 L56.0313961,53.0957031 L93.5221511,38.5 L49.5117271,91.5 Z" id="Rectangle-17" fill="#6FB046"></path>
                    <path d="M18.0042644,52.5 L117.027719,52.5 L67.5159915,0 L18.0042644,52.5 Z" id="Rectangle-8" fill="#80C256"></path>
                    <path d="M18.0042644,52.5 L67.015873,26.25 L67.015873,0 L18.0042644,52.5 Z" id="Rectangle-10" fill="#79BE4E"></path>
                    <path d="M115.527363,51.5 L67.015873,26.2019954 L67.015873,0 L115.527363,51.5 Z" id="Rectangle-11" fill="#88C363"></path>
                    <path d="M115.027245,52 L66.3696711,26 L56.013267,52 L115.027245,52 Z" id="Rectangle-15" fill="#84CB57"></path>
                    <rect id="Rectangle-13" fill="#A3856A" x="49.0116086" y="181.5" width="35.0082919" height="49"></rect>
                    <path d="M49.0116086,181.5 L49.0116086,196.877564 L84.0199005,218.5 L84.0199005,181.5 L49.0116086,181.5 Z" id="Rectangle-14" fill="#94765B"></path>
                </g>
                <g id="tree-16" transform="translate(301.099739, 672.500000)" sketch:type="MSShapeGroup">
                    <path d="M16.4226226,143.5 L0,202 L149.0353,202 L132.612677,143.5 L16.4226226,143.5 Z" id="Rectangle-9" fill="#5EA034"></path>
                    <path d="M16.5474004,143.5 L0,202 L80.5190713,202 L16.5474004,143.5 Z" id="Rectangle-25" fill="#538534"></path>
                    <path d="M16.4446215,143.5 L0,202 L40.0094764,166.284531 L16.4446215,143.5 Z" id="Rectangle-31" fill="#528134"></path>
                    <path d="M16.503909,143.5 L80.0189529,149.726289 L80.0189529,202 L16.503909,143.5 Z" id="Rectangle-26" fill="#558C33"></path>
                    <path d="M40.0094764,165.828185 L80.0189529,150 L80.0189529,202.5 L40.0094764,165.828185 Z" id="Rectangle-32" fill="#5C923A"></path>
                    <path d="M135.031983,150 L80.5190713,150 L80.5190713,202.5 L135.031983,150 Z" id="Rectangle-27" fill="#589631"></path>
                    <path d="M108.025586,150 L80.5190713,150 L80.5190713,202.5 L108.025586,150 Z" id="Rectangle-30" fill="#548E30"></path>
                    <path d="M30.5709258,90.5 L8.00189529,149 L141.533523,149 L118.964492,90.5 L30.5709258,90.5 Z" id="Rectangle-6" fill="#74AC50"></path>
                    <path d="M105.524994,149 L140.533286,149 L118.078915,90.5 L105.524994,149 Z" id="Rectangle-29" fill="#77B252"></path>
                    <path d="M30.583882,90.5 L8.00189529,149 L119.028192,90.5 L30.583882,90.5 Z" id="Rectangle-19" fill="#6FA24F"></path>
                    <path d="M78.5591651,149 L8.00189529,149 L119.028192,90.5 L78.5591651,149 Z" id="Rectangle-24" fill="#70A64E"></path>
                    <path d="M44.1247762,43 L15.5036721,101.5 L133.031509,101.5 L104.410405,43 L44.1247762,43 Z" id="Rectangle-7" fill="#73B34C"></path>
                    <path d="M55.0130301,101.5 L133.031509,101.5 L104.323616,43 L55.0130301,101.5 Z" id="Rectangle-16" fill="#75B64C"></path>
                    <path d="M55.0130301,101.5 L133.031509,101.5 L118.486315,72 L55.0130301,101.5 Z" id="Rectangle-28" fill="#75BB4A"></path>
                    <path d="M55.0130301,101.5 L62.2735706,59.1103516 L104.024639,43 L55.0130301,101.5 Z" id="Rectangle-17" fill="#6FB046"></path>
                    <path d="M19.5046198,58 L129.53068,58 L74.5176498,0 L19.5046198,58 Z" id="Rectangle-8" fill="#80C256"></path>
                    <path d="M19.5046198,58 L74.0175314,29 L74.0175314,0 L19.5046198,58 Z" id="Rectangle-10" fill="#79BE4E"></path>
                    <path d="M129.030561,57.5 L75.0177683,29.2546551 L75.0177683,0 L129.030561,57.5 Z" id="Rectangle-11" fill="#88C363"></path>
                    <path d="M128.530443,58 L74.0999369,29 L62.5148069,58 L128.530443,58 Z" id="Rectangle-15" fill="#84CB57"></path>
                    <rect id="Rectangle-13" fill="#A3856A" x="54.5129116" y="201.5" width="39.0092395" height="54.5"></rect>
                    <path d="M54.5129116,201.5 L54.5129116,218.540003 L93.5221511,242.5 L93.5221511,201.5 L54.5129116,201.5 Z" id="Rectangle-14" fill="#94765B"></path>
                </g>
                <g id="tree" transform="translate(1479.878939, 732.000000)" sketch:type="MSShapeGroup">
                    <path d="M20.9415992,183 L0,258 L190.045013,258 L169.103414,183 L20.9415992,183 Z" id="Rectangle-9" fill="#5EA034"></path>
                    <path d="M20.9668925,183 L0,258 L102.024165,258 L20.9668925,183 Z" id="Rectangle-25" fill="#538534"></path>
                    <path d="M20.9668925,183 L0,258 L51.0120824,212.210938 L20.9668925,183 Z" id="Rectangle-31" fill="#528134"></path>
                    <path d="M21.0049751,183 L102.024165,190.982422 L102.024165,258 L21.0049751,183 Z" id="Rectangle-26" fill="#558C33"></path>
                    <path d="M51.0120824,211.199779 L102.024165,191 L102.024165,258 L51.0120824,211.199779 Z" id="Rectangle-32" fill="#5C923A"></path>
                    <path d="M171.040512,191 L102.024165,191 L102.024165,258 L171.040512,191 Z" id="Rectangle-27" fill="#589631"></path>
                    <path d="M136.532338,191 L102.024165,191 L102.024165,258 L136.532338,191 Z" id="Rectangle-30" fill="#548E30"></path>
                    <path d="M38.7419586,115 L10.0023691,190 L180.042644,190 L151.303054,115 L38.7419586,115 Z" id="Rectangle-6" fill="#74AC50"></path>
                    <path d="M135.031983,190 L180.042644,190 L151.172739,115 L135.031983,190 Z" id="Rectangle-29" fill="#77B252"></path>
                    <path d="M38.7893161,115 L10.0023691,190 L151.535892,115 L38.7893161,115 Z" id="Rectangle-19" fill="#6FA24F"></path>
                    <path d="M99.9469968,190 L10.0023691,190 L151.535892,115 L99.9469968,190 Z" id="Rectangle-24" fill="#70A64E"></path>
                    <path d="M56.5423179,54.5 L20.0047382,129.5 L170.040275,129.5 L133.502695,54.5 L56.5423179,54.5 Z" id="Rectangle-7" fill="#73B34C"></path>
                    <path d="M70.5167022,129.5 L170.040275,129.5 L133.419309,54.5 L70.5167022,129.5 Z" id="Rectangle-16" fill="#75B64C"></path>
                    <path d="M70.5167022,129.5 L170.040275,129.5 L151.485829,92 L70.5167022,129.5 Z" id="Rectangle-28" fill="#75BB4A"></path>
                    <path d="M70.5167022,129.5 L79.7775958,75.1542969 L133.031509,54.5 L70.5167022,129.5 Z" id="Rectangle-17" fill="#6FB046"></path>
                    <path d="M25.0059228,74.5 L165.03909,74.5 L95.0225065,0 L25.0059228,74.5 Z" id="Rectangle-8" fill="#80C256"></path>
                    <path d="M25.0059228,74.5 L95.0225065,37.25 L95.0225065,0 L25.0059228,74.5 Z" id="Rectangle-10" fill="#79BE4E"></path>
                    <path d="M163.538735,73 L95.0225065,37.1406925 L95.0225065,0 L163.538735,73 Z" id="Rectangle-11" fill="#88C363"></path>
                    <path d="M164.038853,74.5 L94.7636637,37.5 L80.0189529,74.5 L164.038853,74.5 Z" id="Rectangle-15" fill="#84CB57"></path>
                    <rect id="Rectangle-13" fill="#A3856A" x="70.0165837" y="258" width="50.0118455" height="70"></rect>
                    <path d="M70.0165837,258 L70.0165837,279.611711 L120.028429,310 L120.028429,258 L70.0165837,258 Z" id="Rectangle-14" fill="#94765B"></path>
                </g>
                <g id="Flag" transform="translate(963.756693, 0.000000)">
                    <rect id="Rectangle-277" fill="#939393" sketch:type="MSShapeGroup" x="0.500118455" y="1" width="9.0021322" height="169"></rect>
                    <path d="M0.500118455,1 L0.500118455,100 L9.50225065,115 L9.50225065,1 L0.500118455,1 Z" id="Rectangle-285" fill="#6E6E6E" sketch:type="MSShapeGroup"></path>
                    <path d="M-2.27373675e-13,1.52049585e-15 L-2.27373675e-13,69.5 L125.029614,69.5 L101.247934,34.7499993 L125.029614,1.52049585e-15 L-2.27373675e-13,1.52049585e-15 Z" id="Rectangle-279" fill="#5B6C7B" sketch:type="MSShapeGroup"></path>
                    <path d="M-2.27373675e-13,1.52049585e-15 L-2.27373675e-13,69.5 L125.54409,69.5 L-2.27373675e-13,1.52049585e-15 Z" id="Rectangle-281" fill="#5F7284" sketch:type="MSShapeGroup"></path>
                    <path d="M-2.27373675e-13,1.52049585e-15 L43.1234952,1.52049582e-15 L62.5148069,69.5 L-2.27373675e-13,1.52049585e-15 Z" id="Rectangle-282" fill="#596C7E" sketch:type="MSShapeGroup"></path>
                    <path d="M101.00382,34.75 L123.02914,1.52049582e-15 L43.0101872,1.52049582e-15 L62.3882521,69.5 L101.00382,34.75 Z" id="Rectangle-283" fill="#61788D" sketch:type="MSShapeGroup"></path>
                    <path d="M101.004786,35 L125.029614,1.53143464e-15 L43.0101872,1.53143464e-15 L101.004786,35 Z" id="Rectangle-288" fill="#6D8499" sketch:type="MSShapeGroup"></path>
                    <path d="M101.28317,34 L126.029851,69 L62.5148069,69 L101.28317,34 Z" id="Rectangle-284" fill="#5A7187" sketch:type="MSShapeGroup"></path>
                    <path d="M-2.27373675e-13,1.52049585e-15 L-2.27373675e-13,69.5 L10.5024876,69.5 L10.5024841,1.52049579e-15 L-2.27373675e-13,1.52049585e-15 Z" id="Rectangle-280" fill="#2B3A48" sketch:type="MSShapeGroup"></path>
                    <g id="Rectangle-123">
                        <use stroke="#FFFFFF" stroke-width="1" sketch:type="MSShapeGroup" xlink:href="#path-1"></use>
                        <use stroke="none" xlink:href="#path-1"></use>
                    </g>
                    <g id="Path-1057">
                        <use fill="#FFFFFF" fill-rule="evenodd" sketch:type="MSShapeGroup" xlink:href="#path-2"></use>
                        <use fill="none" xlink:href="#path-2"></use>
                    </g>
                    <g id="Path-1056">
                        <use fill="#FFFFFF" fill-rule="evenodd" sketch:type="MSShapeGroup" xlink:href="#path-3"></use>
                        <use fill="none" xlink:href="#path-3"></use>
                    </g>
                    <g id="Ruby" transform="translate(46.511016, 23.500000)" sketch:type="MSShapeGroup">
                        <path d="M0,3.5 L8.50201374,12.5 L5.14289506,3.5 L0,3.5 Z" id="Path-15" fill="#B63033"></path>
                        <path d="M8.00402748,3.5 L16.8660957,12.3354492 L13.3678351,3.5 L8.00402748,3.5 Z" id="Path-15" fill="#D74D50" transform="translate(12.504027, 8.000000) scale(-1, 1) translate(-12.504027, -8.000000) "></path>
                        <path d="M4.5010661,3.5 L8.25195451,12.5 L12.0028429,3.5 L4.5010661,3.5 Z" id="Path-16" fill="#C53A3D"></path>
                        <polygon id="Triangle-1" fill="#DF7D80" points="3.06762111 0 5.00118455 3.5 0 3.5 "></polygon>
                        <path d="M3.00071073,0 L8.50201374,0 L4.56828632,3.5 L3.00071073,0 Z" id="Triangle-1" fill="#C53A3D"></path>
                        <path d="M8.00189529,0 L14.0033167,0 L12.2451138,3.5 L8.00189529,0 Z" id="Triangle-1" fill="#D74D50"></path>
                        <polygon id="Triangle-1" fill="#F9A3A5" points="8.4093964 0 12.5029614 3.5 4.5010661 3.5 "></polygon>
                        <polygon id="Triangle-1" fill="#FCBDBF" transform="translate(14.503435, 1.750000) scale(-1, 1) translate(-14.503435, -1.750000) " points="14.8771326 0 17.0040275 3.5 12.0028429 3.5 "></polygon>
                    </g>
                </g>
            </g>
        </g>
    </g>
</svg>