<?xml version="1.0" encoding="UTF-8" standalone="no"?>
<svg width="1909px" height="1014px" viewBox="0 0 1909 1014" version="1.1" xmlns="http://www.w3.org/2000/svg" xmlns:xlink="http://www.w3.org/1999/xlink" xmlns:sketch="http://www.bohemiancoding.com/sketch/ns">
    <!-- Generator: Sketch 3.0.1 (7597) - http://www.bohemiancoding.com/sketch -->
    <title>Foreground</title>
    <description>Created with Sketch.</description>
    <defs>
        <path id="path-1" d="M51.648839,12.435509 L51.648839,14.6652944 L50.4441584,14.6652944 L50.4441584,12.435509 L46.5505923,12.435509 L46.5505927,14.6652944 L45.3443612,14.6652944 L45.3443612,12.435509 L41.3281132,12.435509 L41.3281132,14.6652944 L40.1240602,14.6652944 L40.1240602,12.435509 L36.8714222,12.435509 C36.8714222,12.435509 30.8480187,34.4049083 45.7860776,34.4049083 C60.7241364,34.4049083 54.8613209,12.435509 54.8613209,12.435509 L51.648839,12.435509 Z"></path>
        <path id="path-2" d="M46.0404364,44.3533155 L45.210879,44.3533155 L45.210879,34.4049083 L46.0404364,34.4049083 L46.0404364,44.3533155 Z"></path>
        <path id="path-3" d="M37.3300836,44.3533155 L37.3300836,45.1823494 L55.1655674,45.1823494 L55.165568,44.3533155 L37.3300836,44.3533155 Z"></path>
    </defs>
    <g id="Page-1" stroke="none" stroke-width="1" fill="none" fill-rule="evenodd" sketch:type="MSPage">
        <g id="Artboard-1" sketch:type="MSArtboardGroup" transform="translate(-1756.000000, -1698.000000)">
            <g id="Foreground" sketch:type="MSLayerGroup" transform="translate(1756.000000, 1698.000000)">
                <g id="Flag" transform="translate(962.500523, 0.248504)">
                    <rect id="Rectangle-277" fill="#939393" sketch:type="MSShapeGroup" x="0.414778706" y="0.829033935" width="7.46601672" height="140.106735"></rect>
                    <path d="M0.414778706,0.829033935 L0.414778706,82.9033935 L7.88079542,95.3389025 L7.88079542,0.829033935 L0.414778706,0.829033935 Z" id="Rectangle-285" fill="#6E6E6E" sketch:type="MSShapeGroup"></path>
                    <path d="M-2.27373675e-13,-8.40045856e-14 L-2.27373675e-13,57.6178585 L103.694677,57.6178585 L83.9710808,28.8089286 L103.694677,-8.40045856e-14 L-2.27373675e-13,-8.40045856e-14 Z" id="Rectangle-279" fill="#5B6C7B" sketch:type="MSShapeGroup"></path>
                    <path d="M-2.27373675e-13,-8.40045856e-14 L-2.27373675e-13,57.6178585 L104.121363,57.6178585 L-2.27373675e-13,-8.40045856e-14 Z" id="Rectangle-281" fill="#5F7284" sketch:type="MSShapeGroup"></path>
                    <path d="M-2.27373675e-13,-8.40045856e-14 L35.7649421,-8.40045857e-14 L51.8473383,57.6178585 L-2.27373675e-13,-8.40045856e-14 Z" id="Rectangle-282" fill="#596C7E" sketch:type="MSShapeGroup"></path>
                    <path d="M83.7686217,28.8089292 L102.035562,-8.40045857e-14 L35.6709688,-8.40045857e-14 L51.7423787,57.6178585 L83.7686217,28.8089292 Z" id="Rectangle-283" fill="#61788D" sketch:type="MSShapeGroup"></path>
                    <path d="M83.7694231,29.0161877 L103.694677,-8.3995517e-14 L35.6709688,-8.3995517e-14 L83.7694231,29.0161877 Z" id="Rectangle-288" fill="#6D8499" sketch:type="MSShapeGroup"></path>
                    <path d="M84.0003037,28.1871538 L104.524234,57.2033415 L51.8473383,57.2033415 L84.0003037,28.1871538 Z" id="Rectangle-284" fill="#5A7187" sketch:type="MSShapeGroup"></path>
                    <path d="M-2.27373675e-13,-8.40045856e-14 L-2.27373675e-13,57.6178585 L8.71035284,57.6178585 L8.71034993,-8.40045857e-14 L-2.27373675e-13,-8.40045856e-14 Z" id="Rectangle-280" fill="#2B3A48" sketch:type="MSShapeGroup"></path>
                    <g id="Rectangle-123">
                        <use stroke="#FFFFFF" stroke-width="1" sketch:type="MSShapeGroup" xlink:href="#path-1"></use>
                        <use stroke="none" xlink:href="#path-1"></use>
                    </g>
                    <g id="Path-1057">
                        <use fill="#FFFFFF" fill-rule="evenodd" sketch:type="MSShapeGroup" xlink:href="#path-2"></use>
                        <use fill="none" xlink:href="#path-2"></use>
                    </g>
                    <g id="Path-1056">
                        <use fill="#FFFFFF" fill-rule="evenodd" sketch:type="MSShapeGroup" xlink:href="#path-3"></use>
                        <use fill="none" xlink:href="#path-3"></use>
                    </g>
                    <g id="Ruby" transform="translate(38.574420, 19.482297)" sketch:type="MSShapeGroup">
                        <path d="M0,2.90161877 L7.05123801,10.3629242 L4.26531622,2.90161877 L0,2.90161877 Z" id="Path-15" fill="#B63033"></path>
                        <path d="M6.63822766,2.90161877 L13.9880808,10.226506 L11.0867601,2.90161877 L6.63822766,2.90161877 Z" id="Path-15" fill="#D74D50" transform="translate(10.370352, 6.632271) scale(-1, 1) translate(-10.370352, -6.632271) "></path>
                        <path d="M3.73300836,2.90161877 L6.84384866,10.3629242 L9.95468896,2.90161877 L3.73300836,2.90161877 Z" id="Path-16" fill="#C53A3D"></path>
                        <polygon id="Triangle-1" fill="#DF7D80" points="2.54416509 0 4.14778706 2.90161877 0 2.90161877 "></polygon>
                        <path d="M2.48867224,0 L7.05123801,0 L3.78875818,2.90161877 L2.48867224,0 Z" id="Triangle-1" fill="#C53A3D"></path>
                        <path d="M6.6364593,0 L11.6138038,0 L10.155619,2.90161877 L6.6364593,0 Z" id="Triangle-1" fill="#D74D50"></path>
                        <polygon id="Triangle-1" fill="#F9A3A5" points="6.97442481 0 10.3694677 2.90161877 3.73300836 2.90161877 "></polygon>
                        <polygon id="Triangle-1" fill="#FCBDBF" transform="translate(12.028582, 1.450809) scale(-1, 1) translate(-12.028582, -1.450809) " points="12.3385125 0 14.102476 2.90161877 9.95468896 2.90161877 "></polygon>
                    </g>
                </g>
                <g id="castle" transform="translate(620.523667, 120.269296)" sketch:type="MSShapeGroup">
                    <g id="big-tower" transform="translate(233.406320, 0.000000)">
                        <rect id="Rectangle-49" fill="#BFBFBF" x="11.3856742" y="53.2350755" width="207.381922" height="108.502024"></rect>
                        <path d="M11.3856742,86.9641691 L11.3856742,162.143474 L43.5095405,162.143474 L11.3856742,86.9641691 Z" id="Rectangle-36" fill="#9D9D9D"></path>
                        <path d="M11.3856742,86.9641691 L70.5776715,117.946633 L74.006882,162.143474 L43.4916678,162.143474 L11.3856742,86.9641691 Z" id="Rectangle-37" fill="#A0A0A0"></path>
                        <path d="M11.3856742,86.9622704 L70.7538323,118.255015 L34.149253,53.2350755 L11.3856742,53.2350755 L11.3856742,86.9622704 Z" id="Rectangle-38" fill="#9C9C9C"></path>
                        <path d="M86.9497746,53.2350755 L121.989366,137.354622 L70.853676,117.738411 L34.1570225,53.2350755 L86.9497746,53.2350755 Z" id="Rectangle-50" fill="#B6B6B6"></path>
                        <path d="M86.2058186,53.2350755 L70.7346054,118.255015 L34.1570225,53.2350755 L86.2058186,53.2350755 Z" id="Rectangle-39" fill="#ACACAC"></path>
                        <path d="M169.176949,53.2350755 L153.706601,118.255015 L218.767596,53.2350755 L169.176949,53.2350755 Z" id="Rectangle-40" fill="#D6D6D6"></path>
                        <path d="M169.565219,53.2350755 L154.023614,118.255015 L85.7991874,53.2350755 L169.565219,53.2350755 Z" id="Rectangle-52" fill="#C7C7C7"></path>
                        <path d="M153.706601,117.790183 L219.174228,52.4223262 L219.174228,162.143474 L153.706601,117.790183 Z" id="Rectangle-42" fill="#E1E1E1"></path>
                        <path d="M153.706601,117.782028 L184.107555,87.3705437 L219.174228,162.143474 L153.706601,117.782028 Z" id="Rectangle-43" fill="#D3D3D3"></path>
                        <rect id="Rectangle-65" fill="#686868" x="11.3856742" y="53.2350755" width="207.381922" height="108.502024"></rect>
                        <path d="M11.3856742,45.107583 L11.3856742,162.143474 L84.985925,162.143474 L11.3856742,45.107583 Z" id="Rectangle-54" fill="#696666"></path>
                        <path d="M11.3856742,45.107583 L69.2448125,45.107583 L84.985925,162.143474 L11.3856742,45.107583 Z" id="Rectangle-66" fill="#6F6F6F"></path>
                        <path d="M156.959651,162.143474 L110.521529,45.107583 L69.1273074,45.107583 L84.8550192,162.143474 L156.959651,162.143474 Z" id="Rectangle-67" fill="#797979"></path>
                        <path d="M157.209588,162.143474 L110.603692,45.107583 L223.647171,45.107583 L157.209588,162.143474 Z" id="Rectangle-68" fill="#848484"></path>
                        <path d="M155.739757,162.143474 L219.174228,52.4223262 L219.174228,162.143474 L155.739757,162.143474 Z" id="Rectangle-63" fill="#909090"></path>
                        <path d="M227.306852,1.62549849 L200.387817,1.62549849 L200.387817,11.8392727 L190.710042,36.511699 L192.508364,53.6414501 L227.306852,53.6414501 L227.306852,11.8392727 L227.306852,1.62549849 Z" id="Rectangle-44" fill="#7F7F7F"></path>
                        <path d="M37.7910323,12.1615539 L26.916358,12.1615541 L26.916358,1.62549849 L0,1.62549849 L0,12.1615541 L0,53.6414501 L61.8079454,53.6414501 L37.7910323,12.1615539 Z" id="Rectangle-45" fill="#565656"></path>
                        <path d="M58.3643677,53.6414501 L34.5636537,12.1912387 L86.6755925,12.1912387 L132.561778,53.6414501 L58.3643677,53.6414501 Z" id="Rectangle-46" fill="#626262"></path>
                        <path d="M71.5670947,12.6725337 L71.5670947,0 L150.502845,0 L150.502846,12.6725337 L182.170787,53.6414501 L102.729806,53.6414501 L71.5670947,12.6725337 Z" id="Rectangle-47" fill="#6F6F6F"></path>
                        <path d="M71.5670947,12.6725337 L71.5670947,0 L114.910949,0 L114.910951,12.6725337 L136.62809,53.6414501 L102.52741,53.6414501 L71.5670947,12.6725337 Z" id="Rectangle-53" fill="#6B6A6A"></path>
                        <path d="M200.280904,12.1912387 L150.04692,12.1912387 L158.189634,53.6414501 L211.854866,53.6414501 L200.280904,12.1912387 Z" id="Rectangle-48" fill="#767676"></path>
                    </g>
                    <g id="tower" transform="translate(17.485142, 1.625498)">
                        <rect id="Rectangle-21" fill="#777777" x="8.1326244" y="51.609577" width="124.429153" height="108.502024"></rect>
                        <path d="M8.1326244,49.5777039 L8.1326244,160.517976 L71.9737259,160.517976 L8.1326244,49.5777039 Z" id="Rectangle-12" fill="#6D6D6D"></path>
                        <path d="M69.9405698,160.517976 L88.3855617,50.7968278 L132.968409,50.7968278 L132.968409,160.517976 L69.9405698,160.517976 Z" id="Rectangle-18" fill="#7F7F7F"></path>
                        <path d="M141.101033,0 L120.312431,0 L120.312431,10.2137742 L115.734551,34.8862005 L106.130748,52.0159516 L141.101033,52.0159516 L141.101033,10.2137742 L141.101033,0 Z" id="Rectangle-8" fill="#828282"></path>
                        <path d="M20.6731312,10.5360556 L20.6731312,-1.47366194e-15 L0,-1.47366194e-15 L0,10.5360556 L0,52.0159516 L61.8079454,52.0159516 L20.6731312,10.5360556 Z" id="Rectangle-20" fill="#565656"></path>
                        <path d="M44.5448916,52.0159516 L20.7381922,10.5657402 L50.8961886,10.5657402 L95.9649679,52.0159516 L44.5448916,52.0159516 Z" id="Rectangle-22" fill="#626262"></path>
                        <path d="M50.01564,10.1921106 L50.01564,0 L91.5784785,0 L91.5784785,10.1921106 L119.95621,52.0159516 L91.5784785,52.0159516 L50.01564,10.1921106 Z" id="Rectangle-23" fill="#6B6A6A"></path>
                        <path d="M120.03311,10.5657402 L90.2721308,10.5657402 L115.483266,52.0159516 L140.694402,52.0159516 L120.03311,10.5657402 Z" id="Rectangle-9" fill="#747474"></path>
                    </g>
                    <g id="tower" transform="translate(535.939948, 1.625498)">
                        <rect id="Rectangle-21" fill="#777777" x="8.1326244" y="51.609577" width="124.429153" height="108.502024"></rect>
                        <path d="M8.1326244,49.5777039 L8.1326244,160.517976 L71.9737259,160.517976 L8.1326244,49.5777039 Z" id="Rectangle-12" fill="#6D6D6D"></path>
                        <path d="M69.9405698,160.517976 L88.3855617,50.7968278 L132.968409,50.7968278 L132.968409,160.517976 L69.9405698,160.517976 Z" id="Rectangle-18" fill="#7F7F7F"></path>
                        <path d="M141.101033,0 L120.312431,0 L120.312431,10.2137742 L115.734551,34.8862005 L106.130748,52.0159516 L141.101033,52.0159516 L141.101033,10.2137742 L141.101033,0 Z" id="Rectangle-8" fill="#828282"></path>
                        <path d="M20.6731312,10.5360556 L20.6731312,-1.47366194e-15 L0,-1.47366194e-15 L0,10.5360556 L0,52.0159516 L61.8079454,52.0159516 L20.6731312,10.5360556 Z" id="Rectangle-20" fill="#565656"></path>
                        <path d="M44.5448916,52.0159516 L20.7381922,10.5657402 L50.8961886,10.5657402 L95.9649679,52.0159516 L44.5448916,52.0159516 Z" id="Rectangle-22" fill="#626262"></path>
                        <path d="M50.01564,10.1921106 L50.01564,0 L91.5784785,0 L91.5784785,10.1921106 L119.95621,52.0159516 L91.5784785,52.0159516 L50.01564,10.1921106 Z" id="Rectangle-23" fill="#6B6A6A"></path>
                        <path d="M120.03311,10.5657402 L90.2721308,10.5657402 L115.483266,52.0159516 L140.694402,52.0159516 L120.03311,10.5657402 Z" id="Rectangle-9" fill="#747474"></path>
                    </g>
                    <g id="wall" transform="translate(0.000000, 121.506012)">
                        <rect id="Rectangle-79" fill="#E1E1E1" x="16.67188" y="36.9800906" width="650.609952" height="327.131571"></rect>
                        <path d="M16.67188,36.9800906 L16.67188,364.111661 L273.25618,364.111661 L16.67188,36.9800906 Z" id="Rectangle-88" fill="#C4C4C4"></path>
                        <path d="M234.60084,318.191329 L95.5583367,364.111661 L273.25618,364.111661 L234.60084,318.191329 Z" id="Rectangle-107" fill="#B8B8B8"></path>
                        <path d="M182.656685,249.107643 L95.5583367,364.111661 L237.472632,321.869911 L182.656685,249.107643 Z" id="Rectangle-128" fill="#C3C3C3"></path>
                        <path d="M182.577418,249.20655 L95.5583367,364.111661 L144.138353,199.936314 L182.577418,249.20655 Z" id="Rectangle-108" fill="#BFBFBF"></path>
                        <path d="M16.67188,36.9800906 L16.67188,364.111661 L145.167345,200.545876 L16.67188,36.9800906 Z" id="Rectangle-102" fill="#C1C1C1"></path>
                        <path d="M16.67188,36.9800906 L16.67188,247.07577 L99.2180177,142.02793 L16.67188,36.9800906 Z" id="Rectangle-106" fill="#BBBBBB"></path>
                        <path d="M16.67188,36.9800906 L223.19033,36.9800906 L273.25618,364.111661 L16.67188,36.9800906 Z" id="Rectangle-89" fill="#CCCBCB"></path>
                        <path d="M16.67188,36.9800906 L223.24054,36.9800906 L99.0045345,142.637492 L16.67188,36.9800906 Z" id="Rectangle-111" fill="#C5C5C5"></path>
                        <path d="M144.760714,200.545876 L223.517869,36.9800906 L273.662811,364.111661 L144.760714,200.545876 Z" id="Rectangle-105" fill="#D1D1D1"></path>
                        <path d="M144.354083,200.474555 L243.165469,175.147462 L182.431264,249.107643 L144.354083,200.474555 Z" id="Rectangle-109" fill="#CCCCCC"></path>
                        <path d="M267.563343,361.267039 L243.520717,175.147462 L182.577418,249.296752 L267.563343,361.267039 Z" id="Rectangle-110" fill="#D1D1D1"></path>
                        <path d="M452.173917,364.111661 L277.022914,36.9800906 L223.24054,36.9800906 L273.295486,364.111661 L452.173917,364.111661 Z" id="Rectangle-90" fill="#D4D4D4"></path>
                        <path d="M304.160152,90.1992921 L223.24054,36.9800906 L273.306296,364.111661 L304.160152,90.1992921 Z" id="Rectangle-112" fill="#CFCFCF"></path>
                        <path d="M304.296796,90.2151661 L334.657494,147.172323 L290.334691,215.37855 L304.296796,90.2151661 Z" id="Rectangle-113" fill="#CCCCCC"></path>
                        <path d="M304.160152,90.2151661 L334.498264,147.107613 L419.236788,90.2151661 L304.160152,90.2151661 Z" id="Rectangle-115" fill="#D3D2D2"></path>
                        <path d="M304.160152,90.2151661 L243.978732,175.487249 L290.211511,215.37855 L304.160152,90.2151661 Z" id="Rectangle-114" fill="#D3D3D3"></path>
                        <path d="M451.767285,364.111661 L274.882705,36.9800906 L413.898608,36.9800906 L451.767285,364.111661 Z" id="Rectangle-91" fill="#DFDFDF"></path>
                        <path d="M451.767285,364.111661 L415.983738,300.271277 L430.884688,184.900453 L451.767285,364.111661 Z" id="Rectangle-118" fill="#DBDBDB"></path>
                        <path d="M334.679842,147.513988 L274.882705,36.9800906 L413.950582,36.9800906 L334.679842,147.513988 Z" id="Rectangle-116" fill="#DCDBDB"></path>
                        <path d="M334.657494,147.55196 L430.622462,185.713202 L413.8619,36.9800906 L334.657494,147.55196 Z" id="Rectangle-117" fill="#E5E4E4"></path>
                        <path d="M451.767285,364.111661 L540.819522,234.048628 L533.564669,174.334713 L451.767285,364.111661 Z" id="Rectangle-92" fill="#EAEAEA"></path>
                        <path d="M451.85474,364.111661 L518.454805,90.8533012 L412.730688,36.9800906 L451.85474,364.111661 Z" id="Rectangle-119" fill="#E5E4E4"></path>
                        <path d="M431.0077,186.932326 L518.454805,90.9201096 L412.730688,36.9800906 L431.0077,186.932326 Z" id="Rectangle-121" fill="#EAEAEA"></path>
                        <path d="M431.029093,187.01277 L518.454805,91.0279153 L484.675787,230.820785 L431.029093,187.01277 Z" id="Rectangle-122" fill="#E1E1E1"></path>
                        <path d="M451.767285,364.111661 L518.329018,91.0279153 L531.873636,184.370897 L451.767285,364.111661 Z" id="Rectangle-120" fill="#E4E4E4"></path>
                        <path d="M540.062925,232.446284 L669.721619,36.9800906 L516.421649,89.531053 L540.062925,232.446284 Z" id="Rectangle-103" fill="#F7F7F7"></path>
                        <path d="M540.055201,231.633535 L573.756651,89.4024168 L516.421649,89.4024168 L540.055201,231.633535 Z" id="Rectangle-124" fill="#F2F2F2"></path>
                        <path d="M532.236067,184.087704 L573.756651,89.4024168 L516.421649,89.4024168 L532.236067,184.087704 Z" id="Rectangle-126" fill="#E8E8E8"></path>
                        <path d="M574.163282,281.617613 L669.721619,161.330725 L669.721619,276.974839 L574.163282,281.617613 Z" id="Rectangle-93" fill="#F9F9F9"></path>
                        <path d="M574.119229,282.023988 L669.721619,162.143474 L539.599629,231.375613 L574.119229,282.023988 Z" id="Rectangle-127" fill="#F7F7F7"></path>
                        <path d="M540.00626,231.633535 L669.721619,34.9482175 L669.721619,162.397892 L540.00626,231.633535 Z" id="Rectangle-104" fill="#F5F5F5"></path>
                        <path d="M451.767285,364.111661 L540.220336,231.633535 L576.196439,281.159075 L451.767285,364.111661 Z" id="Rectangle-125" fill="#F2F2F2"></path>
                        <path d="M451.767285,364.111661 L669.721619,216.597674 L669.721619,364.111661 L451.767285,364.111661 Z" id="Rectangle-101" fill="#F5F5F5"></path>
                        <rect id="Rectangle-86" fill="#ECECEC" x="0.40663122" y="33.322719" width="683.140449" height="56.8924471"></rect>
                        <path d="M56.9215815,0 L0,0 L0,33.3787234 L0,90.2151661 L106.53738,90.2151661 L56.9215815,33.3787234 L56.9215815,0 Z" id="Rectangle-94" fill="#A3A3A3"></path>
                        <path d="M158.988413,0 L102.06958,0 L102.06958,33.3787234 L56.9283708,33.3787234 L102.06958,90.2151661 L208.601816,90.2151661 L158.988413,33.3787234 L158.988413,0 Z" id="Rectangle-95" fill="#ADADAD"></path>
                        <path d="M260.646218,0 L203.727385,0 L203.727385,33.3787234 L158.586176,33.3787234 L203.727385,90.2151661 L308.226465,90.2151661 L260.646218,33.3787234 L260.646218,0 Z" id="Rectangle-96" fill="#B5B5B5"></path>
                        <path d="M480.97276,0 L423.976397,0 L423.976397,33.3787234 L394.838915,33.3787234 L419.176871,90.2151661 L530.653742,90.2151661 L505.625596,33.3787234 L480.97276,33.3787234 L480.97276,0 Z" id="Rectangle-98" fill="#C8C8C8"></path>
                        <path d="M579.098177,0 L522.247851,0 L522.247851,33.3787234 L501.376294,33.3787234 L517.460622,90.2151661 L628.651866,90.2151661 L602.120656,33.3787234 L579.098177,33.3787234 L579.098177,0 Z" id="Rectangle-99" fill="#D3D3D3"></path>
                        <path d="M683.953712,0 L626.976861,0 L626.976861,33.3787234 L601.814205,33.3787234 L622.178978,90.2151661 L683.953712,90.2151661 L683.953712,33.3787234 L683.953712,0 Z" id="Rectangle-100" fill="#DADADA"></path>
                        <path d="M370.029593,0 L313.110274,0 L313.110274,33.3787234 L259.83735,33.3787234 L304.978943,90.2151661 L419.643419,90.2151661 L399.321443,33.3787234 L370.029593,33.3787234 L370.029593,0 Z" id="Rectangle-97" fill="#C2C1C1"></path>
                    </g>
                    <g id="Door" transform="translate(261.057243, 339.322809)">
                        <g id="Door-right" transform="translate(80.512982, 0.000000)">
                            <path d="M0,0 L0.40663122,146.294864 L82.1395064,146.294864 L82.1395064,0 L0,0 Z" id="Rectangle-130" fill="#987C57"></path>
                            <path d="M0.81326244,146.294864 L82.1395064,146.294864 L82.1395064,0 L0.81326244,146.294864 Z" id="Rectangle-133" fill="#AE9574"></path>
                        </g>
                        <g id="Door-left" transform="translate(0.000000, 0.000000)">
                            <rect id="Rectangle-131" fill="#8B6D46" x="0" y="0" width="81.326244" height="146.294864"></rect>
                            <path d="M0,0 L0,146.294864 L81.326244,146.294864 L0,0 Z" id="Rectangle-132" fill="#816139"></path>
                        </g>
                        <g id="woodboard" transform="translate(28.464185, 68.270937)">
                            <rect id="Rectangle-135" fill="#B59537" x="1.27897692e-13" y="-2.84217094e-14" width="105.724117" height="19.5059819"></rect>
                            <path d="M1.27897692e-13,-2.84217094e-14 L1.27897692e-13,19.5059819 L52.8620586,19.5059819 L1.27897692e-13,-2.84217094e-14 Z" id="Rectangle-136" fill="#A6892F"></path>
                            <path d="M2.62900812e-13,-5.68434189e-14 L105.724117,-5.68434189e-14 L52.8771527,19.5059819 L2.62900812e-13,-5.68434189e-14 Z" id="Rectangle-137" fill="#C6A645"></path>
                            <path d="M1.27897692e-13,-2.84217094e-14 L52.8771515,-2.84217094e-14 L52.8771527,19.5059819 L1.27897692e-13,-2.84217094e-14 Z" id="Rectangle-140" fill="#AC903A"></path>
                        </g>
                        <g id="holders" transform="translate(48.389115, 81.274924)" fill="#4D4D4D">
                            <rect id="Rectangle-138" x="0" y="0" width="18.2984049" height="13.8167371"></rect>
                            <rect id="Rectangle-139" x="47.1692215" y="0" width="18.2984049" height="13.8167371"></rect>
                        </g>
                    </g>
                    <g id="Torches" transform="translate(133.476333, 238.730704)">
                        <g id="Group" transform="translate(406.000000, 0.000000)">
                            <path d="M7,30 L7,65 L12,75 L17,65 L17,30 L7,30 Z" id="Rectangle-1897" fill="#ECC99C"></path>
                            <path d="M7,30 L7,53.8632812 L17,30 L7,30 Z" id="Rectangle-1899" fill="#E5BA81"></path>
                            <path d="M7,65 L12,75 L17,65 L7,65 Z" id="Rectangle-1898" fill="#FFE2BD"></path>
                            <rect id="Rectangle-1895" fill="#8A6639" x="3" y="47" width="18" height="17"></rect>
                            <path d="M3,47 L3,64 L21,64 L3,47 Z" id="Rectangle-1896" fill="#765328"></path>
                            <polygon id="Polygon-3" fill="#FAB374" points="5.5 5 12.6818674 13.9827791 12.3206041 28.5172209 8.07617187 30.5172215 0.318132644 13.9827791 "></polygon>
                            <polygon id="Polygon-4" fill="#FAB374" points="17.5 5 23.6818674 13.9827791 15.3206041 30.5172209 11.0761719 28.5172215 11.3181326 13.9827791 "></polygon>
                            <polygon id="Polygon-1" fill="#FFF039" points="11.5 8 17.6818674 16.9827791 15.3206041 31.5172209 8.07617187 31.5172215 5.31813264 16.9827791 "></polygon>
                            <polygon id="Polygon-6" fill="#FF6D59" points="8.5 3 14.6818674 11.9827791 8.49999977 21.7617188 2.31813264 11.9827791 "></polygon>
                            <polygon id="Polygon-5" fill="#F45E5E" points="14.5 3 20.6818674 11.9827791 14.4999998 21.7617188 8.31813264 11.9827791 "></polygon>
                            <polygon id="Polygon-2" fill="#FF9C61" points="11.5 0 17.6818674 8.98277907 11.4999998 18.7617188 5.31813264 8.98277907 "></polygon>
                        </g>
                        <g id="Group-2">
                            <path d="M7,30 L7,65 L12,75 L17,65 L17,30 L7,30 Z" id="Rectangle-1897" fill="#ECC99C"></path>
                            <path d="M7,30 L7,53.8632812 L17,30 L7,30 Z" id="Rectangle-1899" fill="#E5BA81"></path>
                            <path d="M7,65 L12,75 L17,65 L7,65 Z" id="Rectangle-1898" fill="#FFE2BD"></path>
                            <rect id="Rectangle-1895" fill="#8A6639" x="3" y="47" width="18" height="17"></rect>
                            <path d="M3,47 L3,64 L21,64 L3,47 Z" id="Rectangle-1896" fill="#765328"></path>
                            <polygon id="Polygon-3" fill="#FAB374" points="5.5 5 12.6818674 13.9827791 12.3206041 28.5172209 8.07617187 30.5172215 0.318132644 13.9827791 "></polygon>
                            <polygon id="Polygon-4" fill="#FAB374" points="17.5 5 23.6818674 13.9827791 15.3206041 30.5172209 11.0761719 28.5172215 11.3181326 13.9827791 "></polygon>
                            <polygon id="Polygon-1" fill="#FFF039" points="11.5 8 17.6818674 16.9827791 15.3206041 31.5172209 8.07617187 31.5172215 5.31813264 16.9827791 "></polygon>
                            <polygon id="Polygon-6" fill="#FF6D59" points="8.5 3 14.6818674 11.9827791 8.49999977 21.7617188 2.31813264 11.9827791 "></polygon>
                            <polygon id="Polygon-5" fill="#F45E5E" points="14.5 3 20.6818674 11.9827791 14.4999998 21.7617188 8.31813264 11.9827791 "></polygon>
                            <polygon id="Polygon-2" fill="#FF9C61" points="11.5 0 17.6818674 8.98277907 11.4999998 18.7617188 5.31813264 8.98277907 "></polygon>
                        </g>
                    </g>
                </g>
                <g id="sand" transform="translate(0.028400, 596.899928)" sketch:type="MSShapeGroup">
                    <path d="M-1.13686838e-13,0.665223705 L-1.13686838e-13,271.07866 L258.29078,102.922416 L104.706203,0.665223705 L-1.13686838e-13,0.665223705 Z" id="Rectangle-170" fill="#EBCF9F"></path>
                    <path d="M155.108095,170.297269 L-1.13686838e-13,66.5223705 L251.796041,106.35319 L155.108095,170.297269 Z" id="Rectangle-329" fill="#EACD99"></path>
                    <path d="M96.7910441,414.434368 L-1.13686838e-13,414.434368 L-1.13686838e-13,271.111157 L248.798469,108.431464 L96.7910441,414.434368 Z" id="Rectangle-171" fill="#E6C791"></path>
                    <path d="M96.9214919,414.434368 L270.627256,414.434368 L391.183135,205.017081 L252.152906,100.116168 L96.9214919,414.434368 Z" id="Rectangle-172" fill="#EED3A4"></path>
                    <path d="M332.816349,303.674621 L390.683539,205.037258 L251.796041,100.116168 L332.816349,303.674621 Z" id="Rectangle-332" fill="#E8CA96"></path>
                    <path d="M333.230078,303.674621 L201.836509,201.895395 L252.201702,100.116168 L333.230078,303.674621 Z" id="Rectangle-340" fill="#EACC98"></path>
                    <path d="M333.230078,303.645711 L201.836509,201.895395 L271.333998,414.76698 L333.230078,303.645711 Z" id="Rectangle-341" fill="#EAC98F"></path>
                    <path d="M96.4218965,414.76698 L201.753838,201.895395 L271.280258,414.76698 L96.4218965,414.76698 Z" id="Rectangle-342" fill="#DEC18C"></path>
                    <path d="M666.959751,414.434368 L270.281068,414.434368 L389.782824,203.558454 L666.959751,414.434368 Z" id="Rectangle-175" fill="#EACD99"></path>
                    <path d="M332.730482,304.007233 L487.605031,279.084184 L389.735279,203.558454 L332.730482,304.007233 Z" id="Rectangle-331" fill="#E6C791"></path>
                    <path d="M666.959751,414.434368 L535.512707,144.419795 L257.291589,105.437957 L666.959751,414.434368 Z" id="Rectangle-176" fill="#EAC98F"></path>
                    <path d="M486.878085,278.728732 L535.566182,144.398321 L257.291589,105.437957 L486.878085,278.728732 Z" id="Rectangle-333" fill="#EACC97"></path>
                    <path d="M80.4348463,0.665223705 L248.559477,109.686794 L534.631168,145.683991 L736.903095,0.665223705 L80.4348463,0.665223705 Z" id="Rectangle-178" fill="#EAC98F"></path>
                    <path d="M248.798469,109.686794 L534.730159,145.683991 L736.903095,0.665223705 L248.798469,109.686794 Z" id="Rectangle-189" fill="#E1C593"></path>
                    <path d="M627.432292,335.605359 L534.067396,145.350142 L736.4035,0.332611853 L627.432292,335.605359 Z" id="Rectangle-179" fill="#E6C487"></path>
                    <path d="M734.405119,0.332611853 L742.330938,297.687608 L999.690233,102.694785 L846.206929,0.665091506 L734.405119,0.332611853 Z" id="Rectangle-183" fill="#EED19D"></path>
                    <path d="M838.086306,414.434368 L666.816712,414.434368 L620.996981,333.367234 L745.174074,267.507655 L1003.687,97.4552728 L838.086306,414.434368 Z" id="Rectangle-173" fill="#E6C791"></path>
                    <path d="M948.685032,198.43962 L745.396216,267.419929 L1003.687,97.4552728 L948.685032,198.43962 Z" id="Rectangle-335" fill="#EACC97"></path>
                    <path d="M756.886908,262.055449 L620.996981,333.9423 L734.952442,0.332611853 L756.886908,262.055449 Z" id="Rectangle-334" fill="#EAC98F"></path>
                    <path d="M838.320945,414.434368 L1012.02671,414.434368 L1132.58259,205.020779 L998.707992,102.777062 L838.320945,414.434368 Z" id="Rectangle-174" fill="#EED3A4"></path>
                    <path d="M838.320945,414.434368 L998.691042,258.605715 L998.691042,102.777062 L838.320945,414.434368 Z" id="Rectangle-336" fill="#E2C592"></path>
                    <path d="M1130.58421,212.077052 L998.691042,258.772021 L998.691042,102.777062 L1130.58421,212.077052 Z" id="Rectangle-337" fill="#E7C78F"></path>
                    <path d="M1130.58421,211.87375 L998.691042,258.563837 L1037.26036,371.860051 L1130.58421,211.87375 Z" id="Rectangle-338" fill="#E9CB95"></path>
                    <path d="M839.320136,414.434368 L998.175818,258.439409 L1036.66029,371.747472 L839.320136,414.434368 Z" id="Rectangle-339" fill="#EBCF9D"></path>
                    <path d="M1408.3592,414.434368 L1011.68052,414.434368 L1131.18228,203.558454 L1408.3592,414.434368 Z" id="Rectangle-177" fill="#EECF97"></path>
                    <path d="M1408.3592,414.434368 L1011.68052,414.434368 L1219.31921,277.398285 L1408.3592,414.434368 Z" id="Rectangle-344" fill="#EAC98F"></path>
                    <path d="M1408.3592,414.434368 L1275.89725,145.332098 L979.206825,103.442286 L1408.3592,414.434368 Z" id="Rectangle-180" fill="#EDCD95"></path>
                    <path d="M1408.3592,414.434368 L1274.85148,143.68832 L1216.5146,275.768311 L1408.3592,414.434368 Z" id="Rectangle-348" fill="#EFCE94"></path>
                    <path d="M1203.52512,137.036083 L1275.96644,145.497463 L1216.59715,275.735226 L1203.52512,137.036083 Z" id="Rectangle-349" fill="#F1D39E"></path>
                    <path d="M819.336323,0.665223705 L998.850639,112.282546 L1276.00925,145.683991 L1478.30255,0.665223705 L819.336323,0.665223705 Z" id="Rectangle-181" fill="#EECF97"></path>
                    <path d="M1097.47623,0.665223705 L819.336323,0.665223705 L998.833813,112.282546 L1275.96644,145.683991 L1097.47623,0.665223705 Z" id="Rectangle-184" fill="#E6C487"></path>
                    <path d="M1097.61092,0.665223705 L819.336323,0.665223705 L998.920735,112.090194 L1097.61092,0.665223705 Z" id="Rectangle-185" fill="#EBC98F"></path>
                    <path d="M1369.17226,335.937971 L1273.46847,145.515188 L1478.30255,0.665223705 L1369.17226,335.937971 Z" id="Rectangle-182" fill="#E6C487"></path>
                    <path d="M1368.08447,339.26409 L1273.46847,145.35138 L1449.82562,231.353125 L1368.08447,339.26409 Z" id="Rectangle-350" fill="#E4C48C"></path>
                    <path d="M1750.582,0.665223705 L1371.88875,334.940136 L1614.78513,0.665223705 L1750.582,0.665223705 Z" id="Rectangle-346" fill="#F0CE93"></path>
                    <path d="M1750.582,0.665223705 L1575.22404,149.01011 L1614.7982,0.665223705 L1750.582,0.665223705 Z" id="Rectangle-351" fill="#EAC78A"></path>
                    <path d="M1471.60417,0.665223705 L1368.89117,339.929313 L1615.69126,0.665223705 L1471.60417,0.665223705 Z" id="Rectangle-347" fill="#E6C487"></path>
                    <path d="M1369.39077,335.774407 L1577.72202,147.347051 L1528.95932,414.335395 L1404.11848,414.335401 L1369.39077,335.774407 Z" id="Rectangle-186" fill="#E7C78E"></path>
                    <path d="M1737.59252,188.258309 L1644.16819,344.253267 L1737.59252,285.873734 L1737.59252,188.258309 Z" id="Rectangle-360" fill="#E2BE7F"></path>
                    <path d="M1908.45412,180.012117 L1908.45412,0.665223705 L1902.29192,0.665223705 L1528.76168,414.434368 L1908.45412,180.012117 Z" id="Rectangle-187" fill="#EDCD95"></path>
                    <path d="M1908.45412,177.561668 L1808.65558,111.424971 L1737.09292,285.713581 L1908.45412,177.561668 Z" id="Rectangle-343" fill="#F0CE93"></path>
                    <path d="M1737.09292,188.168056 L1808.53505,111.424971 L1737.09292,285.713581 L1737.09292,188.168056 Z" id="Rectangle-359" fill="#E6C487"></path>
                    <path d="M1737.59252,188.59092 L1750.13801,0.665223705 L1788.12004,0.665223705 L1808.03546,110.961417 L1737.59252,188.59092 Z" id="Rectangle-357" fill="#E6C487"></path>
                    <path d="M1908.4525,0.665223705 L1750.0824,0.665223705 L1808.04203,111.092359 L1908.4525,0.665223705 Z" id="Rectangle-356" fill="#EFD19D"></path>
                    <path d="M1737.98893,191.962813 L1647.48723,230.4504 L1557.23861,248.461054 L1642.25676,124.23053 L1750.582,-3.69196112e-17 L1737.98893,191.962813 Z" id="Rectangle-361" fill="#EFCE94"></path>
                    <path d="M1738.09211,190.919203 L1557.2205,248.447414 L1528.76168,414.434368 L1738.09211,190.919203 Z" id="Rectangle-358" fill="#F0CE93"></path>
                    <path d="M1577.20884,147.646181 L1557.23861,248.461054 L1750.582,-3.69196112e-17 L1577.20884,147.646181 Z" id="Rectangle-362" fill="#EAC78A"></path>
                    <path d="M1908.45412,178.612565 L1908.45412,414.434368 L1528.76168,414.434368 L1908.45412,178.612565 Z" id="Rectangle-188" fill="#E7C78E"></path>
                </g>
                <g id="Red-carpet" transform="translate(0.000000, 595.899928)" sketch:type="MSShapeGroup">
                    <path d="M952.257077,1 L1045.84899,114.7849 L1045.66926,1 L952.257077,1 Z" id="Rectangle-366" fill="#B32B2B"></path>
                    <path d="M954.280212,1 L1045.6814,114.11754 L877.331539,9.20383704 L877.331539,1 L954.280212,1 Z" id="Rectangle-367" fill="#BB3030"></path>
                    <path d="M872.238281,7.25632191 L943.657571,177.850431 L1047.18019,113.813025 L885.331539,1 L872.238281,7.25632191 Z" id="Rectangle-368" fill="#AB2B2B"></path>
                    <path d="M943.763957,177.745903 L1045.99084,114.11754 L1055.67331,416.765352 L943.763957,177.745903 Z" id="Rectangle-369" fill="#BB3030"></path>
                    <path d="M880.57274,0 L0.0283995444,417.432712 L1057.17209,416.765352 L880.57274,0 Z" id="Rectangle-328" fill="#B32B2B"></path>
                    <path d="M882.330729,1 L550.082846,151.006236 L801.746422,275.285007 L882.330729,1 Z" id="Rectangle-352" fill="#BB3030"></path>
                    <path d="M746.132422,57.7256098 L551.082036,151.350371 L802.878077,283.960689 L746.132422,57.7256098 Z" id="Rectangle-363" fill="#AB2B2B"></path>
                    <path d="M861.330729,1 L802.878077,283.960689 L861.330729,1 Z" id="Rectangle-353" fill="#AE3B3B"></path>
                    <path d="M1051.62537,414.095911 L566.25402,144.816105 L0.0283995444,417.432712 L1909.27418,417.432712 L1051.62537,414.095911 Z" id="Rectangle-345" fill="#AB2B2B"></path>
                    <path d="M566.274209,144.816105 L0.0283995444,417.432712 L802.378482,276.653809 L566.274209,144.816105 Z" id="Rectangle-364" fill="#B32B2B"></path>
                    <path d="M1499.81355,216.557317 L1042.18423,1 L1045.72512,114.132607 L1499.81355,216.557317 Z" id="Rectangle-330" fill="#AB2B2B"></path>
                    <path d="M1498.31476,215.851153 L1050.64787,296.640531 L1045.18181,113.783859 L1498.31476,215.851153 Z" id="Rectangle-355" fill="#B32E2E"></path>
                    <path d="M1908.48252,416.765352 L1483.44393,207.881636 L1053.17604,416.765352 L1908.48252,416.765352 Z" id="Rectangle-354" fill="#AB2B2B"></path>
                    <path d="M1049.67816,296.619704 L1484.32609,208.548996 L1055.03197,416.391265 L1049.67816,296.619704 Z" id="Rectangle-370" fill="#BA3A3A"></path>
                    <path d="M1908.48252,416.765352 L1484.41423,208.548996 L1310.46692,416.765352 L1908.48252,416.765352 Z" id="Rectangle-365" fill="#AB2B2B"></path>
                    <path d="M1027.18343,1 L1872.77613,416.765352 L1908.62645,416.765352 L1908.62645,383.788377 L1044.68901,1 L1027.18343,1 Z" id="Rectangle-327" fill="#D44747"></path>
                    <path d="M880.089574,1 L0.0283973885,364.114288 L0.0283973885,417.497884 L895.818184,1 L880.089574,1 Z" id="Rectangle-327" fill="#992323"></path>
                </g>
                <g id="tree-6" transform="translate(238.839818, 474.544636)" sketch:type="MSShapeGroup">
                    <path d="M14.7538893,128.814255 L0,181.737941 L133.891545,181.737941 L119.137656,128.814255 L14.7538893,128.814255 Z" id="Rectangle-9" fill="#5EA034"></path>
                    <path d="M14.7846781,128.814255 L0,181.737941 L71.9417259,181.737941 L14.7846781,128.814255 Z" id="Rectangle-25" fill="#538534"></path>
                    <path d="M14.7846781,128.814255 L0,181.737941 L35.970863,149.426928 L14.7846781,128.814255 Z" id="Rectangle-31" fill="#528134"></path>
                    <path d="M14.9878596,128.814255 L71.9417259,134.447044 L71.9417259,181.737941 L14.9878596,128.814255 Z" id="Rectangle-26" fill="#558C33"></path>
                    <path d="M35.970863,148.955206 L71.9417259,134.805616 L71.9417259,181.737941 L35.970863,148.955206 Z" id="Rectangle-32" fill="#5C923A"></path>
                    <path d="M120.902067,134.805616 L71.9417259,134.805616 L71.9417259,181.737941 L120.902067,134.805616 Z" id="Rectangle-27" fill="#589631"></path>
                    <path d="M96.4218965,134.805616 L71.9417259,134.805616 L71.9417259,181.737941 L96.4218965,134.805616 Z" id="Rectangle-30" fill="#548E30"></path>
                    <path d="M27.259883,81.3826494 L6.99433446,134.306335 L126.897211,134.306335 L106.631662,81.3826494 L27.259883,81.3826494 Z" id="Rectangle-6" fill="#74AC50"></path>
                    <path d="M94.9231106,134.306335 L126.397616,134.306335 L106.209821,81.3826494 L94.9231106,134.306335 Z" id="Rectangle-29" fill="#77B252"></path>
                    <path d="M27.3171862,81.3826494 L6.99433446,134.306335 L106.913398,81.3826494 L27.3171862,81.3826494 Z" id="Rectangle-19" fill="#6FA24F"></path>
                    <path d="M70.4929517,134.306335 L6.99433446,134.306335 L106.913398,81.3826494 L70.4929517,134.306335 Z" id="Rectangle-24" fill="#70A64E"></path>
                    <path d="M39.6598858,38.4445644 L13.9886689,91.3682505 L119.403281,91.3682505 L93.7320643,38.4445644 L39.6598858,38.4445644 Z" id="Rectangle-7" fill="#73B34C"></path>
                    <path d="M49.4599366,91.3682505 L119.403281,91.3682505 L93.6667368,38.4445644 L49.4599366,91.3682505 Z" id="Rectangle-16" fill="#75B64C"></path>
                    <path d="M49.4599366,91.3682505 L119.403281,91.3682505 L106.363556,64.9064075 L49.4599366,91.3682505 Z" id="Rectangle-28" fill="#75BB4A"></path>
                    <path d="M49.4599366,91.3682505 L55.9727859,53.0192514 L93.4243246,38.4445644 L49.4599366,91.3682505 Z" id="Rectangle-17" fill="#6FB046"></path>
                    <path d="M17.9854315,52.424406 L116.905305,52.424406 L67.445368,0 L17.9854315,52.424406 Z" id="Rectangle-8" fill="#80C256"></path>
                    <path d="M17.9854315,52.424406 L66.9457727,26.212203 L66.9457727,0 L17.9854315,52.424406 Z" id="Rectangle-10" fill="#79BE4E"></path>
                    <path d="M115.406519,51.4258459 L66.9457727,26.1642676 L66.9457727,0 L115.406519,51.4258459 Z" id="Rectangle-11" fill="#88C363"></path>
                    <path d="M114.906923,51.925126 L66.3002467,25.962563 L55.9546757,51.925126 L114.906923,51.925126 Z" id="Rectangle-15" fill="#84CB57"></path>
                    <rect id="Rectangle-13" fill="#A3856A" x="48.9603413" y="181.238661" width="34.9716723" height="48.9294456"></rect>
                    <path d="M48.9603413,181.238661 L48.9603413,196.594083 L83.9320136,218.185385 L83.9320136,181.238661 L48.9603413,181.238661 Z" id="Rectangle-14" fill="#94765B"></path>
                </g>
                <g id="tree-16" transform="translate(289.784782, 402.000000)" sketch:type="MSShapeGroup">
                    <path d="M22.3333949,195.071072 L0,274.594819 L202.675559,274.594819 L180.342164,195.071072 L22.3333949,195.071072 Z" id="Rectangle-9" fill="#5EA034"></path>
                    <path d="M22.5030824,195.071072 L0,274.594819 L109.499211,274.594819 L22.5030824,195.071072 Z" id="Rectangle-25" fill="#538534"></path>
                    <path d="M22.3633117,195.071072 L0,274.594819 L54.4095459,226.043915 L22.3633117,195.071072 Z" id="Rectangle-31" fill="#528134"></path>
                    <path d="M22.4439377,195.071072 L108.819092,203.534967 L108.819092,274.594819 L22.4439377,195.071072 Z" id="Rectangle-26" fill="#558C33"></path>
                    <path d="M54.4095459,225.423566 L108.819092,203.907044 L108.819092,275.274509 L54.4095459,225.423566 Z" id="Rectangle-32" fill="#5C923A"></path>
                    <path d="M183.632217,203.907044 L109.499211,203.907044 L109.499211,275.274509 L183.632217,203.907044 Z" id="Rectangle-27" fill="#589631"></path>
                    <path d="M146.905774,203.907044 L109.499211,203.907044 L109.499211,275.274509 L146.905774,203.907044 Z" id="Rectangle-30" fill="#548E30"></path>
                    <path d="M41.5739055,123.023916 L10.8819092,202.547664 L192.473769,202.547664 L161.781772,123.023916 L41.5739055,123.023916 Z" id="Rectangle-6" fill="#74AC50"></path>
                    <path d="M143.505177,202.547664 L191.11353,202.547664 L160.577462,123.023916 L143.505177,202.547664 Z" id="Rectangle-29" fill="#77B252"></path>
                    <path d="M41.5915248,123.023916 L10.8819092,202.547664 L161.868399,123.023916 L41.5915248,123.023916 Z" id="Rectangle-19" fill="#6FA24F"></path>
                    <path d="M106.833902,202.547664 L10.8819092,202.547664 L161.868399,123.023916 L106.833902,202.547664 Z" id="Rectangle-24" fill="#70A64E"></path>
                    <path d="M60.0060099,58.4533526 L21.083699,137.9771 L180.91174,137.9771 L141.989429,58.4533526 L60.0060099,58.4533526 Z" id="Rectangle-7" fill="#73B34C"></path>
                    <path d="M74.8131256,137.9771 L180.91174,137.9771 L141.871404,58.4533526 L74.8131256,137.9771 Z" id="Rectangle-16" fill="#75B64C"></path>
                    <path d="M74.8131256,137.9771 L180.91174,137.9771 L161.131492,97.875381 L74.8131256,137.9771 Z" id="Rectangle-28" fill="#75BB4A"></path>
                    <path d="M74.8131256,137.9771 L84.6868543,80.353447 L141.464819,58.4533526 L74.8131256,137.9771 Z" id="Rectangle-17" fill="#6FB046"></path>
                    <path d="M26.5246536,78.8440569 L176.150905,78.8440569 L101.337779,0 L26.5246536,78.8440569 Z" id="Rectangle-8" fill="#80C256"></path>
                    <path d="M26.5246536,78.8440569 L100.65766,39.4220285 L100.65766,0 L26.5246536,78.8440569 Z" id="Rectangle-10" fill="#79BE4E"></path>
                    <path d="M175.470786,78.1643668 L102.017899,39.7682016 L102.017899,0 L175.470786,78.1643668 Z" id="Rectangle-11" fill="#88C363"></path>
                    <path d="M174.790666,78.8440569 L100.769725,39.4220285 L85.0149155,78.8440569 L174.790666,78.8440569 Z" id="Rectangle-15" fill="#84CB57"></path>
                    <rect id="Rectangle-13" fill="#A3856A" x="74.1330063" y="273.915129" width="53.0493073" height="74.0862259"></rect>
                    <path d="M74.1330063,273.915129 L74.1330063,297.078973 L127.182314,329.649721 L127.182314,273.915129 L74.1330063,273.915129 Z" id="Rectangle-14" fill="#94765B"></path>
                </g>
                <g id="tree" transform="translate(1519.261796, 402.000000)" sketch:type="MSShapeGroup">
                    <path d="M28.4492749,248.508463 L0,350.356193 L258.177169,350.356193 L229.727894,248.508463 L28.4492749,248.508463 Z" id="Rectangle-9" fill="#5EA034"></path>
                    <path d="M28.4836359,248.508463 L0,350.356193 L138.600375,350.356193 L28.4836359,248.508463 Z" id="Rectangle-25" fill="#538534"></path>
                    <path d="M28.4836359,248.508463 L0,350.356193 L69.3001875,288.176032 L28.4836359,248.508463 Z" id="Rectangle-31" fill="#528134"></path>
                    <path d="M28.5353713,248.508463 L138.600375,259.34835 L138.600375,350.356193 L28.5353713,248.508463 Z" id="Rectangle-26" fill="#558C33"></path>
                    <path d="M69.3001875,286.802909 L138.600375,259.372221 L138.600375,350.356193 L69.3001875,286.802909 Z" id="Rectangle-32" fill="#5C923A"></path>
                    <path d="M232.359452,259.372221 L138.600375,259.372221 L138.600375,350.356193 L232.359452,259.372221 Z" id="Rectangle-27" fill="#589631"></path>
                    <path d="M185.479914,259.372221 L138.600375,259.372221 L138.600375,350.356193 L185.479914,259.372221 Z" id="Rectangle-30" fill="#548E30"></path>
                    <path d="M52.6311585,156.16652 L13.5882721,258.014251 L244.588897,258.014251 L205.546011,156.16652 L52.6311585,156.16652 Z" id="Rectangle-6" fill="#74AC50"></path>
                    <path d="M183.441673,258.014251 L244.588897,258.014251 L205.368976,156.16652 L183.441673,258.014251 Z" id="Rectangle-29" fill="#77B252"></path>
                    <path d="M52.695494,156.16652 L13.5882721,258.014251 L205.862322,156.16652 L52.695494,156.16652 Z" id="Rectangle-19" fill="#6FA24F"></path>
                    <path d="M135.778531,258.014251 L13.5882721,258.014251 L205.862322,156.16652 L135.778531,258.014251 Z" id="Rectangle-24" fill="#70A64E"></path>
                    <path d="M76.8130421,74.0093509 L27.1765441,175.857082 L231.000625,175.857082 L181.364127,74.0093509 L76.8130421,74.0093509 Z" id="Rectangle-7" fill="#73B34C"></path>
                    <path d="M95.7973181,175.857082 L231.000625,175.857082 L181.250846,74.0093509 L95.7973181,175.857082 Z" id="Rectangle-16" fill="#75B64C"></path>
                    <path d="M95.7973181,175.857082 L231.000625,175.857082 L205.794311,124.933216 L95.7973181,175.857082 Z" id="Rectangle-28" fill="#75BB4A"></path>
                    <path d="M95.7973181,175.857082 L108.378292,102.057261 L180.724019,74.0093509 L95.7973181,175.857082 Z" id="Rectangle-17" fill="#6FB046"></path>
                    <path d="M33.9706802,101.168746 L224.206489,101.168746 L129.088585,0 L33.9706802,101.168746 Z" id="Rectangle-8" fill="#80C256"></path>
                    <path d="M33.9706802,101.168746 L129.088585,50.5843729 L129.088585,0 L33.9706802,101.168746 Z" id="Rectangle-10" fill="#79BE4E"></path>
                    <path d="M222.168248,99.1317911 L129.088585,50.4359366 L129.088585,0 L222.168248,99.1317911 Z" id="Rectangle-11" fill="#88C363"></path>
                    <path d="M222.847662,101.168746 L128.736945,50.9238653 L108.706177,101.168746 L222.847662,101.168746 Z" id="Rectangle-15" fill="#84CB57"></path>
                    <rect id="Rectangle-13" fill="#A3856A" x="95.1179045" y="350.356193" width="67.9413603" height="95.0578819"></rect>
                    <path d="M95.1179045,350.356193 L95.1179045,379.704243 L163.059265,420.97062 L163.059265,350.356193 L95.1179045,350.356193 Z" id="Rectangle-14" fill="#94765B"></path>
                </g>
                <g id="Flowers" transform="translate(84.000000, 597.000000)" sketch:type="MSShapeGroup">
                    <g id="Flower-46" transform="translate(1755.115658, 114.019078)">
                        <rect id="Rectangle-221" fill="#9AC771" x="9.99190638" y="12.9812815" width="1.99838128" height="22.9668826"></rect>
                        <path d="M10.991097,19.48263 L10.991097,23.0525447 L18.1152998,26.9611231 L21.4825987,23.0525447 L18.6241714,18.9726422 L10.991097,19.48263 Z" id="Rectangle-221" fill="#96C66A"></path>
                        <path d="M10.991097,22.9668826 L18.1152998,26.9611231 L21.4825987,22.9668826 L10.991097,22.9668826 Z" id="Rectangle-222" fill="#8BB465"></path>
                        <g id="Ruby">
                            <path d="M0,4.49352052 L10.9922523,16.1132457 L6.49673426,4.49352052 L0,4.49352052 Z" id="Path-15" fill="#B63033"></path>
                            <path d="M10.982194,4.49352052 L22.2548505,16.0619762 L17.469758,4.49352052 L10.982194,4.49352052 Z" id="Path-15" fill="#D74D50" transform="translate(16.482194, 10.493521) scale(-1, 1) translate(-16.482194, -10.493521) "></path>
                            <path d="M5.99514383,4.49352052 L10.7412994,15.9769618 L16.4874549,4.49352052 L5.99514383,4.49352052 Z" id="Path-16" fill="#C53A3D"></path>
                            <polygon id="Triangle-1" fill="#DF7D80" points="4.0899086 -0.0234730057 6.49473915 4.49352052 0 4.49352052 "></polygon>
                            <path d="M3.99676255,0 L10.991097,0 L5.98977183,4.49352052 L3.99676255,0 Z" id="Triangle-1" fill="#C53A3D"></path>
                            <path d="M10.991097,0 L17.9854315,0 L15.9043787,4.49352052 L10.991097,0 Z" id="Triangle-1" fill="#D74D50"></path>
                            <polygon id="Triangle-1" fill="#F9A3A5" points="10.9405171 -2.84217094e-14 16.4874549 4.49352052 5.99514383 4.49352052 "></polygon>
                            <polygon id="Triangle-1" fill="#FCBDBF" transform="translate(18.982194, 2.000000) scale(-1, 1) translate(-18.982194, -2.000000) " points="19.9037763 0.0419566818 22.4769332 4.49352052 15.982194 4.49352052 "></polygon>
                        </g>
                    </g>
                    <g id="Flower-55" transform="translate(13.000000, 225.000000)">
                        <rect id="Rectangle-221" fill="#9AC771" x="9.99190638" y="12.9812815" width="1.99838128" height="22.9668826"></rect>
                        <path d="M10.991097,19.48263 L10.991097,23.0525447 L18.1152998,26.9611231 L21.4825987,23.0525447 L18.6241714,18.9726422 L10.991097,19.48263 Z" id="Rectangle-221" fill="#96C66A"></path>
                        <path d="M10.991097,22.9668826 L18.1152998,26.9611231 L21.4825987,22.9668826 L10.991097,22.9668826 Z" id="Rectangle-222" fill="#8BB465"></path>
                        <g id="Ruby">
                            <path d="M0,4.49352052 L10.9922523,16.1132457 L6.49673426,4.49352052 L0,4.49352052 Z" id="Path-15" fill="#B63033"></path>
                            <path d="M10.982194,4.49352052 L22.2548505,16.0619762 L17.469758,4.49352052 L10.982194,4.49352052 Z" id="Path-15" fill="#D74D50" transform="translate(16.482194, 10.493521) scale(-1, 1) translate(-16.482194, -10.493521) "></path>
                            <path d="M5.99514383,4.49352052 L10.7412994,15.9769618 L16.4874549,4.49352052 L5.99514383,4.49352052 Z" id="Path-16" fill="#C53A3D"></path>
                            <polygon id="Triangle-1" fill="#DF7D80" points="4.0899086 -0.0234730057 6.49473915 4.49352052 0 4.49352052 "></polygon>
                            <path d="M3.99676255,0 L10.991097,0 L5.98977183,4.49352052 L3.99676255,0 Z" id="Triangle-1" fill="#C53A3D"></path>
                            <path d="M10.991097,0 L17.9854315,0 L15.9043787,4.49352052 L10.991097,0 Z" id="Triangle-1" fill="#D74D50"></path>
                            <polygon id="Triangle-1" fill="#F9A3A5" points="10.9405171 -2.84217094e-14 16.4874549 4.49352052 5.99514383 4.49352052 "></polygon>
                            <polygon id="Triangle-1" fill="#FCBDBF" transform="translate(18.982194, 2.000000) scale(-1, 1) translate(-18.982194, -2.000000) " points="19.9037763 0.0419566818 22.4769332 4.49352052 15.982194 4.49352052 "></polygon>
                        </g>
                    </g>
                    <g id="Flower-56" transform="translate(208.000000, 163.000000)">
                        <rect id="Rectangle-221" fill="#9AC771" x="9.99190638" y="12.9812815" width="1.99838128" height="22.9668826"></rect>
                        <path d="M10.991097,19.48263 L10.991097,23.0525447 L18.1152998,26.9611231 L21.4825987,23.0525447 L18.6241714,18.9726422 L10.991097,19.48263 Z" id="Rectangle-221" fill="#96C66A"></path>
                        <path d="M10.991097,22.9668826 L18.1152998,26.9611231 L21.4825987,22.9668826 L10.991097,22.9668826 Z" id="Rectangle-222" fill="#8BB465"></path>
                        <g id="Ruby">
                            <path d="M0,4.49352052 L10.9922523,16.1132457 L6.49673426,4.49352052 L0,4.49352052 Z" id="Path-15" fill="#B63033"></path>
                            <path d="M10.982194,4.49352052 L22.2548505,16.0619762 L17.469758,4.49352052 L10.982194,4.49352052 Z" id="Path-15" fill="#D74D50" transform="translate(16.482194, 10.493521) scale(-1, 1) translate(-16.482194, -10.493521) "></path>
                            <path d="M5.99514383,4.49352052 L10.7412994,15.9769618 L16.4874549,4.49352052 L5.99514383,4.49352052 Z" id="Path-16" fill="#C53A3D"></path>
                            <polygon id="Triangle-1" fill="#DF7D80" points="4.0899086 -0.0234730057 6.49473915 4.49352052 0 4.49352052 "></polygon>
                            <path d="M3.99676255,0 L10.991097,0 L5.98977183,4.49352052 L3.99676255,0 Z" id="Triangle-1" fill="#C53A3D"></path>
                            <path d="M10.991097,0 L17.9854315,0 L15.9043787,4.49352052 L10.991097,0 Z" id="Triangle-1" fill="#D74D50"></path>
                            <polygon id="Triangle-1" fill="#F9A3A5" points="10.9405171 -2.84217094e-14 16.4874549 4.49352052 5.99514383 4.49352052 "></polygon>
                            <polygon id="Triangle-1" fill="#FCBDBF" transform="translate(18.982194, 2.000000) scale(-1, 1) translate(-18.982194, -2.000000) " points="19.9037763 0.0419566818 22.4769332 4.49352052 15.982194 4.49352052 "></polygon>
                        </g>
                    </g>
                    <g id="Flower-57" transform="translate(88.000000, 103.000000)">
                        <rect id="Rectangle-221" fill="#9AC771" x="9.99190638" y="12.9812815" width="1.99838128" height="22.9668826"></rect>
                        <path d="M10.991097,19.48263 L10.991097,23.0525447 L18.1152998,26.9611231 L21.4825987,23.0525447 L18.6241714,18.9726422 L10.991097,19.48263 Z" id="Rectangle-221" fill="#96C66A"></path>
                        <path d="M10.991097,22.9668826 L18.1152998,26.9611231 L21.4825987,22.9668826 L10.991097,22.9668826 Z" id="Rectangle-222" fill="#8BB465"></path>
                        <g id="Ruby">
                            <path d="M0,4.49352052 L10.9922523,16.1132457 L6.49673426,4.49352052 L0,4.49352052 Z" id="Path-15" fill="#B63033"></path>
                            <path d="M10.982194,4.49352052 L22.2548505,16.0619762 L17.469758,4.49352052 L10.982194,4.49352052 Z" id="Path-15" fill="#D74D50" transform="translate(16.482194, 10.493521) scale(-1, 1) translate(-16.482194, -10.493521) "></path>
                            <path d="M5.99514383,4.49352052 L10.7412994,15.9769618 L16.4874549,4.49352052 L5.99514383,4.49352052 Z" id="Path-16" fill="#C53A3D"></path>
                            <polygon id="Triangle-1" fill="#DF7D80" points="4.0899086 -0.0234730057 6.49473915 4.49352052 0 4.49352052 "></polygon>
                            <path d="M3.99676255,0 L10.991097,0 L5.98977183,4.49352052 L3.99676255,0 Z" id="Triangle-1" fill="#C53A3D"></path>
                            <path d="M10.991097,0 L17.9854315,0 L15.9043787,4.49352052 L10.991097,0 Z" id="Triangle-1" fill="#D74D50"></path>
                            <polygon id="Triangle-1" fill="#F9A3A5" points="10.9405171 -2.84217094e-14 16.4874549 4.49352052 5.99514383 4.49352052 "></polygon>
                            <polygon id="Triangle-1" fill="#FCBDBF" transform="translate(18.982194, 2.000000) scale(-1, 1) translate(-18.982194, -2.000000) " points="19.9037763 0.0419566818 22.4769332 4.49352052 15.982194 4.49352052 "></polygon>
                        </g>
                    </g>
                    <g id="Flower-47" transform="translate(1705.115658, 24.019078)">
                        <rect id="Rectangle-221" fill="#9AC771" x="9.99190638" y="12.9812815" width="1.99838128" height="22.9668826"></rect>
                        <path d="M10.991097,19.48263 L10.991097,23.0525447 L18.1152998,26.9611231 L21.4825987,23.0525447 L18.6241714,18.9726422 L10.991097,19.48263 Z" id="Rectangle-221" fill="#96C66A"></path>
                        <path d="M10.991097,22.9668826 L18.1152998,26.9611231 L21.4825987,22.9668826 L10.991097,22.9668826 Z" id="Rectangle-222" fill="#8BB465"></path>
                        <g id="Ruby">
                            <path d="M0,4.49352052 L10.9922523,16.1132457 L6.49673426,4.49352052 L0,4.49352052 Z" id="Path-15" fill="#B63033"></path>
                            <path d="M10.982194,4.49352052 L22.2548505,16.0619762 L17.469758,4.49352052 L10.982194,4.49352052 Z" id="Path-15" fill="#D74D50" transform="translate(16.482194, 10.493521) scale(-1, 1) translate(-16.482194, -10.493521) "></path>
                            <path d="M5.99514383,4.49352052 L10.7412994,15.9769618 L16.4874549,4.49352052 L5.99514383,4.49352052 Z" id="Path-16" fill="#C53A3D"></path>
                            <polygon id="Triangle-1" fill="#DF7D80" points="4.0899086 -0.0234730057 6.49473915 4.49352052 0 4.49352052 "></polygon>
                            <path d="M3.99676255,0 L10.991097,0 L5.98977183,4.49352052 L3.99676255,0 Z" id="Triangle-1" fill="#C53A3D"></path>
                            <path d="M10.991097,0 L17.9854315,0 L15.9043787,4.49352052 L10.991097,0 Z" id="Triangle-1" fill="#D74D50"></path>
                            <polygon id="Triangle-1" fill="#F9A3A5" points="10.9405171 -2.84217094e-14 16.4874549 4.49352052 5.99514383 4.49352052 "></polygon>
                            <polygon id="Triangle-1" fill="#FCBDBF" transform="translate(18.982194, 2.000000) scale(-1, 1) translate(-18.982194, -2.000000) " points="19.9037763 0.0419566818 22.4769332 4.49352052 15.982194 4.49352052 "></polygon>
                        </g>
                    </g>
                    <g id="Flower-48" transform="translate(1127.900995, 3.179688)">
                        <rect id="Rectangle-221" fill="#9AC771" x="8.78753864" y="11.4165914" width="1.75750773" height="20.1985849"></rect>
                        <path d="M9.66629251,17.1343043 L9.66629251,20.2739217 L15.9317843,23.7113822 L18.8932081,20.2739217 L16.3793194,16.6857875 L9.66629251,17.1343043 Z" id="Rectangle-221" fill="#96C66A"></path>
                        <path d="M9.66629251,20.1985849 L15.9317843,23.7113822 L18.8932081,20.1985849 L9.66629251,20.1985849 Z" id="Rectangle-222" fill="#8BB465"></path>
                        <g id="Ruby">
                            <path d="M0,3.95189704 L9.66730859,14.1710465 L5.71365475,3.95189704 L0,3.95189704 Z" id="Path-15" fill="#B63033"></path>
                            <path d="M9.65846264,3.95189704 L19.572377,14.1259567 L15.3640524,3.95189704 L9.65846264,3.95189704 Z" id="Path-15" fill="#D74D50" transform="translate(14.495524, 9.228691) scale(-1, 1) translate(-14.495524, -9.228691) "></path>
                            <path d="M5.27252319,3.95189704 L9.44660404,14.0511895 L14.5001506,3.95189704 L5.27252319,3.95189704 Z" id="Path-16" fill="#C53A3D"></path>
                            <polygon id="Triangle-1" fill="#DF7D80" points="3.59693421 -0.0206437027 5.71190012 3.95189704 0 3.95189704 "></polygon>
                            <path d="M3.51501546,0 L9.66629251,0 L5.2677987,3.95189704 L3.51501546,0 Z" id="Triangle-1" fill="#C53A3D"></path>
                            <path d="M9.66629251,0 L15.8175696,0 L13.9873551,3.95189704 L9.66629251,0 Z" id="Triangle-1" fill="#D74D50"></path>
                            <polygon id="Triangle-1" fill="#F9A3A5" points="9.62180925 -2.49959177e-14 14.5001506 3.95189704 5.27252319 3.95189704 "></polygon>
                            <polygon id="Triangle-1" fill="#FCBDBF" transform="translate(16.694188, 1.758931) scale(-1, 1) translate(-16.694188, -1.758931) " points="17.5046879 0.0368994613 19.7676911 3.95189704 14.055791 3.95189704 "></polygon>
                        </g>
                    </g>
                    <g id="Flower-49" transform="translate(1234.642219, 30.769001)">
                        <rect id="Rectangle-221" fill="#9AC771" x="8.78753864" y="11.4165914" width="1.75750773" height="20.1985849"></rect>
                        <path d="M9.66629251,17.1343043 L9.66629251,20.2739217 L15.9317843,23.7113822 L18.8932081,20.2739217 L16.3793194,16.6857875 L9.66629251,17.1343043 Z" id="Rectangle-221" fill="#96C66A"></path>
                        <path d="M9.66629251,20.1985849 L15.9317843,23.7113822 L18.8932081,20.1985849 L9.66629251,20.1985849 Z" id="Rectangle-222" fill="#8BB465"></path>
                        <g id="Ruby">
                            <path d="M0,3.95189704 L9.66730859,14.1710465 L5.71365475,3.95189704 L0,3.95189704 Z" id="Path-15" fill="#B63033"></path>
                            <path d="M9.65846264,3.95189704 L19.572377,14.1259567 L15.3640524,3.95189704 L9.65846264,3.95189704 Z" id="Path-15" fill="#D74D50" transform="translate(14.495524, 9.228691) scale(-1, 1) translate(-14.495524, -9.228691) "></path>
                            <path d="M5.27252319,3.95189704 L9.44660404,14.0511895 L14.5001506,3.95189704 L5.27252319,3.95189704 Z" id="Path-16" fill="#C53A3D"></path>
                            <polygon id="Triangle-1" fill="#DF7D80" points="3.59693421 -0.0206437027 5.71190012 3.95189704 0 3.95189704 "></polygon>
                            <path d="M3.51501546,0 L9.66629251,0 L5.2677987,3.95189704 L3.51501546,0 Z" id="Triangle-1" fill="#C53A3D"></path>
                            <path d="M9.66629251,0 L15.8175696,0 L13.9873551,3.95189704 L9.66629251,0 Z" id="Triangle-1" fill="#D74D50"></path>
                            <polygon id="Triangle-1" fill="#F9A3A5" points="9.62180925 -2.49959177e-14 14.5001506 3.95189704 5.27252319 3.95189704 "></polygon>
                            <polygon id="Triangle-1" fill="#FCBDBF" transform="translate(16.694188, 1.758931) scale(-1, 1) translate(-16.694188, -1.758931) " points="17.5046879 0.0368994613 19.7676911 3.95189704 14.055791 3.95189704 "></polygon>
                        </g>
                    </g>
                    <g id="Flower-50" transform="translate(1305.115658, 94.019078)">
                        <rect id="Rectangle-221" fill="#9AC771" x="9.99190638" y="12.9812815" width="1.99838128" height="22.9668826"></rect>
                        <path d="M10.991097,19.48263 L10.991097,23.0525447 L18.1152998,26.9611231 L21.4825987,23.0525447 L18.6241714,18.9726422 L10.991097,19.48263 Z" id="Rectangle-221" fill="#96C66A"></path>
                        <path d="M10.991097,22.9668826 L18.1152998,26.9611231 L21.4825987,22.9668826 L10.991097,22.9668826 Z" id="Rectangle-222" fill="#8BB465"></path>
                        <g id="Ruby">
                            <path d="M0,4.49352052 L10.9922523,16.1132457 L6.49673426,4.49352052 L0,4.49352052 Z" id="Path-15" fill="#B63033"></path>
                            <path d="M10.982194,4.49352052 L22.2548505,16.0619762 L17.469758,4.49352052 L10.982194,4.49352052 Z" id="Path-15" fill="#D74D50" transform="translate(16.482194, 10.493521) scale(-1, 1) translate(-16.482194, -10.493521) "></path>
                            <path d="M5.99514383,4.49352052 L10.7412994,15.9769618 L16.4874549,4.49352052 L5.99514383,4.49352052 Z" id="Path-16" fill="#C53A3D"></path>
                            <polygon id="Triangle-1" fill="#DF7D80" points="4.0899086 -0.0234730057 6.49473915 4.49352052 0 4.49352052 "></polygon>
                            <path d="M3.99676255,0 L10.991097,0 L5.98977183,4.49352052 L3.99676255,0 Z" id="Triangle-1" fill="#C53A3D"></path>
                            <path d="M10.991097,0 L17.9854315,0 L15.9043787,4.49352052 L10.991097,0 Z" id="Triangle-1" fill="#D74D50"></path>
                            <polygon id="Triangle-1" fill="#F9A3A5" points="10.9405171 -2.84217094e-14 16.4874549 4.49352052 5.99514383 4.49352052 "></polygon>
                            <polygon id="Triangle-1" fill="#FCBDBF" transform="translate(18.982194, 2.000000) scale(-1, 1) translate(-18.982194, -2.000000) " points="19.9037763 0.0419566818 22.4769332 4.49352052 15.982194 4.49352052 "></polygon>
                        </g>
                    </g>
                    <g id="Flower-51" transform="translate(1377.767413, 18.358314)">
                        <rect id="Rectangle-221" fill="#9AC771" x="8.78753864" y="11.4165914" width="1.75750773" height="20.1985849"></rect>
                        <path d="M9.66629251,17.1343043 L9.66629251,20.2739217 L15.9317843,23.7113822 L18.8932081,20.2739217 L16.3793194,16.6857875 L9.66629251,17.1343043 Z" id="Rectangle-221" fill="#96C66A"></path>
                        <path d="M9.66629251,20.1985849 L15.9317843,23.7113822 L18.8932081,20.1985849 L9.66629251,20.1985849 Z" id="Rectangle-222" fill="#8BB465"></path>
                        <g id="Ruby">
                            <path d="M0,3.95189704 L9.66730859,14.1710465 L5.71365475,3.95189704 L0,3.95189704 Z" id="Path-15" fill="#B63033"></path>
                            <path d="M9.65846264,3.95189704 L19.572377,14.1259567 L15.3640524,3.95189704 L9.65846264,3.95189704 Z" id="Path-15" fill="#D74D50" transform="translate(14.495524, 9.228691) scale(-1, 1) translate(-14.495524, -9.228691) "></path>
                            <path d="M5.27252319,3.95189704 L9.44660404,14.0511895 L14.5001506,3.95189704 L5.27252319,3.95189704 Z" id="Path-16" fill="#C53A3D"></path>
                            <polygon id="Triangle-1" fill="#DF7D80" points="3.59693421 -0.0206437027 5.71190012 3.95189704 0 3.95189704 "></polygon>
                            <path d="M3.51501546,0 L9.66629251,0 L5.2677987,3.95189704 L3.51501546,0 Z" id="Triangle-1" fill="#C53A3D"></path>
                            <path d="M9.66629251,0 L15.8175696,0 L13.9873551,3.95189704 L9.66629251,0 Z" id="Triangle-1" fill="#D74D50"></path>
                            <polygon id="Triangle-1" fill="#F9A3A5" points="9.62180925 -2.49959177e-14 14.5001506 3.95189704 5.27252319 3.95189704 "></polygon>
                            <polygon id="Triangle-1" fill="#FCBDBF" transform="translate(16.694188, 1.758931) scale(-1, 1) translate(-16.694188, -1.758931) " points="17.5046879 0.0368994613 19.7676911 3.95189704 14.055791 3.95189704 "></polygon>
                        </g>
                    </g>
                    <g id="Flower-54" transform="translate(80.000000, 16.000000)">
                        <rect id="Rectangle-221" fill="#9AC771" x="8.78753864" y="11.4165914" width="1.75750773" height="20.1985849"></rect>
                        <path d="M9.66629251,17.1343043 L9.66629251,20.2739217 L15.9317843,23.7113822 L18.8932081,20.2739217 L16.3793194,16.6857875 L9.66629251,17.1343043 Z" id="Rectangle-221" fill="#96C66A"></path>
                        <path d="M9.66629251,20.1985849 L15.9317843,23.7113822 L18.8932081,20.1985849 L9.66629251,20.1985849 Z" id="Rectangle-222" fill="#8BB465"></path>
                        <g id="Ruby">
                            <path d="M0,3.95189704 L9.66730859,14.1710465 L5.71365475,3.95189704 L0,3.95189704 Z" id="Path-15" fill="#B63033"></path>
                            <path d="M9.65846264,3.95189704 L19.572377,14.1259567 L15.3640524,3.95189704 L9.65846264,3.95189704 Z" id="Path-15" fill="#D74D50" transform="translate(14.495524, 9.228691) scale(-1, 1) translate(-14.495524, -9.228691) "></path>
                            <path d="M5.27252319,3.95189704 L9.44660404,14.0511895 L14.5001506,3.95189704 L5.27252319,3.95189704 Z" id="Path-16" fill="#C53A3D"></path>
                            <polygon id="Triangle-1" fill="#DF7D80" points="3.59693421 -0.0206437027 5.71190012 3.95189704 0 3.95189704 "></polygon>
                            <path d="M3.51501546,0 L9.66629251,0 L5.2677987,3.95189704 L3.51501546,0 Z" id="Triangle-1" fill="#C53A3D"></path>
                            <path d="M9.66629251,0 L15.8175696,0 L13.9873551,3.95189704 L9.66629251,0 Z" id="Triangle-1" fill="#D74D50"></path>
                            <polygon id="Triangle-1" fill="#F9A3A5" points="9.62180925 -2.49959177e-14 14.5001506 3.95189704 5.27252319 3.95189704 "></polygon>
                            <polygon id="Triangle-1" fill="#FCBDBF" transform="translate(16.694188, 1.758931) scale(-1, 1) translate(-16.694188, -1.758931) " points="17.5046879 0.0368994613 19.7676911 3.95189704 14.055791 3.95189704 "></polygon>
                        </g>
                    </g>
                    <g id="Flower-58" transform="translate(0.000000, 46.000000)">
                        <rect id="Rectangle-221" fill="#9AC771" x="8.78753864" y="11.4165914" width="1.75750773" height="20.1985849"></rect>
                        <path d="M9.66629251,17.1343043 L9.66629251,20.2739217 L15.9317843,23.7113822 L18.8932081,20.2739217 L16.3793194,16.6857875 L9.66629251,17.1343043 Z" id="Rectangle-221" fill="#96C66A"></path>
                        <path d="M9.66629251,20.1985849 L15.9317843,23.7113822 L18.8932081,20.1985849 L9.66629251,20.1985849 Z" id="Rectangle-222" fill="#8BB465"></path>
                        <g id="Ruby">
                            <path d="M0,3.95189704 L9.66730859,14.1710465 L5.71365475,3.95189704 L0,3.95189704 Z" id="Path-15" fill="#B63033"></path>
                            <path d="M9.65846264,3.95189704 L19.572377,14.1259567 L15.3640524,3.95189704 L9.65846264,3.95189704 Z" id="Path-15" fill="#D74D50" transform="translate(14.495524, 9.228691) scale(-1, 1) translate(-14.495524, -9.228691) "></path>
                            <path d="M5.27252319,3.95189704 L9.44660404,14.0511895 L14.5001506,3.95189704 L5.27252319,3.95189704 Z" id="Path-16" fill="#C53A3D"></path>
                            <polygon id="Triangle-1" fill="#DF7D80" points="3.59693421 -0.0206437027 5.71190012 3.95189704 0 3.95189704 "></polygon>
                            <path d="M3.51501546,0 L9.66629251,0 L5.2677987,3.95189704 L3.51501546,0 Z" id="Triangle-1" fill="#C53A3D"></path>
                            <path d="M9.66629251,0 L15.8175696,0 L13.9873551,3.95189704 L9.66629251,0 Z" id="Triangle-1" fill="#D74D50"></path>
                            <polygon id="Triangle-1" fill="#F9A3A5" points="9.62180925 -2.49959177e-14 14.5001506 3.95189704 5.27252319 3.95189704 "></polygon>
                            <polygon id="Triangle-1" fill="#FCBDBF" transform="translate(16.694188, 1.758931) scale(-1, 1) translate(-16.694188, -1.758931) " points="17.5046879 0.0368994613 19.7676911 3.95189704 14.055791 3.95189704 "></polygon>
                        </g>
                    </g>
                    <g id="Flower-52" transform="translate(516.000000, 13.000000)">
                        <rect id="Rectangle-221" fill="#9AC771" x="8.78753864" y="11.4165914" width="1.75750773" height="20.1985849"></rect>
                        <path d="M9.66629251,17.1343043 L9.66629251,20.2739217 L15.9317843,23.7113822 L18.8932081,20.2739217 L16.3793194,16.6857875 L9.66629251,17.1343043 Z" id="Rectangle-221" fill="#96C66A"></path>
                        <path d="M9.66629251,20.1985849 L15.9317843,23.7113822 L18.8932081,20.1985849 L9.66629251,20.1985849 Z" id="Rectangle-222" fill="#8BB465"></path>
                        <g id="Ruby">
                            <path d="M0,3.95189704 L9.66730859,14.1710465 L5.71365475,3.95189704 L0,3.95189704 Z" id="Path-15" fill="#B63033"></path>
                            <path d="M9.65846264,3.95189704 L19.572377,14.1259567 L15.3640524,3.95189704 L9.65846264,3.95189704 Z" id="Path-15" fill="#D74D50" transform="translate(14.495524, 9.228691) scale(-1, 1) translate(-14.495524, -9.228691) "></path>
                            <path d="M5.27252319,3.95189704 L9.44660404,14.0511895 L14.5001506,3.95189704 L5.27252319,3.95189704 Z" id="Path-16" fill="#C53A3D"></path>
                            <polygon id="Triangle-1" fill="#DF7D80" points="3.59693421 -0.0206437027 5.71190012 3.95189704 0 3.95189704 "></polygon>
                            <path d="M3.51501546,0 L9.66629251,0 L5.2677987,3.95189704 L3.51501546,0 Z" id="Triangle-1" fill="#C53A3D"></path>
                            <path d="M9.66629251,0 L15.8175696,0 L13.9873551,3.95189704 L9.66629251,0 Z" id="Triangle-1" fill="#D74D50"></path>
                            <polygon id="Triangle-1" fill="#F9A3A5" points="9.62180925 -2.49959177e-14 14.5001506 3.95189704 5.27252319 3.95189704 "></polygon>
                            <polygon id="Triangle-1" fill="#FCBDBF" transform="translate(16.694188, 1.758931) scale(-1, 1) translate(-16.694188, -1.758931) " points="17.5046879 0.0368994613 19.7676911 3.95189704 14.055791 3.95189704 "></polygon>
                        </g>
                    </g>
                    <g id="Flower-53" transform="translate(659.000000, 0.000000)">
                        <rect id="Rectangle-221" fill="#9AC771" x="8.78753864" y="11.4165914" width="1.75750773" height="20.1985849"></rect>
                        <path d="M9.66629251,17.1343043 L9.66629251,20.2739217 L15.9317843,23.7113822 L18.8932081,20.2739217 L16.3793194,16.6857875 L9.66629251,17.1343043 Z" id="Rectangle-221" fill="#96C66A"></path>
                        <path d="M9.66629251,20.1985849 L15.9317843,23.7113822 L18.8932081,20.1985849 L9.66629251,20.1985849 Z" id="Rectangle-222" fill="#8BB465"></path>
                        <g id="Ruby">
                            <path d="M0,3.95189704 L9.66730859,14.1710465 L5.71365475,3.95189704 L0,3.95189704 Z" id="Path-15" fill="#B63033"></path>
                            <path d="M9.65846264,3.95189704 L19.572377,14.1259567 L15.3640524,3.95189704 L9.65846264,3.95189704 Z" id="Path-15" fill="#D74D50" transform="translate(14.495524, 9.228691) scale(-1, 1) translate(-14.495524, -9.228691) "></path>
                            <path d="M5.27252319,3.95189704 L9.44660404,14.0511895 L14.5001506,3.95189704 L5.27252319,3.95189704 Z" id="Path-16" fill="#C53A3D"></path>
                            <polygon id="Triangle-1" fill="#DF7D80" points="3.59693421 -0.0206437027 5.71190012 3.95189704 0 3.95189704 "></polygon>
                            <path d="M3.51501546,0 L9.66629251,0 L5.2677987,3.95189704 L3.51501546,0 Z" id="Triangle-1" fill="#C53A3D"></path>
                            <path d="M9.66629251,0 L15.8175696,0 L13.9873551,3.95189704 L9.66629251,0 Z" id="Triangle-1" fill="#D74D50"></path>
                            <polygon id="Triangle-1" fill="#F9A3A5" points="9.62180925 -2.49959177e-14 14.5001506 3.95189704 5.27252319 3.95189704 "></polygon>
                            <polygon id="Triangle-1" fill="#FCBDBF" transform="translate(16.694188, 1.758931) scale(-1, 1) translate(-16.694188, -1.758931) " points="17.5046879 0.0368994613 19.7676911 3.95189704 14.055791 3.95189704 "></polygon>
                        </g>
                    </g>
                    <g id="Flower-5" transform="translate(1715.115658, 264.019078)">
                        <rect id="Rectangle-221" fill="#9AC771" x="9.99190638" y="12.9812815" width="1.99838128" height="22.9668826"></rect>
                        <path d="M10.991097,19.48263 L10.991097,23.0525447 L18.1152998,26.9611231 L21.4825987,23.0525447 L18.6241714,18.9726422 L10.991097,19.48263 Z" id="Rectangle-221" fill="#96C66A"></path>
                        <path d="M10.991097,22.9668826 L18.1152998,26.9611231 L21.4825987,22.9668826 L10.991097,22.9668826 Z" id="Rectangle-222" fill="#8BB465"></path>
                        <g id="Ruby">
                            <path d="M0,4.49352052 L10.9922523,16.1132457 L6.49673426,4.49352052 L0,4.49352052 Z" id="Path-15" fill="#B63033"></path>
                            <path d="M10.982194,4.49352052 L22.2548505,16.0619762 L17.469758,4.49352052 L10.982194,4.49352052 Z" id="Path-15" fill="#D74D50" transform="translate(16.482194, 10.493521) scale(-1, 1) translate(-16.482194, -10.493521) "></path>
                            <path d="M5.99514383,4.49352052 L10.7412994,15.9769618 L16.4874549,4.49352052 L5.99514383,4.49352052 Z" id="Path-16" fill="#C53A3D"></path>
                            <polygon id="Triangle-1" fill="#DF7D80" points="4.0899086 -0.0234730057 6.49473915 4.49352052 0 4.49352052 "></polygon>
                            <path d="M3.99676255,0 L10.991097,0 L5.98977183,4.49352052 L3.99676255,0 Z" id="Triangle-1" fill="#C53A3D"></path>
                            <path d="M10.991097,0 L17.9854315,0 L15.9043787,4.49352052 L10.991097,0 Z" id="Triangle-1" fill="#D74D50"></path>
                            <polygon id="Triangle-1" fill="#F9A3A5" points="10.9405171 -2.84217094e-14 16.4874549 4.49352052 5.99514383 4.49352052 "></polygon>
                            <polygon id="Triangle-1" fill="#FCBDBF" transform="translate(18.982194, 2.000000) scale(-1, 1) translate(-18.982194, -2.000000) " points="19.9037763 0.0419566818 22.4769332 4.49352052 15.982194 4.49352052 "></polygon>
                        </g>
                    </g>
                </g>
            </g>
        </g>
    </g>
</svg>