<svg width="1913" height="1389" viewBox="0 0 1913 1389" xmlns="http://www.w3.org/2000/svg" xmlns:xlink="http://www.w3.org/1999/xlink" xmlns:sketch="http://www.bohemiancoding.com/sketch/ns"><title>Foreground</title><defs><path id="a" d="M62.275 15v2.69h-1.453v-2.69h-4.695v2.69h-1.454v-2.69h-4.843v2.69h-1.452v-2.69h-3.922s-7.263 26.5 10.749 26.5 10.942-26.5 10.942-26.5h-3.873z"/><path id="b" d="M55.513 53.5h-1v-12h1v12z"/><path id="c" d="M45.011 53.5v1h21.505v-1h-21.505z"/></defs><g sketch:type="MSLayerGroup" fill="none"><g sketch:type="MSShapeGroup"><g><path fill="#BFBFBF" d="M841.727 235.5h255.06v133.5h-255.06z"/><path d="M841.727 277v92.5h39.509l-39.509-92.5z" fill="#9D9D9D"/><path d="M841.727 277l72.801 38.121 4.218 54.379h-37.531l-39.487-92.5z" fill="#A0A0A0"/><path d="M841.727 276.998l73.017 38.502-45.02-80h-27.997v41.498z" fill="#9C9C9C"/><path d="M934.664 235.5l43.095 103.5-62.892-24.136-45.133-79.364h64.93z" fill="#B6B6B6"/><path d="M933.749 235.5l-19.028 80-44.987-80h64.015z" fill="#ACACAC"/><path d="M1035.796 235.5l-19.027 80 80.019-80h-60.992z" fill="#D6D6D6"/><path d="M1036.273 235.5l-19.115 80-83.91-80h103.024z" fill="#C7C7C7"/><path d="M1016.769 314.928l80.519-80.428v135l-80.519-54.572z" fill="#E1E1E1"/><path d="M1016.769 314.918l37.39-37.418 43.129 92-80.519-54.582z" fill="#D3D3D3"/><path fill="#686868" d="M841.727 235.5h255.06v133.5h-255.06z"/><path d="M841.727 225.5v144h90.521l-90.521-144z" fill="#696666"/><path d="M841.727 225.5h71.161l19.36 144-90.521-144z" fill="#6F6F6F"/><path d="M1020.77 369.5l-57.115-144h-50.911l19.344 144h88.682z" fill="#797979"/><path d="M1021.077 369.5l-57.321-144h139.033l-81.712 144z" fill="#848484"/><path d="M1019.269 369.5l78.018-135v135h-78.018z" fill="#909090"/><path d="M1107.29 172h-33.108v12.567l-11.903 30.357 2.212 21.076h42.799v-64z" fill="#7F7F7F"/><path d="M874.203 184.963h-13.375v-12.963h-33.105v64h76.018l-29.539-51.037z" fill="#565656"/><path d="M899.507 236l-29.273-51h64.093l56.436 51h-91.256z" fill="#626262"/><path d="M915.745 185.592v-15.592h97.084v15.592l38.949 50.408h-97.705l-38.327-50.408z" fill="#6F6F6F"/><path d="M915.745 185.592v-15.592h53.309v15.592l26.71 50.408h-41.941l-38.078-50.408z" fill="#6B6A6A"/><path d="M1074.051 185h-61.783l10.015 51h66.003l-14.235-51z" fill="#767676"/></g><g id="tower"><path id="Rectangle-21" fill="#777" d="M572.163 235.5h153.036v133.5h-153.036z"/><path d="M572.163 233v136.5h78.519l-78.519-136.5z" id="Rectangle-12" fill="#6D6D6D"/><path d="M648.181 369.5l22.686-135h54.833v135h-77.518z" id="Rectangle-18" fill="#7F7F7F"/><path d="M735.702 172h-25.568v12.567l-5.63 30.357-11.812 21.076h43.01v-64z" id="Rectangle-8" fill="#828282"/><path d="M587.587 184.963v-12.963h-25.426v64h76.018l-50.592-51.037z" id="Rectangle-20" fill="#565656"/><path d="M616.947 236l-29.28-51h37.092l55.43 51h-63.242z" id="Rectangle-22" fill="#626262"/><path d="M623.676 184.54v-12.54h51.118v12.54l34.902 51.46h-34.902l-51.118-51.46z" id="Rectangle-23" fill="#6B6A6A"/><path d="M709.791 185h-36.603l31.007 51h31.007l-25.411-51z" id="Rectangle-9" fill="#747474"/></g><g><path fill="#777" d="M1209.814 235.5h153.036v133.5h-153.036z"/><path d="M1209.814 233v136.5h78.519l-78.519-136.5z" fill="#6D6D6D"/><path d="M1285.832 369.5l22.686-135h54.833v135h-77.518z" fill="#7F7F7F"/><path d="M1373.353 172h-25.568v12.567l-5.63 30.357-11.812 21.076h43.01v-64z" id="Rectangle-8" fill="#828282"/><path d="M1225.238 184.963v-12.963h-25.426v64h76.018l-50.592-51.037z" fill="#565656"/><path d="M1254.598 236l-29.28-51h37.092l55.43 51h-63.242z" fill="#626262"/><path d="M1261.327 184.54v-12.54h51.118v12.54l34.902 51.46h-34.902l-51.118-51.46z" fill="#6B6A6A"/><path d="M1347.442 185h-36.603l31.007 51h31.007l-25.411-51z" id="Rectangle-9" fill="#747474"/></g><g><path fill="#E1E1E1" d="M561.161 365h800.19v402.5h-800.19z"/><path d="M561.161 365v402.5h315.575l-315.575-402.5z" fill="#C4C4C4"/><path d="M829.193 711l-171.009 56.5h218.552l-47.542-56.5z" fill="#B8B8B8"/><path d="M765.307 626l-107.123 141.5 174.541-51.974-67.419-89.526z" fill="#C3C3C3"/><path d="M765.209 626.122l-107.025 141.378 59.749-202 47.276 60.622z" fill="#BFBFBF"/><path d="M561.161 365v402.5l158.037-201.25-158.037-201.25z" fill="#C1C1C1"/><path d="M561.161 365v258.5l101.524-129.25-101.524-129.25z" fill="#bbb"/><path d="M561.161 365h253.998l61.576 402.5-315.575-402.5z" fill="#CCCBCB"/><path d="M561.161 365h254.06l-152.799 130-101.261-130z" fill="#C5C5C5"/><path d="M718.698 566.25l96.864-201.25 61.674 402.5-158.538-201.25z" fill="#D1D1D1"/><path d="M718.198 566.162l121.529-31.162-74.697 91-46.831-59.838z" fill="#ccc"/><path d="M869.734 764l-29.57-229-74.955 91.233 104.525 137.767z" fill="#D1D1D1"/><path d="M1096.788 767.5l-215.419-402.5h-66.147l61.563 402.5h220.004z" fill="#D4D4D4"/><path d="M914.745 430.48l-99.524-65.48 61.576 402.5 37.947-337.02z" fill="#CFCFCF"/><path d="M914.913 430.5l37.341 70.08-54.513 83.92 17.172-154z" fill="#ccc"/><path d="M914.745 430.5l37.313 70 104.22-70h-141.534z" fill="#D3D2D2"/><path d="M914.745 430.5l-74.018 104.918 56.862 49.082 17.156-154z" fill="#D3D3D3"/><path d="M1096.288 767.5l-217.552-402.5h170.977l46.575 402.5z" fill="#DFDFDF"/><path d="M1096.288 767.5l-44.01-78.549 18.327-141.951 25.684 220.5z" fill="#DBDBDB"/><path d="M952.281 501l-73.545-136h171.041l-97.496 136z" fill="#DCDBDB"/><path d="M952.253 501.047l118.028 46.953-20.614-183-97.414 136.047z" fill="#E5E4E4"/><path d="M1096.288 767.5l109.526-160.028-8.923-73.472-100.603 233.5z" fill="#EAEAEA"/><path d="M1096.395 767.5l81.912-336.215-130.031-66.285 48.119 402.5z" fill="#E5E4E4"/><path d="M1070.755 549.5l107.552-118.133-130.031-66.367 22.479 184.5z" fill="#EAEAEA"/><path d="M1070.782 549.599l107.525-118.099-41.545 172-65.98-53.901z" fill="#E1E1E1"/><path d="M1096.288 767.5l81.865-336 16.659 114.848-98.523 221.152z" fill="#E4E4E4"/><path d="M1204.883 605.5l159.468-240.5-188.545 64.658 29.077 175.842z" fill="#F7F7F7"/><path d="M1204.874 604.5l41.45-175h-70.517l29.067 175z" fill="#F2F2F2"/><path d="M1195.257 546l51.066-116.5h-70.517l19.45 116.5z" fill="#E8E8E8"/><path d="M1246.823 666l117.528-148v142.288l-117.528 5.712z" fill="#F9F9F9"/><path d="M1246.769 666.5l117.582-147.5-160.038 85.183 42.456 62.317z" fill="#F7F7F7"/><path d="M1204.813 604.5l159.538-242v156.813l-159.538 85.187z" fill="#F5F5F5"/><path d="M1096.288 767.5l108.789-163 44.247 60.936-153.036 102.064z" fill="#F2F2F2"/><path d="M1096.288 767.5l268.063-181.5v181.5h-268.063z" fill="#F5F5F5"/><path fill="#ECECEC" d="M541.156 360.5h840.199v70h-840.199z"/><path d="M610.664 319.5h-70.008v111h131.031l-61.023-69.931v-41.069z" fill="#A3A3A3"/><path d="M736.197 319.5h-70.005v41.069h-55.519l55.519 69.931h131.025l-61.02-69.931v-41.069z" fill="#ADADAD"/><path d="M861.227 319.5h-70.005v41.069h-55.519l55.519 69.931h128.524l-58.519-69.931v-41.069z" fill="#B5B5B5"/><path d="M1132.208 319.5h-70.1v41.069h-35.836l29.933 69.931h137.106l-30.782-69.931h-30.321v-41.069z" fill="#C8C8C8"/><path d="M1252.893 319.5h-69.921v41.069h-25.67l19.782 69.931h136.755l-32.631-69.931h-28.316v-41.069z" fill="#D3D3D3"/><path d="M1381.855 319.5h-70.076v41.069h-30.948l25.047 69.931h75.977v-111z" fill="#DADADA"/><path d="M995.758 319.5h-70.005v41.069h-65.521l55.52 69.931h141.027l-24.994-69.931h-36.026v-41.069z" fill="#C2C1C1"/></g><g><g><path d="M960.755 587.5l.5 180h100.524v-180h-101.024z" fill="#987C57"/><path d="M961.755 767.5h100.024v-180l-100.024 180z" fill="#AE9574"/></g><g><path fill="#8B6D46" d="M861.732 587.5h100.024v180h-100.024z"/><path d="M861.732 587.5v180h100.024l-100.024-180z" fill="#816139"/></g><g><path fill="#B59537" d="M896.74 671.5h130.031v24h-130.031z"/><path d="M896.74 671.5v24h65.015l-65.015-24z" fill="#A6892F"/><path d="M896.74 671.5h130.031l-64.997 24-65.034-24z" fill="#AC903A"/></g><g fill="#4D4D4D"><path d="M921.246 687.5h22.505v17h-22.505z"/><path d="M979.26 687.5h22.505v17h-22.505z"/></g></g></g><g sketch:type="MSShapeGroup"><path d="M.028 765v406.5l258.561-252.781-153.745-153.719h-104.816z" fill="#EBCF9F"/><path d="M155.299 1020l-155.271-156 252.06 59.876-96.789 96.124z" fill="#EACD99"/><path d="M96.92 1387h-96.892v-215.451l249.059-244.549-152.167 460z" fill="#E6C791"/><path d="M97.051 1387h173.888l120.682-314.807-139.176-157.693-155.394 472.5z" fill="#EED3A4"/><path d="M333.193 1220.5l57.928-148.277-139.033-157.723 81.105 306z" fill="#E8CA96"/><path d="M333.607 1220.5l-131.531-153 50.418-153 81.113 306z" fill="#EACC98"/><path d="M333.607 1220.457l-131.531-152.957 69.57 320 61.961-167.043z" fill="#EAC98F"/><path d="M96.551 1387.5l105.442-320 69.599 320h-175.041z" fill="#DEC18C"/><path d="M667.686 1387h-397.094l119.627-317 277.467 317z" fill="#EACD99"/><path d="M333.107 1221l155.037-37.466-97.972-113.534-57.064 151z" fill="#E6C791"/><path d="M667.686 1387l-131.585-405.9-278.512-58.6 410.097 464.5z" fill="#EBCF9F"/><path d="M487.416 1183l48.739-201.933-278.566-58.567 229.827 260.5z" fill="#EACC97"/><path d="M80.547 765l168.301 163.887 286.371 54.113 202.484-218h-657.156z" fill="#E6CC9C"/><path d="M249.087 928.887l286.231 54.113 202.385-218-488.616 163.887z" fill="#E1C593"/><path d="M628.117 1268.5l-93.463-286.002 202.548-217.998-109.085 504z" fill="#EED3A4"/><path d="M735.202 764.5l7.934 447 257.629-293.124-153.644-153.377-111.919-.5z" fill="#EED19D"/><path d="M838.992 1387h-171.449l-45.868-121.864 124.307-99.004 258.784-255.632-165.774 476.5z" fill="#E6C791"/><path d="M949.706 1062.305l-203.502 103.695 258.561-255.5-55.06 151.805z" fill="#EACC97"/><path d="M757.707 1157.936l-136.032 108.064 114.075-501.5 21.957 393.436z" fill="#E8CA95"/><path d="M839.227 1387h173.888l120.682-314.802-134.015-153.698-160.555 468.5z" fill="#EED3A4"/><path d="M839.227 1387l160.538-234.25v-234.25l-160.538 468.5z" fill="#E2C592"/><path d="M1131.796 1082.806l-132.031 70.194v-234.5l132.031 164.306z" fill="#E7C78F"/><path d="M1131.796 1082.5l-132.031 70.187 38.61 170.313 93.422-240.5z" fill="#E9CB95"/><path d="M840.227 1387l159.022-234.5 38.525 170.331-197.547 64.169z" fill="#EBCF9D"/><path d="M1409.862 1387h-397.094l119.627-317 277.467 317z" fill="#EECF97"/><path d="M1409.862 1387h-397.094l207.856-206 189.238 206z" fill="#EAC98F"/><path d="M1409.862 1387l-132.601-404.529-297.001-62.971 429.602 467.5z" fill="#EDCD95"/><path d="M1409.862 1387l-133.648-407-58.398 198.55 192.045 208.45z" fill="#EFCE94"/><path d="M1204.813 970l72.517 12.72-59.431 195.78-13.086-208.5z" fill="#F1D39E"/><path d="M820.222 765l179.702 167.789 277.449 50.211 202.505-218h-659.656z" fill="#EECF97"/><path d="M1098.653 765h-278.431l179.685 167.789 277.423 50.211-178.677-218z" fill="#F0D4A2"/><path d="M1098.788 765h-278.566l179.772 167.5 98.794-167.5z" fill="#EBC98F"/><path d="M1370.634 1269l-95.804-286.254 205.049-217.746-109.245 504z" fill="#EED3A4"/><path d="M1369.545 1274l-94.715-291.5 176.542 129.282-81.827 162.218z" fill="#E4C48C"/><path d="M1752.443 765l-379.09 502.5 243.151-502.5h135.939z" fill="#F0CE93"/><path d="M1752.443 765l-175.542 223 39.616-223h135.926z" fill="#EAC78A"/><path d="M1473.173 765l-102.821 510 247.059-510h-144.238z" fill="#E9C88D"/><path d="M1370.853 1268.754l208.549-283.254-48.814 401.351h-124.972l-34.764-118.097z" fill="#E7C78E"/><path d="M1910.481 1034.604v-269.604l-380.09 622 380.09-352.396z" fill="#EDCD95"/><path d="M1910.481 1030.92l-99.903-99.42-71.638 262 171.541-162.58z" fill="#EFD19C"/><path d="M1738.94 1046.864l71.517-115.364-71.517 262v-146.636z" fill="#E6C487"/><path d="M1739.44 1047l-93.522 234.5 93.522-87.759v-146.741z" fill="#E2BE7F"/><path d="M1912.481 765h-160.538l58.02 166 102.518-166z" fill="#EFD19D"/><path d="M1739.44 1047.5l12.559-282.5 57.958 165.803-70.517 116.697z" fill="#E7C88F"/><path d="M1739.94 1051l-181.061 86.479-28.489 249.521 209.55-336z" fill="#F2D39D"/><path d="M1739.837 1051.073l-180.94 86.427 193.546-373.5-12.606 287.073z" fill="#EFCE94"/><path d="M1578.888 985.95l-19.991 151.55 193.546-373.5-173.555 221.95z" fill="#E2BF80"/><path d="M1910.481 1032.5v354.5h-380.09l380.09-354.5z" fill="#E7C78E"/></g><g sketch:type="MSShapeGroup"><path d="M953.254 764l93.69 170.5 14.836-170.5h-108.526z" fill="#B32B2B"/><path d="M955.279 764l91.497 169.5-185.544-157.207v-12.293h94.047z" fill="#BB3030"/><path d="M944.646 1029l103.631-95.956-187.044-169.044 83.413 265z" fill="#AB2B2B"/><path d="M944.752 1028.843l102.334-95.343 9.693 453.5-112.027-358.157z" fill="#BB3030"/><path d="M862.475 764l-862.446 624 1058.251-1-195.804-623z" fill="#B32B2B"/><path d="M862.233 764l-311.574 224.776 251.927 186.224 59.647-411z" fill="#BB3030"/><path d="M746.914 849l-195.255 140.291 252.06 198.709-56.805-339z" fill="#AB2B2B"/><path d="M862.233 764l-58.514 424 58.514-424z" fill="#AE3B3B"/><path d="M1052.727 1383l-485.88-403.5-566.819 408.5h1911.245l-858.547-5z" fill="#AB2B2B"/><path d="M566.867 979.5l-566.839 408.5 803.19-210.949-236.352-197.551z" fill="#B32B2B"/><path d="M1501.384 1087l-458.109-323 3.545 169.523 454.564 153.477z" fill="#AB2B2B"/><path d="M1499.884 1085.942l-448.136 121.058-5.472-274 453.607 152.942z" fill="#B32E2E"/><path d="M1910.481 1387l-425.484-313-430.718 313h856.202z" fill="#AB2B2B"/><path d="M1050.777 1206.969l435.103-131.969-429.744 311.439-5.359-179.471z" fill="#BA3A3A"/><path d="M1910.481 1387l-424.512-312-174.129 312h598.642z" fill="#AB2B2B"/><path d="M1044.276 764l830.461 623h35.888v-49.414l-848.825-573.586h-17.524z" id="Rectangle-327" fill="#D44747"/><path d="M861.991 764l-861.963 544.105v79.992l877.708-624.098h-15.745z" fill="#992323"/></g><g sketch:type="MSShapeGroup"><g><path id="Rectangle-221" fill="#9AC771" d="M1394.359 937.5h2v23h-2z"/><path d="M1395.36 944.011v3.575l7.132 3.914 3.371-3.914-2.861-4.086-7.641.511z" id="Rectangle-221" fill="#96C66A"/><path d="M1395.36 947.5l7.132 4 3.371-4h-10.502z" id="Rectangle-222" fill="#8BB465"/><g id="Ruby"><path d="M1384.357 929l11.003 11.5-4.499-11.5h-6.504z" id="Path-15" fill="#B63033"/><path d="M1406.362 929l-11.003 11.5 4.508-11.5h6.494z" id="Path-15" fill="#D74D50"/><path d="M1390.358 929l4.751 11.5 4.751-11.5h-9.502z" id="Path-16" fill="#C53A3D"/><path id="Triangle-1" fill="#DF7D80" d="M1388.709 924.5l2.149 4.5h-6.502z"/><path d="M1388.358 924.5h7.002l-5.007 4.5-1.995-4.5z" id="Triangle-1" fill="#C53A3D"/><path d="M1395.36 924.5h7.002l-2.083 4.5-4.918-4.5z" id="Triangle-1" fill="#D74D50"/><path id="Triangle-1" fill="#F9A3A5" d="M1395.309 924.5l4.552 4.5h-9.502z"/><path id="Triangle-1" fill="#FCBDBF" d="M1401.975 924.5l-2.115 4.5h6.502z"/></g></g><g><path id="Rectangle-221" fill="#9AC771" d="M1766.947 937.5h2v23h-2z"/><path d="M1767.948 944.011v3.575l7.132 3.914 3.371-3.914-2.861-4.086-7.641.511z" id="Rectangle-221" fill="#96C66A"/><path d="M1767.948 947.5l7.132 4 3.371-4h-10.502z" id="Rectangle-222" fill="#8BB465"/><g id="Ruby"><path d="M1756.945 929l11.003 11.5-4.499-11.5h-6.504z" id="Path-15" fill="#B63033"/><path d="M1778.95 929l-11.003 11.5 4.508-11.5h6.494z" id="Path-15" fill="#D74D50"/><path d="M1762.946 929l4.751 11.5 4.751-11.5h-9.502z" id="Path-16" fill="#C53A3D"/><path id="Triangle-1" fill="#DF7D80" d="M1761.297 924.5l2.149 4.5h-6.502z"/><path d="M1760.946 924.5h7.002l-5.007 4.5-1.995-4.5z" id="Triangle-1" fill="#C53A3D"/><path d="M1767.948 924.5h7.002l-2.083 4.5-4.918-4.5z" id="Triangle-1" fill="#D74D50"/><path id="Triangle-1" fill="#F9A3A5" d="M1767.897 924.5l4.552 4.5h-9.502z"/><path id="Triangle-1" fill="#FCBDBF" d="M1774.563 924.5l-2.115 4.5h6.502z"/></g></g><g><path id="Rectangle-221" fill="#9AC771" d="M1650.919 1048h2v23h-2z"/><path d="M1651.92 1054.511v3.575l7.132 3.914 3.371-3.914-2.861-4.086-7.641.511z" id="Rectangle-221" fill="#96C66A"/><path d="M1651.92 1058l7.132 4 3.371-4h-10.502z" id="Rectangle-222" fill="#8BB465"/><g id="Ruby"><path d="M1640.917 1039.5l11.003 11.5-4.499-11.5h-6.504z" id="Path-15" fill="#B63033"/><path d="M1662.922 1039.5l-11.003 11.5 4.508-11.5h6.494z" id="Path-15" fill="#D74D50"/><path d="M1646.918 1039.5l4.751 11.5 4.751-11.5h-9.502z" id="Path-16" fill="#C53A3D"/><path id="Triangle-1" fill="#DF7D80" d="M1645.269 1035l2.149 4.5h-6.502z"/><path d="M1644.918 1035h7.002l-5.007 4.5-1.995-4.5z" id="Triangle-1" fill="#C53A3D"/><path d="M1651.92 1035h7.002l-2.083 4.5-4.918-4.5z" id="Triangle-1" fill="#D74D50"/><path id="Triangle-1" fill="#F9A3A5" d="M1651.869 1035l4.552 4.5h-9.502z"/><path id="Triangle-1" fill="#FCBDBF" d="M1658.535 1035l-2.115 4.5h6.502z"/></g></g><g><path id="Rectangle-221" fill="#9AC771" d="M1455.373 837h2v23h-2z"/><path d="M1456.374 843.511v3.575l7.132 3.914 3.371-3.914-2.861-4.086-7.641.511z" id="Rectangle-221" fill="#96C66A"/><path d="M1456.374 847l7.132 4 3.371-4h-10.502z" id="Rectangle-222" fill="#8BB465"/><g id="Ruby"><path d="M1445.371 828.5l11.003 11.5-4.499-11.5h-6.504z" id="Path-15" fill="#B63033"/><path d="M1467.376 828.5l-11.003 11.5 4.508-11.5h6.494z" id="Path-15" fill="#D74D50"/><path d="M1451.372 828.5l4.751 11.5 4.751-11.5h-9.502z" id="Path-16" fill="#C53A3D"/><path id="Triangle-1" fill="#DF7D80" d="M1449.723 824l2.149 4.5h-6.502z"/><path d="M1449.372 824h7.002l-5.007 4.5-1.995-4.5z" id="Triangle-1" fill="#C53A3D"/><path d="M1456.374 824h7.002l-2.083 4.5-4.918-4.5z" id="Triangle-1" fill="#D74D50"/><path id="Triangle-1" fill="#F9A3A5" d="M1456.323 824l4.552 4.5h-9.502z"/><path id="Triangle-1" fill="#FCBDBF" d="M1462.989 824l-2.115 4.5h6.502z"/></g></g><g><path id="Rectangle-221" fill="#9AC771" d="M1279.832 786h2v23h-2z"/><path d="M1280.833 792.511v3.575l7.132 3.914 3.371-3.914-2.861-4.086-7.641.511z" id="Rectangle-221" fill="#96C66A"/><path d="M1280.833 796l7.132 4 3.371-4h-10.502z" id="Rectangle-222" fill="#8BB465"/><g id="Ruby"><path d="M1269.83 777.5l11.003 11.5-4.499-11.5h-6.504z" id="Path-15" fill="#B63033"/><path d="M1291.835 777.5l-11.003 11.5 4.508-11.5h6.494z" id="Path-15" fill="#D74D50"/><path d="M1275.831 777.5l4.751 11.5 4.751-11.5h-9.502z" id="Path-16" fill="#C53A3D"/><path id="Triangle-1" fill="#DF7D80" d="M1274.182 773l2.149 4.5h-6.502z"/><path d="M1273.831 773h7.002l-5.007 4.5-1.995-4.5z" id="Triangle-1" fill="#C53A3D"/><path d="M1280.833 773h7.002l-2.083 4.5-4.918-4.5z" id="Triangle-1" fill="#D74D50"/><path id="Triangle-1" fill="#F9A3A5" d="M1280.782 773l4.552 4.5h-9.502z"/><path id="Triangle-1" fill="#FCBDBF" d="M1287.448 773l-2.115 4.5h6.502z"/></g></g><g><path id="Rectangle-221" fill="#9AC771" d="M1672.925 810.5h2v23h-2z"/><path d="M1673.926 817.011v3.575l7.132 3.914 3.371-3.914-2.861-4.086-7.641.511z" id="Rectangle-221" fill="#96C66A"/><path d="M1673.926 820.5l7.132 4 3.371-4h-10.502z" id="Rectangle-222" fill="#8BB465"/><g id="Ruby"><path d="M1662.923 802l11.003 11.5-4.499-11.5h-6.504z" id="Path-15" fill="#B63033"/><path d="M1684.928 802l-11.003 11.5 4.508-11.5h6.494z" id="Path-15" fill="#D74D50"/><path d="M1668.924 802l4.751 11.5 4.751-11.5h-9.502z" id="Path-16" fill="#C53A3D"/><path id="Triangle-1" fill="#DF7D80" d="M1667.275 797.5l2.149 4.5h-6.502z"/><path d="M1666.924 797.5h7.002l-5.007 4.5-1.995-4.5z" id="Triangle-1" fill="#C53A3D"/><path d="M1673.926 797.5h7.002l-2.083 4.5-4.918-4.5z" id="Triangle-1" fill="#D74D50"/><path id="Triangle-1" fill="#F9A3A5" d="M1673.875 797.5l4.552 4.5h-9.502z"/><path id="Triangle-1" fill="#FCBDBF" d="M1680.541 797.5l-2.115 4.5h6.502z"/></g></g><g><path id="Rectangle-221" fill="#9AC771" d="M120.557 913h2v23h-2z"/><path d="M121.558 919.511v3.575l7.132 3.914 3.371-3.914-2.861-4.086-7.641.511z" id="Rectangle-221" fill="#96C66A"/><path d="M121.558 923l7.132 4 3.371-4h-10.502z" id="Rectangle-222" fill="#8BB465"/><g id="Ruby"><path d="M110.555 904.5l11.003 11.5-4.499-11.5h-6.504z" id="Path-15" fill="#B63033"/><path d="M132.56 904.5l-11.003 11.5 4.508-11.5h6.494z" id="Path-15" fill="#D74D50"/><path d="M116.556 904.5l4.751 11.5 4.751-11.5h-9.502z" id="Path-16" fill="#C53A3D"/><path id="Triangle-1" fill="#DF7D80" d="M114.907 900l2.149 4.5h-6.502z"/><path d="M114.556 900h7.002l-5.007 4.5-1.995-4.5z" id="Triangle-1" fill="#C53A3D"/><path d="M121.558 900h7.002l-2.083 4.5-4.918-4.5z" id="Triangle-1" fill="#D74D50"/><path id="Triangle-1" fill="#F9A3A5" d="M121.507 900l4.552 4.5h-9.502z"/><path id="Triangle-1" fill="#FCBDBF" d="M128.173 900l-2.115 4.5h6.502z"/></g></g><g><path id="Rectangle-221" fill="#9AC771" d="M670.187 794.5h2v23h-2z"/><path d="M671.188 801.011v3.575l7.132 3.914 3.371-3.914-2.861-4.086-7.641.511z" id="Rectangle-221" fill="#96C66A"/><path d="M671.188 804.5l7.132 4 3.371-4h-10.502z" id="Rectangle-222" fill="#8BB465"/><g id="Ruby"><path d="M660.185 786l11.003 11.5-4.499-11.5h-6.504z" id="Path-15" fill="#B63033"/><path d="M682.19 786l-11.003 11.5 4.508-11.5h6.494z" id="Path-15" fill="#D74D50"/><path d="M666.186 786l4.751 11.5 4.751-11.5h-9.502z" id="Path-16" fill="#C53A3D"/><path id="Triangle-1" fill="#DF7D80" d="M664.537 781.5l2.149 4.5h-6.502z"/><path d="M664.186 781.5h7.002l-5.007 4.5-1.995-4.5z" id="Triangle-1" fill="#C53A3D"/><path d="M671.188 781.5h7.002l-2.083 4.5-4.918-4.5z" id="Triangle-1" fill="#D74D50"/><path id="Triangle-1" fill="#F9A3A5" d="M671.137 781.5l4.552 4.5h-9.502z"/><path id="Triangle-1" fill="#FCBDBF" d="M677.803 781.5l-2.115 4.5h6.502z"/></g></g><g><path id="Rectangle-221" fill="#9AC771" d="M166.068 1145.5h2v23h-2z"/><path d="M167.069 1152.011v3.575l7.132 3.914 3.371-3.914-2.861-4.086-7.641.511z" id="Rectangle-221" fill="#96C66A"/><path d="M167.069 1155.5l7.132 4 3.371-4h-10.502z" id="Rectangle-222" fill="#8BB465"/><g id="Ruby"><path d="M156.066 1137l11.003 11.5-4.499-11.5h-6.504z" id="Path-15" fill="#B63033"/><path d="M178.071 1137l-11.003 11.5 4.508-11.5h6.494z" id="Path-15" fill="#D74D50"/><path d="M162.067 1137l4.751 11.5 4.751-11.5h-9.502z" id="Path-16" fill="#C53A3D"/><path id="Triangle-1" fill="#DF7D80" d="M160.418 1132.5l2.149 4.5h-6.502z"/><path d="M160.067 1132.5h7.002l-5.007 4.5-1.995-4.5z" id="Triangle-1" fill="#C53A3D"/><path d="M167.069 1132.5h7.002l-2.083 4.5-4.918-4.5z" id="Triangle-1" fill="#D74D50"/><path id="Triangle-1" fill="#F9A3A5" d="M167.018 1132.5l4.552 4.5h-9.502z"/><path id="Triangle-1" fill="#FCBDBF" d="M173.684 1132.5l-2.115 4.5h6.502z"/></g></g><g><path id="Rectangle-221" fill="#9AC771" d="M377.118 1023.5h2v23h-2z"/><path d="M378.119 1030.011v3.575l7.132 3.914 3.371-3.914-2.861-4.086-7.641.511z" id="Rectangle-221" fill="#96C66A"/><path d="M378.119 1033.5l7.132 4 3.371-4h-10.502z" id="Rectangle-222" fill="#8BB465"/><g id="Ruby"><path d="M367.116 1015l11.003 11.5-4.499-11.5h-6.504z" id="Path-15" fill="#B63033"/><path d="M389.121 1015l-11.003 11.5 4.508-11.5h6.494z" id="Path-15" fill="#D74D50"/><path d="M373.117 1015l4.751 11.5 4.751-11.5h-9.502z" id="Path-16" fill="#C53A3D"/><path id="Triangle-1" fill="#DF7D80" d="M371.468 1010.5l2.149 4.5h-6.502z"/><path d="M371.117 1010.5h7.002l-5.007 4.5-1.995-4.5z" id="Triangle-1" fill="#C53A3D"/><path d="M378.119 1010.5h7.002l-2.083 4.5-4.918-4.5z" id="Triangle-1" fill="#D74D50"/><path id="Triangle-1" fill="#F9A3A5" d="M378.068 1010.5l4.552 4.5h-9.502z"/><path id="Triangle-1" fill="#FCBDBF" d="M384.734 1010.5l-2.115 4.5h6.502z"/></g></g><g><path id="Rectangle-221" fill="#9AC771" d="M181.571 812.5h2v23h-2z"/><path d="M182.572 819.011v3.575l7.132 3.914 3.371-3.914-2.861-4.086-7.641.511z" fill="#96C66A"/><path d="M182.572 822.5l7.132 4 3.371-4h-10.502z" fill="#8BB465"/><g id="Ruby"><path d="M171.569 804l11.003 11.5-4.499-11.5h-6.504z" id="Path-15" fill="#B63033"/><path d="M193.574 804l-11.003 11.5 4.508-11.5h6.494z" id="Path-15" fill="#D74D50"/><path d="M177.57 804l4.751 11.5 4.751-11.5h-9.502z" id="Path-16" fill="#C53A3D"/><path id="Triangle-1" fill="#DF7D80" d="M175.921 799.5l2.149 4.5h-6.502z"/><path d="M175.57 799.5h7.002l-5.007 4.5-1.995-4.5z" id="Triangle-1" fill="#C53A3D"/><path d="M182.572 799.5h7.002l-2.083 4.5-4.918-4.5z" id="Triangle-1" fill="#D74D50"/><path id="Triangle-1" fill="#F9A3A5" d="M182.521 799.5l4.552 4.5h-9.502z"/><path id="Triangle-1" fill="#FCBDBF" d="M189.187 799.5l-2.115 4.5h6.502z"/></g></g></g><g sketch:type="MSShapeGroup"><path d="M247.853 792.5l-14.769 53h134.032l-14.769-53h-104.493z" id="Rectangle-9" fill="#5EA034"/><path d="M247.884 792.5l-14.8 53h72.017l-57.217-53z" id="Rectangle-25" fill="#538534"/><path d="M247.884 792.5l-14.8 53 36.009-32.358-21.208-20.642z" id="Rectangle-31" fill="#528134"/><path d="M248.088 792.5l57.014 5.641v47.359l-57.014-53z" id="Rectangle-26" fill="#558C33"/><path d="M269.093 812.67l36.009-14.17v47l-36.009-32.83z" id="Rectangle-32" fill="#5C923A"/><path d="M354.113 798.5h-49.012v47l49.012-47z" id="Rectangle-27" fill="#589631"/><path d="M329.607 798.5h-24.506v47l24.506-47z" id="Rectangle-30" fill="#548E30"/><path d="M260.372 745l-20.287 53h120.028l-20.287-53h-79.455z" id="Rectangle-6" fill="#74AC50"/><path d="M328.107 798h31.507l-20.209-53-11.299 53z" id="Rectangle-29" fill="#77B252"/><path d="M260.43 745l-20.344 53 100.024-53h-79.68z" id="Rectangle-19" fill="#6FA24F"/><path d="M303.651 798h-63.565l100.024-53-36.459 53z" id="Rectangle-24" fill="#70A64E"/><path d="M272.785 702l-25.698 53h105.525l-25.698-53h-54.129z" id="Rectangle-7" fill="#73B34C"/><path d="M282.596 755h70.017l-25.763-53-44.253 53z" id="Rectangle-16" fill="#75B64C"/><path d="M282.596 755h70.017l-13.053-26.5-56.963 26.5z" id="Rectangle-28" fill="#75BB4A"/><path d="M282.596 755l6.52-38.404 37.491-14.596-44.01 53z" id="Rectangle-17" fill="#6FB046"/><path d="M251.088 716h99.023l-49.512-52.5-49.512 52.5z" id="Rectangle-8" fill="#80C256"/><path d="M251.088 716l49.012-26.25v-26.25l-49.012 52.5z" id="Rectangle-10" fill="#79BE4E"/><path d="M348.611 715l-48.511-25.298v-26.202l48.511 51.5z" id="Rectangle-11" fill="#88C363"/><path d="M348.111 715.5l-48.658-26-10.356 26h59.014z" id="Rectangle-15" fill="#84CB57"/><path id="Rectangle-13" fill="#A3856A" d="M282.096 845h35.008v49h-35.008z"/><path d="M282.096 845v15.378l35.008 21.622v-37h-35.008z" id="Rectangle-14" fill="#94765B"/></g><g sketch:type="MSShapeGroup"><path d="M317.523 816l-16.423 58.5h149.035l-16.423-58.5h-116.19z" id="Rectangle-9" fill="#5EA034"/><path d="M317.647 816l-16.547 58.5h80.519l-63.972-58.5z" id="Rectangle-25" fill="#538534"/><path d="M317.545 816l-16.445 58.5 40.009-35.715-23.565-22.785z" id="Rectangle-31" fill="#528134"/><path d="M317.604 816l63.515 6.226v52.274l-63.515-58.5z" id="Rectangle-26" fill="#558C33"/><path d="M341.109 838.328l40.009-15.828v52.5l-40.009-36.672z" id="Rectangle-32" fill="#5C923A"/><path d="M436.132 822.5h-54.513v52.5l54.513-52.5z" id="Rectangle-27" fill="#589631"/><path d="M409.126 822.5h-27.507v52.5l27.507-52.5z" id="Rectangle-30" fill="#548E30"/><path d="M331.671 763l-22.569 58.5h133.532l-22.569-58.5h-88.394z" id="Rectangle-6" fill="#74AC50"/><path d="M406.625 821.5h35.008l-22.454-58.5-12.554 58.5z" id="Rectangle-29" fill="#77B252"/><path d="M331.684 763l-22.582 58.5 111.026-58.5h-88.444z" id="Rectangle-19" fill="#6FA24F"/><path d="M379.659 821.5h-70.557l111.026-58.5-40.469 58.5z" id="Rectangle-24" fill="#70A64E"/><path d="M345.225 715.5l-28.621 58.5h117.528l-28.621-58.5h-60.286z" id="Rectangle-7" fill="#73B34C"/><path d="M356.113 774h78.018l-28.708-58.5-49.311 58.5z" id="Rectangle-16" fill="#75B64C"/><path d="M356.113 774h78.018l-14.545-29.5-63.473 29.5z" id="Rectangle-28" fill="#75BB4A"/><path d="M356.113 774l7.261-42.39 41.751-16.11-49.012 58.5z" id="Rectangle-17" fill="#6FB046"/><path d="M320.605 730.5h110.026l-55.013-58-55.013 58z" id="Rectangle-8" fill="#80C256"/><path d="M320.605 730.5l54.513-29v-29l-54.513 58z" id="Rectangle-10" fill="#79BE4E"/><path d="M430.131 730l-54.013-28.245v-29.255l54.013 57.5z" id="Rectangle-11" fill="#88C363"/><path d="M429.63 730.5l-54.431-29-11.585 29h66.016z" id="Rectangle-15" fill="#84CB57"/><path id="Rectangle-13" fill="#A3856A" d="M355.613 874h39.009v54.5h-39.009z"/><path d="M355.613 874v17.04l39.009 23.96v-41h-39.009z" id="Rectangle-14" fill="#94765B"/></g><g sketch:type="MSShapeGroup"><path d="M1500.821 915l-20.942 75h190.045l-20.942-75h-148.162z" fill="#5EA034"/><path d="M1500.846 915l-20.967 75h102.024l-81.057-75z" fill="#538534"/><path d="M1500.846 915l-20.967 75 51.012-45.789-30.045-29.211z" fill="#528134"/><path d="M1500.884 915l81.019 7.982v67.018l-81.019-75z" fill="#558C33"/><path d="M1530.891 943.2l51.012-20.2v67l-51.012-46.8z" fill="#5C923A"/><path d="M1650.92 923h-69.016v67l69.016-67z" fill="#589631"/><path d="M1616.411 923h-34.508v67l34.508-67z" fill="#548E30"/><path d="M1518.621 847l-28.74 75h170.04l-28.74-75h-112.561z" fill="#74AC50"/><path d="M1614.911 922h45.011l-28.87-75-16.141 75z" fill="#77B252"/><path d="M1518.668 847l-28.787 75 141.534-75h-112.747z" fill="#6FA24F"/><path d="M1579.826 922h-89.945l141.534-75-51.589 75z" fill="#70A64E"/><path d="M1536.421 786.5l-36.538 75h150.036l-36.538-75h-76.96z" fill="#73B34C"/><path d="M1550.396 861.5h99.524l-36.621-75-62.903 75z" fill="#75B64C"/><path d="M1550.396 861.5h99.524l-18.554-37.5-80.969 37.5z" fill="#75BB4A"/><path d="M1550.396 861.5l9.261-54.346 53.254-20.654-62.515 75z" fill="#6FB046"/><path d="M1504.885 806.5h140.033l-70.017-74.5-70.017 74.5z" fill="#80C256"/><path d="M1504.885 806.5l70.017-37.25v-37.25l-70.017 74.5z" fill="#79BE4E"/><path d="M1643.418 805l-68.516-35.859v-37.141l68.516 73z" fill="#88C363"/><path d="M1643.918 806.5l-69.275-37-14.745 37h84.02z" fill="#84CB57"/><path fill="#A3856A" d="M1549.896 990h50.012v70h-50.012z"/><path d="M1549.896 990v21.612l50.012 30.388v-52h-50.012z" fill="#94765B"/></g><g><path fill="#939393" sketch:type="MSShapeGroup" d="M964.257 1h9.002v169h-9.002z"/><path d="M964.257 1v99l9.002 15v-114h-9.002z" fill="#6E6E6E" sketch:type="MSShapeGroup"/><path d="M963.757 0v69.5h125.03l-23.782-34.75 23.782-34.75h-125.03z" fill="#5B6C7B" sketch:type="MSShapeGroup"/><path d="M963.757 0v69.5h125.544l-125.544-69.5z" fill="#5F7284" sketch:type="MSShapeGroup"/><path d="M963.757 0h43.123l19.391 69.5-62.515-69.5z" fill="#596C7E" sketch:type="MSShapeGroup"/><path d="M1064.761 34.75l22.025-34.75h-80.019l19.378 69.5 38.616-34.75z" fill="#61788D" sketch:type="MSShapeGroup"/><path d="M1064.762 35l24.025-35h-82.019l57.995 35z" fill="#6D8499" sketch:type="MSShapeGroup"/><path d="M1065.04 34l24.747 35h-63.515l38.768-35z" fill="#5A7187" sketch:type="MSShapeGroup"/><path d="M963.757 0v69.5h10.502v-69.5h-10.502z" fill="#2B3A48" sketch:type="MSShapeGroup"/><g transform="translate(963.757)"><use stroke="#fff" sketch:type="MSShapeGroup" xlink:href="#a"/><use xlink:href="#a"/></g><g transform="translate(963.757)"><use fill="#fff" sketch:type="MSShapeGroup" xlink:href="#b"/><use xlink:href="#b"/></g><g transform="translate(963.757)"><use fill="#fff" sketch:type="MSShapeGroup" xlink:href="#c"/><use xlink:href="#c"/></g><g sketch:type="MSShapeGroup"><path d="M1010.268 27l8.502 9-3.359-9h-5.143z" id="Path-15" fill="#B63033"/><path d="M1027.272 27l-8.862 8.835 3.498-8.835h5.364z" fill="#D74D50"/><path d="M1014.769 27l3.751 9 3.751-9h-7.502z" fill="#C53A3D"/><path id="Triangle-1" fill="#DF7D80" d="M1013.336 23.5l1.934 3.5h-5.001z"/><path d="M1013.269 23.5h5.501l-3.934 3.5-1.568-3.5z" id="Triangle-1" fill="#C53A3D"/><path d="M1018.27 23.5h6.001l-1.758 3.5-4.243-3.5z" id="Triangle-1" fill="#D74D50"/><path id="Triangle-1" fill="#F9A3A5" d="M1018.677 23.5l4.094 3.5h-8.002z"/><path fill="#FCBDBF" d="M1024.397 23.5l-2.127 3.5h5.001z"/></g></g></g></svg>