<svg width="1909" height="1014" viewBox="0 0 1909 1014" xmlns="http://www.w3.org/2000/svg" xmlns:xlink="http://www.w3.org/1999/xlink" xmlns:sketch="http://www.bohemiancoding.com/sketch/ns"><title>Foreground</title><defs><path id="a" d="M51.649 12.436v2.23h-1.205v-2.23h-3.894v2.23h-1.206v-2.23h-4.016v2.23h-1.204v-2.23h-3.253s-6.023 21.969 8.915 21.969c14.938 0 9.075-21.969 9.075-21.969h-3.212z"/><path id="b" d="M46.04 44.353h-.83v-9.948h.83v9.948z"/><path id="c" d="M37.33 44.353v.829h17.835v-.829h-17.835z"/></defs><g sketch:type="MSLayerGroup" fill="none"><g><path fill="#939393" sketch:type="MSShapeGroup" d="M962.916 1.078h7.466v140.107h-7.466z"/><path d="M962.916 1.078v82.074l7.466 12.436v-94.51h-7.466z" fill="#6E6E6E" sketch:type="MSShapeGroup"/><path d="M962.501.249v57.618h103.695l-19.724-28.809 19.724-28.809h-103.695z" fill="#5B6C7B" sketch:type="MSShapeGroup"/><path d="M962.501.249v57.618h104.121l-104.121-57.618z" fill="#5F7284" sketch:type="MSShapeGroup"/><path d="M962.501.249h35.765l16.082 57.618-51.847-57.618z" fill="#596C7E" sketch:type="MSShapeGroup"/><path d="M1046.27 29.058l18.267-28.809h-66.365l16.071 57.618 32.026-28.809z" fill="#61788D" sketch:type="MSShapeGroup"/><path d="M1046.27 29.265l19.925-29.016h-68.024l48.098 29.016z" fill="#6D8499" sketch:type="MSShapeGroup"/><path d="M1046.501 28.436l20.524 29.016h-52.677l32.153-29.016z" fill="#5A7187" sketch:type="MSShapeGroup"/><path d="M962.501.249v57.618h8.71v-57.618h-8.71z" fill="#2B3A48" sketch:type="MSShapeGroup"/><g transform="translate(962.501 .249)"><use stroke="#fff" sketch:type="MSShapeGroup" xlink:href="#a"/><use xlink:href="#a"/></g><g transform="translate(962.501 .249)"><use fill="#fff" sketch:type="MSShapeGroup" xlink:href="#b"/><use xlink:href="#b"/></g><g transform="translate(962.501 .249)"><use fill="#fff" sketch:type="MSShapeGroup" xlink:href="#c"/><use xlink:href="#c"/></g><g id="Ruby" sketch:type="MSShapeGroup"><path d="M1001.075 22.633l7.051 7.461-2.786-7.461h-4.265z" id="Path-15" fill="#B63033"/><path d="M1015.177 22.633l-7.35 7.325 2.901-7.325h4.449z" id="Path-15" fill="#D74D50"/><path d="M1004.808 22.633l3.111 7.461 3.111-7.461h-6.222z" id="Path-16" fill="#C53A3D"/><path id="Triangle-1" fill="#DF7D80" d="M1003.619 19.731l1.604 2.902h-4.148z"/><path d="M1003.564 19.731h4.563l-3.262 2.902-1.3-2.902z" id="Triangle-1" fill="#C53A3D"/><path d="M1007.711 19.731h4.977l-1.458 2.902-3.519-2.902z" id="Triangle-1" fill="#D74D50"/><path id="Triangle-1" fill="#F9A3A5" d="M1008.049 19.731l3.395 2.902h-6.636z"/><path id="Triangle-1" fill="#FCBDBF" d="M1012.794 19.731l-1.764 2.902h4.148z"/></g></g><g sketch:type="MSShapeGroup"><g><path fill="#BFBFBF" d="M865.316 173.504h207.382v108.502h-207.382z"/><path d="M865.316 207.233v75.179h32.124l-32.124-75.179z" fill="#9D9D9D"/><path d="M865.316 207.233l59.192 30.982 3.429 44.197h-30.515l-32.106-75.179z" fill="#A0A0A0"/><path d="M865.316 207.231l59.368 31.293-36.605-65.02h-22.764v33.727z" fill="#9C9C9C"/><path d="M940.88 173.504l35.04 84.12-51.136-19.616-36.697-64.503h52.793z" fill="#B6B6B6"/><path d="M940.136 173.504l-15.471 65.02-36.578-65.02h52.049z" fill="#ACACAC"/><path d="M1023.107 173.504l-15.47 65.02 65.061-65.02h-49.591z" fill="#D6D6D6"/><path d="M1023.495 173.504l-15.542 65.02-68.224-65.02h83.766z" fill="#C7C7C7"/><path d="M1007.637 238.059l65.468-65.368v109.721l-65.468-44.353z" fill="#E1E1E1"/><path d="M1007.637 238.051l30.401-30.411 35.067 74.773-65.468-44.361z" fill="#D3D3D3"/><path fill="#686868" d="M865.316 173.504h207.382v108.502h-207.382z"/><path d="M865.316 165.377v117.036h73.6l-73.6-117.036z" fill="#696666"/><path d="M865.316 165.377h57.859l15.741 117.036-73.6-117.036z" fill="#6F6F6F"/><path d="M1010.89 282.412l-46.438-117.036h-41.394l15.728 117.036h72.105z" fill="#797979"/><path d="M1011.14 282.412l-46.606-117.036h113.043l-66.438 117.036z" fill="#848484"/><path d="M1009.67 282.412l63.434-109.721v109.721h-63.434z" fill="#909090"/><path d="M1081.237 121.894h-26.919v10.214l-9.678 24.672 1.798 17.13h34.798v-52.016z" fill="#7F7F7F"/><path d="M891.721 132.431h-10.875v-10.536h-26.916v52.016h61.808l-24.017-41.48z" fill="#565656"/><path d="M912.294 173.91l-23.801-41.45h52.112l45.886 41.45h-74.197z" fill="#626262"/><path d="M925.497 132.942v-12.673h78.936v12.673l31.668 40.969h-79.441l-31.163-40.969z" fill="#6F6F6F"/><path d="M925.497 132.942v-12.673h43.344v12.673l21.717 40.969h-34.101l-30.96-40.969z" fill="#6B6A6A"/><path d="M1054.211 132.46h-50.234l8.143 41.45h53.665l-11.574-41.45z" fill="#767676"/></g><g id="tower"><path id="Rectangle-21" fill="#777" d="M646.142 173.504h124.429v108.502h-124.429z"/><path d="M646.142 171.472v110.94h63.841l-63.841-110.94z" id="Rectangle-12" fill="#6D6D6D"/><path d="M707.95 282.412l18.445-109.721h44.583v109.721h-63.028z" id="Rectangle-18" fill="#7F7F7F"/><path d="M779.11 121.894h-20.789v10.214l-4.578 24.672-9.604 17.13h34.97v-52.016z" id="Rectangle-8" fill="#828282"/><path d="M658.682 132.43v-10.536h-20.673v52.016h61.808l-41.135-41.48z" id="Rectangle-20" fill="#565656"/><path d="M682.554 173.91l-23.807-41.45h30.158l45.069 41.45h-51.42z" id="Rectangle-22" fill="#626262"/><path d="M688.025 132.086v-10.192h41.563v10.192l28.378 41.824h-28.378l-41.563-41.824z" id="Rectangle-23" fill="#6B6A6A"/><path d="M758.042 132.46h-29.761l25.211 41.45h25.211l-20.661-41.45z" id="Rectangle-9" fill="#747474"/></g><g><path fill="#777" d="M1164.597 173.504h124.429v108.502h-124.429z"/><path d="M1164.597 171.472v110.94h63.841l-63.841-110.94z" fill="#6D6D6D"/><path d="M1226.405 282.412l18.445-109.721h44.583v109.721h-63.028z" fill="#7F7F7F"/><path d="M1297.565 121.894h-20.789v10.214l-4.578 24.672-9.604 17.13h34.97v-52.016z" id="Rectangle-8" fill="#828282"/><path d="M1177.137 132.43v-10.536h-20.673v52.016h61.808l-41.135-41.48z" fill="#565656"/><path d="M1201.009 173.91l-23.807-41.45h30.158l45.069 41.45h-51.42z" fill="#626262"/><path d="M1206.48 132.086v-10.192h41.563v10.192l28.378 41.824h-28.378l-41.563-41.824z" fill="#6B6A6A"/><path d="M1276.497 132.46h-29.761l25.211 41.45h25.211l-20.661-41.45z" id="Rectangle-9" fill="#747474"/></g><g><path fill="#E1E1E1" d="M637.196 278.755h650.61v327.132h-650.61z"/><path d="M637.196 278.755v327.132h256.584l-256.584-327.132z" fill="#C4C4C4"/><path d="M855.125 559.966l-139.043 45.92h177.698l-38.655-45.92z" fill="#B8B8B8"/><path d="M803.181 490.883l-87.098 115.004 141.914-42.242-54.816-72.762z" fill="#C3C3C3"/><path d="M803.101 490.982l-87.019 114.905 48.58-164.175 38.439 49.27z" fill="#BFBFBF"/><path d="M637.196 278.755v327.132l128.495-163.566-128.495-163.566z" fill="#C1C1C1"/><path d="M637.196 278.755v210.096l82.546-105.048-82.546-105.048z" fill="#bbb"/><path d="M637.196 278.755h206.518l50.066 327.132-256.584-327.132z" fill="#CCCBCB"/><path d="M637.196 278.755h206.569l-124.236 105.657-82.333-105.657z" fill="#C5C5C5"/><path d="M765.285 442.321l78.757-163.566 50.145 327.132-128.902-163.566z" fill="#D1D1D1"/><path d="M764.878 442.25l98.811-25.327-60.734 73.96-38.077-48.633z" fill="#ccc"/><path d="M888.087 603.042l-24.043-186.12-60.943 74.149 84.986 111.97z" fill="#D1D1D1"/><path d="M1072.698 605.887l-175.151-327.132h-53.782l50.055 327.132h178.878z" fill="#D4D4D4"/><path d="M924.684 331.974l-80.92-53.219 50.066 327.132 30.854-273.912z" fill="#CFCFCF"/><path d="M924.821 331.99l30.361 56.957-44.323 68.206 13.962-125.163z" fill="#ccc"/><path d="M924.684 331.99l30.338 56.892 84.739-56.892h-115.077z" fill="#D3D2D2"/><path d="M924.684 331.99l-60.181 85.272 46.233 39.891 13.949-125.163z" fill="#D3D3D3"/><path d="M1072.291 605.887l-176.885-327.132h139.016l37.869 327.132z" fill="#DFDFDF"/><path d="M1072.291 605.887l-35.784-63.84 14.901-115.371 20.883 179.211z" fill="#DBDBDB"/><path d="M955.204 389.289l-59.797-110.534h139.068l-79.271 110.534z" fill="#DCDBDB"/><path d="M955.181 389.327l95.965 38.161-16.761-148.733-79.204 110.572z" fill="#E5E4E4"/><path d="M1072.291 605.887l89.052-130.063-7.255-59.714-81.797 189.777z" fill="#EAEAEA"/><path d="M1072.379 605.887l66.6-273.258-105.724-53.873 39.124 327.132z" fill="#E5E4E4"/><path d="M1051.532 428.707l87.447-96.012-105.724-53.94 18.277 149.952z" fill="#EAEAEA"/><path d="M1051.553 428.788l87.426-95.985-33.779 139.793-53.647-43.808z" fill="#E1E1E1"/><path d="M1072.291 605.887l66.562-273.084 13.545 93.343-80.106 179.741z" fill="#E4E4E4"/><path d="M1160.587 474.221l129.659-195.466-153.3 52.551 23.641 142.915z" fill="#F7F7F7"/><path d="M1160.579 473.409l33.701-142.231h-57.335l23.634 142.231z" fill="#F2F2F2"/><path d="M1152.76 425.863l41.521-94.685h-57.335l15.814 94.685z" fill="#E8E8E8"/><path d="M1194.687 523.393l95.558-120.287v115.644l-95.558 4.643z" fill="#F9F9F9"/><path d="M1194.643 523.799l95.602-119.881-130.122 69.232 34.52 50.648z" fill="#F7F7F7"/><path d="M1160.53 473.409l129.715-196.685v127.45l-129.715 69.236z" fill="#F5F5F5"/><path d="M1072.291 605.887l88.453-132.478 35.976 49.526-124.429 82.953z" fill="#F2F2F2"/><path d="M1072.291 605.887l217.954-147.514v147.514h-217.954z" fill="#F5F5F5"/><path fill="#ECECEC" d="M620.931 275.098h683.14v56.892h-683.14z"/><path d="M677.446 241.775h-56.922v90.215h106.537l-49.616-56.836v-33.379z" fill="#A3A3A3"/><path d="M779.512 241.775h-56.919v33.379h-45.141l45.141 56.836h106.532l-49.613-56.836v-33.379z" fill="#ADADAD"/><path d="M881.17 241.775h-56.919v33.379h-45.141l45.141 56.836h104.499l-47.58-56.836v-33.379z" fill="#B5B5B5"/><path d="M1101.497 241.775h-56.996v33.379h-29.137l24.338 56.836h111.477l-25.028-56.836h-24.653v-33.379z" fill="#C8C8C8"/><path d="M1199.622 241.775h-56.85v33.379h-20.872l16.084 56.836h111.191l-26.531-56.836h-23.022v-33.379z" fill="#D3D3D3"/><path d="M1304.478 241.775h-56.977v33.379h-25.163l20.365 56.836h61.775v-90.215z" fill="#DADADA"/><path d="M990.554 241.775h-56.919v33.379h-53.273l45.142 56.836h114.664l-20.322-56.836h-29.292v-33.379z" fill="#C2C1C1"/></g><g><g><path d="M962.094 459.592l.407 146.295h81.733v-146.295h-82.14z" fill="#987C57"/><path d="M962.907 605.887h81.326v-146.295l-81.326 146.295z" fill="#AE9574"/></g><g><path fill="#8B6D46" d="M881.581 459.592h81.326v146.295h-81.326z"/><path d="M881.581 459.592v146.295h81.326l-81.326-146.295z" fill="#816139"/></g><g><path fill="#B59537" d="M910.045 527.863h105.724v19.506h-105.724z"/><path d="M910.045 527.863v19.506h52.862l-52.862-19.506z" fill="#A6892F"/><path d="M910.045 527.863h105.724l-52.847 19.506-52.877-19.506z" fill="#C6A645"/><path d="M910.045 527.863h52.877v19.506l-52.877-19.506z" fill="#AC903A"/></g><g fill="#4D4D4D"><path d="M929.97 540.867h18.298v13.817h-18.298z"/><path d="M977.139 540.867h18.298v13.817h-18.298z"/></g></g></g><g sketch:type="MSShapeGroup"><path d="M.028 597.565v270.413l258.291-168.156-153.585-102.257h-104.706z" fill="#EBCF9F"/><path d="M155.136 767.197l-155.108-103.775 251.796 39.831-96.688 63.944z" fill="#EACD99"/><path d="M96.819 1011.334h-96.791v-143.323l248.798-162.68-152.007 306.003z" fill="#E6C791"/><path d="M96.949 1011.334h173.706l120.556-209.417-139.03-104.901-155.231 314.318z" fill="#EED3A4"/><path d="M332.844 900.575l57.867-98.637-138.887-104.921 81.02 203.558z" fill="#E8CA96"/><path d="M333.258 900.575l-131.394-101.779 50.365-101.779 81.028 203.558z" fill="#EACC98"/><path d="M333.258 900.546l-131.394-101.75 69.497 212.872 61.896-111.121z" fill="#EAC98F"/><path d="M96.45 1011.667l105.332-212.872 69.526 212.872h-174.858z" fill="#DEC18C"/><path d="M666.988 1011.334h-396.679l119.502-210.876 277.177 210.876z" fill="#EACD99"/><path d="M332.758 900.907l154.875-24.923-97.87-75.526-57.005 100.449z" fill="#E6C791"/><path d="M666.988 1011.334l-131.447-270.015-278.221-38.982 409.668 308.996z" fill="#EAC98F"/><path d="M486.906 875.629l48.688-134.33-278.275-38.96 229.586 173.291z" fill="#EACC97"/><path d="M80.463 597.565l168.125 109.022 286.072 35.997 202.272-145.019h-656.468z" fill="#EAC98F"/><path d="M248.826 706.587l285.932 35.997 202.173-145.019-488.105 109.022z" fill="#E1C593"/><path d="M627.46 932.505l-93.365-190.255 202.336-145.018-108.971 335.273z" fill="#E6C487"/><path d="M734.433 597.233l7.926 297.355 257.359-194.993-153.483-102.03-111.802-.332z" fill="#EED19D"/><path d="M838.114 1011.334h-171.27l-45.82-81.067 124.177-65.86 258.513-170.052-165.601 316.979z" fill="#E6C791"/><path d="M948.713 795.34l-203.289 68.98 258.291-169.965-55.002 100.984z" fill="#EACC97"/><path d="M756.915 858.955l-135.89 71.887 113.955-333.61 21.934 261.723z" fill="#EAC98F"/><path d="M838.349 1011.334h173.706l120.556-209.414-133.875-102.244-160.387 311.657z" fill="#EED3A4"/><path d="M838.349 1011.334l160.37-155.829v-155.829l-160.37 311.657z" fill="#E2C592"/><path d="M1130.612 808.977l-131.893 46.695v-155.995l131.893 109.3z" fill="#E7C78F"/><path d="M1130.612 808.774l-131.893 46.69 38.569 113.296 93.324-159.986z" fill="#E9CB95"/><path d="M839.348 1011.334l158.856-155.995 38.484 113.308-197.34 42.687z" fill="#EBCF9D"/><path d="M1408.387 1011.334h-396.679l119.502-210.876 277.177 210.876z" fill="#EECF97"/><path d="M1408.387 1011.334h-396.679l207.639-137.036 189.04 137.036z" fill="#EAC98F"/><path d="M1408.387 1011.334l-132.462-269.102-296.69-41.89 429.152 310.992z" fill="#EDCD95"/><path d="M1408.387 1011.334l-133.508-270.746-58.337 132.08 191.845 138.666z" fill="#EFCE94"/><path d="M1203.553 733.936l72.441 8.461-59.369 130.238-13.072-138.699z" fill="#F1D39E"/><path d="M819.364 597.565l179.514 111.617 277.159 33.401 202.293-145.019h-658.966z" fill="#EECF97"/><path d="M1097.504 597.565h-278.14l179.497 111.617 277.133 33.401-178.49-145.019z" fill="#E6C487"/><path d="M1097.639 597.565h-278.275l179.584 111.425 98.69-111.425z" fill="#EBC98F"/><path d="M1369.2 932.838l-95.704-190.423 204.834-144.85-109.13 335.273z" fill="#E6C487"/><path d="M1368.112 936.164l-94.616-193.913 176.357 86.002-81.741 107.911z" fill="#E4C48C"/><path d="M1750.61 597.565l-378.693 334.275 242.896-334.275h135.797z" fill="#F0CE93"/><path d="M1750.61 597.565l-175.358 148.345 39.574-148.345h135.784z" fill="#EAC78A"/><path d="M1471.632 597.565l-102.713 339.264 246.8-339.264h-144.087z" fill="#E6C487"/><path d="M1369.419 932.674l208.331-188.427-48.763 266.988h-124.841l-34.728-78.561z" fill="#E7C78E"/><path d="M1737.621 785.158l-93.424 155.995 93.424-58.38v-97.615z" fill="#E2BE7F"/><path d="M1908.482 776.912v-179.347h-6.162l-373.53 413.769 379.692-234.422z" fill="#EDCD95"/><path d="M1908.482 774.462l-99.799-66.137-71.563 174.289 171.361-108.152z" fill="#F0CE93"/><path d="M1737.121 785.068l71.442-76.743-71.442 174.289v-97.546z" fill="#E6C487"/><path d="M1737.621 785.491l12.545-187.926h37.982l19.915 110.296-70.443 77.63z" fill="#E6C487"/><path d="M1908.481 597.565h-158.37l57.96 110.427 100.41-110.427z" fill="#EFD19D"/><path d="M1738.017 788.863l-90.502 38.488-90.249 18.011 85.018-124.231 108.325-124.231-12.593 191.963z" fill="#EFCE94"/><path d="M1738.12 787.819l-180.872 57.528-28.459 165.987 209.33-223.515z" fill="#F0CE93"/><path d="M1577.237 744.546l-19.97 100.815 193.343-248.461-173.373 147.646z" fill="#EAC78A"/><path d="M1908.482 775.513v235.822h-379.692l379.692-235.822z" fill="#E7C78E"/></g><g sketch:type="MSShapeGroup"><path d="M952.257 596.9l93.592 113.785-.18-113.785h-93.412z" fill="#B32B2B"/><path d="M954.28 596.9l91.401 113.118-168.35-104.914v-8.204h76.949z" fill="#BB3030"/><path d="M872.238 603.156l71.419 170.594 103.523-64.037-161.849-112.813-13.093 6.256z" fill="#AB2B2B"/><path d="M943.764 773.646l102.227-63.628 9.682 302.648-111.909-239.019z" fill="#BB3030"/><path d="M880.573 595.9l-880.544 417.433 1057.144-.667-176.599-416.765z" fill="#B32B2B"/><path d="M882.331 596.9l-332.248 150.006 251.664 124.279 80.584-274.285z" fill="#BB3030"/><path d="M746.132 653.626l-195.05 93.625 251.796 132.61-56.746-226.235z" fill="#AB2B2B"/><path d="M861.331 596.9l-58.453 282.961 58.453-282.961z" fill="#AE3B3B"/><path d="M1051.625 1009.996l-485.371-269.28-566.226 272.617h1909.246l-857.649-3.337z" fill="#AB2B2B"/><path d="M566.274 740.716l-566.246 272.617 802.35-140.779-236.104-131.838z" fill="#B32B2B"/><path d="M1499.814 812.457l-457.629-215.557 3.541 113.133 454.088 102.425z" fill="#AB2B2B"/><path d="M1498.315 811.751l-447.667 80.789-5.466-182.857 453.133 102.067z" fill="#B32E2E"/><path d="M1908.483 1012.665l-425.039-208.884-430.268 208.884h855.306z" fill="#AB2B2B"/><path d="M1049.678 892.52l434.648-88.071-429.294 207.842-5.354-119.772z" fill="#BA3A3A"/><path d="M1908.483 1012.665l-424.068-208.216-173.947 208.216h598.016z" fill="#AB2B2B"/><path d="M1027.183 596.9l845.593 415.765h35.85v-32.977l-863.937-382.788h-17.506z" id="Rectangle-327" fill="#D44747"/><path d="M880.09 596.9l-880.061 363.114v53.384l895.79-416.498h-15.729z" fill="#992323"/></g><g sketch:type="MSShapeGroup"><g><path id="Rectangle-221" fill="#9AC771" d="M1370.9 681.278h1.998v22.967h-1.998z"/><path d="M1371.899 687.78v3.57l7.124 3.909 3.367-3.909-2.858-4.08-7.633.51z" id="Rectangle-221" fill="#96C66A"/><path d="M1371.899 691.264l7.124 3.994 3.367-3.994h-10.492z" id="Rectangle-222" fill="#8BB465"/><g id="Ruby"><path d="M1360.908 672.791l10.991 11.483-4.494-11.483h-6.497z" id="Path-15" fill="#B63033"/><path d="M1382.891 672.791l-10.991 11.483 4.504-11.483h6.488z" id="Path-15" fill="#D74D50"/><path d="M1366.903 672.791l4.746 11.483 4.746-11.483h-9.492z" id="Path-16" fill="#C53A3D"/><path id="Triangle-1" fill="#DF7D80" d="M1365.256 668.297l2.147 4.494h-6.495z"/><path d="M1364.905 668.297h6.994l-5.001 4.494-1.993-4.494z" id="Triangle-1" fill="#C53A3D"/><path d="M1371.899 668.297h6.994l-2.081 4.494-4.913-4.494z" id="Triangle-1" fill="#D74D50"/><path id="Triangle-1" fill="#F9A3A5" d="M1371.849 668.297l4.547 4.494h-9.492z"/><path id="Triangle-1" fill="#FCBDBF" d="M1378.508 668.297l-2.113 4.494h6.495z"/></g></g><g><path id="Rectangle-221" fill="#9AC771" d="M1841.099 745.685h1.998v22.967h-1.998z"/><path d="M1842.098 752.187v3.57l7.124 3.909 3.367-3.909-2.858-4.08-7.633.51z" id="Rectangle-221" fill="#96C66A"/><path d="M1842.098 755.671l7.124 3.994 3.367-3.994h-10.492z" id="Rectangle-222" fill="#8BB465"/><g id="Ruby"><path d="M1831.107 737.198l10.991 11.483-4.494-11.483h-6.497z" id="Path-15" fill="#B63033"/><path d="M1853.09 737.198l-10.991 11.483 4.504-11.483h6.488z" id="Path-15" fill="#D74D50"/><path d="M1837.102 737.198l4.746 11.483 4.746-11.483h-9.492z" id="Path-16" fill="#C53A3D"/><path id="Triangle-1" fill="#DF7D80" d="M1835.455 732.704l2.147 4.494h-6.495z"/><path d="M1835.104 732.704h6.994l-5.001 4.494-1.993-4.494z" id="Triangle-1" fill="#C53A3D"/><path d="M1842.098 732.704h6.994l-2.081 4.494-4.913-4.494z" id="Triangle-1" fill="#D74D50"/><path id="Triangle-1" fill="#F9A3A5" d="M1842.048 732.704l4.547 4.494h-9.492z"/><path id="Triangle-1" fill="#FCBDBF" d="M1848.707 732.704l-2.113 4.494h6.495z"/></g></g><g><path id="Rectangle-221" fill="#9AC771" d="M1809.108 874h1.998v22.967h-1.998z"/><path d="M1810.107 880.502v3.57l7.124 3.909 3.367-3.909-2.858-4.08-7.633.51z" id="Rectangle-221" fill="#96C66A"/><path d="M1810.107 883.986l7.124 3.994 3.367-3.994h-10.492z" id="Rectangle-222" fill="#8BB465"/><g id="Ruby"><path d="M1799.116 865.513l10.991 11.483-4.494-11.483h-6.497z" id="Path-15" fill="#B63033"/><path d="M1821.099 865.513l-10.991 11.483 4.504-11.483h6.488z" id="Path-15" fill="#D74D50"/><path d="M1805.111 865.513l4.746 11.483 4.746-11.483h-9.492z" id="Path-16" fill="#C53A3D"/><path id="Triangle-1" fill="#DF7D80" d="M1803.464 861.019l2.147 4.494h-6.495z"/><path d="M1803.113 861.019h6.994l-5.001 4.494-1.993-4.494z" id="Triangle-1" fill="#C53A3D"/><path d="M1810.107 861.019h6.994l-2.081 4.494-4.913-4.494z" id="Triangle-1" fill="#D74D50"/><path id="Triangle-1" fill="#F9A3A5" d="M1810.057 861.019l4.547 4.494h-9.492z"/><path id="Triangle-1" fill="#FCBDBF" d="M1816.716 861.019l-2.113 4.494h6.495z"/></g></g><g><path id="Rectangle-221" fill="#9AC771" d="M1472.851 627.356h1.998v22.967h-1.998z"/><path d="M1473.85 633.858v3.57l7.124 3.909 3.367-3.909-2.858-4.08-7.633.51z" id="Rectangle-221" fill="#96C66A"/><path d="M1473.85 637.342l7.124 3.994 3.367-3.994h-10.492z" id="Rectangle-222" fill="#8BB465"/><g id="Ruby"><path d="M1462.859 618.869l10.991 11.483-4.494-11.483h-6.497z" id="Path-15" fill="#B63033"/><path d="M1484.842 618.869l-10.991 11.483 4.504-11.483h6.488z" id="Path-15" fill="#D74D50"/><path d="M1468.854 618.869l4.746 11.483 4.746-11.483h-9.492z" id="Path-16" fill="#C53A3D"/><path id="Triangle-1" fill="#DF7D80" d="M1467.207 614.375l2.147 4.494h-6.495z"/><path d="M1466.856 614.375h6.994l-5.001 4.494-1.993-4.494z" id="Triangle-1" fill="#C53A3D"/><path d="M1473.85 614.375h6.994l-2.081 4.494-4.913-4.494z" id="Triangle-1" fill="#D74D50"/><path id="Triangle-1" fill="#F9A3A5" d="M1473.8 614.375l4.547 4.494h-9.492z"/><path id="Triangle-1" fill="#FCBDBF" d="M1480.459 614.375l-2.113 4.494h6.495z"/></g></g><g><path id="Rectangle-221" fill="#9AC771" d="M1242.493 627.304h1.998v22.967h-1.998z"/><path d="M1243.492 633.806v3.57l7.124 3.909 3.367-3.909-2.858-4.08-7.633.51z" id="Rectangle-221" fill="#96C66A"/><path d="M1243.492 637.29l7.124 3.994 3.367-3.994h-10.492z" id="Rectangle-222" fill="#8BB465"/><g id="Ruby"><path d="M1232.501 618.817l10.991 11.483-4.494-11.483h-6.497z" id="Path-15" fill="#B63033"/><path d="M1254.484 618.817l-10.991 11.483 4.504-11.483h6.488z" id="Path-15" fill="#D74D50"/><path d="M1238.496 618.817l4.746 11.483 4.746-11.483h-9.492z" id="Path-16" fill="#C53A3D"/><path id="Triangle-1" fill="#DF7D80" d="M1236.849 614.323l2.147 4.494h-6.495z"/><path d="M1236.498 614.323h6.994l-5.001 4.494-1.993-4.494z" id="Triangle-1" fill="#C53A3D"/><path d="M1243.492 614.323h6.994l-2.081 4.494-4.913-4.494z" id="Triangle-1" fill="#D74D50"/><path id="Triangle-1" fill="#F9A3A5" d="M1243.442 614.323l4.547 4.494h-9.492z"/><path id="Triangle-1" fill="#FCBDBF" d="M1250.101 614.323l-2.113 4.494h6.495z"/></g></g><g><path id="Rectangle-221" fill="#9AC771" d="M1671.175 643.333h1.998v22.967h-1.998z"/><path d="M1672.174 649.835v3.57l7.124 3.909 3.367-3.909-2.858-4.08-7.633.51z" id="Rectangle-221" fill="#96C66A"/><path d="M1672.174 653.319l7.124 3.994 3.367-3.994h-10.492z" id="Rectangle-222" fill="#8BB465"/><g id="Ruby"><path d="M1661.183 634.846l10.991 11.483-4.494-11.483h-6.497z" id="Path-15" fill="#B63033"/><path d="M1683.166 634.846l-10.991 11.483 4.504-11.483h6.488z" id="Path-15" fill="#D74D50"/><path d="M1667.178 634.846l4.746 11.483 4.746-11.483h-9.492z" id="Path-16" fill="#C53A3D"/><path id="Triangle-1" fill="#DF7D80" d="M1665.531 630.352l2.147 4.494h-6.495z"/><path d="M1665.18 630.352h6.994l-5.001 4.494-1.993-4.494z" id="Triangle-1" fill="#C53A3D"/><path d="M1672.174 630.352h6.994l-2.081 4.494-4.913-4.494z" id="Triangle-1" fill="#D74D50"/><path id="Triangle-1" fill="#F9A3A5" d="M1672.124 630.352l4.547 4.494h-9.492z"/><path id="Triangle-1" fill="#FCBDBF" d="M1678.783 630.352l-2.113 4.494h6.495z"/></g></g><g><path id="Rectangle-221" fill="#9AC771" d="M98.876 709.737h1.998v22.967h-1.998z"/><path d="M99.875 716.239v3.57l7.124 3.909 3.367-3.909-2.858-4.08-7.633.51z" id="Rectangle-221" fill="#96C66A"/><path d="M99.875 719.723l7.124 3.994 3.367-3.994h-10.492z" id="Rectangle-222" fill="#8BB465"/><g id="Ruby"><path d="M88.884 701.25l10.991 11.483-4.494-11.483h-6.497z" id="Path-15" fill="#B63033"/><path d="M110.867 701.25l-10.991 11.483 4.504-11.483h6.488z" id="Path-15" fill="#D74D50"/><path d="M94.879 701.25l4.746 11.483 4.746-11.483h-9.492z" id="Path-16" fill="#C53A3D"/><path id="Triangle-1" fill="#DF7D80" d="M93.232 696.756l2.147 4.494h-6.495z"/><path d="M92.881 696.756h6.994l-5.001 4.494-1.993-4.494z" id="Triangle-1" fill="#C53A3D"/><path d="M99.875 696.756h6.994l-2.081 4.494-4.913-4.494z" id="Triangle-1" fill="#D74D50"/><path id="Triangle-1" fill="#F9A3A5" d="M99.825 696.756l4.547 4.494h-9.492z"/><path id="Triangle-1" fill="#FCBDBF" d="M106.484 696.756l-2.113 4.494h6.495z"/></g></g><g><path id="Rectangle-221" fill="#9AC771" d="M669.486 627.356h1.998v22.967h-1.998z"/><path d="M670.485 633.858v3.57l7.124 3.909 3.367-3.909-2.858-4.08-7.633.51z" id="Rectangle-221" fill="#96C66A"/><path d="M670.485 637.342l7.124 3.994 3.367-3.994h-10.492z" id="Rectangle-222" fill="#8BB465"/><g id="Ruby"><path d="M659.494 618.869l10.991 11.483-4.494-11.483h-6.497z" id="Path-15" fill="#B63033"/><path d="M681.477 618.869l-10.991 11.483 4.504-11.483h6.488z" id="Path-15" fill="#D74D50"/><path d="M665.489 618.869l4.746 11.483 4.746-11.483h-9.492z" id="Path-16" fill="#C53A3D"/><path id="Triangle-1" fill="#DF7D80" d="M663.842 614.375l2.147 4.494h-6.495z"/><path d="M663.491 614.375h6.994l-5.001 4.494-1.993-4.494z" id="Triangle-1" fill="#C53A3D"/><path d="M670.485 614.375h6.994l-2.081 4.494-4.913-4.494z" id="Triangle-1" fill="#D74D50"/><path id="Triangle-1" fill="#F9A3A5" d="M670.435 614.375l4.547 4.494h-9.492z"/><path id="Triangle-1" fill="#FCBDBF" d="M677.094 614.375l-2.113 4.494h6.495z"/></g></g><g><path id="Rectangle-221" fill="#9AC771" d="M76.894 856.026h1.998v22.967h-1.998z"/><path d="M77.893 862.528v3.57l7.124 3.909 3.367-3.909-2.858-4.08-7.633.51z" id="Rectangle-221" fill="#96C66A"/><path d="M77.893 866.012l7.124 3.994 3.367-3.994h-10.492z" id="Rectangle-222" fill="#8BB465"/><g id="Ruby"><path d="M66.902 847.539l10.991 11.483-4.494-11.483h-6.497z" id="Path-15" fill="#B63033"/><path d="M88.885 847.539l-10.991 11.483 4.504-11.483h6.488z" id="Path-15" fill="#D74D50"/><path d="M72.897 847.539l4.746 11.483 4.746-11.483h-9.492z" id="Path-16" fill="#C53A3D"/><path id="Triangle-1" fill="#DF7D80" d="M71.25 843.045l2.147 4.494h-6.495z"/><path d="M70.899 843.045h6.994l-5.001 4.494-1.993-4.494z" id="Triangle-1" fill="#C53A3D"/><path d="M77.893 843.045h6.994l-2.081 4.494-4.913-4.494z" id="Triangle-1" fill="#D74D50"/><path id="Triangle-1" fill="#F9A3A5" d="M77.843 843.045l4.547 4.494h-9.492z"/><path id="Triangle-1" fill="#FCBDBF" d="M84.502 843.045l-2.113 4.494h6.495z"/></g></g><g><path id="Rectangle-221" fill="#9AC771" d="M258.723 763.659h1.998v22.967h-1.998z"/><path d="M259.722 770.161v3.57l7.124 3.909 3.367-3.909-2.858-4.08-7.633.51z" id="Rectangle-221" fill="#96C66A"/><path d="M259.722 773.645l7.124 3.994 3.367-3.994h-10.492z" id="Rectangle-222" fill="#8BB465"/><g id="Ruby"><path d="M248.731 755.172l10.991 11.483-4.494-11.483h-6.497z" id="Path-15" fill="#B63033"/><path d="M270.714 755.172l-10.991 11.483 4.504-11.483h6.488z" id="Path-15" fill="#D74D50"/><path d="M254.726 755.172l4.746 11.483 4.746-11.483h-9.492z" id="Path-16" fill="#C53A3D"/><path id="Triangle-1" fill="#DF7D80" d="M253.079 750.678l2.147 4.494h-6.495z"/><path d="M252.728 750.678h6.994l-5.001 4.494-1.993-4.494z" id="Triangle-1" fill="#C53A3D"/><path d="M259.722 750.678h6.994l-2.081 4.494-4.913-4.494z" id="Triangle-1" fill="#D74D50"/><path id="Triangle-1" fill="#F9A3A5" d="M259.672 750.678l4.547 4.494h-9.492z"/><path id="Triangle-1" fill="#FCBDBF" d="M266.331 750.678l-2.113 4.494h6.495z"/></g></g><g><path id="Rectangle-221" fill="#9AC771" d="M181.382 645.33h1.998v22.967h-1.998z"/><path d="M182.381 651.832v3.57l7.124 3.909 3.367-3.909-2.858-4.08-7.633.51z" fill="#96C66A"/><path d="M182.381 655.316l7.124 3.994 3.367-3.994h-10.492z" fill="#8BB465"/><g><path d="M171.39 636.843l10.991 11.483-4.494-11.483h-6.497z" id="Path-15" fill="#B63033"/><path d="M193.373 636.843l-10.991 11.483 4.504-11.483h6.488z" fill="#D74D50"/><path d="M177.385 636.843l4.746 11.483 4.746-11.483h-9.492z" fill="#C53A3D"/><path id="Triangle-1" fill="#DF7D80" d="M175.738 632.349l2.147 4.494h-6.495z"/><path d="M175.387 632.349h6.994l-5.001 4.494-1.993-4.494z" id="Triangle-1" fill="#C53A3D"/><path d="M182.381 632.349h6.994l-2.081 4.494-4.913-4.494z" id="Triangle-1" fill="#D74D50"/><path id="Triangle-1" fill="#F9A3A5" d="M182.331 632.349l4.547 4.494h-9.492z"/><path fill="#FCBDBF" d="M188.99 632.349l-2.113 4.494h6.495z"/></g></g></g><g sketch:type="MSShapeGroup"><path d="M253.594 603.359l-14.754 52.924h133.892l-14.754-52.924h-104.384z" id="Rectangle-9" fill="#5EA034"/><path d="M253.625 603.359l-14.785 52.924h71.942l-57.157-52.924z" id="Rectangle-25" fill="#538534"/><path d="M253.625 603.359l-14.785 52.924 35.971-32.311-21.186-20.613z" id="Rectangle-31" fill="#528134"/><path d="M253.828 603.359l56.954 5.633v47.291l-56.954-52.924z" id="Rectangle-26" fill="#558C33"/><path d="M274.811 623.5l35.971-14.15v46.932l-35.971-32.783z" id="Rectangle-32" fill="#5C923A"/><path d="M359.742 609.351h-48.96v46.932l48.96-46.932z" id="Rectangle-27" fill="#589631"/><path d="M335.262 609.351h-24.48v46.932l24.48-46.932z" id="Rectangle-30" fill="#548E30"/><path d="M266.1 555.928l-20.266 52.924h119.903l-20.266-52.924h-79.372z" id="Rectangle-6" fill="#74AC50"/><path d="M333.763 608.851h31.475l-20.188-52.924-11.287 52.924z" id="Rectangle-29" fill="#77B252"/><path d="M266.157 555.928l-20.323 52.924 99.919-52.924h-79.596z" id="Rectangle-19" fill="#6FA24F"/><path d="M309.333 608.851h-63.499l99.919-52.924-36.42 52.924z" id="Rectangle-24" fill="#70A64E"/><path d="M278.5 512.99l-25.671 52.924h105.415l-25.671-52.924h-54.072z" id="Rectangle-7" fill="#73B34C"/><path d="M288.3 565.913h69.943l-25.737-52.924-44.207 52.924z" id="Rectangle-16" fill="#75B64C"/><path d="M288.3 565.913h69.943l-13.04-26.462-56.904 26.462z" id="Rectangle-28" fill="#75BB4A"/><path d="M288.3 565.913l6.513-38.349 37.452-14.575-43.964 52.924z" id="Rectangle-17" fill="#6FB046"/><path d="M256.825 526.969h98.92l-49.46-52.424-49.46 52.424z" id="Rectangle-8" fill="#80C256"/><path d="M256.825 526.969l48.96-26.212v-26.212l-48.96 52.424z" id="Rectangle-10" fill="#79BE4E"/><path d="M354.247 525.971l-48.461-25.262v-26.164l48.461 51.426z" id="Rectangle-11" fill="#88C363"/><path d="M353.747 526.47l-48.607-25.963-10.346 25.963h58.952z" id="Rectangle-15" fill="#84CB57"/><path id="Rectangle-13" fill="#A3856A" d="M287.8 655.784h34.972v48.929h-34.972z"/><path d="M287.8 655.784v15.355l34.972 21.591v-36.947h-34.972z" id="Rectangle-14" fill="#94765B"/></g><g sketch:type="MSShapeGroup"><path d="M312.118 597.071l-22.333 79.524h202.676l-22.333-79.524h-158.009z" id="Rectangle-9" fill="#5EA034"/><path d="M312.288 597.071l-22.503 79.524h109.499l-86.996-79.524z" id="Rectangle-25" fill="#538534"/><path d="M312.148 597.071l-22.363 79.524 54.41-48.551-32.046-30.973z" id="Rectangle-31" fill="#528134"/><path d="M312.229 597.071l86.375 8.464v71.06l-86.375-79.524z" id="Rectangle-26" fill="#558C33"/><path d="M344.195 627.424l54.41-21.517v71.367l-54.41-49.851z" id="Rectangle-32" fill="#5C923A"/><path d="M473.417 605.907h-74.133v71.367l74.133-71.367z" id="Rectangle-27" fill="#589631"/><path d="M436.691 605.907h-37.407v71.367l37.407-71.367z" id="Rectangle-30" fill="#548E30"/><path d="M331.359 525.024l-30.692 79.524h181.592l-30.692-79.524h-120.208z" id="Rectangle-6" fill="#74AC50"/><path d="M433.29 604.548h47.608l-30.536-79.524-17.072 79.524z" id="Rectangle-29" fill="#77B252"/><path d="M331.377 525.024l-30.71 79.524 150.986-79.524h-120.277z" id="Rectangle-19" fill="#6FA24F"/><path d="M396.619 604.548h-95.952l150.986-79.524-55.034 79.524z" id="Rectangle-24" fill="#70A64E"/><path d="M349.791 460.453l-38.922 79.524h159.828l-38.922-79.524h-81.983z" id="Rectangle-7" fill="#73B34C"/><path d="M364.598 539.977h106.099l-39.04-79.524-67.058 79.524z" id="Rectangle-16" fill="#75B64C"/><path d="M364.598 539.977h106.099l-19.78-40.102-86.318 40.102z" id="Rectangle-28" fill="#75BB4A"/><path d="M364.598 539.977l9.874-57.624 56.778-21.9-66.652 79.524z" id="Rectangle-17" fill="#6FB046"/><path d="M316.31 480.844h149.626l-74.813-78.844-74.813 78.844z" id="Rectangle-8" fill="#80C256"/><path d="M316.31 480.844l74.133-39.422v-39.422l-74.133 78.844z" id="Rectangle-10" fill="#79BE4E"/><path d="M465.256 480.164l-73.453-38.396v-39.768l73.453 78.164z" id="Rectangle-11" fill="#88C363"/><path d="M464.576 480.844l-74.021-39.422-15.755 39.422h89.776z" id="Rectangle-15" fill="#84CB57"/><path id="Rectangle-13" fill="#A3856A" d="M363.918 675.915h53.049v74.086h-53.049z"/><path d="M363.918 675.915v23.164l53.049 32.571v-55.735h-53.049z" id="Rectangle-14" fill="#94765B"/></g><g sketch:type="MSShapeGroup"><path d="M1547.711 650.508l-28.449 101.848h258.177l-28.449-101.848h-201.279z" fill="#5EA034"/><path d="M1547.746 650.508l-28.484 101.848h138.6l-110.117-101.848z" fill="#538534"/><path d="M1547.746 650.508l-28.484 101.848 69.3-62.18-40.817-39.668z" fill="#528134"/><path d="M1547.797 650.508l110.065 10.84v91.008l-110.065-101.848z" fill="#558C33"/><path d="M1588.562 688.803l69.3-27.431v90.984l-69.3-63.553z" fill="#5C923A"/><path d="M1751.621 661.372h-93.759v90.984l93.759-90.984z" fill="#589631"/><path d="M1704.742 661.372h-46.88v90.984l46.88-90.984z" fill="#548E30"/><path d="M1571.893 558.167l-39.043 101.848h231.001l-39.043-101.848h-152.915z" fill="#74AC50"/><path d="M1702.704 660.014h61.147l-39.22-101.848-21.927 101.848z" fill="#77B252"/><path d="M1571.957 558.167l-39.107 101.848 192.274-101.848h-153.167z" fill="#6FA24F"/><path d="M1655.041 660.014h-122.19l192.274-101.848-70.084 101.848z" fill="#70A64E"/><path d="M1596.075 476.009l-49.636 101.848h203.824l-49.636-101.848h-104.551z" fill="#73B34C"/><path d="M1615.059 577.857h135.203l-49.75-101.848-85.454 101.848z" fill="#75B64C"/><path d="M1615.059 577.857h135.203l-25.206-50.924-109.997 50.924z" fill="#75BB4A"/><path d="M1615.059 577.857l12.581-73.8 72.346-28.048-84.927 101.848z" fill="#6FB046"/><path d="M1553.233 503.169h190.236l-95.118-101.169-95.118 101.169z" fill="#80C256"/><path d="M1553.233 503.169l95.118-50.584v-50.584l-95.118 101.169z" fill="#79BE4E"/><path d="M1741.43 501.132l-93.08-48.696v-50.436l93.08 99.132z" fill="#88C363"/><path d="M1742.11 503.169l-94.111-50.245-20.031 50.245h114.141z" fill="#84CB57"/><path fill="#A3856A" d="M1614.38 752.356h67.941v95.058h-67.941z"/><path d="M1614.38 752.356v29.348l67.941 41.266v-70.614h-67.941z" fill="#94765B"/></g></g></svg>