<?xml version="1.0" encoding="UTF-8" standalone="no"?>
<!-- Created with Inkscape (http://www.inkscape.org/) -->

<svg
   xmlns:svg="http://www.w3.org/2000/svg"
   xmlns="http://www.w3.org/2000/svg"
   version="1.1"
   width="492.15295"
   height="535.10846"
   id="svg2"
   xml:space="preserve"><defs
     id="defs6" /><g
     transform="matrix(1.25,0,0,-1.25,-230.05397,597.60844)"
     id="g12"><g
       transform="scale(0.1,0.1)"
       id="g14"><path
         d="m 3325.43,500 635.508,0 0,1056.72 -635.508,0 0,-1056.72 z"
         id="path16"
         style="fill:#ea1394;fill-opacity:1;fill-rule:nonzero;stroke:none" /><path
         d="M 2723.69,2474 2577.82,2348.95 3409.9,1378.4 3555.76,1503.46 2723.69,2474"
         id="path18"
         style="fill:#ea1394;fill-opacity:1;fill-rule:nonzero;stroke:none" /><path
         d="m 3805.61,3232.11 -267.81,3.01 -20.03,-1781.97 267.82,-3.01 20.02,1781.97"
         id="path20"
         style="fill:#ea1394;fill-opacity:1;fill-rule:nonzero;stroke:none" /><path
         d="m 3182.69,3008.37 -195.52,-60.82 478.71,-1539.25 195.51,60.82 -478.7,1539.25"
         id="path22"
         style="fill:#ea1394;fill-opacity:1;fill-rule:nonzero;stroke:none" /><path
         d="m 4594.43,2507.26 145.85,-125.06 -832.07,-970.55 -145.87,125.06 832.09,970.55"
         id="path24"
         style="fill:#ea1394;fill-opacity:1;fill-rule:nonzero;stroke:none" /><path
         d="m 4135.42,3041.62 195.52,-60.82 -478.71,-1539.24 -195.52,60.82 478.71,1539.24"
         id="path26"
         style="fill:#ea1394;fill-opacity:1;fill-rule:nonzero;stroke:none" /><path
         d="m 4370.78,1954.06 -5.17,51.47 330.87,33.21 5.18,-51.47 -330.88,-33.21"
         id="path28"
         style="fill:#ea1394;fill-opacity:1;fill-rule:nonzero;stroke:none" /><path
         d="m 4346.02,2564.35 51.29,6.7 43.13,-329.73 -51.3,-6.71 -43.12,329.74"
         id="path30"
         style="fill:#ea1394;fill-opacity:1;fill-rule:nonzero;stroke:none" /><path
         d="m 4454.34,2854.61 20.52,-47.49 -305.26,-131.89 -20.53,47.48 305.27,131.9"
         id="path32"
         style="fill:#ea1394;fill-opacity:1;fill-rule:nonzero;stroke:none" /><path
         d="m 3591.63,2837.49 -46.49,-22.7 -145.99,298.76 46.47,22.72 146.01,-298.78"
         id="path34"
         style="fill:#ea1394;fill-opacity:1;fill-rule:nonzero;stroke:none" /><path
         d="m 3728.01,2540.72 -39.22,33.75 216.89,252.06 39.21,-33.72 -216.88,-252.09"
         id="path36"
         style="fill:#ea1394;fill-opacity:1;fill-rule:nonzero;stroke:none" /><path
         d="m 2897.4,2727.13 33.47,39.45 253.59,-215.12 -33.45,-39.44 -253.61,215.11"
         id="path38"
         style="fill:#ea1394;fill-opacity:1;fill-rule:nonzero;stroke:none" /><path
         d="m 2878.18,2434.68 50.64,10.57 67.95,-325.52 -50.62,-10.57 -67.97,325.52"
         id="path40"
         style="fill:#ea1394;fill-opacity:1;fill-rule:nonzero;stroke:none" /><path
         d="m 2754.46,1829.77 8.97,50.94 327.5,-57.62 -8.96,-50.94 -327.51,57.62"
         id="path42"
         style="fill:#ea1394;fill-opacity:1;fill-rule:nonzero;stroke:none" /><path
         d="m 3993.55,1266.88 c 7.57,-27.15 61.16,-45.74 247.18,-12.16 0,0 -73.09,235.46 -187.67,163.8 -12.85,-8.03 -31.87,-28.1 -3.18,-60.73 0,0 -65.5,27.69 -71.31,61.62 0,0 -0.67,-76.43 47.66,-106.15 0,0 -46.66,4.01 -32.68,-46.38"
         id="path44"
         style="fill:#681441;fill-opacity:1;fill-rule:nonzero;stroke:none" /><path
         d="m 4292.58,1759.54 c -24.7,13.6 -76.56,-11.28 -187.06,-166.03 0,0 219.71,-112.6 251.62,18.27 3.56,14.67 3.07,42.1 -40.75,44.59 0,0 66.91,26.94 95.15,7.36 0,0 -53.7,53.79 -109.65,40.39 0,0 36.51,30.17 -9.31,55.42"
         id="path46"
         style="fill:#681441;fill-opacity:1;fill-rule:nonzero;stroke:none" /><path
         d="m 4405.61,1248.67 c 28.14,-1.76 64.44,42.88 98.33,229.98 0,0 -246.76,8.07 -219.77,-123.9 3.04,-14.79 15.19,-39.39 55.89,-22.93 0,0 -49.01,-52.93 -82.91,-47.27 0,0 71.52,-25.73 116.4,10.26 0,0 -20.14,-42.86 32.06,-46.14"
         id="path48"
         style="fill:#681441;fill-opacity:1;fill-rule:nonzero;stroke:none" /><path
         d="m 4845.3,1987.2 c -16.37,22.94 -73.91,22.97 -240.48,-68.73 0,0 149.35,-196.59 234.76,-92.42 9.56,11.68 20.99,36.64 -17.46,57.84 0,0 71.98,-4.67 88.97,-34.53 0,0 -25.13,71.73 -81.37,83.86 0,0 45.96,11.4 15.58,53.98"
         id="path50"
         style="fill:#681441;fill-opacity:1;fill-rule:nonzero;stroke:none" /><path
         d="m 4706.89,1580.51 c -27.71,5.2 -69.23,-34.61 -125.91,-216.12 0,0 243.9,-38.41 233.37,95.88 -1.2,15.06 -10.24,40.97 -52.64,29.64 0,0 55.15,46.48 88.09,36.69 0,0 -67.79,34.36 -116.78,4.17 0,0 25.28,40.04 -26.13,49.74"
         id="path52"
         style="fill:#681441;fill-opacity:1;fill-rule:nonzero;stroke:none" /><path
         d="m 4660.08,1637.3 c 26.64,23.44 19.32,95.47 -116.73,292.31 0,0 -227.06,-212.07 -85.72,-305.69 15.83,-10.48 48.52,-21.6 70.15,29.24 0,0 3.36,-90.72 -31.88,-115.8 0,0 86.6,40.62 94.62,112.58 0,0 20.12,-56.08 69.56,-12.64"
         id="path54"
         style="fill:#681441;fill-opacity:1;fill-rule:nonzero;stroke:none" /><path
         d="m 5064.11,1617.11 c -2.18,28.1 -51.45,57.82 -241.44,65.27 0,0 26.41,-245.45 153.35,-200.32 14.21,5.06 36.88,20.54 14.9,58.54 0,0 59.24,-41.16 58.37,-75.51 0,0 15.5,74.41 -26.39,113.84 0,0 45.24,-13.97 41.21,38.18"
         id="path56"
         style="fill:#681441;fill-opacity:1;fill-rule:nonzero;stroke:none" /><path
         d="m 4996.22,1853.61 c -13.68,-24.65 11.03,-76.61 165.4,-187.59 0,0 113.34,219.32 -17.44,251.68 -14.65,3.61 -42.08,3.21 -44.72,-40.62 0,0 -26.71,67 -7.04,95.18 0,0 -53.97,-53.53 -40.77,-109.53 0,0 -30.04,36.62 -55.43,-9.12"
         id="path58"
         style="fill:#681441;fill-opacity:1;fill-rule:nonzero;stroke:none" /><path
         d="m 4787.14,2313.78 c -25.58,11.86 -75.62,-16.55 -175.14,-178.55 0,0 226.96,-97.16 249.76,35.62 2.54,14.87 0.15,42.21 -43.75,41.66 0,0 64.89,31.51 94.42,13.93 0,0 -57.29,49.94 -112.18,32.71 0,0 34.33,32.62 -13.11,54.63"
         id="path60"
         style="fill:#681441;fill-opacity:1;fill-rule:nonzero;stroke:none" /><path
         d="m 5116.93,2002.73 c 33.58,9.16 58.19,75.81 23.16,307.97 0,0 -291.61,-88.98 -207.42,-232.47 9.44,-16.05 33.46,-39.96 74.48,-4.49 0,0 -36.18,-81.4 -78.05,-88.31 0,0 93.85,-1.54 131.95,58.42 0,0 -6.45,-58.14 55.88,-41.12"
         id="path62"
         style="fill:#681441;fill-opacity:1;fill-rule:nonzero;stroke:none" /><path
         d="m 5340.13,2148.75 c -25.57,11.86 -75.61,-16.55 -175.13,-178.55 0,0 226.96,-97.16 249.75,35.61 2.55,14.87 0.16,42.21 -43.74,41.67 0,0 64.89,31.5 94.41,13.91 0,0 -57.28,49.96 -112.18,32.73 0,0 34.34,32.62 -13.11,54.63"
         id="path64"
         style="fill:#681441;fill-opacity:1;fill-rule:nonzero;stroke:none" /><path
         d="m 5538.18,2396.82 c -14.7,24.07 -72.09,28.17 -244.75,-51.4 0,0 134.93,-206.75 227.55,-108.92 10.37,10.96 23.54,35.03 -13.28,58.94 0,0 71.46,-9.79 86.26,-40.8 0,0 -19.94,73.34 -75.17,89.46 0,0 46.67,8.09 19.39,52.72"
         id="path66"
         style="fill:#681441;fill-opacity:1;fill-rule:nonzero;stroke:none" /><path
         d="m 4859.43,2360.19 c 6.35,-27.48 59.51,-49.51 248.47,-28.52 0,0 -62.76,238.78 -181.52,175.19 -13.31,-7.13 -33.41,-25.79 -6.01,-60.11 0,0 -64.73,31.87 -68.98,65.95 0,0 -4.22,-75.88 43.09,-108.62 0,0 -46.84,7.06 -35.05,-43.89"
         id="path68"
         style="fill:#681441;fill-opacity:1;fill-rule:nonzero;stroke:none" /><path
         d="m 4409.97,2716.64 c -20.71,-19.13 -13.47,-76.21 98.44,-229.91 0,0 176.25,172.89 62.14,244.5 -12.78,8.02 -38.97,16.22 -55.19,-24.59 0,0 -4.41,72 23.08,92.61 0,0 -68,-33.96 -72.96,-91.28 0,0 -17.1,44.17 -55.51,8.67"
         id="path70"
         style="fill:#681441;fill-opacity:1;fill-rule:nonzero;stroke:none" /><path
         d="m 4201.25,2400.72 c -19.89,-6.4 -32.81,-47.06 -5.47,-185.32 0,0 172.44,61.32 118.04,145.07 -6.11,9.37 -21.16,23.05 -44.8,0.67 0,0 19.49,49.81 44.4,55.09 0,0 -56.32,-1.64 -77.53,-38.65 0,0 2.26,35.05 -34.64,23.14"
         id="path72"
         style="fill:#681441;fill-opacity:1;fill-rule:nonzero;stroke:none" /><path
         d="m 2157.44,2390.05 c -19.9,-6.41 -32.82,-47.05 -5.47,-185.32 0,0 172.44,61.32 118.03,145.07 -6.11,9.37 -21.16,23.05 -44.79,0.67 0,0 19.48,49.8 44.4,55.09 0,0 -56.32,-1.64 -77.53,-38.66 0,0 2.27,35.05 -34.64,23.15"
         id="path74"
         style="fill:#681441;fill-opacity:1;fill-rule:nonzero;stroke:none" /><path
         d="m 4814.86,2520.06 c 26.59,9.39 42.5,64.67 0.47,250.1 0,0 -230.22,-89.11 -153.74,-200.02 8.59,-12.4 29.39,-30.3 60.41,0.77 0,0 -24.41,-67.87 -57.8,-75.94 0,0 75.89,4.32 103.1,54.99 0,0 -1.76,-47.32 47.56,-29.9"
         id="path76"
         style="fill:#681441;fill-opacity:1;fill-rule:nonzero;stroke:none" /><path
         d="m 5174.7,2493.3 c 26.55,-9.48 73.77,23.42 158.03,193.84 0,0 -234.92,75.97 -245.43,-58.34 -1.18,-15.05 3.68,-42.05 47.38,-37.49 0,0 -61.75,-37.31 -92.75,-22.51 0,0 61.62,-44.48 114.7,-22.31 0,0 -31.2,-35.63 18.07,-53.19"
         id="path78"
         style="fill:#681441;fill-opacity:1;fill-rule:nonzero;stroke:none" /><path
         d="m 4942.34,2875.87 c -27.45,-6.48 -49.22,-59.75 -27.37,-248.6 0,0 238.5,63.85 174.37,182.32 -7.2,13.26 -25.96,33.3 -60.16,5.73 0,0 31.57,64.88 65.62,69.29 0,0 -75.88,3.87 -108.41,-43.59 0,0 6.84,46.87 -44.05,34.85"
         id="path80"
         style="fill:#681441;fill-opacity:1;fill-rule:nonzero;stroke:none" /><path
         d="m 4676.31,3008.89 c -27.44,-6.49 -49.21,-59.75 -27.36,-248.62 0,0 238.49,63.87 174.35,182.34 -7.19,13.26 -25.94,33.3 -60.15,5.73 0,0 31.58,64.86 65.63,69.29 0,0 -75.89,3.87 -108.41,-43.6 0,0 6.84,46.88 -44.06,34.86"
         id="path82"
         style="fill:#681441;fill-opacity:1;fill-rule:nonzero;stroke:none" /><path
         d="m 5546.84,2723.12 c -27.2,7.4 -71.75,-29.03 -142.68,-205.42 0,0 240.07,-57.7 240.23,77.02 0.02,15.09 -6.91,41.65 -50.11,33.74 0,0 58.69,41.94 90.73,29.57 0,0 -64.85,39.61 -116.07,13.43 0,0 28.37,37.93 -22.1,51.66"
         id="path84"
         style="fill:#681441;fill-opacity:1;fill-rule:nonzero;stroke:none" /><path
         d="m 5364.7,2976.88 c -23.47,15.62 -77.26,-4.84 -200.33,-149.74 0,0 209.48,-130.68 252.25,-2.93 4.79,14.31 6.61,41.7 -36.87,47.86 0,0 68.95,21.22 95.43,-0.64 0,0 -48.99,58.09 -105.86,49.45 0,0 38.91,27.01 -4.62,56"
         id="path86"
         style="fill:#681441;fill-opacity:1;fill-rule:nonzero;stroke:none" /><path
         d="m 4567.36,3089.55 c -2.55,28.08 -52.22,57.13 -242.26,62.1 0,0 29.63,-245.11 155.95,-198.29 14.15,5.25 36.62,21 14.15,58.74 0,0 59.77,-40.39 59.35,-74.72 0,0 14.51,74.58 -27.89,113.46 0,0 45.45,-13.37 40.7,38.71"
         id="path88"
         style="fill:#681441;fill-opacity:1;fill-rule:nonzero;stroke:none" /><path
         d="m 5210.27,3045.21 c -2.56,28.09 -52.23,57.15 -242.27,62.1 0,0 29.63,-245.1 155.95,-198.29 14.15,5.26 36.62,21 14.15,58.73 0,0 59.77,-40.39 59.35,-74.72 0,0 14.51,74.59 -27.89,113.47 0,0 45.45,-13.36 40.71,38.71"
         id="path90"
         style="fill:#681441;fill-opacity:1;fill-rule:nonzero;stroke:none" /><path
         d="m 5766.43,2887.48 c 27.78,28.36 13.64,108.13 -154.41,316.48 0,0 -235.85,-255.37 -70.4,-348.15 18.54,-10.37 55.92,-20.11 75.9,38.41 0,0 11.2,-100.95 -26,-131.82 0,0 93.24,52.48 96.25,133.42 0,0 27.12,-60.93 78.66,-8.34"
         id="path92"
         style="fill:#681441;fill-opacity:1;fill-rule:nonzero;stroke:none" /><path
         d="m 5449.14,3112.84 c 20.29,19.58 11.83,76.5 -103.34,227.76 0,0 -172.52,-176.62 -56.89,-245.78 12.95,-7.73 39.29,-15.39 54.64,25.77 0,0 5.95,-71.9 -21.08,-93.07 0,0 67.24,35.4 70.99,92.8 0,0 18.04,-43.79 55.68,-7.48"
         id="path94"
         style="fill:#681441;fill-opacity:1;fill-rule:nonzero;stroke:none" /><path
         d="m 4914.7,3228.6 c 7.83,-27.08 62.1,-46.2 249.65,-15.06 0,0 -75.54,235.05 -190.71,165.14 -12.89,-7.84 -31.97,-27.55 -2.75,-60.34 0,0 -66.35,28.33 -72.44,62.11 0,0 -0.12,-75.98 48.87,-106.12 0,0 -47.14,4.51 -32.62,-45.73"
         id="path96"
         style="fill:#681441;fill-opacity:1;fill-rule:nonzero;stroke:none" /><path
         d="m 4652.36,3110.37 c 7.84,-27.08 62.1,-46.2 249.65,-15.06 0,0 -75.53,235.05 -190.7,165.14 -12.89,-7.84 -31.97,-27.56 -2.76,-60.34 0,0 -66.34,28.33 -72.44,62.12 0,0 -0.11,-76 48.88,-106.13 0,0 -47.14,4.51 -32.63,-45.73"
         id="path98"
         style="fill:#681441;fill-opacity:1;fill-rule:nonzero;stroke:none" /><path
         d="m 5434.07,3561.96 c -24.3,-14.29 -29.37,-71.6 47.25,-245.59 0,0 209.02,131.4 112.76,225.66 -10.79,10.55 -34.61,24.16 -59.15,-12.28 0,0 11.02,71.3 42.25,85.57 0,0 -73.66,-18.71 -90.72,-73.64 0,0 -7.3,46.79 -52.39,20.28"
         id="path100"
         style="fill:#681441;fill-opacity:1;fill-rule:nonzero;stroke:none" /><path
         d="m 5160.66,3554.57 c -24.3,-14.3 -29.38,-71.6 47.24,-245.59 0,0 209.03,131.41 112.76,225.66 -10.78,10.56 -34.61,24.15 -59.14,-12.28 0,0 11.01,71.3 42.24,85.57 0,0 -73.65,-18.71 -90.71,-73.64 0,0 -7.31,46.8 -52.39,20.28"
         id="path102"
         style="fill:#681441;fill-opacity:1;fill-rule:nonzero;stroke:none" /><path
         d="m 3885.28,3159.05 c -22.14,-17.44 -19.47,-74.91 79.89,-237.01 0,0 189.41,158.35 81.35,238.8 -12.12,9 -37.54,19.27 -56.96,-20.13 0,0 1.31,72.13 30.34,90.48 0,0 -70.47,-28.46 -79.98,-85.18 0,0 -13.53,45.37 -54.64,13.04"
         id="path104"
         style="fill:#681441;fill-opacity:1;fill-rule:nonzero;stroke:none" /><path
         d="m 3405.29,3143.79 c 18.3,21.44 4.43,77.28 -124.74,216.79 0,0 -154.75,-192.37 -33.03,-250.1 13.64,-6.46 40.59,-11.55 51.91,30.89 0,0 12.84,-71 -12.04,-94.67 0,0 63.54,41.7 61.76,99.19 0,0 22.15,-41.85 56.14,-2.1"
         id="path106"
         style="fill:#681441;fill-opacity:1;fill-rule:nonzero;stroke:none" /><path
         d="m 4624.32,3446.98 c -3.51,32.97 -62.41,66.25 -285.98,68.71 0,0 39.2,-287.66 186.91,-230.38 16.53,6.43 42.66,25.33 15.57,69.32 0,0 71,-46.44 71.12,-86.82 0,0 15.75,87.97 -34.79,132.92 0,0 53.64,-14.89 47.17,46.25"
         id="path108"
         style="fill:#681441;fill-opacity:1;fill-rule:nonzero;stroke:none" /><path
         d="m 5216.13,3736.17 c 16.76,22.66 -0.99,77.39 -139.57,207.55 0,0 -140.95,-202.69 -15.5,-251.79 14.06,-5.49 41.3,-8.69 49.64,34.44 0,0 17.75,-69.93 -5.42,-95.28 0,0 60.48,46.02 54.7,103.26 0,0 25.02,-40.2 56.15,1.82"
         id="path110"
         style="fill:#681441;fill-opacity:1;fill-rule:nonzero;stroke:none" /><path
         d="m 4617.58,3787.89 c 16.77,22.66 -0.99,77.39 -139.57,207.56 0,0 -140.95,-202.7 -15.5,-251.79 14.06,-5.5 41.3,-8.7 49.64,34.43 0,0 17.75,-69.93 -5.42,-95.28 0,0 60.48,46.03 54.7,103.26 0,0 25.02,-40.19 56.15,1.82"
         id="path112"
         style="fill:#681441;fill-opacity:1;fill-rule:nonzero;stroke:none" /><path
         d="m 5195.66,3957.36 c -19.98,-36.76 17.37,-113.57 247.91,-276.41 0,0 165.5,327.02 -29.04,373.37 -21.8,5.18 -62.51,4.29 -65.89,-60.84 0,0 -40.5,99.15 -11.67,141.2 0,0 -79.42,-80.13 -59.13,-163.09 0,0 -45.07,53.95 -82.18,-14.23"
         id="path114"
         style="fill:#681441;fill-opacity:1;fill-rule:nonzero;stroke:none" /><path
         d="m 3687.89,3441.21 c -11.58,-25.69 17.35,-75.43 180.36,-173.28 0,0 94.82,227.95 -38.17,249.36 -14.91,2.39 -42.21,-0.25 -41.22,-44.17 0,0 -32.17,64.58 -14.9,94.27 0,0 -49.35,-57.8 -31.57,-112.51 0,0 -32.98,33.98 -54.5,-13.67"
         id="path116"
         style="fill:#681441;fill-opacity:1;fill-rule:nonzero;stroke:none" /><path
         d="m 4373.85,3769.36 c -20.55,19.28 -76.99,8.01 -222.33,-114.54 0,0 184.98,-163.52 248.28,-44.61 7.09,13.33 13.43,40.02 -28.44,53.3 0,0 71.51,9.52 94.02,-16.43 0,0 -38.72,65.4 -96.24,66.3 0,0 42.83,20.19 4.71,55.98"
         id="path118"
         style="fill:#681441;fill-opacity:1;fill-rule:nonzero;stroke:none" /><path
         d="m 4747.78,4080.71 c -25.87,-11.17 -37.99,-67.42 16.5,-249.56 0,0 223.68,104.53 139.82,209.97 -9.39,11.81 -31.35,28.26 -60.21,-4.86 0,0 19.75,69.38 52.53,79.7 0,0 -75.42,-9.46 -99.16,-61.87 0,0 -1.45,47.34 -49.48,26.62"
         id="path120"
         style="fill:#681441;fill-opacity:1;fill-rule:nonzero;stroke:none" /><path
         d="m 5188.37,4206.52 c -5.43,27.66 -57.82,51.46 -247.39,36.87 0,0 54.66,-240.76 175.5,-181.22 13.54,6.68 34.27,24.65 8.04,59.88 0,0 63.6,-34.03 66.72,-68.25 0,0 6.78,75.72 -39.4,110.03 0,0 46.58,-8.63 36.53,42.69"
         id="path122"
         style="fill:#681441;fill-opacity:1;fill-rule:nonzero;stroke:none" /><path
         d="m 4700.21,4431.97 c -23.93,-14.88 -27.57,-72.32 53.4,-244.34 0,0 205.65,136.6 107.07,228.41 -11.06,10.29 -35.21,23.28 -58.83,-13.74 0,0 9.22,71.54 40.1,86.61 0,0 -73.18,-20.57 -88.86,-75.92 0,0 -8.47,46.6 -52.88,18.98"
         id="path124"
         style="fill:#681441;fill-opacity:1;fill-rule:nonzero;stroke:none" /><path
         d="m 4494.5,4402.77 c 32.34,-18 100.62,14.39 246.61,216.9 0,0 -287.82,149.2 -330.5,-22.47 -4.77,-19.25 -4.31,-55.26 53.26,-58.81 0,0 -88.04,-34.96 -125,-9.09 0,0 70.2,-70.96 143.76,-53.72 0,0 -48.13,-39.4 11.87,-72.81"
         id="path126"
         style="fill:#681441;fill-opacity:1;fill-rule:nonzero;stroke:none" /><path
         d="m 4302.05,4543.38 c 21.7,17.98 17.59,75.39 -85.78,234.94 0,0 -185.4,-163.02 -75.37,-240.73 12.33,-8.71 38.02,-18.34 56.44,21.53 0,0 0.48,-72.13 -28.09,-91.21 0,0 69.75,30.21 77.84,87.17 0,0 14.68,-45.03 54.96,-11.7"
         id="path128"
         style="fill:#681441;fill-opacity:1;fill-rule:nonzero;stroke:none" /><path
         d="m 3937.93,4525.61 c 28.18,0.07 61.5,46.98 83.21,235.85 0,0 -246.76,-7.9 -211.27,-137.84 3.99,-14.57 17.69,-38.33 57.26,-19.28 0,0 -45.51,-55.97 -79.69,-52.53 0,0 73.04,-21.03 115.51,17.77 0,0 -17.31,-44.08 34.98,-43.97"
         id="path130"
         style="fill:#681441;fill-opacity:1;fill-rule:nonzero;stroke:none" /><path
         d="m 3608.07,4770.11 c -28.14,1.38 -63.85,-43.75 -95.24,-231.27 0,0 246.84,-4.8 218.08,126.8 -3.23,14.75 -15.69,39.19 -56.19,22.2 0,0 48.34,53.55 82.3,48.36 0,0 -71.88,24.77 -116.28,-11.81 0,0 19.56,43.13 -32.67,45.72"
         id="path132"
         style="fill:#681441;fill-opacity:1;fill-rule:nonzero;stroke:none" /><path
         d="m 3477.73,4731.26 c -10.29,39.83 -88.73,70.03 -363.79,32.44 0,0 100.42,-346.25 271.41,-249.06 19.17,10.91 47.85,38.88 6.58,87.98 0,0 95.64,-44.15 103.13,-93.76 0,0 3.35,110.96 -66.91,157.01 0,0 68.63,-8.56 49.58,65.39"
         id="path134"
         style="fill:#681441;fill-opacity:1;fill-rule:nonzero;stroke:none" /><path
         d="m 2969.56,4380.43 c 25.57,-11.84 75.6,16.62 174.99,178.69 0,0 -227.03,96.99 -249.71,-35.78 -2.53,-14.89 -0.15,-42.22 43.78,-41.66 0,0 -64.89,-31.52 -94.42,-13.97 0,0 57.34,-49.91 112.22,-32.65 0,0 -34.31,-32.66 13.14,-54.63"
         id="path136"
         style="fill:#681441;fill-opacity:1;fill-rule:nonzero;stroke:none" /><path
         d="m 2612.66,4398.95 c -10.4,-26.19 20.78,-74.56 188.11,-164.81 0,0 84.25,232.06 -49.57,247.34 -15.01,1.7 -42.16,-2.2 -39.16,-46.02 0,0 -35.08,63.04 -19.2,93.5 0,0 -46.64,-60.02 -26.38,-113.86 0,0 -34.5,32.44 -53.8,-16.15"
         id="path138"
         style="fill:#681441;fill-opacity:1;fill-rule:nonzero;stroke:none" /><path
         d="m 2386.91,4067 c 15.92,-30.45 85.41,-40.14 301.98,42.57 0,0 -147.29,262.55 -267.91,151.09 -13.52,-12.5 -31.55,-40.68 11.32,-72.79 0,0 -86.16,17.77 -101.66,56.7 0,0 18.33,-90.88 84.18,-115 0,0 -57.43,-6.05 -27.91,-62.57"
         id="path140"
         style="fill:#681441;fill-opacity:1;fill-rule:nonzero;stroke:none" /><path
         d="m 2152.03,3960.49 c -10.4,-26.19 20.79,-74.55 188.12,-164.81 0,0 84.25,232.07 -49.57,247.33 -15.01,1.71 -42.17,-2.19 -39.16,-46.01 0,0 -35.09,63.04 -19.2,93.51 0,0 -46.65,-60.03 -26.38,-113.86 0,0 -34.5,32.44 -53.81,-16.16"
         id="path142"
         style="fill:#681441;fill-opacity:1;fill-rule:nonzero;stroke:none" /><path
         d="m 2309.69,3718.58 c -2.99,28.04 -53.07,56.34 -243.19,58.43 0,0 33.32,-244.62 158.93,-195.91 14.07,5.47 36.29,21.54 13.25,58.94 0,0 60.38,-39.49 60.48,-73.83 0,0 13.39,74.81 -29.59,113.05 0,0 45.62,-12.68 40.12,39.32"
         id="path144"
         style="fill:#681441;fill-opacity:1;fill-rule:nonzero;stroke:none" /><path
         d="m 1913.5,3361.9 c -2.55,-35.15 52.8,-81.1 286.27,-125.86 0,0 13.29,308.41 -152.09,276.34 -18.52,-3.61 -49.44,-18.46 -29.38,-69.58 0,0 -65.53,61.99 -58.03,104.25 0,0 -33.08,-89.07 11.32,-145.66 0,0 -53.34,25.73 -58.09,-39.49"
         id="path146"
         style="fill:#681441;fill-opacity:1;fill-rule:nonzero;stroke:none" /><path
         d="m 1932.29,3218.26 c -27.44,-6.49 -49.22,-59.75 -27.36,-248.61 0,0 238.49,63.86 174.35,182.33 -7.19,13.27 -25.95,33.29 -60.14,5.73 0,0 31.56,64.87 65.62,69.28 0,0 -75.89,3.87 -108.41,-43.58 0,0 6.83,46.87 -44.06,34.85"
         id="path148"
         style="fill:#681441;fill-opacity:1;fill-rule:nonzero;stroke:none" /><path
         d="m 2009.27,2665.39 c 26.58,9.4 42.5,64.67 0.47,250.1 0,0 -230.23,-89.12 -153.74,-200.02 8.57,-12.4 29.39,-30.29 60.41,0.77 0,0 -24.42,-67.87 -57.81,-75.94 0,0 75.89,4.32 103.11,54.99 0,0 -1.77,-47.31 47.56,-29.9"
         id="path150"
         style="fill:#681441;fill-opacity:1;fill-rule:nonzero;stroke:none" /><path
         d="m 1872.5,2492.87 c -11.58,-25.69 17.36,-75.43 180.36,-173.28 0,0 94.83,227.95 -38.17,249.36 -14.91,2.4 -42.21,-0.25 -41.22,-44.16 0,0 -32.17,64.57 -14.9,94.27 0,0 -49.35,-57.8 -31.57,-112.52 0,0 -32.97,33.99 -54.5,-13.67"
         id="path152"
         style="fill:#681441;fill-opacity:1;fill-rule:nonzero;stroke:none" /><path
         d="m 1860.59,2058.46 c 9,-38.92 84.3,-70.12 351.98,-40.39 0,0 -88.89,338.26 -257.14,248.18 -18.84,-10.1 -47.33,-36.53 -8.5,-85.16 0,0 -91.7,45.16 -97.73,93.43 0,0 -5.98,-107.5 61.04,-153.88 0,0 -66.34,10 -49.65,-62.18"
         id="path154"
         style="fill:#681441;fill-opacity:1;fill-rule:nonzero;stroke:none" /><path
         d="m 2306.34,1934.89 c -10.43,26.2 -66.31,39.92 -249.92,-9.45 0,0 98.2,-226.51 205.97,-145.67 12.06,9.05 29.11,30.55 -3.17,60.33 0,0 68.8,-21.69 78.18,-54.75 0,0 -7.33,75.65 -59.05,100.83 0,0 47.36,0.13 27.99,48.71"
         id="path156"
         style="fill:#681441;fill-opacity:1;fill-rule:nonzero;stroke:none" /><path
         d="m 2439.79,1538.18 c 28.13,-1.76 64.43,42.87 98.31,229.97 0,0 -246.75,8.07 -219.76,-123.9 3.04,-14.79 15.19,-39.39 55.89,-22.93 0,0 -49.02,-52.92 -82.92,-47.27 0,0 71.53,-25.73 116.41,10.27 0,0 -20.15,-42.87 32.07,-46.14"
         id="path158"
         style="fill:#681441;fill-opacity:1;fill-rule:nonzero;stroke:none" /><path
         d="m 2790.93,1434.79 c 26.89,23.67 19.5,96.4 -117.87,295.14 0,0 -229.27,-214.13 -86.56,-308.66 15.99,-10.59 49,-21.81 70.84,29.52 0,0 3.39,-91.6 -32.19,-116.91 0,0 87.44,41 95.54,113.66 0,0 20.32,-56.62 70.24,-12.75"
         id="path160"
         style="fill:#681441;fill-opacity:1;fill-rule:nonzero;stroke:none" /><path
         d="m 2855.98,1476.77 c -27.43,-6.49 -49.2,-59.75 -27.35,-248.61 0,0 238.5,63.86 174.36,182.33 -7.2,13.27 -25.95,33.3 -60.15,5.73 0,0 31.57,64.87 65.63,69.29 0,0 -75.9,3.87 -108.42,-43.58 0,0 6.84,46.86 -44.07,34.84"
         id="path162"
         style="fill:#681441;fill-opacity:1;fill-rule:nonzero;stroke:none" /><path
         d="m 3290.84,1292.38 c 16.23,23.05 -2.81,77.35 -144.42,204.18 0,0 -136.13,-205.97 -9.56,-252.09 14.19,-5.16 41.52,-7.7 48.82,35.61 0,0 19.4,-69.49 -3.16,-95.38 0,0 59.36,47.44 52.23,104.52 0,0 25.97,-39.6 56.09,3.16"
         id="path164"
         style="fill:#681441;fill-opacity:1;fill-rule:nonzero;stroke:none" /><path
         d="m 2812.68,1591.26 c 9.68,-26.49 65.13,-41.83 250.1,2.19 0,0 -91.59,229.26 -201.66,151.59 -12.33,-8.71 -29.98,-29.71 1.43,-60.39 0,0 -68.15,23.67 -76.56,56.99 0,0 5.12,-75.84 56.1,-102.52 0,0 -47.34,1.27 -29.41,-47.86"
         id="path166"
         style="fill:#681441;fill-opacity:1;fill-rule:nonzero;stroke:none" /><path
         d="m 2475.36,1871.64 c 17.35,-22.23 74.84,-19.75 237.29,79.04 0,0 -157.67,189.97 -238.51,82.19 -9.04,-12.07 -19.39,-37.48 19.94,-57.03 0,0 -72.13,1.57 -90.38,30.68 0,0 28.21,-70.57 84.91,-80.28 0,0 -45.43,-13.38 -13.25,-54.6"
         id="path168"
         style="fill:#681441;fill-opacity:1;fill-rule:nonzero;stroke:none" /><path
         d="m 2413.62,2353.03 c -27.35,6.86 -71.2,-30.39 -138.78,-208.09 0,0 241.1,-53.14 238.73,81.55 -0.28,15.1 -7.69,41.51 -50.75,32.8 0,0 57.9,43.03 90.17,31.28 0,0 -65.6,38.38 -116.31,11.24 0,0 27.64,38.44 -23.06,51.22"
         id="path170"
         style="fill:#681441;fill-opacity:1;fill-rule:nonzero;stroke:none" /><path
         d="m 2466.09,2595.98 c -1.69,33.95 -60.05,71.41 -288.71,86.86 0,0 23.48,-296.68 177.96,-246.59 17.3,5.64 45.14,23.47 19.95,70.04 0,0 69.99,-51.62 67.78,-92.97 0,0 21.18,89.13 -27.93,138.07 0,0 54.04,-18.36 50.95,44.59"
         id="path172"
         style="fill:#681441;fill-opacity:1;fill-rule:nonzero;stroke:none" /><path
         d="m 2836.8,2690.48 c -20.55,19.28 -76.98,8 -222.34,-114.55 0,0 184.98,-163.52 248.29,-44.61 7.1,13.33 13.43,40.02 -28.43,53.3 0,0 71.5,9.52 94.02,-16.43 0,0 -38.73,65.42 -96.25,66.3 0,0 42.84,20.2 4.71,55.99"
         id="path174"
         style="fill:#681441;fill-opacity:1;fill-rule:nonzero;stroke:none" /><path
         d="m 2396.23,2807.71 c -9.63,-26.49 22.95,-73.92 192.83,-159.26 0,0 77.46,234.43 -56.79,245.8 -15.04,1.27 -42.07,-3.42 -37.77,-47.14 0,0 -36.92,61.99 -21.94,92.87 0,0 -44.86,-61.33 -23.03,-114.54 0,0 -35.44,31.42 -53.3,-17.73"
         id="path176"
         style="fill:#681441;fill-opacity:1;fill-rule:nonzero;stroke:none" /><path
         d="m 2893.54,2949.64 c -4.69,27.78 -56.45,52.96 -246.32,43.37 0,0 48.29,-242.11 170.65,-185.78 13.71,6.32 34.91,23.73 9.62,59.65 0,0 62.68,-35.71 64.9,-69.99 0,0 8.76,75.5 -36.49,111.02 0,0 46.33,-9.84 37.64,41.73"
         id="path178"
         style="fill:#681441;fill-opacity:1;fill-rule:nonzero;stroke:none" /><path
         d="m 2105.07,3027.57 c -22.54,-32.85 5.3,-109.26 207.6,-286.05 0,0 188.8,293.39 9.14,356.38 -20.13,7.04 -58.78,10.17 -68.36,-51.15 0,0 -28.61,97.84 2.82,134.82 0,0 -83.07,-68.06 -71.99,-148.6 0,0 -37.39,55.53 -79.21,-5.4"
         id="path180"
         style="fill:#681441;fill-opacity:1;fill-rule:nonzero;stroke:none" /><path
         d="m 3290.25,2898.81 c -23.93,-14.89 -27.57,-72.33 53.39,-244.35 0,0 205.65,136.6 107.07,228.41 -11.05,10.29 -35.21,23.29 -58.82,-13.75 0,0 9.22,71.54 40.1,86.61 0,0 -73.19,-20.55 -88.87,-75.91 0,0 -8.47,46.61 -52.87,18.99"
         id="path182"
         style="fill:#681441;fill-opacity:1;fill-rule:nonzero;stroke:none" /><path
         d="m 3011.73,2377.39 c -18,-11.2 -20.74,-54.41 40.17,-183.82 0,0 154.72,102.77 80.56,171.84 -8.32,7.74 -26.49,17.52 -44.26,-10.34 0,0 6.94,53.82 30.17,65.16 0,0 -55.05,-15.47 -66.85,-57.12 0,0 -6.38,35.07 -39.79,14.28"
         id="path184"
         style="fill:#681441;fill-opacity:1;fill-rule:nonzero;stroke:none" /><path
         d="m 2606.37,3127.61 c 7.9,27.05 -27.66,72.29 -202.69,146.54 0,0 -62.23,-238.92 72.45,-241.64 15.1,-0.29 41.77,6.11 34.69,49.47 0,0 40.82,-59.48 27.84,-91.3 0,0 40.85,64.12 15.64,115.83 0,0 37.38,-29.09 52.07,21.1"
         id="path186"
         style="fill:#681441;fill-opacity:1;fill-rule:nonzero;stroke:none" /><path
         d="m 2701.82,3324.86 c 27.25,-7.25 71.61,29.39 141.64,206.15 0,0 -240.33,56.47 -239.83,-78.24 0.07,-15.09 7.12,-41.6 50.29,-33.48 0,0 -58.49,-42.24 -90.6,-30.03 0,0 65.06,-39.3 116.15,-12.86 0,0 -28.17,-38.05 22.35,-51.54"
         id="path188"
         style="fill:#681441;fill-opacity:1;fill-rule:nonzero;stroke:none" /><path
         d="m 2737.05,3146.76 c 2.91,-34.4 63.52,-70.39 296.34,-77.94 0,0 -34.43,300.51 -189.51,244.13 -17.39,-6.34 -45.04,-25.44 -17.81,-71.84 0,0 -72.91,49.95 -72.14,92.03 0,0 -18.35,-91.3 33.29,-139.26 0,0 -55.56,16.72 -50.17,-47.12"
         id="path190"
         style="fill:#681441;fill-opacity:1;fill-rule:nonzero;stroke:none" /><path
         d="m 2940.27,3359.47 c -10.41,-26.18 20.78,-74.55 188.11,-164.81 0,0 84.25,232.06 -49.57,247.33 -15.01,1.71 -42.17,-2.19 -39.16,-46.01 0,0 -35.08,63.04 -19.2,93.51 0,0 -46.65,-60.03 -26.37,-113.86 0,0 -34.51,32.44 -53.81,-16.16"
         id="path192"
         style="fill:#681441;fill-opacity:1;fill-rule:nonzero;stroke:none" /><path
         d="m 3504.83,3312.54 c 27.24,-7.25 71.6,29.4 141.64,206.15 0,0 -240.34,56.48 -239.83,-78.23 0.07,-15.1 7.11,-41.61 50.29,-33.49 0,0 -58.49,-42.24 -90.6,-30.03 0,0 65.06,-39.29 116.15,-12.85 0,0 -28.16,-38.06 22.35,-51.55"
         id="path194"
         style="fill:#681441;fill-opacity:1;fill-rule:nonzero;stroke:none" /><path
         d="m 2748.82,3865.64 c -9.31,36.04 -80.27,63.36 -329.16,29.34 0,0 90.86,-313.28 245.58,-225.34 17.34,9.88 43.29,35.18 5.95,79.62 0,0 86.54,-39.95 93.32,-84.84 0,0 3.03,100.4 -60.55,142.06 0,0 62.1,-7.75 44.86,59.16"
         id="path196"
         style="fill:#681441;fill-opacity:1;fill-rule:nonzero;stroke:none" /><path
         d="m 4311.82,3455.73 c -10.34,40.05 -89.21,70.42 -365.8,32.61 0,0 100.97,-348.16 272.92,-250.43 19.25,10.98 48.1,39.1 6.61,88.48 0,0 96.17,-44.4 103.7,-94.28 0,0 3.36,111.57 -67.29,157.87 0,0 69.02,-8.61 49.86,65.75"
         id="path198"
         style="fill:#681441;fill-opacity:1;fill-rule:nonzero;stroke:none" /><path
         d="m 2391.46,3601.9 c -27.78,-4.64 -53.04,-56.35 -43.76,-246.25 0,0 242.19,47.91 186.05,170.37 -6.29,13.71 -23.67,34.94 -59.63,9.7 0,0 35.8,62.64 70.09,64.79 0,0 -75.49,8.88 -111.09,-36.31 0,0 9.93,46.31 -41.66,37.7"
         id="path200"
         style="fill:#681441;fill-opacity:1;fill-rule:nonzero;stroke:none" /><path
         d="m 3228.91,3409.15 c 34.88,-16.14 103.11,22.68 238.67,243.72 0,0 -309.65,132.29 -340.57,-48.8 -3.46,-20.32 -0.21,-57.59 59.7,-56.81 0,0 -88.5,-43.01 -128.79,-19.07 0,0 78.22,-68.06 153.06,-44.53 0,0 -46.79,-44.54 17.93,-74.51"
         id="path202"
         style="fill:#681441;fill-opacity:1;fill-rule:nonzero;stroke:none" /><path
         d="m 3023.64,3612.3 c 21.71,17.97 17.59,75.38 -85.78,234.93 0,0 -185.4,-163.02 -75.38,-240.73 12.35,-8.71 38.03,-18.34 56.46,21.54 0,0 0.47,-72.15 -28.1,-91.22 0,0 69.76,30.22 77.85,87.17 0,0 14.67,-45.03 54.95,-11.69"
         id="path204"
         style="fill:#681441;fill-opacity:1;fill-rule:nonzero;stroke:none" /><path
         d="m 3104.04,4003.38 c -23.92,-14.9 -27.56,-72.33 53.4,-244.35 0,0 205.65,136.61 107.08,228.41 -11.06,10.29 -35.21,23.29 -58.83,-13.74 0,0 9.22,71.54 40.1,86.61 0,0 -73.18,-20.56 -88.86,-75.92 0,0 -8.48,46.6 -52.89,18.99"
         id="path206"
         style="fill:#681441;fill-opacity:1;fill-rule:nonzero;stroke:none" /><path
         d="m 2826.78,3883.62 c 34.59,-16 102.24,22.49 236.68,241.68 0,0 -307.07,131.18 -337.73,-48.39 -3.42,-20.14 -0.2,-57.11 59.21,-56.34 0,0 -87.76,-42.64 -127.71,-18.91 0,0 77.56,-67.49 151.77,-44.15 0,0 -46.4,-44.17 17.78,-73.89"
         id="path208"
         style="fill:#681441;fill-opacity:1;fill-rule:nonzero;stroke:none" /><path
         d="m 3159.88,4451.41 c -28.14,1.38 -63.84,-43.76 -95.23,-231.27 0,0 246.84,-4.79 218.08,126.79 -3.23,14.75 -15.69,39.2 -56.19,22.21 0,0 48.34,53.55 82.29,48.36 0,0 -71.87,24.76 -116.27,-11.81 0,0 19.56,43.14 -32.68,45.72"
         id="path210"
         style="fill:#681441;fill-opacity:1;fill-rule:nonzero;stroke:none" /><path
         d="m 3416.93,3793.45 c -11.57,-25.7 17.35,-75.43 180.37,-173.28 0,0 94.82,227.94 -38.18,249.35 -14.9,2.4 -42.21,-0.24 -41.21,-44.16 0,0 -32.17,64.58 -14.9,94.27 0,0 -49.36,-57.81 -31.58,-112.52 0,0 -32.96,34 -54.5,-13.66"
         id="path212"
         style="fill:#681441;fill-opacity:1;fill-rule:nonzero;stroke:none" /><path
         d="m 3806.61,3666.71 c 6.48,-27.42 59.75,-49.19 248.6,-27.33 0,0 -63.86,238.48 -182.32,174.33 -13.28,-7.19 -33.3,-25.94 -5.73,-60.14 0,0 -64.87,31.57 -69.29,65.64 0,0 -3.86,-75.92 43.59,-108.43 0,0 -46.86,6.83 -34.85,-44.07"
         id="path214"
         style="fill:#681441;fill-opacity:1;fill-rule:nonzero;stroke:none" /><path
         d="m 3735.53,3898.9 c 19.12,-20.69 76.22,-13.47 229.94,98.4 0,0 -172.85,176.29 -244.48,62.21 -8.02,-12.8 -16.23,-38.97 24.58,-55.2 0,0 -72.01,-4.39 -92.62,23.1 0,0 33.96,-68.01 91.28,-73 0,0 -44.18,-17.09 -8.7,-55.51"
         id="path216"
         style="fill:#681441;fill-opacity:1;fill-rule:nonzero;stroke:none" /><path
         d="m 3570.82,4021.02 c 22.02,29.77 -1.29,101.66 -183.32,272.63 0,0 -185.14,-266.23 -20.36,-330.72 18.47,-7.22 54.25,-11.43 65.2,45.22 0,0 23.32,-91.85 -7.11,-125.15 0,0 79.43,60.46 71.84,135.64 0,0 32.86,-52.8 73.75,2.38"
         id="path218"
         style="fill:#681441;fill-opacity:1;fill-rule:nonzero;stroke:none" /><path
         d="m 3752.05,4372.89 c -2.56,28.08 -52.23,57.13 -242.28,62.09 0,0 29.63,-245.1 155.96,-198.28 14.15,5.25 36.61,21 14.15,58.73 0,0 59.77,-40.39 59.35,-74.73 0,0 14.51,74.59 -27.89,113.48 0,0 45.45,-13.37 40.71,38.71"
         id="path220"
         style="fill:#681441;fill-opacity:1;fill-rule:nonzero;stroke:none" /><path
         d="m 3828.1,4419.63 c -30.22,-17.79 -36.55,-89.07 58.77,-305.49 0,0 259.98,163.45 140.24,280.7 -13.41,13.12 -43.04,30.04 -73.56,-15.28 0,0 13.7,88.69 52.56,106.44 0,0 -91.62,-23.27 -112.85,-91.6 0,0 -9.09,58.2 -65.16,25.23"
         id="path222"
         style="fill:#681441;fill-opacity:1;fill-rule:nonzero;stroke:none" /><path
         d="m 4182.31,4069.79 c -34.39,3.89 -81.66,-48.63 -134.77,-275.96 0,0 302.13,-25.15 277.15,138.37 -2.8,18.31 -16.17,49.25 -67.13,31.58 0,0 63.4,61.86 104.6,52.84 0,0 -86.11,35.96 -143.38,-5.39 0,0 27.35,51.34 -36.47,58.56"
         id="path224"
         style="fill:#681441;fill-opacity:1;fill-rule:nonzero;stroke:none" /><path
         d="m 4565.98,4272.97 c -23.48,15.62 -77.26,-4.83 -200.34,-149.73 0,0 209.49,-130.67 252.26,-2.93 4.78,14.31 6.61,41.69 -36.88,47.87 0,0 68.96,21.21 95.44,-0.66 0,0 -48.99,58.09 -105.86,49.47 0,0 38.91,27 -4.62,55.98"
         id="path226"
         style="fill:#681441;fill-opacity:1;fill-rule:nonzero;stroke:none" /><path
         d="m 4233.61,4136.16 c 28.13,-1.86 64.59,42.65 99.17,229.59 0,0 -246.73,9.02 -220.21,-123.06 2.98,-14.8 15.02,-39.45 55.8,-23.14 0,0 -49.23,-52.74 -83.07,-46.96 0,0 71.41,-25.99 116.42,9.81 0,0 -20.29,-42.79 31.89,-46.24"
         id="path228"
         style="fill:#681441;fill-opacity:1;fill-rule:nonzero;stroke:none" /><path
         d="m 4657.97,3757.69 c -38.05,-30.67 -42.48,-127.36 110.4,-419.58 0,0 346.44,251.78 168.89,403.69 -19.92,17.03 -65.31,25.77 -100.82,-15.66 -21.39,-24.96 -38.74,-49.26 -49.25,-200.95 17.94,258.97 -64.92,284.34 -129.22,232.5"
         id="path230"
         style="fill:#ea50b0;fill-opacity:1;fill-rule:nonzero;stroke:none" /></g></g></svg>