<svg width="463" height="518" viewBox="0 0 463 518" xmlns="http://www.w3.org/2000/svg" xmlns:xlink="http://www.w3.org/1999/xlink" xmlns:sketch="http://www.bohemiancoding.com/sketch/ns"><title>Dark Knight</title><defs><path id="a" d="M51.1 0v7.155h-3.853v-7.155h-12.452v7.155h-3.858v-7.155h-12.845v7.155h-3.851v-7.155h-10.402s-19.264 70.5 28.511 70.5c47.774 0 29.024-70.5 29.024-70.5h-10.274z"/><path id="b" d="M33 101.5h-1.5v-32h1.5v32z"/><path id="c" d="M5 100.5v1.5h56v-1.5h-56z"/></defs><g sketch:type="MSLayerGroup" fill="none"><g sketch:type="MSShapeGroup"><g><path d="M136 356.5v48.545l40.339 23.955 33.161-32.475v-40.025h-73.5z" fill="#737373"/><path d="M176.339 444.5l-40.339-26.18v-14.062l40.339 24.825 33.161-32.082v19.195l-33.161 28.305z" fill="#686868"/><path d="M176 429l33-32.475v-40.025l-33 72.5z" fill="#A9A9A9"/><path d="M176 429l3.644-41.68 29.356-30.82-33 72.5z" fill="#949494"/><path d="M175.857 430l3.643-41.992-42-29.508 38.357 71.5z" fill="#818181"/><path d="M176.339 443.325l-40.339-25.64 9.716 34.178 21.324 13.637h18.359l16.268-13.637 7.833-36.363-33.161 27.825z" fill="#5D5D5D"/><path d="M190.472 517.5h-26.645l-16.088-23.054-2.239-43.446 21.216 13.651h18.266l16.185-13.651 2.833 43.446-13.528 23.054z" fill="#393939"/></g><g><path d="M250 356.5v48.545l40.339 23.955 33.161-32.475v-40.025h-73.5z" fill="#737373"/><path d="M290.339 445l-40.339-23.183v-17.119l40.339 23.604 33.161-31.302v19.228l-33.161 28.772z" fill="#686868"/><path d="M290.339 444.172l-40.339-23.102 9.716 30.794 21.324 13.637h18.359l16.268-13.637 7.833-36.363-33.161 28.672z" fill="#5D5D5D"/><path d="M305.356 517.5h-26.873l-16.226-23.054-2.258-43.446 21.397 13.651h18.422l16.324-13.651 2.857 43.446-13.644 23.054z" fill="#393939"/><path d="M290.5 429l33-32.475v-40.025l-33 72.5z" fill="#A9A9A9"/><path d="M290.5 429l3.644-41.68 29.356-30.82-33 72.5z" fill="#949494"/><path d="M290.813 430l3.687-41.992-42.5-29.508 38.813 71.5z" fill="#818181"/></g></g><g id="Dark-shield" sketch:type="MSShapeGroup"><path fill="#686868" d="M91.5 176.5h276.5v32h-276.5z"/><path d="M91.5 176.5v32l65-32h-65z" fill="#565656"/><path d="M133.923 208.5h-42.423l65-32-22.577 32z" fill="#4B4B4B"/><path d="M134 208.5l63-32h-40.556l-22.444 32z" fill="#454545"/><path d="M134 208.5l62.876-32 42.624 32h-105.5z" fill="#494949"/><path d="M295.5 176.5h-99l42.757 32 56.243-32z" fill="#414141"/><path d="M295.773 176.5l33.727 32h-90l56.273-32z" fill="#4C4C4C"/><path d="M295.5 176.5l33.5 32-7.918-32h-25.582z" fill="#454545"/><path d="M368 176.5l-39.028 32-7.972-32h47z" fill="#414141"/><path d="M368 176.5l-39 32h39v-32z" fill="#565656"/></g><g id="Light-shield" sketch:type="MSShapeGroup"><path fill="#545454" d="M70 204.5h319.5v32h-319.5z"/><path d="M70 204.5v32h42l-42-32z" fill="#5D5D5D"/><path d="M70 204.5h32.441l9.559 32-42-32z" fill="#585656"/><path d="M142 236.5l-40-32 9.562 32h30.438z" fill="#4D4D4D"/><path d="M141.673 236.5l-39.673-32h54l-14.327 32z" fill="#575757"/><path d="M142 236.5l41.5-32h-27.141l-14.359 32z" fill="#5D5D5D"/><path d="M142 236.5l41.524-32 19.476 32h-61z" fill="#636363"/><path d="M236 204.5h-52.5l19.408 32 33.092-32z" fill="#5C5C5C"/><path d="M236.12 204.5l45.88 32h-79l33.12-32z" fill="#585656"/><path d="M236 204.5l45.5 32-14.887-32h-30.613z" fill="#616161"/><path d="M318.5 204.5l-36.527 32-14.973-32h51.5z" fill="#5B5B5B"/><path d="M318.091 204.5l-36.591 32h71.5l-34.909-32z" fill="#565656"/><path d="M318.5 204.5h50.5l-15.39 32-35.11-32z" fill="#646464"/><path d="M390.5 204.5h-21.698l-15.302 32 37-32z" fill="#6B6B6B"/><path d="M390.5 204.5v32h-37l37-32z" fill="#626262"/></g><g id="Dark-shield" sketch:type="MSShapeGroup"><path fill="#454545" d="M59.5 229h340.5v32h-340.5z"/><path d="M59.5 229v32h53.5l-53.5-32z" fill="#2C2C2C"/><path d="M59.5 229h23.059l30.441 32-53.5-32z" fill="#262626"/><path d="M122.5 229h-39.5l30.612 32 8.888-32z" fill="#2A2A2A"/><path d="M121.816 229l30.184 32h-39l8.816-32z" fill="#303030"/><path d="M121.5 229l30.5 32-9.652-32h-20.848z" fill="#272727"/><path d="M198 229l-45.903 32-9.597-32h55.5z" fill="#1D1D1D"/><path d="M197.989 229l-45.989 32h72.5l-26.511-32z" fill="#303030"/><path d="M198 229h73l-46.495 32-26.505-32z" fill="#2A2A2A"/><path d="M258.519 261l11.981-32-46 32h34.019z" fill="#1D1D1D"/><path d="M258.5 261l12.106-32h46.894l-59 32z" fill="#262626"/><path d="M258.5 261h56.202l2.798-32-59 32z" fill="#161616"/><path d="M345 229l-30.5 32 2.795-32h27.705z" fill="#222"/><path d="M345.104 229l-30.604 32 61-32h-30.396z" fill="#2D2D2D"/><path d="M399.5 261h-85l60.674-32 24.326 32z" fill="#161616"/><path d="M399.5 261v-32h-24l24 32z" fill="#272727"/></g><g id="Light-shield" sketch:type="MSShapeGroup"><path fill="#545454" d="M70 251h319.5v32h-319.5z"/><path d="M70.101 251l-10.601 32h52.5l-41.899-32z" fill="#5D5D5D"/><path d="M71 251l-11.5 32v-32h11.5z" fill="#494949"/><path d="M70 251h32.441l9.559 32-42-32z" fill="#585656"/><path d="M142 283l-40-32 9.562 32h30.438z" fill="#4D4D4D"/><path d="M141.673 283l-39.673-32h54l-14.327 32z" fill="#575757"/><path d="M142 283l41.5-32h-27.141l-14.359 32z" fill="#5D5D5D"/><path d="M142 283l41.524-32 19.476 32h-61z" fill="#636363"/><path d="M236 251h-52.5l19.408 32 33.092-32z" fill="#5C5C5C"/><path d="M236.12 251l45.88 32h-79l33.12-32z" fill="#585656"/><path d="M236 251l45.5 32-14.887-32h-30.613z" fill="#616161"/><path d="M318.5 251l-36.527 32-14.973-32h51.5z" fill="#5B5B5B"/><path d="M318.091 251l-36.591 32h71.5l-34.909-32z" fill="#565656"/><path d="M318.5 251h50.5l-15.39 32-35.11-32z" fill="#646464"/><path d="M390.5 251h-21.698l-15.302 32 37-32z" fill="#6B6B6B"/><path d="M390.428 251l9.572 32h-46.5l36.928-32z" fill="#626262"/></g><g id="Dark-shield" sketch:type="MSShapeGroup"><path fill="#454545" d="M59.5 276h340.5v32h-340.5z"/><path d="M59.5 276v32h53.5l-53.5-32z" fill="#2C2C2C"/><path d="M59.5 276h23.059l30.441 32-53.5-32z" fill="#262626"/><path d="M122.5 276h-39.5l30.612 32 8.888-32z" fill="#2A2A2A"/><path d="M121.816 276l30.184 32h-39l8.816-32z" fill="#303030"/><path d="M121.5 276l30.5 32-9.652-32h-20.848z" fill="#272727"/><path d="M198 276l-45.903 32-9.597-32h55.5z" fill="#1D1D1D"/><path d="M197.989 276l-45.989 32h72.5l-26.511-32z" fill="#303030"/><path d="M198 276h73l-46.495 32-26.505-32z" fill="#2A2A2A"/><path d="M258.519 308l11.981-32-46 32h34.019z" fill="#1D1D1D"/><path d="M258.5 308l12.106-32h46.894l-59 32z" fill="#262626"/><path d="M258.5 308h56.202l2.798-32-59 32z" fill="#161616"/><path d="M345 276l-30.5 32 2.795-32h27.705z" fill="#222"/><path d="M345.104 276l-30.604 32 61-32h-30.396z" fill="#2D2D2D"/><path d="M399.5 308h-85l60.674-32 24.326 32z" fill="#161616"/><path d="M399.5 308v-32h-24l24 32z" fill="#272727"/></g><g id="Light-shield" sketch:type="MSShapeGroup"><path fill="#545454" d="M70 301.5h319.5v32h-319.5z"/><path d="M70.101 301.5l-10.601 32h52.5l-41.899-32z" fill="#5D5D5D"/><path d="M71 301.5l-11.5 32v-32h11.5z" fill="#494949"/><path d="M70 301.5h32.441l9.559 32-42-32z" fill="#585656"/><path d="M142 333.5l-40-32 9.562 32h30.438z" fill="#4D4D4D"/><path d="M141.673 333.5l-39.673-32h54l-14.327 32z" fill="#575757"/><path d="M142 333.5l41.5-32h-27.141l-14.359 32z" fill="#5D5D5D"/><path d="M142 333.5l41.524-32 19.476 32h-61z" fill="#636363"/><path d="M236 301.5h-52.5l19.408 32 33.092-32z" fill="#5C5C5C"/><path d="M236.12 301.5l45.88 32h-79l33.12-32z" fill="#585656"/><path d="M236 301.5l45.5 32-14.887-32h-30.613z" fill="#616161"/><path d="M318.5 301.5l-36.527 32-14.973-32h51.5z" fill="#5B5B5B"/><path d="M318.091 301.5l-36.591 32h71.5l-34.909-32z" fill="#565656"/><path d="M318.5 301.5h50.5l-15.39 32-35.11-32z" fill="#646464"/><path d="M390.5 301.5h-21.698l-15.302 32 37-32z" fill="#6B6B6B"/><path d="M390.428 301.5l9.572 32h-46.5l36.928-32z" fill="#626262"/><path d="M389 301.5l11 32v-32h-11z" fill="#595959"/></g><g sketch:type="MSShapeGroup"><path d="M289.396 121.019l-8.896 83.981h39.5v-205l-30.604 121.019z" fill="#F3F3F3"/><path d="M280.5 204.5h39.5l-23.686-81.5-15.814 81.5z" fill="#EBEBEB"/><path d="M289 0l5.881 132.5 25.119-132.5h-31z" fill="#EDEDED"/><path d="M260.611 101.575l28.793-101.575 6.596 125.941-63 79.059 27.611-103.425z" fill="#EAEAEA"/><path d="M290.5 0l-15.946 53.5-42.554-53.5h58.5z" fill="#E6E6E6"/><path d="M233 101.5l43-48.504-43-52.996v101.5z" fill="#E3E3E3"/><path d="M233 98.684l42-45.684-42 152.5v-106.816z" fill="#F0F0F0"/><path d="M280.954 205l-47.954-.5 63.5-81.5-15.546 82z" fill="#E2E0E0"/><path fill="#EDEDED" d="M145.5 0h87.5v205h-87.5z"/><path d="M145.5 0v93l26-93h-26z" fill="#ccc"/><path d="M158.5 104.756l-13 101.744v-113.344l26-93.156-13 104.756z" fill="#D1D1D1"/><path d="M145.5 206.5v-113.5l13 11.723-13 101.777z" fill="#C2C2C2"/><path d="M158 105l75.5-105h-62.661l-12.839 105z" fill="#D4D4D4"/><path d="M158 105.193l75.5-105.193v142l-75.5-36.807z" fill="#DCDADA"/><path d="M158 105l75.5 100.5v-63.652l-75.5-36.848z" fill="#D3D3D3"/><path d="M158.262 105l75.238 100h-88l12.762-100z" fill="#CACACA"/><path d="M177.5 72.5v28.333h40.889v104.167h28.87v-104.167h42.242v-28.333h-112z" fill="#828282"/><path d="M246.5 101h42.5v-28.5l-42.5 28.5z" fill="#878787"/><path d="M268 101h21v-28.5l-21 28.5z" fill="#8F8F8F"/><path d="M246.5 101l24.418-28.5h18.082l-42.5 28.5z" fill="#797979"/><path d="M246.97 101.5l25.53-29h-39.5l13.97 29z" fill="#737272"/><path d="M247 100.5l-14 18.813 14 19.687v-38.5z" fill="#777676"/><path d="M247 206v-67l-14 37.577 14 29.423z" fill="#777"/><path d="M177.5 72.5v28.333h40.889v104.167h15.111v-132.5h-56z" fill="#737373"/><path d="M247 100.727l-14 19.273.576-47.5 13.424 28.227z" fill="#6D6B6B"/><path d="M177.5 72.5v28.5l56-28.5h-56z" fill="#444"/><path d="M177.5 72.5v28.5l25-28.5h-25z" fill="#3B3B3B"/><path d="M218.04 101h-40.54l56-28.5-15.46 28.5z" fill="#4E4E4E"/><path d="M217.5 100.585l15.017 19.415.483-47.5-15.5 28.085z" fill="#626161"/><path d="M218 100.5l15 19.187-15 20.813v-40z" fill="#575757"/><path d="M233 119.5l14 19.595-14 36.905v-56.5z" fill="#6F6F6F"/><path d="M233 177v-57l-15 20.735 15 36.265z" fill="#606060"/><path d="M247 205.5h-14v-29l14 29z" fill="#6D6C6C"/><path d="M233 176.753l-15 28.247v-64.5l15 36.253z" fill="#525252"/><path d="M233 176l-15 29h15v-29z" fill="#5B5A5A"/></g><g sketch:type="MSShapeGroup"><path fill="#454545" d="M59.5 331h340.5v32h-340.5z"/><path d="M59.5 331v32h53.5l-53.5-32z" fill="#2C2C2C"/><path d="M59.5 331h23.059l30.441 32-53.5-32z" fill="#262626"/><path d="M122.5 331h-39.5l30.612 32 8.888-32z" fill="#2A2A2A"/><path d="M121.816 331l30.184 32h-39l8.816-32z" fill="#303030"/><path d="M121.5 331l30.5 32-9.652-32h-20.848z" fill="#272727"/><path d="M198 331l-45.903 32-9.597-32h55.5z" fill="#1D1D1D"/><path d="M197.989 331l-45.989 32h72.5l-26.511-32z" fill="#303030"/><path d="M198 331h73l-46.495 32-26.505-32z" fill="#2A2A2A"/><path d="M258.519 363l11.981-32-46 32h34.019z" fill="#1D1D1D"/><path d="M258.5 363l12.106-32h46.894l-59 32z" fill="#262626"/><path d="M258.5 363h56.202l2.798-32-59 32z" fill="#161616"/><path d="M345 331l-30.5 32 2.795-32h27.705z" fill="#222"/><path d="M345.104 331l-30.604 32 61-32h-30.396z" fill="#2D2D2D"/><path d="M399.5 363h-85l60.674-32 24.326 32z" fill="#161616"/><path d="M399.5 363v-32h-24l24 32z" fill="#272727"/></g><g sketch:type="MSShapeGroup"><path fill="#545454" d="M70 356.5h319.5v32h-319.5z"/><path d="M70 356.5v32h42l-42-32z" fill="#5D5D5D"/><path d="M70 356.5h32.441l9.559 32-42-32z" fill="#585656"/><path d="M142 388.5l-40-32 9.562 32h30.438z" fill="#4D4D4D"/><path d="M141.673 388.5l-39.673-32h54l-14.327 32z" fill="#575757"/><path d="M142 388.5l41.5-32h-27.141l-14.359 32z" fill="#5D5D5D"/><path d="M142 388.5l41.524-32 19.476 32h-61z" fill="#636363"/><path d="M236 356.5h-52.5l19.408 32 33.092-32z" fill="#5C5C5C"/><path d="M236.12 356.5l45.88 32h-79l33.12-32z" fill="#585656"/><path d="M236 356.5l45.5 32-14.887-32h-30.613z" fill="#616161"/><path d="M318.5 356.5l-36.527 32-14.973-32h51.5z" fill="#5B5B5B"/><path d="M318.091 356.5l-36.591 32h71.5l-34.909-32z" fill="#565656"/><path d="M318.5 356.5h50.5l-15.39 32-35.11-32z" fill="#646464"/><path d="M390.5 356.5h-21.698l-15.302 32 37-32z" fill="#6B6B6B"/><path d="M390.5 356.5v32h-37l37-32z" fill="#626262"/></g><g sketch:type="MSShapeGroup"><path fill="#686868" d="M91.5 380h276.5v32h-276.5z"/><path d="M91.5 380v32l65-32h-65z" fill="#565656"/><path d="M133.923 412h-42.423l65-32-22.577 32z" fill="#4B4B4B"/><path d="M134 412l63-32h-40.556l-22.444 32z" fill="#454545"/><path d="M134 412l62.876-32 42.624 32h-105.5z" fill="#494949"/><path d="M295.5 380h-99l42.757 32 56.243-32z" fill="#414141"/><path d="M295.773 380l33.727 32h-90l56.273-32z" fill="#4C4C4C"/><path d="M295.5 380l33.5 32-7.918-32h-25.582z" fill="#454545"/><path d="M368 380l-39.028 32-7.972-32h47z" fill="#414141"/><path d="M368 380l-39 32h39v-32z" fill="#565656"/></g><g><path d="M0 194v183.856l102.75 70.644 102.75-70.644v-183.856h-205.5z" fill="#5B6C7B" sketch:type="MSShapeGroup"/><path d="M0 194v184l58.5-184h-58.5z" fill="#405262" sketch:type="MSShapeGroup"/><path d="M58.5 339.281l-58.5 38.719 58.5-184v145.281z" fill="#2D4152" sketch:type="MSShapeGroup"/><path d="M58.466 339.5l-58.466 38.792 102.5 70.708-44.034-109.5z" fill="#405262" sketch:type="MSShapeGroup"/><path d="M58.5 339.633l44-75.133v184.5l-44-109.367z" fill="#2D4152" sketch:type="MSShapeGroup"/><path d="M58.5 339.5l44-75.084-44-69.416v144.5z" fill="#435566" sketch:type="MSShapeGroup"/><path d="M157 194l-54.535 70.5-44.465-70.5h99z" fill="#495A6A" sketch:type="MSShapeGroup"/><path d="M157.109 194l-55.109 70.5 105-70.5h-49.891z" fill="#435566" sketch:type="MSShapeGroup"/><path d="M206.5 350.5l-104-86.247 104-70.253v156.5z" fill="#35495B" sketch:type="MSShapeGroup"/><path d="M206.5 350.5l-104-86 104 8.396v77.604z" fill="#2D4152" sketch:type="MSShapeGroup"/><path d="M206.5 350.575l-104-86.075 104 115.5v-29.425z" fill="#1F3141" sketch:type="MSShapeGroup"/><path d="M137.239 425l-34.739-160.5 104 115.621-69.261 44.879z" fill="#2D4152" sketch:type="MSShapeGroup"/><path d="M137 424.926l-34.5-160.426v184.5l34.5-24.074z" fill="#1F3141" sketch:type="MSShapeGroup"/><g><g transform="translate(70 267.5)"><use stroke="#fff" stroke-width="2" sketch:type="MSShapeGroup" xlink:href="#a"/><use xlink:href="#a"/></g><g transform="translate(70 267.5)"><use fill="#fff" sketch:type="MSShapeGroup" xlink:href="#b"/><use xlink:href="#b"/></g><g transform="translate(70 267.5)"><use fill="#fff" sketch:type="MSShapeGroup" xlink:href="#c"/><use xlink:href="#c"/></g><g sketch:type="MSShapeGroup"><path d="M81.5 301l22 22-8.996-22h-13.004z" id="Path-15" fill="#B63033"/><path d="M125 301l-22 22 9.014-22h12.986z" fill="#D74D50"/><path d="M93.5 301l9.924 22.5 9.076-22.5h-19z" fill="#C53A3D"/><path id="Triangle-1" fill="#DF7D80" d="M89.868 292l4.132 9h-12.5z"/><path d="M89.5 292h13.5l-9.653 9-3.847-9z" id="Triangle-1" fill="#C53A3D"/><path d="M103.5 292h13.5l-4.017 9-9.483-9z" id="Triangle-1" fill="#D74D50"/><path id="Triangle-1" fill="#F9A3A5" d="M103.437 292l9.563 9h-19.5z"/><path fill="#FCBDBF" d="M116.566 292l-4.066 9h12.5z"/></g></g></g><g transform="translate(317 18)" sketch:type="MSShapeGroup"><path d="M45.5 287h27.5v-37l-27.5 37z" fill="#DDE8EE"/><path d="M45.5 289l2.92-89.5 24.58 52.303-27.5 37.197z" fill="#D5E5ED"/><path d="M73 180.5l-24.5 21.617 24.5 51.883v-73.5z" fill="#CEE6F2"/><path d="M72 181.82l-23.5 22.18 2.18-95 21.32 72.82z" fill="#D7ECF8"/><path d="M72 186.5l1.5-105.5-23 29.319 21.5 76.181z" fill="#D2E9F5"/><path d="M51.831 48.5l21.669 33.393-23 29.607 1.331-63z" fill="#CDE3EF"/><path d="M99.5 287h-27.5v-37l27.5 37z" fill="#E6F4FB"/><path d="M99.5 287l-2.852-86-24.648 50.689 27.5 35.311z" fill="#EFF9FE"/><path d="M72 181l24.5 20.85-24.5 50.65v-71.5z" fill="#E6F4FC"/><path d="M72 182.558l24.5 20.942-1.601-94-22.899 73.058z" fill="#F7FCFF"/><path d="M72 185l.5-106 22.5 32.074-23 73.926z" fill="#EEF9FF"/><path d="M96.051 49.932l-23.551 30.095 22.5 31.974 1.051-62.068z" fill="#ECF7FD"/><path d="M51.654 49.198l21.346-12.704v-36.494l-21.346 49.198z" fill="#F6FCFF"/><path d="M73 36.543l23.061 13.818-23.137-50.361.077 36.543z" fill="#fff"/><path d="M52.113 49.002l21.387 34.998v-55.985l-21.387 20.987z" fill="#EEF7FC"/><path d="M96.111 50.461l-23.554 33.288v-55.853l23.554 22.564z" fill="#F7FCFF"/><path d="M72 276v23h58.5v-23h-58.5z" fill="#FAEE9A"/><path d="M72 276v23h18l-18-23z" fill="#E9DD86"/><path d="M72 276l30.5 23h-12.554l-17.946-23z" fill="#FBF09F"/><path d="M72 276l30.5 23-5.577-23h-24.923z" fill="#F9EB90"/><path d="M118 276l-15.938 23-5.562-23h21.5z" fill="#F4E687"/><path d="M117.5 276l-15.5 23h15.5v-23z" fill="#FAEC90"/><path d="M118 276h12.5l-3.388 23h-9.112v-23z" fill="#F5E680"/><rect fill="#F3E68D" x="14.5" y="276" width="58" height="23" rx="40"/><path d="M57.632 299l-12.132-23h27l-14.868 23z" fill="#DACE7E"/><path d="M56 299h16.5v-23l-16.5 23z" fill="#CABE6F"/><path d="M57.5 299l-12.149-23-17.851 23h30z" fill="#CDC16B"/><path d="M20.5 276h25l-17.786 23-7.214-23z" fill="#DBCE74"/><path d="M20.386 276l-5.886 23h13l-7.114-23z" fill="#CEC05F"/><path d="M16 303l16-16-16-16-16 16 16 16z" fill="#FBE96C"/><path d="M16 303v-32l-16 16 16 16z" fill="#EEDE71"/><path d="M130 303l16-16-16-16-16 16 16 16z" fill="#FBE96C"/><path d="M130 303v-32l-16 16 16 16z" fill="#F2E066"/><path d="M72.5 381l17-81.741-17-12.259v94z" fill="#FAEE9A"/><path d="M72.5 317.5l17.5-18.16-17.5-12.34v30.5z" fill="#FFF5AB"/><path d="M72.5 317.383l17.5-18.883-9.824 44.5-7.676-25.617z" fill="#F0E59A"/><path d="M72.5 317.5v62l7.5-36.328-7.5-25.672z" fill="#FAEE9A"/><path d="M72.5 381v-94l-16 12.012 16 81.988z" fill="#F3E68D"/><path d="M72.5 317.5v-30.5l-16 12.059 16 18.441z" fill="#E0D37D"/><path d="M72.5 316.967l-7.579 23.533-8.421-42 16 18.467z" fill="#D7CA73"/><path d="M72.5 317l-7.5 23.316 7.5 39.184v-62.5z" fill="#E6D87B"/></g></g></svg>