<?xml version="1.0" encoding="UTF-8" standalone="no"?>
<svg width="3820px" height="1412px" viewBox="0 0 3820 1412" version="1.1" xmlns="http://www.w3.org/2000/svg" xmlns:xlink="http://www.w3.org/1999/xlink" xmlns:sketch="http://www.bohemiancoding.com/sketch/ns">
    <!-- Generator: Sketch 3.0.1 (7597) - http://www.bohemiancoding.com/sketch -->
    <title>Mountains</title>
    <description>Created with Sketch.</description>
    <defs></defs>
    <g id="Page-1" stroke="none" stroke-width="1" fill="none" fill-rule="evenodd" sketch:type="MSPage">
        <g id="Artboard-1" sketch:type="MSArtboardGroup" transform="translate(0.000000, -994.000000)">
            <g id="Mountains" sketch:type="MSLayerGroup" transform="translate(-592.000000, 994.000000)">
                <g id="Mountain-left" sketch:type="MSShapeGroup">
                    <path d="M709.99396,1412 L943,786.753799 L904.134681,0 L0,1412 L709.99396,1412 Z" id="Rectangle-141" fill="#9CB783"></path>
                    <path d="M943,786.753799 L904.134681,0 L401.1875,786.753784 L943,786.753799 Z" id="Rectangle-166" fill="#95B07C"></path>
                    <path d="M710,1412 L940.213909,786.753799 L904.316176,0 L1522,708.202298 L710,1412 Z" id="Rectangle-142" fill="#A9C490"></path>
                    <path d="M940.213909,786.753799 L904.316176,0 L1522,708.202298 L940.213909,786.753799 Z" id="Rectangle-168" fill="#B1CC97"></path>
                    <path d="M940.213909,786.753799 L904.316176,0 L1213.15809,752.625 L940.213909,786.753799 Z" id="Rectangle-169" fill="#A2C086"></path>
                    <path d="M710,1412 L1724.36736,1412 L2049,318 L1520.95384,707.587574 L710,1412 Z" id="Rectangle-143" fill="#A0BB88"></path>
                    <path d="M1851.23438,975.515625 L2049,318 L1520.95384,707.587574 L1851.23438,975.515625 Z" id="Rectangle-167" fill="#9AB481"></path>
                    <path d="M2646.53649,903.186419 L3071,1412 L1724,1412 L2048.84891,318 L2646.53649,903.186419 Z" id="Rectangle-144" fill="#AFC898"></path>
                </g>
                <g id="Mountain-right" transform="translate(1720.000000, 306.000000)" sketch:type="MSShapeGroup">
                    <path d="M3783,1106 L3205.7101,271.615297 L2789.64283,422.761343 L2113,0 L3071.26613,1106 L3783,1106 Z" id="Rectangle-140" fill="#C5E4A9"></path>
                    <path d="M1055.21002,1106 L1306,131 L888.274715,573.918983 L0,1106 L1055.21002,1106 Z" id="Rectangle-145" fill="#B7D898"></path>
                    <path d="M1055,1106 L1305.92529,131 L1726.3451,306.664549 L2208,1106 L1055,1106 Z" id="Rectangle-146" fill="#C7E4AB"></path>
                    <path d="M3080,1106 L2115.73085,1 L1717.71875,305.265625 L2208.52051,1106 L3080,1106 Z" id="Rectangle-147" fill="#B6D798"></path>
                    <path d="M2115.73085,1 L1717.71875,305.265625 L2208.52051,1106 L2115.73085,1 Z" id="Rectangle-165" fill="#AED38C"></path>
                </g>
                <g id="tree-2" transform="translate(1122.000000, 254.000000)" sketch:type="MSShapeGroup">
                    <path d="M9.58677686,84 L0,118 L87,118 L77.4132231,84 L9.58677686,84 Z" id="Rectangle-9" fill="#6D9F4E"></path>
                    <path d="M17.1832766,53 L4,87 L82,87 L68.8167234,53 L17.1832766,53 Z" id="Rectangle-6" fill="#79AE58"></path>
                    <path d="M25.5597796,25 L9,59 L77,59 L60.4402204,25 L25.5597796,25 Z" id="Rectangle-7" fill="#80B95C"></path>
                    <path d="M12,34 L76,34 L44,0 L12,34 Z" id="Rectangle-8" fill="#8EC16E"></path>
                    <rect id="Rectangle-13" fill="#A3856A" x="32" y="118" width="23" height="32"></rect>
                    <path d="M32,118 L32,127.974636 L55,142 L55,118 L32,118 Z" id="Rectangle-14" fill="#94765B"></path>
                </g>
                <g id="tree-5" transform="translate(2123.000000, 350.000000)" sketch:type="MSShapeGroup">
                    <path d="M6.94214876,61 L0,86 L63,86 L56.0578512,61 L6.94214876,61 Z" id="Rectangle-9" fill="#6D9F4E"></path>
                    <path d="M12.4649165,39 L3,64 L59,64 L49.5350835,39 L12.4649165,39 Z" id="Rectangle-6" fill="#79AE58"></path>
                    <path d="M18.9327824,18 L7,43 L56,43 L44.0672176,18 L18.9327824,18 Z" id="Rectangle-7" fill="#80B95C"></path>
                    <path d="M9,25 L55,25 L32,0 L9,25 Z" id="Rectangle-8" fill="#8EC16E"></path>
                    <rect id="Rectangle-13" fill="#A3856A" x="23" y="86" width="17" height="23"></rect>
                    <path d="M23,86 L23,93.0653671 L40,103 L40,86 L23,86 Z" id="Rectangle-14" fill="#94765B"></path>
                </g>
                <g id="tree-4" transform="translate(1485.000000, 596.000000)" sketch:type="MSShapeGroup">
                    <path d="M11.7906336,103 L0,145 L107,145 L95.2093664,103 L11.7906336,103 Z" id="Rectangle-9" fill="#6D9F4E"></path>
                    <path d="M21.2255712,64 L5,106 L101,106 L84.7744288,64 L21.2255712,64 Z" id="Rectangle-6" fill="#79AE58"></path>
                    <path d="M31.4561983,30 L11,72 L95,72 L74.5438017,30 L31.4561983,30 Z" id="Rectangle-7" fill="#80B95C"></path>
                    <path d="M15,42 L94,42 L54.5,0 L15,42 Z" id="Rectangle-8" fill="#8EC16E"></path>
                    <rect id="Rectangle-13" fill="#A3856A" x="39" y="144" width="28" height="40"></rect>
                    <path d="M39,144 L39,156.052685 L67,173 L67,144 L39,144 Z" id="Rectangle-14" fill="#94765B"></path>
                </g>
                <g id="tree" transform="translate(3753.000000, 251.000000)" sketch:type="MSShapeGroup">
                    <path d="M6.94214876,61 L0,85 L63,85 L56.0578512,61 L6.94214876,61 Z" id="Rectangle-9" fill="#6D9F4E"></path>
                    <path d="M12.4649165,38 L3,62 L59,62 L49.5350835,38 L12.4649165,38 Z" id="Rectangle-6" fill="#79AE58"></path>
                    <path d="M19.1763085,18 L7,42 L57,42 L44.8236915,18 L19.1763085,18 Z" id="Rectangle-7" fill="#80B95C"></path>
                    <path d="M9,24 L55,24 L32,0 L9,24 Z" id="Rectangle-8" fill="#8EC16E"></path>
                    <rect id="Rectangle-13" fill="#A3856A" x="24" y="85" width="17" height="24"></rect>
                    <path d="M24,85 L24,92.0653671 L41,102 L41,85 L24,85 Z" id="Rectangle-14" fill="#94765B"></path>
                </g>
                <g id="tree-3" transform="translate(3996.000000, 502.000000)" sketch:type="MSShapeGroup">
                    <path d="M8.815427,77 L0,108 L80,108 L71.184573,77 L8.815427,77 Z" id="Rectangle-9" fill="#6D9F4E"></path>
                    <path d="M16.000162,48 L4,79 L75,79 L62.999838,48 L16.000162,48 Z" id="Rectangle-6" fill="#79AE58"></path>
                    <path d="M24.3421488,23 L9,54 L72,54 L56.6578512,23 L24.3421488,23 Z" id="Rectangle-7" fill="#80B95C"></path>
                    <path d="M11,31 L70,31 L40.5,0 L11,31 Z" id="Rectangle-8" fill="#8EC16E"></path>
                    <rect id="Rectangle-13" fill="#A3856A" x="30" y="108" width="21" height="30"></rect>
                    <path d="M30,108 L30,117.143416 L51,130 L51,108 L30,108 Z" id="Rectangle-14" fill="#94765B"></path>
                </g>
                <g id="tree-7" transform="translate(3887.000000, 835.000000)" sketch:type="MSShapeGroup">
                    <path d="M9.6969697,84 L0,118 L88,118 L78.3030303,84 L9.6969697,84 Z" id="Rectangle-9" fill="#6D9F4E"></path>
                    <path d="M17.1832766,53 L4,87 L82,87 L68.8167234,53 L17.1832766,53 Z" id="Rectangle-6" fill="#79AE58"></path>
                    <path d="M26.8033058,25 L10,59 L79,59 L62.1966942,25 L26.8033058,25 Z" id="Rectangle-7" fill="#80B95C"></path>
                    <path d="M12,34 L77,34 L44.5,0 L12,34 Z" id="Rectangle-8" fill="#8EC16E"></path>
                    <rect id="Rectangle-13" fill="#A3856A" x="33" y="118" width="23" height="33"></rect>
                    <path d="M33,118 L33,127.974636 L56,142 L56,118 L33,118 Z" id="Rectangle-14" fill="#94765B"></path>
                </g>
                <g id="Flower-7" transform="translate(3710.000000, 518.000000)" sketch:type="MSShapeGroup">
                    <rect id="Rectangle-221" fill="#9AC771" x="12" y="16" width="2" height="27"></rect>
                    <path d="M13,23.638404 L13,28.1072319 L21.1485411,33 L25,28.1072319 L21.7305798,23 L13,23.638404 Z" id="Rectangle-221" fill="#96C66A"></path>
                    <path d="M13,27 L21.1485411,32 L25,27 L13,27 Z" id="Rectangle-222" fill="#8BB465"></path>
                    <g id="Ruby">
                        <path d="M0,5 L13,19 L7.68417795,5 L0,5 Z" id="Path-15" fill="#B63033"></path>
                        <path d="M13,5 L26,19 L20.6733315,5 L13,5 Z" id="Path-15" fill="#D74D50" transform="translate(19.500000, 12.000000) scale(-1, 1) translate(-19.500000, -12.000000) "></path>
                        <path d="M7,5 L12.5,19 L18,5 L7,5 Z" id="Path-16" fill="#C53A3D"></path>
                        <polygon id="Triangle-1" fill="#DF7D80" points="5.35564761 0 8 5 0 5 "></polygon>
                        <path d="M5,0 L13,0 L7.27956989,5 L5,0 Z" id="Triangle-1" fill="#C53A3D"></path>
                        <path d="M13,0 L21,0 L18.6197274,5 L13,0 Z" id="Triangle-1" fill="#D74D50"></path>
                        <polygon id="Triangle-1" fill="#F9A3A5" points="12.7308601 0 18 5 7 5 "></polygon>
                        <polygon id="Triangle-1" fill="#FCBDBF" transform="translate(22.000000, 2.500000) scale(-1, 1) translate(-22.000000, -2.500000) " points="23.3977742 0 26 5 18 5 "></polygon>
                    </g>
                </g>
                <g id="Flower-8" transform="translate(3910.000000, 418.000000)" sketch:type="MSShapeGroup">
                    <rect id="Rectangle-221" fill="#9AC771" x="12" y="16" width="2" height="27"></rect>
                    <path d="M13,23.638404 L13,28.1072319 L21.1485411,33 L25,28.1072319 L21.7305798,23 L13,23.638404 Z" id="Rectangle-221" fill="#96C66A"></path>
                    <path d="M13,27 L21.1485411,32 L25,27 L13,27 Z" id="Rectangle-222" fill="#8BB465"></path>
                    <g id="Ruby">
                        <path d="M0,5 L13,19 L7.68417795,5 L0,5 Z" id="Path-15" fill="#B63033"></path>
                        <path d="M13,5 L26,19 L20.6733315,5 L13,5 Z" id="Path-15" fill="#D74D50" transform="translate(19.500000, 12.000000) scale(-1, 1) translate(-19.500000, -12.000000) "></path>
                        <path d="M7,5 L12.5,19 L18,5 L7,5 Z" id="Path-16" fill="#C53A3D"></path>
                        <polygon id="Triangle-1" fill="#DF7D80" points="5.35564761 0 8 5 0 5 "></polygon>
                        <path d="M5,0 L13,0 L7.27956989,5 L5,0 Z" id="Triangle-1" fill="#C53A3D"></path>
                        <path d="M13,0 L21,0 L18.6197274,5 L13,0 Z" id="Triangle-1" fill="#D74D50"></path>
                        <polygon id="Triangle-1" fill="#F9A3A5" points="12.7308601 0 18 5 7 5 "></polygon>
                        <polygon id="Triangle-1" fill="#FCBDBF" transform="translate(22.000000, 2.500000) scale(-1, 1) translate(-22.000000, -2.500000) " points="23.3977742 0 26 5 18 5 "></polygon>
                    </g>
                </g>
                <g id="Flower-9" transform="translate(3880.000000, 488.000000)" sketch:type="MSShapeGroup">
                    <rect id="Rectangle-221" fill="#9AC771" x="12" y="16" width="2" height="27"></rect>
                    <path d="M13,23.638404 L13,28.1072319 L21.1485411,33 L25,28.1072319 L21.7305798,23 L13,23.638404 Z" id="Rectangle-221" fill="#96C66A"></path>
                    <path d="M13,27 L21.1485411,32 L25,27 L13,27 Z" id="Rectangle-222" fill="#8BB465"></path>
                    <g id="Ruby">
                        <path d="M0,5 L13,19 L7.68417795,5 L0,5 Z" id="Path-15" fill="#B63033"></path>
                        <path d="M13,5 L26,19 L20.6733315,5 L13,5 Z" id="Path-15" fill="#D74D50" transform="translate(19.500000, 12.000000) scale(-1, 1) translate(-19.500000, -12.000000) "></path>
                        <path d="M7,5 L12.5,19 L18,5 L7,5 Z" id="Path-16" fill="#C53A3D"></path>
                        <polygon id="Triangle-1" fill="#DF7D80" points="5.35564761 0 8 5 0 5 "></polygon>
                        <path d="M5,0 L13,0 L7.27956989,5 L5,0 Z" id="Triangle-1" fill="#C53A3D"></path>
                        <path d="M13,0 L21,0 L18.6197274,5 L13,0 Z" id="Triangle-1" fill="#D74D50"></path>
                        <polygon id="Triangle-1" fill="#F9A3A5" points="12.7308601 0 18 5 7 5 "></polygon>
                        <polygon id="Triangle-1" fill="#FCBDBF" transform="translate(22.000000, 2.500000) scale(-1, 1) translate(-22.000000, -2.500000) " points="23.3977742 0 26 5 18 5 "></polygon>
                    </g>
                </g>
                <g id="Flower-18" transform="translate(3467.000000, 874.000000)" sketch:type="MSShapeGroup">
                    <rect id="Rectangle-221" fill="#9AC771" x="12" y="16" width="2" height="27"></rect>
                    <path d="M13,23.638404 L13,28.1072319 L21.1485411,33 L25,28.1072319 L21.7305798,23 L13,23.638404 Z" id="Rectangle-221" fill="#96C66A"></path>
                    <path d="M13,27 L21.1485411,32 L25,27 L13,27 Z" id="Rectangle-222" fill="#8BB465"></path>
                    <g id="Ruby">
                        <path d="M0,5 L13,19 L7.68417795,5 L0,5 Z" id="Path-15" fill="#B63033"></path>
                        <path d="M13,5 L26,19 L20.6733315,5 L13,5 Z" id="Path-15" fill="#D74D50" transform="translate(19.500000, 12.000000) scale(-1, 1) translate(-19.500000, -12.000000) "></path>
                        <path d="M7,5 L12.5,19 L18,5 L7,5 Z" id="Path-16" fill="#C53A3D"></path>
                        <polygon id="Triangle-1" fill="#DF7D80" points="5.35564761 0 8 5 0 5 "></polygon>
                        <path d="M5,0 L13,0 L7.27956989,5 L5,0 Z" id="Triangle-1" fill="#C53A3D"></path>
                        <path d="M13,0 L21,0 L18.6197274,5 L13,0 Z" id="Triangle-1" fill="#D74D50"></path>
                        <polygon id="Triangle-1" fill="#F9A3A5" points="12.7308601 0 18 5 7 5 "></polygon>
                        <polygon id="Triangle-1" fill="#FCBDBF" transform="translate(22.000000, 2.500000) scale(-1, 1) translate(-22.000000, -2.500000) " points="23.3977742 0 26 5 18 5 "></polygon>
                    </g>
                </g>
                <g id="Flower-19" transform="translate(3480.000000, 1118.000000)" sketch:type="MSShapeGroup">
                    <rect id="Rectangle-221" fill="#9AC771" x="12" y="16" width="2" height="27"></rect>
                    <path d="M13,23.638404 L13,28.1072319 L21.1485411,33 L25,28.1072319 L21.7305798,23 L13,23.638404 Z" id="Rectangle-221" fill="#96C66A"></path>
                    <path d="M13,27 L21.1485411,32 L25,27 L13,27 Z" id="Rectangle-222" fill="#8BB465"></path>
                    <g id="Ruby">
                        <path d="M0,5 L13,19 L7.68417795,5 L0,5 Z" id="Path-15" fill="#B63033"></path>
                        <path d="M13,5 L26,19 L20.6733315,5 L13,5 Z" id="Path-15" fill="#D74D50" transform="translate(19.500000, 12.000000) scale(-1, 1) translate(-19.500000, -12.000000) "></path>
                        <path d="M7,5 L12.5,19 L18,5 L7,5 Z" id="Path-16" fill="#C53A3D"></path>
                        <polygon id="Triangle-1" fill="#DF7D80" points="5.35564761 0 8 5 0 5 "></polygon>
                        <path d="M5,0 L13,0 L7.27956989,5 L5,0 Z" id="Triangle-1" fill="#C53A3D"></path>
                        <path d="M13,0 L21,0 L18.6197274,5 L13,0 Z" id="Triangle-1" fill="#D74D50"></path>
                        <polygon id="Triangle-1" fill="#F9A3A5" points="12.7308601 0 18 5 7 5 "></polygon>
                        <polygon id="Triangle-1" fill="#FCBDBF" transform="translate(22.000000, 2.500000) scale(-1, 1) translate(-22.000000, -2.500000) " points="23.3977742 0 26 5 18 5 "></polygon>
                    </g>
                </g>
                <g id="Flower-17" transform="translate(3723.000000, 780.000000)" sketch:type="MSShapeGroup">
                    <rect id="Rectangle-221" fill="#9AC771" x="12" y="16" width="2" height="27"></rect>
                    <path d="M13,23.638404 L13,28.1072319 L21.1485411,33 L25,28.1072319 L21.7305798,23 L13,23.638404 Z" id="Rectangle-221" fill="#96C66A"></path>
                    <path d="M13,27 L21.1485411,32 L25,27 L13,27 Z" id="Rectangle-222" fill="#8BB465"></path>
                    <g id="Ruby">
                        <path d="M0,5 L13,19 L7.68417795,5 L0,5 Z" id="Path-15" fill="#B63033"></path>
                        <path d="M13,5 L26,19 L20.6733315,5 L13,5 Z" id="Path-15" fill="#D74D50" transform="translate(19.500000, 12.000000) scale(-1, 1) translate(-19.500000, -12.000000) "></path>
                        <path d="M7,5 L12.5,19 L18,5 L7,5 Z" id="Path-16" fill="#C53A3D"></path>
                        <polygon id="Triangle-1" fill="#DF7D80" points="5.35564761 0 8 5 0 5 "></polygon>
                        <path d="M5,0 L13,0 L7.27956989,5 L5,0 Z" id="Triangle-1" fill="#C53A3D"></path>
                        <path d="M13,0 L21,0 L18.6197274,5 L13,0 Z" id="Triangle-1" fill="#D74D50"></path>
                        <polygon id="Triangle-1" fill="#F9A3A5" points="12.7308601 0 18 5 7 5 "></polygon>
                        <polygon id="Triangle-1" fill="#FCBDBF" transform="translate(22.000000, 2.500000) scale(-1, 1) translate(-22.000000, -2.500000) " points="23.3977742 0 26 5 18 5 "></polygon>
                    </g>
                </g>
                <g id="Flower-12" transform="translate(980.000000, 148.000000)" sketch:type="MSShapeGroup">
                    <rect id="Rectangle-221" fill="#9AC771" x="12" y="16" width="2" height="27"></rect>
                    <path d="M13,23.638404 L13,28.1072319 L21.1485411,33 L25,28.1072319 L21.7305798,23 L13,23.638404 Z" id="Rectangle-221" fill="#96C66A"></path>
                    <path d="M13,27 L21.1485411,32 L25,27 L13,27 Z" id="Rectangle-222" fill="#8BB465"></path>
                    <g id="Ruby">
                        <path d="M0,5 L13,19 L7.68417795,5 L0,5 Z" id="Path-15" fill="#B63033"></path>
                        <path d="M13,5 L26,19 L20.6733315,5 L13,5 Z" id="Path-15" fill="#D74D50" transform="translate(19.500000, 12.000000) scale(-1, 1) translate(-19.500000, -12.000000) "></path>
                        <path d="M7,5 L12.5,19 L18,5 L7,5 Z" id="Path-16" fill="#C53A3D"></path>
                        <polygon id="Triangle-1" fill="#DF7D80" points="5.35564761 0 8 5 0 5 "></polygon>
                        <path d="M5,0 L13,0 L7.27956989,5 L5,0 Z" id="Triangle-1" fill="#C53A3D"></path>
                        <path d="M13,0 L21,0 L18.6197274,5 L13,0 Z" id="Triangle-1" fill="#D74D50"></path>
                        <polygon id="Triangle-1" fill="#F9A3A5" points="12.7308601 0 18 5 7 5 "></polygon>
                        <polygon id="Triangle-1" fill="#FCBDBF" transform="translate(22.000000, 2.500000) scale(-1, 1) translate(-22.000000, -2.500000) " points="23.3977742 0 26 5 18 5 "></polygon>
                    </g>
                </g>
                <g id="Flower-13" transform="translate(980.000000, 288.000000)" sketch:type="MSShapeGroup">
                    <rect id="Rectangle-221" fill="#9AC771" x="12" y="16" width="2" height="27"></rect>
                    <path d="M13,23.638404 L13,28.1072319 L21.1485411,33 L25,28.1072319 L21.7305798,23 L13,23.638404 Z" id="Rectangle-221" fill="#96C66A"></path>
                    <path d="M13,27 L21.1485411,32 L25,27 L13,27 Z" id="Rectangle-222" fill="#8BB465"></path>
                    <g id="Ruby">
                        <path d="M0,5 L13,19 L7.68417795,5 L0,5 Z" id="Path-15" fill="#B63033"></path>
                        <path d="M13,5 L26,19 L20.6733315,5 L13,5 Z" id="Path-15" fill="#D74D50" transform="translate(19.500000, 12.000000) scale(-1, 1) translate(-19.500000, -12.000000) "></path>
                        <path d="M7,5 L12.5,19 L18,5 L7,5 Z" id="Path-16" fill="#C53A3D"></path>
                        <polygon id="Triangle-1" fill="#DF7D80" points="5.35564761 0 8 5 0 5 "></polygon>
                        <path d="M5,0 L13,0 L7.27956989,5 L5,0 Z" id="Triangle-1" fill="#C53A3D"></path>
                        <path d="M13,0 L21,0 L18.6197274,5 L13,0 Z" id="Triangle-1" fill="#D74D50"></path>
                        <polygon id="Triangle-1" fill="#F9A3A5" points="12.7308601 0 18 5 7 5 "></polygon>
                        <polygon id="Triangle-1" fill="#FCBDBF" transform="translate(22.000000, 2.500000) scale(-1, 1) translate(-22.000000, -2.500000) " points="23.3977742 0 26 5 18 5 "></polygon>
                    </g>
                </g>
                <g id="Flower-14" transform="translate(1220.000000, 528.000000)" sketch:type="MSShapeGroup">
                    <rect id="Rectangle-221" fill="#9AC771" x="12" y="16" width="2" height="27"></rect>
                    <path d="M13,23.638404 L13,28.1072319 L21.1485411,33 L25,28.1072319 L21.7305798,23 L13,23.638404 Z" id="Rectangle-221" fill="#96C66A"></path>
                    <path d="M13,27 L21.1485411,32 L25,27 L13,27 Z" id="Rectangle-222" fill="#8BB465"></path>
                    <g id="Ruby">
                        <path d="M0,5 L13,19 L7.68417795,5 L0,5 Z" id="Path-15" fill="#B63033"></path>
                        <path d="M13,5 L26,19 L20.6733315,5 L13,5 Z" id="Path-15" fill="#D74D50" transform="translate(19.500000, 12.000000) scale(-1, 1) translate(-19.500000, -12.000000) "></path>
                        <path d="M7,5 L12.5,19 L18,5 L7,5 Z" id="Path-16" fill="#C53A3D"></path>
                        <polygon id="Triangle-1" fill="#DF7D80" points="5.35564761 0 8 5 0 5 "></polygon>
                        <path d="M5,0 L13,0 L7.27956989,5 L5,0 Z" id="Triangle-1" fill="#C53A3D"></path>
                        <path d="M13,0 L21,0 L18.6197274,5 L13,0 Z" id="Triangle-1" fill="#D74D50"></path>
                        <polygon id="Triangle-1" fill="#F9A3A5" points="12.7308601 0 18 5 7 5 "></polygon>
                        <polygon id="Triangle-1" fill="#FCBDBF" transform="translate(22.000000, 2.500000) scale(-1, 1) translate(-22.000000, -2.500000) " points="23.3977742 0 26 5 18 5 "></polygon>
                    </g>
                </g>
                <g id="Flower-15" transform="translate(1000.000000, 609.000000)" sketch:type="MSShapeGroup">
                    <rect id="Rectangle-221" fill="#9AC771" x="12" y="16" width="2" height="27"></rect>
                    <path d="M13,23.638404 L13,28.1072319 L21.1485411,33 L25,28.1072319 L21.7305798,23 L13,23.638404 Z" id="Rectangle-221" fill="#96C66A"></path>
                    <path d="M13,27 L21.1485411,32 L25,27 L13,27 Z" id="Rectangle-222" fill="#8BB465"></path>
                    <g id="Ruby">
                        <path d="M0,5 L13,19 L7.68417795,5 L0,5 Z" id="Path-15" fill="#B63033"></path>
                        <path d="M13,5 L26,19 L20.6733315,5 L13,5 Z" id="Path-15" fill="#D74D50" transform="translate(19.500000, 12.000000) scale(-1, 1) translate(-19.500000, -12.000000) "></path>
                        <path d="M7,5 L12.5,19 L18,5 L7,5 Z" id="Path-16" fill="#C53A3D"></path>
                        <polygon id="Triangle-1" fill="#DF7D80" points="5.35564761 0 8 5 0 5 "></polygon>
                        <path d="M5,0 L13,0 L7.27956989,5 L5,0 Z" id="Triangle-1" fill="#C53A3D"></path>
                        <path d="M13,0 L21,0 L18.6197274,5 L13,0 Z" id="Triangle-1" fill="#D74D50"></path>
                        <polygon id="Triangle-1" fill="#F9A3A5" points="12.7308601 0 18 5 7 5 "></polygon>
                        <polygon id="Triangle-1" fill="#FCBDBF" transform="translate(22.000000, 2.500000) scale(-1, 1) translate(-22.000000, -2.500000) " points="23.3977742 0 26 5 18 5 "></polygon>
                    </g>
                </g>
                <g id="Flower-11" transform="translate(838.000000, 222.000000)" sketch:type="MSShapeGroup">
                    <rect id="Rectangle-221" fill="#9AC771" x="12" y="16" width="2" height="27"></rect>
                    <path d="M13,23.638404 L13,28.1072319 L21.1485411,33 L25,28.1072319 L21.7305798,23 L13,23.638404 Z" id="Rectangle-221" fill="#96C66A"></path>
                    <path d="M13,27 L21.1485411,32 L25,27 L13,27 Z" id="Rectangle-222" fill="#8BB465"></path>
                    <g id="Ruby">
                        <path d="M0,5 L13,19 L7.68417795,5 L0,5 Z" id="Path-15" fill="#B63033"></path>
                        <path d="M13,5 L26,19 L20.6733315,5 L13,5 Z" id="Path-15" fill="#D74D50" transform="translate(19.500000, 12.000000) scale(-1, 1) translate(-19.500000, -12.000000) "></path>
                        <path d="M7,5 L12.5,19 L18,5 L7,5 Z" id="Path-16" fill="#C53A3D"></path>
                        <polygon id="Triangle-1" fill="#DF7D80" points="5.35564761 0 8 5 0 5 "></polygon>
                        <path d="M5,0 L13,0 L7.27956989,5 L5,0 Z" id="Triangle-1" fill="#C53A3D"></path>
                        <path d="M13,0 L21,0 L18.6197274,5 L13,0 Z" id="Triangle-1" fill="#D74D50"></path>
                        <polygon id="Triangle-1" fill="#F9A3A5" points="12.7308601 0 18 5 7 5 "></polygon>
                        <polygon id="Triangle-1" fill="#FCBDBF" transform="translate(22.000000, 2.500000) scale(-1, 1) translate(-22.000000, -2.500000) " points="23.3977742 0 26 5 18 5 "></polygon>
                    </g>
                </g>
                <g id="Flower-28" transform="translate(1410.000000, 972.000000)" sketch:type="MSShapeGroup">
                    <rect id="Rectangle-221" fill="#9AC771" x="12" y="16" width="2" height="27"></rect>
                    <path d="M13,23.638404 L13,28.1072319 L21.1485411,33 L25,28.1072319 L21.7305798,23 L13,23.638404 Z" id="Rectangle-221" fill="#96C66A"></path>
                    <path d="M13,27 L21.1485411,32 L25,27 L13,27 Z" id="Rectangle-222" fill="#8BB465"></path>
                    <g id="Ruby">
                        <path d="M0,5 L13,19 L7.68417795,5 L0,5 Z" id="Path-15" fill="#B63033"></path>
                        <path d="M13,5 L26,19 L20.6733315,5 L13,5 Z" id="Path-15" fill="#D74D50" transform="translate(19.500000, 12.000000) scale(-1, 1) translate(-19.500000, -12.000000) "></path>
                        <path d="M7,5 L12.5,19 L18,5 L7,5 Z" id="Path-16" fill="#C53A3D"></path>
                        <polygon id="Triangle-1" fill="#DF7D80" points="5.35564761 0 8 5 0 5 "></polygon>
                        <path d="M5,0 L13,0 L7.27956989,5 L5,0 Z" id="Triangle-1" fill="#C53A3D"></path>
                        <path d="M13,0 L21,0 L18.6197274,5 L13,0 Z" id="Triangle-1" fill="#D74D50"></path>
                        <polygon id="Triangle-1" fill="#F9A3A5" points="12.7308601 0 18 5 7 5 "></polygon>
                        <polygon id="Triangle-1" fill="#FCBDBF" transform="translate(22.000000, 2.500000) scale(-1, 1) translate(-22.000000, -2.500000) " points="23.3977742 0 26 5 18 5 "></polygon>
                    </g>
                </g>
                <g id="Flower-26" transform="translate(1207.000000, 1097.000000)" sketch:type="MSShapeGroup">
                    <rect id="Rectangle-221" fill="#9AC771" x="12" y="16" width="2" height="27"></rect>
                    <path d="M13,23.638404 L13,28.1072319 L21.1485411,33 L25,28.1072319 L21.7305798,23 L13,23.638404 Z" id="Rectangle-221" fill="#96C66A"></path>
                    <path d="M13,27 L21.1485411,32 L25,27 L13,27 Z" id="Rectangle-222" fill="#8BB465"></path>
                    <g id="Ruby">
                        <path d="M0,5 L13,19 L7.68417795,5 L0,5 Z" id="Path-15" fill="#B63033"></path>
                        <path d="M13,5 L26,19 L20.6733315,5 L13,5 Z" id="Path-15" fill="#D74D50" transform="translate(19.500000, 12.000000) scale(-1, 1) translate(-19.500000, -12.000000) "></path>
                        <path d="M7,5 L12.5,19 L18,5 L7,5 Z" id="Path-16" fill="#C53A3D"></path>
                        <polygon id="Triangle-1" fill="#DF7D80" points="5.35564761 0 8 5 0 5 "></polygon>
                        <path d="M5,0 L13,0 L7.27956989,5 L5,0 Z" id="Triangle-1" fill="#C53A3D"></path>
                        <path d="M13,0 L21,0 L18.6197274,5 L13,0 Z" id="Triangle-1" fill="#D74D50"></path>
                        <polygon id="Triangle-1" fill="#F9A3A5" points="12.7308601 0 18 5 7 5 "></polygon>
                        <polygon id="Triangle-1" fill="#FCBDBF" transform="translate(22.000000, 2.500000) scale(-1, 1) translate(-22.000000, -2.500000) " points="23.3977742 0 26 5 18 5 "></polygon>
                    </g>
                </g>
                <g id="Flower-29" transform="translate(753.000000, 906.000000)" sketch:type="MSShapeGroup">
                    <rect id="Rectangle-221" fill="#9AC771" x="12" y="16" width="2" height="27"></rect>
                    <path d="M13,23.638404 L13,28.1072319 L21.1485411,33 L25,28.1072319 L21.7305798,23 L13,23.638404 Z" id="Rectangle-221" fill="#96C66A"></path>
                    <path d="M13,27 L21.1485411,32 L25,27 L13,27 Z" id="Rectangle-222" fill="#8BB465"></path>
                    <g id="Ruby">
                        <path d="M0,5 L13,19 L7.68417795,5 L0,5 Z" id="Path-15" fill="#B63033"></path>
                        <path d="M13,5 L26,19 L20.6733315,5 L13,5 Z" id="Path-15" fill="#D74D50" transform="translate(19.500000, 12.000000) scale(-1, 1) translate(-19.500000, -12.000000) "></path>
                        <path d="M7,5 L12.5,19 L18,5 L7,5 Z" id="Path-16" fill="#C53A3D"></path>
                        <polygon id="Triangle-1" fill="#DF7D80" points="5.35564761 0 8 5 0 5 "></polygon>
                        <path d="M5,0 L13,0 L7.27956989,5 L5,0 Z" id="Triangle-1" fill="#C53A3D"></path>
                        <path d="M13,0 L21,0 L18.6197274,5 L13,0 Z" id="Triangle-1" fill="#D74D50"></path>
                        <polygon id="Triangle-1" fill="#F9A3A5" points="12.7308601 0 18 5 7 5 "></polygon>
                        <polygon id="Triangle-1" fill="#FCBDBF" transform="translate(22.000000, 2.500000) scale(-1, 1) translate(-22.000000, -2.500000) " points="23.3977742 0 26 5 18 5 "></polygon>
                    </g>
                </g>
                <g id="Flower-27" transform="translate(1095.000000, 895.000000)" sketch:type="MSShapeGroup">
                    <rect id="Rectangle-221" fill="#9AC771" x="12" y="16" width="2" height="27"></rect>
                    <path d="M13,23.638404 L13,28.1072319 L21.1485411,33 L25,28.1072319 L21.7305798,23 L13,23.638404 Z" id="Rectangle-221" fill="#96C66A"></path>
                    <path d="M13,27 L21.1485411,32 L25,27 L13,27 Z" id="Rectangle-222" fill="#8BB465"></path>
                    <g id="Ruby">
                        <path d="M0,5 L13,19 L7.68417795,5 L0,5 Z" id="Path-15" fill="#B63033"></path>
                        <path d="M13,5 L26,19 L20.6733315,5 L13,5 Z" id="Path-15" fill="#D74D50" transform="translate(19.500000, 12.000000) scale(-1, 1) translate(-19.500000, -12.000000) "></path>
                        <path d="M7,5 L12.5,19 L18,5 L7,5 Z" id="Path-16" fill="#C53A3D"></path>
                        <polygon id="Triangle-1" fill="#DF7D80" points="5.35564761 0 8 5 0 5 "></polygon>
                        <path d="M5,0 L13,0 L7.27956989,5 L5,0 Z" id="Triangle-1" fill="#C53A3D"></path>
                        <path d="M13,0 L21,0 L18.6197274,5 L13,0 Z" id="Triangle-1" fill="#D74D50"></path>
                        <polygon id="Triangle-1" fill="#F9A3A5" points="12.7308601 0 18 5 7 5 "></polygon>
                        <polygon id="Triangle-1" fill="#FCBDBF" transform="translate(22.000000, 2.500000) scale(-1, 1) translate(-22.000000, -2.500000) " points="23.3977742 0 26 5 18 5 "></polygon>
                    </g>
                </g>
                <g id="Flower-16" transform="translate(718.000000, 362.000000)" sketch:type="MSShapeGroup">
                    <rect id="Rectangle-221" fill="#9AC771" x="12" y="16" width="2" height="27"></rect>
                    <path d="M13,23.638404 L13,28.1072319 L21.1485411,33 L25,28.1072319 L21.7305798,23 L13,23.638404 Z" id="Rectangle-221" fill="#96C66A"></path>
                    <path d="M13,27 L21.1485411,32 L25,27 L13,27 Z" id="Rectangle-222" fill="#8BB465"></path>
                    <g id="Ruby">
                        <path d="M0,5 L13,19 L7.68417795,5 L0,5 Z" id="Path-15" fill="#B63033"></path>
                        <path d="M13,5 L26,19 L20.6733315,5 L13,5 Z" id="Path-15" fill="#D74D50" transform="translate(19.500000, 12.000000) scale(-1, 1) translate(-19.500000, -12.000000) "></path>
                        <path d="M7,5 L12.5,19 L18,5 L7,5 Z" id="Path-16" fill="#C53A3D"></path>
                        <polygon id="Triangle-1" fill="#DF7D80" points="5.35564761 0 8 5 0 5 "></polygon>
                        <path d="M5,0 L13,0 L7.27956989,5 L5,0 Z" id="Triangle-1" fill="#C53A3D"></path>
                        <path d="M13,0 L21,0 L18.6197274,5 L13,0 Z" id="Triangle-1" fill="#D74D50"></path>
                        <polygon id="Triangle-1" fill="#F9A3A5" points="12.7308601 0 18 5 7 5 "></polygon>
                        <polygon id="Triangle-1" fill="#FCBDBF" transform="translate(22.000000, 2.500000) scale(-1, 1) translate(-22.000000, -2.500000) " points="23.3977742 0 26 5 18 5 "></polygon>
                    </g>
                </g>
                <g id="Flower-10" transform="translate(4120.000000, 518.000000)" sketch:type="MSShapeGroup">
                    <rect id="Rectangle-221" fill="#9AC771" x="12" y="16" width="2" height="27"></rect>
                    <path d="M13,23.638404 L13,28.1072319 L21.1485411,33 L25,28.1072319 L21.7305798,23 L13,23.638404 Z" id="Rectangle-221" fill="#96C66A"></path>
                    <path d="M13,27 L21.1485411,32 L25,27 L13,27 Z" id="Rectangle-222" fill="#8BB465"></path>
                    <g id="Ruby">
                        <path d="M0,5 L13,19 L7.68417795,5 L0,5 Z" id="Path-15" fill="#B63033"></path>
                        <path d="M13,5 L26,19 L20.6733315,5 L13,5 Z" id="Path-15" fill="#D74D50" transform="translate(19.500000, 12.000000) scale(-1, 1) translate(-19.500000, -12.000000) "></path>
                        <path d="M7,5 L12.5,19 L18,5 L7,5 Z" id="Path-16" fill="#C53A3D"></path>
                        <polygon id="Triangle-1" fill="#DF7D80" points="5.35564761 0 8 5 0 5 "></polygon>
                        <path d="M5,0 L13,0 L7.27956989,5 L5,0 Z" id="Triangle-1" fill="#C53A3D"></path>
                        <path d="M13,0 L21,0 L18.6197274,5 L13,0 Z" id="Triangle-1" fill="#D74D50"></path>
                        <polygon id="Triangle-1" fill="#F9A3A5" points="12.7308601 0 18 5 7 5 "></polygon>
                        <polygon id="Triangle-1" fill="#FCBDBF" transform="translate(22.000000, 2.500000) scale(-1, 1) translate(-22.000000, -2.500000) " points="23.3977742 0 26 5 18 5 "></polygon>
                    </g>
                </g>
                <g id="Flower-31" transform="translate(4041.000000, 1078.000000)" sketch:type="MSShapeGroup">
                    <rect id="Rectangle-221" fill="#9AC771" x="12" y="16" width="2" height="27"></rect>
                    <path d="M13,23.638404 L13,28.1072319 L21.1485411,33 L25,28.1072319 L21.7305798,23 L13,23.638404 Z" id="Rectangle-221" fill="#96C66A"></path>
                    <path d="M13,27 L21.1485411,32 L25,27 L13,27 Z" id="Rectangle-222" fill="#8BB465"></path>
                    <g id="Ruby">
                        <path d="M0,5 L13,19 L7.68417795,5 L0,5 Z" id="Path-15" fill="#B63033"></path>
                        <path d="M13,5 L26,19 L20.6733315,5 L13,5 Z" id="Path-15" fill="#D74D50" transform="translate(19.500000, 12.000000) scale(-1, 1) translate(-19.500000, -12.000000) "></path>
                        <path d="M7,5 L12.5,19 L18,5 L7,5 Z" id="Path-16" fill="#C53A3D"></path>
                        <polygon id="Triangle-1" fill="#DF7D80" points="5.35564761 0 8 5 0 5 "></polygon>
                        <path d="M5,0 L13,0 L7.27956989,5 L5,0 Z" id="Triangle-1" fill="#C53A3D"></path>
                        <path d="M13,0 L21,0 L18.6197274,5 L13,0 Z" id="Triangle-1" fill="#D74D50"></path>
                        <polygon id="Triangle-1" fill="#F9A3A5" points="12.7308601 0 18 5 7 5 "></polygon>
                        <polygon id="Triangle-1" fill="#FCBDBF" transform="translate(22.000000, 2.500000) scale(-1, 1) translate(-22.000000, -2.500000) " points="23.3977742 0 26 5 18 5 "></polygon>
                    </g>
                </g>
                <g id="Flower-30" transform="translate(4281.000000, 1108.000000)" sketch:type="MSShapeGroup">
                    <rect id="Rectangle-221" fill="#9AC771" x="12" y="16" width="2" height="27"></rect>
                    <path d="M13,23.638404 L13,28.1072319 L21.1485411,33 L25,28.1072319 L21.7305798,23 L13,23.638404 Z" id="Rectangle-221" fill="#96C66A"></path>
                    <path d="M13,27 L21.1485411,32 L25,27 L13,27 Z" id="Rectangle-222" fill="#8BB465"></path>
                    <g id="Ruby">
                        <path d="M0,5 L13,19 L7.68417795,5 L0,5 Z" id="Path-15" fill="#B63033"></path>
                        <path d="M13,5 L26,19 L20.6733315,5 L13,5 Z" id="Path-15" fill="#D74D50" transform="translate(19.500000, 12.000000) scale(-1, 1) translate(-19.500000, -12.000000) "></path>
                        <path d="M7,5 L12.5,19 L18,5 L7,5 Z" id="Path-16" fill="#C53A3D"></path>
                        <polygon id="Triangle-1" fill="#DF7D80" points="5.35564761 0 8 5 0 5 "></polygon>
                        <path d="M5,0 L13,0 L7.27956989,5 L5,0 Z" id="Triangle-1" fill="#C53A3D"></path>
                        <path d="M13,0 L21,0 L18.6197274,5 L13,0 Z" id="Triangle-1" fill="#D74D50"></path>
                        <polygon id="Triangle-1" fill="#F9A3A5" points="12.7308601 0 18 5 7 5 "></polygon>
                        <polygon id="Triangle-1" fill="#FCBDBF" transform="translate(22.000000, 2.500000) scale(-1, 1) translate(-22.000000, -2.500000) " points="23.3977742 0 26 5 18 5 "></polygon>
                    </g>
                </g>
                <g id="Flower-20" transform="translate(4150.000000, 758.000000)" sketch:type="MSShapeGroup">
                    <rect id="Rectangle-221" fill="#9AC771" x="12" y="16" width="2" height="27"></rect>
                    <path d="M13,23.638404 L13,28.1072319 L21.1485411,33 L25,28.1072319 L21.7305798,23 L13,23.638404 Z" id="Rectangle-221" fill="#96C66A"></path>
                    <path d="M13,27 L21.1485411,32 L25,27 L13,27 Z" id="Rectangle-222" fill="#8BB465"></path>
                    <g id="Ruby">
                        <path d="M0,5 L13,19 L7.68417795,5 L0,5 Z" id="Path-15" fill="#B63033"></path>
                        <path d="M13,5 L26,19 L20.6733315,5 L13,5 Z" id="Path-15" fill="#D74D50" transform="translate(19.500000, 12.000000) scale(-1, 1) translate(-19.500000, -12.000000) "></path>
                        <path d="M7,5 L12.5,19 L18,5 L7,5 Z" id="Path-16" fill="#C53A3D"></path>
                        <polygon id="Triangle-1" fill="#DF7D80" points="5.35564761 0 8 5 0 5 "></polygon>
                        <path d="M5,0 L13,0 L7.27956989,5 L5,0 Z" id="Triangle-1" fill="#C53A3D"></path>
                        <path d="M13,0 L21,0 L18.6197274,5 L13,0 Z" id="Triangle-1" fill="#D74D50"></path>
                        <polygon id="Triangle-1" fill="#F9A3A5" points="12.7308601 0 18 5 7 5 "></polygon>
                        <polygon id="Triangle-1" fill="#FCBDBF" transform="translate(22.000000, 2.500000) scale(-1, 1) translate(-22.000000, -2.500000) " points="23.3977742 0 26 5 18 5 "></polygon>
                    </g>
                </g>
            </g>
        </g>
    </g>
</svg>