<svg width="2010" height="728" viewBox="0 0 2010 728" xmlns="http://www.w3.org/2000/svg" xmlns:sketch="http://www.bohemiancoding.com/sketch/ns"><title>Mountains</title><g sketch:type="MSLayerGroup" fill="none"><g sketch:type="MSShapeGroup"><path d="M156.803 727.501l116.44-313.408-19.422-393.107-252.933 394.952v311.563h155.915z" fill="#9CB783"/><path d="M95.211 727.501l-42.767-314.563-51.556 1v313.563h94.323z" fill="#819D68"/><path d="M273.243 414.216l-19.429-393.23-251.423 393.23h270.852z" fill="#81A362"/><path d="M273.243 414.216l-81.31-172.381-45.621 172.381h126.931z" fill="#98BA79"/><path d="M51.864 414.216l139.924-172.381-45.583 172.381h-94.34z" fill="#84A962"/><path d="M273.243 414.216l-41.927 109.924-85.004-109.924h126.931z" fill="#94B476"/><path d="M97.839 727h58.759l74.668-202.692-84.955-110.093-48.473 312.785z" fill="#92B175"/><path d="M97.839 727l133.427-202.692-84.955-110.093-48.473 312.785z" fill="#98B57C"/><path d="M273.243 414.216l-19.404-393.23-63.051 222.259 82.455 170.971z" fill="#93B475"/><path d="M226.691 117.109l27.062-96.123-95.948 149.397 68.885-53.275z" fill="#7AA057"/><path d="M226.768 117.005l26.89-96.019 6.592 147.399-33.482-51.379z" fill="#8AAE68"/><path d="M156.806 726.501l115.044-312.408-17.939-393.107 308.674 353.858-405.779 351.657z" fill="#B0C998"/><path d="M156.806 726.501l252.116-331.215 153.662-20.543-405.779 351.758z" fill="#ACC694"/><path d="M449.444 473.175l-40.275-77.912 153.416-20.52-113.142 98.432z" fill="#B7D39E"/><path d="M271.702 414.216l-17.948-393.23 308.832 353.969-290.883 39.261z" fill="#B1CC97"/><path d="M407.904 397.227l-49.208-120.917 203.889 98.498-154.681 22.418z" fill="#A7C38D"/><path d="M309.41 155.873l-55.657-134.887 213.883 244.832-158.227-109.944z" fill="#BBD4A3"/><path d="M309.223 155.893l-55.47-134.907 55.47 63.456v71.451z" fill="#B6D09D"/><path d="M309.723 155.893l48.973-15.177-48.973-56.274v71.451z" fill="#C2DDAA"/><path d="M271.702 414.216l-17.948-393.23 154.416 376.172-136.468 17.058z" fill="#A2C086"/><path d="M271.744 414.216l16.575-114.421 119.851 97.358-136.426 17.063z" fill="#92B373"/><path d="M271.932 414.275l-40.167 109.865 176.404-126.913-136.237 17.048z" fill="#A9C58F"/><path d="M271.666 414.216l-17.912-393.23 55.47 135.332-37.558 257.897z" fill="#99B97B"/><path d="M260.406 169.384l-6.652-148.398 55.47 135.177-48.817 13.221z" fill="#9DC17C"/><path d="M156.806 726.501h506.907l162.228-546.624-263.879 194.66-405.256 351.964z" fill="#8BA96F"/><path d="M505.616 539.619l180.536 108.936 42.842-137.832-167.077-135.979-56.301 164.876z" fill="#8DAA73"/><path d="M156.806 726.501h506.724l-213.806-254.325-292.918 254.325z" fill="#809E64"/><path d="M150.806 727.501h513.867l-347.525-140.404-166.343 140.404z" fill="#7A9A5C"/><path d="M410.168 726.501h253.362l-157.406-187.371-95.956 187.371z" fill="#84A367"/><path d="M727.121 508.651l98.82-328.774-263.856 194.803 165.036 133.971z" fill="#96B579"/><path d="M727.266 508.651l46.204-153.395-107.441 8.908 61.238 144.487z" fill="#9CBA80"/><path d="M772.722 355.756l53.22-175.879-107.941 79.442 54.721 96.437z" fill="#93AE7A"/><path d="M772.97 355.852l-207.387 14.394 152.697-110.924 54.69 96.529z" fill="#8EA976"/><path d="M1124.547 472.269l212.116 254.232h-673.133l162.336-546.624 298.681 292.392z" fill="#AFC898"/><path d="M859.923 282.219l-87.452 75.036 53.343-177.378 34.11 102.342z" fill="#B6D09D"/><path d="M860.034 282.347l108.829 37.934-142.922-140.403 34.093 102.47z" fill="#BBD4A3"/><path d="M859.923 282.306l108.939 37.965 127.432 124.923-236.371-162.888z" fill="#C2DDAA"/><path d="M859.849 282.306l-87.378 74.47 323.823 88.418-236.445-162.888z" fill="#BAD5A2"/><path d="M727.995 508.151l44.815-151.396 323.984 88.339-368.799 63.056z" fill="#B3D099"/><path d="M727.995 507.664l454.252 33.964-52.183-69.963-33.339-26.97-368.731 62.97z" fill="#ABC991"/><path d="M727.995 508.151l454.253 33.928 70.96 83.991-525.214-117.919z" fill="#A5C38B"/><path d="M727.688 508.151l-41.171 139.904 566.191-21.649-525.021-118.255z" fill="#9EBE81"/><path d="M663.53 727l23.2-79.362 343.6-13.075-366.8 92.436z" fill="#98B97A"/><path d="M663.53 727l673.133-.868-306.235-91.568-366.898 92.436z" fill="#91B473"/><path d="M1253.441 626.07l83.222 99.931-306.333-91.482 223.111-8.45z" fill="#8FAF72"/></g><g sketch:type="MSShapeGroup"><path d="M1814.161 244.625l-96.706-70.745 101.445 116.42-4.739-45.675z" fill="#D3F0B9"/><path d="M1813.902 244.831l58.968 25.586-54.24 20.383-4.728-45.968z" fill="#CDEEAF"/><path d="M1950.828 319.78l-77.701-49.466-54.227 20.339 131.928 29.127z" fill="#C7EAA7"/><path d="M1950.828 319.362l-33.557 81.862-98.371-110.924 131.928 29.062z" fill="#BCE496"/><path d="M1950.367 319.28l-33.521 81.944 91.607-22.017-58.086-59.927z" fill="#BFE997"/><path d="M2008.82 511.316l-92.974-110.121 92.974-23.43v133.551z" fill="#B7E48D"/><path d="M1876.368 272.812l-158.913-98.932 95.746 70.726 63.167 28.206z" fill="#DEF5C8"/><path d="M1188.848 726.5l125.327-487.165-208.749 221.307-443.895 265.858h527.317z" fill="#B7D898"/><path d="M1152.263 609.58l-47.022-148.898-60.42 36.789 107.441 112.109z" fill="#AFD28F"/><path d="M1152.263 609.164l-113.938 25.399 6.587-137.405 107.35 112.006z" fill="#ACCD8D"/><path d="M884.409 671.038l153.823-36.396 6.589-137.485-160.413 173.88z" fill="#AFD38E"/><path d="M1189.243 727.5l-37.862-120.918-493.043 120.918h530.905z" fill="#B0D093"/><path d="M1189.243 726.5l-37.88-119.918-112.508 27.919-68.992 91.998h219.38z" fill="#A7C988"/><path d="M883.91 674.301l155.915-39.738-69.568 91.937-86.347-52.199z" fill="#A1C580"/><path d="M1189.743 726.5l-37.896-119.918-180.985 119.918h218.881z" fill="#ACCD8E"/><path d="M1188.766 726.5l125.409-487.165-208.886 221.307 83.477 265.858z" fill="#BFE29F"/><path d="M1228.278 572.106l15.935-62.166-138.924-49.258 122.989 111.423z" fill="#AACF87"/><path d="M1188.749 726.5l40.473-156.392-78.457 36.337 37.984 120.055z" fill="#B9DE97"/><path d="M1263.665 367.489l6.61-42.471 43.899-85.683-208.886 221.348 158.376-93.194z" fill="#B2D78F"/><path d="M1269.302 326.562l44.873-87.227-69.962 270.814 25.089-183.587z" fill="#BFE69B"/><path d="M1269.2 326.689l44.975-87.354-25.311 97.433-19.664-10.079z" fill="#BCE299"/><path d="M1269.699 326.275l-164.41 135.07 139.182 48.804 25.228-183.874z" fill="#B4DC8F"/><path d="M1188.743 726.5l125.394-487.165 210.095 87.772 240.696 399.393h-576.186z" fill="#C7E4AB"/><path d="M1188.743 726.5l125.33-487.165 209.987 87.772-335.317 399.393z" fill="#C4E7A3"/><path d="M1188.743 726.5l100.665-391.731 56.25 207.3-156.914 184.431z" fill="#B7DF92"/><path d="M1188.743 726.5h193.446l43.925-283.305-237.371 283.305z" fill="#BEE19D"/><path d="M1188.743 727.5h193.04l-36.674-186.872-156.366 186.872z" fill="#B3DA8F"/><path d="M1542.55 502.158l-160.413 224.342 43.965-283.305 116.447 58.963z" fill="#B6DC92"/><path d="M1542.501 502.154l-60.918 84.443 189.398-18.32-128.48-66.124z" fill="#B0D88B"/><path d="M1765.429 727l-282.846-142.005 186.178-17.385 96.668 159.39z" fill="#AAD484"/><path d="M1767.929 728l-285.179-142.902-102.324 142.902h387.503z" fill="#A6CD81"/><path d="M1289.688 336.768l24.655-97.433 210.217 87.994-234.872 9.439z" fill="#CAE9AD"/><path d="M1386.277 333.27l-72.102-93.935 209.886 87.732-137.784 6.204z" fill="#C3E9A0"/><path d="M1386.136 333.486l199.391 101.715-61.564-107.926-137.827 6.211z" fill="#CBEAAE"/><path d="M1386.136 333.27l199.391 101.569-159.55 8.356-39.842-109.924z" fill="#C1E59F"/><path d="M1667.982 567.11l-82.176-132.409-159.693 8.358 241.868 124.051z" fill="#B9DF97"/><path d="M1386.277 333.27l-72.102-93.935 104.943 43.472-32.841 50.464z" fill="#D4F1B9"/><path d="M2009.109 726.5v-217.641l-290.19-334.479-198.857 152.028 245.216 400.092h243.83z" fill="#B6D798"/><path d="M1770.727 277.361l50.672 13.374-102.818-116.355-11.12 61.999 21.6 59.417 41.666-18.435z" fill="#C1E0A5"/><path d="M1733.98 351.258l87.918-60.567-50.479-13.382-41.971 18.463 4.532 55.486z" fill="#B8DC96"/><path d="M1733.946 351.152l87.859-60.352 96.041 110.924-183.9-50.571z" fill="#B2D88F"/><path d="M1733.946 351.258l62.077 60.458 121.823-9.655-183.9-50.803z" fill="#ABD188"/><path d="M1732.947 350.259l62.466 61.193-50.348 80.709-12.118-141.902z" fill="#A7CC86"/><path d="M1917.346 401.723l-121.521 9.69-49.886 80.748 171.407-90.438z" fill="#BADF98"/><path d="M1917.391 401.723l90.406 103.929-261.857-13.377 171.451-90.551z" fill="#B2D88F"/><path d="M2008.797 619.074v-113.563l-262.857-13.35 262.857 126.913z" fill="#ABD684"/><path d="M2007.797 619.483l-98.341-47.377-143.528 154.394 241.868-107.017z" fill="#A8D97C"/><path d="M2007.797 619.074l1 108.926h-246.432l245.432-108.926z" fill="#A1D275"/><path d="M1909.85 571.155l-155.733 29.931-8.177-108.925 163.911 78.994z" fill="#A3D179"/><path d="M1909.35 571.606l-155.415 29.95 11.12 125.443 144.295-155.393z" fill="#9ECC75"/><path d="M1821.898 290.8l-102.944-116.42 51.472 103.172 51.472 13.248z" fill="#C7E7A9"/><path d="M1719.041 174.38l-198.978 152.028 245.366 400.092-46.388-552.12z" fill="#AED38C"/><path d="M1718.71 174.38l-71.717 144.9 75.459-100.989-3.742-43.911z" fill="#AAD088"/><path d="M1732.947 350.259l-85.953-31.21 75.498-100.699 10.455 131.909z" fill="#A6CF81"/><path d="M1732.947 350.259l-85.953-31.156 81.42-24.305 4.533 55.462z" fill="#9FC87A"/><path d="M1732.746 350.585l-86.252-31.805 98.446 173.381-12.194-141.576z" fill="#A4CE7D"/><path d="M1609.514 393.817l37.276-74.537 98.649 172.881-135.926-98.344z" fill="#A0C97C"/><path d="M1609.21 393.729l-22.184 44.486 157.914 53.946-135.73-98.432z" fill="#A6D080"/><path d="M1669.98 570.107l-82.954-132.409 157.914 53.884-74.96 78.525z" fill="#A2CD7A"/><path d="M1669.981 569.945l83.954 31.64-8.692-109.924-75.262 78.284z" fill="#AAD385"/><path d="M1718.812 174.38l10.636 121.916-21.488-61.208 10.852-60.708z" fill="#B9DA9B"/><path d="M1610.014 392.39l-89.951-66.115 68.044 110.924 21.906-44.809z" fill="#9AC276"/><path d="M1718.954 174.38l-109.94 84.442 44.384-6.115 65.556-78.327z" fill="#A1C67F"/><path d="M1647.243 318.128l-126.68 8.647 88.583-67.827 44.344-6.122-6.247 65.302z" fill="#9BC179"/><path d="M1646.993 317.781l-126.931 8.644 89.635 65.805 37.296-74.449z" fill="#9EC67A"/><path d="M1718.954 174.38l-71.961 143.901 6.494-65.705 65.467-78.196z" fill="#A5CB82"/><path d="M1754.418 601.006l-84.437-31.398 94.948 156.892-10.511-125.494z" fill="#A5CF7F"/></g><g sketch:type="MSShapeGroup"><path id="Rectangle-221" fill="#9AC771" d="M1661.986 287.803h.999v13.491h-.999z"/><path d="M1662.485 291.619v2.233l4.072 2.445 1.925-2.445-1.634-2.552-4.363.319z" id="Rectangle-221" fill="#96C66A"/><path d="M1662.485 293.299l4.072 2.498 1.925-2.498h-5.997z" id="Rectangle-222" fill="#8BB465"/><g id="Ruby"><path d="M1655.989 282.306l6.496 6.995-2.656-6.995h-3.84z" id="Path-15" fill="#B63033"/><path d="M1668.983 282.306l-6.496 6.995 2.662-6.995h3.835z" id="Path-15" fill="#D74D50"/><path d="M1659.487 282.306l2.749 6.995 2.749-6.995h-5.497z" id="Path-16" fill="#C53A3D"/><path id="Triangle-1" fill="#DF7D80" d="M1658.665 279.808l1.321 2.498h-3.998z"/><path d="M1658.488 279.808h3.998l-2.859 2.498-1.139-2.498z" id="Triangle-1" fill="#C53A3D"/><path d="M1662.485 279.808h3.998l-1.189 2.498-2.808-2.498z" id="Triangle-1" fill="#D74D50"/><path id="Triangle-1" fill="#F9A3A5" d="M1662.351 279.808l2.633 2.498h-5.497z"/><path id="Triangle-1" fill="#FCBDBF" d="M1666.284 279.808l-1.3 2.498h3.998z"/></g></g><g sketch:type="MSShapeGroup"><path id="Rectangle-221" fill="#9AC771" d="M1761.931 237.837h.999v13.491h-.999z"/><path d="M1762.43 241.653v2.233l4.072 2.445 1.925-2.445-1.634-2.552-4.363.319z" id="Rectangle-221" fill="#96C66A"/><path d="M1762.43 243.333l4.072 2.498 1.925-2.498h-5.997z" id="Rectangle-222" fill="#8BB465"/><g id="Ruby"><path d="M1755.934 232.34l6.496 6.995-2.656-6.995h-3.84z" id="Path-15" fill="#B63033"/><path d="M1768.928 232.34l-6.496 6.995 2.662-6.995h3.835z" id="Path-15" fill="#D74D50"/><path d="M1759.432 232.34l2.749 6.995 2.749-6.995h-5.497z" id="Path-16" fill="#C53A3D"/><path id="Triangle-1" fill="#DF7D80" d="M1758.61 229.842l1.321 2.498h-3.998z"/><path d="M1758.433 229.842h3.998l-2.859 2.498-1.139-2.498z" id="Triangle-1" fill="#C53A3D"/><path d="M1762.43 229.842h3.998l-1.189 2.498-2.808-2.498z" id="Triangle-1" fill="#D74D50"/><path id="Triangle-1" fill="#F9A3A5" d="M1762.296 229.842l2.633 2.498h-5.497z"/><path id="Triangle-1" fill="#FCBDBF" d="M1766.229 229.842l-1.3 2.498h3.998z"/></g></g><g sketch:type="MSShapeGroup"><path id="Rectangle-221" fill="#9AC771" d="M1746.939 272.813h.999v13.491h-.999z"/><path d="M1747.438 276.629v2.233l4.072 2.445 1.925-2.445-1.634-2.552-4.363.319z" id="Rectangle-221" fill="#96C66A"/><path d="M1747.438 278.309l4.072 2.498 1.925-2.498h-5.997z" id="Rectangle-222" fill="#8BB465"/><g id="Ruby"><path d="M1740.942 267.316l6.496 6.995-2.656-6.995h-3.84z" id="Path-15" fill="#B63033"/><path d="M1753.936 267.316l-6.496 6.995 2.662-6.995h3.835z" id="Path-15" fill="#D74D50"/><path d="M1744.44 267.316l2.749 6.995 2.749-6.995h-5.497z" id="Path-16" fill="#C53A3D"/><path id="Triangle-1" fill="#DF7D80" d="M1743.618 264.818l1.321 2.498h-3.998z"/><path d="M1743.441 264.818h3.998l-2.859 2.498-1.139-2.498z" id="Triangle-1" fill="#C53A3D"/><path d="M1747.438 264.818h3.998l-1.189 2.498-2.808-2.498z" id="Triangle-1" fill="#D74D50"/><path id="Triangle-1" fill="#F9A3A5" d="M1747.304 264.818l2.633 2.498h-5.497z"/><path id="Triangle-1" fill="#FCBDBF" d="M1751.237 264.818l-1.3 2.498h3.998z"/></g></g><g sketch:type="MSShapeGroup"><path id="Rectangle-221" fill="#9AC771" d="M1540.552 465.68h.999v13.491h-.999z"/><path d="M1541.051 469.496v2.233l4.072 2.445 1.925-2.445-1.634-2.552-4.363.319z" id="Rectangle-221" fill="#96C66A"/><path d="M1541.051 471.176l4.072 2.498 1.925-2.498h-5.997z" id="Rectangle-222" fill="#8BB465"/><g id="Ruby"><path d="M1534.555 460.183l6.496 6.995-2.656-6.995h-3.84z" id="Path-15" fill="#B63033"/><path d="M1547.549 460.183l-6.496 6.995 2.662-6.995h3.835z" id="Path-15" fill="#D74D50"/><path d="M1538.053 460.183l2.749 6.995 2.749-6.995h-5.497z" id="Path-16" fill="#C53A3D"/><path id="Triangle-1" fill="#DF7D80" d="M1537.231 457.685l1.321 2.498h-3.998z"/><path d="M1537.054 457.685h3.998l-2.859 2.498-1.139-2.498z" id="Triangle-1" fill="#C53A3D"/><path d="M1541.051 457.685h3.998l-1.189 2.498-2.808-2.498z" id="Triangle-1" fill="#D74D50"/><path id="Triangle-1" fill="#F9A3A5" d="M1540.917 457.685l2.633 2.498h-5.497z"/><path id="Triangle-1" fill="#FCBDBF" d="M1544.85 457.685l-1.3 2.498h3.998z"/></g></g><g sketch:type="MSShapeGroup"><path id="Rectangle-221" fill="#9AC771" d="M1547.048 587.596h.999v13.491h-.999z"/><path d="M1547.547 591.412v2.233l4.072 2.445 1.925-2.445-1.634-2.552-4.363.319z" id="Rectangle-221" fill="#96C66A"/><path d="M1547.547 593.092l4.072 2.498 1.925-2.498h-5.997z" id="Rectangle-222" fill="#8BB465"/><g id="Ruby"><path d="M1541.051 582.099l6.496 6.995-2.656-6.995h-3.84z" id="Path-15" fill="#B63033"/><path d="M1554.045 582.099l-6.496 6.995 2.662-6.995h3.835z" id="Path-15" fill="#D74D50"/><path d="M1544.549 582.099l2.749 6.995 2.749-6.995h-5.497z" id="Path-16" fill="#C53A3D"/><path id="Triangle-1" fill="#DF7D80" d="M1543.727 579.601l1.321 2.498h-3.998z"/><path d="M1543.55 579.601h3.998l-2.859 2.498-1.139-2.498z" id="Triangle-1" fill="#C53A3D"/><path d="M1547.547 579.601h3.998l-1.189 2.498-2.808-2.498z" id="Triangle-1" fill="#D74D50"/><path id="Triangle-1" fill="#F9A3A5" d="M1547.413 579.601l2.633 2.498h-5.497z"/><path id="Triangle-1" fill="#FCBDBF" d="M1551.346 579.601l-1.3 2.498h3.998z"/></g></g><g sketch:type="MSShapeGroup"><path id="Rectangle-221" fill="#9AC771" d="M1668.482 418.713h.999v13.491h-.999z"/><path d="M1668.981 422.529v2.233l4.072 2.445 1.925-2.445-1.634-2.552-4.363.319z" id="Rectangle-221" fill="#96C66A"/><path d="M1668.981 424.209l4.072 2.498 1.925-2.498h-5.997z" id="Rectangle-222" fill="#8BB465"/><g id="Ruby"><path d="M1662.485 413.216l6.496 6.995-2.656-6.995h-3.84z" id="Path-15" fill="#B63033"/><path d="M1675.479 413.216l-6.496 6.995 2.662-6.995h3.835z" id="Path-15" fill="#D74D50"/><path d="M1665.983 413.216l2.749 6.995 2.749-6.995h-5.497z" id="Path-16" fill="#C53A3D"/><path id="Triangle-1" fill="#DF7D80" d="M1665.161 410.718l1.321 2.498h-3.998z"/><path d="M1664.984 410.718h3.998l-2.859 2.498-1.139-2.498z" id="Triangle-1" fill="#C53A3D"/><path d="M1668.981 410.718h3.998l-1.189 2.498-2.808-2.498z" id="Triangle-1" fill="#D74D50"/><path id="Triangle-1" fill="#F9A3A5" d="M1668.847 410.718l2.633 2.498h-5.497z"/><path id="Triangle-1" fill="#FCBDBF" d="M1672.78 410.718l-1.3 2.498h3.998z"/></g></g><g sketch:type="MSShapeGroup"><path id="Rectangle-221" fill="#9AC771" d="M297.73 102.93h.999v13.491h-.999z"/><path d="M298.229 106.746v2.233l4.072 2.445 1.925-2.445-1.634-2.552-4.363.319z" id="Rectangle-221" fill="#96C66A"/><path d="M298.229 108.426l4.072 2.498 1.925-2.498h-5.997z" id="Rectangle-222" fill="#8BB465"/><g id="Ruby"><path d="M291.733 97.433l6.496 6.995-2.656-6.995h-3.84z" id="Path-15" fill="#B63033"/><path d="M304.727 97.433l-6.496 6.995 2.662-6.995h3.835z" id="Path-15" fill="#D74D50"/><path d="M295.231 97.433l2.749 6.995 2.749-6.995h-5.497z" id="Path-16" fill="#C53A3D"/><path id="Triangle-1" fill="#DF7D80" d="M294.409 94.935l1.321 2.498h-3.998z"/><path d="M294.232 94.935h3.998l-2.859 2.498-1.139-2.498z" id="Triangle-1" fill="#C53A3D"/><path d="M298.229 94.935h3.998l-1.189 2.498-2.808-2.498z" id="Triangle-1" fill="#D74D50"/><path id="Triangle-1" fill="#F9A3A5" d="M298.095 94.935l2.633 2.498h-5.497z"/><path id="Triangle-1" fill="#FCBDBF" d="M302.028 94.935l-1.3 2.498h3.998z"/></g></g><g sketch:type="MSShapeGroup"><path id="Rectangle-221" fill="#9AC771" d="M297.73 172.882h.999v13.491h-.999z"/><path d="M298.229 176.698v2.233l4.072 2.445 1.925-2.445-1.634-2.552-4.363.319z" id="Rectangle-221" fill="#96C66A"/><path d="M298.229 178.378l4.072 2.498 1.925-2.498h-5.997z" id="Rectangle-222" fill="#8BB465"/><g id="Ruby"><path d="M291.733 167.385l6.496 6.995-2.656-6.995h-3.84z" id="Path-15" fill="#B63033"/><path d="M304.727 167.385l-6.496 6.995 2.662-6.995h3.835z" id="Path-15" fill="#D74D50"/><path d="M295.231 167.385l2.749 6.995 2.749-6.995h-5.497z" id="Path-16" fill="#C53A3D"/><path id="Triangle-1" fill="#DF7D80" d="M294.409 164.887l1.321 2.498h-3.998z"/><path d="M294.232 164.887h3.998l-2.859 2.498-1.139-2.498z" id="Triangle-1" fill="#C53A3D"/><path d="M298.229 164.887h3.998l-1.189 2.498-2.808-2.498z" id="Triangle-1" fill="#D74D50"/><path id="Triangle-1" fill="#F9A3A5" d="M298.095 164.887l2.633 2.498h-5.497z"/><path id="Triangle-1" fill="#FCBDBF" d="M302.028 164.887l-1.3 2.498h3.998z"/></g></g><g sketch:type="MSShapeGroup"><path id="Rectangle-221" fill="#9AC771" d="M417.664 292.799h.999v13.491h-.999z"/><path d="M418.163 296.615v2.233l4.072 2.445 1.925-2.445-1.634-2.552-4.363.319z" id="Rectangle-221" fill="#96C66A"/><path d="M418.163 298.295l4.072 2.498 1.925-2.498h-5.997z" id="Rectangle-222" fill="#8BB465"/><g id="Ruby"><path d="M411.667 287.302l6.496 6.995-2.656-6.995h-3.84z" id="Path-15" fill="#B63033"/><path d="M424.661 287.302l-6.496 6.995 2.662-6.995h3.835z" id="Path-15" fill="#D74D50"/><path d="M415.165 287.302l2.749 6.995 2.749-6.995h-5.497z" id="Path-16" fill="#C53A3D"/><path id="Triangle-1" fill="#DF7D80" d="M414.343 284.804l1.321 2.498h-3.998z"/><path d="M414.166 284.804h3.998l-2.859 2.498-1.139-2.498z" id="Triangle-1" fill="#C53A3D"/><path d="M418.163 284.804h3.998l-1.189 2.498-2.808-2.498z" id="Triangle-1" fill="#D74D50"/><path id="Triangle-1" fill="#F9A3A5" d="M418.029 284.804l2.633 2.498h-5.497z"/><path id="Triangle-1" fill="#FCBDBF" d="M421.962 284.804l-1.3 2.498h3.998z"/></g></g><g sketch:type="MSShapeGroup"><path id="Rectangle-221" fill="#9AC771" d="M307.724 333.271h.999v13.491h-.999z"/><path d="M308.223 337.087v2.233l4.072 2.445 1.925-2.445-1.634-2.552-4.363.319z" id="Rectangle-221" fill="#96C66A"/><path d="M308.223 338.767l4.072 2.498 1.925-2.498h-5.997z" id="Rectangle-222" fill="#8BB465"/><g id="Ruby"><path d="M301.727 327.774l6.496 6.995-2.656-6.995h-3.84z" id="Path-15" fill="#B63033"/><path d="M314.721 327.774l-6.496 6.995 2.662-6.995h3.835z" id="Path-15" fill="#D74D50"/><path d="M305.225 327.774l2.749 6.995 2.749-6.995h-5.497z" id="Path-16" fill="#C53A3D"/><path id="Triangle-1" fill="#DF7D80" d="M304.403 325.276l1.321 2.498h-3.998z"/><path d="M304.226 325.276h3.998l-2.859 2.498-1.139-2.498z" id="Triangle-1" fill="#C53A3D"/><path d="M308.223 325.276h3.998l-1.189 2.498-2.808-2.498z" id="Triangle-1" fill="#D74D50"/><path id="Triangle-1" fill="#F9A3A5" d="M308.089 325.276l2.633 2.498h-5.497z"/><path id="Triangle-1" fill="#FCBDBF" d="M312.022 325.276l-1.3 2.498h3.998z"/></g></g><g sketch:type="MSShapeGroup"><path id="Rectangle-221" fill="#9AC771" d="M226.769 139.904h.999v13.491h-.999z"/><path d="M227.268 143.72v2.233l4.072 2.445 1.925-2.445-1.634-2.552-4.363.319z" id="Rectangle-221" fill="#96C66A"/><path d="M227.268 145.4l4.072 2.498 1.925-2.498h-5.997z" id="Rectangle-222" fill="#8BB465"/><g id="Ruby"><path d="M220.772 134.407l6.496 6.995-2.656-6.995h-3.84z" id="Path-15" fill="#B63033"/><path d="M233.766 134.407l-6.496 6.995 2.662-6.995h3.835z" id="Path-15" fill="#D74D50"/><path d="M224.27 134.407l2.749 6.995 2.749-6.995h-5.497z" id="Path-16" fill="#C53A3D"/><path id="Triangle-1" fill="#DF7D80" d="M223.448 131.909l1.321 2.498h-3.998z"/><path d="M223.271 131.909h3.998l-2.859 2.498-1.139-2.498z" id="Triangle-1" fill="#C53A3D"/><path d="M227.268 131.909h3.998l-1.189 2.498-2.808-2.498z" id="Triangle-1" fill="#D74D50"/><path id="Triangle-1" fill="#F9A3A5" d="M227.134 131.909l2.633 2.498h-5.497z"/><path id="Triangle-1" fill="#FCBDBF" d="M231.067 131.909l-1.3 2.498h3.998z"/></g></g><g sketch:type="MSShapeGroup"><path id="Rectangle-221" fill="#9AC771" d="M512.613 514.647h.999v13.491h-.999z"/><path d="M513.112 518.463v2.233l4.072 2.445 1.925-2.445-1.634-2.552-4.363.319z" id="Rectangle-221" fill="#96C66A"/><path d="M513.112 520.143l4.072 2.498 1.925-2.498h-5.997z" id="Rectangle-222" fill="#8BB465"/><g id="Ruby"><path d="M506.616 509.15l6.496 6.995-2.656-6.995h-3.84z" id="Path-15" fill="#B63033"/><path d="M519.61 509.15l-6.496 6.995 2.662-6.995h3.835z" id="Path-15" fill="#D74D50"/><path d="M510.114 509.15l2.749 6.995 2.749-6.995h-5.497z" id="Path-16" fill="#C53A3D"/><path id="Triangle-1" fill="#DF7D80" d="M509.292 506.652l1.321 2.498h-3.998z"/><path d="M509.115 506.652h3.998l-2.859 2.498-1.139-2.498z" id="Triangle-1" fill="#C53A3D"/><path d="M513.112 506.652h3.998l-1.189 2.498-2.808-2.498z" id="Triangle-1" fill="#D74D50"/><path id="Triangle-1" fill="#F9A3A5" d="M512.978 506.652l2.633 2.498h-5.497z"/><path id="Triangle-1" fill="#FCBDBF" d="M516.911 506.652l-1.3 2.498h3.998z"/></g></g><g sketch:type="MSShapeGroup"><path id="Rectangle-221" fill="#9AC771" d="M411.168 577.104h.999v13.491h-.999z"/><path d="M411.667 580.92v2.233l4.072 2.445 1.925-2.445-1.634-2.552-4.363.319z" id="Rectangle-221" fill="#96C66A"/><path d="M411.667 582.6l4.072 2.498 1.925-2.498h-5.997z" id="Rectangle-222" fill="#8BB465"/><g id="Ruby"><path d="M405.171 571.607l6.496 6.995-2.656-6.995h-3.84z" id="Path-15" fill="#B63033"/><path d="M418.165 571.607l-6.496 6.995 2.662-6.995h3.835z" id="Path-15" fill="#D74D50"/><path d="M408.669 571.607l2.749 6.995 2.749-6.995h-5.497z" id="Path-16" fill="#C53A3D"/><path id="Triangle-1" fill="#DF7D80" d="M407.847 569.109l1.321 2.498h-3.998z"/><path d="M407.67 569.109h3.998l-2.859 2.498-1.139-2.498z" id="Triangle-1" fill="#C53A3D"/><path d="M411.667 569.109h3.998l-1.189 2.498-2.808-2.498z" id="Triangle-1" fill="#D74D50"/><path id="Triangle-1" fill="#F9A3A5" d="M411.533 569.109l2.633 2.498h-5.497z"/><path id="Triangle-1" fill="#FCBDBF" d="M415.466 569.109l-1.3 2.498h3.998z"/></g></g><g sketch:type="MSShapeGroup"><path id="Rectangle-221" fill="#9AC771" d="M184.292 481.669h.999v13.491h-.999z"/><path d="M184.791 485.485v2.233l4.072 2.445 1.925-2.445-1.634-2.552-4.363.319z" id="Rectangle-221" fill="#96C66A"/><path d="M184.791 487.165l4.072 2.498 1.925-2.498h-5.997z" id="Rectangle-222" fill="#8BB465"/><g id="Ruby"><path d="M178.295 476.172l6.496 6.995-2.656-6.995h-3.84z" id="Path-15" fill="#B63033"/><path d="M191.289 476.172l-6.496 6.995 2.662-6.995h3.835z" id="Path-15" fill="#D74D50"/><path d="M181.793 476.172l2.749 6.995 2.749-6.995h-5.497z" id="Path-16" fill="#C53A3D"/><path id="Triangle-1" fill="#DF7D80" d="M180.971 473.674l1.321 2.498h-3.998z"/><path d="M180.794 473.674h3.998l-2.859 2.498-1.139-2.498z" id="Triangle-1" fill="#C53A3D"/><path d="M184.791 473.674h3.998l-1.189 2.498-2.808-2.498z" id="Triangle-1" fill="#D74D50"/><path id="Triangle-1" fill="#F9A3A5" d="M184.657 473.674l2.633 2.498h-5.497z"/><path id="Triangle-1" fill="#FCBDBF" d="M188.59 473.674l-1.3 2.498h3.998z"/></g></g><g sketch:type="MSShapeGroup"><path id="Rectangle-221" fill="#9AC771" d="M355.199 476.173h.999v13.491h-.999z"/><path d="M355.698 479.989v2.233l4.072 2.445 1.925-2.445-1.634-2.552-4.363.319z" id="Rectangle-221" fill="#96C66A"/><path d="M355.698 481.669l4.072 2.498 1.925-2.498h-5.997z" id="Rectangle-222" fill="#8BB465"/><g id="Ruby"><path d="M349.202 470.676l6.496 6.995-2.656-6.995h-3.84z" id="Path-15" fill="#B63033"/><path d="M362.196 470.676l-6.496 6.995 2.662-6.995h3.835z" id="Path-15" fill="#D74D50"/><path d="M352.7 470.676l2.749 6.995 2.749-6.995h-5.497z" id="Path-16" fill="#C53A3D"/><path id="Triangle-1" fill="#DF7D80" d="M351.878 468.178l1.321 2.498h-3.998z"/><path d="M351.701 468.178h3.998l-2.859 2.498-1.139-2.498z" id="Triangle-1" fill="#C53A3D"/><path d="M355.698 468.178h3.998l-1.189 2.498-2.808-2.498z" id="Triangle-1" fill="#D74D50"/><path id="Triangle-1" fill="#F9A3A5" d="M355.564 468.178l2.633 2.498h-5.497z"/><path id="Triangle-1" fill="#FCBDBF" d="M359.497 468.178l-1.3 2.498h3.998z"/></g></g><g sketch:type="MSShapeGroup"><path id="Rectangle-221" fill="#9AC771" d="M166.801 209.856h.999v13.491h-.999z"/><path d="M167.3 213.672v2.233l4.072 2.445 1.925-2.445-1.634-2.552-4.363.319z" id="Rectangle-221" fill="#96C66A"/><path d="M167.3 215.352l4.072 2.498 1.925-2.498h-5.997z" id="Rectangle-222" fill="#8BB465"/><g id="Ruby"><path d="M160.804 204.359l6.496 6.995-2.656-6.995h-3.84z" id="Path-15" fill="#B63033"/><path d="M173.798 204.359l-6.496 6.995 2.662-6.995h3.835z" id="Path-15" fill="#D74D50"/><path d="M164.302 204.359l2.749 6.995 2.749-6.995h-5.497z" id="Path-16" fill="#C53A3D"/><path id="Triangle-1" fill="#DF7D80" d="M163.48 201.861l1.321 2.498h-3.998z"/><path d="M163.303 201.861h3.998l-2.859 2.498-1.139-2.498z" id="Triangle-1" fill="#C53A3D"/><path d="M167.3 201.861h3.998l-1.189 2.498-2.808-2.498z" id="Triangle-1" fill="#D74D50"/><path id="Triangle-1" fill="#F9A3A5" d="M167.166 201.861l2.633 2.498h-5.497z"/><path id="Triangle-1" fill="#FCBDBF" d="M171.099 201.861l-1.3 2.498h3.998z"/></g></g><g sketch:type="MSShapeGroup"><path id="Rectangle-221" fill="#9AC771" d="M1866.874 287.803h.999v13.491h-.999z"/><path d="M1867.373 291.619v2.233l4.072 2.445 1.925-2.445-1.634-2.552-4.363.319z" id="Rectangle-221" fill="#96C66A"/><path d="M1867.373 293.299l4.072 2.498 1.925-2.498h-5.997z" id="Rectangle-222" fill="#8BB465"/><g id="Ruby"><path d="M1860.877 282.306l6.496 6.995-2.656-6.995h-3.84z" id="Path-15" fill="#B63033"/><path d="M1873.871 282.306l-6.496 6.995 2.662-6.995h3.835z" id="Path-15" fill="#D74D50"/><path d="M1864.375 282.306l2.749 6.995 2.749-6.995h-5.497z" id="Path-16" fill="#C53A3D"/><path id="Triangle-1" fill="#DF7D80" d="M1863.553 279.808l1.321 2.498h-3.998z"/><path d="M1863.376 279.808h3.998l-2.859 2.498-1.139-2.498z" id="Triangle-1" fill="#C53A3D"/><path d="M1867.373 279.808h3.998l-1.189 2.498-2.808-2.498z" id="Triangle-1" fill="#D74D50"/><path id="Triangle-1" fill="#F9A3A5" d="M1867.239 279.808l2.633 2.498h-5.497z"/><path id="Triangle-1" fill="#FCBDBF" d="M1871.172 279.808l-1.3 2.498h3.998z"/></g></g><g sketch:type="MSShapeGroup"><path id="Rectangle-221" fill="#9AC771" d="M1827.396 567.61h.999v13.491h-.999z"/><path d="M1827.895 571.426v2.233l4.072 2.445 1.925-2.445-1.634-2.552-4.363.319z" id="Rectangle-221" fill="#96C66A"/><path d="M1827.895 573.106l4.072 2.498 1.925-2.498h-5.997z" id="Rectangle-222" fill="#8BB465"/><g id="Ruby"><path d="M1821.399 562.113l6.496 6.995-2.656-6.995h-3.84z" id="Path-15" fill="#B63033"/><path d="M1834.393 562.113l-6.496 6.995 2.662-6.995h3.835z" id="Path-15" fill="#D74D50"/><path d="M1824.897 562.113l2.749 6.995 2.749-6.995h-5.497z" id="Path-16" fill="#C53A3D"/><path id="Triangle-1" fill="#DF7D80" d="M1824.075 559.615l1.321 2.498h-3.998z"/><path d="M1823.898 559.615h3.998l-2.859 2.498-1.139-2.498z" id="Triangle-1" fill="#C53A3D"/><path d="M1827.895 559.615h3.998l-1.189 2.498-2.808-2.498z" id="Triangle-1" fill="#D74D50"/><path id="Triangle-1" fill="#F9A3A5" d="M1827.761 559.615l2.633 2.498h-5.497z"/><path id="Triangle-1" fill="#FCBDBF" d="M1831.694 559.615l-1.3 2.498h3.998z"/></g></g><g sketch:type="MSShapeGroup"><path id="Rectangle-221" fill="#9AC771" d="M1947.33 582.6h.999v13.491h-.999z"/><path d="M1947.829 586.416v2.233l4.072 2.445 1.925-2.445-1.634-2.552-4.363.319z" id="Rectangle-221" fill="#96C66A"/><path d="M1947.829 588.096l4.072 2.498 1.925-2.498h-5.997z" id="Rectangle-222" fill="#8BB465"/><g id="Ruby"><path d="M1941.333 577.103l6.496 6.995-2.656-6.995h-3.84z" id="Path-15" fill="#B63033"/><path d="M1954.327 577.103l-6.496 6.995 2.662-6.995h3.835z" id="Path-15" fill="#D74D50"/><path d="M1944.831 577.103l2.749 6.995 2.749-6.995h-5.497z" id="Path-16" fill="#C53A3D"/><path id="Triangle-1" fill="#DF7D80" d="M1944.009 574.605l1.321 2.498h-3.998z"/><path d="M1943.832 574.605h3.998l-2.859 2.498-1.139-2.498z" id="Triangle-1" fill="#C53A3D"/><path d="M1947.829 574.605h3.998l-1.189 2.498-2.808-2.498z" id="Triangle-1" fill="#D74D50"/><path id="Triangle-1" fill="#F9A3A5" d="M1947.695 574.605l2.633 2.498h-5.497z"/><path id="Triangle-1" fill="#FCBDBF" d="M1951.628 574.605l-1.3 2.498h3.998z"/></g></g><g sketch:type="MSShapeGroup"><path id="Rectangle-221" fill="#9AC771" d="M1881.866 407.72h.999v13.491h-.999z"/><path d="M1882.365 411.536v2.233l4.072 2.445 1.925-2.445-1.634-2.552-4.363.319z" id="Rectangle-221" fill="#96C66A"/><path d="M1882.365 413.216l4.072 2.498 1.925-2.498h-5.997z" id="Rectangle-222" fill="#8BB465"/><g id="Ruby"><path d="M1875.869 402.223l6.496 6.995-2.656-6.995h-3.84z" id="Path-15" fill="#B63033"/><path d="M1888.863 402.223l-6.496 6.995 2.662-6.995h3.835z" id="Path-15" fill="#D74D50"/><path d="M1879.367 402.223l2.749 6.995 2.749-6.995h-5.497z" id="Path-16" fill="#C53A3D"/><path id="Triangle-1" fill="#DF7D80" d="M1878.545 399.725l1.321 2.498h-3.998z"/><path d="M1878.368 399.725h3.998l-2.859 2.498-1.139-2.498z" id="Triangle-1" fill="#C53A3D"/><path d="M1882.365 399.725h3.998l-1.189 2.498-2.808-2.498z" id="Triangle-1" fill="#D74D50"/><path id="Triangle-1" fill="#F9A3A5" d="M1882.231 399.725l2.633 2.498h-5.497z"/><path id="Triangle-1" fill="#FCBDBF" d="M1886.164 399.725l-1.3 2.498h3.998z"/></g></g><g sketch:type="MSShapeGroup"><path id="Rectangle-221" fill="#9AC771" d="M716.874 277.803h.999v13.491h-.999z"/><path d="M717.373 281.619v2.233l4.072 2.445 1.925-2.445-1.634-2.552-4.363.319z" id="Rectangle-221" fill="#96C66A"/><path d="M717.373 283.299l4.072 2.498 1.925-2.498h-5.997z" id="Rectangle-222" fill="#8BB465"/><g id="Ruby"><path d="M710.877 272.306l6.496 6.995-2.656-6.995h-3.84z" id="Path-15" fill="#B63033"/><path d="M723.871 272.306l-6.496 6.995 2.662-6.995h3.835z" id="Path-15" fill="#D74D50"/><path d="M714.375 272.306l2.749 6.995 2.749-6.995h-5.497z" id="Path-16" fill="#C53A3D"/><path id="Triangle-1" fill="#DF7D80" d="M713.553 269.808l1.321 2.498h-3.998z"/><path d="M713.376 269.808h3.998l-2.859 2.498-1.139-2.498z" id="Triangle-1" fill="#C53A3D"/><path d="M717.373 269.808h3.998l-1.189 2.498-2.808-2.498z" id="Triangle-1" fill="#D74D50"/><path id="Triangle-1" fill="#F9A3A5" d="M717.239 269.808l2.633 2.498h-5.497z"/><path id="Triangle-1" fill="#FCBDBF" d="M721.172 269.808l-1.3 2.498h3.998z"/></g></g><g sketch:type="MSShapeGroup"><path id="Rectangle-221" fill="#9AC771" d="M677.396 557.61h.999v13.491h-.999z"/><path d="M677.895 561.426v2.233l4.072 2.445 1.925-2.445-1.634-2.552-4.363.319z" id="Rectangle-221" fill="#96C66A"/><path d="M677.895 563.106l4.072 2.498 1.925-2.498h-5.997z" id="Rectangle-222" fill="#8BB465"/><g id="Ruby"><path d="M671.399 552.113l6.496 6.995-2.656-6.995h-3.84z" id="Path-15" fill="#B63033"/><path d="M684.393 552.113l-6.496 6.995 2.662-6.995h3.835z" id="Path-15" fill="#D74D50"/><path d="M674.897 552.113l2.749 6.995 2.749-6.995h-5.497z" id="Path-16" fill="#C53A3D"/><path id="Triangle-1" fill="#DF7D80" d="M674.075 549.615l1.321 2.498h-3.998z"/><path d="M673.898 549.615h3.998l-2.859 2.498-1.139-2.498z" id="Triangle-1" fill="#C53A3D"/><path d="M677.895 549.615h3.998l-1.189 2.498-2.808-2.498z" id="Triangle-1" fill="#D74D50"/><path id="Triangle-1" fill="#F9A3A5" d="M677.761 549.615l2.633 2.498h-5.497z"/><path id="Triangle-1" fill="#FCBDBF" d="M681.694 549.615l-1.3 2.498h3.998z"/></g></g><g sketch:type="MSShapeGroup"><path id="Rectangle-221" fill="#9AC771" d="M797.33 572.6h.999v13.491h-.999z"/><path d="M797.829 576.416v2.233l4.072 2.445 1.925-2.445-1.634-2.552-4.363.319z" id="Rectangle-221" fill="#96C66A"/><path d="M797.829 578.096l4.072 2.498 1.925-2.498h-5.997z" id="Rectangle-222" fill="#8BB465"/><g id="Ruby"><path d="M791.333 567.103l6.496 6.995-2.656-6.995h-3.84z" id="Path-15" fill="#B63033"/><path d="M804.327 567.103l-6.496 6.995 2.662-6.995h3.835z" id="Path-15" fill="#D74D50"/><path d="M794.831 567.103l2.749 6.995 2.749-6.995h-5.497z" id="Path-16" fill="#C53A3D"/><path id="Triangle-1" fill="#DF7D80" d="M794.009 564.605l1.321 2.498h-3.998z"/><path d="M793.832 564.605h3.998l-2.859 2.498-1.139-2.498z" id="Triangle-1" fill="#C53A3D"/><path d="M797.829 564.605h3.998l-1.189 2.498-2.808-2.498z" id="Triangle-1" fill="#D74D50"/><path id="Triangle-1" fill="#F9A3A5" d="M797.695 564.605l2.633 2.498h-5.497z"/><path id="Triangle-1" fill="#FCBDBF" d="M801.628 564.605l-1.3 2.498h3.998z"/></g></g><g sketch:type="MSShapeGroup"><path id="Rectangle-221" fill="#9AC771" d="M886.874 327.803h.999v13.491h-.999z"/><path d="M887.373 331.619v2.233l4.072 2.445 1.925-2.445-1.634-2.552-4.363.319z" id="Rectangle-221" fill="#96C66A"/><path d="M887.373 333.299l4.072 2.498 1.925-2.498h-5.997z" id="Rectangle-222" fill="#8BB465"/><g id="Ruby"><path d="M880.877 322.306l6.496 6.995-2.656-6.995h-3.84z" id="Path-15" fill="#B63033"/><path d="M893.871 322.306l-6.496 6.995 2.662-6.995h3.835z" id="Path-15" fill="#D74D50"/><path d="M884.375 322.306l2.749 6.995 2.749-6.995h-5.497z" id="Path-16" fill="#C53A3D"/><path id="Triangle-1" fill="#DF7D80" d="M883.553 319.808l1.321 2.498h-3.998z"/><path d="M883.376 319.808h3.998l-2.859 2.498-1.139-2.498z" id="Triangle-1" fill="#C53A3D"/><path d="M887.373 319.808h3.998l-1.189 2.498-2.808-2.498z" id="Triangle-1" fill="#D74D50"/><path id="Triangle-1" fill="#F9A3A5" d="M887.239 319.808l2.633 2.498h-5.497z"/><path id="Triangle-1" fill="#FCBDBF" d="M891.172 319.808l-1.3 2.498h3.998z"/></g></g><g sketch:type="MSShapeGroup"><path id="Rectangle-221" fill="#9AC771" d="M857.396 417.61h.999v13.491h-.999z"/><path d="M857.895 421.426v2.233l4.072 2.445 1.925-2.445-1.634-2.552-4.363.319z" id="Rectangle-221" fill="#96C66A"/><path d="M857.895 423.106l4.072 2.498 1.925-2.498h-5.997z" id="Rectangle-222" fill="#8BB465"/><g id="Ruby"><path d="M851.399 412.113l6.496 6.995-2.656-6.995h-3.84z" id="Path-15" fill="#B63033"/><path d="M864.393 412.113l-6.496 6.995 2.662-6.995h3.835z" id="Path-15" fill="#D74D50"/><path d="M854.897 412.113l2.749 6.995 2.749-6.995h-5.497z" id="Path-16" fill="#C53A3D"/><path id="Triangle-1" fill="#DF7D80" d="M854.075 409.615l1.321 2.498h-3.998z"/><path d="M853.898 409.615h3.998l-2.859 2.498-1.139-2.498z" id="Triangle-1" fill="#C53A3D"/><path d="M857.895 409.615h3.998l-1.189 2.498-2.808-2.498z" id="Triangle-1" fill="#D74D50"/><path id="Triangle-1" fill="#F9A3A5" d="M857.761 409.615l2.633 2.498h-5.497z"/><path id="Triangle-1" fill="#FCBDBF" d="M861.694 409.615l-1.3 2.498h3.998z"/></g></g><g sketch:type="MSShapeGroup"><path id="Rectangle-221" fill="#9AC771" d="M977.33 432.6h.999v13.491h-.999z"/><path d="M977.829 436.416v2.233l4.072 2.445 1.925-2.445-1.634-2.552-4.363.319z" id="Rectangle-221" fill="#96C66A"/><path d="M977.829 438.096l4.072 2.498 1.925-2.498h-5.997z" id="Rectangle-222" fill="#8BB465"/><g id="Ruby"><path d="M971.333 427.103l6.496 6.995-2.656-6.995h-3.84z" id="Path-15" fill="#B63033"/><path d="M984.327 427.103l-6.496 6.995 2.662-6.995h3.835z" id="Path-15" fill="#D74D50"/><path d="M974.831 427.103l2.749 6.995 2.749-6.995h-5.497z" id="Path-16" fill="#C53A3D"/><path id="Triangle-1" fill="#DF7D80" d="M974.009 424.605l1.321 2.498h-3.998z"/><path d="M973.832 424.605h3.998l-2.859 2.498-1.139-2.498z" id="Triangle-1" fill="#C53A3D"/><path d="M977.829 424.605h3.998l-1.189 2.498-2.808-2.498z" id="Triangle-1" fill="#D74D50"/><path id="Triangle-1" fill="#F9A3A5" d="M977.695 424.605l2.633 2.498h-5.497z"/><path id="Triangle-1" fill="#FCBDBF" d="M981.628 424.605l-1.3 2.498h3.998z"/></g></g><g sketch:type="MSShapeGroup"><path id="Rectangle-221" fill="#9AC771" d="M731.866 397.72h.999v13.491h-.999z"/><path d="M732.365 401.536v2.233l4.072 2.445 1.925-2.445-1.634-2.552-4.363.319z" id="Rectangle-221" fill="#96C66A"/><path d="M732.365 403.216l4.072 2.498 1.925-2.498h-5.997z" id="Rectangle-222" fill="#8BB465"/><g id="Ruby"><path d="M725.869 392.223l6.496 6.995-2.656-6.995h-3.84z" id="Path-15" fill="#B63033"/><path d="M738.863 392.223l-6.496 6.995 2.662-6.995h3.835z" id="Path-15" fill="#D74D50"/><path d="M729.367 392.223l2.749 6.995 2.749-6.995h-5.497z" id="Path-16" fill="#C53A3D"/><path id="Triangle-1" fill="#DF7D80" d="M728.545 389.725l1.321 2.498h-3.998z"/><path d="M728.368 389.725h3.998l-2.859 2.498-1.139-2.498z" id="Triangle-1" fill="#C53A3D"/><path d="M732.365 389.725h3.998l-1.189 2.498-2.808-2.498z" id="Triangle-1" fill="#D74D50"/><path id="Triangle-1" fill="#F9A3A5" d="M732.231 389.725l2.633 2.498h-5.497z"/><path id="Triangle-1" fill="#FCBDBF" d="M736.164 389.725l-1.3 2.498h3.998z"/></g></g><g sketch:type="MSShapeGroup"><path id="Rectangle-221" fill="#9AC771" d="M1326.874 337.803h.999v13.491h-.999z"/><path d="M1327.373 341.619v2.233l4.072 2.445 1.925-2.445-1.634-2.552-4.363.319z" id="Rectangle-221" fill="#96C66A"/><path d="M1327.373 343.299l4.072 2.498 1.925-2.498h-5.997z" id="Rectangle-222" fill="#8BB465"/><g id="Ruby"><path d="M1320.877 332.306l6.496 6.995-2.656-6.995h-3.84z" id="Path-15" fill="#B63033"/><path d="M1333.871 332.306l-6.496 6.995 2.662-6.995h3.835z" id="Path-15" fill="#D74D50"/><path d="M1324.375 332.306l2.749 6.995 2.749-6.995h-5.497z" id="Path-16" fill="#C53A3D"/><path id="Triangle-1" fill="#DF7D80" d="M1323.553 329.808l1.321 2.498h-3.998z"/><path d="M1323.376 329.808h3.998l-2.859 2.498-1.139-2.498z" id="Triangle-1" fill="#C53A3D"/><path d="M1327.373 329.808h3.998l-1.189 2.498-2.808-2.498z" id="Triangle-1" fill="#D74D50"/><path id="Triangle-1" fill="#F9A3A5" d="M1327.239 329.808l2.633 2.498h-5.497z"/><path id="Triangle-1" fill="#FCBDBF" d="M1331.172 329.808l-1.3 2.498h3.998z"/></g></g><g sketch:type="MSShapeGroup"><path id="Rectangle-221" fill="#9AC771" d="M1287.396 617.61h.999v13.491h-.999z"/><path d="M1287.895 621.426v2.233l4.072 2.445 1.925-2.445-1.634-2.552-4.363.319z" id="Rectangle-221" fill="#96C66A"/><path d="M1287.895 623.106l4.072 2.498 1.925-2.498h-5.997z" id="Rectangle-222" fill="#8BB465"/><g id="Ruby"><path d="M1281.399 612.113l6.496 6.995-2.656-6.995h-3.84z" id="Path-15" fill="#B63033"/><path d="M1294.393 612.113l-6.496 6.995 2.662-6.995h3.835z" id="Path-15" fill="#D74D50"/><path d="M1284.897 612.113l2.749 6.995 2.749-6.995h-5.497z" id="Path-16" fill="#C53A3D"/><path id="Triangle-1" fill="#DF7D80" d="M1284.075 609.615l1.321 2.498h-3.998z"/><path d="M1283.898 609.615h3.998l-2.859 2.498-1.139-2.498z" id="Triangle-1" fill="#C53A3D"/><path d="M1287.895 609.615h3.998l-1.189 2.498-2.808-2.498z" id="Triangle-1" fill="#D74D50"/><path id="Triangle-1" fill="#F9A3A5" d="M1287.761 609.615l2.633 2.498h-5.497z"/><path id="Triangle-1" fill="#FCBDBF" d="M1291.694 609.615l-1.3 2.498h3.998z"/></g></g><g sketch:type="MSShapeGroup"><path id="Rectangle-221" fill="#9AC771" d="M1407.33 632.6h.999v13.491h-.999z"/><path d="M1407.829 636.416v2.233l4.072 2.445 1.925-2.445-1.634-2.552-4.363.319z" id="Rectangle-221" fill="#96C66A"/><path d="M1407.829 638.096l4.072 2.498 1.925-2.498h-5.997z" id="Rectangle-222" fill="#8BB465"/><g id="Ruby"><path d="M1401.333 627.103l6.496 6.995-2.656-6.995h-3.84z" id="Path-15" fill="#B63033"/><path d="M1414.327 627.103l-6.496 6.995 2.662-6.995h3.835z" id="Path-15" fill="#D74D50"/><path d="M1404.831 627.103l2.749 6.995 2.749-6.995h-5.497z" id="Path-16" fill="#C53A3D"/><path id="Triangle-1" fill="#DF7D80" d="M1404.009 624.605l1.321 2.498h-3.998z"/><path d="M1403.832 624.605h3.998l-2.859 2.498-1.139-2.498z" id="Triangle-1" fill="#C53A3D"/><path d="M1407.829 624.605h3.998l-1.189 2.498-2.808-2.498z" id="Triangle-1" fill="#D74D50"/><path id="Triangle-1" fill="#F9A3A5" d="M1407.695 624.605l2.633 2.498h-5.497z"/><path id="Triangle-1" fill="#FCBDBF" d="M1411.628 624.605l-1.3 2.498h3.998z"/></g></g><g sketch:type="MSShapeGroup"><path id="Rectangle-221" fill="#9AC771" d="M1341.866 457.72h.999v13.491h-.999z"/><path d="M1342.365 461.536v2.233l4.072 2.445 1.925-2.445-1.634-2.552-4.363.319z" fill="#96C66A"/><path d="M1342.365 463.216l4.072 2.498 1.925-2.498h-5.997z" fill="#8BB465"/><g><path d="M1335.869 452.223l6.496 6.995-2.656-6.995h-3.84z" id="Path-15" fill="#B63033"/><path d="M1348.863 452.223l-6.496 6.995 2.662-6.995h3.835z" fill="#D74D50"/><path d="M1339.367 452.223l2.749 6.995 2.749-6.995h-5.497z" fill="#C53A3D"/><path id="Triangle-1" fill="#DF7D80" d="M1338.545 449.725l1.321 2.498h-3.998z"/><path d="M1338.368 449.725h3.998l-2.859 2.498-1.139-2.498z" id="Triangle-1" fill="#C53A3D"/><path d="M1342.365 449.725h3.998l-1.189 2.498-2.808-2.498z" id="Triangle-1" fill="#D74D50"/><path id="Triangle-1" fill="#F9A3A5" d="M1342.231 449.725l2.633 2.498h-5.497z"/><path fill="#FCBDBF" d="M1346.164 449.725l-1.3 2.498h3.998z"/></g></g><g sketch:type="MSShapeGroup"><path d="M248.905 18.987l-2.148 7.995h19.489l-2.148-7.995h-15.194z" id="Rectangle-9" fill="#5EA034"/><path d="M248.914 18.987l-2.157 7.995h10.494l-8.338-7.995z" id="Rectangle-25" fill="#538534"/><path d="M249.016 18.987l-2.259 7.995 5.497-4.881-3.238-3.114z" id="Rectangle-31" fill="#528134"/><path d="M248.756 18.987l8.495.851v7.144l-8.495-7.995z" id="Rectangle-26" fill="#558C33"/><path d="M252.254 21.596l5.497-2.109v6.995l-5.497-4.886z" id="Rectangle-32" fill="#5C923A"/><path d="M264.247 19.487h-6.996v6.995l6.996-6.995z" id="Rectangle-27" fill="#589631"/><path d="M260.749 19.487h-3.498v6.995l3.498-6.995z" id="Rectangle-30" fill="#548E30"/><path d="M250.713 11.492l-2.956 7.995h17.49l-2.956-7.995h-11.578z" id="Rectangle-6" fill="#74AC50"/><path d="M260.749 19.487h4.498l-2.885-7.995-1.613 7.995z" id="Rectangle-29" fill="#77B252"/><path d="M250.704 11.492l-2.948 7.995 14.492-7.995h-11.545z" id="Rectangle-19" fill="#6FA24F"/><path d="M256.966 19.487h-9.21l14.492-7.995-5.282 7.995z" id="Rectangle-24" fill="#70A64E"/><path d="M252.529 5.496l-3.773 7.995h15.492l-3.773-7.995h-7.946z" id="Rectangle-7" fill="#73B34C"/><path d="M253.753 13.491h10.494l-3.862-7.995-6.633 7.995z" id="Rectangle-16" fill="#75B64C"/><path d="M253.753 13.491h10.494l-1.956-3.997-8.538 3.997z" id="Rectangle-28" fill="#75BB4A"/><path d="M253.753 13.491l.962-5.793 5.534-2.202-6.496 7.995z" id="Rectangle-17" fill="#6FB046"/><path d="M249.256 7.495h14.492l-7.246-7.495-7.246 7.495z" id="Rectangle-8" fill="#80C256"/><path d="M249.256 7.495l6.996-3.747v-3.747l-6.996 7.495z" id="Rectangle-10" fill="#79BE4E"/><path d="M263.748 7.495l-6.996-3.682v-3.813l6.996 7.495z" id="Rectangle-11" fill="#88C363"/><path d="M263.248 7.995l-7.005-3.997-1.491 3.997h8.495z" id="Rectangle-15" fill="#84CB57"/><path id="Rectangle-13" fill="#A3856A" d="M253.753 26.482h4.997v6.995h-4.997z"/><path d="M253.753 26.482v2.284l4.997 3.212v-5.496h-4.997z" id="Rectangle-14" fill="#94765B"/></g><g sketch:type="MSShapeGroup"><path d="M759.835 206.358l-3.855 13.99h34.981l-3.855-13.99h-27.272z" id="Rectangle-9" fill="#5EA034"/><path d="M759.883 206.358l-3.903 13.99h18.99l-15.087-13.99z" id="Rectangle-25" fill="#538534"/><path d="M759.883 206.358l-3.903 13.99 9.495-8.541-5.592-5.449z" id="Rectangle-31" fill="#528134"/><path d="M759.978 206.358l14.992 1.489v12.501l-14.992-13.99z" id="Rectangle-26" fill="#558C33"/><path d="M765.475 211.623l9.495-3.766v12.491l-9.495-8.725z" id="Rectangle-32" fill="#5C923A"/><path d="M787.463 207.857h-12.493v12.491l12.493-12.491z" id="Rectangle-27" fill="#589631"/><path d="M781.466 207.857h-6.496v12.491l6.496-12.491z" id="Rectangle-30" fill="#548E30"/><path d="M763.3 193.367l-5.321 13.99h31.483l-5.321-13.99h-20.841z" id="Rectangle-6" fill="#74AC50"/><path d="M780.966 207.357h8.495l-5.449-13.99-3.046 13.99z" id="Rectangle-29" fill="#77B252"/><path d="M763.264 193.367l-5.285 13.99 25.986-13.99h-20.7z" id="Rectangle-19" fill="#6FA24F"/><path d="M774.493 207.357h-16.514l25.986-13.99-9.472 13.99z" id="Rectangle-24" fill="#70A64E"/><path d="M766.171 182.374l-6.693 13.99h27.485l-6.693-13.99h-14.098z" id="Rectangle-7" fill="#73B34C"/><path d="M768.973 196.365h18.49l-6.804-13.99-11.686 13.99z" id="Rectangle-16" fill="#75B64C"/><path d="M768.973 196.365h18.49l-3.447-6.995-15.043 6.995z" id="Rectangle-28" fill="#75BB4A"/><path d="M768.973 196.365l1.703-10.138 9.791-3.853-11.494 13.99z" id="Rectangle-17" fill="#6FB046"/><path d="M760.478 185.872h25.986l-12.993-13.491-12.993 13.491z" id="Rectangle-8" fill="#80C256"/><path d="M760.478 185.872l12.993-6.745v-6.745l-12.993 13.491z" id="Rectangle-10" fill="#79BE4E"/><path d="M785.964 185.872l-12.493-6.627v-6.864l12.493 13.491z" id="Rectangle-11" fill="#88C363"/><path d="M785.964 186.371l-12.773-6.995-2.719 6.995h15.492z" id="Rectangle-15" fill="#84CB57"/><path id="Rectangle-13" fill="#A3856A" d="M768.973 219.848h8.995v12.991h-8.995z"/><path d="M768.973 219.848v3.946l8.995 5.548v-9.493h-8.995z" id="Rectangle-14" fill="#94765B"/></g><g sketch:type="MSShapeGroup"><path d="M536.058 366.248l-4.956 17.988h44.975l-4.956-17.988h-35.064z" id="Rectangle-9" fill="#5EA034"/><path d="M536.134 366.248l-5.032 17.988h24.487l-19.454-17.988z" id="Rectangle-25" fill="#538534"/><path d="M536.032 366.248l-4.93 17.988 11.993-10.982-7.064-7.006z" id="Rectangle-31" fill="#528134"/><path d="M536.099 366.248l19.489 1.914v16.073l-19.489-17.988z" id="Rectangle-26" fill="#558C33"/><path d="M543.095 373.067l11.993-4.821v15.989l-11.993-11.168z" id="Rectangle-32" fill="#5C923A"/><path d="M571.58 368.246h-15.991v15.989l15.991-15.989z" id="Rectangle-27" fill="#589631"/><path d="M564.084 368.246h-8.495v15.989l8.495-15.989z" id="Rectangle-30" fill="#548E30"/><path d="M540.442 349.259l-6.841 17.988h40.478l-6.841-17.988h-26.795z" id="Rectangle-6" fill="#74AC50"/><path d="M563.085 367.247h10.994l-7.052-17.988-3.942 17.988z" id="Rectangle-29" fill="#77B252"/><path d="M540.411 349.259l-6.81 17.988 33.482-17.988h-26.672z" id="Rectangle-19" fill="#6FA24F"/><path d="M554.878 367.247h-21.278l33.482-17.988-12.204 17.988z" id="Rectangle-24" fill="#70A64E"/><path d="M544.24 335.269l-8.64 17.988h35.481l-8.64-17.988h-18.2z" id="Rectangle-7" fill="#73B34C"/><path d="M547.593 353.257h23.987l-8.826-17.988-15.161 17.988z" id="Rectangle-16" fill="#75B64C"/><path d="M547.593 353.257h23.987l-4.472-8.994-19.515 8.994z" id="Rectangle-28" fill="#75BB4A"/><path d="M547.593 353.257l2.221-13.034 12.771-4.954-14.992 17.988z" id="Rectangle-17" fill="#6FB046"/><path d="M537.099 339.766h33.482l-16.741-17.488-16.741 17.488z" id="Rectangle-8" fill="#80C256"/><path d="M537.099 339.766l16.491-8.744v-8.744l-16.491 17.488z" id="Rectangle-10" fill="#79BE4E"/><path d="M569.581 339.766l-15.991-8.591v-8.897l15.991 17.488z" id="Rectangle-11" fill="#88C363"/><path d="M569.581 340.266l-16.481-8.994-3.508 8.994h19.989z" id="Rectangle-15" fill="#84CB57"/><path id="Rectangle-13" fill="#A3856A" d="M547.593 383.236h11.494v16.988h-11.494z"/><path d="M547.593 383.236v4.984l11.494 7.008v-11.992h-11.494z" id="Rectangle-14" fill="#94765B"/></g><g sketch:type="MSShapeGroup"><path d="M1601.383 258.822l-2.863 10.493h25.986l-2.863-10.493h-20.259z" id="Rectangle-9" fill="#5EA034"/><path d="M1601.396 258.822l-2.876 10.493h13.992l-11.117-10.493z" id="Rectangle-25" fill="#538534"/><path d="M1601.396 258.822l-2.876 10.493 6.996-6.406-4.121-4.087z" id="Rectangle-31" fill="#528134"/><path d="M1601.518 258.822l10.994 1.117v9.376l-10.994-10.493z" id="Rectangle-26" fill="#558C33"/><path d="M1605.516 262.684l6.996-2.862v9.493l-6.996-6.631z" id="Rectangle-32" fill="#5C923A"/><path d="M1622.007 259.822h-9.495v9.493l9.495-9.493z" id="Rectangle-27" fill="#589631"/><path d="M1617.51 259.822h-4.997v9.493l4.997-9.493z" id="Rectangle-30" fill="#548E30"/><path d="M1603.989 248.829l-3.97 10.493h23.487l-3.97-10.493h-15.548z" id="Rectangle-6" fill="#74AC50"/><path d="M1617.01 259.322h6.496l-4.167-10.493-2.33 10.493z" id="Rectangle-29" fill="#77B252"/><path d="M1603.983 248.829l-3.964 10.493 19.489-10.493h-15.525z" id="Rectangle-19" fill="#6FA24F"/><path d="M1612.405 259.322h-12.386l19.489-10.493-7.104 10.493z" id="Rectangle-24" fill="#70A64E"/><path d="M1606.008 240.835l-4.99 10.493h20.489l-4.99-10.493h-10.51z" id="Rectangle-7" fill="#73B34C"/><path d="M1608.015 251.328h13.493l-4.965-10.493-8.528 10.493z" id="Rectangle-16" fill="#75B64C"/><path d="M1608.015 250.828h13.493l-2.515-4.997-10.977 4.997z" id="Rectangle-28" fill="#75BB4A"/><path d="M1608.015 251.328l1.258-7.603 7.237-2.89-8.495 10.493z" id="Rectangle-17" fill="#6FB046"/><path d="M1602.018 243.333h19.489l-9.745-9.993-9.745 9.993z" id="Rectangle-8" fill="#80C256"/><path d="M1602.018 243.333l9.495-4.997v-4.997l-9.495 9.993z" id="Rectangle-10" fill="#79BE4E"/><path d="M1621.008 243.333l-9.495-4.909v-5.084l9.495 9.993z" id="Rectangle-11" fill="#88C363"/><path d="M1621.008 243.333l-9.477-4.997-2.017 4.997h11.494z" id="Rectangle-15" fill="#84CB57"/><path id="Rectangle-13" fill="#A3856A" d="M1608.015 268.816h6.496v9.493h-6.496z"/><path d="M1608.015 268.816v2.907l6.496 4.088v-6.995h-6.496z" id="Rectangle-14" fill="#94765B"/></g><g sketch:type="MSShapeGroup"><path d="M1784.276 361.252l-3.855 13.99h34.981l-3.855-13.99h-27.272z" id="Rectangle-9" fill="#5EA034"/><path d="M1784.324 361.252l-3.903 13.99h18.99l-15.087-13.99z" id="Rectangle-25" fill="#538534"/><path d="M1784.324 361.252l-3.903 13.99 9.495-8.541-5.592-5.449z" id="Rectangle-31" fill="#528134"/><path d="M1784.419 361.252l14.992 1.489v12.501l-14.992-13.99z" id="Rectangle-26" fill="#558C33"/><path d="M1789.916 366.517l9.495-3.766v12.491l-9.495-8.725z" id="Rectangle-32" fill="#5C923A"/><path d="M1811.904 362.751h-12.493v12.491l12.493-12.491z" id="Rectangle-27" fill="#589631"/><path d="M1805.907 362.751h-6.496v12.491l6.496-12.491z" id="Rectangle-30" fill="#548E30"/><path d="M1787.741 348.261l-5.321 13.99h31.483l-5.321-13.99h-20.841z" id="Rectangle-6" fill="#74AC50"/><path d="M1805.407 362.251h8.495l-5.449-13.99-3.046 13.99z" id="Rectangle-29" fill="#77B252"/><path d="M1787.705 348.261l-5.285 13.99 25.986-13.99h-20.7z" id="Rectangle-19" fill="#6FA24F"/><path d="M1798.934 362.251h-16.514l25.986-13.99-9.472 13.99z" id="Rectangle-24" fill="#70A64E"/><path d="M1790.612 337.268l-6.693 13.99h27.485l-6.693-13.99h-14.098z" id="Rectangle-7" fill="#73B34C"/><path d="M1793.414 351.259h18.49l-6.804-13.99-11.686 13.99z" id="Rectangle-16" fill="#75B64C"/><path d="M1793.414 351.259h18.49l-3.447-6.995-15.043 6.995z" id="Rectangle-28" fill="#75BB4A"/><path d="M1793.414 351.259l1.703-10.138 9.791-3.853-11.494 13.99z" id="Rectangle-17" fill="#6FB046"/><path d="M1784.919 340.766h25.986l-12.993-13.491-12.993 13.491z" id="Rectangle-8" fill="#80C256"/><path d="M1784.919 340.766l12.993-6.745v-6.745l-12.993 13.491z" id="Rectangle-10" fill="#79BE4E"/><path d="M1810.405 340.766l-12.493-6.627v-6.864l12.493 13.491z" id="Rectangle-11" fill="#88C363"/><path d="M1810.405 341.265l-12.773-6.995-2.719 6.995h15.492z" id="Rectangle-15" fill="#84CB57"/><path id="Rectangle-13" fill="#A3856A" d="M1793.414 374.742h8.995v12.991h-8.995z"/><path d="M1793.414 374.742v3.946l8.995 5.548v-9.493h-8.995z" id="Rectangle-14" fill="#94765B"/></g><g sketch:type="MSShapeGroup"><path d="M1757.193 192.367l-2.258 7.995h20.489l-2.258-7.995h-15.973z" id="Rectangle-9" fill="#5EA034"/><path d="M1757.194 192.367l-2.259 7.995h10.994l-8.735-7.995z" id="Rectangle-25" fill="#538534"/><path d="M1757.194 192.367l-2.259 7.995 5.497-4.881-3.238-3.114z" id="Rectangle-31" fill="#528134"/><path d="M1757.434 192.367l8.995.851v7.144l-8.995-7.995z" id="Rectangle-26" fill="#558C33"/><path d="M1760.432 195.626l5.497-2.26v7.495l-5.497-5.235z" id="Rectangle-32" fill="#5C923A"/><path d="M1773.425 193.367h-7.496v7.495l7.496-7.495z" id="Rectangle-27" fill="#589631"/><path d="M1769.927 193.367h-3.998v7.495l3.998-7.495z" id="Rectangle-30" fill="#548E30"/><path d="M1759.06 184.872l-3.125 7.995h18.49l-3.125-7.995h-12.24z" id="Rectangle-6" fill="#74AC50"/><path d="M1769.427 192.867h4.997l-3.205-7.995-1.792 7.995z" id="Rectangle-29" fill="#77B252"/><path d="M1758.984 184.872l-3.049 7.995 14.992-7.995h-11.943z" id="Rectangle-19" fill="#6FA24F"/><path d="M1765.462 192.867h-9.527l14.992-7.995-5.465 7.995z" id="Rectangle-24" fill="#70A64E"/><path d="M1760.828 178.377l-3.894 7.995h15.991l-3.894-7.995h-8.203z" id="Rectangle-7" fill="#73B34C"/><path d="M1762.431 186.371h10.994l-4.045-7.995-6.949 7.995z" id="Rectangle-16" fill="#75B64C"/><path d="M1762.431 186.371h10.994l-2.05-3.997-8.944 3.997z" id="Rectangle-28" fill="#75BB4A"/><path d="M1762.431 186.371l.962-5.793 5.534-2.202-6.496 7.995z" id="Rectangle-17" fill="#6FB046"/><path d="M1757.434 180.376h14.992l-7.496-7.995-7.496 7.995z" id="Rectangle-8" fill="#80C256"/><path d="M1757.434 180.376l7.496-3.997v-3.997l-7.496 7.995z" id="Rectangle-10" fill="#79BE4E"/><path d="M1772.925 180.376l-7.496-3.927v-4.067l7.496 7.995z" id="Rectangle-11" fill="#88C363"/><path d="M1772.425 180.376l-7.417-3.997-1.579 3.997h8.995z" id="Rectangle-15" fill="#84CB57"/><path id="Rectangle-13" fill="#A3856A" d="M1762.431 200.362h5.497v7.495h-5.497z"/><path d="M1762.431 200.362v2.284l5.497 3.212v-5.496h-5.497z" id="Rectangle-14" fill="#94765B"/></g><g sketch:type="MSShapeGroup"><path d="M1882.324 515.645l-4.956 17.988h44.975l-4.956-17.988h-35.064z" id="Rectangle-9" fill="#5EA034"/><path d="M1882.298 515.645l-4.93 17.988h23.987l-19.057-17.988z" id="Rectangle-25" fill="#538534"/><path d="M1882.298 515.645l-4.93 17.988 11.993-10.982-7.064-7.006z" id="Rectangle-31" fill="#528134"/><path d="M1882.365 515.645l18.99 1.914v16.073l-18.99-17.988z" id="Rectangle-26" fill="#558C33"/><path d="M1889.361 522.464l11.993-4.821v15.989l-11.993-11.168z" id="Rectangle-32" fill="#5C923A"/><path d="M1917.346 517.644h-15.991v15.989l15.991-15.989z" id="Rectangle-27" fill="#589631"/><path d="M1909.351 517.644h-7.996v15.989l7.996-15.989z" id="Rectangle-30" fill="#548E30"/><path d="M1886.708 499.156l-6.841 17.988h40.478l-6.841-17.988h-26.795z" id="Rectangle-6" fill="#74AC50"/><path d="M1909.85 517.144h10.994l-7.052-17.988-3.942 17.988z" id="Rectangle-29" fill="#77B252"/><path d="M1886.677 499.156l-6.81 17.988 33.482-17.988h-26.672z" id="Rectangle-19" fill="#6FA24F"/><path d="M1901.144 517.144h-21.278l33.482-17.988-12.204 17.988z" id="Rectangle-24" fill="#70A64E"/><path d="M1890.384 484.666l-8.519 17.988h34.981l-8.519-17.988h-17.943z" id="Rectangle-7" fill="#73B34C"/><path d="M1893.859 502.654h23.487l-8.642-17.988-14.845 17.988z" id="Rectangle-16" fill="#75B64C"/><path d="M1893.859 503.653h23.487l-4.379-9.493-19.108 9.493z" id="Rectangle-28" fill="#75BB4A"/><path d="M1893.859 502.654l2.221-13.034 12.771-4.954-14.992 17.988z" id="Rectangle-17" fill="#6FB046"/><path d="M1883.365 489.663h33.482l-16.741-17.488-16.741 17.488z" id="Rectangle-8" fill="#80C256"/><path d="M1883.365 489.663l16.491-8.744v-8.744l-16.491 17.488z" id="Rectangle-10" fill="#79BE4E"/><path d="M1915.847 489.663l-15.991-8.591v-8.897l15.991 17.488z" id="Rectangle-11" fill="#88C363"/><path d="M1915.847 491.162l-16.481-9.493-3.508 9.493h19.989z" id="Rectangle-15" fill="#84CB57"/><path id="Rectangle-13" fill="#A3856A" d="M1893.859 532.633h11.494v16.988h-11.494z"/><path d="M1893.859 532.633v4.984l11.494 7.008v-11.992h-11.494z" id="Rectangle-14" fill="#94765B"/></g><g sketch:type="MSShapeGroup"><path d="M1472.221 401.724l-4.13 14.99h37.48l-4.13-14.99h-29.22z" id="Rectangle-9" fill="#5EA034"/><path d="M1472.302 401.724l-4.211 14.99h20.489l-16.278-14.99z" id="Rectangle-25" fill="#538534"/><path d="M1472.199 401.724l-4.108 14.99 9.995-9.152-5.887-5.838z" id="Rectangle-31" fill="#528134"/><path d="M1472.089 401.724l16.491 1.595v13.394l-16.491-14.99z" id="Rectangle-26" fill="#558C33"/><path d="M1478.086 407.79l9.995-4.067v13.491l-9.995-9.423z" id="Rectangle-32" fill="#5C923A"/><path d="M1502.072 403.723h-13.493v13.491l13.493-13.491z" id="Rectangle-27" fill="#589631"/><path d="M1495.576 403.723h-6.996v13.491l6.996-13.491z" id="Rectangle-30" fill="#548E30"/><path d="M1475.833 387.734l-5.743 14.99h33.981l-5.743-14.99h-22.495z" id="Rectangle-6" fill="#74AC50"/><path d="M1494.577 402.723h8.995l-5.769-14.99-3.226 14.99z" id="Rectangle-29" fill="#77B252"/><path d="M1475.782 387.734l-5.692 14.99 27.985-14.99h-22.293z" id="Rectangle-19" fill="#6FA24F"/><path d="M1487.874 402.723h-17.784l27.985-14.99-10.2 14.99z" id="Rectangle-24" fill="#70A64E"/><path d="M1479.269 376.241l-7.18 14.99h29.484l-7.18-14.99h-15.124z" id="Rectangle-7" fill="#73B34C"/><path d="M1481.584 391.231h19.989l-7.355-14.99-12.634 14.99z" id="Rectangle-16" fill="#75B64C"/><path d="M1481.584 391.231h19.989l-3.727-7.495-16.262 7.495z" id="Rectangle-28" fill="#75BB4A"/><path d="M1481.584 391.231l1.851-10.862 10.642-4.128-12.493 14.99z" id="Rectangle-17" fill="#6FB046"/><path d="M1473.088 379.739h27.985l-13.992-14.49-13.992 14.49z" id="Rectangle-8" fill="#80C256"/><path d="M1473.088 379.739l13.493-7.245v-7.245l-13.493 14.49z" id="Rectangle-10" fill="#79BE4E"/><path d="M1500.573 379.739l-13.493-7.118v-7.372l13.493 14.49z" id="Rectangle-11" fill="#88C363"/><path d="M1500.074 380.239l-13.597-7.495-2.894 7.495h16.491z" id="Rectangle-15" fill="#84CB57"/><path id="Rectangle-13" fill="#A3856A" d="M1481.584 416.214h9.495v13.99h-9.495z"/><path d="M1481.584 416.214v4.153l9.495 5.84v-9.993h-9.495z" id="Rectangle-14" fill="#94765B"/></g><g sketch:type="MSShapeGroup"><path d="M962.221 361.724l-4.13 14.99h37.48l-4.13-14.99h-29.22z" id="Rectangle-9" fill="#5EA034"/><path d="M962.302 361.724l-4.211 14.99h20.489l-16.278-14.99z" id="Rectangle-25" fill="#538534"/><path d="M962.199 361.724l-4.108 14.99 9.995-9.152-5.887-5.838z" id="Rectangle-31" fill="#528134"/><path d="M962.089 361.724l16.491 1.595v13.394l-16.491-14.99z" id="Rectangle-26" fill="#558C33"/><path d="M968.086 367.79l9.995-4.067v13.491l-9.995-9.423z" id="Rectangle-32" fill="#5C923A"/><path d="M992.072 363.723h-13.493v13.491l13.493-13.491z" id="Rectangle-27" fill="#589631"/><path d="M985.576 363.723h-6.996v13.491l6.996-13.491z" id="Rectangle-30" fill="#548E30"/><path d="M965.833 347.734l-5.743 14.99h33.981l-5.743-14.99h-22.495z" id="Rectangle-6" fill="#74AC50"/><path d="M984.577 362.723h8.995l-5.769-14.99-3.226 14.99z" id="Rectangle-29" fill="#77B252"/><path d="M965.782 347.734l-5.692 14.99 27.985-14.99h-22.293z" id="Rectangle-19" fill="#6FA24F"/><path d="M977.874 362.723h-17.784l27.985-14.99-10.2 14.99z" id="Rectangle-24" fill="#70A64E"/><path d="M969.269 336.241l-7.18 14.99h29.484l-7.18-14.99h-15.124z" id="Rectangle-7" fill="#73B34C"/><path d="M971.584 351.231h19.989l-7.355-14.99-12.634 14.99z" id="Rectangle-16" fill="#75B64C"/><path d="M971.584 351.231h19.989l-3.727-7.495-16.262 7.495z" id="Rectangle-28" fill="#75BB4A"/><path d="M971.584 351.231l1.851-10.862 10.642-4.128-12.493 14.99z" id="Rectangle-17" fill="#6FB046"/><path d="M963.088 339.739h27.985l-13.992-14.49-13.992 14.49z" id="Rectangle-8" fill="#80C256"/><path d="M963.088 339.739l13.493-7.245v-7.245l-13.493 14.49z" id="Rectangle-10" fill="#79BE4E"/><path d="M990.573 339.739l-13.493-7.118v-7.372l13.493 14.49z" id="Rectangle-11" fill="#88C363"/><path d="M990.074 340.239l-13.597-7.495-2.894 7.495h16.491z" id="Rectangle-15" fill="#84CB57"/><path id="Rectangle-13" fill="#A3856A" d="M971.584 376.214h9.495v13.99h-9.495z"/><path d="M971.584 376.214v4.153l9.495 5.84v-9.993h-9.495z" id="Rectangle-14" fill="#94765B"/></g><g sketch:type="MSShapeGroup"><path d="M82.221 271.724l-4.13 14.99h37.48l-4.13-14.99h-29.22z" id="Rectangle-9" fill="#5EA034"/><path d="M82.302 271.724l-4.211 14.99h20.489l-16.278-14.99z" id="Rectangle-25" fill="#538534"/><path d="M82.199 271.724l-4.108 14.99 9.995-9.152-5.887-5.838z" id="Rectangle-31" fill="#528134"/><path d="M82.089 271.724l16.491 1.595v13.394l-16.491-14.99z" id="Rectangle-26" fill="#558C33"/><path d="M88.086 277.79l9.995-4.067v13.491l-9.995-9.423z" id="Rectangle-32" fill="#5C923A"/><path d="M112.072 273.723h-13.493v13.491l13.493-13.491z" id="Rectangle-27" fill="#589631"/><path d="M105.576 273.723h-6.996v13.491l6.996-13.491z" id="Rectangle-30" fill="#548E30"/><path d="M85.833 257.734l-5.743 14.99h33.981l-5.743-14.99h-22.495z" id="Rectangle-6" fill="#74AC50"/><path d="M104.577 272.723h8.995l-5.769-14.99-3.226 14.99z" id="Rectangle-29" fill="#77B252"/><path d="M85.782 257.734l-5.692 14.99 27.985-14.99h-22.293z" id="Rectangle-19" fill="#6FA24F"/><path d="M97.874 272.723h-17.784l27.985-14.99-10.2 14.99z" id="Rectangle-24" fill="#70A64E"/><path d="M89.269 246.241l-7.18 14.99h29.484l-7.18-14.99h-15.124z" id="Rectangle-7" fill="#73B34C"/><path d="M91.584 261.231h19.989l-7.355-14.99-12.634 14.99z" id="Rectangle-16" fill="#75B64C"/><path d="M91.584 261.231h19.989l-3.727-7.495-16.262 7.495z" id="Rectangle-28" fill="#75BB4A"/><path d="M91.584 261.231l1.851-10.862 10.642-4.128-12.493 14.99z" id="Rectangle-17" fill="#6FB046"/><path d="M83.088 249.739h27.985l-13.992-14.49-13.992 14.49z" id="Rectangle-8" fill="#80C256"/><path d="M83.088 249.739l13.493-7.245v-7.245l-13.493 14.49z" id="Rectangle-10" fill="#79BE4E"/><path d="M110.573 249.739l-13.493-7.118v-7.372l13.493 14.49z" id="Rectangle-11" fill="#88C363"/><path d="M110.074 250.239l-13.597-7.495-2.894 7.495h16.491z" id="Rectangle-15" fill="#84CB57"/><path id="Rectangle-13" fill="#A3856A" d="M91.584 286.214h9.495v13.99h-9.495z"/><path d="M91.584 286.214v4.153l9.495 5.84v-9.993h-9.495z" id="Rectangle-14" fill="#94765B"/></g><g sketch:type="MSShapeGroup"><path d="M355.055 221.348l-3.855 13.99h34.981l-3.855-13.99h-27.272z" fill="#5EA034"/><path d="M355.103 221.348l-3.903 13.99h18.99l-15.087-13.99z" fill="#538534"/><path d="M355.103 221.348l-3.903 13.99 9.495-8.541-5.592-5.449z" fill="#528134"/><path d="M355.198 221.348l14.992 1.489v12.501l-14.992-13.99z" fill="#558C33"/><path d="M360.695 226.613l9.495-3.766v12.491l-9.495-8.725z" fill="#5C923A"/><path d="M382.683 222.847h-12.493v12.491l12.493-12.491z" fill="#589631"/><path d="M376.686 222.847h-6.496v12.491l6.496-12.491z" fill="#548E30"/><path d="M358.52 208.357l-5.321 13.99h31.483l-5.321-13.99h-20.841z" fill="#74AC50"/><path d="M376.186 222.347h8.495l-5.449-13.99-3.046 13.99z" fill="#77B252"/><path d="M358.484 208.357l-5.285 13.99 25.986-13.99h-20.7z" fill="#6FA24F"/><path d="M369.713 222.347h-16.514l25.986-13.99-9.472 13.99z" fill="#70A64E"/><path d="M361.391 197.364l-6.693 13.99h27.485l-6.693-13.99h-14.098z" fill="#73B34C"/><path d="M364.193 211.355h18.49l-6.804-13.99-11.686 13.99z" fill="#75B64C"/><path d="M364.193 211.355h18.49l-3.447-6.995-15.043 6.995z" fill="#75BB4A"/><path d="M364.193 211.355l1.703-10.138 9.791-3.853-11.494 13.99z" fill="#6FB046"/><path d="M355.698 200.862h25.986l-12.993-13.491-12.993 13.491z" fill="#80C256"/><path d="M355.698 200.862l12.993-6.745v-6.745l-12.993 13.491z" fill="#79BE4E"/><path d="M381.184 200.862l-12.493-6.627v-6.864l12.493 13.491z" fill="#88C363"/><path d="M381.184 201.361l-12.773-6.995-2.719 6.995h15.492z" fill="#84CB57"/><path fill="#A3856A" d="M364.193 234.838h8.995v12.991h-8.995z"/><path d="M364.193 234.838v3.946l8.995 5.548v-9.493h-8.995z" fill="#94765B"/></g></g></svg>