<?xml version="1.0" encoding="UTF-8" standalone="no"?>
<svg width="2158px" height="555px" viewBox="0 0 2158 555" version="1.1" xmlns="http://www.w3.org/2000/svg" xmlns:xlink="http://www.w3.org/1999/xlink" xmlns:sketch="http://www.bohemiancoding.com/sketch/ns">
    <!-- Generator: Sketch 3.0.1 (7597) - http://www.bohemiancoding.com/sketch -->
    <title>Mountains</title>
    <description>Created with Sketch.</description>
    <defs></defs>
    <g id="Page-1" stroke="none" stroke-width="1" fill="none" fill-rule="evenodd" sketch:type="MSPage">
        <g id="Artboard-1" sketch:type="MSArtboardGroup" transform="translate(0.000000, -1521.000000)">
            <g id="Mountains" sketch:type="MSLayerGroup" transform="translate(-592.000000, 1349.000000)">
                <g id="Mountain-left" transform="translate(0.000000, 20.985567)" sketch:type="MSShapeGroup">
                    <path d="M354.806469,705.514777 L469.850672,393.106537 L451.911591,0 L760.585135,353.857781 L354.806469,705.514777 Z" id="Rectangle-142" fill="#B0C998"></path>
                    <path d="M354.806469,705.514777 L606.922857,374.299674 L760.585135,353.756701 L354.806469,705.514777 Z" id="Rectangle-214" fill="#ACC694"></path>
                    <path d="M647.443573,452.189003 L607.168817,374.277003 L760.585135,353.756701 L647.443573,452.189003 Z" id="Rectangle-244" fill="#B7D39E"></path>
                    <path d="M469.701853,393.229553 L451.753589,0 L760.585135,353.968514 L469.701853,393.229553 Z" id="Rectangle-168" fill="#B1CC97"></path>
                    <path d="M605.904421,376.241237 L556.696347,255.324399 L760.585135,353.822756 L605.904421,376.241237 Z" id="Rectangle-233" fill="#A7C38D"></path>
                    <path d="M507.410146,134.887154 L451.753589,0 L665.636925,244.831615 L507.410146,134.887154 Z" id="Rectangle-211" fill="#BBD4A3"></path>
                    <path d="M469.701853,393.229553 L451.753589,0 L606.169362,376.171546 L469.701853,393.229553 Z" id="Rectangle-169" fill="#A2C086"></path>
                    <path d="M469.743776,393.229553 L486.318671,278.808247 L606.169362,376.166687 L469.743776,393.229553 Z" id="Rectangle-232" fill="#92B373"></path>
                    <path d="M469.932184,393.289189 L429.765582,503.153952 L606.169362,376.241237 L469.932184,393.289189 Z" id="Rectangle-230" fill="#A9C58F"></path>
                    <path d="M354.806469,705.514777 L861.713654,705.514777 L1023.94149,158.890722 L760.062339,353.55063 L354.806469,705.514777 Z" id="Rectangle-143" fill="#8BA96F"></path>
                    <path d="M703.616209,518.632562 L884.152311,627.568385 L926.994367,489.736165 L759.917349,353.756701 L703.616209,518.632562 Z" id="Rectangle-242" fill="#8DAA73"></path>
                    <path d="M354.806469,705.514777 L861.530075,705.514777 L647.724112,451.189691 L354.806469,705.514777 Z" id="Rectangle-215" fill="#809E64"></path>
                    <path d="M354.806469,705.514777 L861.530075,705.514777 L515.149169,566.110653 L354.806469,705.514777 Z" id="Rectangle-322" fill="#7A9A5C"></path>
                    <path d="M608.168272,705.514777 L861.530075,705.514775 L704.124074,518.143643 L608.168272,705.514777 Z" id="Rectangle-216" fill="#84A367"></path>
                    <path d="M925.121225,487.664605 L1023.94149,158.890722 L760.085408,353.694031 L925.121225,487.664605 Z" id="Rectangle-167" fill="#96B579"></path>
                    <path d="M925.266368,487.664605 L971.470107,334.270103 L864.028712,343.177889 L925.266368,487.664605 Z" id="Rectangle-243" fill="#9CBA80"></path>
                    <path d="M970.721709,334.769759 L1023.94149,158.890722 L916.000363,238.332679 L970.721709,334.769759 Z" id="Rectangle-212" fill="#93AE7A"></path>
                    <path d="M970.97038,334.865531 L763.5835,349.259794 L916.280009,238.336082 L970.97038,334.865531 Z" id="Rectangle-213" fill="#8EA976"></path>
                    <path d="M1322.54686,451.282836 L1534.66291,705.514777 L861.530075,705.514777 L1023.86598,158.890722 L1322.54686,451.282836 Z" id="Rectangle-144" fill="#AFC898"></path>
                    <path d="M1057.92295,261.233189 L970.470652,336.268729 L1023.8134,158.890722 L1057.92295,261.233189 Z" id="Rectangle-217" fill="#B6D09D"></path>
                    <path d="M1058.0341,261.360584 L1166.86353,299.294158 L1023.94149,158.890722 L1058.0341,261.360584 Z" id="Rectangle-218" fill="#BBD4A3"></path>
                    <path d="M1057.92295,261.320275 L1166.86214,299.285381 L1294.29402,424.208247 L1057.92295,261.320275 Z" id="Rectangle-219" fill="#C2DDAA"></path>
                    <path d="M1057.84878,261.320275 L970.470652,335.79044 L1294.29402,424.208247 L1057.84878,261.320275 Z" id="Rectangle-220" fill="#BAD5A2"></path>
                    <path d="M925.994912,487.164948 L970.809675,335.769072 L1294.79375,424.108557 L925.994912,487.164948 Z" id="Rectangle-227" fill="#B3D099"></path>
                    <path d="M925.994912,486.6784 L1380.24714,520.641924 L1328.06435,450.678937 L1294.72544,423.708591 L925.994912,486.6784 Z" id="Rectangle-236" fill="#ABC991"></path>
                    <path d="M925.994912,487.164948 L1380.24798,521.093175 L1451.20843,605.083849 L925.994912,487.164948 Z" id="Rectangle-237" fill="#A5C38B"></path>
                    <path d="M925.688122,487.164948 L884.517536,627.068729 L1450.7087,605.420186 L925.688122,487.164948 Z" id="Rectangle-238" fill="#9EBE81"></path>
                    <path d="M861.530075,706.014433 L884.729923,626.652524 L1228.33,613.578007 L861.530075,706.014433 Z" id="Rectangle-239" fill="#98B97A"></path>
                    <path d="M861.530075,706.014433 L1534.66291,705.14644 L1228.42767,613.578007 L861.530075,706.014433 Z" id="Rectangle-240" fill="#91B473"></path>
                    <path d="M1451.44128,605.083849 L1534.66291,705.01512 L1228.33,613.533411 L1451.44128,605.083849 Z" id="Rectangle-241" fill="#8FAF72"></path>
                </g>
                <g id="Mountain-right" transform="translate(859.531165, 173.880412)" sketch:type="MSShapeGroup">
                    <path d="M1890.46884,552.619931 L1601.98124,135.71431 L1394.06102,211.235393 L1055.92404,0 L1534.7959,552.619931 L1890.46884,552.619931 Z" id="Rectangle-140" fill="#C5E4A9"></path>
                    <path d="M1152.63006,70.7447975 L1055.92404,0 L1157.36871,116.419931 L1152.63006,70.7447975 Z" id="Rectangle-315" fill="#D3F0B9"></path>
                    <path d="M1152.37143,70.9512027 L1211.33927,96.536935 L1157.09948,116.919588 L1152.37143,70.9512027 Z" id="Rectangle-317" fill="#CDEEAF"></path>
                    <path d="M1289.29675,145.899656 L1211.59547,96.433677 L1157.36871,116.77254 L1289.29675,145.899656 Z" id="Rectangle-318" fill="#C7EAA7"></path>
                    <path d="M1289.29675,145.482076 L1255.73997,227.343643 L1157.36871,116.419931 L1289.29675,145.482076 Z" id="Rectangle-319" fill="#BCE496"></path>
                    <path d="M1288.83607,145.4 L1255.31528,227.343643 L1378.74796,202.370268 L1288.83607,145.4 Z" id="Rectangle-320" fill="#BFE997"></path>
                    <path d="M1344.93669,331.272165 L1255.31528,227.315062 L1378.74796,202.360825 L1344.93669,331.272165 Z" id="Rectangle-321" fill="#B7E48D"></path>
                    <path d="M1214.83736,98.9319588 L1055.92404,0 L1151.67,70.7260255 L1214.83736,98.9319588 Z" id="Rectangle-316" fill="#DEF5C8"></path>
                    <path d="M527.317382,552.619931 L652.644012,65.4549828 L443.895233,286.762269 L0,552.619931 L527.317382,552.619931 Z" id="Rectangle-145" fill="#B7D898"></path>
                    <path d="M490.732328,435.700344 L443.710756,286.802749 L383.290932,323.59136 L490.732328,435.700344 Z" id="Rectangle-253" fill="#AFD28F"></path>
                    <path d="M490.732328,435.283846 L376.794476,460.683162 L383.381922,323.277663 L490.732328,435.283846 Z" id="Rectangle-254" fill="#ACCD8D"></path>
                    <path d="M222.87843,497.158076 L376.701899,460.762505 L383.290932,323.277663 L222.87843,497.158076 Z" id="Rectangle-255" fill="#AFD38E"></path>
                    <path d="M527.712157,552.619931 L489.850177,432.702405 L0,552.619931 L527.712157,552.619931 Z" id="Rectangle-249" fill="#B0D093"></path>
                    <path d="M527.712157,552.619928 L489.831782,432.702405 L377.323523,460.621833 L308.331819,552.619931 L527.712157,552.619928 Z" id="Rectangle-256" fill="#A7C988"></path>
                    <path d="M222.378703,500.421283 L378.293658,460.683162 L308.725232,552.619931 L222.378703,500.421283 Z" id="Rectangle-257" fill="#A1C580"></path>
                    <path d="M528.211884,552.619928 L490.315933,432.702405 L309.331274,552.619931 L528.211884,552.619928 Z" id="Rectangle-250" fill="#ACCD8E"></path>
                    <path d="M527.234962,552.619931 L652.644012,65.4549828 L443.75795,286.762269 L527.234962,552.619931 Z" id="Rectangle-245" fill="#BFE29F"></path>
                    <path d="M566.746686,398.226117 L582.682173,336.060383 L443.75795,286.802749 L566.746686,398.226117 Z" id="Rectangle-252" fill="#AACF87"></path>
                    <path d="M527.217576,552.619931 L567.690351,396.227491 L489.233146,432.564877 L527.217576,552.619931 Z" id="Rectangle-251" fill="#B9DE97"></path>
                    <path d="M602.134441,193.609047 L608.744557,151.138297 L652.644012,65.4549828 L443.75795,286.802749 L602.134441,193.609047 Z" id="Rectangle-246" fill="#B2D78F"></path>
                    <path d="M607.771451,152.681947 L652.644012,65.4549828 L582.682173,336.268729 L607.771451,152.681947 Z" id="Rectangle-247" fill="#BFE69B"></path>
                    <path d="M607.668544,152.808833 L652.644012,65.4549828 L627.332841,162.887973 L607.668544,152.808833 Z" id="Rectangle-300" fill="#BCE299"></path>
                    <path d="M608.168272,152.395189 L443.75795,287.464958 L582.940061,336.268729 L608.168272,152.395189 Z" id="Rectangle-248" fill="#B4DC8F"></path>
                    <path d="M527.21243,552.619931 L652.606679,65.4549828 L862.701985,153.226891 L1103.39815,552.619931 L527.21243,552.619931 Z" id="Rectangle-146" fill="#C7E4AB"></path>
                    <path d="M527.21243,552.619931 L652.542221,65.4549828 L862.529529,153.226891 L527.21243,552.619931 Z" id="Rectangle-258" fill="#C4E7A3"></path>
                    <path d="M527.21243,552.619931 L627.876934,160.889347 L684.12684,368.189307 L527.21243,552.619931 Z" id="Rectangle-299" fill="#B7DF92"></path>
                    <path d="M527.21243,552.619931 L720.658126,552.619931 L764.582955,269.314777 L527.21243,552.619931 Z" id="Rectangle-265" fill="#BEE19D"></path>
                    <path d="M527.21243,552.619931 L720.606942,552.619931 L683.578102,366.747766 L527.21243,552.619931 Z" id="Rectangle-301" fill="#B3DA8F"></path>
                    <path d="M881.019444,328.277933 L720.606942,552.619931 L764.571951,269.314777 L881.019444,328.277933 Z" id="Rectangle-266" fill="#B6DC92"></path>
                    <path d="M880.970439,328.274227 L821.052153,410.717526 L1007.45048,393.397832 L880.970439,328.274227 Z" id="Rectangle-267" fill="#B0D88B"></path>
                    <path d="M1103.89787,553.119588 L821.052153,411.114586 L1007.2297,393.72921 L1103.89787,553.119588 Z" id="Rectangle-268" fill="#AAD484"></path>
                    <path d="M1104.3976,553.119588 L821.21817,411.217182 L720.606942,552.619594 L1104.3976,553.119588 Z" id="Rectangle-269" fill="#A6CD81"></path>
                    <path d="M628.157369,162.887973 L652.812254,65.4549828 L863.029257,153.448992 L628.157369,162.887973 Z" id="Rectangle-259" fill="#CAE9AD"></path>
                    <path d="M724.745711,159.390378 L652.644012,65.4549828 L862.529529,153.186788 L724.745711,159.390378 Z" id="Rectangle-260" fill="#C3E9A0"></path>
                    <path d="M724.604761,159.605659 L923.996002,261.320275 L862.431846,153.394502 L724.604761,159.605659 Z" id="Rectangle-262" fill="#CBEAAE"></path>
                    <path d="M724.604761,159.390378 L923.996002,260.958979 L764.446336,269.314777 L724.604761,159.390378 Z" id="Rectangle-263" fill="#C1E59F"></path>
                    <path d="M1006.45103,393.229553 L924.275472,260.820619 L764.582955,269.178358 L1006.45103,393.229553 Z" id="Rectangle-264" fill="#B9DF97"></path>
                    <path d="M724.745712,159.390378 L652.644012,65.4549828 L757.586771,108.926684 L724.745712,159.390378 Z" id="Rectangle-261" fill="#D4F1B9"></path>
                    <path d="M1539.16046,552.619931 L1057.38821,0.499656357 L858.53171,152.52791 L1103.74817,552.619931 L1539.16046,552.619931 Z" id="Rectangle-147" fill="#B6D798"></path>
                    <path d="M1109.19554,103.481012 L1159.86735,116.854531 L1057.04972,0.499656357 L1045.92949,62.498656 L1067.5291,121.916151 L1109.19554,103.481012 Z" id="Rectangle-302" fill="#C1E0A5"></path>
                    <path d="M1072.44907,177.378007 L1160.36707,116.810642 L1109.88832,103.428866 L1067.9175,121.891685 L1072.44907,177.378007 Z" id="Rectangle-304" fill="#B8DC96"></path>
                    <path d="M1072.41505,177.271838 L1160.27398,116.919588 L1256.31474,227.843299 L1072.41505,177.271838 Z" id="Rectangle-305" fill="#B2D88F"></path>
                    <path d="M1072.41505,177.378007 L1134.49184,237.836426 L1256.31474,228.181261 L1072.41505,177.378007 Z" id="Rectangle-306" fill="#ABD188"></path>
                    <path d="M1071.41559,176.378694 L1133.88152,237.571607 L1083.53395,318.2811 L1071.41559,176.378694 Z" id="Rectangle-307" fill="#A7CC86"></path>
                    <path d="M1255.81501,227.843299 L1134.29432,237.533063 L1084.4085,318.2811 L1255.81501,227.843299 Z" id="Rectangle-308" fill="#BADF98"></path>
                    <path d="M1255.85977,227.843299 L1346.26567,331.771821 L1084.4085,318.394341 L1255.85977,227.843299 Z" id="Rectangle-309" fill="#B2D88F"></path>
                    <path d="M1346.26567,445.193814 L1346.26567,331.631096 L1084.4085,318.2811 L1346.26567,445.193814 Z" id="Rectangle-310" fill="#ABD684"></path>
                    <path d="M1346.26567,445.603203 L1247.92511,398.226117 L1104.3976,552.619931 L1346.26567,445.603203 Z" id="Rectangle-313" fill="#A8D97C"></path>
                    <path d="M1346.26567,445.193814 L1346.26567,552.120275 L1104.3976,552.120275 L1346.26567,445.193814 Z" id="Rectangle-314" fill="#A1D275"></path>
                    <path d="M1248.3191,397.275161 L1092.58567,427.206186 L1084.4085,318.2811 L1248.3191,397.275161 Z" id="Rectangle-311" fill="#A3D179"></path>
                    <path d="M1247.81937,397.72646 L1092.40414,427.676549 L1103.52459,553.119588 L1247.81937,397.72646 Z" id="Rectangle-312" fill="#9ECC75"></path>
                    <path d="M1160.36707,116.919588 L1057.42322,0.499656357 L1108.89515,103.671251 L1160.36707,116.919588 Z" id="Rectangle-303" fill="#C7E7A9"></path>
                    <path d="M1057.50961,0.499656357 L858.53171,152.52791 L1103.89787,552.619931 L1057.50961,0.499656357 Z" id="Rectangle-165" fill="#AED38C"></path>
                    <path d="M1057.17941,0.499656357 L985.462475,145.4 L1060.92132,44.410628 L1057.17941,0.499656357 Z" id="Rectangle-290" fill="#AAD088"></path>
                    <path d="M1071.41559,176.378694 L985.462475,145.168252 L1060.96075,44.4694158 L1071.41559,176.378694 Z" id="Rectangle-292" fill="#A6CF81"></path>
                    <path d="M1071.41559,176.378694 L985.462475,145.22225 L1066.88249,120.916838 L1071.41559,176.378694 Z" id="Rectangle-293" fill="#9FC87A"></path>
                    <path d="M1071.21506,176.705024 L984.962748,144.900344 L1083.40905,318.2811 L1071.21506,176.705024 Z" id="Rectangle-294" fill="#A4CE7D"></path>
                    <path d="M947.982918,219.936957 L985.259336,145.4 L1083.90878,318.2811 L947.982918,219.936957 Z" id="Rectangle-295" fill="#A0C97C"></path>
                    <path d="M947.6794,219.848797 L925.495184,264.334846 L1083.40905,318.2811 L947.6794,219.848797 Z" id="Rectangle-296" fill="#A6D080"></path>
                    <path d="M1008.4491,396.227491 L925.495184,263.818557 L1083.40905,317.702438 L1008.4491,396.227491 Z" id="Rectangle-297" fill="#A2CD7A"></path>
                    <path d="M1008.44994,396.065396 L1092.40414,427.705842 L1083.71234,317.781443 L1008.44994,396.065396 Z" id="Rectangle-298" fill="#AAD385"></path>
                    <path d="M1057.28119,0.499656357 L1067.9175,122.415808 L1046.42922,61.2076475 L1057.28119,0.499656357 Z" id="Rectangle-291" fill="#B9DA9B"></path>
                    <path d="M948.482646,218.510338 L858.53171,152.395189 L926.576164,263.3189 L948.482646,218.510338 Z" id="Rectangle-271" fill="#9AC276"></path>
                    <path d="M1057.42322,0.499656357 L947.483191,84.9415808 L991.86713,78.826336 L1057.42322,0.499656357 Z" id="Rectangle-272" fill="#A1C67F"></path>
                    <path d="M985.711605,144.247835 L859.031437,152.894845 L947.614626,85.0674127 L991.958931,78.9457045 L985.711605,144.247835 Z" id="Rectangle-287" fill="#9BC179"></path>
                    <path d="M985.462475,143.901031 L858.53171,152.545009 L948.166918,218.349828 L985.462475,143.901031 Z" id="Rectangle-289" fill="#9EC67A"></path>
                    <path d="M1057.42322,0.499656357 L985.462475,144.400687 L991.956624,78.6955514 L1057.42322,0.499656357 Z" id="Rectangle-286" fill="#A5CB82"></path>
                    <path d="M1092.88731,427.125761 L1008.44994,395.727835 L1103.39815,552.619931 L1092.88731,427.125761 Z" id="Rectangle-270" fill="#A5CF7F"></path>
                </g>
                <g id="Flower-7" transform="translate(1853.988733, 279.807560)" sketch:type="MSShapeGroup">
                    <rect id="Rectangle-221" fill="#9AC771" x="5.99672906" y="7.99450172" width="0.999454843" height="13.4907216"></rect>
                    <path d="M6.49645648,11.8110788 L6.49645648,14.0439571 L10.5685059,16.4886598 L12.4931855,14.0439571 L10.8593666,11.4920962 L6.49645648,11.8110788 Z" id="Rectangle-221" fill="#96C66A"></path>
                    <path d="M6.49645648,13.4907216 L10.5685059,15.9890034 L12.4931855,13.4907216 L6.49645648,13.4907216 Z" id="Rectangle-222" fill="#8BB465"></path>
                    <g id="Ruby">
                        <path d="M0,2.49828179 L6.49645648,9.49347079 L3.83999443,2.49828179 L0,2.49828179 Z" id="Path-15" fill="#B63033"></path>
                        <path d="M6.49645648,2.49828179 L12.992913,9.49347079 L10.3310307,2.49828179 L6.49645648,2.49828179 Z" id="Path-15" fill="#D74D50" transform="translate(9.744685, 5.995876) scale(-1, 1) translate(-9.744685, -5.995876) "></path>
                        <path d="M3.49809195,2.49828179 L6.24659277,9.49347079 L8.99509359,2.49828179 L3.49809195,2.49828179 Z" id="Path-16" fill="#C53A3D"></path>
                        <polygon id="Triangle-1" fill="#DF7D80" points="2.67636397 0 3.99781937 2.49828179 0 2.49828179 "></polygon>
                        <path d="M2.49863711,0 L6.49645648,0 L3.63780069,2.49828179 L2.49863711,0 Z" id="Triangle-1" fill="#C53A3D"></path>
                        <path d="M6.49645648,0 L10.4942758,0 L9.30478839,2.49828179 L6.49645648,0 Z" id="Triangle-1" fill="#D74D50"></path>
                        <polygon id="Triangle-1" fill="#F9A3A5" points="6.36195988 0 8.99509359 2.49828179 3.49809195 2.49828179 "></polygon>
                        <polygon id="Triangle-1" fill="#FCBDBF" transform="translate(10.994003, 1.249141) scale(-1, 1) translate(-10.994003, -1.249141) " points="11.6925094 0 12.992913 2.49828179 8.99509359 2.49828179 "></polygon>
                    </g>
                </g>
                <g id="Flower-8" transform="translate(1953.934218, 229.841924)" sketch:type="MSShapeGroup">
                    <rect id="Rectangle-221" fill="#9AC771" x="5.99672906" y="7.99450172" width="0.999454843" height="13.4907216"></rect>
                    <path d="M6.49645648,11.8110788 L6.49645648,14.0439571 L10.5685059,16.4886598 L12.4931855,14.0439571 L10.8593666,11.4920962 L6.49645648,11.8110788 Z" id="Rectangle-221" fill="#96C66A"></path>
                    <path d="M6.49645648,13.4907216 L10.5685059,15.9890034 L12.4931855,13.4907216 L6.49645648,13.4907216 Z" id="Rectangle-222" fill="#8BB465"></path>
                    <g id="Ruby">
                        <path d="M0,2.49828179 L6.49645648,9.49347079 L3.83999443,2.49828179 L0,2.49828179 Z" id="Path-15" fill="#B63033"></path>
                        <path d="M6.49645648,2.49828179 L12.992913,9.49347079 L10.3310307,2.49828179 L6.49645648,2.49828179 Z" id="Path-15" fill="#D74D50" transform="translate(9.744685, 5.995876) scale(-1, 1) translate(-9.744685, -5.995876) "></path>
                        <path d="M3.49809195,2.49828179 L6.24659277,9.49347079 L8.99509359,2.49828179 L3.49809195,2.49828179 Z" id="Path-16" fill="#C53A3D"></path>
                        <polygon id="Triangle-1" fill="#DF7D80" points="2.67636397 0 3.99781937 2.49828179 0 2.49828179 "></polygon>
                        <path d="M2.49863711,0 L6.49645648,0 L3.63780069,2.49828179 L2.49863711,0 Z" id="Triangle-1" fill="#C53A3D"></path>
                        <path d="M6.49645648,0 L10.4942758,0 L9.30478839,2.49828179 L6.49645648,0 Z" id="Triangle-1" fill="#D74D50"></path>
                        <polygon id="Triangle-1" fill="#F9A3A5" points="6.36195988 0 8.99509359 2.49828179 3.49809195 2.49828179 "></polygon>
                        <polygon id="Triangle-1" fill="#FCBDBF" transform="translate(10.994003, 1.249141) scale(-1, 1) translate(-10.994003, -1.249141) " points="11.6925094 0 12.992913 2.49828179 8.99509359 2.49828179 "></polygon>
                    </g>
                </g>
                <g id="Flower-9" transform="translate(1938.942395, 264.817869)" sketch:type="MSShapeGroup">
                    <rect id="Rectangle-221" fill="#9AC771" x="5.99672906" y="7.99450172" width="0.999454843" height="13.4907216"></rect>
                    <path d="M6.49645648,11.8110788 L6.49645648,14.0439571 L10.5685059,16.4886598 L12.4931855,14.0439571 L10.8593666,11.4920962 L6.49645648,11.8110788 Z" id="Rectangle-221" fill="#96C66A"></path>
                    <path d="M6.49645648,13.4907216 L10.5685059,15.9890034 L12.4931855,13.4907216 L6.49645648,13.4907216 Z" id="Rectangle-222" fill="#8BB465"></path>
                    <g id="Ruby">
                        <path d="M0,2.49828179 L6.49645648,9.49347079 L3.83999443,2.49828179 L0,2.49828179 Z" id="Path-15" fill="#B63033"></path>
                        <path d="M6.49645648,2.49828179 L12.992913,9.49347079 L10.3310307,2.49828179 L6.49645648,2.49828179 Z" id="Path-15" fill="#D74D50" transform="translate(9.744685, 5.995876) scale(-1, 1) translate(-9.744685, -5.995876) "></path>
                        <path d="M3.49809195,2.49828179 L6.24659277,9.49347079 L8.99509359,2.49828179 L3.49809195,2.49828179 Z" id="Path-16" fill="#C53A3D"></path>
                        <polygon id="Triangle-1" fill="#DF7D80" points="2.67636397 0 3.99781937 2.49828179 0 2.49828179 "></polygon>
                        <path d="M2.49863711,0 L6.49645648,0 L3.63780069,2.49828179 L2.49863711,0 Z" id="Triangle-1" fill="#C53A3D"></path>
                        <path d="M6.49645648,0 L10.4942758,0 L9.30478839,2.49828179 L6.49645648,0 Z" id="Triangle-1" fill="#D74D50"></path>
                        <polygon id="Triangle-1" fill="#F9A3A5" points="6.36195988 0 8.99509359 2.49828179 3.49809195 2.49828179 "></polygon>
                        <polygon id="Triangle-1" fill="#FCBDBF" transform="translate(10.994003, 1.249141) scale(-1, 1) translate(-10.994003, -1.249141) " points="11.6925094 0 12.992913 2.49828179 8.99509359 2.49828179 "></polygon>
                    </g>
                </g>
                <g id="Flower-18" transform="translate(1732.554970, 457.685223)" sketch:type="MSShapeGroup">
                    <rect id="Rectangle-221" fill="#9AC771" x="5.99672906" y="7.99450172" width="0.999454843" height="13.4907216"></rect>
                    <path d="M6.49645648,11.8110788 L6.49645648,14.0439571 L10.5685059,16.4886598 L12.4931855,14.0439571 L10.8593666,11.4920962 L6.49645648,11.8110788 Z" id="Rectangle-221" fill="#96C66A"></path>
                    <path d="M6.49645648,13.4907216 L10.5685059,15.9890034 L12.4931855,13.4907216 L6.49645648,13.4907216 Z" id="Rectangle-222" fill="#8BB465"></path>
                    <g id="Ruby">
                        <path d="M0,2.49828179 L6.49645648,9.49347079 L3.83999443,2.49828179 L0,2.49828179 Z" id="Path-15" fill="#B63033"></path>
                        <path d="M6.49645648,2.49828179 L12.992913,9.49347079 L10.3310307,2.49828179 L6.49645648,2.49828179 Z" id="Path-15" fill="#D74D50" transform="translate(9.744685, 5.995876) scale(-1, 1) translate(-9.744685, -5.995876) "></path>
                        <path d="M3.49809195,2.49828179 L6.24659277,9.49347079 L8.99509359,2.49828179 L3.49809195,2.49828179 Z" id="Path-16" fill="#C53A3D"></path>
                        <polygon id="Triangle-1" fill="#DF7D80" points="2.67636397 0 3.99781937 2.49828179 0 2.49828179 "></polygon>
                        <path d="M2.49863711,0 L6.49645648,0 L3.63780069,2.49828179 L2.49863711,0 Z" id="Triangle-1" fill="#C53A3D"></path>
                        <path d="M6.49645648,0 L10.4942758,0 L9.30478839,2.49828179 L6.49645648,0 Z" id="Triangle-1" fill="#D74D50"></path>
                        <polygon id="Triangle-1" fill="#F9A3A5" points="6.36195988 0 8.99509359 2.49828179 3.49809195 2.49828179 "></polygon>
                        <polygon id="Triangle-1" fill="#FCBDBF" transform="translate(10.994003, 1.249141) scale(-1, 1) translate(-10.994003, -1.249141) " points="11.6925094 0 12.992913 2.49828179 8.99509359 2.49828179 "></polygon>
                    </g>
                </g>
                <g id="Flower-19" transform="translate(1739.051426, 579.601375)" sketch:type="MSShapeGroup">
                    <rect id="Rectangle-221" fill="#9AC771" x="5.99672906" y="7.99450172" width="0.999454843" height="13.4907216"></rect>
                    <path d="M6.49645648,11.8110788 L6.49645648,14.0439571 L10.5685059,16.4886598 L12.4931855,14.0439571 L10.8593666,11.4920962 L6.49645648,11.8110788 Z" id="Rectangle-221" fill="#96C66A"></path>
                    <path d="M6.49645648,13.4907216 L10.5685059,15.9890034 L12.4931855,13.4907216 L6.49645648,13.4907216 Z" id="Rectangle-222" fill="#8BB465"></path>
                    <g id="Ruby">
                        <path d="M0,2.49828179 L6.49645648,9.49347079 L3.83999443,2.49828179 L0,2.49828179 Z" id="Path-15" fill="#B63033"></path>
                        <path d="M6.49645648,2.49828179 L12.992913,9.49347079 L10.3310307,2.49828179 L6.49645648,2.49828179 Z" id="Path-15" fill="#D74D50" transform="translate(9.744685, 5.995876) scale(-1, 1) translate(-9.744685, -5.995876) "></path>
                        <path d="M3.49809195,2.49828179 L6.24659277,9.49347079 L8.99509359,2.49828179 L3.49809195,2.49828179 Z" id="Path-16" fill="#C53A3D"></path>
                        <polygon id="Triangle-1" fill="#DF7D80" points="2.67636397 0 3.99781937 2.49828179 0 2.49828179 "></polygon>
                        <path d="M2.49863711,0 L6.49645648,0 L3.63780069,2.49828179 L2.49863711,0 Z" id="Triangle-1" fill="#C53A3D"></path>
                        <path d="M6.49645648,0 L10.4942758,0 L9.30478839,2.49828179 L6.49645648,0 Z" id="Triangle-1" fill="#D74D50"></path>
                        <polygon id="Triangle-1" fill="#F9A3A5" points="6.36195988 0 8.99509359 2.49828179 3.49809195 2.49828179 "></polygon>
                        <polygon id="Triangle-1" fill="#FCBDBF" transform="translate(10.994003, 1.249141) scale(-1, 1) translate(-10.994003, -1.249141) " points="11.6925094 0 12.992913 2.49828179 8.99509359 2.49828179 "></polygon>
                    </g>
                </g>
                <g id="Flower-17" transform="translate(1860.485190, 410.717526)" sketch:type="MSShapeGroup">
                    <rect id="Rectangle-221" fill="#9AC771" x="5.99672906" y="7.99450172" width="0.999454843" height="13.4907216"></rect>
                    <path d="M6.49645648,11.8110788 L6.49645648,14.0439571 L10.5685059,16.4886598 L12.4931855,14.0439571 L10.8593666,11.4920962 L6.49645648,11.8110788 Z" id="Rectangle-221" fill="#96C66A"></path>
                    <path d="M6.49645648,13.4907216 L10.5685059,15.9890034 L12.4931855,13.4907216 L6.49645648,13.4907216 Z" id="Rectangle-222" fill="#8BB465"></path>
                    <g id="Ruby">
                        <path d="M0,2.49828179 L6.49645648,9.49347079 L3.83999443,2.49828179 L0,2.49828179 Z" id="Path-15" fill="#B63033"></path>
                        <path d="M6.49645648,2.49828179 L12.992913,9.49347079 L10.3310307,2.49828179 L6.49645648,2.49828179 Z" id="Path-15" fill="#D74D50" transform="translate(9.744685, 5.995876) scale(-1, 1) translate(-9.744685, -5.995876) "></path>
                        <path d="M3.49809195,2.49828179 L6.24659277,9.49347079 L8.99509359,2.49828179 L3.49809195,2.49828179 Z" id="Path-16" fill="#C53A3D"></path>
                        <polygon id="Triangle-1" fill="#DF7D80" points="2.67636397 0 3.99781937 2.49828179 0 2.49828179 "></polygon>
                        <path d="M2.49863711,0 L6.49645648,0 L3.63780069,2.49828179 L2.49863711,0 Z" id="Triangle-1" fill="#C53A3D"></path>
                        <path d="M6.49645648,0 L10.4942758,0 L9.30478839,2.49828179 L6.49645648,0 Z" id="Triangle-1" fill="#D74D50"></path>
                        <polygon id="Triangle-1" fill="#F9A3A5" points="6.36195988 0 8.99509359 2.49828179 3.49809195 2.49828179 "></polygon>
                        <polygon id="Triangle-1" fill="#FCBDBF" transform="translate(10.994003, 1.249141) scale(-1, 1) translate(-10.994003, -1.249141) " points="11.6925094 0 12.992913 2.49828179 8.99509359 2.49828179 "></polygon>
                    </g>
                </g>
                <g id="Flower-14" transform="translate(609.667454, 284.804124)" sketch:type="MSShapeGroup">
                    <rect id="Rectangle-221" fill="#9AC771" x="5.99672906" y="7.99450172" width="0.999454843" height="13.4907216"></rect>
                    <path d="M6.49645648,11.8110788 L6.49645648,14.0439571 L10.5685059,16.4886598 L12.4931855,14.0439571 L10.8593666,11.4920962 L6.49645648,11.8110788 Z" id="Rectangle-221" fill="#96C66A"></path>
                    <path d="M6.49645648,13.4907216 L10.5685059,15.9890034 L12.4931855,13.4907216 L6.49645648,13.4907216 Z" id="Rectangle-222" fill="#8BB465"></path>
                    <g id="Ruby">
                        <path d="M0,2.49828179 L6.49645648,9.49347079 L3.83999443,2.49828179 L0,2.49828179 Z" id="Path-15" fill="#B63033"></path>
                        <path d="M6.49645648,2.49828179 L12.992913,9.49347079 L10.3310307,2.49828179 L6.49645648,2.49828179 Z" id="Path-15" fill="#D74D50" transform="translate(9.744685, 5.995876) scale(-1, 1) translate(-9.744685, -5.995876) "></path>
                        <path d="M3.49809195,2.49828179 L6.24659277,9.49347079 L8.99509359,2.49828179 L3.49809195,2.49828179 Z" id="Path-16" fill="#C53A3D"></path>
                        <polygon id="Triangle-1" fill="#DF7D80" points="2.67636397 0 3.99781937 2.49828179 0 2.49828179 "></polygon>
                        <path d="M2.49863711,0 L6.49645648,0 L3.63780069,2.49828179 L2.49863711,0 Z" id="Triangle-1" fill="#C53A3D"></path>
                        <path d="M6.49645648,0 L10.4942758,0 L9.30478839,2.49828179 L6.49645648,0 Z" id="Triangle-1" fill="#D74D50"></path>
                        <polygon id="Triangle-1" fill="#F9A3A5" points="6.36195988 0 8.99509359 2.49828179 3.49809195 2.49828179 "></polygon>
                        <polygon id="Triangle-1" fill="#FCBDBF" transform="translate(10.994003, 1.249141) scale(-1, 1) translate(-10.994003, -1.249141) " points="11.6925094 0 12.992913 2.49828179 8.99509359 2.49828179 "></polygon>
                    </g>
                </g>
                <g id="Flower-28" transform="translate(704.615664, 506.651546)" sketch:type="MSShapeGroup">
                    <rect id="Rectangle-221" fill="#9AC771" x="5.99672906" y="7.99450172" width="0.999454843" height="13.4907216"></rect>
                    <path d="M6.49645648,11.8110788 L6.49645648,14.0439571 L10.5685059,16.4886598 L12.4931855,14.0439571 L10.8593666,11.4920962 L6.49645648,11.8110788 Z" id="Rectangle-221" fill="#96C66A"></path>
                    <path d="M6.49645648,13.4907216 L10.5685059,15.9890034 L12.4931855,13.4907216 L6.49645648,13.4907216 Z" id="Rectangle-222" fill="#8BB465"></path>
                    <g id="Ruby">
                        <path d="M0,2.49828179 L6.49645648,9.49347079 L3.83999443,2.49828179 L0,2.49828179 Z" id="Path-15" fill="#B63033"></path>
                        <path d="M6.49645648,2.49828179 L12.992913,9.49347079 L10.3310307,2.49828179 L6.49645648,2.49828179 Z" id="Path-15" fill="#D74D50" transform="translate(9.744685, 5.995876) scale(-1, 1) translate(-9.744685, -5.995876) "></path>
                        <path d="M3.49809195,2.49828179 L6.24659277,9.49347079 L8.99509359,2.49828179 L3.49809195,2.49828179 Z" id="Path-16" fill="#C53A3D"></path>
                        <polygon id="Triangle-1" fill="#DF7D80" points="2.67636397 0 3.99781937 2.49828179 0 2.49828179 "></polygon>
                        <path d="M2.49863711,0 L6.49645648,0 L3.63780069,2.49828179 L2.49863711,0 Z" id="Triangle-1" fill="#C53A3D"></path>
                        <path d="M6.49645648,0 L10.4942758,0 L9.30478839,2.49828179 L6.49645648,0 Z" id="Triangle-1" fill="#D74D50"></path>
                        <polygon id="Triangle-1" fill="#F9A3A5" points="6.36195988 0 8.99509359 2.49828179 3.49809195 2.49828179 "></polygon>
                        <polygon id="Triangle-1" fill="#FCBDBF" transform="translate(10.994003, 1.249141) scale(-1, 1) translate(-10.994003, -1.249141) " points="11.6925094 0 12.992913 2.49828179 8.99509359 2.49828179 "></polygon>
                    </g>
                </g>
                <g id="Flower-26" transform="translate(603.170998, 569.108591)" sketch:type="MSShapeGroup">
                    <rect id="Rectangle-221" fill="#9AC771" x="5.99672906" y="7.99450172" width="0.999454843" height="13.4907216"></rect>
                    <path d="M6.49645648,11.8110788 L6.49645648,14.0439571 L10.5685059,16.4886598 L12.4931855,14.0439571 L10.8593666,11.4920962 L6.49645648,11.8110788 Z" id="Rectangle-221" fill="#96C66A"></path>
                    <path d="M6.49645648,13.4907216 L10.5685059,15.9890034 L12.4931855,13.4907216 L6.49645648,13.4907216 Z" id="Rectangle-222" fill="#8BB465"></path>
                    <g id="Ruby">
                        <path d="M0,2.49828179 L6.49645648,9.49347079 L3.83999443,2.49828179 L0,2.49828179 Z" id="Path-15" fill="#B63033"></path>
                        <path d="M6.49645648,2.49828179 L12.992913,9.49347079 L10.3310307,2.49828179 L6.49645648,2.49828179 Z" id="Path-15" fill="#D74D50" transform="translate(9.744685, 5.995876) scale(-1, 1) translate(-9.744685, -5.995876) "></path>
                        <path d="M3.49809195,2.49828179 L6.24659277,9.49347079 L8.99509359,2.49828179 L3.49809195,2.49828179 Z" id="Path-16" fill="#C53A3D"></path>
                        <polygon id="Triangle-1" fill="#DF7D80" points="2.67636397 0 3.99781937 2.49828179 0 2.49828179 "></polygon>
                        <path d="M2.49863711,0 L6.49645648,0 L3.63780069,2.49828179 L2.49863711,0 Z" id="Triangle-1" fill="#C53A3D"></path>
                        <path d="M6.49645648,0 L10.4942758,0 L9.30478839,2.49828179 L6.49645648,0 Z" id="Triangle-1" fill="#D74D50"></path>
                        <polygon id="Triangle-1" fill="#F9A3A5" points="6.36195988 0 8.99509359 2.49828179 3.49809195 2.49828179 "></polygon>
                        <polygon id="Triangle-1" fill="#FCBDBF" transform="translate(10.994003, 1.249141) scale(-1, 1) translate(-10.994003, -1.249141) " points="11.6925094 0 12.992913 2.49828179 8.99509359 2.49828179 "></polygon>
                    </g>
                </g>
                <g id="Flower-10" transform="translate(2058.876976, 279.807560)" sketch:type="MSShapeGroup">
                    <rect id="Rectangle-221" fill="#9AC771" x="5.99672906" y="7.99450172" width="0.999454843" height="13.4907216"></rect>
                    <path d="M6.49645648,11.8110788 L6.49645648,14.0439571 L10.5685059,16.4886598 L12.4931855,14.0439571 L10.8593666,11.4920962 L6.49645648,11.8110788 Z" id="Rectangle-221" fill="#96C66A"></path>
                    <path d="M6.49645648,13.4907216 L10.5685059,15.9890034 L12.4931855,13.4907216 L6.49645648,13.4907216 Z" id="Rectangle-222" fill="#8BB465"></path>
                    <g id="Ruby">
                        <path d="M0,2.49828179 L6.49645648,9.49347079 L3.83999443,2.49828179 L0,2.49828179 Z" id="Path-15" fill="#B63033"></path>
                        <path d="M6.49645648,2.49828179 L12.992913,9.49347079 L10.3310307,2.49828179 L6.49645648,2.49828179 Z" id="Path-15" fill="#D74D50" transform="translate(9.744685, 5.995876) scale(-1, 1) translate(-9.744685, -5.995876) "></path>
                        <path d="M3.49809195,2.49828179 L6.24659277,9.49347079 L8.99509359,2.49828179 L3.49809195,2.49828179 Z" id="Path-16" fill="#C53A3D"></path>
                        <polygon id="Triangle-1" fill="#DF7D80" points="2.67636397 0 3.99781937 2.49828179 0 2.49828179 "></polygon>
                        <path d="M2.49863711,0 L6.49645648,0 L3.63780069,2.49828179 L2.49863711,0 Z" id="Triangle-1" fill="#C53A3D"></path>
                        <path d="M6.49645648,0 L10.4942758,0 L9.30478839,2.49828179 L6.49645648,0 Z" id="Triangle-1" fill="#D74D50"></path>
                        <polygon id="Triangle-1" fill="#F9A3A5" points="6.36195988 0 8.99509359 2.49828179 3.49809195 2.49828179 "></polygon>
                        <polygon id="Triangle-1" fill="#FCBDBF" transform="translate(10.994003, 1.249141) scale(-1, 1) translate(-10.994003, -1.249141) " points="11.6925094 0 12.992913 2.49828179 8.99509359 2.49828179 "></polygon>
                    </g>
                </g>
                <g id="Flower-31" transform="translate(2019.398510, 559.615120)" sketch:type="MSShapeGroup">
                    <rect id="Rectangle-221" fill="#9AC771" x="5.99672906" y="7.99450172" width="0.999454843" height="13.4907216"></rect>
                    <path d="M6.49645648,11.8110788 L6.49645648,14.0439571 L10.5685059,16.4886598 L12.4931855,14.0439571 L10.8593666,11.4920962 L6.49645648,11.8110788 Z" id="Rectangle-221" fill="#96C66A"></path>
                    <path d="M6.49645648,13.4907216 L10.5685059,15.9890034 L12.4931855,13.4907216 L6.49645648,13.4907216 Z" id="Rectangle-222" fill="#8BB465"></path>
                    <g id="Ruby">
                        <path d="M0,2.49828179 L6.49645648,9.49347079 L3.83999443,2.49828179 L0,2.49828179 Z" id="Path-15" fill="#B63033"></path>
                        <path d="M6.49645648,2.49828179 L12.992913,9.49347079 L10.3310307,2.49828179 L6.49645648,2.49828179 Z" id="Path-15" fill="#D74D50" transform="translate(9.744685, 5.995876) scale(-1, 1) translate(-9.744685, -5.995876) "></path>
                        <path d="M3.49809195,2.49828179 L6.24659277,9.49347079 L8.99509359,2.49828179 L3.49809195,2.49828179 Z" id="Path-16" fill="#C53A3D"></path>
                        <polygon id="Triangle-1" fill="#DF7D80" points="2.67636397 0 3.99781937 2.49828179 0 2.49828179 "></polygon>
                        <path d="M2.49863711,0 L6.49645648,0 L3.63780069,2.49828179 L2.49863711,0 Z" id="Triangle-1" fill="#C53A3D"></path>
                        <path d="M6.49645648,0 L10.4942758,0 L9.30478839,2.49828179 L6.49645648,0 Z" id="Triangle-1" fill="#D74D50"></path>
                        <polygon id="Triangle-1" fill="#F9A3A5" points="6.36195988 0 8.99509359 2.49828179 3.49809195 2.49828179 "></polygon>
                        <polygon id="Triangle-1" fill="#FCBDBF" transform="translate(10.994003, 1.249141) scale(-1, 1) translate(-10.994003, -1.249141) " points="11.6925094 0 12.992913 2.49828179 8.99509359 2.49828179 "></polygon>
                    </g>
                </g>
                <g id="Flower-30" transform="translate(2139.333091, 574.604811)" sketch:type="MSShapeGroup">
                    <rect id="Rectangle-221" fill="#9AC771" x="5.99672906" y="7.99450172" width="0.999454843" height="13.4907216"></rect>
                    <path d="M6.49645648,11.8110788 L6.49645648,14.0439571 L10.5685059,16.4886598 L12.4931855,14.0439571 L10.8593666,11.4920962 L6.49645648,11.8110788 Z" id="Rectangle-221" fill="#96C66A"></path>
                    <path d="M6.49645648,13.4907216 L10.5685059,15.9890034 L12.4931855,13.4907216 L6.49645648,13.4907216 Z" id="Rectangle-222" fill="#8BB465"></path>
                    <g id="Ruby">
                        <path d="M0,2.49828179 L6.49645648,9.49347079 L3.83999443,2.49828179 L0,2.49828179 Z" id="Path-15" fill="#B63033"></path>
                        <path d="M6.49645648,2.49828179 L12.992913,9.49347079 L10.3310307,2.49828179 L6.49645648,2.49828179 Z" id="Path-15" fill="#D74D50" transform="translate(9.744685, 5.995876) scale(-1, 1) translate(-9.744685, -5.995876) "></path>
                        <path d="M3.49809195,2.49828179 L6.24659277,9.49347079 L8.99509359,2.49828179 L3.49809195,2.49828179 Z" id="Path-16" fill="#C53A3D"></path>
                        <polygon id="Triangle-1" fill="#DF7D80" points="2.67636397 0 3.99781937 2.49828179 0 2.49828179 "></polygon>
                        <path d="M2.49863711,0 L6.49645648,0 L3.63780069,2.49828179 L2.49863711,0 Z" id="Triangle-1" fill="#C53A3D"></path>
                        <path d="M6.49645648,0 L10.4942758,0 L9.30478839,2.49828179 L6.49645648,0 Z" id="Triangle-1" fill="#D74D50"></path>
                        <polygon id="Triangle-1" fill="#F9A3A5" points="6.36195988 0 8.99509359 2.49828179 3.49809195 2.49828179 "></polygon>
                        <polygon id="Triangle-1" fill="#FCBDBF" transform="translate(10.994003, 1.249141) scale(-1, 1) translate(-10.994003, -1.249141) " points="11.6925094 0 12.992913 2.49828179 8.99509359 2.49828179 "></polygon>
                    </g>
                </g>
                <g id="Flower-20" transform="translate(2073.868799, 399.725086)" sketch:type="MSShapeGroup">
                    <rect id="Rectangle-221" fill="#9AC771" x="5.99672906" y="7.99450172" width="0.999454843" height="13.4907216"></rect>
                    <path d="M6.49645648,11.8110788 L6.49645648,14.0439571 L10.5685059,16.4886598 L12.4931855,14.0439571 L10.8593666,11.4920962 L6.49645648,11.8110788 Z" id="Rectangle-221" fill="#96C66A"></path>
                    <path d="M6.49645648,13.4907216 L10.5685059,15.9890034 L12.4931855,13.4907216 L6.49645648,13.4907216 Z" id="Rectangle-222" fill="#8BB465"></path>
                    <g id="Ruby">
                        <path d="M0,2.49828179 L6.49645648,9.49347079 L3.83999443,2.49828179 L0,2.49828179 Z" id="Path-15" fill="#B63033"></path>
                        <path d="M6.49645648,2.49828179 L12.992913,9.49347079 L10.3310307,2.49828179 L6.49645648,2.49828179 Z" id="Path-15" fill="#D74D50" transform="translate(9.744685, 5.995876) scale(-1, 1) translate(-9.744685, -5.995876) "></path>
                        <path d="M3.49809195,2.49828179 L6.24659277,9.49347079 L8.99509359,2.49828179 L3.49809195,2.49828179 Z" id="Path-16" fill="#C53A3D"></path>
                        <polygon id="Triangle-1" fill="#DF7D80" points="2.67636397 0 3.99781937 2.49828179 0 2.49828179 "></polygon>
                        <path d="M2.49863711,0 L6.49645648,0 L3.63780069,2.49828179 L2.49863711,0 Z" id="Triangle-1" fill="#C53A3D"></path>
                        <path d="M6.49645648,0 L10.4942758,0 L9.30478839,2.49828179 L6.49645648,0 Z" id="Triangle-1" fill="#D74D50"></path>
                        <polygon id="Triangle-1" fill="#F9A3A5" points="6.36195988 0 8.99509359 2.49828179 3.49809195 2.49828179 "></polygon>
                        <polygon id="Triangle-1" fill="#FCBDBF" transform="translate(10.994003, 1.249141) scale(-1, 1) translate(-10.994003, -1.249141) " points="11.6925094 0 12.992913 2.49828179 8.99509359 2.49828179 "></polygon>
                    </g>
                </g>
                <g id="tree-8" transform="translate(953.979647, 172.381443)" sketch:type="MSShapeGroup">
                    <path d="M3.85464678,33.9766323 L0,47.9670103 L34.9809195,47.9670103 L31.1262727,33.9766323 L3.85464678,33.9766323 Z" id="Rectangle-9" fill="#5EA034"></path>
                    <path d="M3.9025439,33.9766323 L0,47.9670103 L18.989642,47.9670103 L3.9025439,33.9766323 Z" id="Rectangle-25" fill="#538534"></path>
                    <path d="M3.9025439,33.9766323 L0,47.9670103 L9.49482101,39.4255931 L3.9025439,33.9766323 Z" id="Rectangle-31" fill="#528134"></path>
                    <path d="M3.99781937,33.9766323 L18.989642,35.4656603 L18.989642,47.9670103 L3.99781937,33.9766323 Z" id="Rectangle-26" fill="#558C33"></path>
                    <path d="M9.49482101,39.2416267 L18.989642,35.4756014 L18.989642,47.9670103 L9.49482101,39.2416267 Z" id="Rectangle-32" fill="#5C923A"></path>
                    <path d="M31.4828275,35.4756014 L18.989642,35.4756014 L18.989642,47.9670103 L31.4828275,35.4756014 Z" id="Rectangle-27" fill="#589631"></path>
                    <path d="M25.4860985,35.4756014 L18.989642,35.4756014 L18.989642,47.9670103 L25.4860985,35.4756014 Z" id="Rectangle-30" fill="#548E30"></path>
                    <path d="M7.32002282,20.985567 L1.99890969,34.975945 L33.4817372,34.975945 L28.1606241,20.985567 L7.32002282,20.985567 Z" id="Rectangle-6" fill="#74AC50"></path>
                    <path d="M24.9863711,34.975945 L33.4817372,34.975945 L28.0327967,20.985567 L24.9863711,34.975945 Z" id="Rectangle-29" fill="#77B252"></path>
                    <path d="M7.2842483,20.985567 L1.99890969,34.975945 L27.9847356,20.985567 L7.2842483,20.985567 Z" id="Rectangle-19" fill="#6FA24F"></path>
                    <path d="M18.5129156,34.975945 L1.99890969,34.975945 L27.9847356,20.985567 L18.5129156,34.975945 Z" id="Rectangle-24" fill="#70A64E"></path>
                    <path d="M10.1914107,9.99312715 L3.49809195,23.9835052 L30.9831001,23.9835052 L24.2897813,9.99312715 L10.1914107,9.99312715 Z" id="Rectangle-7" fill="#73B34C"></path>
                    <path d="M12.992913,23.9835052 L31.4828275,23.9835052 L24.679228,9.99312715 L12.992913,23.9835052 Z" id="Rectangle-16" fill="#75B64C"></path>
                    <path d="M12.992913,23.9835052 L31.4828275,23.9835052 L28.0357033,16.9883162 L12.992913,23.9835052 Z" id="Rectangle-28" fill="#75BB4A"></path>
                    <path d="M12.992913,23.9835052 L14.695585,13.8459461 L24.4866436,9.99312715 L12.992913,23.9835052 Z" id="Rectangle-17" fill="#6FB046"></path>
                    <path d="M4.49754679,13.4907216 L30.4833727,13.4907216 L17.4904597,0 L4.49754679,13.4907216 Z" id="Rectangle-8" fill="#80C256"></path>
                    <path d="M4.49754679,13.4907216 L17.4904597,6.74536082 L17.4904597,0 L4.49754679,13.4907216 Z" id="Rectangle-10" fill="#79BE4E"></path>
                    <path d="M29.9836453,13.4907216 L17.4904597,6.86376363 L17.4904597,0 L29.9836453,13.4907216 Z" id="Rectangle-11" fill="#88C363"></path>
                    <path d="M29.9836453,13.990378 L17.2107181,6.995189 L14.4920952,13.990378 L29.9836453,13.990378 Z" id="Rectangle-15" fill="#84CB57"></path>
                    <rect id="Rectangle-13" fill="#A3856A" x="12.992913" y="47.467354" width="8.99509359" height="12.9910653"></rect>
                    <path d="M12.992913,47.467354 L12.992913,51.4129337 L21.9880065,56.9608247 L21.9880065,47.467354 L12.992913,47.467354 Z" id="Rectangle-14" fill="#94765B"></path>
                </g>
                <g id="tree-9" transform="translate(729.102308, 322.278351)" sketch:type="MSShapeGroup">
                    <path d="M4.95597443,43.9697595 L0,61.9573883 L44.9754679,61.9573883 L40.0194935,43.9697595 L4.95597443,43.9697595 Z" id="Rectangle-9" fill="#5EA034"></path>
                    <path d="M5.03222766,43.9697595 L0,61.9573883 L24.4866436,61.9573883 L5.03222766,43.9697595 Z" id="Rectangle-25" fill="#538534"></path>
                    <path d="M4.92952914,43.9697595 L0,61.9573883 L11.9934581,50.9755662 L4.92952914,43.9697595 Z" id="Rectangle-31" fill="#528134"></path>
                    <path d="M4.99727421,43.9697595 L24.4866436,45.884224 L24.4866436,61.9573883 L4.99727421,43.9697595 Z" id="Rectangle-26" fill="#558C33"></path>
                    <path d="M11.9934581,50.7888972 L23.9869162,45.9683849 L23.9869162,61.9573883 L11.9934581,50.7888972 Z" id="Rectangle-32" fill="#5C923A"></path>
                    <path d="M40.4779211,45.9683849 L24.4866436,45.9683849 L24.4866436,61.9573883 L40.4779211,45.9683849 Z" id="Rectangle-27" fill="#589631"></path>
                    <path d="M32.9820098,45.9683849 L24.4866436,45.9683849 L24.4866436,61.9573883 L32.9820098,45.9683849 Z" id="Rectangle-30" fill="#548E30"></path>
                    <path d="M9.34006828,26.9814433 L2.49863711,44.9690722 L42.9765582,44.9690722 L36.1351271,26.9814433 L9.34006828,26.9814433 Z" id="Rectangle-6" fill="#74AC50"></path>
                    <path d="M31.982555,44.9690722 L42.9765582,44.9690722 L35.9249882,26.9814433 L31.982555,44.9690722 Z" id="Rectangle-29" fill="#77B252"></path>
                    <path d="M9.30859263,26.9814433 L2.49863711,44.9690722 L35.9803743,26.9814433 L9.30859263,26.9814433 Z" id="Rectangle-19" fill="#6FA24F"></path>
                    <path d="M23.7762986,44.9690722 L2.49863711,44.9690722 L35.9803743,26.9814433 L23.7762986,44.9690722 Z" id="Rectangle-24" fill="#70A64E"></path>
                    <path d="M13.1380129,12.9910653 L4.49754679,30.9786942 L39.9781937,30.9786942 L31.3377276,12.9910653 L13.1380129,12.9910653 Z" id="Rectangle-7" fill="#73B34C"></path>
                    <path d="M16.4910049,30.9786942 L40.4779211,30.9786942 L31.6516298,12.9910653 L16.4910049,30.9786942 Z" id="Rectangle-16" fill="#75B64C"></path>
                    <path d="M16.4910049,30.9786942 L40.4779211,30.9786942 L36.0059762,21.9848797 L16.4910049,30.9786942 Z" id="Rectangle-28" fill="#75BB4A"></path>
                    <path d="M16.4910049,30.9786942 L18.7118815,17.9446896 L31.4828275,12.9910653 L16.4910049,30.9786942 Z" id="Rectangle-17" fill="#6FB046"></path>
                    <path d="M5.99672906,17.4879725 L39.4784663,17.4879725 L22.7375977,0 L5.99672906,17.4879725 Z" id="Rectangle-8" fill="#80C256"></path>
                    <path d="M5.99672906,17.4879725 L22.487734,8.74398625 L22.487734,0 L5.99672906,17.4879725 Z" id="Rectangle-10" fill="#79BE4E"></path>
                    <path d="M38.4790114,17.4879725 L22.487734,8.89747137 L22.487734,0 L38.4790114,17.4879725 Z" id="Rectangle-11" fill="#88C363"></path>
                    <path d="M38.4790114,17.9876289 L21.9978151,8.99381443 L18.4899146,17.9876289 L38.4790114,17.9876289 Z" id="Rectangle-15" fill="#84CB57"></path>
                    <rect id="Rectangle-13" fill="#A3856A" x="16.4910049" y="60.9580756" width="11.4937307" height="16.9883162"></rect>
                    <path d="M16.4910049,60.9580756 L16.4910049,65.9419658 L27.9847356,72.9498282 L27.9847356,60.9580756 L16.4910049,60.9580756 Z" id="Rectangle-14" fill="#94765B"></path>
                </g>
                <g id="tree-12" transform="translate(1796.520080, 233.339519)" sketch:type="MSShapeGroup">
                    <path d="M2.86345189,25.4824742 L0,35.9752577 L25.9858259,35.9752577 L23.122374,25.4824742 L2.86345189,25.4824742 Z" id="Rectangle-9" fill="#5EA034"></path>
                    <path d="M2.87555866,25.4824742 L0,35.9752577 L13.9923678,35.9752577 L2.87555866,25.4824742 Z" id="Rectangle-25" fill="#538534"></path>
                    <path d="M2.87555866,25.4824742 L0,35.9752577 L6.9961839,29.5691948 L2.87555866,25.4824742 Z" id="Rectangle-31" fill="#528134"></path>
                    <path d="M2.99836453,25.4824742 L13.9923678,26.5992452 L13.9923678,35.9752577 L2.99836453,25.4824742 Z" id="Rectangle-26" fill="#558C33"></path>
                    <path d="M6.9961839,29.3439662 L13.9923678,26.4817869 L13.9923678,35.9752577 L6.9961839,29.3439662 Z" id="Rectangle-32" fill="#5C923A"></path>
                    <path d="M23.4871888,26.4817869 L13.9923678,26.4817869 L13.9923678,35.9752577 L23.4871888,26.4817869 Z" id="Rectangle-27" fill="#589631"></path>
                    <path d="M18.989642,26.4817869 L13.9923678,26.4817869 L13.9923678,35.9752577 L18.989642,26.4817869 Z" id="Rectangle-30" fill="#548E30"></path>
                    <path d="M5.46890158,15.4893471 L1.49918226,25.9821306 L24.9863711,25.9821306 L21.0166518,15.4893471 L5.46890158,15.4893471 Z" id="Rectangle-6" fill="#74AC50"></path>
                    <path d="M18.4899146,25.9821306 L24.9863711,25.9821306 L20.8195342,15.4893471 L18.4899146,25.9821306 Z" id="Rectangle-29" fill="#77B252"></path>
                    <path d="M5.46318623,15.4893471 L1.49918226,25.9821306 L20.9885517,15.4893471 L5.46318623,15.4893471 Z" id="Rectangle-19" fill="#6FA24F"></path>
                    <path d="M13.8846867,25.9821306 L1.49918226,25.9821306 L20.9885517,15.4893471 L13.8846867,25.9821306 Z" id="Rectangle-24" fill="#70A64E"></path>
                    <path d="M7.48820203,7.49484536 L2.49863711,17.9876289 L22.9874614,17.9876289 L17.9978965,7.49484536 L7.48820203,7.49484536 Z" id="Rectangle-7" fill="#73B34C"></path>
                    <path d="M9.49482101,17.9876289 L22.9874614,17.9876289 L18.0226725,7.49484536 L9.49482101,17.9876289 Z" id="Rectangle-16" fill="#75B64C"></path>
                    <path d="M9.49482101,17.4879725 L22.9874614,17.4879725 L20.4719923,12.4914089 L9.49482101,17.4879725 Z" id="Rectangle-28" fill="#75BB4A"></path>
                    <path d="M9.49482101,17.9876289 L10.7533178,10.3844596 L17.9901872,7.49484536 L9.49482101,17.9876289 Z" id="Rectangle-17" fill="#6FB046"></path>
                    <path d="M3.49809195,9.99312715 L22.9874614,9.99312715 L13.2427767,0 L3.49809195,9.99312715 Z" id="Rectangle-8" fill="#80C256"></path>
                    <path d="M3.49809195,9.99312715 L12.992913,4.99656357 L12.992913,0 L3.49809195,9.99312715 Z" id="Rectangle-10" fill="#79BE4E"></path>
                    <path d="M22.487734,9.99312715 L12.992913,5.08426935 L12.992913,0 L22.487734,9.99312715 Z" id="Rectangle-11" fill="#88C363"></path>
                    <path d="M22.487734,9.99312715 L13.0110461,4.99656357 L10.9940033,9.99312715 L22.487734,9.99312715 Z" id="Rectangle-15" fill="#84CB57"></path>
                    <rect id="Rectangle-13" fill="#A3856A" x="9.49482101" y="35.4756014" width="6.49645648" height="9.49347079"></rect>
                    <path d="M9.49482101,35.4756014 L9.49482101,38.3828707 L15.9912775,42.4707904 L15.9912775,35.4756014 L9.49482101,35.4756014 Z" id="Rectangle-14" fill="#94765B"></path>
                </g>
                <g id="tree-13" transform="translate(1978.420861, 327.274914)" sketch:type="MSShapeGroup">
                    <path d="M3.85464678,33.9766323 L0,47.9670103 L34.9809195,47.9670103 L31.1262727,33.9766323 L3.85464678,33.9766323 Z" id="Rectangle-9" fill="#5EA034"></path>
                    <path d="M3.9025439,33.9766323 L0,47.9670103 L18.989642,47.9670103 L3.9025439,33.9766323 Z" id="Rectangle-25" fill="#538534"></path>
                    <path d="M3.9025439,33.9766323 L0,47.9670103 L9.49482101,39.4255931 L3.9025439,33.9766323 Z" id="Rectangle-31" fill="#528134"></path>
                    <path d="M3.99781937,33.9766323 L18.989642,35.4656603 L18.989642,47.9670103 L3.99781937,33.9766323 Z" id="Rectangle-26" fill="#558C33"></path>
                    <path d="M9.49482101,39.2416267 L18.989642,35.4756014 L18.989642,47.9670103 L9.49482101,39.2416267 Z" id="Rectangle-32" fill="#5C923A"></path>
                    <path d="M31.4828275,35.4756014 L18.989642,35.4756014 L18.989642,47.9670103 L31.4828275,35.4756014 Z" id="Rectangle-27" fill="#589631"></path>
                    <path d="M25.4860985,35.4756014 L18.989642,35.4756014 L18.989642,47.9670103 L25.4860985,35.4756014 Z" id="Rectangle-30" fill="#548E30"></path>
                    <path d="M7.32002282,20.985567 L1.99890969,34.975945 L33.4817372,34.975945 L28.1606241,20.985567 L7.32002282,20.985567 Z" id="Rectangle-6" fill="#74AC50"></path>
                    <path d="M24.9863711,34.975945 L33.4817372,34.975945 L28.0327967,20.985567 L24.9863711,34.975945 Z" id="Rectangle-29" fill="#77B252"></path>
                    <path d="M7.2842483,20.985567 L1.99890969,34.975945 L27.9847356,20.985567 L7.2842483,20.985567 Z" id="Rectangle-19" fill="#6FA24F"></path>
                    <path d="M18.5129156,34.975945 L1.99890969,34.975945 L27.9847356,20.985567 L18.5129156,34.975945 Z" id="Rectangle-24" fill="#70A64E"></path>
                    <path d="M10.1914107,9.99312715 L3.49809195,23.9835052 L30.9831001,23.9835052 L24.2897813,9.99312715 L10.1914107,9.99312715 Z" id="Rectangle-7" fill="#73B34C"></path>
                    <path d="M12.992913,23.9835052 L31.4828275,23.9835052 L24.679228,9.99312715 L12.992913,23.9835052 Z" id="Rectangle-16" fill="#75B64C"></path>
                    <path d="M12.992913,23.9835052 L31.4828275,23.9835052 L28.0357033,16.9883162 L12.992913,23.9835052 Z" id="Rectangle-28" fill="#75BB4A"></path>
                    <path d="M12.992913,23.9835052 L14.695585,13.8459461 L24.4866436,9.99312715 L12.992913,23.9835052 Z" id="Rectangle-17" fill="#6FB046"></path>
                    <path d="M4.49754679,13.4907216 L30.4833727,13.4907216 L17.4904597,0 L4.49754679,13.4907216 Z" id="Rectangle-8" fill="#80C256"></path>
                    <path d="M4.49754679,13.4907216 L17.4904597,6.74536082 L17.4904597,0 L4.49754679,13.4907216 Z" id="Rectangle-10" fill="#79BE4E"></path>
                    <path d="M29.9836453,13.4907216 L17.4904597,6.86376363 L17.4904597,0 L29.9836453,13.4907216 Z" id="Rectangle-11" fill="#88C363"></path>
                    <path d="M29.9836453,13.990378 L17.2107181,6.995189 L14.4920952,13.990378 L29.9836453,13.990378 Z" id="Rectangle-15" fill="#84CB57"></path>
                    <rect id="Rectangle-13" fill="#A3856A" x="12.992913" y="47.467354" width="8.99509359" height="12.9910653"></rect>
                    <path d="M12.992913,47.467354 L12.992913,51.4129337 L21.9880065,56.9608247 L21.9880065,47.467354 L12.992913,47.467354 Z" id="Rectangle-14" fill="#94765B"></path>
                </g>
                <g id="tree-15" transform="translate(1952.934763, 172.381443)" sketch:type="MSShapeGroup">
                    <path d="M2.25772168,19.9862543 L0,27.980756 L20.4888243,27.980756 L18.2311026,19.9862543 L2.25772168,19.9862543 Z" id="Rectangle-9" fill="#5EA034"></path>
                    <path d="M2.25936752,19.9862543 L0,27.980756 L10.9940033,27.980756 L2.25936752,19.9862543 Z" id="Rectangle-25" fill="#538534"></path>
                    <path d="M2.25936752,19.9862543 L0,27.980756 L5.49700164,23.0999462 L2.25936752,19.9862543 Z" id="Rectangle-31" fill="#528134"></path>
                    <path d="M2.49863711,19.9862543 L11.4937307,20.8371274 L11.4937307,27.980756 L2.49863711,19.9862543 Z" id="Rectangle-26" fill="#558C33"></path>
                    <path d="M5.49700164,23.2451822 L10.9940033,20.985567 L10.9940033,28.4804124 L5.49700164,23.2451822 Z" id="Rectangle-32" fill="#5C923A"></path>
                    <path d="M18.4899146,20.985567 L10.9940033,20.985567 L10.9940033,28.4804124 L18.4899146,20.985567 Z" id="Rectangle-27" fill="#589631"></path>
                    <path d="M14.9918226,20.985567 L10.9940033,20.985567 L10.9940033,28.4804124 L14.9918226,20.985567 Z" id="Rectangle-30" fill="#548E30"></path>
                    <path d="M4.12455303,12.4914089 L0.999454843,20.4859107 L19.4893694,20.4859107 L16.3642712,12.4914089 L4.12455303,12.4914089 Z" id="Rectangle-6" fill="#74AC50"></path>
                    <path d="M14.4920952,20.4859107 L19.4893694,20.4859107 L16.2841103,12.4914089 L14.4920952,20.4859107 Z" id="Rectangle-29" fill="#77B252"></path>
                    <path d="M4.04868866,12.4914089 L0.999454843,20.4859107 L15.9912775,12.4914089 L4.04868866,12.4914089 Z" id="Rectangle-19" fill="#6FA24F"></path>
                    <path d="M10.526766,20.4859107 L0.999454843,20.4859107 L15.9912775,12.4914089 L10.526766,20.4859107 Z" id="Rectangle-24" fill="#70A64E"></path>
                    <path d="M5.89320426,5.99587629 L1.99890969,13.990378 L17.9901872,13.990378 L14.0958926,5.99587629 L5.89320426,5.99587629 Z" id="Rectangle-7" fill="#73B34C"></path>
                    <path d="M7.49591132,13.990378 L18.4899146,13.990378 L14.4445311,5.99587629 L7.49591132,13.990378 Z" id="Rectangle-16" fill="#75B64C"></path>
                    <path d="M7.49591132,13.990378 L18.4899146,13.990378 L16.4402732,9.99312715 L7.49591132,13.990378 Z" id="Rectangle-28" fill="#75BB4A"></path>
                    <path d="M7.49591132,13.990378 L8.45829119,8.19748711 L13.9923678,5.99587629 L7.49591132,13.990378 Z" id="Rectangle-17" fill="#6FB046"></path>
                    <path d="M2.49863711,7.99450172 L17.4904597,7.99450172 L9.99454843,0 L2.49863711,7.99450172 Z" id="Rectangle-8" fill="#80C256"></path>
                    <path d="M2.49863711,7.99450172 L9.99454843,3.99725086 L9.99454843,0 L2.49863711,7.99450172 Z" id="Rectangle-10" fill="#79BE4E"></path>
                    <path d="M17.9901872,7.99450172 L10.4942758,4.06741548 L10.4942758,0 L17.9901872,7.99450172 Z" id="Rectangle-11" fill="#88C363"></path>
                    <path d="M17.4904597,7.99450172 L10.0739214,3.99725086 L8.49536616,7.99450172 L17.4904597,7.99450172 Z" id="Rectangle-15" fill="#84CB57"></path>
                    <rect id="Rectangle-13" fill="#A3856A" x="7.49591132" y="27.980756" width="5.49700164" height="7.49484536"></rect>
                    <path d="M7.49591132,27.980756 L7.49591132,30.265039 L12.992913,33.4769759 L12.992913,27.980756 L7.49591132,27.980756 Z" id="Rectangle-14" fill="#94765B"></path>
                </g>
                <g id="tree-14" transform="translate(2075.367981, 472.175258)" sketch:type="MSShapeGroup">
                    <path d="M4.95597443,43.4701031 L0,61.457732 L44.9754679,61.457732 L40.0194935,43.4701031 L4.95597443,43.4701031 Z" id="Rectangle-9" fill="#5EA034"></path>
                    <path d="M4.92952914,43.4701031 L0,61.457732 L23.9869162,61.457732 L4.92952914,43.4701031 Z" id="Rectangle-25" fill="#538534"></path>
                    <path d="M4.92952914,43.4701031 L0,61.457732 L11.9934581,50.4759098 L4.92952914,43.4701031 Z" id="Rectangle-31" fill="#528134"></path>
                    <path d="M4.99727421,43.4701031 L23.9869162,45.3845677 L23.9869162,61.457732 L4.99727421,43.4701031 Z" id="Rectangle-26" fill="#558C33"></path>
                    <path d="M11.9934581,50.2892409 L23.9869162,45.4687285 L23.9869162,61.457732 L11.9934581,50.2892409 Z" id="Rectangle-32" fill="#5C923A"></path>
                    <path d="M39.9781937,45.4687285 L23.9869162,45.4687285 L23.9869162,61.457732 L39.9781937,45.4687285 Z" id="Rectangle-27" fill="#589631"></path>
                    <path d="M31.982555,45.4687285 L23.9869162,45.4687285 L23.9869162,61.457732 L31.982555,45.4687285 Z" id="Rectangle-30" fill="#548E30"></path>
                    <path d="M9.34006828,26.9814433 L2.49863711,44.9690722 L42.9765582,44.9690722 L36.1351271,26.9814433 L9.34006828,26.9814433 Z" id="Rectangle-6" fill="#74AC50"></path>
                    <path d="M32.4822824,44.9690722 L43.4762857,44.9690722 L36.4247156,26.9814433 L32.4822824,44.9690722 Z" id="Rectangle-29" fill="#77B252"></path>
                    <path d="M9.30859263,26.9814433 L2.49863711,44.9690722 L35.9803743,26.9814433 L9.30859263,26.9814433 Z" id="Rectangle-19" fill="#6FA24F"></path>
                    <path d="M23.7762986,44.9690722 L2.49863711,44.9690722 L35.9803743,26.9814433 L23.7762986,44.9690722 Z" id="Rectangle-24" fill="#70A64E"></path>
                    <path d="M13.0163162,12.4914089 L4.49754679,30.4790378 L39.4784663,30.4790378 L30.9596969,12.4914089 L13.0163162,12.4914089 Z" id="Rectangle-7" fill="#73B34C"></path>
                    <path d="M16.4910049,30.4790378 L39.9781937,30.4790378 L31.3357835,12.4914089 L16.4910049,30.4790378 Z" id="Rectangle-16" fill="#75B64C"></path>
                    <path d="M16.4910049,31.4783505 L39.9781937,31.4783505 L35.5994143,21.9848797 L16.4910049,31.4783505 Z" id="Rectangle-28" fill="#75BB4A"></path>
                    <path d="M16.4910049,30.4790378 L18.7118815,17.4450333 L31.4828275,12.4914089 L16.4910049,30.4790378 Z" id="Rectangle-17" fill="#6FB046"></path>
                    <path d="M5.99672906,17.4879725 L39.4784663,17.4879725 L22.7375977,0 L5.99672906,17.4879725 Z" id="Rectangle-8" fill="#80C256"></path>
                    <path d="M5.99672906,17.4879725 L22.487734,8.74398625 L22.487734,0 L5.99672906,17.4879725 Z" id="Rectangle-10" fill="#79BE4E"></path>
                    <path d="M38.4790114,17.4879725 L22.487734,8.89747137 L22.487734,0 L38.4790114,17.4879725 Z" id="Rectangle-11" fill="#88C363"></path>
                    <path d="M38.4790114,18.9869416 L21.9978151,9.49347079 L18.4899146,18.9869416 L38.4790114,18.9869416 Z" id="Rectangle-15" fill="#84CB57"></path>
                    <rect id="Rectangle-13" fill="#A3856A" x="16.4910049" y="60.4584192" width="11.4937307" height="16.9883162"></rect>
                    <path d="M16.4910049,60.4584192 L16.4910049,65.4423095 L27.9847356,72.4501718 L27.9847356,60.4584192 L16.4910049,60.4584192 Z" id="Rectangle-14" fill="#94765B"></path>
                </g>
                <g id="tree-11" transform="translate(1666.091223, 365.248797)" sketch:type="MSShapeGroup">
                    <path d="M4.12997869,36.4749141 L0,51.4646048 L37.4795566,51.4646048 L33.3495779,36.4749141 L4.12997869,36.4749141 Z" id="Rectangle-9" fill="#5EA034"></path>
                    <path d="M4.21063947,36.4749141 L0,51.4646048 L20.4888243,51.4646048 L4.21063947,36.4749141 Z" id="Rectangle-25" fill="#538534"></path>
                    <path d="M4.10794095,36.4749141 L0,51.4646048 L9.99454843,42.3130863 L4.10794095,36.4749141 Z" id="Rectangle-31" fill="#528134"></path>
                    <path d="M3.99781937,36.4749141 L20.4888243,38.0703012 L20.4888243,51.4646048 L3.99781937,36.4749141 Z" id="Rectangle-26" fill="#558C33"></path>
                    <path d="M9.99454843,42.5408468 L19.9890969,38.4735395 L19.9890969,51.9642612 L9.99454843,42.5408468 Z" id="Rectangle-32" fill="#5C923A"></path>
                    <path d="M33.9814647,38.4735395 L20.4888243,38.4735395 L20.4888243,51.9642612 L33.9814647,38.4735395 Z" id="Rectangle-27" fill="#589631"></path>
                    <path d="M27.4850082,38.4735395 L20.4888243,38.4735395 L20.4888243,51.9642612 L27.4850082,38.4735395 Z" id="Rectangle-30" fill="#548E30"></path>
                    <path d="M7.74233338,22.4845361 L1.99890969,37.4742268 L35.9803743,37.4742268 L30.2369506,22.4845361 L7.74233338,22.4845361 Z" id="Rectangle-6" fill="#74AC50"></path>
                    <path d="M26.4855533,37.4742268 L35.4806469,37.4742268 L29.7111805,22.4845361 L26.4855533,37.4742268 Z" id="Rectangle-29" fill="#77B252"></path>
                    <path d="M7.69081281,22.4845361 L1.99890969,37.4742268 L29.9836453,22.4845361 L7.69081281,22.4845361 Z" id="Rectangle-19" fill="#6FA24F"></path>
                    <path d="M19.7832238,37.4742268 L1.99890969,37.4742268 L29.9836453,22.4845361 L19.7832238,37.4742268 Z" id="Rectangle-24" fill="#70A64E"></path>
                    <path d="M11.177925,10.9924399 L3.99781937,25.9821306 L33.4817372,25.9821306 L26.3016316,10.9924399 L11.177925,10.9924399 Z" id="Rectangle-7" fill="#73B34C"></path>
                    <path d="M13.4926404,25.9821306 L33.4817372,25.9821306 L26.1264945,10.9924399 L13.4926404,25.9821306 Z" id="Rectangle-16" fill="#75B64C"></path>
                    <path d="M13.4926404,25.9821306 L33.4817372,25.9821306 L29.7551164,18.4872852 L13.4926404,25.9821306 Z" id="Rectangle-28" fill="#75BB4A"></path>
                    <path d="M13.4926404,25.9821306 L15.3433709,15.1204602 L25.9858259,10.9924399 L13.4926404,25.9821306 Z" id="Rectangle-17" fill="#6FB046"></path>
                    <path d="M4.99727421,14.4900344 L32.9820098,14.4900344 L18.989642,0 L4.99727421,14.4900344 Z" id="Rectangle-8" fill="#80C256"></path>
                    <path d="M4.99727421,14.4900344 L18.4899146,7.24501718 L18.4899146,0 L4.99727421,14.4900344 Z" id="Rectangle-10" fill="#79BE4E"></path>
                    <path d="M32.4822824,14.4900344 L18.989642,7.37219056 L18.989642,0 L32.4822824,14.4900344 Z" id="Rectangle-11" fill="#88C363"></path>
                    <path d="M31.982555,14.9896907 L18.385568,7.49484536 L15.4915501,14.9896907 L31.982555,14.9896907 Z" id="Rectangle-15" fill="#84CB57"></path>
                    <rect id="Rectangle-13" fill="#A3856A" x="13.4926404" y="50.9649485" width="9.49482101" height="13.990378"></rect>
                    <path d="M13.4926404,50.9649485 L13.4926404,55.1181903 L22.9874614,60.9580756 L22.9874614,50.9649485 L13.4926404,50.9649485 Z" id="Rectangle-14" fill="#94765B"></path>
                </g>
            </g>
        </g>
    </g>
</svg>