<svg width="2037" height="1197" viewBox="0 0 2037 1197" xmlns="http://www.w3.org/2000/svg" xmlns:sketch="http://www.bohemiancoding.com/sketch/ns"><title>sky</title><g sketch:type="MSLayerGroup" fill="none"><path d="M191 161v-5.45l148.056-155.55h4.944v113.057l-153 47.943z" fill="#97DFFF" sketch:type="MSShapeGroup"/><path d="M293.123 230l-100.123 73.008 151 180.992v-254h-50.877z" fill="#A1E0FD" sketch:type="MSShapeGroup"/><path d="M2 484v-150l113 150h-113z" fill="#AEE2FA" sketch:type="MSShapeGroup"/><path d="M195 303l-194 30.981 112.861 150.019 81.139-181z" fill="#97DFFF" sketch:type="MSShapeGroup"/><path d="M194.379 303l150.621 181h-232l81.379-181z" fill="#BDEBFF" sketch:type="MSShapeGroup"/><path d="M195.065 305l-192.065-74h341l-148.935 74z" fill="#BDEBFF" sketch:type="MSShapeGroup"/><path d="M191.978 159l152.022-159-7.245.663-188.755 64.747 43.978 93.59z" fill="#A1E0FD" sketch:type="MSShapeGroup"/><path d="M194.141 158l-191.141 74h341l-149.859-74z" fill="#B2E7FF" sketch:type="MSShapeGroup"/><path d="M2 0v116l154-50.567-154-65.433z" fill="#C2ECFF" sketch:type="MSShapeGroup"/><path d="M1 1h344l-190.329 65-153.671-65z" fill="#CEF0FF" sketch:type="MSShapeGroup"/><path d="M194 158.521l150-46.521v122l-150-75.479z" fill="#A1E0FD" sketch:type="MSShapeGroup"/><path d="M194 159.054l-191 73.946v-118l191 44.054z" fill="#A1E0FD" sketch:type="MSShapeGroup"/><path d="M196 304.071l-194 30.929v-105l194 74.071z" fill="#ADE5FF" sketch:type="MSShapeGroup"/><path d="M195 160l-195-44.37 153.859-50.63 41.141 95z" fill="#ADE5FF" sketch:type="MSShapeGroup"/><path d="M869 161v-5.45l148.056-155.55h4.944v113.057l-153 47.943z" fill="#BDEBFF" sketch:type="MSShapeGroup"/><path d="M971.123 230l-100.123 73.008 151 180.992v-254h-50.877z" fill="#A1E0FD" sketch:type="MSShapeGroup"/><path d="M680 484v-150l113 150h-113z" fill="#A1E0FD" sketch:type="MSShapeGroup"/><path d="M873 303l-194 30.981 112.861 150.019 81.139-181z" fill="#97DFFF" sketch:type="MSShapeGroup"/><path d="M872.379 303l150.621 181h-232l81.379-181z" fill="#BDEBFF" sketch:type="MSShapeGroup"/><path d="M873.065 305l-192.065-74h341l-148.935 74z" fill="#BDEBFF" sketch:type="MSShapeGroup"/><path d="M869.978 159l152.022-159-7.245.663-188.755 64.747 43.978 93.59z" fill="#ADE5FF" sketch:type="MSShapeGroup"/><path d="M872.141 158l-191.141 74h341l-149.859-74z" fill="#B2E7FF" sketch:type="MSShapeGroup"/><path d="M680 0v116l154-50.567-154-65.433z" fill="#ADE5FF" sketch:type="MSShapeGroup"/><path d="M679 1h344l-190.329 65-153.671-65z" fill="#97DFFF" sketch:type="MSShapeGroup"/><path d="M872 158.521l150-46.521v122l-150-75.479z" fill="#A1E0FD" sketch:type="MSShapeGroup"/><path d="M872 159.054l-191 73.946v-120l191 46.054z" fill="#90D9FA" sketch:type="MSShapeGroup"/><path d="M874 304.071l-194 30.929v-105l194 74.071z" fill="#ADE5FF" sketch:type="MSShapeGroup"/><path d="M873 160l-195-44.37 153.859-50.63 41.141 95z" fill="#A1E0FD" sketch:type="MSShapeGroup"/><path d="M531 161v-5.45l148.056-155.55h4.944v113.057l-153 47.943z" fill="#97DFFF" sketch:type="MSShapeGroup"/><path d="M633.123 230l-100.123 73.008 151 180.992v-254h-50.877z" fill="#97DFFF" sketch:type="MSShapeGroup"/><path d="M342 484v-150l113 150h-113z" fill="#90D9FA" sketch:type="MSShapeGroup"/><path d="M535 303l-194 30.981 112.861 150.019 81.139-181z" fill="#BDEBFF" sketch:type="MSShapeGroup"/><path d="M534.379 303l150.621 181h-232l81.379-181z" fill="#A1E0FD" sketch:type="MSShapeGroup"/><path d="M535.065 305l-192.065-74h341l-148.935 74z" fill="#A1E0FD" sketch:type="MSShapeGroup"/><path d="M531.978 159l152.022-159-7.245.663-188.755 64.747 43.978 93.59z" fill="#90D9FA" sketch:type="MSShapeGroup"/><path d="M534.141 158l-191.141 74h341l-149.859-74z" fill="#B2E7FF" sketch:type="MSShapeGroup"/><path d="M342 0v116l154-50.567-154-65.433z" fill="#ADE5FF" sketch:type="MSShapeGroup"/><path d="M341 1h344l-190.329 65-153.671-65z" fill="#90D9FA" sketch:type="MSShapeGroup"/><path d="M534 158.521l150-46.521v122l-150-75.479z" fill="#90D9FA" sketch:type="MSShapeGroup"/><path d="M534 159.054l-191 73.946v-119l191 45.054z" fill="#A1E0FD" sketch:type="MSShapeGroup"/><path d="M537 304.071l-194 30.929v-105l194 74.071z" fill="#ADE5FF" sketch:type="MSShapeGroup"/><path d="M535 160l-195-45.371 153.859-49.629 41.141 95z" fill="#B2E7FF" sketch:type="MSShapeGroup"/><path d="M1208 161v-5.45l148.056-155.55h4.944v113.057l-153 47.943z" fill="#90D9FA" sketch:type="MSShapeGroup"/><path d="M1310.123 230l-100.123 73.008 151 180.992v-254h-50.877z" fill="#A1E0FD" sketch:type="MSShapeGroup"/><path d="M1019 484v-150l113 150h-113z" fill="#90D9FA" sketch:type="MSShapeGroup"/><path d="M1212 303l-194 30.981 112.861 150.019 81.139-181z" fill="#ADE5FF" sketch:type="MSShapeGroup"/><path d="M1211.379 303l150.621 181h-232l81.379-181z" fill="#97DFFF" sketch:type="MSShapeGroup"/><path d="M1212.065 305l-192.065-74h341l-148.935 74z" fill="#97DFFF" sketch:type="MSShapeGroup"/><path d="M1208.978 159l152.022-159-7.245.663-188.755 64.747 43.978 93.59z" fill="#A1E0FD" sketch:type="MSShapeGroup"/><path d="M1211.141 158l-191.141 74h341l-149.859-74z" fill="#97DFFF" sketch:type="MSShapeGroup"/><path d="M1019 0v116l154-50.567-154-65.433z" fill="#BDEBFF" sketch:type="MSShapeGroup"/><path d="M1018 1h344l-190.329 65-153.671-65z" fill="#97DFFF" sketch:type="MSShapeGroup"/><path d="M1211 158.521l150-46.521v122l-150-75.479z" fill="#ADE5FF" sketch:type="MSShapeGroup"/><path d="M1211 159.054l-191 73.946v-118l191 44.054z" fill="#A1E0FD" sketch:type="MSShapeGroup"/><path d="M1213 304.071l-194 30.929v-105l194 74.071z" fill="#ADE5FF" sketch:type="MSShapeGroup"/><path d="M1212 160l-195-44.37 153.859-50.63 41.141 95z" fill="#ADE5FF" sketch:type="MSShapeGroup"/><path d="M1883 161v-5.45l148.056-155.55h4.944v113.057l-153 47.943z" fill="#C2ECFF" sketch:type="MSShapeGroup"/><path d="M1985.123 230l-100.123 73.008 151 180.992v-254h-50.877z" fill="#A1E0FD" sketch:type="MSShapeGroup"/><path d="M1694 484v-150l113 150h-113z" fill="#A1E0FD" sketch:type="MSShapeGroup"/><path d="M1887 303l-194 30.981 112.861 150.019 81.139-181z" fill="#90D9FA" sketch:type="MSShapeGroup"/><path d="M1886.379 303l150.621 181h-232l81.379-181z" fill="#97DFFF" sketch:type="MSShapeGroup"/><path d="M1887.065 305l-192.065-74h341l-148.935 74z" fill="#97DFFF" sketch:type="MSShapeGroup"/><path d="M1883.978 159l152.022-159-7.245.663-188.755 64.747 43.978 93.59z" fill="#ADE5FF" sketch:type="MSShapeGroup"/><path d="M1886.141 158l-191.141 74h341l-149.859-74z" fill="#B2E7FF" sketch:type="MSShapeGroup"/><path d="M1694 0v116l154-50.567-154-65.433z" fill="#ADE5FF" sketch:type="MSShapeGroup"/><path d="M1693 1h344l-190.329 65-153.671-65z" fill="#97DFFF" sketch:type="MSShapeGroup"/><path d="M1886 158.521l150-46.521v122l-150-75.479z" fill="#A1E0FD" sketch:type="MSShapeGroup"/><path d="M1886 159.054l-191 73.946v-120l191 46.054z" fill="#90D9FA" sketch:type="MSShapeGroup"/><path d="M1888 304.071l-194 30.929v-105l194 74.071z" fill="#ADE5FF" sketch:type="MSShapeGroup"/><path d="M1887 160l-195-44.37 153.859-50.63 41.141 95z" fill="#A1E0FD" sketch:type="MSShapeGroup"/><path d="M1545 161v-5.45l148.056-155.55h4.944v113.057l-153 47.943z" fill="#BDEBFF" sketch:type="MSShapeGroup"/><path d="M1647.123 230l-100.123 73.008 151 180.992v-254h-50.877z" fill="#97DFFF" sketch:type="MSShapeGroup"/><path d="M1356 484v-150l113 150h-113z" fill="#90D9FA" sketch:type="MSShapeGroup"/><path d="M1549 303l-194 30.981 112.861 150.019 81.139-181z" fill="#97DFFF" sketch:type="MSShapeGroup"/><path d="M1548.379 303l150.621 181h-232l81.379-181z" fill="#A1E0FD" sketch:type="MSShapeGroup"/><path d="M1549.065 305l-192.065-74h341l-148.935 74z" fill="#B2E7FF" sketch:type="MSShapeGroup"/><path d="M1545.978 159l152.022-159-7.245.663-188.755 64.747 43.978 93.59z" fill="#A1E0FD" sketch:type="MSShapeGroup"/><path d="M1548.141 158l-191.141 74h341l-149.859-74z" fill="#B2E7FF" sketch:type="MSShapeGroup"/><path d="M1356 0v116l154-50.567-154-65.433z" fill="#90D9FA" sketch:type="MSShapeGroup"/><path d="M1355 1h344l-190.329 65-153.671-65z" fill="#97DFFF" sketch:type="MSShapeGroup"/><path d="M1548 158.521l150-46.521v122l-150-75.479z" fill="#90D9FA" sketch:type="MSShapeGroup"/><path d="M1548 159.054l-191 73.946v-119l191 45.054z" fill="#A1E0FD" sketch:type="MSShapeGroup"/><path d="M1551 304.071l-194 30.929v-105l194 74.071z" fill="#ADE5FF" sketch:type="MSShapeGroup"/><path d="M293.123 710l-100.123 73.008 151 180.992v-254h-50.877z" fill="#A1E0FD" sketch:type="MSShapeGroup"/><path d="M2 964v-150l113 150h-113z" fill="#AEE2FA" sketch:type="MSShapeGroup"/><path d="M195 783l-194 30.981 112.861 150.019 81.139-181z" fill="#90D9FA" sketch:type="MSShapeGroup"/><path d="M194.379 783l150.621 150.391v30.609h-232l81.379-181z" fill="#90D9FA" sketch:type="MSShapeGroup"/><path d="M195.065 785l-192.065-74h341l-148.935 74z" fill="#BDEBFF" sketch:type="MSShapeGroup"/><path d="M196 784.071l-194 30.929v-105l194 74.071z" fill="#ADE5FF" sketch:type="MSShapeGroup"/><path d="M971.123 710l-100.123 73.008 151 180.992v-254h-50.877z" fill="#A1E0FD" sketch:type="MSShapeGroup"/><path d="M680 964v-150l113 150h-113z" fill="#A1E0FD" sketch:type="MSShapeGroup"/><path d="M873 783l-194 30.981 112.861 150.019 81.139-181z" fill="#97DFFF" sketch:type="MSShapeGroup"/><path d="M872.378 783l152.622 181h-234l81.378-181z" fill="#90D9FA" sketch:type="MSShapeGroup"/><path d="M873.065 785l-192.065-74h341l-148.935 74z" fill="#BDEBFF" sketch:type="MSShapeGroup"/><path d="M874 784.071l-194 30.929v-105l194 74.071z" fill="#ADE5FF" sketch:type="MSShapeGroup"/><path d="M633.123 710l-100.123 73.008 151 180.992v-254h-50.877z" fill="#97DFFF" sketch:type="MSShapeGroup"/><path d="M342 964v-150l113 150h-113z" fill="#90D9FA" sketch:type="MSShapeGroup"/><path d="M535 783l-194 30.981 112.861 150.019 81.139-181z" fill="#BDEBFF" sketch:type="MSShapeGroup"/><path d="M534.379 783l150.621 155.766v25.234h-232l81.379-181z" fill="#A1E0FD" sketch:type="MSShapeGroup"/><path d="M535.065 785l-192.065-74h341l-148.935 74z" fill="#A1E0FD" sketch:type="MSShapeGroup"/><path d="M537 784.071l-194 30.929v-105l194 74.071z" fill="#ADE5FF" sketch:type="MSShapeGroup"/><path d="M1310.123 710l-100.123 73.008 151 180.992v-254h-50.877z" fill="#A1E0FD" sketch:type="MSShapeGroup"/><path d="M1019 964v-150l113 150h-113z" fill="#90D9FA" sketch:type="MSShapeGroup"/><path d="M1212 783l-194 30.981 112.861 150.019 81.139-181z" fill="#ADE5FF" sketch:type="MSShapeGroup"/><path d="M1211.379 783l149.772 161.337.849 19.663h-232l81.379-181z" fill="#97DFFF" sketch:type="MSShapeGroup"/><path d="M1212.065 785l-192.065-74h341l-148.935 74z" fill="#97DFFF" sketch:type="MSShapeGroup"/><path d="M1213 784.071l-194 30.929v-105l194 74.071z" fill="#ADE5FF" sketch:type="MSShapeGroup"/><path d="M1985.123 710l-100.123 73.008 151 180.992v-254h-50.877z" fill="#A1E0FD" sketch:type="MSShapeGroup"/><path d="M1694 964v-150l113 150h-113z" fill="#A1E0FD" sketch:type="MSShapeGroup"/><path d="M1887 783l-194 30.981 112.861 150.019 81.139-181z" fill="#90D9FA" sketch:type="MSShapeGroup"/><path d="M1886.379 783l150.621 181h-232l81.379-181z" fill="#90D9FA" sketch:type="MSShapeGroup"/><path d="M1887.065 785l-192.065-74h341l-148.935 74z" fill="#97DFFF" sketch:type="MSShapeGroup"/><path d="M1888 784.071l-194 30.929v-105l194 74.071z" fill="#ADE5FF" sketch:type="MSShapeGroup"/><path d="M1647.123 710l-100.123 73.008 151 180.992v-254h-50.877z" fill="#97DFFF" sketch:type="MSShapeGroup"/><path d="M1356 964v-150l113 150h-113z" fill="#90D9FA" sketch:type="MSShapeGroup"/><path d="M1549 783l-194 30.981 112.861 150.019 81.139-181z" fill="#97DFFF" sketch:type="MSShapeGroup"/><path d="M1548.379 783l150.621 158.196v22.804h-232l81.379-181z" fill="#90D9FA" sketch:type="MSShapeGroup"/><path d="M1549.065 785l-192.065-74h341l-148.935 74z" fill="#B2E7FF" sketch:type="MSShapeGroup"/><path d="M1551 784.071l-194 30.929v-105l194 74.071z" fill="#ADE5FF" sketch:type="MSShapeGroup"/><path d="M1549 160l-195-45.371 153.859-49.629 41.141 95z" fill="#B2E7FF" sketch:type="MSShapeGroup"/><path d="M191 1123v-5.45l148.056-155.55h4.944v113.057l-153 47.943z" fill="#97DFFF" sketch:type="MSShapeGroup"/><path d="M191.978 1121l152.022-159-7.245.663-188.755 64.747 43.978 93.59z" fill="#A1E0FD" sketch:type="MSShapeGroup"/><path d="M194.141 1120l-191.141 74h341l-149.859-74z" fill="#B2E7FF" sketch:type="MSShapeGroup"/><path d="M2 962v116l154-50.567-154-65.433z" fill="#C2ECFF" sketch:type="MSShapeGroup"/><path d="M1 963h344l-190.329 65-153.671-65z" fill="#97DFFF" sketch:type="MSShapeGroup"/><path d="M194 1120.52l150-46.52v123l-150-76.48z" fill="#A1E0FD" sketch:type="MSShapeGroup"/><path d="M194 1121.054l-191 73.946v-118l191 44.054z" fill="#90D9FA" sketch:type="MSShapeGroup"/><path d="M195 1122l-195-44.37 153.859-50.63 41.141 95z" fill="#ADE5FF" sketch:type="MSShapeGroup"/><path d="M869 1123v-5.45l148.056-155.55h4.944v113.057l-153 47.943z" fill="#90D9FA" sketch:type="MSShapeGroup"/><path d="M869.978 1121l152.022-159-7.245.663-188.755 64.747 43.978 93.59z" fill="#ADE5FF" sketch:type="MSShapeGroup"/><path d="M872.141 1120l-191.141 74h341l-149.859-74z" fill="#B2E7FF" sketch:type="MSShapeGroup"/><path d="M680 962v116l154-50.567-154-65.433z" fill="#ADE5FF" sketch:type="MSShapeGroup"/><path d="M679 963h344l-190.329 65-153.671-65z" fill="#90D9FA" sketch:type="MSShapeGroup"/><path d="M872 1120.521l150-46.521v122l-150-75.479z" fill="#A1E0FD" sketch:type="MSShapeGroup"/><path d="M872 1121.054l-191 73.946v-120l191 46.054z" fill="#90D9FA" sketch:type="MSShapeGroup"/><path d="M873 1122l-195-44.37 153.859-50.63 41.141 95z" fill="#A1E0FD" sketch:type="MSShapeGroup"/><path d="M531 1123v-5.45l148.056-155.55h4.944v113.057l-153 47.943z" fill="#97DFFF" sketch:type="MSShapeGroup"/><path d="M531.978 1121l152.022-159-7.245.663-188.755 64.747 43.978 93.59z" fill="#90D9FA" sketch:type="MSShapeGroup"/><path d="M534.141 1119.687l-23.083-.687-168.058 75h341l-149.859-74.313z" fill="#B2E7FF" sketch:type="MSShapeGroup"/><path d="M342 962v116l154-50.567-154-65.433z" fill="#ADE5FF" sketch:type="MSShapeGroup"/><path d="M341 963h344l-190.329 65-153.671-65z" fill="#90D9FA" sketch:type="MSShapeGroup"/><path d="M534 1120.521l150-46.521v122l-150-75.479z" fill="#90D9FA" sketch:type="MSShapeGroup"/><path d="M534 1121.054l-191 72.946v-118l191 45.054z" fill="#A1E0FD" sketch:type="MSShapeGroup"/><path d="M535 1122l-195-45.371 153.859-49.629 41.141 95z" fill="#B2E7FF" sketch:type="MSShapeGroup"/><path d="M1208 1123v-5.45l148.056-155.55h4.944v113.057l-153 47.943z" fill="#90D9FA" sketch:type="MSShapeGroup"/><path d="M1208.978 1121l152.022-159-7.245.663-188.755 64.747 43.978 93.59z" fill="#A1E0FD" sketch:type="MSShapeGroup"/><path d="M1211.141 1120l-191.141 74h341l-149.859-74z" fill="#97DFFF" sketch:type="MSShapeGroup"/><path d="M1019 962v116l154-50.567-154-65.433z" fill="#90D9FA" sketch:type="MSShapeGroup"/><path d="M1018 963h344l-190.329 65-153.671-65z" fill="#90D9FA" sketch:type="MSShapeGroup"/><path d="M1211 1120.521l150-46.521v122l-150-75.479z" fill="#ADE5FF" sketch:type="MSShapeGroup"/><path d="M1211 1121.054l-191 73.946v-118l191 44.054z" fill="#A1E0FD" sketch:type="MSShapeGroup"/><path d="M1212 1122l-195-44.37 153.859-50.63 41.141 95z" fill="#ADE5FF" sketch:type="MSShapeGroup"/><path d="M1883 1123v-5.45l148.056-155.55h4.944v113.057l-153 47.943z" fill="#90D9FA" sketch:type="MSShapeGroup"/><path d="M1883.978 1121l152.022-159-7.245.663-188.755 64.747 43.978 93.59z" fill="#ADE5FF" sketch:type="MSShapeGroup"/><path d="M1886.141 1120l-191.141 74h341l-149.859-74z" fill="#B2E7FF" sketch:type="MSShapeGroup"/><path d="M1694 962v116l154-50.567-154-65.433z" fill="#ADE5FF" sketch:type="MSShapeGroup"/><path d="M1693 963h344l-190.329 65-153.671-65z" fill="#97DFFF" sketch:type="MSShapeGroup"/><path d="M1886 1120.521l150-46.521v122l-150-75.479z" fill="#90D9FA" sketch:type="MSShapeGroup"/><path d="M1886 1121.054l-191 73.946v-120l191 46.054z" fill="#BDEBFF" sketch:type="MSShapeGroup"/><path d="M1887 1122l-195-44.37 153.859-50.63 41.141 95z" fill="#A1E0FD" sketch:type="MSShapeGroup"/><path d="M1545 1123v-5.45l148.056-155.55h4.944v113.057l-153 47.943z" fill="#BDEBFF" sketch:type="MSShapeGroup"/><path d="M1545.978 1121l152.022-159-7.245.663-188.755 64.747 43.978 93.59z" fill="#A1E0FD" sketch:type="MSShapeGroup"/><path d="M1548.141 1120l-191.141 74h341l-149.859-74z" fill="#90D9FA" sketch:type="MSShapeGroup"/><path d="M1356 962v116l154-50.567-154-65.433z" fill="#90D9FA" sketch:type="MSShapeGroup"/><path d="M1355 963h344l-190.329 65-153.671-65z" fill="#97DFFF" sketch:type="MSShapeGroup"/><path d="M1548 1120.521l150-46.521v122l-150-75.479z" fill="#90D9FA" sketch:type="MSShapeGroup"/><path d="M1548 1121.054l-191 73.946v-119l191 45.054z" fill="#A1E0FD" sketch:type="MSShapeGroup"/><path d="M1549 1122l-195-45.371 153.859-49.629 41.141 95z" fill="#B2E7FF" sketch:type="MSShapeGroup"/><path d="M191 643v-5.45l148.056-155.55h4.944v113.057l-153 47.943z" fill="#97DFFF" sketch:type="MSShapeGroup"/><path d="M191.978 641l152.022-159-7.245.663-188.755 64.747 43.978 93.59z" fill="#A1E0FD" sketch:type="MSShapeGroup"/><path d="M194.141 640l-191.141 74h341l-149.859-74z" fill="#B2E7FF" sketch:type="MSShapeGroup"/><path d="M2 482v116l154-50.567-154-65.433z" fill="#C2ECFF" sketch:type="MSShapeGroup"/><path d="M1 483h344l-190.329 65-153.671-65z" fill="#90D9FA" sketch:type="MSShapeGroup"/><path d="M194 640.521l150-46.521v122l-150-75.479z" fill="#A1E0FD" sketch:type="MSShapeGroup"/><path d="M194 641.054l-191 73.946v-118l191 44.054z" fill="#A1E0FD" sketch:type="MSShapeGroup"/><path d="M195 642l-195-44.37 153.859-50.63 41.141 95z" fill="#ADE5FF" sketch:type="MSShapeGroup"/><path d="M869 643v-5.45l148.056-155.55h4.944v113.057l-153 47.943z" fill="#BDEBFF" sketch:type="MSShapeGroup"/><path d="M869.978 641l152.022-159-7.245.663-188.755 64.747 43.978 93.59z" fill="#ADE5FF" sketch:type="MSShapeGroup"/><path d="M872.141 640l-191.141 74h341l-149.859-74z" fill="#B2E7FF" sketch:type="MSShapeGroup"/><path d="M680 482v116l154-50.567-154-65.433z" fill="#ADE5FF" sketch:type="MSShapeGroup"/><path d="M679 483h344l-190.329 65-153.671-65z" fill="#90D9FA" sketch:type="MSShapeGroup"/><path d="M872 640.521l150-46.521v122l-150-75.479z" fill="#A1E0FD" sketch:type="MSShapeGroup"/><path d="M872 641.054l-191 73.946v-120l191 46.054z" fill="#ADE5FF" sketch:type="MSShapeGroup"/><path d="M873 642l-195-44.37 153.859-50.63 41.141 95z" fill="#A1E0FD" sketch:type="MSShapeGroup"/><path d="M531 643v-5.45l148.056-155.55h4.944v113.057l-153 47.943z" fill="#97DFFF" sketch:type="MSShapeGroup"/><path d="M531.978 641l152.022-159-7.245.663-188.755 64.747 43.978 93.59z" fill="#A1E0FD" sketch:type="MSShapeGroup"/><path d="M534.141 640l-191.141 74h341l-149.859-74z" fill="#B2E7FF" sketch:type="MSShapeGroup"/><path d="M342 482v116l154-50.567-154-65.433z" fill="#ADE5FF" sketch:type="MSShapeGroup"/><path d="M341 483h344l-190.329 65-153.671-65z" fill="#90D9FA" sketch:type="MSShapeGroup"/><path d="M534 640.521l150-46.521v122l-150-75.479z" fill="#ADE5FF" sketch:type="MSShapeGroup"/><path d="M534 641.054l-191 73.946v-119l191 45.054z" fill="#A1E0FD" sketch:type="MSShapeGroup"/><path d="M535 642l-195-45.371 153.859-49.629 41.141 95z" fill="#B2E7FF" sketch:type="MSShapeGroup"/><path d="M1208 643v-5.45l148.056-155.55h4.944v113.057l-153 47.943z" fill="#BDEBFF" sketch:type="MSShapeGroup"/><path d="M1208.978 641l152.022-159-7.245.663-188.755 64.747 43.978 93.59z" fill="#A1E0FD" sketch:type="MSShapeGroup"/><path d="M1211.141 640l-191.141 74h341l-149.859-74z" fill="#C2ECFF" sketch:type="MSShapeGroup"/><path d="M1019 482v116l154-50.567-154-65.433z" fill="#97DFFF" sketch:type="MSShapeGroup"/><path d="M1018 483h344l-190.329 65-153.671-65z" fill="#90D9FA" sketch:type="MSShapeGroup"/><path d="M1211 640.521l150-46.521v122l-150-75.479z" fill="#ADE5FF" sketch:type="MSShapeGroup"/><path d="M1211 641.054l-191 73.946v-118l191 44.054z" fill="#A1E0FD" sketch:type="MSShapeGroup"/><path d="M1212 642l-195-44.37 153.859-50.63 41.141 95z" fill="#ADE5FF" sketch:type="MSShapeGroup"/><path d="M1883 643v-5.45l148.056-155.55h4.944v113.057l-153 47.943z" fill="#BDEBFF" sketch:type="MSShapeGroup"/><path d="M1883.978 641l152.022-159-7.245.663-188.755 64.747 43.978 93.59z" fill="#ADE5FF" sketch:type="MSShapeGroup"/><path d="M1886.141 640l-191.141 74h341l-149.859-74z" fill="#B2E7FF" sketch:type="MSShapeGroup"/><path d="M1694 482v116l154-50.567-154-65.433z" fill="#ADE5FF" sketch:type="MSShapeGroup"/><path d="M1693 483h344l-190.329 65-153.671-65z" fill="#90D9FA" sketch:type="MSShapeGroup"/><path d="M1886 640.521l150-46.521v122l-150-75.479z" fill="#A1E0FD" sketch:type="MSShapeGroup"/><path d="M1886 641.054l-191 73.946v-120l191 46.054z" fill="#BDEBFF" sketch:type="MSShapeGroup"/><path d="M1887 642l-195-44.37 153.859-50.63 41.141 95z" fill="#A1E0FD" sketch:type="MSShapeGroup"/><path d="M1545 643v-5.45l148.056-155.55h4.944v113.057l-153 47.943z" fill="#BDEBFF" sketch:type="MSShapeGroup"/><path d="M1545.978 641l152.022-159-7.245.663-188.755 64.747 43.978 93.59z" fill="#A1E0FD" sketch:type="MSShapeGroup"/><path d="M1548.141 640l-191.141 74h341l-149.859-74z" fill="#B2E7FF" sketch:type="MSShapeGroup"/><path d="M1356 482v116l154-50.567-154-65.433z" fill="#BDEBFF" sketch:type="MSShapeGroup"/><path d="M1355 483h344l-190.329 65-153.671-65z" fill="#90D9FA" sketch:type="MSShapeGroup"/><path d="M1548 640.521l150-46.521v122l-150-75.479z" fill="#BDEBFF" sketch:type="MSShapeGroup"/><path d="M1548 641.054l-191 73.946v-119l191 45.054z" fill="#A1E0FD" sketch:type="MSShapeGroup"/><path d="M1549 642l-195-45.371 153.859-49.629 41.141 95z" fill="#B2E7FF" sketch:type="MSShapeGroup"/></g></svg>