<svg width="2046" height="1446" viewBox="0 0 2046 1446" xmlns="http://www.w3.org/2000/svg" xmlns:sketch="http://www.bohemiancoding.com/sketch/ns"><title>Sky</title><g sketch:type="MSLayerGroup" fill="none"><path d="M191 161v-5.45l148.056-155.55h4.944v113.057l-153 47.943z" fill="#97DFFF" sketch:type="MSShapeGroup"/><path d="M293.123 230l-100.123 73.008 151 180.992v-254h-50.877z" fill="#A1E0FD" sketch:type="MSShapeGroup"/><path d="M2 484v-150l113 150h-113z" fill="#AEE2FA" sketch:type="MSShapeGroup"/><path d="M195 303l-194 30.981 112.861 150.019 81.139-181z" fill="#97DFFF" sketch:type="MSShapeGroup"/><path d="M194.379 303l150.621 181h-232l81.379-181z" fill="#BDEBFF" sketch:type="MSShapeGroup"/><path d="M195.065 305l-192.065-74h341l-148.935 74z" fill="#BDEBFF" sketch:type="MSShapeGroup"/><path d="M191.978 159l152.022-159-7.245.663-188.755 64.747 43.978 93.59z" fill="#A1E0FD" sketch:type="MSShapeGroup"/><path d="M194.141 158l-191.141 74h341l-149.859-74z" fill="#B2E7FF" sketch:type="MSShapeGroup"/><path d="M2 0v116l154-50.567-154-65.433z" fill="#C2ECFF" sketch:type="MSShapeGroup"/><path d="M1 1h344l-190.329 65-153.671-65z" fill="#CEF0FF" sketch:type="MSShapeGroup"/><path d="M194 158.521l150-46.521v122l-150-75.479z" fill="#A1E0FD" sketch:type="MSShapeGroup"/><path d="M194 159.054l-191 73.946v-118l191 44.054z" fill="#A1E0FD" sketch:type="MSShapeGroup"/><path d="M196 304.071l-194 30.929v-105l194 74.071z" fill="#ADE5FF" sketch:type="MSShapeGroup"/><path d="M195 160l-195-44.37 153.859-50.63 41.141 95z" fill="#ADE5FF" sketch:type="MSShapeGroup"/><path d="M871 161v-5.45l148.056-155.55h4.944v113.057l-153 47.943z" fill="#BDEBFF" sketch:type="MSShapeGroup"/><path d="M973.123 230l-100.123 73.008 151 180.992v-254h-50.877z" fill="#A1E0FD" sketch:type="MSShapeGroup"/><path d="M682 484v-150l113 150h-113z" fill="#A1E0FD" sketch:type="MSShapeGroup"/><path d="M875 303l-194 30.981 112.861 150.019 81.139-181z" fill="#97DFFF" sketch:type="MSShapeGroup"/><path d="M874.379 303l150.621 181h-232l81.379-181z" fill="#BDEBFF" sketch:type="MSShapeGroup"/><path d="M875.065 305l-192.065-74h341l-148.935 74z" fill="#BDEBFF" sketch:type="MSShapeGroup"/><path d="M871.978 159l152.022-159-7.245.663-188.755 64.747 43.978 93.59z" fill="#ADE5FF" sketch:type="MSShapeGroup"/><path d="M874.141 158l-191.141 74h341l-149.859-74z" fill="#B2E7FF" sketch:type="MSShapeGroup"/><path d="M682 0v116l154-50.567-154-65.433z" fill="#ADE5FF" sketch:type="MSShapeGroup"/><path d="M681 1h344l-190.329 65-153.671-65z" fill="#97DFFF" sketch:type="MSShapeGroup"/><path d="M874 158.521l150-46.521v122l-150-75.479z" fill="#A1E0FD" sketch:type="MSShapeGroup"/><path d="M874 159.054l-191 73.946v-120l191 46.054z" fill="#90D9FA" sketch:type="MSShapeGroup"/><path d="M876 304.071l-194 30.929v-105l194 74.071z" fill="#ADE5FF" sketch:type="MSShapeGroup"/><path d="M875 160l-195-44.37 153.859-50.63 41.141 95z" fill="#A1E0FD" sketch:type="MSShapeGroup"/><path d="M532 161v-5.45l148.056-155.55h4.944v113.057l-153 47.943z" fill="#97DFFF" sketch:type="MSShapeGroup"/><path d="M634.123 230l-100.123 73.008 151 180.992v-254h-50.877z" fill="#97DFFF" sketch:type="MSShapeGroup"/><path d="M343 484v-150l113 150h-113z" fill="#90D9FA" sketch:type="MSShapeGroup"/><path d="M536 303l-194 30.981 112.861 150.019 81.139-181z" fill="#BDEBFF" sketch:type="MSShapeGroup"/><path d="M535.379 303l150.621 181h-232l81.379-181z" fill="#A1E0FD" sketch:type="MSShapeGroup"/><path d="M536.065 305l-192.065-74h341l-148.935 74z" fill="#A1E0FD" sketch:type="MSShapeGroup"/><path d="M532.978 159l152.022-159-7.245.663-188.755 64.747 43.978 93.59z" fill="#90D9FA" sketch:type="MSShapeGroup"/><path d="M535.141 158l-191.141 74h341l-149.859-74z" fill="#B2E7FF" sketch:type="MSShapeGroup"/><path d="M343 0v116l154-50.567-154-65.433z" fill="#ADE5FF" sketch:type="MSShapeGroup"/><path d="M342 1h344l-190.329 65-153.671-65z" fill="#90D9FA" sketch:type="MSShapeGroup"/><path d="M535 158.521l150-46.521v122l-150-75.479z" fill="#90D9FA" sketch:type="MSShapeGroup"/><path d="M535 159.054l-191 73.946v-119l191 45.054z" fill="#A1E0FD" sketch:type="MSShapeGroup"/><path d="M538 304.071l-194 30.929v-105l194 74.071z" fill="#ADE5FF" sketch:type="MSShapeGroup"/><path d="M536 160l-195-45.371 153.859-49.629 41.141 95z" fill="#B2E7FF" sketch:type="MSShapeGroup"/><path d="M1212 161v-5.45l148.056-155.55h4.944v113.057l-153 47.943z" fill="#90D9FA" sketch:type="MSShapeGroup"/><path d="M1314.123 230l-100.123 73.008 151 180.992v-254h-50.877z" fill="#A1E0FD" sketch:type="MSShapeGroup"/><path d="M1023 484v-150l113 150h-113z" fill="#90D9FA" sketch:type="MSShapeGroup"/><path d="M1216 303l-194 30.981 112.861 150.019 81.139-181z" fill="#ADE5FF" sketch:type="MSShapeGroup"/><path d="M1215.379 303l150.621 181h-232l81.379-181z" fill="#97DFFF" sketch:type="MSShapeGroup"/><path d="M1216.065 305l-192.065-74h341l-148.935 74z" fill="#97DFFF" sketch:type="MSShapeGroup"/><path d="M1212.978 159l152.022-159-7.245.663-188.755 64.747 43.978 93.59z" fill="#A1E0FD" sketch:type="MSShapeGroup"/><path d="M1215.141 158l-191.141 74h341l-149.859-74z" fill="#97DFFF" sketch:type="MSShapeGroup"/><path d="M1023 0v116l154-50.567-154-65.433z" fill="#BDEBFF" sketch:type="MSShapeGroup"/><path d="M1022 1h344l-190.329 65-153.671-65z" fill="#97DFFF" sketch:type="MSShapeGroup"/><path d="M1215 158.521l150-46.521v122l-150-75.479z" fill="#ADE5FF" sketch:type="MSShapeGroup"/><path d="M1215 159.054l-191 73.946v-118l191 44.054z" fill="#A1E0FD" sketch:type="MSShapeGroup"/><path d="M1217 304.071l-194 30.929v-105l194 74.071z" fill="#ADE5FF" sketch:type="MSShapeGroup"/><path d="M1216 160l-195-44.37 153.859-50.63 41.141 95z" fill="#ADE5FF" sketch:type="MSShapeGroup"/><path d="M1892 161v-5.45l148.056-155.55h4.944v113.057l-153 47.943z" fill="#C2ECFF" sketch:type="MSShapeGroup"/><path d="M1994.123 230l-100.123 73.008 151 180.992v-254h-50.877z" fill="#A1E0FD" sketch:type="MSShapeGroup"/><path d="M1703 484v-150l113 150h-113z" fill="#A1E0FD" sketch:type="MSShapeGroup"/><path d="M1896 303l-194 30.981 112.861 150.019 81.139-181z" fill="#90D9FA" sketch:type="MSShapeGroup"/><path d="M1895.379 303l150.621 181h-232l81.379-181z" fill="#97DFFF" sketch:type="MSShapeGroup"/><path d="M1896.065 305l-192.065-74h341l-148.935 74z" fill="#97DFFF" sketch:type="MSShapeGroup"/><path d="M1892.978 159l152.022-159-7.245.663-188.755 64.747 43.978 93.59z" fill="#ADE5FF" sketch:type="MSShapeGroup"/><path d="M1895.141 158l-191.141 74h341l-149.859-74z" fill="#B2E7FF" sketch:type="MSShapeGroup"/><path d="M1703 0v116l154-50.567-154-65.433z" fill="#ADE5FF" sketch:type="MSShapeGroup"/><path d="M1702 1h344l-190.329 65-153.671-65z" fill="#97DFFF" sketch:type="MSShapeGroup"/><path d="M1895 158.521l150-46.521v122l-150-75.479z" fill="#A1E0FD" sketch:type="MSShapeGroup"/><path d="M1895 159.054l-191 73.946v-120l191 46.054z" fill="#90D9FA" sketch:type="MSShapeGroup"/><path d="M1897 304.071l-194 30.929v-105l194 74.071z" fill="#ADE5FF" sketch:type="MSShapeGroup"/><path d="M1896 160l-195-44.37 153.859-50.63 41.141 95z" fill="#A1E0FD" sketch:type="MSShapeGroup"/><path d="M1553 161v-5.45l148.056-155.55h4.944v113.057l-153 47.943z" fill="#BDEBFF" sketch:type="MSShapeGroup"/><path d="M1655.123 230l-100.123 73.008 151 180.992v-254h-50.877z" fill="#97DFFF" sketch:type="MSShapeGroup"/><path d="M1364 484v-150l113 150h-113z" fill="#90D9FA" sketch:type="MSShapeGroup"/><path d="M1557 303l-194 30.981 112.861 150.019 81.139-181z" fill="#97DFFF" sketch:type="MSShapeGroup"/><path d="M1556.379 303l150.621 181h-232l81.379-181z" fill="#A1E0FD" sketch:type="MSShapeGroup"/><path d="M1557.065 305l-192.065-74h341l-148.935 74z" fill="#B2E7FF" sketch:type="MSShapeGroup"/><path d="M1553.978 159l152.022-159-7.245.663-188.755 64.747 43.978 93.59z" fill="#A1E0FD" sketch:type="MSShapeGroup"/><path d="M1556.141 158l-191.141 74h341l-149.859-74z" fill="#B2E7FF" sketch:type="MSShapeGroup"/><path d="M1364 0v116l154-50.567-154-65.433z" fill="#90D9FA" sketch:type="MSShapeGroup"/><path d="M1363 1h344l-190.329 65-153.671-65z" fill="#97DFFF" sketch:type="MSShapeGroup"/><path d="M1556 158.521l150-46.521v122l-150-75.479z" fill="#90D9FA" sketch:type="MSShapeGroup"/><path d="M1556 159.054l-191 73.946v-119l191 45.054z" fill="#A1E0FD" sketch:type="MSShapeGroup"/><path d="M1559 304.071l-194 30.929v-105l194 74.071z" fill="#ADE5FF" sketch:type="MSShapeGroup"/><path d="M293.123 1192l-100.123 73.008 151 180.992v-254h-50.877z" fill="#A1E0FD" sketch:type="MSShapeGroup"/><path d="M2 1446v-150l113 150h-113z" fill="#AEE2FA" sketch:type="MSShapeGroup"/><path d="M195 1265l-194 30.981 112.861 150.019 81.139-181z" fill="#97DFFF" sketch:type="MSShapeGroup"/><path d="M194.379 1265l150.621 181h-232l81.379-181z" fill="#BDEBFF" sketch:type="MSShapeGroup"/><path d="M195.065 1267l-192.065-74h341l-148.935 74z" fill="#BDEBFF" sketch:type="MSShapeGroup"/><path d="M196 1266.071l-194 30.929v-105l194 74.071z" fill="#ADE5FF" sketch:type="MSShapeGroup"/><path d="M973.123 1192l-100.123 73.008 151 180.992v-254h-50.877z" fill="#A1E0FD" sketch:type="MSShapeGroup"/><path d="M682 1446v-150l113 150h-113z" fill="#A1E0FD" sketch:type="MSShapeGroup"/><path d="M875 1265l-194 30.981 112.861 150.019 81.139-181z" fill="#97DFFF" sketch:type="MSShapeGroup"/><path d="M874.379 1265l150.621 181h-232l81.379-181z" fill="#BDEBFF" sketch:type="MSShapeGroup"/><path d="M875.065 1267l-192.065-74h341l-148.935 74z" fill="#BDEBFF" sketch:type="MSShapeGroup"/><path d="M876 1266.071l-194 30.929v-105l194 74.071z" fill="#ADE5FF" sketch:type="MSShapeGroup"/><path d="M634.123 1192l-100.123 73.008 151 180.992v-254h-50.877z" fill="#97DFFF" sketch:type="MSShapeGroup"/><path d="M343 1446v-150l113 150h-113z" fill="#90D9FA" sketch:type="MSShapeGroup"/><path d="M536 1265l-194 30.981 112.861 150.019 81.139-181z" fill="#BDEBFF" sketch:type="MSShapeGroup"/><path d="M535.379 1265l150.621 181h-232l81.379-181z" fill="#A1E0FD" sketch:type="MSShapeGroup"/><path d="M536.065 1267l-192.065-74h341l-148.935 74z" fill="#A1E0FD" sketch:type="MSShapeGroup"/><path d="M538 1266.071l-194 30.929v-105l194 74.071z" fill="#ADE5FF" sketch:type="MSShapeGroup"/><path d="M1314.123 1192l-100.123 73.008 151 180.992v-254h-50.877z" fill="#A1E0FD" sketch:type="MSShapeGroup"/><path d="M1023 1446v-150l113 150h-113z" fill="#90D9FA" sketch:type="MSShapeGroup"/><path d="M1216 1265l-194 30.981 112.861 150.019 81.139-181z" fill="#ADE5FF" sketch:type="MSShapeGroup"/><path d="M1215.379 1265l150.621 181h-232l81.379-181z" fill="#97DFFF" sketch:type="MSShapeGroup"/><path d="M1216.065 1267l-192.065-74h341l-148.935 74z" fill="#97DFFF" sketch:type="MSShapeGroup"/><path d="M1217 1266.071l-194 30.929v-105l194 74.071z" fill="#ADE5FF" sketch:type="MSShapeGroup"/><path d="M1994.123 1192l-100.123 73.008 151 180.992v-254h-50.877z" fill="#A1E0FD" sketch:type="MSShapeGroup"/><path d="M1703 1446v-150l113 150h-113z" fill="#A1E0FD" sketch:type="MSShapeGroup"/><path d="M1896 1265l-194 30.981 112.861 150.019 81.139-181z" fill="#90D9FA" sketch:type="MSShapeGroup"/><path d="M1895.379 1265l150.621 181h-232l81.379-181z" fill="#97DFFF" sketch:type="MSShapeGroup"/><path d="M1896.065 1267l-192.065-74h341l-148.935 74z" fill="#97DFFF" sketch:type="MSShapeGroup"/><path d="M1897 1266.071l-194 30.929v-105l194 74.071z" fill="#ADE5FF" sketch:type="MSShapeGroup"/><path d="M1655.123 1192l-100.123 73.008 151 180.992v-254h-50.877z" fill="#97DFFF" sketch:type="MSShapeGroup"/><path d="M1364 1446v-150l113 150h-113z" fill="#90D9FA" sketch:type="MSShapeGroup"/><path d="M1557 1265l-194 30.981 112.861 150.019 81.139-181z" fill="#97DFFF" sketch:type="MSShapeGroup"/><path d="M1556.379 1265l150.621 181h-232l81.379-181z" fill="#A1E0FD" sketch:type="MSShapeGroup"/><path d="M1557.065 1267l-192.065-74h341l-148.935 74z" fill="#B2E7FF" sketch:type="MSShapeGroup"/><path d="M1559 1266.071l-194 30.929v-105l194 74.071z" fill="#ADE5FF" sketch:type="MSShapeGroup"/><path d="M293.123 710l-100.123 73.008 151 180.992v-254h-50.877z" fill="#A1E0FD" sketch:type="MSShapeGroup"/><path d="M2 964v-150l113 150h-113z" fill="#AEE2FA" sketch:type="MSShapeGroup"/><path d="M195 783l-194 30.981 112.861 150.019 81.139-181z" fill="#90D9FA" sketch:type="MSShapeGroup"/><path d="M194.379 783l150.621 150.391v30.609h-232l81.379-181z" fill="#90D9FA" sketch:type="MSShapeGroup"/><path d="M195.065 785l-192.065-74h341l-148.935 74z" fill="#BDEBFF" sketch:type="MSShapeGroup"/><path d="M196 784.071l-194 30.929v-105l194 74.071z" fill="#ADE5FF" sketch:type="MSShapeGroup"/><path d="M973.123 710l-100.123 73.008 151 180.992v-254h-50.877z" fill="#A1E0FD" sketch:type="MSShapeGroup"/><path d="M682 964v-150l113 150h-113z" fill="#A1E0FD" sketch:type="MSShapeGroup"/><path d="M875 783l-194 30.981 112.861 150.019 81.139-181z" fill="#97DFFF" sketch:type="MSShapeGroup"/><path d="M874.378 783l152.622 181h-234l81.378-181z" fill="#90D9FA" sketch:type="MSShapeGroup"/><path d="M875.065 785l-192.065-74h341l-148.935 74z" fill="#BDEBFF" sketch:type="MSShapeGroup"/><path d="M876 784.071l-194 30.929v-105l194 74.071z" fill="#ADE5FF" sketch:type="MSShapeGroup"/><path d="M634.123 710l-100.123 73.008 151 180.992v-254h-50.877z" fill="#97DFFF" sketch:type="MSShapeGroup"/><path d="M343 964v-150l113 150h-113z" fill="#90D9FA" sketch:type="MSShapeGroup"/><path d="M536 783l-194 30.981 112.861 150.019 81.139-181z" fill="#BDEBFF" sketch:type="MSShapeGroup"/><path d="M535.379 783l150.621 155.766v25.234h-232l81.379-181z" fill="#A1E0FD" sketch:type="MSShapeGroup"/><path d="M536.065 785l-192.065-74h341l-148.935 74z" fill="#A1E0FD" sketch:type="MSShapeGroup"/><path d="M538 784.071l-194 30.929v-105l194 74.071z" fill="#ADE5FF" sketch:type="MSShapeGroup"/><path d="M1314.123 710l-100.123 73.008 151 180.992v-254h-50.877z" fill="#A1E0FD" sketch:type="MSShapeGroup"/><path d="M1023 964v-150l113 150h-113z" fill="#90D9FA" sketch:type="MSShapeGroup"/><path d="M1216 783l-194 30.981 112.861 150.019 81.139-181z" fill="#ADE5FF" sketch:type="MSShapeGroup"/><path d="M1215.379 783l149.772 161.337.849 19.663h-232l81.379-181z" fill="#97DFFF" sketch:type="MSShapeGroup"/><path d="M1216.065 785l-192.065-74h341l-148.935 74z" fill="#97DFFF" sketch:type="MSShapeGroup"/><path d="M1217 784.071l-194 30.929v-105l194 74.071z" fill="#ADE5FF" sketch:type="MSShapeGroup"/><path d="M1994.123 710l-100.123 73.008 151 180.992v-254h-50.877z" fill="#A1E0FD" sketch:type="MSShapeGroup"/><path d="M1703 964v-150l113 150h-113z" fill="#A1E0FD" sketch:type="MSShapeGroup"/><path d="M1896 783l-194 30.981 112.861 150.019 81.139-181z" fill="#90D9FA" sketch:type="MSShapeGroup"/><path d="M1895.379 783l150.621 181h-232l81.379-181z" fill="#90D9FA" sketch:type="MSShapeGroup"/><path d="M1896.065 785l-192.065-74h341l-148.935 74z" fill="#97DFFF" sketch:type="MSShapeGroup"/><path d="M1897 784.071l-194 30.929v-105l194 74.071z" fill="#ADE5FF" sketch:type="MSShapeGroup"/><path d="M1655.123 710l-100.123 73.008 151 180.992v-254h-50.877z" fill="#97DFFF" sketch:type="MSShapeGroup"/><path d="M1364 964v-150l113 150h-113z" fill="#90D9FA" sketch:type="MSShapeGroup"/><path d="M1557 783l-194 30.981 112.861 150.019 81.139-181z" fill="#97DFFF" sketch:type="MSShapeGroup"/><path d="M1556.379 783l150.621 158.196v22.804h-232l81.379-181z" fill="#90D9FA" sketch:type="MSShapeGroup"/><path d="M1557.065 785l-192.065-74h341l-148.935 74z" fill="#B2E7FF" sketch:type="MSShapeGroup"/><path d="M1559 784.071l-194 30.929v-105l194 74.071z" fill="#ADE5FF" sketch:type="MSShapeGroup"/><path d="M1557 160l-195-45.371 153.859-49.629 41.141 95z" fill="#B2E7FF" sketch:type="MSShapeGroup"/><path d="M191 1123v-5.45l148.056-155.55h4.944v113.057l-153 47.943z" fill="#97DFFF" sketch:type="MSShapeGroup"/><path d="M191.978 1121l152.022-159-7.245.663-188.755 64.747 43.978 93.59z" fill="#A1E0FD" sketch:type="MSShapeGroup"/><path d="M194.141 1120l-191.141 74h341l-149.859-74z" fill="#B2E7FF" sketch:type="MSShapeGroup"/><path d="M2 962v116l154-50.567-154-65.433z" fill="#C2ECFF" sketch:type="MSShapeGroup"/><path d="M1 963h344l-190.329 65-153.671-65z" fill="#CEF0FF" sketch:type="MSShapeGroup"/><path d="M194 1120.52l150-46.52v120l-150-73.48z" fill="#A1E0FD" sketch:type="MSShapeGroup"/><path d="M194 1121.054l-191 73.946v-118l191 44.054z" fill="#90D9FA" sketch:type="MSShapeGroup"/><path d="M195 1122l-195-44.37 153.859-50.63 41.141 95z" fill="#ADE5FF" sketch:type="MSShapeGroup"/><path d="M871 1123v-5.45l148.056-155.55h4.944v113.057l-153 47.943z" fill="#90D9FA" sketch:type="MSShapeGroup"/><path d="M871.978 1121l152.022-159-7.245.663-188.755 64.747 43.978 93.59z" fill="#ADE5FF" sketch:type="MSShapeGroup"/><path d="M874.141 1120l-191.141 74h341l-149.859-74z" fill="#B2E7FF" sketch:type="MSShapeGroup"/><path d="M682 962v116l154-50.567-154-65.433z" fill="#ADE5FF" sketch:type="MSShapeGroup"/><path d="M681 963h344l-190.329 65-153.671-65z" fill="#90D9FA" sketch:type="MSShapeGroup"/><path d="M874 1120.521l150-46.521v122l-150-75.479z" fill="#A1E0FD" sketch:type="MSShapeGroup"/><path d="M874 1121.054l-191 73.946v-120l191 46.054z" fill="#90D9FA" sketch:type="MSShapeGroup"/><path d="M875 1122l-195-44.37 153.859-50.63 41.141 95z" fill="#A1E0FD" sketch:type="MSShapeGroup"/><path d="M532 1123v-5.45l148.056-155.55h4.944v113.057l-153 47.943z" fill="#97DFFF" sketch:type="MSShapeGroup"/><path d="M532.978 1121l152.022-159-7.245.663-188.755 64.747 43.978 93.59z" fill="#90D9FA" sketch:type="MSShapeGroup"/><path d="M535.141 1119.687l-23.083-.687-168.058 75h341l-149.859-74.313z" fill="#B2E7FF" sketch:type="MSShapeGroup"/><path d="M343 962v116l154-50.567-154-65.433z" fill="#ADE5FF" sketch:type="MSShapeGroup"/><path d="M342 963h344l-190.329 65-153.671-65z" fill="#90D9FA" sketch:type="MSShapeGroup"/><path d="M535 1120.521l150-46.521v122l-150-75.479z" fill="#90D9FA" sketch:type="MSShapeGroup"/><path d="M535 1121.054l-191 72.946v-118l191 45.054z" fill="#A1E0FD" sketch:type="MSShapeGroup"/><path d="M536 1122l-195-45.371 153.859-49.629 41.141 95z" fill="#B2E7FF" sketch:type="MSShapeGroup"/><path d="M1212 1123v-5.45l148.056-155.55h4.944v113.057l-153 47.943z" fill="#90D9FA" sketch:type="MSShapeGroup"/><path d="M1212.978 1121l152.022-159-7.245.663-188.755 64.747 43.978 93.59z" fill="#A1E0FD" sketch:type="MSShapeGroup"/><path d="M1215.141 1120l-191.141 74h341l-149.859-74z" fill="#97DFFF" sketch:type="MSShapeGroup"/><path d="M1023 962v116l154-50.567-154-65.433z" fill="#90D9FA" sketch:type="MSShapeGroup"/><path d="M1022 963h344l-190.329 65-153.671-65z" fill="#90D9FA" sketch:type="MSShapeGroup"/><path d="M1215 1120.521l150-46.521v122l-150-75.479z" fill="#ADE5FF" sketch:type="MSShapeGroup"/><path d="M1215 1121.054l-191 73.946v-118l191 44.054z" fill="#A1E0FD" sketch:type="MSShapeGroup"/><path d="M1216 1122l-195-44.37 153.859-50.63 41.141 95z" fill="#ADE5FF" sketch:type="MSShapeGroup"/><path d="M1892 1123v-5.45l148.056-155.55h4.944v113.057l-153 47.943z" fill="#90D9FA" sketch:type="MSShapeGroup"/><path d="M1892.978 1121l152.022-159-7.245.663-188.755 64.747 43.978 93.59z" fill="#ADE5FF" sketch:type="MSShapeGroup"/><path d="M1895.141 1120l-191.141 74h341l-149.859-74z" fill="#B2E7FF" sketch:type="MSShapeGroup"/><path d="M1703 962v116l154-50.567-154-65.433z" fill="#ADE5FF" sketch:type="MSShapeGroup"/><path d="M1702 963h344l-190.329 65-153.671-65z" fill="#97DFFF" sketch:type="MSShapeGroup"/><path d="M1895 1120.521l150-46.521v122l-150-75.479z" fill="#90D9FA" sketch:type="MSShapeGroup"/><path d="M1895 1121.054l-191 73.946v-120l191 46.054z" fill="#90D9FA" sketch:type="MSShapeGroup"/><path d="M1896 1122l-195-44.37 153.859-50.63 41.141 95z" fill="#A1E0FD" sketch:type="MSShapeGroup"/><path d="M1553 1123v-5.45l148.056-155.55h4.944v113.057l-153 47.943z" fill="#BDEBFF" sketch:type="MSShapeGroup"/><path d="M1553.978 1121l152.022-159-7.245.663-188.755 64.747 43.978 93.59z" fill="#A1E0FD" sketch:type="MSShapeGroup"/><path d="M1556.141 1120l-191.141 74h341l-149.859-74z" fill="#90D9FA" sketch:type="MSShapeGroup"/><path d="M1364 962v116l154-50.567-154-65.433z" fill="#90D9FA" sketch:type="MSShapeGroup"/><path d="M1363 963h344l-190.329 65-153.671-65z" fill="#97DFFF" sketch:type="MSShapeGroup"/><path d="M1556 1120.521l150-46.521v122l-150-75.479z" fill="#90D9FA" sketch:type="MSShapeGroup"/><path d="M1556 1121.054l-191 73.946v-119l191 45.054z" fill="#A1E0FD" sketch:type="MSShapeGroup"/><path d="M1557 1122l-195-45.371 153.859-49.629 41.141 95z" fill="#B2E7FF" sketch:type="MSShapeGroup"/><path d="M191 643v-5.45l148.056-155.55h4.944v113.057l-153 47.943z" fill="#97DFFF" sketch:type="MSShapeGroup"/><path d="M191.978 641l152.022-159-7.245.663-188.755 64.747 43.978 93.59z" fill="#A1E0FD" sketch:type="MSShapeGroup"/><path d="M194.141 640l-191.141 74h341l-149.859-74z" fill="#B2E7FF" sketch:type="MSShapeGroup"/><path d="M2 482v116l154-50.567-154-65.433z" fill="#C2ECFF" sketch:type="MSShapeGroup"/><path d="M1 483h344l-190.329 65-153.671-65z" fill="#90D9FA" sketch:type="MSShapeGroup"/><path d="M194 640.521l150-46.521v122l-150-75.479z" fill="#A1E0FD" sketch:type="MSShapeGroup"/><path d="M194 641.054l-191 73.946v-118l191 44.054z" fill="#A1E0FD" sketch:type="MSShapeGroup"/><path d="M195 642l-195-44.37 153.859-50.63 41.141 95z" fill="#ADE5FF" sketch:type="MSShapeGroup"/><path d="M871 643v-5.45l148.056-155.55h4.944v113.057l-153 47.943z" fill="#BDEBFF" sketch:type="MSShapeGroup"/><path d="M871.978 641l152.022-159-7.245.663-188.755 64.747 43.978 93.59z" fill="#ADE5FF" sketch:type="MSShapeGroup"/><path d="M874.141 640l-191.141 74h341l-149.859-74z" fill="#B2E7FF" sketch:type="MSShapeGroup"/><path d="M682 482v116l154-50.567-154-65.433z" fill="#ADE5FF" sketch:type="MSShapeGroup"/><path d="M681 483h344l-190.329 65-153.671-65z" fill="#90D9FA" sketch:type="MSShapeGroup"/><path d="M874 640.521l150-46.521v122l-150-75.479z" fill="#A1E0FD" sketch:type="MSShapeGroup"/><path d="M874 641.054l-191 73.946v-120l191 46.054z" fill="#ADE5FF" sketch:type="MSShapeGroup"/><path d="M875 642l-195-44.37 153.859-50.63 41.141 95z" fill="#A1E0FD" sketch:type="MSShapeGroup"/><path d="M532 643v-5.45l148.056-155.55h4.944v113.057l-153 47.943z" fill="#97DFFF" sketch:type="MSShapeGroup"/><path d="M532.978 641l152.022-159-7.245.663-188.755 64.747 43.978 93.59z" fill="#A1E0FD" sketch:type="MSShapeGroup"/><path d="M535.141 640l-191.141 74h341l-149.859-74z" fill="#B2E7FF" sketch:type="MSShapeGroup"/><path d="M343 482v116l154-50.567-154-65.433z" fill="#ADE5FF" sketch:type="MSShapeGroup"/><path d="M342 483h344l-190.329 65-153.671-65z" fill="#90D9FA" sketch:type="MSShapeGroup"/><path d="M535 640.521l150-46.521v122l-150-75.479z" fill="#ADE5FF" sketch:type="MSShapeGroup"/><path d="M535 641.054l-191 73.946v-119l191 45.054z" fill="#A1E0FD" sketch:type="MSShapeGroup"/><path d="M536 642l-195-45.371 153.859-49.629 41.141 95z" fill="#B2E7FF" sketch:type="MSShapeGroup"/><path d="M1212 643v-5.45l148.056-155.55h4.944v113.057l-153 47.943z" fill="#BDEBFF" sketch:type="MSShapeGroup"/><path d="M1212.978 641l152.022-159-7.245.663-188.755 64.747 43.978 93.59z" fill="#A1E0FD" sketch:type="MSShapeGroup"/><path d="M1215.141 640l-191.141 74h341l-149.859-74z" fill="#C2ECFF" sketch:type="MSShapeGroup"/><path d="M1023 482v116l154-50.567-154-65.433z" fill="#97DFFF" sketch:type="MSShapeGroup"/><path d="M1022 483h344l-190.329 65-153.671-65z" fill="#90D9FA" sketch:type="MSShapeGroup"/><path d="M1215 640.521l150-46.521v122l-150-75.479z" fill="#ADE5FF" sketch:type="MSShapeGroup"/><path d="M1215 641.054l-191 73.946v-118l191 44.054z" fill="#A1E0FD" sketch:type="MSShapeGroup"/><path d="M1216 642l-195-44.37 153.859-50.63 41.141 95z" fill="#ADE5FF" sketch:type="MSShapeGroup"/><path d="M1892 643v-5.45l148.056-155.55h4.944v113.057l-153 47.943z" fill="#BDEBFF" sketch:type="MSShapeGroup"/><path d="M1892.978 641l152.022-159-7.245.663-188.755 64.747 43.978 93.59z" fill="#ADE5FF" sketch:type="MSShapeGroup"/><path d="M1895.141 640l-191.141 74h341l-149.859-74z" fill="#B2E7FF" sketch:type="MSShapeGroup"/><path d="M1703 482v116l154-50.567-154-65.433z" fill="#ADE5FF" sketch:type="MSShapeGroup"/><path d="M1702 483h344l-190.329 65-153.671-65z" fill="#90D9FA" sketch:type="MSShapeGroup"/><path d="M1895 640.521l150-46.521v122l-150-75.479z" fill="#A1E0FD" sketch:type="MSShapeGroup"/><path d="M1895 641.054l-191 73.946v-120l191 46.054z" fill="#BDEBFF" sketch:type="MSShapeGroup"/><path d="M1896 642l-195-44.37 153.859-50.63 41.141 95z" fill="#A1E0FD" sketch:type="MSShapeGroup"/><path d="M1553 643v-5.45l148.056-155.55h4.944v113.057l-153 47.943z" fill="#BDEBFF" sketch:type="MSShapeGroup"/><path d="M1553.978 641l152.022-159-7.245.663-188.755 64.747 43.978 93.59z" fill="#A1E0FD" sketch:type="MSShapeGroup"/><path d="M1556.141 640l-191.141 74h341l-149.859-74z" fill="#B2E7FF" sketch:type="MSShapeGroup"/><path d="M1364 482v116l154-50.567-154-65.433z" fill="#BDEBFF" sketch:type="MSShapeGroup"/><path d="M1363 483h344l-190.329 65-153.671-65z" fill="#90D9FA" sketch:type="MSShapeGroup"/><path d="M1556 640.521l150-46.521v122l-150-75.479z" fill="#BDEBFF" sketch:type="MSShapeGroup"/><path d="M1556 641.054l-191 73.946v-119l191 45.054z" fill="#A1E0FD" sketch:type="MSShapeGroup"/><path d="M1557 642l-195-45.371 153.859-49.629 41.141 95z" fill="#B2E7FF" sketch:type="MSShapeGroup"/></g></svg>