<svg width="1913" height="1156" viewBox="0 0 1913 1156" xmlns="http://www.w3.org/2000/svg" xmlns:sketch="http://www.bohemiancoding.com/sketch/ns"><title>Sky</title><g sketch:type="MSLayerGroup" fill="none"><path d="M398 99.398l-395 98.102 242.721 218 152.279-217v-99.102z" fill="#B4E3F9" sketch:type="MSShapeGroup"/><path d="M398 99.398v11.129l-395 88.473v-201.5l395 101.898z" fill="#BDE8FC" sketch:type="MSShapeGroup"/><path d="M3 17.566l396 82.832-139.879-102.898h-256.121v20.066z" fill="#B5E3F7" sketch:type="MSShapeGroup"/><path d="M398 101.398l-138.879-102.898 42.449-.5 366.93 189.857 10.254 11.287-280.754-97.746z" fill="#B1DEF2" sketch:type="MSShapeGroup"/><path d="M572.105-2.5h-312.984l418.633 199.645-105.648-199.645z" fill="#C3E5F5" sketch:type="MSShapeGroup"/><path d="M567.105-2.5h105.742l5.906 202.645-111.648-202.645z" fill="#B6E3F7" sketch:type="MSShapeGroup"/><path d="M864.57 197.645l-196.723-200.145 9.906 200.145h186.816z" fill="#A3D9F1" sketch:type="MSShapeGroup"/><path d="M3 197.5v562.5l253.5-360.531-253.5-201.969z" fill="#AADFF7" sketch:type="MSShapeGroup"/><path d="M410.568 197.5l76.932 257.01-485 303.99 395.407-561h12.661z" fill="#A6DCF4" sketch:type="MSShapeGroup"/><path d="M487.599 456l545.401-258.5-1.915-5.02-633.085 4.02 89.599 259.5z" fill="#B6E3F7" sketch:type="MSShapeGroup"/><path d="M487.547 456l190.953-258.5-280.5-97.742v97.742l89.547 258.5z" fill="#AADFF7" sketch:type="MSShapeGroup"/><path d="M487.309 453.5l-484.809 304.445 776.5 2.055-291.691-306.5z" fill="#97D1EB" sketch:type="MSShapeGroup"/><path d="M3 1156v-398h779l-779 398z" fill="#83C2DF" sketch:type="MSShapeGroup"/><path d="M452.756 934l-449.756-175.887 659.133-117.613 112.367 117.613-321.744 175.887z" fill="#7EC1E0" sketch:type="MSShapeGroup"/><path d="M452.829 934l-450.329-176 774 2.78-323.671 173.22z" fill="#74B8D8" sketch:type="MSShapeGroup"/><path d="M0 1153h1225l-451.276-393-773.724 393z" fill="#76B3CE" sketch:type="MSShapeGroup"/><path d="M679 1153h546l-451.318-393-94.682 393z" fill="#66A6C4" sketch:type="MSShapeGroup"/><path d="M1175.219 1153h49.387l64.894-231.229-516-161.771 401.719 393z" fill="#7BB8D3" sketch:type="MSShapeGroup"/><path d="M1913 760l-688.5 393h688.5v-393z" fill="#6DADCB" sketch:type="MSShapeGroup"/><path d="M1913 788.5l-306.5 364.5h306.5v-364.5z" fill="#62A6C5" sketch:type="MSShapeGroup"/><path d="M487.5 454.403l7.307-3.903 839.693 309.412-57.039 197.588-504.142-197.088-285.819-306.009z" fill="#93CCE7" sketch:type="MSShapeGroup"/><path d="M487.5 454.404l7.308-3.904 502.692 188.957-224.121 121.043-285.879-306.096z" fill="#9AD5EF" sketch:type="MSShapeGroup"/><path d="M1913 389.5l-591 370.523 13.027 3.477 577.973-89.871v-284.129z" fill="#93CCE7" sketch:type="MSShapeGroup"/><path d="M1913 405.391l-582.5 355.609 240.694-563.5 341.806 207.891z" fill="#AADFF7" sketch:type="MSShapeGroup"/><path d="M1913 405.363l-237.783 145.137-104.217-353 342 207.863z" fill="#BCE7FA" sketch:type="MSShapeGroup"/><path d="M1913 425.5v-362.26800000000003l-358.5 134.268 358.5 228z" fill="#B6E3F7" sketch:type="MSShapeGroup"/><path d="M1713.551-2.5h199.449v69.732l-358.5 130.268 159.051-200z" fill="#C5EDFF" sketch:type="MSShapeGroup"/><path d="M486.5 454.129l847 307.871-238.642-564.5h-62.318l-546.041 256.629z" fill="#AADFF7" sketch:type="MSShapeGroup"/><path d="M486.5 454.166l508.5 185.834-43.758-251.5-464.742 65.666z" fill="#B2E5FC" sketch:type="MSShapeGroup"/><path d="M1331 762.5l-236.231-565-142.769 192.621 379 372.379z" fill="#9AD5F0" sketch:type="MSShapeGroup"/><path d="M486.5 454l636-89.084-90.158-167.416-545.842 256.5z" fill="#BCE7FA" sketch:type="MSShapeGroup"/><path d="M952 389l171-23.793-90.198-167.707-80.802 191.5z" fill="#B6E3F7" sketch:type="MSShapeGroup"/><path d="M1913 672.5v115.374l-688.5 365.126 106.783-392.618 581.717-87.882z" fill="#83C2DF" sketch:type="MSShapeGroup"/><path d="M1668.5 918.214l-444 234.786 106.755-392.5 337.245 157.714z" fill="#68B1D2" sketch:type="MSShapeGroup"/><path d="M1579.5 197.5l-248.552 563-298.448-563h547z" fill="#A6DCF4" sketch:type="MSShapeGroup"/><path d="M1135.5 56.941l103 140.559-116.685 168.5-89.315-168.5 103-140.559z" fill="#AADFF7" sketch:type="MSShapeGroup"/><path d="M1041.699 193.611l94.301-135.67-43.648-60.441h-144.75l79.002 198.576 5.896 1.924 9.199-4.389z" fill="#BCE7FA" sketch:type="MSShapeGroup"/><path d="M1136 58.941l-47.648-61.441 98.643.5-50.994 60.941z" fill="#B4E1F6" sketch:type="MSShapeGroup"/><path d="M1136 57.941l102.246 140.387 95.131-200.828h-151.939l-45.438 60.441z" fill="#B6E3F7" sketch:type="MSShapeGroup"/><path d="M1421.305 198.328l-185.059 1 95.131-201.828 89.928 200.828z" fill="#AADFF7" sketch:type="MSShapeGroup"/><path d="M1420.305 198.328l116.957-104.553-44.686-96.275h-166.199l93.928 200.828z" fill="#A6DBF3" sketch:type="MSShapeGroup"/><path d="M1602.62 72.322l-67.358 21.953-46.686-96.775h226.088l-112.044 74.822z" fill="#9DD6F0" sketch:type="MSShapeGroup"/><path d="M1600.62 70.322l-15.911 93.623 136.145-166.445-5.533-2.711-114.7 75.533z" fill="#AADEF5" sketch:type="MSShapeGroup"/><path d="M860.641 197.5l87.961-200 83.898 200h-171.859z" fill="#AADFF7" sketch:type="MSShapeGroup"/><path d="M861.141 197.5l91.461-200h-287.379l195.918 200z" fill="#9AD5EF" sketch:type="MSShapeGroup"/><path d="M1607.203 68.74l-26.143 128.76-142.797 326.5-199.263-326.5 368.203-128.76z" fill="#B4E3F9" sketch:type="MSShapeGroup"/></g></svg>