<?xml version="1.0" encoding="UTF-8" standalone="no"?>
<svg width="2000px" height="1400px" viewBox="0 0 2000 1400" version="1.1" xmlns="http://www.w3.org/2000/svg" xmlns:xlink="http://www.w3.org/1999/xlink" xmlns:sketch="http://www.bohemiancoding.com/sketch/ns">
    <!-- Generator: Sketch 3.0.1 (7597) - http://www.bohemiancoding.com/sketch -->
    <title>sky</title>
    <description>Created with Sketch.</description>
    <defs></defs>
    <g id="Page-1" stroke="none" stroke-width="1" fill="none" fill-rule="evenodd" sketch:type="MSPage">
        <g id="Artboard-3" sketch:type="MSArtboardGroup">
            <g id="sky" sketch:type="MSLayerGroup" transform="translate(-31.000000, -36.000000)">
                <path d="M191,0 L191,5.45020298 L339.055568,161 L344,161 L344,47.9426885 L191,0 Z" id="Rectangle-1248" fill="#97DFFF" sketch:type="MSShapeGroup" transform="translate(267.500000, 80.500000) scale(1, -1) translate(-267.500000, -80.500000) "></path>
                <path d="M293.122874,484 L193,410.991788 L344,230 L344,484 L293.122874,484 Z" id="Rectangle-1239" fill="#A1E0FD" sketch:type="MSShapeGroup" transform="translate(268.500000, 357.000000) scale(1, -1) translate(-268.500000, -357.000000) "></path>
                <path d="M2,334 L2,484 L115,334 L2,334 Z" id="Rectangle-1215" fill="#AEE2FA" sketch:type="MSShapeGroup" transform="translate(58.500000, 409.000000) scale(1, -1) translate(-58.500000, -409.000000) "></path>
                <path d="M195,484 L1,453.019426 L113.860532,303 L195,484 Z" id="Rectangle-1219" fill="#97DFFF" sketch:type="MSShapeGroup" transform="translate(98.000000, 393.500000) scale(1, -1) translate(-98.000000, -393.500000) "></path>
                <path d="M194.378943,484 L345,303 L113,303 L194.378943,484 Z" id="Rectangle-1238" fill="#BDEBFF" sketch:type="MSShapeGroup" transform="translate(229.000000, 393.500000) scale(1, -1) translate(-229.000000, -393.500000) "></path>
                <path d="M195.065094,231 L3,305 L344,305 L195.065094,231 Z" id="Rectangle-1240" fill="#BDEBFF" sketch:type="MSShapeGroup" transform="translate(173.500000, 268.000000) scale(1, -1) translate(-173.500000, -268.000000) "></path>
                <path d="M191.977652,1 L344,160 L336.754941,159.336617 L148,94.5896213 L191.977652,1 Z" id="Rectangle-1247" fill="#A1E0FD" sketch:type="MSShapeGroup" transform="translate(246.000000, 80.000000) scale(1, -1) translate(-246.000000, -80.000000) "></path>
                <path d="M194.140625,232 L3,158 L344,158 L194.140625,232 Z" id="Rectangle-1241" fill="#B2E7FF" sketch:type="MSShapeGroup" transform="translate(173.500000, 195.000000) scale(1, -1) translate(-173.500000, -195.000000) "></path>
                <path d="M2,116 L2,7.10829978e-15 L156,50.567309 L2,116 Z" id="Rectangle-1245" fill="#C2ECFF" sketch:type="MSShapeGroup" transform="translate(78.500000, 58.000000) scale(1, -1) translate(-78.500000, -58.000000) "></path>
                <path d="M1,65 L345,65 L154.670586,0 L1,65 Z" id="Rectangle-1246" fill="#CEF0FF" sketch:type="MSShapeGroup" transform="translate(173.000000, 33.000000) scale(1, -1) translate(-173.000000, -33.000000) "></path>
                <path d="M194,187.479433 L344,234 L344,112 L194,187.479433 Z" id="Rectangle-1243" fill="#A1E0FD" sketch:type="MSShapeGroup" transform="translate(269.000000, 173.000000) scale(1, -1) translate(-269.000000, -173.000000) "></path>
                <path d="M194,188.946302 L3,115 L3,233 L194,188.946302 Z" id="Rectangle-1242" fill="#A1E0FD" sketch:type="MSShapeGroup" transform="translate(98.500000, 174.000000) scale(1, -1) translate(-98.500000, -174.000000) "></path>
                <path d="M196,260.929386 L2,230 L2,335 L196,260.929386 Z" id="Rectangle-1237" fill="#ADE5FF" sketch:type="MSShapeGroup" transform="translate(99.000000, 282.500000) scale(1, -1) translate(-99.000000, -282.500000) "></path>
                <path d="M195,65 L0,109.369852 L153.85906,160 L195,65 Z" id="Rectangle-1244" fill="#ADE5FF" sketch:type="MSShapeGroup" transform="translate(97.000000, 112.500000) scale(1, -1) translate(-97.000000, -112.500000) "></path>
                <path d="M869,0 L869,5.45020298 L1017.05557,161 L1022,161 L1022,47.9426885 L869,0 Z" id="Rectangle-1274" fill="#BDEBFF" sketch:type="MSShapeGroup" transform="translate(945.500000, 80.500000) scale(1, -1) translate(-945.500000, -80.500000) "></path>
                <path d="M971.122874,484 L871,410.991788 L1022,230 L1022,484 L971.122874,484 Z" id="Rectangle-1261" fill="#A1E0FD" sketch:type="MSShapeGroup" transform="translate(946.500000, 357.000000) scale(1, -1) translate(-946.500000, -357.000000) "></path>
                <path d="M680,334 L680,484 L793,334 L680,334 Z" id="Rectangle-1262" fill="#A1E0FD" sketch:type="MSShapeGroup" transform="translate(736.500000, 409.000000) scale(1, -1) translate(-736.500000, -409.000000) "></path>
                <path d="M873,484 L679,453.019426 L791.860532,303 L873,484 Z" id="Rectangle-1263" fill="#97DFFF" sketch:type="MSShapeGroup" transform="translate(776.000000, 393.500000) scale(1, -1) translate(-776.000000, -393.500000) "></path>
                <path d="M872.378943,484 L1023,303 L791,303 L872.378943,484 Z" id="Rectangle-1264" fill="#BDEBFF" sketch:type="MSShapeGroup" transform="translate(907.000000, 393.500000) scale(1, -1) translate(-907.000000, -393.500000) "></path>
                <path d="M873.065094,231 L681,305 L1022,305 L873.065094,231 Z" id="Rectangle-1265" fill="#BDEBFF" sketch:type="MSShapeGroup" transform="translate(851.500000, 268.000000) scale(1, -1) translate(-851.500000, -268.000000) "></path>
                <path d="M869.977652,1 L1022,160 L1014.75494,159.336617 L826,94.5896213 L869.977652,1 Z" id="Rectangle-1266" fill="#ADE5FF" sketch:type="MSShapeGroup" transform="translate(924.000000, 80.000000) scale(1, -1) translate(-924.000000, -80.000000) "></path>
                <path d="M872.140625,232 L681,158 L1022,158 L872.140625,232 Z" id="Rectangle-1267" fill="#B2E7FF" sketch:type="MSShapeGroup" transform="translate(851.500000, 195.000000) scale(1, -1) translate(-851.500000, -195.000000) "></path>
                <path d="M680,116 L680,7.10829978e-15 L834,50.567309 L680,116 Z" id="Rectangle-1268" fill="#ADE5FF" sketch:type="MSShapeGroup" transform="translate(756.500000, 58.000000) scale(1, -1) translate(-756.500000, -58.000000) "></path>
                <path d="M679,65 L1023,65 L832.670586,0 L679,65 Z" id="Rectangle-1269" fill="#97DFFF" sketch:type="MSShapeGroup" transform="translate(851.000000, 33.000000) scale(1, -1) translate(-851.000000, -33.000000) "></path>
                <path d="M872,187.479433 L1022,234 L1022,112 L872,187.479433 Z" id="Rectangle-1270" fill="#A1E0FD" sketch:type="MSShapeGroup" transform="translate(947.000000, 173.000000) scale(1, -1) translate(-947.000000, -173.000000) "></path>
                <path d="M872,186.94622 L681,113 L681,233 L872,186.94622 Z" id="Rectangle-1271" fill="#90D9FA" sketch:type="MSShapeGroup" transform="translate(776.500000, 173.000000) scale(1, -1) translate(-776.500000, -173.000000) "></path>
                <path d="M874,260.929386 L680,230 L680,335 L874,260.929386 Z" id="Rectangle-1272" fill="#ADE5FF" sketch:type="MSShapeGroup" transform="translate(777.000000, 282.500000) scale(1, -1) translate(-777.000000, -282.500000) "></path>
                <path d="M873,65 L678,109.369852 L831.85906,160 L873,65 Z" id="Rectangle-1273" fill="#A1E0FD" sketch:type="MSShapeGroup" transform="translate(775.000000, 112.500000) scale(1, -1) translate(-775.000000, -112.500000) "></path>
                <path d="M531,0 L531,5.45020298 L679.055568,161 L684,161 L684,47.9426885 L531,0 Z" id="Rectangle-1260" fill="#97DFFF" sketch:type="MSShapeGroup" transform="translate(607.500000, 80.500000) scale(1, -1) translate(-607.500000, -80.500000) "></path>
                <path d="M633.122874,484 L533,410.991788 L684,230 L684,484 L633.122874,484 Z" id="Rectangle-1249" fill="#97DFFF" sketch:type="MSShapeGroup" transform="translate(608.500000, 357.000000) scale(1, -1) translate(-608.500000, -357.000000) "></path>
                <path d="M342,334 L342,484 L455,334 L342,334 Z" id="Rectangle-1233" fill="#90D9FA" sketch:type="MSShapeGroup" transform="translate(398.500000, 409.000000) scale(1, -1) translate(-398.500000, -409.000000) "></path>
                <path d="M535,484 L341,453.019426 L453.860532,303 L535,484 Z" id="Rectangle-1236" fill="#BDEBFF" sketch:type="MSShapeGroup" transform="translate(438.000000, 393.500000) scale(1, -1) translate(-438.000000, -393.500000) "></path>
                <path d="M534.378943,484 L685,303 L453,303 L534.378943,484 Z" id="Rectangle-1250" fill="#A1E0FD" sketch:type="MSShapeGroup" transform="translate(569.000000, 393.500000) scale(1, -1) translate(-569.000000, -393.500000) "></path>
                <path d="M535.065094,231 L343,305 L684,305 L535.065094,231 Z" id="Rectangle-1251" fill="#A1E0FD" sketch:type="MSShapeGroup" transform="translate(513.500000, 268.000000) scale(1, -1) translate(-513.500000, -268.000000) "></path>
                <path d="M531.977652,1 L684,160 L676.754941,159.336617 L488,94.5896213 L531.977652,1 Z" id="Rectangle-1252" fill="#90D9FA" sketch:type="MSShapeGroup" transform="translate(586.000000, 80.000000) scale(1, -1) translate(-586.000000, -80.000000) "></path>
                <path d="M534.140625,232 L343,158 L684,158 L534.140625,232 Z" id="Rectangle-1253" fill="#B2E7FF" sketch:type="MSShapeGroup" transform="translate(513.500000, 195.000000) scale(1, -1) translate(-513.500000, -195.000000) "></path>
                <path d="M342,116 L342,7.10829978e-15 L496,50.567309 L342,116 Z" id="Rectangle-1254" fill="#ADE5FF" sketch:type="MSShapeGroup" transform="translate(418.500000, 58.000000) scale(1, -1) translate(-418.500000, -58.000000) "></path>
                <path d="M341,65 L685,65 L494.670586,0 L341,65 Z" id="Rectangle-1255" fill="#90D9FA" sketch:type="MSShapeGroup" transform="translate(513.000000, 33.000000) scale(1, -1) translate(-513.000000, -33.000000) "></path>
                <path d="M534,187.479433 L684,234 L684,112 L534,187.479433 Z" id="Rectangle-1256" fill="#90D9FA" sketch:type="MSShapeGroup" transform="translate(609.000000, 173.000000) scale(1, -1) translate(-609.000000, -173.000000) "></path>
                <path d="M534,187.946261 L343,114 L343,233 L534,187.946261 Z" id="Rectangle-1257" fill="#A1E0FD" sketch:type="MSShapeGroup" transform="translate(438.500000, 173.500000) scale(1, -1) translate(-438.500000, -173.500000) "></path>
                <path d="M537,260.929386 L343,230 L343,335 L537,260.929386 Z" id="Rectangle-1258" fill="#ADE5FF" sketch:type="MSShapeGroup" transform="translate(440.000000, 282.500000) scale(1, -1) translate(-440.000000, -282.500000) "></path>
                <path d="M535,65 L340,110.371499 L493.85906,160 L535,65 Z" id="Rectangle-1259" fill="#B2E7FF" sketch:type="MSShapeGroup" transform="translate(437.000000, 112.500000) scale(1, -1) translate(-437.000000, -112.500000) "></path>
                <path d="M1208,0 L1208,5.45020298 L1356.05557,161 L1361,161 L1361,47.9426885 L1208,0 Z" id="Rectangle-1316" fill="#90D9FA" sketch:type="MSShapeGroup" transform="translate(1284.500000, 80.500000) scale(1, -1) translate(-1284.500000, -80.500000) "></path>
                <path d="M1310.12287,484 L1210,410.991788 L1361,230 L1361,484 L1310.12287,484 Z" id="Rectangle-1275" fill="#A1E0FD" sketch:type="MSShapeGroup" transform="translate(1285.500000, 357.000000) scale(1, -1) translate(-1285.500000, -357.000000) "></path>
                <path d="M1019,334 L1019,484 L1132,334 L1019,334 Z" id="Rectangle-1276" fill="#90D9FA" sketch:type="MSShapeGroup" transform="translate(1075.500000, 409.000000) scale(1, -1) translate(-1075.500000, -409.000000) "></path>
                <path d="M1212,484 L1018,453.019426 L1130.86053,303 L1212,484 Z" id="Rectangle-1277" fill="#ADE5FF" sketch:type="MSShapeGroup" transform="translate(1115.000000, 393.500000) scale(1, -1) translate(-1115.000000, -393.500000) "></path>
                <path d="M1211.37894,484 L1362,303 L1130,303 L1211.37894,484 Z" id="Rectangle-1278" fill="#97DFFF" sketch:type="MSShapeGroup" transform="translate(1246.000000, 393.500000) scale(1, -1) translate(-1246.000000, -393.500000) "></path>
                <path d="M1212.06509,231 L1020,305 L1361,305 L1212.06509,231 Z" id="Rectangle-1279" fill="#97DFFF" sketch:type="MSShapeGroup" transform="translate(1190.500000, 268.000000) scale(1, -1) translate(-1190.500000, -268.000000) "></path>
                <path d="M1208.97765,1 L1361,160 L1353.75494,159.336617 L1165,94.5896213 L1208.97765,1 Z" id="Rectangle-1280" fill="#A1E0FD" sketch:type="MSShapeGroup" transform="translate(1263.000000, 80.000000) scale(1, -1) translate(-1263.000000, -80.000000) "></path>
                <path d="M1211.14062,232 L1020,158 L1361,158 L1211.14062,232 Z" id="Rectangle-1281" fill="#97DFFF" sketch:type="MSShapeGroup" transform="translate(1190.500000, 195.000000) scale(1, -1) translate(-1190.500000, -195.000000) "></path>
                <path d="M1019,116 L1019,7.10829978e-15 L1173,50.567309 L1019,116 Z" id="Rectangle-1282" fill="#BDEBFF" sketch:type="MSShapeGroup" transform="translate(1095.500000, 58.000000) scale(1, -1) translate(-1095.500000, -58.000000) "></path>
                <path d="M1018,65 L1362,65 L1171.67059,0 L1018,65 Z" id="Rectangle-1283" fill="#97DFFF" sketch:type="MSShapeGroup" transform="translate(1190.000000, 33.000000) scale(1, -1) translate(-1190.000000, -33.000000) "></path>
                <path d="M1211,187.479433 L1361,234 L1361,112 L1211,187.479433 Z" id="Rectangle-1284" fill="#ADE5FF" sketch:type="MSShapeGroup" transform="translate(1286.000000, 173.000000) scale(1, -1) translate(-1286.000000, -173.000000) "></path>
                <path d="M1211,188.946302 L1020,115 L1020,233 L1211,188.946302 Z" id="Rectangle-1285" fill="#A1E0FD" sketch:type="MSShapeGroup" transform="translate(1115.500000, 174.000000) scale(1, -1) translate(-1115.500000, -174.000000) "></path>
                <path d="M1213,260.929386 L1019,230 L1019,335 L1213,260.929386 Z" id="Rectangle-1286" fill="#ADE5FF" sketch:type="MSShapeGroup" transform="translate(1116.000000, 282.500000) scale(1, -1) translate(-1116.000000, -282.500000) "></path>
                <path d="M1212,65 L1017,109.369852 L1170.85906,160 L1212,65 Z" id="Rectangle-1287" fill="#ADE5FF" sketch:type="MSShapeGroup" transform="translate(1114.000000, 112.500000) scale(1, -1) translate(-1114.000000, -112.500000) "></path>
                <path d="M1883,0 L1883,5.45020298 L2031.05557,161 L2036,161 L2036,47.9426885 L1883,0 Z" id="Rectangle-1288" fill="#C2ECFF" sketch:type="MSShapeGroup" transform="translate(1959.500000, 80.500000) scale(1, -1) translate(-1959.500000, -80.500000) "></path>
                <path d="M1985.12287,484 L1885,410.991788 L2036,230 L2036,484 L1985.12287,484 Z" id="Rectangle-1289" fill="#A1E0FD" sketch:type="MSShapeGroup" transform="translate(1960.500000, 357.000000) scale(1, -1) translate(-1960.500000, -357.000000) "></path>
                <path d="M1694,334 L1694,484 L1807,334 L1694,334 Z" id="Rectangle-1290" fill="#A1E0FD" sketch:type="MSShapeGroup" transform="translate(1750.500000, 409.000000) scale(1, -1) translate(-1750.500000, -409.000000) "></path>
                <path d="M1887,484 L1693,453.019426 L1805.86053,303 L1887,484 Z" id="Rectangle-1291" fill="#90D9FA" sketch:type="MSShapeGroup" transform="translate(1790.000000, 393.500000) scale(1, -1) translate(-1790.000000, -393.500000) "></path>
                <path d="M1886.37894,484 L2037,303 L1805,303 L1886.37894,484 Z" id="Rectangle-1292" fill="#97DFFF" sketch:type="MSShapeGroup" transform="translate(1921.000000, 393.500000) scale(1, -1) translate(-1921.000000, -393.500000) "></path>
                <path d="M1887.06509,231 L1695,305 L2036,305 L1887.06509,231 Z" id="Rectangle-1293" fill="#97DFFF" sketch:type="MSShapeGroup" transform="translate(1865.500000, 268.000000) scale(1, -1) translate(-1865.500000, -268.000000) "></path>
                <path d="M1883.97765,1 L2036,160 L2028.75494,159.336617 L1840,94.5896213 L1883.97765,1 Z" id="Rectangle-1294" fill="#ADE5FF" sketch:type="MSShapeGroup" transform="translate(1938.000000, 80.000000) scale(1, -1) translate(-1938.000000, -80.000000) "></path>
                <path d="M1886.14062,232 L1695,158 L2036,158 L1886.14062,232 Z" id="Rectangle-1295" fill="#B2E7FF" sketch:type="MSShapeGroup" transform="translate(1865.500000, 195.000000) scale(1, -1) translate(-1865.500000, -195.000000) "></path>
                <path d="M1694,116 L1694,7.10829978e-15 L1848,50.567309 L1694,116 Z" id="Rectangle-1296" fill="#ADE5FF" sketch:type="MSShapeGroup" transform="translate(1770.500000, 58.000000) scale(1, -1) translate(-1770.500000, -58.000000) "></path>
                <path d="M1693,65 L2037,65 L1846.67059,0 L1693,65 Z" id="Rectangle-1297" fill="#97DFFF" sketch:type="MSShapeGroup" transform="translate(1865.000000, 33.000000) scale(1, -1) translate(-1865.000000, -33.000000) "></path>
                <path d="M1886,187.479433 L2036,234 L2036,112 L1886,187.479433 Z" id="Rectangle-1298" fill="#A1E0FD" sketch:type="MSShapeGroup" transform="translate(1961.000000, 173.000000) scale(1, -1) translate(-1961.000000, -173.000000) "></path>
                <path d="M1886,186.94622 L1695,113 L1695,233 L1886,186.94622 Z" id="Rectangle-1299" fill="#90D9FA" sketch:type="MSShapeGroup" transform="translate(1790.500000, 173.000000) scale(1, -1) translate(-1790.500000, -173.000000) "></path>
                <path d="M1888,260.929386 L1694,230 L1694,335 L1888,260.929386 Z" id="Rectangle-1300" fill="#ADE5FF" sketch:type="MSShapeGroup" transform="translate(1791.000000, 282.500000) scale(1, -1) translate(-1791.000000, -282.500000) "></path>
                <path d="M1887,65 L1692,109.369852 L1845.85906,160 L1887,65 Z" id="Rectangle-1301" fill="#A1E0FD" sketch:type="MSShapeGroup" transform="translate(1789.000000, 112.500000) scale(1, -1) translate(-1789.000000, -112.500000) "></path>
                <path d="M1545,0 L1545,5.45020298 L1693.05557,161 L1698,161 L1698,47.9426885 L1545,0 Z" id="Rectangle-1302" fill="#BDEBFF" sketch:type="MSShapeGroup" transform="translate(1621.500000, 80.500000) scale(1, -1) translate(-1621.500000, -80.500000) "></path>
                <path d="M1647.12287,484 L1547,410.991788 L1698,230 L1698,484 L1647.12287,484 Z" id="Rectangle-1303" fill="#97DFFF" sketch:type="MSShapeGroup" transform="translate(1622.500000, 357.000000) scale(1, -1) translate(-1622.500000, -357.000000) "></path>
                <path d="M1356,334 L1356,484 L1469,334 L1356,334 Z" id="Rectangle-1304" fill="#90D9FA" sketch:type="MSShapeGroup" transform="translate(1412.500000, 409.000000) scale(1, -1) translate(-1412.500000, -409.000000) "></path>
                <path d="M1549,484 L1355,453.019426 L1467.86053,303 L1549,484 Z" id="Rectangle-1305" fill="#97DFFF" sketch:type="MSShapeGroup" transform="translate(1452.000000, 393.500000) scale(1, -1) translate(-1452.000000, -393.500000) "></path>
                <path d="M1548.37894,484 L1699,303 L1467,303 L1548.37894,484 Z" id="Rectangle-1306" fill="#A1E0FD" sketch:type="MSShapeGroup" transform="translate(1583.000000, 393.500000) scale(1, -1) translate(-1583.000000, -393.500000) "></path>
                <path d="M1549.06509,231 L1357,305 L1698,305 L1549.06509,231 Z" id="Rectangle-1307" fill="#B2E7FF" sketch:type="MSShapeGroup" transform="translate(1527.500000, 268.000000) scale(1, -1) translate(-1527.500000, -268.000000) "></path>
                <path d="M1545.97765,1 L1698,160 L1690.75494,159.336617 L1502,94.5896213 L1545.97765,1 Z" id="Rectangle-1308" fill="#A1E0FD" sketch:type="MSShapeGroup" transform="translate(1600.000000, 80.000000) scale(1, -1) translate(-1600.000000, -80.000000) "></path>
                <path d="M1548.14062,232 L1357,158 L1698,158 L1548.14062,232 Z" id="Rectangle-1309" fill="#B2E7FF" sketch:type="MSShapeGroup" transform="translate(1527.500000, 195.000000) scale(1, -1) translate(-1527.500000, -195.000000) "></path>
                <path d="M1356,116 L1356,7.10829978e-15 L1510,50.567309 L1356,116 Z" id="Rectangle-1310" fill="#90D9FA" sketch:type="MSShapeGroup" transform="translate(1432.500000, 58.000000) scale(1, -1) translate(-1432.500000, -58.000000) "></path>
                <path d="M1355,65 L1699,65 L1508.67059,0 L1355,65 Z" id="Rectangle-1311" fill="#97DFFF" sketch:type="MSShapeGroup" transform="translate(1527.000000, 33.000000) scale(1, -1) translate(-1527.000000, -33.000000) "></path>
                <path d="M1548,187.479433 L1698,234 L1698,112 L1548,187.479433 Z" id="Rectangle-1312" fill="#90D9FA" sketch:type="MSShapeGroup" transform="translate(1623.000000, 173.000000) scale(1, -1) translate(-1623.000000, -173.000000) "></path>
                <path d="M1548,187.946261 L1357,114 L1357,233 L1548,187.946261 Z" id="Rectangle-1313" fill="#A1E0FD" sketch:type="MSShapeGroup" transform="translate(1452.500000, 173.500000) scale(1, -1) translate(-1452.500000, -173.500000) "></path>
                <path d="M1551,260.929386 L1357,230 L1357,335 L1551,260.929386 Z" id="Rectangle-1314" fill="#ADE5FF" sketch:type="MSShapeGroup" transform="translate(1454.000000, 282.500000) scale(1, -1) translate(-1454.000000, -282.500000) "></path>
                <path d="M293.122874,1446 L193,1372.99179 L344,1192 L344,1446 L293.122874,1446 Z" id="Rectangle-1478" fill="#A1E0FD" sketch:type="MSShapeGroup" transform="translate(268.500000, 1319.000000) scale(1, -1) translate(-268.500000, -1319.000000) "></path>
                <path d="M2,1296 L2,1446 L115,1296 L2,1296 Z" id="Rectangle-1217" fill="#AEE2FA" sketch:type="MSShapeGroup" transform="translate(58.500000, 1371.000000) scale(1, -1) translate(-58.500000, -1371.000000) "></path>
                <path d="M195,1446 L1,1415.01943 L113.860532,1265 L195,1446 Z" id="Rectangle-1221" fill="#97DFFF" sketch:type="MSShapeGroup" transform="translate(98.000000, 1355.500000) scale(1, -1) translate(-98.000000, -1355.500000) "></path>
                <path d="M194.378943,1446 L345,1265 L113,1265 L194.378943,1446 Z" id="Rectangle-1446" fill="#BDEBFF" sketch:type="MSShapeGroup" transform="translate(229.000000, 1355.500000) scale(1, -1) translate(-229.000000, -1355.500000) "></path>
                <path d="M195.065094,1193 L3,1267 L344,1267 L195.065094,1193 Z" id="Rectangle-1447" fill="#BDEBFF" sketch:type="MSShapeGroup" transform="translate(173.500000, 1230.000000) scale(1, -1) translate(-173.500000, -1230.000000) "></path>
                <path d="M196,1222.92939 L2,1192 L2,1297 L196,1222.92939 Z" id="Rectangle-1448" fill="#ADE5FF" sketch:type="MSShapeGroup" transform="translate(99.000000, 1244.500000) scale(1, -1) translate(-99.000000, -1244.500000) "></path>
                <path d="M971.122874,1446 L871,1372.99179 L1022,1192 L1022,1446 L971.122874,1446 Z" id="Rectangle-1449" fill="#A1E0FD" sketch:type="MSShapeGroup" transform="translate(946.500000, 1319.000000) scale(1, -1) translate(-946.500000, -1319.000000) "></path>
                <path d="M680,1296 L680,1446 L793,1296 L680,1296 Z" id="Rectangle-1450" fill="#A1E0FD" sketch:type="MSShapeGroup" transform="translate(736.500000, 1371.000000) scale(1, -1) translate(-736.500000, -1371.000000) "></path>
                <path d="M873,1446 L679,1415.01943 L791.860532,1265 L873,1446 Z" id="Rectangle-1451" fill="#97DFFF" sketch:type="MSShapeGroup" transform="translate(776.000000, 1355.500000) scale(1, -1) translate(-776.000000, -1355.500000) "></path>
                <path d="M872.378943,1446 L1023,1265 L791,1265 L872.378943,1446 Z" id="Rectangle-1452" fill="#BDEBFF" sketch:type="MSShapeGroup" transform="translate(907.000000, 1355.500000) scale(1, -1) translate(-907.000000, -1355.500000) "></path>
                <path d="M873.065094,1193 L681,1267 L1022,1267 L873.065094,1193 Z" id="Rectangle-1453" fill="#BDEBFF" sketch:type="MSShapeGroup" transform="translate(851.500000, 1230.000000) scale(1, -1) translate(-851.500000, -1230.000000) "></path>
                <path d="M874,1222.92939 L680,1192 L680,1297 L874,1222.92939 Z" id="Rectangle-1454" fill="#ADE5FF" sketch:type="MSShapeGroup" transform="translate(777.000000, 1244.500000) scale(1, -1) translate(-777.000000, -1244.500000) "></path>
                <path d="M633.122874,1446 L533,1372.99179 L684,1192 L684,1446 L633.122874,1446 Z" id="Rectangle-1455" fill="#97DFFF" sketch:type="MSShapeGroup" transform="translate(608.500000, 1319.000000) scale(1, -1) translate(-608.500000, -1319.000000) "></path>
                <path d="M342,1296 L342,1446 L455,1296 L342,1296 Z" id="Rectangle-1235" fill="#90D9FA" sketch:type="MSShapeGroup" transform="translate(398.500000, 1371.000000) scale(1, -1) translate(-398.500000, -1371.000000) "></path>
                <path d="M535,1446 L341,1415.01943 L453.860532,1265 L535,1446 Z" id="Rectangle-1456" fill="#BDEBFF" sketch:type="MSShapeGroup" transform="translate(438.000000, 1355.500000) scale(1, -1) translate(-438.000000, -1355.500000) "></path>
                <path d="M534.378943,1446 L685,1265 L453,1265 L534.378943,1446 Z" id="Rectangle-1457" fill="#A1E0FD" sketch:type="MSShapeGroup" transform="translate(569.000000, 1355.500000) scale(1, -1) translate(-569.000000, -1355.500000) "></path>
                <path d="M535.065094,1193 L343,1267 L684,1267 L535.065094,1193 Z" id="Rectangle-1458" fill="#A1E0FD" sketch:type="MSShapeGroup" transform="translate(513.500000, 1230.000000) scale(1, -1) translate(-513.500000, -1230.000000) "></path>
                <path d="M537,1222.92939 L343,1192 L343,1297 L537,1222.92939 Z" id="Rectangle-1459" fill="#ADE5FF" sketch:type="MSShapeGroup" transform="translate(440.000000, 1244.500000) scale(1, -1) translate(-440.000000, -1244.500000) "></path>
                <path d="M1310.12287,1446 L1210,1372.99179 L1361,1192 L1361,1446 L1310.12287,1446 Z" id="Rectangle-1460" fill="#A1E0FD" sketch:type="MSShapeGroup" transform="translate(1285.500000, 1319.000000) scale(1, -1) translate(-1285.500000, -1319.000000) "></path>
                <path d="M1019,1296 L1019,1446 L1132,1296 L1019,1296 Z" id="Rectangle-1461" fill="#90D9FA" sketch:type="MSShapeGroup" transform="translate(1075.500000, 1371.000000) scale(1, -1) translate(-1075.500000, -1371.000000) "></path>
                <path d="M1212,1446 L1018,1415.01943 L1130.86053,1265 L1212,1446 Z" id="Rectangle-1462" fill="#ADE5FF" sketch:type="MSShapeGroup" transform="translate(1115.000000, 1355.500000) scale(1, -1) translate(-1115.000000, -1355.500000) "></path>
                <path d="M1211.37894,1446 L1362,1265 L1130,1265 L1211.37894,1446 Z" id="Rectangle-1463" fill="#97DFFF" sketch:type="MSShapeGroup" transform="translate(1246.000000, 1355.500000) scale(1, -1) translate(-1246.000000, -1355.500000) "></path>
                <path d="M1212.06509,1193 L1020,1267 L1361,1267 L1212.06509,1193 Z" id="Rectangle-1464" fill="#97DFFF" sketch:type="MSShapeGroup" transform="translate(1190.500000, 1230.000000) scale(1, -1) translate(-1190.500000, -1230.000000) "></path>
                <path d="M1213,1222.92939 L1019,1192 L1019,1297 L1213,1222.92939 Z" id="Rectangle-1465" fill="#ADE5FF" sketch:type="MSShapeGroup" transform="translate(1116.000000, 1244.500000) scale(1, -1) translate(-1116.000000, -1244.500000) "></path>
                <path d="M1985.12287,1446 L1885,1372.99179 L2036,1192 L2036,1446 L1985.12287,1446 Z" id="Rectangle-1466" fill="#A1E0FD" sketch:type="MSShapeGroup" transform="translate(1960.500000, 1319.000000) scale(1, -1) translate(-1960.500000, -1319.000000) "></path>
                <path d="M1694,1296 L1694,1446 L1807,1296 L1694,1296 Z" id="Rectangle-1467" fill="#A1E0FD" sketch:type="MSShapeGroup" transform="translate(1750.500000, 1371.000000) scale(1, -1) translate(-1750.500000, -1371.000000) "></path>
                <path d="M1887,1446 L1693,1415.01943 L1805.86053,1265 L1887,1446 Z" id="Rectangle-1468" fill="#90D9FA" sketch:type="MSShapeGroup" transform="translate(1790.000000, 1355.500000) scale(1, -1) translate(-1790.000000, -1355.500000) "></path>
                <path d="M1886.37894,1446 L2037,1265 L1805,1265 L1886.37894,1446 Z" id="Rectangle-1469" fill="#97DFFF" sketch:type="MSShapeGroup" transform="translate(1921.000000, 1355.500000) scale(1, -1) translate(-1921.000000, -1355.500000) "></path>
                <path d="M1887.06509,1193 L1695,1267 L2036,1267 L1887.06509,1193 Z" id="Rectangle-1470" fill="#97DFFF" sketch:type="MSShapeGroup" transform="translate(1865.500000, 1230.000000) scale(1, -1) translate(-1865.500000, -1230.000000) "></path>
                <path d="M1888,1222.92939 L1694,1192 L1694,1297 L1888,1222.92939 Z" id="Rectangle-1471" fill="#ADE5FF" sketch:type="MSShapeGroup" transform="translate(1791.000000, 1244.500000) scale(1, -1) translate(-1791.000000, -1244.500000) "></path>
                <path d="M1647.12287,1446 L1547,1372.99179 L1698,1192 L1698,1446 L1647.12287,1446 Z" id="Rectangle-1472" fill="#97DFFF" sketch:type="MSShapeGroup" transform="translate(1622.500000, 1319.000000) scale(1, -1) translate(-1622.500000, -1319.000000) "></path>
                <path d="M1356,1296 L1356,1446 L1469,1296 L1356,1296 Z" id="Rectangle-1473" fill="#90D9FA" sketch:type="MSShapeGroup" transform="translate(1412.500000, 1371.000000) scale(1, -1) translate(-1412.500000, -1371.000000) "></path>
                <path d="M1549,1446 L1355,1415.01943 L1467.86053,1265 L1549,1446 Z" id="Rectangle-1474" fill="#97DFFF" sketch:type="MSShapeGroup" transform="translate(1452.000000, 1355.500000) scale(1, -1) translate(-1452.000000, -1355.500000) "></path>
                <path d="M1548.37894,1446 L1699,1265 L1467,1265 L1548.37894,1446 Z" id="Rectangle-1475" fill="#A1E0FD" sketch:type="MSShapeGroup" transform="translate(1583.000000, 1355.500000) scale(1, -1) translate(-1583.000000, -1355.500000) "></path>
                <path d="M1549.06509,1193 L1357,1267 L1698,1267 L1549.06509,1193 Z" id="Rectangle-1476" fill="#B2E7FF" sketch:type="MSShapeGroup" transform="translate(1527.500000, 1230.000000) scale(1, -1) translate(-1527.500000, -1230.000000) "></path>
                <path d="M1551,1222.92939 L1357,1192 L1357,1297 L1551,1222.92939 Z" id="Rectangle-1477" fill="#ADE5FF" sketch:type="MSShapeGroup" transform="translate(1454.000000, 1244.500000) scale(1, -1) translate(-1454.000000, -1244.500000) "></path>
                <path d="M293.122874,964 L193,890.991788 L344,710 L344,964 L293.122874,964 Z" id="Rectangle-1397" fill="#A1E0FD" sketch:type="MSShapeGroup" transform="translate(268.500000, 837.000000) scale(1, -1) translate(-268.500000, -837.000000) "></path>
                <path d="M2,814 L2,964 L115,814 L2,814 Z" id="Rectangle-1216" fill="#AEE2FA" sketch:type="MSShapeGroup" transform="translate(58.500000, 889.000000) scale(1, -1) translate(-58.500000, -889.000000) "></path>
                <path d="M195,964 L1,933.019426 L113.860532,783 L195,964 Z" id="Rectangle-1220" fill="#90D9FA" sketch:type="MSShapeGroup" transform="translate(98.000000, 873.500000) scale(1, -1) translate(-98.000000, -873.500000) "></path>
                <path d="M194.378943,964 L345,813.609432 L345,783 L113,783 L194.378943,964 Z" id="Rectangle-1365" fill="#90D9FA" sketch:type="MSShapeGroup" transform="translate(229.000000, 873.500000) scale(1, -1) translate(-229.000000, -873.500000) "></path>
                <path d="M195.065094,711 L3,785 L344,785 L195.065094,711 Z" id="Rectangle-1366" fill="#BDEBFF" sketch:type="MSShapeGroup" transform="translate(173.500000, 748.000000) scale(1, -1) translate(-173.500000, -748.000000) "></path>
                <path d="M196,740.929386 L2,710 L2,815 L196,740.929386 Z" id="Rectangle-1367" fill="#ADE5FF" sketch:type="MSShapeGroup" transform="translate(99.000000, 762.500000) scale(1, -1) translate(-99.000000, -762.500000) "></path>
                <path d="M971.122874,964 L871,890.991788 L1022,710 L1022,964 L971.122874,964 Z" id="Rectangle-1368" fill="#A1E0FD" sketch:type="MSShapeGroup" transform="translate(946.500000, 837.000000) scale(1, -1) translate(-946.500000, -837.000000) "></path>
                <path d="M680,814 L680,964 L793,814 L680,814 Z" id="Rectangle-1369" fill="#A1E0FD" sketch:type="MSShapeGroup" transform="translate(736.500000, 889.000000) scale(1, -1) translate(-736.500000, -889.000000) "></path>
                <path d="M873,964 L679,933.019426 L791.860532,783 L873,964 Z" id="Rectangle-1370" fill="#97DFFF" sketch:type="MSShapeGroup" transform="translate(776.000000, 873.500000) scale(1, -1) translate(-776.000000, -873.500000) "></path>
                <path d="M872.37804,964 L1025,783 L791,783 L872.37804,964 Z" id="Rectangle-1371" fill="#90D9FA" sketch:type="MSShapeGroup" transform="translate(908.000000, 873.500000) scale(1, -1) translate(-908.000000, -873.500000) "></path>
                <path d="M873.065094,711 L681,785 L1022,785 L873.065094,711 Z" id="Rectangle-1372" fill="#BDEBFF" sketch:type="MSShapeGroup" transform="translate(851.500000, 748.000000) scale(1, -1) translate(-851.500000, -748.000000) "></path>
                <path d="M874,740.929386 L680,710 L680,815 L874,740.929386 Z" id="Rectangle-1373" fill="#ADE5FF" sketch:type="MSShapeGroup" transform="translate(777.000000, 762.500000) scale(1, -1) translate(-777.000000, -762.500000) "></path>
                <path d="M633.122874,964 L533,890.991788 L684,710 L684,964 L633.122874,964 Z" id="Rectangle-1374" fill="#97DFFF" sketch:type="MSShapeGroup" transform="translate(608.500000, 837.000000) scale(1, -1) translate(-608.500000, -837.000000) "></path>
                <path d="M342,814 L342,964 L455,814 L342,814 Z" id="Rectangle-1234" fill="#90D9FA" sketch:type="MSShapeGroup" transform="translate(398.500000, 889.000000) scale(1, -1) translate(-398.500000, -889.000000) "></path>
                <path d="M535,964 L341,933.019426 L453.860532,783 L535,964 Z" id="Rectangle-1375" fill="#BDEBFF" sketch:type="MSShapeGroup" transform="translate(438.000000, 873.500000) scale(1, -1) translate(-438.000000, -873.500000) "></path>
                <path d="M534.378943,964 L685,808.233736 L685,783 L453,783 L534.378943,964 Z" id="Rectangle-1376" fill="#A1E0FD" sketch:type="MSShapeGroup" transform="translate(569.000000, 873.500000) scale(1, -1) translate(-569.000000, -873.500000) "></path>
                <path d="M535.065094,711 L343,785 L684,785 L535.065094,711 Z" id="Rectangle-1377" fill="#A1E0FD" sketch:type="MSShapeGroup" transform="translate(513.500000, 748.000000) scale(1, -1) translate(-513.500000, -748.000000) "></path>
                <path d="M537,740.929386 L343,710 L343,815 L537,740.929386 Z" id="Rectangle-1378" fill="#ADE5FF" sketch:type="MSShapeGroup" transform="translate(440.000000, 762.500000) scale(1, -1) translate(-440.000000, -762.500000) "></path>
                <path d="M1310.12287,964 L1210,890.991788 L1361,710 L1361,964 L1310.12287,964 Z" id="Rectangle-1379" fill="#A1E0FD" sketch:type="MSShapeGroup" transform="translate(1285.500000, 837.000000) scale(1, -1) translate(-1285.500000, -837.000000) "></path>
                <path d="M1019,814 L1019,964 L1132,814 L1019,814 Z" id="Rectangle-1380" fill="#90D9FA" sketch:type="MSShapeGroup" transform="translate(1075.500000, 889.000000) scale(1, -1) translate(-1075.500000, -889.000000) "></path>
                <path d="M1212,964 L1018,933.019426 L1130.86053,783 L1212,964 Z" id="Rectangle-1381" fill="#ADE5FF" sketch:type="MSShapeGroup" transform="translate(1115.000000, 873.500000) scale(1, -1) translate(-1115.000000, -873.500000) "></path>
                <path d="M1211.37894,964 L1361.15055,802.663435 L1362,783 L1130,783 L1211.37894,964 Z" id="Rectangle-1382" fill="#97DFFF" sketch:type="MSShapeGroup" transform="translate(1246.000000, 873.500000) scale(1, -1) translate(-1246.000000, -873.500000) "></path>
                <path d="M1212.06509,711 L1020,785 L1361,785 L1212.06509,711 Z" id="Rectangle-1383" fill="#97DFFF" sketch:type="MSShapeGroup" transform="translate(1190.500000, 748.000000) scale(1, -1) translate(-1190.500000, -748.000000) "></path>
                <path d="M1213,740.929386 L1019,710 L1019,815 L1213,740.929386 Z" id="Rectangle-1384" fill="#ADE5FF" sketch:type="MSShapeGroup" transform="translate(1116.000000, 762.500000) scale(1, -1) translate(-1116.000000, -762.500000) "></path>
                <path d="M1985.12287,964 L1885,890.991788 L2036,710 L2036,964 L1985.12287,964 Z" id="Rectangle-1385" fill="#A1E0FD" sketch:type="MSShapeGroup" transform="translate(1960.500000, 837.000000) scale(1, -1) translate(-1960.500000, -837.000000) "></path>
                <path d="M1694,814 L1694,964 L1807,814 L1694,814 Z" id="Rectangle-1386" fill="#A1E0FD" sketch:type="MSShapeGroup" transform="translate(1750.500000, 889.000000) scale(1, -1) translate(-1750.500000, -889.000000) "></path>
                <path d="M1887,964 L1693,933.019426 L1805.86053,783 L1887,964 Z" id="Rectangle-1387" fill="#90D9FA" sketch:type="MSShapeGroup" transform="translate(1790.000000, 873.500000) scale(1, -1) translate(-1790.000000, -873.500000) "></path>
                <path d="M1886.37894,964 L2037,783 L1805,783 L1886.37894,964 Z" id="Rectangle-1388" fill="#90D9FA" sketch:type="MSShapeGroup" transform="translate(1921.000000, 873.500000) scale(1, -1) translate(-1921.000000, -873.500000) "></path>
                <path d="M1887.06509,711 L1695,785 L2036,785 L1887.06509,711 Z" id="Rectangle-1389" fill="#97DFFF" sketch:type="MSShapeGroup" transform="translate(1865.500000, 748.000000) scale(1, -1) translate(-1865.500000, -748.000000) "></path>
                <path d="M1888,740.929386 L1694,710 L1694,815 L1888,740.929386 Z" id="Rectangle-1390" fill="#ADE5FF" sketch:type="MSShapeGroup" transform="translate(1791.000000, 762.500000) scale(1, -1) translate(-1791.000000, -762.500000) "></path>
                <path d="M1647.12287,964 L1547,890.991788 L1698,710 L1698,964 L1647.12287,964 Z" id="Rectangle-1391" fill="#97DFFF" sketch:type="MSShapeGroup" transform="translate(1622.500000, 837.000000) scale(1, -1) translate(-1622.500000, -837.000000) "></path>
                <path d="M1356,814 L1356,964 L1469,814 L1356,814 Z" id="Rectangle-1392" fill="#90D9FA" sketch:type="MSShapeGroup" transform="translate(1412.500000, 889.000000) scale(1, -1) translate(-1412.500000, -889.000000) "></path>
                <path d="M1549,964 L1355,933.019426 L1467.86053,783 L1549,964 Z" id="Rectangle-1393" fill="#97DFFF" sketch:type="MSShapeGroup" transform="translate(1452.000000, 873.500000) scale(1, -1) translate(-1452.000000, -873.500000) "></path>
                <path d="M1548.37894,964 L1699,805.803734 L1699,783 L1467,783 L1548.37894,964 Z" id="Rectangle-1394" fill="#90D9FA" sketch:type="MSShapeGroup" transform="translate(1583.000000, 873.500000) scale(1, -1) translate(-1583.000000, -873.500000) "></path>
                <path d="M1549.06509,711 L1357,785 L1698,785 L1549.06509,711 Z" id="Rectangle-1395" fill="#B2E7FF" sketch:type="MSShapeGroup" transform="translate(1527.500000, 748.000000) scale(1, -1) translate(-1527.500000, -748.000000) "></path>
                <path d="M1551,740.929386 L1357,710 L1357,815 L1551,740.929386 Z" id="Rectangle-1396" fill="#ADE5FF" sketch:type="MSShapeGroup" transform="translate(1454.000000, 762.500000) scale(1, -1) translate(-1454.000000, -762.500000) "></path>
                <path d="M1549,65 L1354,110.371499 L1507.85906,160 L1549,65 Z" id="Rectangle-1315" fill="#B2E7FF" sketch:type="MSShapeGroup" transform="translate(1451.000000, 112.500000) scale(1, -1) translate(-1451.000000, -112.500000) "></path>
                <path d="M191,962 L191,967.450203 L339.055568,1123 L344,1123 L344,1009.94269 L191,962 Z" id="Rectangle-1445" fill="#97DFFF" sketch:type="MSShapeGroup" transform="translate(267.500000, 1042.500000) scale(1, -1) translate(-267.500000, -1042.500000) "></path>
                <path d="M191.977652,963 L344,1122 L336.754941,1121.33662 L148,1056.58962 L191.977652,963 Z" id="Rectangle-1398" fill="#A1E0FD" sketch:type="MSShapeGroup" transform="translate(246.000000, 1042.000000) scale(1, -1) translate(-246.000000, -1042.000000) "></path>
                <path d="M194.140625,1194 L3,1120 L344,1120 L194.140625,1194 Z" id="Rectangle-1399" fill="#B2E7FF" sketch:type="MSShapeGroup" transform="translate(173.500000, 1157.000000) scale(1, -1) translate(-173.500000, -1157.000000) "></path>
                <path d="M2,1078 L2,962 L156,1012.56731 L2,1078 Z" id="Rectangle-1400" fill="#C2ECFF" sketch:type="MSShapeGroup" transform="translate(78.500000, 1020.000000) scale(1, -1) translate(-78.500000, -1020.000000) "></path>
                <path d="M1,1027 L345,1027 L154.670586,962 L1,1027 Z" id="Rectangle-1401" fill="#CEF0FF" sketch:type="MSShapeGroup" transform="translate(173.000000, 995.000000) scale(1, -1) translate(-173.000000, -995.000000) "></path>
                <path d="M194,1150.47962 L344,1197 L344,1074 L194,1150.47962 Z" id="Rectangle-1402" fill="#A1E0FD" sketch:type="MSShapeGroup" transform="translate(269.000000, 1135.500000) scale(1, -1) translate(-269.000000, -1135.500000) "></path>
                <path d="M194,1150.9463 L3,1077 L3,1195 L194,1150.9463 Z" id="Rectangle-1403" fill="#90D9FA" sketch:type="MSShapeGroup" transform="translate(98.500000, 1136.000000) scale(1, -1) translate(-98.500000, -1136.000000) "></path>
                <path d="M195,1027 L0,1071.36985 L153.85906,1122 L195,1027 Z" id="Rectangle-1404" fill="#ADE5FF" sketch:type="MSShapeGroup" transform="translate(97.000000, 1074.500000) scale(1, -1) translate(-97.000000, -1074.500000) "></path>
                <path d="M869,962 L869,967.450203 L1017.05557,1123 L1022,1123 L1022,1009.94269 L869,962 Z" id="Rectangle-1405" fill="#90D9FA" sketch:type="MSShapeGroup" transform="translate(945.500000, 1042.500000) scale(1, -1) translate(-945.500000, -1042.500000) "></path>
                <path d="M869.977652,963 L1022,1122 L1014.75494,1121.33662 L826,1056.58962 L869.977652,963 Z" id="Rectangle-1406" fill="#ADE5FF" sketch:type="MSShapeGroup" transform="translate(924.000000, 1042.000000) scale(1, -1) translate(-924.000000, -1042.000000) "></path>
                <path d="M872.140625,1194 L681,1120 L1022,1120 L872.140625,1194 Z" id="Rectangle-1407" fill="#B2E7FF" sketch:type="MSShapeGroup" transform="translate(851.500000, 1157.000000) scale(1, -1) translate(-851.500000, -1157.000000) "></path>
                <path d="M680,1078 L680,962 L834,1012.56731 L680,1078 Z" id="Rectangle-1408" fill="#ADE5FF" sketch:type="MSShapeGroup" transform="translate(756.500000, 1020.000000) scale(1, -1) translate(-756.500000, -1020.000000) "></path>
                <path d="M679,1027 L1023,1027 L832.670586,962 L679,1027 Z" id="Rectangle-1409" fill="#90D9FA" sketch:type="MSShapeGroup" transform="translate(851.000000, 995.000000) scale(1, -1) translate(-851.000000, -995.000000) "></path>
                <path d="M872,1149.47943 L1022,1196 L1022,1074 L872,1149.47943 Z" id="Rectangle-1410" fill="#A1E0FD" sketch:type="MSShapeGroup" transform="translate(947.000000, 1135.000000) scale(1, -1) translate(-947.000000, -1135.000000) "></path>
                <path d="M872,1148.94622 L681,1075 L681,1195 L872,1148.94622 Z" id="Rectangle-1411" fill="#90D9FA" sketch:type="MSShapeGroup" transform="translate(776.500000, 1135.000000) scale(1, -1) translate(-776.500000, -1135.000000) "></path>
                <path d="M873,1027 L678,1071.36985 L831.85906,1122 L873,1027 Z" id="Rectangle-1412" fill="#A1E0FD" sketch:type="MSShapeGroup" transform="translate(775.000000, 1074.500000) scale(1, -1) translate(-775.000000, -1074.500000) "></path>
                <path d="M531,962 L531,967.450203 L679.055568,1123 L684,1123 L684,1009.94269 L531,962 Z" id="Rectangle-1413" fill="#97DFFF" sketch:type="MSShapeGroup" transform="translate(607.500000, 1042.500000) scale(1, -1) translate(-607.500000, -1042.500000) "></path>
                <path d="M531.977652,963 L684,1122 L676.754941,1121.33662 L488,1056.58962 L531.977652,963 Z" id="Rectangle-1414" fill="#90D9FA" sketch:type="MSShapeGroup" transform="translate(586.000000, 1042.000000) scale(1, -1) translate(-586.000000, -1042.000000) "></path>
                <path d="M534.140625,1193.31274 L511.058043,1194 L343,1119 L684,1119 L534.140625,1193.31274 Z" id="Rectangle-1415" fill="#B2E7FF" sketch:type="MSShapeGroup" transform="translate(513.500000, 1156.500000) scale(1, -1) translate(-513.500000, -1156.500000) "></path>
                <path d="M342,1078 L342,962 L496,1012.56731 L342,1078 Z" id="Rectangle-1416" fill="#ADE5FF" sketch:type="MSShapeGroup" transform="translate(418.500000, 1020.000000) scale(1, -1) translate(-418.500000, -1020.000000) "></path>
                <path d="M341,1027 L685,1027 L494.670586,962 L341,1027 Z" id="Rectangle-1417" fill="#90D9FA" sketch:type="MSShapeGroup" transform="translate(513.000000, 995.000000) scale(1, -1) translate(-513.000000, -995.000000) "></path>
                <path d="M534,1149.47943 L684,1196 L684,1074 L534,1149.47943 Z" id="Rectangle-1418" fill="#90D9FA" sketch:type="MSShapeGroup" transform="translate(609.000000, 1135.000000) scale(1, -1) translate(-609.000000, -1135.000000) "></path>
                <path d="M534,1148.94624 L343,1076 L343,1194 L534,1148.94624 Z" id="Rectangle-1419" fill="#A1E0FD" sketch:type="MSShapeGroup" transform="translate(438.500000, 1135.000000) scale(1, -1) translate(-438.500000, -1135.000000) "></path>
                <path d="M535,1027 L340,1072.3715 L493.85906,1122 L535,1027 Z" id="Rectangle-1420" fill="#B2E7FF" sketch:type="MSShapeGroup" transform="translate(437.000000, 1074.500000) scale(1, -1) translate(-437.000000, -1074.500000) "></path>
                <path d="M1208,962 L1208,967.450203 L1356.05557,1123 L1361,1123 L1361,1009.94269 L1208,962 Z" id="Rectangle-1421" fill="#90D9FA" sketch:type="MSShapeGroup" transform="translate(1284.500000, 1042.500000) scale(1, -1) translate(-1284.500000, -1042.500000) "></path>
                <path d="M1208.97765,963 L1361,1122 L1353.75494,1121.33662 L1165,1056.58962 L1208.97765,963 Z" id="Rectangle-1422" fill="#A1E0FD" sketch:type="MSShapeGroup" transform="translate(1263.000000, 1042.000000) scale(1, -1) translate(-1263.000000, -1042.000000) "></path>
                <path d="M1211.14062,1194 L1020,1120 L1361,1120 L1211.14062,1194 Z" id="Rectangle-1423" fill="#97DFFF" sketch:type="MSShapeGroup" transform="translate(1190.500000, 1157.000000) scale(1, -1) translate(-1190.500000, -1157.000000) "></path>
                <path d="M1019,1078 L1019,962 L1173,1012.56731 L1019,1078 Z" id="Rectangle-1424" fill="#90D9FA" sketch:type="MSShapeGroup" transform="translate(1095.500000, 1020.000000) scale(1, -1) translate(-1095.500000, -1020.000000) "></path>
                <path d="M1018,1027 L1362,1027 L1171.67059,962 L1018,1027 Z" id="Rectangle-1425" fill="#90D9FA" sketch:type="MSShapeGroup" transform="translate(1190.000000, 995.000000) scale(1, -1) translate(-1190.000000, -995.000000) "></path>
                <path d="M1211,1149.47943 L1361,1196 L1361,1074 L1211,1149.47943 Z" id="Rectangle-1426" fill="#ADE5FF" sketch:type="MSShapeGroup" transform="translate(1286.000000, 1135.000000) scale(1, -1) translate(-1286.000000, -1135.000000) "></path>
                <path d="M1211,1150.9463 L1020,1077 L1020,1195 L1211,1150.9463 Z" id="Rectangle-1427" fill="#A1E0FD" sketch:type="MSShapeGroup" transform="translate(1115.500000, 1136.000000) scale(1, -1) translate(-1115.500000, -1136.000000) "></path>
                <path d="M1212,1027 L1017,1071.36985 L1170.85906,1122 L1212,1027 Z" id="Rectangle-1428" fill="#ADE5FF" sketch:type="MSShapeGroup" transform="translate(1114.000000, 1074.500000) scale(1, -1) translate(-1114.000000, -1074.500000) "></path>
                <path d="M1883,962 L1883,967.450203 L2031.05557,1123 L2036,1123 L2036,1009.94269 L1883,962 Z" id="Rectangle-1429" fill="#90D9FA" sketch:type="MSShapeGroup" transform="translate(1959.500000, 1042.500000) scale(1, -1) translate(-1959.500000, -1042.500000) "></path>
                <path d="M1883.97765,963 L2036,1122 L2028.75494,1121.33662 L1840,1056.58962 L1883.97765,963 Z" id="Rectangle-1430" fill="#ADE5FF" sketch:type="MSShapeGroup" transform="translate(1938.000000, 1042.000000) scale(1, -1) translate(-1938.000000, -1042.000000) "></path>
                <path d="M1886.14062,1194 L1695,1120 L2036,1120 L1886.14062,1194 Z" id="Rectangle-1431" fill="#B2E7FF" sketch:type="MSShapeGroup" transform="translate(1865.500000, 1157.000000) scale(1, -1) translate(-1865.500000, -1157.000000) "></path>
                <path d="M1694,1078 L1694,962 L1848,1012.56731 L1694,1078 Z" id="Rectangle-1432" fill="#ADE5FF" sketch:type="MSShapeGroup" transform="translate(1770.500000, 1020.000000) scale(1, -1) translate(-1770.500000, -1020.000000) "></path>
                <path d="M1693,1027 L2037,1027 L1846.67059,962 L1693,1027 Z" id="Rectangle-1433" fill="#97DFFF" sketch:type="MSShapeGroup" transform="translate(1865.000000, 995.000000) scale(1, -1) translate(-1865.000000, -995.000000) "></path>
                <path d="M1886,1149.47943 L2036,1196 L2036,1074 L1886,1149.47943 Z" id="Rectangle-1434" fill="#90D9FA" sketch:type="MSShapeGroup" transform="translate(1961.000000, 1135.000000) scale(1, -1) translate(-1961.000000, -1135.000000) "></path>
                <path d="M1886,1148.94622 L1695,1075 L1695,1195 L1886,1148.94622 Z" id="Rectangle-1435" fill="#BDEBFF" sketch:type="MSShapeGroup" transform="translate(1790.500000, 1135.000000) scale(1, -1) translate(-1790.500000, -1135.000000) "></path>
                <path d="M1887,1027 L1692,1071.36985 L1845.85906,1122 L1887,1027 Z" id="Rectangle-1436" fill="#A1E0FD" sketch:type="MSShapeGroup" transform="translate(1789.000000, 1074.500000) scale(1, -1) translate(-1789.000000, -1074.500000) "></path>
                <path d="M1545,962 L1545,967.450203 L1693.05557,1123 L1698,1123 L1698,1009.94269 L1545,962 Z" id="Rectangle-1437" fill="#BDEBFF" sketch:type="MSShapeGroup" transform="translate(1621.500000, 1042.500000) scale(1, -1) translate(-1621.500000, -1042.500000) "></path>
                <path d="M1545.97765,963 L1698,1122 L1690.75494,1121.33662 L1502,1056.58962 L1545.97765,963 Z" id="Rectangle-1438" fill="#A1E0FD" sketch:type="MSShapeGroup" transform="translate(1600.000000, 1042.000000) scale(1, -1) translate(-1600.000000, -1042.000000) "></path>
                <path d="M1548.14062,1194 L1357,1120 L1698,1120 L1548.14062,1194 Z" id="Rectangle-1439" fill="#90D9FA" sketch:type="MSShapeGroup" transform="translate(1527.500000, 1157.000000) scale(1, -1) translate(-1527.500000, -1157.000000) "></path>
                <path d="M1356,1078 L1356,962 L1510,1012.56731 L1356,1078 Z" id="Rectangle-1440" fill="#90D9FA" sketch:type="MSShapeGroup" transform="translate(1432.500000, 1020.000000) scale(1, -1) translate(-1432.500000, -1020.000000) "></path>
                <path d="M1355,1027 L1699,1027 L1508.67059,962 L1355,1027 Z" id="Rectangle-1441" fill="#97DFFF" sketch:type="MSShapeGroup" transform="translate(1527.000000, 995.000000) scale(1, -1) translate(-1527.000000, -995.000000) "></path>
                <path d="M1548,1149.47943 L1698,1196 L1698,1074 L1548,1149.47943 Z" id="Rectangle-1442" fill="#90D9FA" sketch:type="MSShapeGroup" transform="translate(1623.000000, 1135.000000) scale(1, -1) translate(-1623.000000, -1135.000000) "></path>
                <path d="M1548,1149.94626 L1357,1076 L1357,1195 L1548,1149.94626 Z" id="Rectangle-1443" fill="#A1E0FD" sketch:type="MSShapeGroup" transform="translate(1452.500000, 1135.500000) scale(1, -1) translate(-1452.500000, -1135.500000) "></path>
                <path d="M1549,1027 L1354,1072.3715 L1507.85906,1122 L1549,1027 Z" id="Rectangle-1444" fill="#B2E7FF" sketch:type="MSShapeGroup" transform="translate(1451.000000, 1074.500000) scale(1, -1) translate(-1451.000000, -1074.500000) "></path>
                <path d="M191,482 L191,487.450203 L339.055568,643 L344,643 L344,529.942689 L191,482 Z" id="Rectangle-1364" fill="#97DFFF" sketch:type="MSShapeGroup" transform="translate(267.500000, 562.500000) scale(1, -1) translate(-267.500000, -562.500000) "></path>
                <path d="M191.977652,483 L344,642 L336.754941,641.336617 L148,576.589621 L191.977652,483 Z" id="Rectangle-1317" fill="#A1E0FD" sketch:type="MSShapeGroup" transform="translate(246.000000, 562.000000) scale(1, -1) translate(-246.000000, -562.000000) "></path>
                <path d="M194.140625,714 L3,640 L344,640 L194.140625,714 Z" id="Rectangle-1318" fill="#B2E7FF" sketch:type="MSShapeGroup" transform="translate(173.500000, 677.000000) scale(1, -1) translate(-173.500000, -677.000000) "></path>
                <path d="M2,598 L2,482 L156,532.567309 L2,598 Z" id="Rectangle-1319" fill="#C2ECFF" sketch:type="MSShapeGroup" transform="translate(78.500000, 540.000000) scale(1, -1) translate(-78.500000, -540.000000) "></path>
                <path d="M1,547 L345,547 L154.670586,482 L1,547 Z" id="Rectangle-1320" fill="#90D9FA" sketch:type="MSShapeGroup" transform="translate(173.000000, 515.000000) scale(1, -1) translate(-173.000000, -515.000000) "></path>
                <path d="M194,669.479433 L344,716 L344,594 L194,669.479433 Z" id="Rectangle-1321" fill="#A1E0FD" sketch:type="MSShapeGroup" transform="translate(269.000000, 655.000000) scale(1, -1) translate(-269.000000, -655.000000) "></path>
                <path d="M194,670.946302 L3,597 L3,715 L194,670.946302 Z" id="Rectangle-1322" fill="#A1E0FD" sketch:type="MSShapeGroup" transform="translate(98.500000, 656.000000) scale(1, -1) translate(-98.500000, -656.000000) "></path>
                <path d="M195,547 L0,591.369852 L153.85906,642 L195,547 Z" id="Rectangle-1323" fill="#ADE5FF" sketch:type="MSShapeGroup" transform="translate(97.000000, 594.500000) scale(1, -1) translate(-97.000000, -594.500000) "></path>
                <path d="M869,482 L869,487.450203 L1017.05557,643 L1022,643 L1022,529.942689 L869,482 Z" id="Rectangle-1324" fill="#BDEBFF" sketch:type="MSShapeGroup" transform="translate(945.500000, 562.500000) scale(1, -1) translate(-945.500000, -562.500000) "></path>
                <path d="M869.977652,483 L1022,642 L1014.75494,641.336617 L826,576.589621 L869.977652,483 Z" id="Rectangle-1325" fill="#ADE5FF" sketch:type="MSShapeGroup" transform="translate(924.000000, 562.000000) scale(1, -1) translate(-924.000000, -562.000000) "></path>
                <path d="M872.140625,714 L681,640 L1022,640 L872.140625,714 Z" id="Rectangle-1326" fill="#B2E7FF" sketch:type="MSShapeGroup" transform="translate(851.500000, 677.000000) scale(1, -1) translate(-851.500000, -677.000000) "></path>
                <path d="M680,598 L680,482 L834,532.567309 L680,598 Z" id="Rectangle-1327" fill="#ADE5FF" sketch:type="MSShapeGroup" transform="translate(756.500000, 540.000000) scale(1, -1) translate(-756.500000, -540.000000) "></path>
                <path d="M679,547 L1023,547 L832.670586,482 L679,547 Z" id="Rectangle-1328" fill="#90D9FA" sketch:type="MSShapeGroup" transform="translate(851.000000, 515.000000) scale(1, -1) translate(-851.000000, -515.000000) "></path>
                <path d="M872,669.479433 L1022,716 L1022,594 L872,669.479433 Z" id="Rectangle-1329" fill="#A1E0FD" sketch:type="MSShapeGroup" transform="translate(947.000000, 655.000000) scale(1, -1) translate(-947.000000, -655.000000) "></path>
                <path d="M872,668.94622 L681,595 L681,715 L872,668.94622 Z" id="Rectangle-1330" fill="#ADE5FF" sketch:type="MSShapeGroup" transform="translate(776.500000, 655.000000) scale(1, -1) translate(-776.500000, -655.000000) "></path>
                <path d="M873,547 L678,591.369852 L831.85906,642 L873,547 Z" id="Rectangle-1331" fill="#A1E0FD" sketch:type="MSShapeGroup" transform="translate(775.000000, 594.500000) scale(1, -1) translate(-775.000000, -594.500000) "></path>
                <path d="M531,482 L531,487.450203 L679.055568,643 L684,643 L684,529.942689 L531,482 Z" id="Rectangle-1332" fill="#97DFFF" sketch:type="MSShapeGroup" transform="translate(607.500000, 562.500000) scale(1, -1) translate(-607.500000, -562.500000) "></path>
                <path d="M531.977652,483 L684,642 L676.754941,641.336617 L488,576.589621 L531.977652,483 Z" id="Rectangle-1333" fill="#A1E0FD" sketch:type="MSShapeGroup" transform="translate(586.000000, 562.000000) scale(1, -1) translate(-586.000000, -562.000000) "></path>
                <path d="M534.140625,714 L343,640 L684,640 L534.140625,714 Z" id="Rectangle-1334" fill="#B2E7FF" sketch:type="MSShapeGroup" transform="translate(513.500000, 677.000000) scale(1, -1) translate(-513.500000, -677.000000) "></path>
                <path d="M342,598 L342,482 L496,532.567309 L342,598 Z" id="Rectangle-1335" fill="#ADE5FF" sketch:type="MSShapeGroup" transform="translate(418.500000, 540.000000) scale(1, -1) translate(-418.500000, -540.000000) "></path>
                <path d="M341,547 L685,547 L494.670586,482 L341,547 Z" id="Rectangle-1336" fill="#90D9FA" sketch:type="MSShapeGroup" transform="translate(513.000000, 515.000000) scale(1, -1) translate(-513.000000, -515.000000) "></path>
                <path d="M534,669.479433 L684,716 L684,594 L534,669.479433 Z" id="Rectangle-1337" fill="#ADE5FF" sketch:type="MSShapeGroup" transform="translate(609.000000, 655.000000) scale(1, -1) translate(-609.000000, -655.000000) "></path>
                <path d="M534,669.946261 L343,596 L343,715 L534,669.946261 Z" id="Rectangle-1338" fill="#A1E0FD" sketch:type="MSShapeGroup" transform="translate(438.500000, 655.500000) scale(1, -1) translate(-438.500000, -655.500000) "></path>
                <path d="M535,547 L340,592.371499 L493.85906,642 L535,547 Z" id="Rectangle-1339" fill="#B2E7FF" sketch:type="MSShapeGroup" transform="translate(437.000000, 594.500000) scale(1, -1) translate(-437.000000, -594.500000) "></path>
                <path d="M1208,482 L1208,487.450203 L1356.05557,643 L1361,643 L1361,529.942689 L1208,482 Z" id="Rectangle-1340" fill="#BDEBFF" sketch:type="MSShapeGroup" transform="translate(1284.500000, 562.500000) scale(1, -1) translate(-1284.500000, -562.500000) "></path>
                <path d="M1208.97765,483 L1361,642 L1353.75494,641.336617 L1165,576.589621 L1208.97765,483 Z" id="Rectangle-1341" fill="#A1E0FD" sketch:type="MSShapeGroup" transform="translate(1263.000000, 562.000000) scale(1, -1) translate(-1263.000000, -562.000000) "></path>
                <path d="M1211.14062,714 L1020,640 L1361,640 L1211.14062,714 Z" id="Rectangle-1342" fill="#C2ECFF" sketch:type="MSShapeGroup" transform="translate(1190.500000, 677.000000) scale(1, -1) translate(-1190.500000, -677.000000) "></path>
                <path d="M1019,598 L1019,482 L1173,532.567309 L1019,598 Z" id="Rectangle-1343" fill="#97DFFF" sketch:type="MSShapeGroup" transform="translate(1095.500000, 540.000000) scale(1, -1) translate(-1095.500000, -540.000000) "></path>
                <path d="M1018,547 L1362,547 L1171.67059,482 L1018,547 Z" id="Rectangle-1344" fill="#90D9FA" sketch:type="MSShapeGroup" transform="translate(1190.000000, 515.000000) scale(1, -1) translate(-1190.000000, -515.000000) "></path>
                <path d="M1211,669.479433 L1361,716 L1361,594 L1211,669.479433 Z" id="Rectangle-1345" fill="#ADE5FF" sketch:type="MSShapeGroup" transform="translate(1286.000000, 655.000000) scale(1, -1) translate(-1286.000000, -655.000000) "></path>
                <path d="M1211,670.946302 L1020,597 L1020,715 L1211,670.946302 Z" id="Rectangle-1346" fill="#A1E0FD" sketch:type="MSShapeGroup" transform="translate(1115.500000, 656.000000) scale(1, -1) translate(-1115.500000, -656.000000) "></path>
                <path d="M1212,547 L1017,591.369852 L1170.85906,642 L1212,547 Z" id="Rectangle-1347" fill="#ADE5FF" sketch:type="MSShapeGroup" transform="translate(1114.000000, 594.500000) scale(1, -1) translate(-1114.000000, -594.500000) "></path>
                <path d="M1883,482 L1883,487.450203 L2031.05557,643 L2036,643 L2036,529.942689 L1883,482 Z" id="Rectangle-1348" fill="#BDEBFF" sketch:type="MSShapeGroup" transform="translate(1959.500000, 562.500000) scale(1, -1) translate(-1959.500000, -562.500000) "></path>
                <path d="M1883.97765,483 L2036,642 L2028.75494,641.336617 L1840,576.589621 L1883.97765,483 Z" id="Rectangle-1349" fill="#ADE5FF" sketch:type="MSShapeGroup" transform="translate(1938.000000, 562.000000) scale(1, -1) translate(-1938.000000, -562.000000) "></path>
                <path d="M1886.14062,714 L1695,640 L2036,640 L1886.14062,714 Z" id="Rectangle-1350" fill="#B2E7FF" sketch:type="MSShapeGroup" transform="translate(1865.500000, 677.000000) scale(1, -1) translate(-1865.500000, -677.000000) "></path>
                <path d="M1694,598 L1694,482 L1848,532.567309 L1694,598 Z" id="Rectangle-1351" fill="#ADE5FF" sketch:type="MSShapeGroup" transform="translate(1770.500000, 540.000000) scale(1, -1) translate(-1770.500000, -540.000000) "></path>
                <path d="M1693,547 L2037,547 L1846.67059,482 L1693,547 Z" id="Rectangle-1352" fill="#90D9FA" sketch:type="MSShapeGroup" transform="translate(1865.000000, 515.000000) scale(1, -1) translate(-1865.000000, -515.000000) "></path>
                <path d="M1886,669.479433 L2036,716 L2036,594 L1886,669.479433 Z" id="Rectangle-1353" fill="#A1E0FD" sketch:type="MSShapeGroup" transform="translate(1961.000000, 655.000000) scale(1, -1) translate(-1961.000000, -655.000000) "></path>
                <path d="M1886,668.94622 L1695,595 L1695,715 L1886,668.94622 Z" id="Rectangle-1354" fill="#BDEBFF" sketch:type="MSShapeGroup" transform="translate(1790.500000, 655.000000) scale(1, -1) translate(-1790.500000, -655.000000) "></path>
                <path d="M1887,547 L1692,591.369852 L1845.85906,642 L1887,547 Z" id="Rectangle-1355" fill="#A1E0FD" sketch:type="MSShapeGroup" transform="translate(1789.000000, 594.500000) scale(1, -1) translate(-1789.000000, -594.500000) "></path>
                <path d="M1545,482 L1545,487.450203 L1693.05557,643 L1698,643 L1698,529.942689 L1545,482 Z" id="Rectangle-1356" fill="#BDEBFF" sketch:type="MSShapeGroup" transform="translate(1621.500000, 562.500000) scale(1, -1) translate(-1621.500000, -562.500000) "></path>
                <path d="M1545.97765,483 L1698,642 L1690.75494,641.336617 L1502,576.589621 L1545.97765,483 Z" id="Rectangle-1357" fill="#A1E0FD" sketch:type="MSShapeGroup" transform="translate(1600.000000, 562.000000) scale(1, -1) translate(-1600.000000, -562.000000) "></path>
                <path d="M1548.14062,714 L1357,640 L1698,640 L1548.14062,714 Z" id="Rectangle-1358" fill="#B2E7FF" sketch:type="MSShapeGroup" transform="translate(1527.500000, 677.000000) scale(1, -1) translate(-1527.500000, -677.000000) "></path>
                <path d="M1356,598 L1356,482 L1510,532.567309 L1356,598 Z" id="Rectangle-1359" fill="#BDEBFF" sketch:type="MSShapeGroup" transform="translate(1432.500000, 540.000000) scale(1, -1) translate(-1432.500000, -540.000000) "></path>
                <path d="M1355,547 L1699,547 L1508.67059,482 L1355,547 Z" id="Rectangle-1360" fill="#90D9FA" sketch:type="MSShapeGroup" transform="translate(1527.000000, 515.000000) scale(1, -1) translate(-1527.000000, -515.000000) "></path>
                <path d="M1548,669.479433 L1698,716 L1698,594 L1548,669.479433 Z" id="Rectangle-1361" fill="#BDEBFF" sketch:type="MSShapeGroup" transform="translate(1623.000000, 655.000000) scale(1, -1) translate(-1623.000000, -655.000000) "></path>
                <path d="M1548,669.946261 L1357,596 L1357,715 L1548,669.946261 Z" id="Rectangle-1362" fill="#A1E0FD" sketch:type="MSShapeGroup" transform="translate(1452.500000, 655.500000) scale(1, -1) translate(-1452.500000, -655.500000) "></path>
                <path d="M1549,547 L1354,592.371499 L1507.85906,642 L1549,547 Z" id="Rectangle-1363" fill="#B2E7FF" sketch:type="MSShapeGroup" transform="translate(1451.000000, 594.500000) scale(1, -1) translate(-1451.000000, -594.500000) "></path>
            </g>
        </g>
    </g>
</svg>