<?xml version="1.0" encoding="UTF-8" standalone="no"?>
<svg width="310px" height="120px" viewBox="0 0 310 120" version="1.1" xmlns="http://www.w3.org/2000/svg" xmlns:xlink="http://www.w3.org/1999/xlink" xmlns:sketch="http://www.bohemiancoding.com/sketch/ns">
    <!-- Generator: Sketch 3.0.1 (7597) - http://www.bohemiancoding.com/sketch -->
    <title>Moldura-speaker</title>
    <description>Created with Sketch.</description>
    <defs></defs>
    <g id="Page-1" stroke="none" stroke-width="1" fill="none" fill-rule="evenodd" sketch:type="MSPage">
        <g id="Artboard-3" sketch:type="MSArtboardGroup" transform="translate(-410.000000, -628.000000)">
            <g id="Moldura-speaker" sketch:type="MSLayerGroup" transform="translate(410.000000, 628.000000)">
                <rect id="Rectangle-161" fill="#F9D434" sketch:type="MSShapeGroup" x="9" y="10" width="293" height="70"></rect>
                <path d="M9,10 L9,80 L155.5,80 L9,10 Z" id="Rectangle-163" fill="#F4CF30" sketch:type="MSShapeGroup"></path>
                <path d="M9,10 L114.652344,10 L155.5,80 L9,10 Z" id="Rectangle-164" fill="#FFDC42" sketch:type="MSShapeGroup"></path>
                <path d="M263.292969,10 L114.652344,10 L155.5,80 L263.292969,10 Z" id="Rectangle-165" fill="#F4CF30" sketch:type="MSShapeGroup"></path>
                <path d="M263.292969,10 L302.703125,80 L155.5,80 L263.292969,10 Z" id="Rectangle-166" fill="#FFDC43" sketch:type="MSShapeGroup"></path>
                <path d="M303.292969,110 L302.703125,79 L155.5,80 L303.292969,110 Z" id="Rectangle-201" fill="#F3CF31" sketch:type="MSShapeGroup"></path>
                <path d="M304.292969,109 L184.765625,110 L155.5,79 L304.292969,109 Z" id="Rectangle-202" fill="#FFDC42" sketch:type="MSShapeGroup"></path>
                <path d="M36.9414062,110 L187.765625,110 L155.5,79 L36.9414062,110 Z" id="Rectangle-203" fill="#F3CF31" sketch:type="MSShapeGroup"></path>
                <path d="M38.9414062,110 L9.6171875,80 L155.5,80 L38.9414062,110 Z" id="Rectangle-204" fill="#FFDC43" sketch:type="MSShapeGroup"></path>
                <path d="M38.9414062,110 L8.6171875,77 L8.6171875,110 L38.9414062,110 Z" id="Rectangle-205" fill="#F9D124" sketch:type="MSShapeGroup"></path>
                <path d="M263.292969,10 L302.703125,80 L302.703125,10 L263.292969,10 Z" id="Rectangle-167" fill="#F4CF30" sketch:type="MSShapeGroup"></path>
                <g id="Group" transform="translate(290.000000, 0.000000)" sketch:type="MSShapeGroup">
                    <rect id="Rectangle-74" fill="#F5F351" x="0" y="0" width="20" height="20"></rect>
                    <path d="M0,0 L20,20 L20,0 L0,0 Z" id="Rectangle-85" fill="#FFFD2B"></path>
                    <path d="M0,20 L20,20 L20,0 L0,20 Z" id="Rectangle-75" fill="#E8E626"></path>
                    <path d="M0,19.952381 L20,19.952381 L10,10.2128907 L0,19.952381 Z" id="Rectangle-86" fill="#D1CF1E"></path>
                </g>
                <g id="Group-3" transform="translate(290.000000, 100.000000)" sketch:type="MSShapeGroup">
                    <rect id="Rectangle-74" fill="#F5F351" x="0" y="0" width="20" height="20"></rect>
                    <path d="M0,0 L20,20 L20,0 L0,0 Z" id="Rectangle-85" fill="#FFFD2B"></path>
                    <path d="M0,20 L20,20 L20,0 L0,20 Z" id="Rectangle-75" fill="#E8E626"></path>
                    <path d="M0,19.952381 L20,19.952381 L10,10.2128907 L0,19.952381 Z" id="Rectangle-86" fill="#D1CF1E"></path>
                </g>
                <g id="Group-6" sketch:type="MSShapeGroup">
                    <rect id="Rectangle-74" fill="#F5F351" x="0" y="0" width="20" height="20"></rect>
                    <path d="M0,0 L20,20 L20,0 L0,0 Z" id="Rectangle-85" fill="#FFFD2B"></path>
                    <path d="M0,20 L20,20 L20,0 L0,20 Z" id="Rectangle-75" fill="#E8E626"></path>
                    <path d="M0,19.952381 L20,19.952381 L10,10.2128907 L0,19.952381 Z" id="Rectangle-86" fill="#D1CF1E"></path>
                </g>
                <g id="Group-4" transform="translate(0.000000, 100.000000)" sketch:type="MSShapeGroup">
                    <rect id="Rectangle-74" fill="#F5F351" x="0" y="0" width="20" height="20"></rect>
                    <path d="M0,0 L20,20 L20,0 L0,0 Z" id="Rectangle-85" fill="#FFFD2B"></path>
                    <path d="M0,20 L20,20 L20,0 L0,20 Z" id="Rectangle-75" fill="#E8E626"></path>
                    <path d="M0,19.952381 L20,19.952381 L10,10.2128907 L0,19.952381 Z" id="Rectangle-86" fill="#D1CF1E"></path>
                </g>
                <g id="Group" transform="translate(22.000000, 20.000000)" sketch:type="MSShapeGroup">
                    <rect id="Rectangle-162" fill="#FFFFFF" x="0" y="0" width="266" height="80"></rect>
                    <path d="M0,0 L0,80 L66.96875,0 L0,0 Z" id="Rectangle-277" fill="#FBFBFB"></path>
                    <path d="M98.6914062,80 L0,80 L66.96875,0 L98.6914062,80 Z" id="Rectangle-278" fill="#FFFFFF"></path>
                    <path d="M98.6914062,80 L0,80 L66.96875,0 L98.6914062,80 Z" id="Rectangle-279" fill="#FFFFFF"></path>
                    <path d="M98.6914062,80 L169.882812,0 L66.96875,0 L98.6914062,80 Z" id="Rectangle-280" fill="#FCFCFC"></path>
                    <path d="M98.6914062,80 L169.882812,0 L202.507812,80 L98.6914062,80 Z" id="Rectangle-281" fill="#F6F6F6"></path>
                    <path d="M266.117188,0 L169.882812,0 L202.507812,80 L266.117188,0 Z" id="Rectangle-282" fill="#FFFFFF"></path>
                </g>
            </g>
        </g>
    </g>
</svg>