<svg width="379" height="382" viewBox="0 0 379 382" xmlns="http://www.w3.org/2000/svg" xmlns:sketch="http://www.bohemiancoding.com/sketch/ns"><title>Moldura</title><g sketch:type="MSLayerGroup" fill="none"><path d="M314.223 1.414l-51.547 18.586-71.676-18.586-78.402 18.586-48.48-18.586-63.117 18.586 20 106.102-20 61.898 20 69.785-20 102.215 63.117 20 48.48-20 78.402 20 71.676-20 51.547 20 63.27-20-16.492-102.215 16.492-69.785-16.492-61.898 16.492-106.102-63.27-18.586z" fill="#FFDE51" sketch:type="MSShapeGroup"/><path d="M64.117 1.414l49.957 18.414-93.074 106.273 43.117-124.687z" fill="#F6CD20" sketch:type="MSShapeGroup"/><path d="M278.891 130.594l-86.875-129.93-77.941 19.164-93.074 106.273 257.891 4.492z" fill="#FFD41A" sketch:type="MSShapeGroup"/><path d="M30.711 126.102v-12.932l-9.711 12.932h9.711z" fill="#F5CA16" sketch:type="MSShapeGroup"/><path d="M27.174 107.914l3.537 5.256-9.711 12.932 6.174-18.188z" fill="#D6B215" sketch:type="MSShapeGroup"/><path d="M280.193 130.523l-87.178-129.859-30.383 129.859h117.561z" fill="#F2CA23" sketch:type="MSShapeGroup"/><path d="M278.891 130.594l-277.943 57.406 20.053-61.898 257.891 4.492z" fill="#FFD93A" sketch:type="MSShapeGroup"/><path d="M31.557 126.102l-16.305 16.928 5.748-16.928h10.557z" fill="#FFE677" sketch:type="MSShapeGroup"/><path d="M31.557 126.102l-16.305 16.928 3.721 10.533 12.584-27.461z" fill="#F2CC29" sketch:type="MSShapeGroup"/><path d="M5.865 174.564l9.387-31.535 3.721 10.533-13.107 21.002z" fill="#FFE36A" sketch:type="MSShapeGroup"/><path d="M5.865 174.564l7.554 11.223 5.554-32.225-13.107 21.002z" fill="#F6CA0D" sketch:type="MSShapeGroup"/><path d="M5.865 174.564l7.554 11.223-13.169 2.213 5.615-13.436z" fill="#FFE46D" sketch:type="MSShapeGroup"/><path d="M278.891 130.594l-206.879 43.738 12.59-48.434 194.289 4.695z" fill="#EBC72E" sketch:type="MSShapeGroup"/><path d="M278.891 130.594l49.597-13.33 32.938 8.459 16.658 62.277-99.193-57.406z" fill="#FAD434" sketch:type="MSShapeGroup"/><path d="M278.891 130.594l-98.613 117.52 180.459 11.303 17.348-71.416-99.193-57.406z" fill="#F1CB28" sketch:type="MSShapeGroup"/><path d="M377.205 359.492l-196.928-111.379 181.459 8.303 15.469 103.076z" fill="#E6C32B" sketch:type="MSShapeGroup"/><path d="M377.205 359.492l-196.928-111.379 134.904 132.473 62.023-21.094z" fill="#F3CB21" sketch:type="MSShapeGroup"/><path d="M263.572 360.279l-83.295-112.166 134.904 132.473-51.609-20.307z" fill="#F8D439" sketch:type="MSShapeGroup"/><path d="M263.572 360.279l-83.295-112.166 12.35 132.303 70.945-20.137z" fill="#F2CA23" sketch:type="MSShapeGroup"/><path d="M113.26 360.012l67.018-111.898 12.35 132.303-79.367-20.404z" fill="#FFD41A" sketch:type="MSShapeGroup"/><path d="M113.26 360.012l67.018-111.898-109.111-75.371-7.6 206.928 49.693-19.658z" fill="#EFC50F" sketch:type="MSShapeGroup"/><path d="M1.422 359.947l69.744-187.205-7.6 206.928-62.145-19.723z" fill="#F6CD20" sketch:type="MSShapeGroup"/><path d="M1.422 359.947l69.744-187.205-49.693 85.449-20.051 101.756z" fill="#FED111" sketch:type="MSShapeGroup"/><path d="M15.622 284.8l10.214-11.383-4.506-16.004-5.708 27.387z" fill="#FFDC47" sketch:type="MSShapeGroup"/><path d="M15.622 284.8l10.214-11.383-14.584 34.765 4.371-23.382z" fill="#FFE77F" sketch:type="MSShapeGroup"/><path d="M20.674 299.109l5.162-27.693-14.584 36.765 9.422-9.072z" fill="#F1CD34" sketch:type="MSShapeGroup"/><path d="M6.738 333.072l13.625-35.568-9.112 10.677-4.513 24.891z" fill="#FFE77F" sketch:type="MSShapeGroup"/><path d="M6.738 333.072l13.625-35.568-9.669 38.218-3.956-2.649z" fill="#E4C43B" sketch:type="MSShapeGroup"/><path d="M6.738 333.072l3.996 2.205-10.141 24.264 6.145-26.469z" fill="#FFE77F" sketch:type="MSShapeGroup"/><path d="M10.734 363.051v-27.773l-10.141 24.264 10.141 3.51z" fill="#E5C644" sketch:type="MSShapeGroup"/><path d="M10.734 363.051v-27.773l13.174 13.887-13.174 13.887z" fill="#DFBE31" sketch:type="MSShapeGroup"/><path d="M10.734 363.051l28.822 8.877-15.648-22.764-13.174 13.887z" fill="#FFE15E" sketch:type="MSShapeGroup"/><path d="M51.205 364.002l-11.648 7.926-15.648-22.764 27.297 14.838z" fill="#FFDD49" sketch:type="MSShapeGroup"/><path d="M51.205 364.002l-11.648 7.926 25.133 8.828-13.484-16.754z" fill="#FFDF54" sketch:type="MSShapeGroup"/><path d="M51.205 364.002l13.484-4.166v20.92l-13.484-16.754z" fill="#E6C432" sketch:type="MSShapeGroup"/><path d="M83.217 372.82l-18.527-12.984v20.92l18.527-7.936z" fill="#F2D143" sketch:type="MSShapeGroup"/><path d="M83.217 372.82l-18.527-12.984h22.191l-3.664 12.984z" fill="#FFDD49" sketch:type="MSShapeGroup"/><path d="M83.217 372.82l29.273-12.984h-25.609l-3.664 12.984z" fill="#FFED9C" sketch:type="MSShapeGroup"/><path d="M120.449 349.082l-7.959 10.754h-25.609l33.568-10.754z" fill="#DCB924" sketch:type="MSShapeGroup"/><path d="M120.449 349.082l-7.959 10.754 16.936 4.648-8.977-15.402z" fill="#E7C32D" sketch:type="MSShapeGroup"/><path d="M120.449 349.082l33.576 15.402h-24.6l-8.977-15.402z" fill="#F3D03A" sketch:type="MSShapeGroup"/><path d="M175.717 376.264l-21.691-11.779h-24.6l46.291 11.779z" fill="#FFED9C" sketch:type="MSShapeGroup"/><path d="M175.717 376.264l-21.691-11.779h37.816l-16.125 11.779z" fill="#F4D243" sketch:type="MSShapeGroup"/><path d="M175.717 376.264l16.125 3.738v-15.518l-16.125 11.779z" fill="#FFED9C" sketch:type="MSShapeGroup"/><path d="M210.859 375.287l-19.018 4.715v-15.518l19.018 10.803z" fill="#FFDD49" sketch:type="MSShapeGroup"/><path d="M210.859 375.287l13.557-18.313-32.574 7.51 19.018 10.803z" fill="#E7C742" sketch:type="MSShapeGroup"/><path d="M210.859 375.287l13.557-18.313 12.166 11.402-25.723 6.91z" fill="#F7D64A" sketch:type="MSShapeGroup"/><path d="M255.705 350.752l-31.289 6.223 12.166 11.402 19.123-17.625z" fill="#E6C22C" sketch:type="MSShapeGroup"/><path d="M256.705 349.752l7.287 10.813-27.41 7.813 20.123-18.625z" fill="#FFDD49" sketch:type="MSShapeGroup"/><path d="M256.705 349.752l7.287 10.813 14.527 5.73-21.814-16.543z" fill="#FFEA8D" sketch:type="MSShapeGroup"/><path d="M256.705 349.752l28.529 12.156-6.715 4.387-21.814-16.543z" fill="#EFCD3B" sketch:type="MSShapeGroup"/><path d="M316.449 381.197l-31.215-19.289-6.715 4.387 37.93 14.902z" fill="#FFED9C" sketch:type="MSShapeGroup"/><path d="M316.449 381.197l-31.215-19.289h12.25l18.965 19.289z" fill="#E7C63D" sketch:type="MSShapeGroup"/><path d="M316.449 381.197l-6.008-22.863-12.957 3.574 18.965 19.289z" fill="#D5B738" sketch:type="MSShapeGroup"/><path d="M316.449 381.197l-6.008-22.863 23.027 15.984-17.02 6.879z" fill="#FFDD49" sketch:type="MSShapeGroup"/><path d="M347.771 358.334h-37.33l23.027 15.984 14.303-15.984z" fill="#DFBF35" sketch:type="MSShapeGroup"/><path d="M347.771 358.334l30.109 2.049-44.412 13.936 14.303-15.984z" fill="#F8D953" sketch:type="MSShapeGroup"/><path d="M347.771 358.334l30.109 2.049-22.206-14.205-7.903 12.156z" fill="#D6B839" sketch:type="MSShapeGroup"/><path d="M373.98 338.219l3.9 22.164-22.206-14.205 18.306-7.959z" fill="#F4D139" sketch:type="MSShapeGroup"/><path d="M373.98 338.219l-10.959-25.193-7.347 33.152 18.306-7.959z" fill="#DFBB25" sketch:type="MSShapeGroup"/><path d="M373.98 338.219l-10.959-25.193 4.057-22.73 6.902 47.924z" fill="#F9D84B" sketch:type="MSShapeGroup"/><path d="M351.363 256.605l11.658 56.42 4.057-22.73-15.715-33.689z" fill="#D5B52D" sketch:type="MSShapeGroup"/><path d="M351.363 256.605l10.543-2.008 5.172 35.697-15.715-33.689z" fill="#F1CF3F" sketch:type="MSShapeGroup"/><path d="M351.363 256.605l10.543-2.008 6.033-25.217-16.576 27.225z" fill="#FDDC4F" sketch:type="MSShapeGroup"/><path d="M351.363 256.605l8.288-50.242 8.288 23.018-16.576 27.225z" fill="#E2BF2C" sketch:type="MSShapeGroup"/><path d="M378.143 188l-18.491 18.363 8.288 23.018 10.203-41.381z" fill="#F8DA5B" sketch:type="MSShapeGroup"/><path d="M378.143 188l-18.491 18.363 2.343-28.008 16.148 9.645z" fill="#E5C01E" sketch:type="MSShapeGroup"/><path d="M378.143 188l-5.803-23.344-10.346 13.699 16.148 9.645z" fill="#EDCB37" sketch:type="MSShapeGroup"/><path d="M357.977 151.77l14.363 12.887-10.346 13.699-4.018-26.586z" fill="#E0C034" sketch:type="MSShapeGroup"/><path d="M357.977 151.77l14.363 12.887-9.301-30.938-5.063 18.051z" fill="#FFDA3A" sketch:type="MSShapeGroup"/><path d="M357.977 151.77l-8.83-25.16 13.893 7.109-5.063 18.051z" fill="#EEC92C" sketch:type="MSShapeGroup"/><path d="M360.783 122.799l-11.637 3.811 13.893 7.109-2.256-10.92z" fill="#FCDE5D" sketch:type="MSShapeGroup"/><path d="M.855 188l70.311-15.258-49.693 85.449-20.617-70.191z" fill="#F5CA14" sketch:type="MSShapeGroup"/><path d="M30.384 242.297l-4.739 31.317-4.739-16.542 9.479-14.775z" fill="#DFBD29" sketch:type="MSShapeGroup"/><path d="M8.971 215.109l4.448-29.322-13.169 2.213 8.721 27.109z" fill="#FFD419" sketch:type="MSShapeGroup"/><path d="M8.971 215.109l4.448-29.322 6.521 34.035-10.969-4.713z" fill="#EBC51D" sketch:type="MSShapeGroup"/><path d="M8.971 215.109l11.969 41.961-1-37.248-10.969-4.713z" fill="#FFDD48" sketch:type="MSShapeGroup"/><path d="M30.287 242.471l-9.348 14.6-1-37.248 10.348 22.648z" fill="#E7C637" sketch:type="MSShapeGroup"/><path d="M340.012 118.938l-61.121 11.656-86.875-129.93 72.527 19.836 75.469 98.438z" fill="#F2CA23" sketch:type="MSShapeGroup"/><path d="M278.479 131.258l81.451-6.488-3.033-17.43-44.283-106.496-51.07 18.656 16.936 111.758z" fill="#F6CD20" sketch:type="MSShapeGroup"/><path d="M360.93 125.77l-48.316-124.926 66.09 17.949-17.773 106.977z" fill="#FED111" sketch:type="MSShapeGroup"/><path d="M360.783 124.799l-11.637 2.811 14.982-19.688-3.346 16.877z" fill="#FFE575" sketch:type="MSShapeGroup"/><path d="M350.146 98.135l6.991 18.963 6.991-9.176-13.982-9.787z" fill="#FFEB94" sketch:type="MSShapeGroup"/><path d="M350.146 98.135l6.991 18.963-7.991 10.252 1-29.215z" fill="#EBC72D" sketch:type="MSShapeGroup"/><path d="M350.146 98.135l18.482-18.469-4.5 28.256-13.982-9.787z" fill="#FEDA3C" sketch:type="MSShapeGroup"/><path d="M350.146 98.135l18.482-18.469-5.37-18.808-13.112 37.276z" fill="#F1CA22" sketch:type="MSShapeGroup"/><path d="M374.136 46.55l-5.507 33.116-5.37-18.808 10.877-14.309z" fill="#FFDB3C" sketch:type="MSShapeGroup"/><path d="M374.136 46.55l-13.283-26.576 2.406 40.885 10.877-14.309z" fill="#F7CB10" sketch:type="MSShapeGroup"/><path d="M374.136 46.55l-13.283-26.576 15.817 10.795-2.534 15.781z" fill="#FFDB3C" sketch:type="MSShapeGroup"/><path d="M19.447 14.664l-18.447 5.336 3.438 16.65 15.009-21.986z" fill="#FFDD4C" sketch:type="MSShapeGroup"/><path d="M19.447 14.664l6.395 10.775-21.256 10.775 14.861-21.551z" fill="#FFE266" sketch:type="MSShapeGroup"/><path d="M19.447 14.664l6.395 10.775 19.158-18.162-25.553 7.387z" fill="#F8CB0C" sketch:type="MSShapeGroup"/><path d="M51.641 16.358l-25.799 9.081 19.158-18.162 6.641 9.081z" fill="#FFE266" sketch:type="MSShapeGroup"/><path d="M51.641 16.358l13.039-15.353-19.68 6.271 6.641 9.081z" fill="#FFDD4D" sketch:type="MSShapeGroup"/><path d="M51.641 16.358l12.495-14.887-4.253 14.887h-8.242z" fill="#FFE46E" sketch:type="MSShapeGroup"/><path d="M67.928 21.383l-3.792-19.911-5.253 14.887 9.045 5.024z" fill="#FED62A" sketch:type="MSShapeGroup"/><path d="M67.928 21.383l-3.792-19.911 13.865 5.095-10.073 14.816z" fill="#F2C91C" sketch:type="MSShapeGroup"/><path d="M67.928 21.383l20.545-11.271-10.472-3.545-10.073 14.816z" fill="#FBD531" sketch:type="MSShapeGroup"/><path d="M67.928 21.383l20.545-11.271 4.034 11.271h-24.579z" fill="#EEC82A" sketch:type="MSShapeGroup"/><path d="M102.538 15.747l-14.065-5.636 4.034 11.271 10.031-5.636z" fill="#FCD83F" sketch:type="MSShapeGroup"/><path d="M102.538 15.747l4.497 11.771-14.528-6.136 10.031-5.636z" fill="#F2CE33" sketch:type="MSShapeGroup"/><path d="M102.538 15.747l4.497 11.771 7.147-7.723-11.645-4.049z" fill="#EBC72B" sketch:type="MSShapeGroup"/><path d="M129.188 16.029l-22.153 11.489 7.147-7.723 15.006-3.767z" fill="#FFE161" sketch:type="MSShapeGroup"/><path d="M129.188 16.029l-22.153 11.489 24.747-5.745-2.594-5.745z" fill="#FFD936" sketch:type="MSShapeGroup"/><path d="M129.188 16.029l20.562-4.766-17.968 10.51-2.594-5.745z" fill="#FBD01B" sketch:type="MSShapeGroup"/><path d="M160.343 13.957l-10.593-2.693-17.968 10.51 28.561-7.817z" fill="#FFDC45" sketch:type="MSShapeGroup"/><path d="M160.343 13.957l-10.593-2.693 26.564-6.718-15.972 9.411z" fill="#FFE369" sketch:type="MSShapeGroup"/><path d="M160.343 13.957h31.3l-15.328-9.411-15.972 9.411z" fill="#FFD938" sketch:type="MSShapeGroup"/><path d="M193 .144l-1.357 13.813-15.328-9.411 16.686-4.402z" fill="#F9D230" sketch:type="MSShapeGroup"/><path d="M193 .144l-1.357 13.813 13.699-9.596-12.342-4.218z" fill="#E9C21D" sketch:type="MSShapeGroup"/><path d="M215.25 7.05l-23.607 6.907 13.699-9.596 9.908 2.689z" fill="#E1BB17" sketch:type="MSShapeGroup"/><path d="M215.25 7.05l-23.607 6.907h27.038l-3.431-6.907z" fill="#EBC524" sketch:type="MSShapeGroup"/><path d="M215.25 7.05l17.506 4.5-14.075 2.407-3.431-6.907z" fill="#F6CF2B" sketch:type="MSShapeGroup"/><path d="M239.626 20.969l-6.87-9.419-14.075 2.407 20.945 7.012z" fill="#ECC626" sketch:type="MSShapeGroup"/><path d="M239.626 20.969l-6.87-9.419 19.022 5.709-12.152 3.709z" fill="#F8D230" sketch:type="MSShapeGroup"/><path d="M239.626 20.969l22.284-1.249-10.132-2.46-12.152 3.709z" fill="#FFDA3D" sketch:type="MSShapeGroup"/><path d="M239.626 20.969l22.284-1.249 5.456 7.123-27.74-5.874z" fill="#F3CF35" sketch:type="MSShapeGroup"/><path d="M275.302 14.526l-13.392 5.193 5.456 7.123 7.936-12.316z" fill="#F8D852" sketch:type="MSShapeGroup"/><path d="M275.302 14.526l9.632 3.837-17.567 8.479 7.936-12.316z" fill="#FFE05A" sketch:type="MSShapeGroup"/><path d="M275.302 14.526l9.632 3.837 7.201-10.038-16.833 6.201z" fill="#F9DA53" sketch:type="MSShapeGroup"/><path d="M305.095 3.57l-20.161 14.793 7.201-10.038 12.96-4.755z" fill="#FFE266" sketch:type="MSShapeGroup"/><path d="M305.095 3.57l-20.161 14.793 16.252-3.132 3.909-11.661z" fill="#F9D641" sketch:type="MSShapeGroup"/><path d="M305.095 3.57l8.256-2.871-12.165 14.532 3.909-11.661z" fill="#FFD72D" sketch:type="MSShapeGroup"/><path d="M316.679 12.368l-3.328-11.669-12.165 14.532 15.493-2.863z" fill="#FFDE52" sketch:type="MSShapeGroup"/><path d="M316.679 12.368l-3.328-11.669 14.635 4.283-11.307 7.386z" fill="#FFDC46" sketch:type="MSShapeGroup"/><path d="M316.679 12.368l24.856-3.736-13.55-3.649-11.307 7.386z" fill="#F2CD31" sketch:type="MSShapeGroup"/><path d="M316.679 12.368l24.856-3.736v10.283l-24.856-6.547z" fill="#FFDD49" sketch:type="MSShapeGroup"/><path d="M361.004 13.773l-19.469-5.142v10.283l19.469-5.142z" fill="#FFE05D" sketch:type="MSShapeGroup"/><path d="M361.004 13.773v6.609l-19.469-1.468 19.469-5.142z" fill="#FFD833" sketch:type="MSShapeGroup"/><path d="M361.004 13.773v6.609l18.03-1.804-18.03-4.806z" fill="#F5CF2B" sketch:type="MSShapeGroup"/><path d="M376.57 30.736l-15.566-10.354 18.03-1.804-2.464 12.157z" fill="#FFDC44" sketch:type="MSShapeGroup"/><path d="M19.447 14.664l-18.447 5.336 3.438 16.65 15.009-21.986z" fill="#FFDD4C" sketch:type="MSShapeGroup"/><path d="M22.133 26.072l-14.41 28.717-3.284-18.139 17.694-10.578z" fill="#FFE77E" sketch:type="MSShapeGroup"/><path d="M22.133 26.072l-14.41 28.717 14.41-3.238v-25.479z" fill="#F8CB0C" sketch:type="MSShapeGroup"/><path d="M11.811 76.807l-4.088-22.018 14.41-3.238-10.322 25.256z" fill="#FFE77E" sketch:type="MSShapeGroup"/><path d="M11.811 76.807l9.908-22.725v36.643l-9.908-13.918z" fill="#FFD62A" sketch:type="MSShapeGroup"/><path d="M11.811 76.807l8.85 49.756 1.059-35.838-9.908-13.918z" fill="#FFED9E" sketch:type="MSShapeGroup"/><path d="M27.57 108.862l-6.91 18.7 1.059-36.838 5.852 18.138z" fill="#E5C12B" sketch:type="MSShapeGroup"/><path d="M19.447 14.664l6.395 10.775-21.256 10.775 14.861-21.551z" fill="#FFE266" sketch:type="MSShapeGroup"/><path d="M19.447 14.664l6.395 10.775 19.158-18.162-25.553 7.387z" fill="#F8CB0C" sketch:type="MSShapeGroup"/><path d="M51.641 16.358l-25.799 9.081 19.158-18.162 6.641 9.081z" fill="#FFE266" sketch:type="MSShapeGroup"/><path d="M51.641 16.358l12.236-15.1-18.877 6.019 6.641 9.081z" fill="#FFDD4D" sketch:type="MSShapeGroup"/><path d="M51.641 16.358l12.495-14.887-4.253 14.887h-8.242z" fill="#FFE46E" sketch:type="MSShapeGroup"/><path d="M67.928 21.383l-3.792-19.911-5.253 14.887 9.045 5.024z" fill="#FED62A" sketch:type="MSShapeGroup"/><path d="M67.928 21.383l-3.792-19.911 13.865 5.095-10.073 14.816z" fill="#F2C91C" sketch:type="MSShapeGroup"/><path d="M67.928 21.383l20.545-11.271-10.472-3.545-10.073 14.816z" fill="#FBD531" sketch:type="MSShapeGroup"/><path d="M67.928 21.383l20.545-11.271 4.034 11.271h-24.579z" fill="#EEC82A" sketch:type="MSShapeGroup"/><path d="M102.538 15.747l-14.065-5.636 4.034 11.271 10.031-5.636z" fill="#FCD83F" sketch:type="MSShapeGroup"/><path d="M102.538 15.747l4.497 11.771-14.528-6.136 10.031-5.636z" fill="#F2CE33" sketch:type="MSShapeGroup"/><path d="M102.538 15.747l4.497 11.771 7.147-7.723-11.645-4.049z" fill="#EBC72B" sketch:type="MSShapeGroup"/><path d="M129.188 16.029l-22.153 11.489 7.147-7.723 15.006-3.767z" fill="#FFE161" sketch:type="MSShapeGroup"/><path d="M129.188 16.029l-22.153 11.489 24.747-5.745-2.594-5.745z" fill="#FFE886" sketch:type="MSShapeGroup"/><path d="M129.188 16.029l20.562-4.766-17.968 10.51-2.594-5.745z" fill="#FBD01B" sketch:type="MSShapeGroup"/><path d="M160.343 13.957l-10.593-2.693-17.968 10.51 28.561-7.817z" fill="#EFC720" sketch:type="MSShapeGroup"/><path d="M160.343 13.957l-10.593-2.693 26.564-6.718-15.972 9.411z" fill="#FFE369" sketch:type="MSShapeGroup"/><path d="M160.343 13.957h31.3l-15.328-9.411-15.972 9.411z" fill="#EFC720" sketch:type="MSShapeGroup"/><path d="M193 .144l-1.357 13.813-15.328-9.411 16.686-4.402z" fill="#FFDE52" sketch:type="MSShapeGroup"/><path d="M193 .144l-1.357 13.813 13.699-9.596-12.342-4.218z" fill="#E9C21D" sketch:type="MSShapeGroup"/><path d="M215.25 7.05l-23.607 6.907 13.699-9.596 9.908 2.689z" fill="#E1BB17" sketch:type="MSShapeGroup"/><path d="M215.25 7.05l-23.607 6.907h27.038l-3.431-6.907z" fill="#EBC524" sketch:type="MSShapeGroup"/><path d="M215.25 7.05l17.506 4.5-14.075 2.407-3.431-6.907z" fill="#F6CF2B" sketch:type="MSShapeGroup"/><path d="M239.626 20.969l-6.87-9.419-14.075 2.407 20.945 7.012z" fill="#ECC626" sketch:type="MSShapeGroup"/><path d="M239.626 20.969l-6.87-9.419 19.022 5.709-12.152 3.709z" fill="#F8D230" sketch:type="MSShapeGroup"/><path d="M239.626 20.969l22.284-1.249-10.132-2.46-12.152 3.709z" fill="#FFDA3D" sketch:type="MSShapeGroup"/><path d="M239.626 20.969l22.284-1.249 5.456 7.123-27.74-5.874z" fill="#F3CF35" sketch:type="MSShapeGroup"/><path d="M275.302 14.526l-13.392 5.193 5.456 7.123 7.936-12.316z" fill="#F8D852" sketch:type="MSShapeGroup"/><path d="M275.302 14.526l9.632 3.837-17.567 8.479 7.936-12.316z" fill="#FFE05A" sketch:type="MSShapeGroup"/><path d="M275.302 14.526l9.632 3.837 7.201-10.038-16.833 6.201z" fill="#F9DA53" sketch:type="MSShapeGroup"/><path d="M305.095 3.57l-20.161 14.793 7.201-10.038 12.96-4.755z" fill="#FFE266" sketch:type="MSShapeGroup"/><path d="M305.095 3.57l-20.161 14.793 16.252-3.132 3.909-11.661z" fill="#F9D641" sketch:type="MSShapeGroup"/><path d="M305.095 3.57l8.256-2.871-12.165 14.532 3.909-11.661z" fill="#FFD72D" sketch:type="MSShapeGroup"/><path d="M316.679 12.368l-3.328-11.669-12.165 14.532 15.493-2.863z" fill="#FFDE52" sketch:type="MSShapeGroup"/><path d="M316.679 12.368l-3.328-11.669 14.635 4.283-11.307 7.386z" fill="#FFE886" sketch:type="MSShapeGroup"/><path d="M316.679 12.368l24.856-3.736-13.55-3.649-11.307 7.386z" fill="#F2CD31" sketch:type="MSShapeGroup"/><path d="M316.679 12.368l24.856-3.736v10.283l-24.856-6.547z" fill="#FFDD49" sketch:type="MSShapeGroup"/><path d="M361.004 13.773l-19.469-5.142v10.283l19.469-5.142z" fill="#FFE886" sketch:type="MSShapeGroup"/><path d="M361.004 13.773v6.609l-19.469-1.468 19.469-5.142z" fill="#FFD833" sketch:type="MSShapeGroup"/><path d="M361.004 13.773v6.609l18.03-1.804-18.03-4.806z" fill="#FFE369" sketch:type="MSShapeGroup"/><path d="M376.57 30.736l-15.566-10.354 18.03-1.804-2.464 12.157z" fill="#FFE98B" sketch:type="MSShapeGroup"/></g></svg>