<svg width="310" height="120" viewBox="0 0 310 120" xmlns="http://www.w3.org/2000/svg" xmlns:sketch="http://www.bohemiancoding.com/sketch/ns"><title>Moldura-speaker</title><g sketch:type="MSLayerGroup" fill="none"><path fill="#F9D434" sketch:type="MSShapeGroup" d="M9 10h293v70h-293z"/><path d="M9 10v70h146.5l-146.5-70z" fill="#F4CF30" sketch:type="MSShapeGroup"/><path d="M9 10h105.652l40.848 70-146.5-70z" fill="#FFDC42" sketch:type="MSShapeGroup"/><path d="M263.293 10h-148.641l40.848 70 107.793-70z" fill="#F4CF30" sketch:type="MSShapeGroup"/><path d="M263.293 10l39.41 70h-147.203l107.793-70z" fill="#FFDC43" sketch:type="MSShapeGroup"/><path d="M303.293 110l-.59-31-147.203 1 147.793 30z" fill="#F3CF31" sketch:type="MSShapeGroup"/><path d="M304.293 109l-119.527 1-29.266-31 148.793 30z" fill="#FFDC42" sketch:type="MSShapeGroup"/><path d="M36.941 110h150.824l-32.266-31-118.559 31z" fill="#F3CF31" sketch:type="MSShapeGroup"/><path d="M38.941 110l-29.324-30h145.883l-116.559 30z" fill="#FFDC43" sketch:type="MSShapeGroup"/><path d="M38.941 110l-30.324-33v33h30.324z" fill="#F9D124" sketch:type="MSShapeGroup"/><path d="M263.293 10l39.41 70v-70h-39.41z" fill="#F4CF30" sketch:type="MSShapeGroup"/><g sketch:type="MSShapeGroup"><path id="Rectangle-74" fill="#F5F351" d="M290 0h20v20h-20z"/><path d="M290 0l20 20v-20h-20z" id="Rectangle-85" fill="#FFFD2B"/><path d="M290 20h20v-20l-20 20z" id="Rectangle-75" fill="#E8E626"/><path d="M290 19.952h20l-10-9.739-10 9.739z" id="Rectangle-86" fill="#D1CF1E"/></g><g sketch:type="MSShapeGroup"><path id="Rectangle-74" fill="#F5F351" d="M290 100h20v20h-20z"/><path d="M290 100l20 20v-20h-20z" id="Rectangle-85" fill="#FFFD2B"/><path d="M290 120h20v-20l-20 20z" id="Rectangle-75" fill="#E8E626"/><path d="M290 119.952h20l-10-9.739-10 9.739z" id="Rectangle-86" fill="#D1CF1E"/></g><g sketch:type="MSShapeGroup"><path fill="#F5F351" d="M0 0h20v20h-20z"/><path d="M0 0l20 20v-20h-20z" fill="#FFFD2B"/><path d="M0 20h20v-20l-20 20z" fill="#E8E626"/><path d="M0 19.952h20l-10-9.739-10 9.739z" fill="#D1CF1E"/></g><g sketch:type="MSShapeGroup"><path fill="#F5F351" d="M0 100h20v20h-20z"/><path d="M0 100l20 20v-20h-20z" fill="#FFFD2B"/><path d="M0 120h20v-20l-20 20z" fill="#E8E626"/><path d="M0 119.952h20l-10-9.739-10 9.739z" fill="#D1CF1E"/></g><g sketch:type="MSShapeGroup"><path fill="#fff" d="M22 20h266v80h-266z"/><path d="M22 20v80l66.969-80h-66.969z" fill="#FBFBFB"/><path d="M120.691 100h-98.691l66.969-80 31.723 80zM120.691 100h-98.691l66.969-80 31.723 80z" fill="#fff"/><path d="M120.691 100l71.191-80h-102.914l31.723 80z" fill="#FCFCFC"/><path d="M120.691 100l71.191-80 32.625 80h-103.816z" fill="#F6F6F6"/><path d="M288.117 20h-96.234l32.625 80 63.609-80z" fill="#fff"/></g></g></svg>